M48
; DRILL file {KiCad 9.0.6-9.0.6~ubuntu24.04.1} date 2025-11-23T17:21:13+0800
; FORMAT={-:-/ absolute / metric / decimal}
; #@! TF.CreationDate,2025-11-23T17:21:13+08:00
; #@! TF.GenerationSoftware,Kicad,Pcbnew,9.0.6-9.0.6~ubuntu24.04.1
; #@! TF.FileFunction,Plated,1,4,PTH
FMAT,2
METRIC
; #@! TA.AperFunction,Plated,PTH,ViaDrill
T1C0.150
; #@! TA.AperFunction,Plated,PTH,ComponentDrill
T2C0.600
; #@! TA.AperFunction,Plated,PTH,ComponentDrill
T3C0.650
; #@! TA.AperFunction,Plated,PTH,ComponentDrill
T4C1.000
%
G90
G05
T1
X5.9Y6.87
X6.03Y7.87
X7.3Y8.313
X7.3Y7.12
X10.08Y10.95
X10.1Y5.13
X11.05Y9.79
X11.08Y4.12
X11.09Y7.46
X11.25Y2.75
X14.5Y8.0
X14.5Y7.5
X14.5Y7.0
X14.5Y6.5
X14.5Y6.0
X15.0Y8.0
X15.0Y7.5
X15.0Y7.0
X15.0Y6.5
X15.0Y6.0
X15.45Y13.725
X15.5Y8.0
X15.5Y7.5
X15.5Y7.0
X15.5Y6.5
X15.5Y6.0
X16.0Y8.0
X16.0Y7.5
X16.0Y7.0
X16.0Y6.0
X16.01Y6.5
X16.485Y6.5
X16.5Y13.725
X16.5Y8.0
X16.5Y7.5
X16.5Y7.0
X16.5Y6.0
X17.25Y8.0
X17.25Y7.5
X17.25Y7.0
X17.25Y6.5
X17.25Y6.0
X18.6Y13.74
X19.105Y13.18
X19.16Y12.36
X20.58Y7.0
X20.88Y6.63
X22.0Y4.0
X22.5Y13.1
X22.85Y7.5
X22.86Y10.0
X22.86Y9.5
X23.8Y4.44
X25.3Y13.23
X26.48Y10.48
X27.99Y10.0
X28.9Y10.9
X30.4Y11.4
X31.4Y3.0
X32.635Y10.511
X33.2Y13.4
X33.7Y8.9
X33.76Y11.98
X33.98Y2.98
X34.51Y6.07
X34.51Y4.88
X34.51Y3.905
X34.95Y7.99
X35.5Y13.4
T3
X15.045Y1.7
X16.315Y1.7
X17.585Y1.7
X18.855Y1.7
T4
X37.86Y12.58
X37.86Y10.04
X37.86Y7.5
X37.86Y4.96
X37.86Y2.42
X40.4Y12.58
X40.4Y10.04
X40.4Y7.5
X40.4Y4.96
X40.4Y2.42
T2
G00X3.375Y11.82
M15
G01X2.075Y11.82
M16
G05
G00X3.375Y3.18
M15
G01X2.075Y3.18
M16
G05
G00X6.775Y11.82
M15
G01X6.775Y11.22
M16
G05
G00X6.775Y3.78
M15
G01X6.775Y3.18
M16
G05
G00X7.775Y11.82
M15
G01X6.775Y11.82
M16
G05
G00X7.775Y3.18
M15
G01X6.775Y3.18
M16
G05
M30
