%TF.GenerationSoftware,KiCad,Pcbnew,9.0.6-9.0.6~ubuntu24.04.1*%
%TF.CreationDate,2025-11-26T01:33:41+08:00*%
%TF.ProjectId,demo,64656d6f-2e6b-4696-9361-645f70636258,V1.0.1*%
%TF.SameCoordinates,PX5f5e100PY5f5e100*%
%TF.FileFunction,Legend,Bot*%
%TF.FilePolarity,Positive*%
%FSLAX46Y46*%
G04 Gerber Fmt 4.6, Leading zero omitted, Abs format (unit mm)*
G04 Created by KiCad (PCBNEW 9.0.6-9.0.6~ubuntu24.04.1) date 2025-11-26 01:33:41*
%MOMM*%
%LPD*%
G01*
G04 APERTURE LIST*
%ADD10C,0.150000*%
%ADD11O,2.200000X0.900000*%
%ADD12O,1.900000X0.900000*%
%ADD13O,0.900000X1.500000*%
%ADD14C,0.500000*%
%ADD15R,1.000000X1.000000*%
%ADD16C,1.000000*%
%ADD17R,1.700000X1.700000*%
%ADD18C,1.700000*%
G04 APERTURE END LIST*
D10*
X29046496Y8287744D02*
X28930382Y8240125D01*
X28930382Y8240125D02*
X28736858Y8240125D01*
X28736858Y8240125D02*
X28659449Y8287744D01*
X28659449Y8287744D02*
X28620744Y8335364D01*
X28620744Y8335364D02*
X28582039Y8430602D01*
X28582039Y8430602D02*
X28582039Y8525840D01*
X28582039Y8525840D02*
X28620744Y8621078D01*
X28620744Y8621078D02*
X28659449Y8668697D01*
X28659449Y8668697D02*
X28736858Y8716316D01*
X28736858Y8716316D02*
X28891677Y8763935D01*
X28891677Y8763935D02*
X28969087Y8811554D01*
X28969087Y8811554D02*
X29007792Y8859173D01*
X29007792Y8859173D02*
X29046496Y8954411D01*
X29046496Y8954411D02*
X29046496Y9049649D01*
X29046496Y9049649D02*
X29007792Y9144887D01*
X29007792Y9144887D02*
X28969087Y9192506D01*
X28969087Y9192506D02*
X28891677Y9240125D01*
X28891677Y9240125D02*
X28698154Y9240125D01*
X28698154Y9240125D02*
X28582039Y9192506D01*
X28349811Y9240125D02*
X27885354Y9240125D01*
X28117582Y8240125D02*
X28117582Y9240125D01*
X27227373Y8240125D02*
X27614421Y8240125D01*
X27614421Y8240125D02*
X27614421Y9240125D01*
X26956440Y8240125D02*
X26956440Y9240125D01*
X26569392Y8240125D02*
X26569392Y9240125D01*
X26569392Y9240125D02*
X26104935Y8240125D01*
X26104935Y8240125D02*
X26104935Y9240125D01*
X25717887Y8240125D02*
X25717887Y9240125D01*
X25253430Y8240125D02*
X25601772Y8811554D01*
X25253430Y9240125D02*
X25717887Y8668697D01*
X24401925Y9240125D02*
X24130992Y8240125D01*
X24130992Y8240125D02*
X23860058Y9240125D01*
X23627829Y9144887D02*
X23589125Y9192506D01*
X23589125Y9192506D02*
X23511715Y9240125D01*
X23511715Y9240125D02*
X23318191Y9240125D01*
X23318191Y9240125D02*
X23240782Y9192506D01*
X23240782Y9192506D02*
X23202077Y9144887D01*
X23202077Y9144887D02*
X23163372Y9049649D01*
X23163372Y9049649D02*
X23163372Y8954411D01*
X23163372Y8954411D02*
X23202077Y8811554D01*
X23202077Y8811554D02*
X23666534Y8240125D01*
X23666534Y8240125D02*
X23163372Y8240125D01*
X22815030Y8335364D02*
X22776325Y8287744D01*
X22776325Y8287744D02*
X22815030Y8240125D01*
X22815030Y8240125D02*
X22853734Y8287744D01*
X22853734Y8287744D02*
X22815030Y8335364D01*
X22815030Y8335364D02*
X22815030Y8240125D01*
X22002229Y8240125D02*
X22466686Y8240125D01*
X22234458Y8240125D02*
X22234458Y9240125D01*
X22234458Y9240125D02*
X22311867Y9097268D01*
X22311867Y9097268D02*
X22389277Y9002030D01*
X22389277Y9002030D02*
X22466686Y8954411D01*
X21421658Y7859173D02*
X21460363Y7906792D01*
X21460363Y7906792D02*
X21537772Y8049649D01*
X21537772Y8049649D02*
X21576477Y8144887D01*
X21576477Y8144887D02*
X21615182Y8287744D01*
X21615182Y8287744D02*
X21653887Y8525840D01*
X21653887Y8525840D02*
X21653887Y8716316D01*
X21653887Y8716316D02*
X21615182Y8954411D01*
X21615182Y8954411D02*
X21576477Y9097268D01*
X21576477Y9097268D02*
X21537772Y9192506D01*
X21537772Y9192506D02*
X21460363Y9335364D01*
X21460363Y9335364D02*
X21421658Y9382983D01*
X21228134Y8906792D02*
X20918496Y8906792D01*
X21112020Y9240125D02*
X21112020Y8382983D01*
X21112020Y8382983D02*
X21073315Y8287744D01*
X21073315Y8287744D02*
X20995905Y8240125D01*
X20995905Y8240125D02*
X20918496Y8240125D01*
X20724972Y8906792D02*
X20531448Y8240125D01*
X20337925Y8906792D02*
X20531448Y8240125D01*
X20531448Y8240125D02*
X20608858Y8002030D01*
X20608858Y8002030D02*
X20647563Y7954411D01*
X20647563Y7954411D02*
X20724972Y7906792D01*
X20028287Y8906792D02*
X20028287Y7906792D01*
X20028287Y8859173D02*
X19950877Y8906792D01*
X19950877Y8906792D02*
X19796058Y8906792D01*
X19796058Y8906792D02*
X19718649Y8859173D01*
X19718649Y8859173D02*
X19679944Y8811554D01*
X19679944Y8811554D02*
X19641239Y8716316D01*
X19641239Y8716316D02*
X19641239Y8430602D01*
X19641239Y8430602D02*
X19679944Y8335364D01*
X19679944Y8335364D02*
X19718649Y8287744D01*
X19718649Y8287744D02*
X19796058Y8240125D01*
X19796058Y8240125D02*
X19950877Y8240125D01*
X19950877Y8240125D02*
X20028287Y8287744D01*
X18983259Y8287744D02*
X19060668Y8240125D01*
X19060668Y8240125D02*
X19215487Y8240125D01*
X19215487Y8240125D02*
X19292897Y8287744D01*
X19292897Y8287744D02*
X19331601Y8382983D01*
X19331601Y8382983D02*
X19331601Y8763935D01*
X19331601Y8763935D02*
X19292897Y8859173D01*
X19292897Y8859173D02*
X19215487Y8906792D01*
X19215487Y8906792D02*
X19060668Y8906792D01*
X19060668Y8906792D02*
X18983259Y8859173D01*
X18983259Y8859173D02*
X18944554Y8763935D01*
X18944554Y8763935D02*
X18944554Y8668697D01*
X18944554Y8668697D02*
X19331601Y8573459D01*
X18596211Y8621078D02*
X17976935Y8621078D01*
X17241544Y8287744D02*
X17318953Y8240125D01*
X17318953Y8240125D02*
X17473772Y8240125D01*
X17473772Y8240125D02*
X17551182Y8287744D01*
X17551182Y8287744D02*
X17589887Y8335364D01*
X17589887Y8335364D02*
X17628591Y8430602D01*
X17628591Y8430602D02*
X17628591Y8716316D01*
X17628591Y8716316D02*
X17589887Y8811554D01*
X17589887Y8811554D02*
X17551182Y8859173D01*
X17551182Y8859173D02*
X17473772Y8906792D01*
X17473772Y8906792D02*
X17318953Y8906792D01*
X17318953Y8906792D02*
X17241544Y8859173D01*
X16931905Y9002030D02*
X16583563Y9002030D01*
X16699677Y9382983D02*
X16699677Y9002030D01*
X16506153Y8954411D02*
X16041696Y8954411D01*
X16506153Y9335364D02*
X16041696Y9335364D01*
X16931905Y8716316D02*
X16660972Y8716316D01*
X16660972Y8716316D02*
X16660972Y8240125D01*
X16931905Y9335364D02*
X16931905Y8621078D01*
X16931905Y8621078D02*
X16970610Y8240125D01*
X16506153Y9335364D02*
X16506153Y8716316D01*
X16506153Y8716316D02*
X16583563Y8287744D01*
X16428744Y8954411D02*
X16312629Y8573459D01*
X16312629Y8573459D02*
X16080401Y8287744D01*
X16041696Y8954411D02*
X16196515Y8525840D01*
X16196515Y8525840D02*
X16390039Y8287744D01*
X15770762Y9049649D02*
X14841848Y9049649D01*
X15538534Y8478221D02*
X15074077Y8478221D01*
X15306305Y9382983D02*
X15306305Y8240125D01*
X15306305Y9049649D02*
X15383715Y8906792D01*
X15383715Y8906792D02*
X15693353Y8525840D01*
X15693353Y8525840D02*
X15809467Y8478221D01*
X15306305Y9049649D02*
X15228896Y8859173D01*
X15228896Y8859173D02*
X14957962Y8573459D01*
X14957962Y8573459D02*
X14803143Y8478221D01*
X14570914Y7859173D02*
X14532209Y7906792D01*
X14532209Y7906792D02*
X14454800Y8049649D01*
X14454800Y8049649D02*
X14416095Y8144887D01*
X14416095Y8144887D02*
X14377390Y8287744D01*
X14377390Y8287744D02*
X14338686Y8525840D01*
X14338686Y8525840D02*
X14338686Y8716316D01*
X14338686Y8716316D02*
X14377390Y8954411D01*
X14377390Y8954411D02*
X14416095Y9097268D01*
X14416095Y9097268D02*
X14454800Y9192506D01*
X14454800Y9192506D02*
X14532209Y9335364D01*
X14532209Y9335364D02*
X14570914Y9382983D01*
X29046496Y7534943D02*
X29007792Y7582562D01*
X29007792Y7582562D02*
X28930382Y7630181D01*
X28930382Y7630181D02*
X28736858Y7630181D01*
X28736858Y7630181D02*
X28659449Y7582562D01*
X28659449Y7582562D02*
X28620744Y7534943D01*
X28620744Y7534943D02*
X28582039Y7439705D01*
X28582039Y7439705D02*
X28582039Y7344467D01*
X28582039Y7344467D02*
X28620744Y7201610D01*
X28620744Y7201610D02*
X29085201Y6630181D01*
X29085201Y6630181D02*
X28582039Y6630181D01*
X28078878Y7630181D02*
X28001468Y7630181D01*
X28001468Y7630181D02*
X27924059Y7582562D01*
X27924059Y7582562D02*
X27885354Y7534943D01*
X27885354Y7534943D02*
X27846649Y7439705D01*
X27846649Y7439705D02*
X27807944Y7249229D01*
X27807944Y7249229D02*
X27807944Y7011134D01*
X27807944Y7011134D02*
X27846649Y6820658D01*
X27846649Y6820658D02*
X27885354Y6725420D01*
X27885354Y6725420D02*
X27924059Y6677800D01*
X27924059Y6677800D02*
X28001468Y6630181D01*
X28001468Y6630181D02*
X28078878Y6630181D01*
X28078878Y6630181D02*
X28156287Y6677800D01*
X28156287Y6677800D02*
X28194992Y6725420D01*
X28194992Y6725420D02*
X28233697Y6820658D01*
X28233697Y6820658D02*
X28272401Y7011134D01*
X28272401Y7011134D02*
X28272401Y7249229D01*
X28272401Y7249229D02*
X28233697Y7439705D01*
X28233697Y7439705D02*
X28194992Y7534943D01*
X28194992Y7534943D02*
X28156287Y7582562D01*
X28156287Y7582562D02*
X28078878Y7630181D01*
X27498306Y7534943D02*
X27459602Y7582562D01*
X27459602Y7582562D02*
X27382192Y7630181D01*
X27382192Y7630181D02*
X27188668Y7630181D01*
X27188668Y7630181D02*
X27111259Y7582562D01*
X27111259Y7582562D02*
X27072554Y7534943D01*
X27072554Y7534943D02*
X27033849Y7439705D01*
X27033849Y7439705D02*
X27033849Y7344467D01*
X27033849Y7344467D02*
X27072554Y7201610D01*
X27072554Y7201610D02*
X27537011Y6630181D01*
X27537011Y6630181D02*
X27033849Y6630181D01*
X26298459Y7630181D02*
X26685507Y7630181D01*
X26685507Y7630181D02*
X26724211Y7153991D01*
X26724211Y7153991D02*
X26685507Y7201610D01*
X26685507Y7201610D02*
X26608097Y7249229D01*
X26608097Y7249229D02*
X26414573Y7249229D01*
X26414573Y7249229D02*
X26337164Y7201610D01*
X26337164Y7201610D02*
X26298459Y7153991D01*
X26298459Y7153991D02*
X26259754Y7058753D01*
X26259754Y7058753D02*
X26259754Y6820658D01*
X26259754Y6820658D02*
X26298459Y6725420D01*
X26298459Y6725420D02*
X26337164Y6677800D01*
X26337164Y6677800D02*
X26414573Y6630181D01*
X26414573Y6630181D02*
X26608097Y6630181D01*
X26608097Y6630181D02*
X26685507Y6677800D01*
X26685507Y6677800D02*
X26724211Y6725420D01*
X25911412Y7011134D02*
X25292136Y7011134D01*
X24479335Y6630181D02*
X24943792Y6630181D01*
X24711564Y6630181D02*
X24711564Y7630181D01*
X24711564Y7630181D02*
X24788973Y7487324D01*
X24788973Y7487324D02*
X24866383Y7392086D01*
X24866383Y7392086D02*
X24943792Y7344467D01*
X23705240Y6630181D02*
X24169697Y6630181D01*
X23937469Y6630181D02*
X23937469Y7630181D01*
X23937469Y7630181D02*
X24014878Y7487324D01*
X24014878Y7487324D02*
X24092288Y7392086D01*
X24092288Y7392086D02*
X24169697Y7344467D01*
X23356898Y7011134D02*
X22737622Y7011134D01*
X22389278Y7534943D02*
X22350574Y7582562D01*
X22350574Y7582562D02*
X22273164Y7630181D01*
X22273164Y7630181D02*
X22079640Y7630181D01*
X22079640Y7630181D02*
X22002231Y7582562D01*
X22002231Y7582562D02*
X21963526Y7534943D01*
X21963526Y7534943D02*
X21924821Y7439705D01*
X21924821Y7439705D02*
X21924821Y7344467D01*
X21924821Y7344467D02*
X21963526Y7201610D01*
X21963526Y7201610D02*
X22427983Y6630181D01*
X22427983Y6630181D02*
X21924821Y6630181D01*
X21228136Y7630181D02*
X21382955Y7630181D01*
X21382955Y7630181D02*
X21460364Y7582562D01*
X21460364Y7582562D02*
X21499069Y7534943D01*
X21499069Y7534943D02*
X21576479Y7392086D01*
X21576479Y7392086D02*
X21615183Y7201610D01*
X21615183Y7201610D02*
X21615183Y6820658D01*
X21615183Y6820658D02*
X21576479Y6725420D01*
X21576479Y6725420D02*
X21537774Y6677800D01*
X21537774Y6677800D02*
X21460364Y6630181D01*
X21460364Y6630181D02*
X21305545Y6630181D01*
X21305545Y6630181D02*
X21228136Y6677800D01*
X21228136Y6677800D02*
X21189431Y6725420D01*
X21189431Y6725420D02*
X21150726Y6820658D01*
X21150726Y6820658D02*
X21150726Y7058753D01*
X21150726Y7058753D02*
X21189431Y7153991D01*
X21189431Y7153991D02*
X21228136Y7201610D01*
X21228136Y7201610D02*
X21305545Y7249229D01*
X21305545Y7249229D02*
X21460364Y7249229D01*
X21460364Y7249229D02*
X21537774Y7201610D01*
X21537774Y7201610D02*
X21576479Y7153991D01*
X21576479Y7153991D02*
X21615183Y7058753D01*
X20299222Y7630181D02*
X20028289Y6630181D01*
X20028289Y6630181D02*
X19757355Y7630181D01*
X19060669Y6630181D02*
X19525126Y6630181D01*
X19292898Y6630181D02*
X19292898Y7630181D01*
X19292898Y7630181D02*
X19370307Y7487324D01*
X19370307Y7487324D02*
X19447717Y7392086D01*
X19447717Y7392086D02*
X19525126Y7344467D01*
X18712327Y6725420D02*
X18673622Y6677800D01*
X18673622Y6677800D02*
X18712327Y6630181D01*
X18712327Y6630181D02*
X18751031Y6677800D01*
X18751031Y6677800D02*
X18712327Y6725420D01*
X18712327Y6725420D02*
X18712327Y6630181D01*
X18170460Y7630181D02*
X18093050Y7630181D01*
X18093050Y7630181D02*
X18015641Y7582562D01*
X18015641Y7582562D02*
X17976936Y7534943D01*
X17976936Y7534943D02*
X17938231Y7439705D01*
X17938231Y7439705D02*
X17899526Y7249229D01*
X17899526Y7249229D02*
X17899526Y7011134D01*
X17899526Y7011134D02*
X17938231Y6820658D01*
X17938231Y6820658D02*
X17976936Y6725420D01*
X17976936Y6725420D02*
X18015641Y6677800D01*
X18015641Y6677800D02*
X18093050Y6630181D01*
X18093050Y6630181D02*
X18170460Y6630181D01*
X18170460Y6630181D02*
X18247869Y6677800D01*
X18247869Y6677800D02*
X18286574Y6725420D01*
X18286574Y6725420D02*
X18325279Y6820658D01*
X18325279Y6820658D02*
X18363983Y7011134D01*
X18363983Y7011134D02*
X18363983Y7249229D01*
X18363983Y7249229D02*
X18325279Y7439705D01*
X18325279Y7439705D02*
X18286574Y7534943D01*
X18286574Y7534943D02*
X18247869Y7582562D01*
X18247869Y7582562D02*
X18170460Y7630181D01*
X17551184Y6725420D02*
X17512479Y6677800D01*
X17512479Y6677800D02*
X17551184Y6630181D01*
X17551184Y6630181D02*
X17589888Y6677800D01*
X17589888Y6677800D02*
X17551184Y6725420D01*
X17551184Y6725420D02*
X17551184Y6630181D01*
X17202840Y7534943D02*
X17164136Y7582562D01*
X17164136Y7582562D02*
X17086726Y7630181D01*
X17086726Y7630181D02*
X16893202Y7630181D01*
X16893202Y7630181D02*
X16815793Y7582562D01*
X16815793Y7582562D02*
X16777088Y7534943D01*
X16777088Y7534943D02*
X16738383Y7439705D01*
X16738383Y7439705D02*
X16738383Y7344467D01*
X16738383Y7344467D02*
X16777088Y7201610D01*
X16777088Y7201610D02*
X17241545Y6630181D01*
X17241545Y6630181D02*
X16738383Y6630181D01*
X46787030Y6977800D02*
X46701316Y6930181D01*
X46701316Y6930181D02*
X46558458Y6930181D01*
X46558458Y6930181D02*
X46501316Y6977800D01*
X46501316Y6977800D02*
X46472744Y7025420D01*
X46472744Y7025420D02*
X46444173Y7120658D01*
X46444173Y7120658D02*
X46444173Y7215896D01*
X46444173Y7215896D02*
X46472744Y7311134D01*
X46472744Y7311134D02*
X46501316Y7358753D01*
X46501316Y7358753D02*
X46558458Y7406372D01*
X46558458Y7406372D02*
X46672744Y7453991D01*
X46672744Y7453991D02*
X46729887Y7501610D01*
X46729887Y7501610D02*
X46758458Y7549229D01*
X46758458Y7549229D02*
X46787030Y7644467D01*
X46787030Y7644467D02*
X46787030Y7739705D01*
X46787030Y7739705D02*
X46758458Y7834943D01*
X46758458Y7834943D02*
X46729887Y7882562D01*
X46729887Y7882562D02*
X46672744Y7930181D01*
X46672744Y7930181D02*
X46529887Y7930181D01*
X46529887Y7930181D02*
X46444173Y7882562D01*
X46244172Y7930181D02*
X46101315Y6930181D01*
X46101315Y6930181D02*
X45987029Y7644467D01*
X45987029Y7644467D02*
X45872744Y6930181D01*
X45872744Y6930181D02*
X45729887Y7930181D01*
X45158458Y7025420D02*
X45187030Y6977800D01*
X45187030Y6977800D02*
X45272744Y6930181D01*
X45272744Y6930181D02*
X45329887Y6930181D01*
X45329887Y6930181D02*
X45415601Y6977800D01*
X45415601Y6977800D02*
X45472744Y7073039D01*
X45472744Y7073039D02*
X45501315Y7168277D01*
X45501315Y7168277D02*
X45529887Y7358753D01*
X45529887Y7358753D02*
X45529887Y7501610D01*
X45529887Y7501610D02*
X45501315Y7692086D01*
X45501315Y7692086D02*
X45472744Y7787324D01*
X45472744Y7787324D02*
X45415601Y7882562D01*
X45415601Y7882562D02*
X45329887Y7930181D01*
X45329887Y7930181D02*
X45272744Y7930181D01*
X45272744Y7930181D02*
X45187030Y7882562D01*
X45187030Y7882562D02*
X45158458Y7834943D01*
X44615601Y6930181D02*
X44901315Y6930181D01*
X44901315Y6930181D02*
X44901315Y7930181D01*
X44415601Y6930181D02*
X44415601Y7930181D01*
X44072744Y6930181D02*
X44329887Y7501610D01*
X44072744Y7930181D02*
X44415601Y7358753D01*
X39046496Y7177800D02*
X38930382Y7130181D01*
X38930382Y7130181D02*
X38736858Y7130181D01*
X38736858Y7130181D02*
X38659449Y7177800D01*
X38659449Y7177800D02*
X38620744Y7225420D01*
X38620744Y7225420D02*
X38582039Y7320658D01*
X38582039Y7320658D02*
X38582039Y7415896D01*
X38582039Y7415896D02*
X38620744Y7511134D01*
X38620744Y7511134D02*
X38659449Y7558753D01*
X38659449Y7558753D02*
X38736858Y7606372D01*
X38736858Y7606372D02*
X38891677Y7653991D01*
X38891677Y7653991D02*
X38969087Y7701610D01*
X38969087Y7701610D02*
X39007792Y7749229D01*
X39007792Y7749229D02*
X39046496Y7844467D01*
X39046496Y7844467D02*
X39046496Y7939705D01*
X39046496Y7939705D02*
X39007792Y8034943D01*
X39007792Y8034943D02*
X38969087Y8082562D01*
X38969087Y8082562D02*
X38891677Y8130181D01*
X38891677Y8130181D02*
X38698154Y8130181D01*
X38698154Y8130181D02*
X38582039Y8082562D01*
X38311106Y8130181D02*
X38117582Y7130181D01*
X38117582Y7130181D02*
X37962763Y7844467D01*
X37962763Y7844467D02*
X37807944Y7130181D01*
X37807944Y7130181D02*
X37614421Y8130181D01*
X37304783Y7130181D02*
X37304783Y8130181D01*
X37304783Y8130181D02*
X37111259Y8130181D01*
X37111259Y8130181D02*
X36995145Y8082562D01*
X36995145Y8082562D02*
X36917735Y7987324D01*
X36917735Y7987324D02*
X36879030Y7892086D01*
X36879030Y7892086D02*
X36840326Y7701610D01*
X36840326Y7701610D02*
X36840326Y7558753D01*
X36840326Y7558753D02*
X36879030Y7368277D01*
X36879030Y7368277D02*
X36917735Y7273039D01*
X36917735Y7273039D02*
X36995145Y7177800D01*
X36995145Y7177800D02*
X37111259Y7130181D01*
X37111259Y7130181D02*
X37304783Y7130181D01*
X36491983Y7130181D02*
X36491983Y8130181D01*
X35950116Y8130181D02*
X35795297Y8130181D01*
X35795297Y8130181D02*
X35717887Y8082562D01*
X35717887Y8082562D02*
X35640478Y7987324D01*
X35640478Y7987324D02*
X35601773Y7796848D01*
X35601773Y7796848D02*
X35601773Y7463515D01*
X35601773Y7463515D02*
X35640478Y7273039D01*
X35640478Y7273039D02*
X35717887Y7177800D01*
X35717887Y7177800D02*
X35795297Y7130181D01*
X35795297Y7130181D02*
X35950116Y7130181D01*
X35950116Y7130181D02*
X36027525Y7177800D01*
X36027525Y7177800D02*
X36104935Y7273039D01*
X36104935Y7273039D02*
X36143639Y7463515D01*
X36143639Y7463515D02*
X36143639Y7796848D01*
X36143639Y7796848D02*
X36104935Y7987324D01*
X36104935Y7987324D02*
X36027525Y8082562D01*
X36027525Y8082562D02*
X35950116Y8130181D01*
X46446496Y4377800D02*
X46330382Y4330181D01*
X46330382Y4330181D02*
X46136858Y4330181D01*
X46136858Y4330181D02*
X46059449Y4377800D01*
X46059449Y4377800D02*
X46020744Y4425420D01*
X46020744Y4425420D02*
X45982039Y4520658D01*
X45982039Y4520658D02*
X45982039Y4615896D01*
X45982039Y4615896D02*
X46020744Y4711134D01*
X46020744Y4711134D02*
X46059449Y4758753D01*
X46059449Y4758753D02*
X46136858Y4806372D01*
X46136858Y4806372D02*
X46291677Y4853991D01*
X46291677Y4853991D02*
X46369087Y4901610D01*
X46369087Y4901610D02*
X46407792Y4949229D01*
X46407792Y4949229D02*
X46446496Y5044467D01*
X46446496Y5044467D02*
X46446496Y5139705D01*
X46446496Y5139705D02*
X46407792Y5234943D01*
X46407792Y5234943D02*
X46369087Y5282562D01*
X46369087Y5282562D02*
X46291677Y5330181D01*
X46291677Y5330181D02*
X46098154Y5330181D01*
X46098154Y5330181D02*
X45982039Y5282562D01*
X45711106Y5330181D02*
X45517582Y4330181D01*
X45517582Y4330181D02*
X45362763Y5044467D01*
X45362763Y5044467D02*
X45207944Y4330181D01*
X45207944Y4330181D02*
X45014421Y5330181D01*
X44549964Y5330181D02*
X44395145Y5330181D01*
X44395145Y5330181D02*
X44317735Y5282562D01*
X44317735Y5282562D02*
X44240326Y5187324D01*
X44240326Y5187324D02*
X44201621Y4996848D01*
X44201621Y4996848D02*
X44201621Y4663515D01*
X44201621Y4663515D02*
X44240326Y4473039D01*
X44240326Y4473039D02*
X44317735Y4377800D01*
X44317735Y4377800D02*
X44395145Y4330181D01*
X44395145Y4330181D02*
X44549964Y4330181D01*
X44549964Y4330181D02*
X44627373Y4377800D01*
X44627373Y4377800D02*
X44704783Y4473039D01*
X44704783Y4473039D02*
X44743487Y4663515D01*
X44743487Y4663515D02*
X44743487Y4996848D01*
X44743487Y4996848D02*
X44704783Y5187324D01*
X44704783Y5187324D02*
X44627373Y5282562D01*
X44627373Y5282562D02*
X44549964Y5330181D01*
X38907792Y4430181D02*
X38907792Y5430181D01*
X38907792Y5430181D02*
X38443335Y4430181D01*
X38443335Y4430181D02*
X38443335Y5430181D01*
X37591830Y4430181D02*
X37862763Y4906372D01*
X38056287Y4430181D02*
X38056287Y5430181D01*
X38056287Y5430181D02*
X37746649Y5430181D01*
X37746649Y5430181D02*
X37669239Y5382562D01*
X37669239Y5382562D02*
X37630534Y5334943D01*
X37630534Y5334943D02*
X37591830Y5239705D01*
X37591830Y5239705D02*
X37591830Y5096848D01*
X37591830Y5096848D02*
X37630534Y5001610D01*
X37630534Y5001610D02*
X37669239Y4953991D01*
X37669239Y4953991D02*
X37746649Y4906372D01*
X37746649Y4906372D02*
X38056287Y4906372D01*
X37282191Y4477800D02*
X37166077Y4430181D01*
X37166077Y4430181D02*
X36972553Y4430181D01*
X36972553Y4430181D02*
X36895144Y4477800D01*
X36895144Y4477800D02*
X36856439Y4525420D01*
X36856439Y4525420D02*
X36817734Y4620658D01*
X36817734Y4620658D02*
X36817734Y4715896D01*
X36817734Y4715896D02*
X36856439Y4811134D01*
X36856439Y4811134D02*
X36895144Y4858753D01*
X36895144Y4858753D02*
X36972553Y4906372D01*
X36972553Y4906372D02*
X37127372Y4953991D01*
X37127372Y4953991D02*
X37204782Y5001610D01*
X37204782Y5001610D02*
X37243487Y5049229D01*
X37243487Y5049229D02*
X37282191Y5144467D01*
X37282191Y5144467D02*
X37282191Y5239705D01*
X37282191Y5239705D02*
X37243487Y5334943D01*
X37243487Y5334943D02*
X37204782Y5382562D01*
X37204782Y5382562D02*
X37127372Y5430181D01*
X37127372Y5430181D02*
X36933849Y5430181D01*
X36933849Y5430181D02*
X36817734Y5382562D01*
X36585506Y5430181D02*
X36121049Y5430181D01*
X36353277Y4430181D02*
X36353277Y5430181D01*
X45543335Y1830181D02*
X45814268Y2306372D01*
X46007792Y1830181D02*
X46007792Y2830181D01*
X46007792Y2830181D02*
X45698154Y2830181D01*
X45698154Y2830181D02*
X45620744Y2782562D01*
X45620744Y2782562D02*
X45582039Y2734943D01*
X45582039Y2734943D02*
X45543335Y2639705D01*
X45543335Y2639705D02*
X45543335Y2496848D01*
X45543335Y2496848D02*
X45582039Y2401610D01*
X45582039Y2401610D02*
X45620744Y2353991D01*
X45620744Y2353991D02*
X45698154Y2306372D01*
X45698154Y2306372D02*
X46007792Y2306372D01*
X45272401Y2830181D02*
X44730535Y1830181D01*
X44730535Y2830181D02*
X45272401Y1830181D01*
X38823906Y2930181D02*
X38359449Y2930181D01*
X38591677Y1930181D02*
X38591677Y2930181D01*
X38165925Y2930181D02*
X37624059Y1930181D01*
X37624059Y2930181D02*
X38165925Y1930181D01*
X38382039Y10482562D02*
X38459449Y10530181D01*
X38459449Y10530181D02*
X38575563Y10530181D01*
X38575563Y10530181D02*
X38691677Y10482562D01*
X38691677Y10482562D02*
X38769087Y10387324D01*
X38769087Y10387324D02*
X38807792Y10292086D01*
X38807792Y10292086D02*
X38846496Y10101610D01*
X38846496Y10101610D02*
X38846496Y9958753D01*
X38846496Y9958753D02*
X38807792Y9768277D01*
X38807792Y9768277D02*
X38769087Y9673039D01*
X38769087Y9673039D02*
X38691677Y9577800D01*
X38691677Y9577800D02*
X38575563Y9530181D01*
X38575563Y9530181D02*
X38498154Y9530181D01*
X38498154Y9530181D02*
X38382039Y9577800D01*
X38382039Y9577800D02*
X38343335Y9625420D01*
X38343335Y9625420D02*
X38343335Y9958753D01*
X38343335Y9958753D02*
X38498154Y9958753D01*
X37994992Y9530181D02*
X37994992Y10530181D01*
X37994992Y10530181D02*
X37530535Y9530181D01*
X37530535Y9530181D02*
X37530535Y10530181D01*
X37143487Y9530181D02*
X37143487Y10530181D01*
X37143487Y10530181D02*
X36949963Y10530181D01*
X36949963Y10530181D02*
X36833849Y10482562D01*
X36833849Y10482562D02*
X36756439Y10387324D01*
X36756439Y10387324D02*
X36717734Y10292086D01*
X36717734Y10292086D02*
X36679030Y10101610D01*
X36679030Y10101610D02*
X36679030Y9958753D01*
X36679030Y9958753D02*
X36717734Y9768277D01*
X36717734Y9768277D02*
X36756439Y9673039D01*
X36756439Y9673039D02*
X36833849Y9577800D01*
X36833849Y9577800D02*
X36949963Y9530181D01*
X36949963Y9530181D02*
X37143487Y9530181D01*
X46182039Y10482562D02*
X46259449Y10530181D01*
X46259449Y10530181D02*
X46375563Y10530181D01*
X46375563Y10530181D02*
X46491677Y10482562D01*
X46491677Y10482562D02*
X46569087Y10387324D01*
X46569087Y10387324D02*
X46607792Y10292086D01*
X46607792Y10292086D02*
X46646496Y10101610D01*
X46646496Y10101610D02*
X46646496Y9958753D01*
X46646496Y9958753D02*
X46607792Y9768277D01*
X46607792Y9768277D02*
X46569087Y9673039D01*
X46569087Y9673039D02*
X46491677Y9577800D01*
X46491677Y9577800D02*
X46375563Y9530181D01*
X46375563Y9530181D02*
X46298154Y9530181D01*
X46298154Y9530181D02*
X46182039Y9577800D01*
X46182039Y9577800D02*
X46143335Y9625420D01*
X46143335Y9625420D02*
X46143335Y9958753D01*
X46143335Y9958753D02*
X46298154Y9958753D01*
X45794992Y9530181D02*
X45794992Y10530181D01*
X45794992Y10530181D02*
X45330535Y9530181D01*
X45330535Y9530181D02*
X45330535Y10530181D01*
X44943487Y9530181D02*
X44943487Y10530181D01*
X44943487Y10530181D02*
X44749963Y10530181D01*
X44749963Y10530181D02*
X44633849Y10482562D01*
X44633849Y10482562D02*
X44556439Y10387324D01*
X44556439Y10387324D02*
X44517734Y10292086D01*
X44517734Y10292086D02*
X44479030Y10101610D01*
X44479030Y10101610D02*
X44479030Y9958753D01*
X44479030Y9958753D02*
X44517734Y9768277D01*
X44517734Y9768277D02*
X44556439Y9673039D01*
X44556439Y9673039D02*
X44633849Y9577800D01*
X44633849Y9577800D02*
X44749963Y9530181D01*
X44749963Y9530181D02*
X44943487Y9530181D01*
X45020744Y13030181D02*
X45407792Y13030181D01*
X45407792Y13030181D02*
X45446496Y12553991D01*
X45446496Y12553991D02*
X45407792Y12601610D01*
X45407792Y12601610D02*
X45330382Y12649229D01*
X45330382Y12649229D02*
X45136858Y12649229D01*
X45136858Y12649229D02*
X45059449Y12601610D01*
X45059449Y12601610D02*
X45020744Y12553991D01*
X45020744Y12553991D02*
X44982039Y12458753D01*
X44982039Y12458753D02*
X44982039Y12220658D01*
X44982039Y12220658D02*
X45020744Y12125420D01*
X45020744Y12125420D02*
X45059449Y12077800D01*
X45059449Y12077800D02*
X45136858Y12030181D01*
X45136858Y12030181D02*
X45330382Y12030181D01*
X45330382Y12030181D02*
X45407792Y12077800D01*
X45407792Y12077800D02*
X45446496Y12125420D01*
X44749811Y13030181D02*
X44478878Y12030181D01*
X44478878Y12030181D02*
X44207944Y13030181D01*
X38985201Y13130181D02*
X38482039Y13130181D01*
X38482039Y13130181D02*
X38752973Y12749229D01*
X38752973Y12749229D02*
X38636858Y12749229D01*
X38636858Y12749229D02*
X38559449Y12701610D01*
X38559449Y12701610D02*
X38520744Y12653991D01*
X38520744Y12653991D02*
X38482039Y12558753D01*
X38482039Y12558753D02*
X38482039Y12320658D01*
X38482039Y12320658D02*
X38520744Y12225420D01*
X38520744Y12225420D02*
X38559449Y12177800D01*
X38559449Y12177800D02*
X38636858Y12130181D01*
X38636858Y12130181D02*
X38869087Y12130181D01*
X38869087Y12130181D02*
X38946496Y12177800D01*
X38946496Y12177800D02*
X38985201Y12225420D01*
X38249811Y13130181D02*
X37978878Y12130181D01*
X37978878Y12130181D02*
X37707944Y13130181D01*
X37514420Y13130181D02*
X37011258Y13130181D01*
X37011258Y13130181D02*
X37282192Y12749229D01*
X37282192Y12749229D02*
X37166077Y12749229D01*
X37166077Y12749229D02*
X37088668Y12701610D01*
X37088668Y12701610D02*
X37049963Y12653991D01*
X37049963Y12653991D02*
X37011258Y12558753D01*
X37011258Y12558753D02*
X37011258Y12320658D01*
X37011258Y12320658D02*
X37049963Y12225420D01*
X37049963Y12225420D02*
X37088668Y12177800D01*
X37088668Y12177800D02*
X37166077Y12130181D01*
X37166077Y12130181D02*
X37398306Y12130181D01*
X37398306Y12130181D02*
X37475715Y12177800D01*
X37475715Y12177800D02*
X37514420Y12225420D01*
%LPC*%
D11*
%TO.C,J1*%
X2700000Y3180000D03*
D12*
X7250000Y3180000D03*
D13*
X6750000Y3480000D03*
X6750000Y11520000D03*
D11*
X2700000Y11820000D03*
D12*
X7250000Y11820000D03*
D14*
X5900000Y4100000D03*
X5900000Y10900000D03*
%TD*%
D15*
%TO.C,J3*%
X32840000Y1800000D03*
D16*
X31570000Y1800000D03*
X30300000Y1800000D03*
X29030000Y1800000D03*
%TD*%
D17*
%TO.C,J2*%
X40460000Y12620000D03*
D18*
X43000000Y12620000D03*
X40460000Y10080000D03*
X43000000Y10080000D03*
X40460000Y7540000D03*
X43000000Y7540000D03*
X40460000Y5000000D03*
X43000000Y5000000D03*
X40460000Y2460000D03*
X43000000Y2460000D03*
%TD*%
%LPD*%
M02*
