%TF.GenerationSoftware,KiCad,Pcbnew,9.0.6-9.0.6~ubuntu24.04.1*%
%TF.CreationDate,2025-12-14T03:52:58+08:00*%
%TF.ProjectId,demo,64656d6f-2e6b-4696-9361-645f70636258,V1.0.1*%
%TF.SameCoordinates,PX632ea00PY5f5e100*%
%TF.FileFunction,Copper,L3,Inr*%
%TF.FilePolarity,Positive*%
%FSLAX46Y46*%
G04 Gerber Fmt 4.6, Leading zero omitted, Abs format (unit mm)*
G04 Created by KiCad (PCBNEW 9.0.6-9.0.6~ubuntu24.04.1) date 2025-12-14 03:52:58*
%MOMM*%
%LPD*%
G01*
G04 APERTURE LIST*
%TA.AperFunction,ComponentPad*%
%ADD10R,1.000000X1.000000*%
%TD*%
%TA.AperFunction,ComponentPad*%
%ADD11C,1.000000*%
%TD*%
%TA.AperFunction,HeatsinkPad*%
%ADD12O,2.100000X1.000000*%
%TD*%
%TA.AperFunction,HeatsinkPad*%
%ADD13O,1.800000X1.000000*%
%TD*%
%TA.AperFunction,ViaPad*%
%ADD14C,0.500000*%
%TD*%
G04 APERTURE END LIST*
D10*
%TO.N,+3V3*%
%TO.C,J3*%
X-9520000Y-5300000D03*
D11*
%TO.N,/STM_JTMS*%
X-8250000Y-5300000D03*
%TO.N,/STM_JTCK*%
X-6980000Y-5300000D03*
%TO.N,GND*%
X-5710000Y-5300000D03*
%TD*%
D12*
%TO.N,GND*%
%TO.C,J1*%
X-12395000Y4320000D03*
D13*
X-16575000Y4320000D03*
D12*
X-12395000Y-4320000D03*
D13*
X-16575000Y-4320000D03*
%TD*%
D14*
%TO.N,GND*%
X-17250000Y500000D03*
X2000000Y0D03*
X-16500000Y-2500000D03*
X-5200000Y4300000D03*
X-2000000Y-1000000D03*
X-15000000Y-1500000D03*
X-10800000Y2270000D03*
X-1710000Y3730000D03*
X-6400000Y4300000D03*
X-5800000Y4300000D03*
X-15000000Y1500000D03*
X-17250000Y-2500000D03*
X-15000000Y-2500000D03*
X2820000Y1440000D03*
X-370000Y-4660000D03*
X-1000000Y2000000D03*
X0Y-2000000D03*
X-17250000Y-1500000D03*
X5490000Y4670000D03*
X0Y3500000D03*
X-3030366Y-3448960D03*
X2000000Y1000000D03*
X-2070000Y-1560000D03*
X14200000Y1400000D03*
X-1000000Y-1000000D03*
X-16500000Y1500000D03*
X-5200000Y4900000D03*
X0Y-1000000D03*
X-5200000Y3600000D03*
X-15750000Y-500000D03*
X-1000000Y1000000D03*
X-1000000Y-2000000D03*
X14200000Y-1200000D03*
X-15750000Y-1500000D03*
X-1000000Y3500000D03*
X-16500000Y2500000D03*
X-1000000Y0D03*
X-17250000Y-500000D03*
X-15000000Y2500000D03*
X2780000Y-2270000D03*
X-2000000Y2000000D03*
X-15000000Y-500000D03*
X-16500000Y-1500000D03*
X-17250000Y2500000D03*
X-15750000Y2500000D03*
X-15000000Y500000D03*
X-16500000Y500000D03*
X0Y2000000D03*
X-15750000Y1500000D03*
X5070000Y-3250000D03*
X0Y0D03*
X2000000Y-1000000D03*
X-2000000Y1000000D03*
X-15750000Y500000D03*
X2000000Y2000000D03*
X14200000Y-3850000D03*
X-17250000Y1500000D03*
X0Y1000000D03*
X-16500000Y-500000D03*
X-15750000Y-2500000D03*
X2000000Y-2000000D03*
%TO.N,+3V3*%
X8126395Y3533966D03*
X-11000000Y5750000D03*
X-3630000Y-3470000D03*
X4360000Y-3390000D03*
X4580000Y4830000D03*
X-17750000Y5750000D03*
X-16250000Y5750000D03*
X-13250000Y5750000D03*
X-8060000Y-2280000D03*
X-15500000Y5750000D03*
X-14750000Y5750000D03*
X-17000000Y5750000D03*
X-3050000Y4780000D03*
X-11750000Y5750000D03*
X-12500000Y5750000D03*
X-10810000Y1310000D03*
X14200000Y3800000D03*
X-14000000Y5750000D03*
%TO.N,Net-(Q1-B)*%
X-5900000Y-2070000D03*
X-6256115Y-4540000D03*
X-6326115Y-3226115D03*
X-5290000Y2930000D03*
%TO.N,Net-(J2-Pin_6)*%
X12300000Y-1410000D03*
%TO.N,/T_Rx*%
X3280000Y3720000D03*
X3280000Y-4770000D03*
%TO.N,/T_Tx*%
X5910000Y-4800000D03*
X5300000Y4000000D03*
X12810000Y-3700000D03*
%TO.N,/T_JTMS*%
X9310000Y5640000D03*
X6642657Y-5241657D03*
X1580000Y-5240000D03*
X1200000Y2440000D03*
%TO.N,/T_NRST*%
X2630000Y-5850000D03*
X800000Y3530000D03*
%TO.N,/T_SWO*%
X8340000Y-3340000D03*
X7860000Y-4590000D03*
X-2680000Y-5850000D03*
X-2560000Y130000D03*
%TO.N,Net-(U2-PB2)*%
X8530000Y3090000D03*
X8480000Y5830000D03*
%TO.N,Net-(J2-Pin_4)*%
X12740000Y3710000D03*
%TO.N,Net-(J2-Pin_10)*%
X10770000Y-5080000D03*
%TO.N,Net-(J2-Pin_2)*%
X12190000Y4094998D03*
%TD*%
%TA.AperFunction,Conductor*%
%TO.N,+3V3*%
G36*
X8043023Y6079815D02*
G01*
X8088778Y6027011D01*
X8098722Y5957853D01*
X8095759Y5943408D01*
X8079500Y5882727D01*
X8079500Y5777273D01*
X8106793Y5675413D01*
X8159520Y5584087D01*
X8234087Y5509520D01*
X8325413Y5456793D01*
X8427273Y5429500D01*
X8427275Y5429500D01*
X8532725Y5429500D01*
X8532727Y5429500D01*
X8634587Y5456793D01*
X8725913Y5509520D01*
X8736743Y5520351D01*
X8798061Y5553834D01*
X8867753Y5548852D01*
X8923688Y5506982D01*
X8932153Y5492120D01*
X8932729Y5492452D01*
X8936793Y5485413D01*
X8989520Y5394087D01*
X9064087Y5319520D01*
X9155413Y5266793D01*
X9257273Y5239500D01*
X9257275Y5239500D01*
X9362725Y5239500D01*
X9362727Y5239500D01*
X9464587Y5266793D01*
X9555913Y5319520D01*
X9630480Y5394087D01*
X9683207Y5485413D01*
X9710500Y5587273D01*
X9710500Y5692727D01*
X9683207Y5794587D01*
X9630480Y5885913D01*
X9628574Y5887819D01*
X9627479Y5889824D01*
X9625531Y5892363D01*
X9625926Y5892667D01*
X9595089Y5949142D01*
X9600073Y6018834D01*
X9641945Y6074767D01*
X9707409Y6099184D01*
X9716255Y6099500D01*
X14475500Y6099500D01*
X14542539Y6079815D01*
X14588294Y6027011D01*
X14599500Y5975500D01*
X14599500Y1846581D01*
X14579815Y1779542D01*
X14527011Y1733787D01*
X14457853Y1723843D01*
X14413500Y1739194D01*
X14354589Y1773206D01*
X14354588Y1773207D01*
X14354587Y1773207D01*
X14252727Y1800500D01*
X14147273Y1800500D01*
X14045413Y1773207D01*
X14045410Y1773206D01*
X13954085Y1720479D01*
X13879521Y1645915D01*
X13826794Y1554590D01*
X13826793Y1554587D01*
X13799500Y1452727D01*
X13799500Y1347273D01*
X13826793Y1245413D01*
X13879520Y1154087D01*
X13954087Y1079520D01*
X14045413Y1026793D01*
X14147273Y999500D01*
X14147275Y999500D01*
X14252725Y999500D01*
X14252727Y999500D01*
X14354587Y1026793D01*
X14413502Y1060808D01*
X14481399Y1077280D01*
X14547426Y1054428D01*
X14590617Y999507D01*
X14599500Y953420D01*
X14599500Y-753419D01*
X14579815Y-820458D01*
X14527011Y-866213D01*
X14457853Y-876157D01*
X14413500Y-860806D01*
X14354589Y-826794D01*
X14354588Y-826793D01*
X14354587Y-826793D01*
X14252727Y-799500D01*
X14147273Y-799500D01*
X14045413Y-826793D01*
X14045410Y-826794D01*
X13954085Y-879521D01*
X13879521Y-954085D01*
X13826794Y-1045410D01*
X13826793Y-1045413D01*
X13799500Y-1147273D01*
X13799500Y-1252727D01*
X13826793Y-1354587D01*
X13879520Y-1445913D01*
X13954087Y-1520480D01*
X14045413Y-1573207D01*
X14147273Y-1600500D01*
X14147275Y-1600500D01*
X14252725Y-1600500D01*
X14252727Y-1600500D01*
X14354587Y-1573207D01*
X14413502Y-1539192D01*
X14481399Y-1522720D01*
X14547426Y-1545572D01*
X14590617Y-1600493D01*
X14599500Y-1646580D01*
X14599500Y-3403419D01*
X14579815Y-3470458D01*
X14527011Y-3516213D01*
X14457853Y-3526157D01*
X14413500Y-3510806D01*
X14354589Y-3476794D01*
X14354588Y-3476793D01*
X14354587Y-3476793D01*
X14252727Y-3449500D01*
X14147273Y-3449500D01*
X14045413Y-3476793D01*
X14045410Y-3476794D01*
X13954085Y-3529521D01*
X13879521Y-3604085D01*
X13826794Y-3695410D01*
X13826793Y-3695413D01*
X13799500Y-3797273D01*
X13799500Y-3902726D01*
X13826793Y-4004586D01*
X13826794Y-4004589D01*
X13831001Y-4011875D01*
X13879520Y-4095913D01*
X13954087Y-4170480D01*
X14045413Y-4223207D01*
X14147273Y-4250500D01*
X14147275Y-4250500D01*
X14252725Y-4250500D01*
X14252727Y-4250500D01*
X14354587Y-4223207D01*
X14413502Y-4189192D01*
X14481399Y-4172720D01*
X14547426Y-4195572D01*
X14590617Y-4250493D01*
X14599500Y-4296580D01*
X14599500Y-5975500D01*
X14579815Y-6042539D01*
X14527011Y-6088294D01*
X14475500Y-6099500D01*
X3139375Y-6099500D01*
X3072336Y-6079815D01*
X3026581Y-6027011D01*
X3016637Y-5957853D01*
X3019600Y-5943408D01*
X3024398Y-5925501D01*
X3030500Y-5902727D01*
X3030500Y-5797273D01*
X3003207Y-5695413D01*
X2950480Y-5604087D01*
X2875913Y-5529520D01*
X2784587Y-5476793D01*
X2682727Y-5449500D01*
X2577273Y-5449500D01*
X2475413Y-5476793D01*
X2475410Y-5476794D01*
X2384085Y-5529521D01*
X2309521Y-5604085D01*
X2256794Y-5695410D01*
X2256793Y-5695413D01*
X2229500Y-5797273D01*
X2229500Y-5902728D01*
X2240400Y-5943408D01*
X2238737Y-6013258D01*
X2199574Y-6071120D01*
X2135345Y-6098623D01*
X2120625Y-6099500D01*
X-2170625Y-6099500D01*
X-2237664Y-6079815D01*
X-2283419Y-6027011D01*
X-2293363Y-5957853D01*
X-2290400Y-5943408D01*
X-2285602Y-5925501D01*
X-2279500Y-5902727D01*
X-2279500Y-5797273D01*
X-2306793Y-5695413D01*
X-2359520Y-5604087D01*
X-2434087Y-5529520D01*
X-2525413Y-5476793D01*
X-2627273Y-5449500D01*
X-2732727Y-5449500D01*
X-2834587Y-5476793D01*
X-2834590Y-5476794D01*
X-2925915Y-5529521D01*
X-3000479Y-5604085D01*
X-3053206Y-5695410D01*
X-3053207Y-5695413D01*
X-3080500Y-5797273D01*
X-3080500Y-5902728D01*
X-3069600Y-5943408D01*
X-3071263Y-6013258D01*
X-3110426Y-6071120D01*
X-3174655Y-6098623D01*
X-3189375Y-6099500D01*
X-5326894Y-6099500D01*
X-5393933Y-6079815D01*
X-5439688Y-6027011D01*
X-5449632Y-5957853D01*
X-5420607Y-5894297D01*
X-5395785Y-5872398D01*
X-5329267Y-5827951D01*
X-5295331Y-5805276D01*
X-5204724Y-5714669D01*
X-5133535Y-5608127D01*
X-5084499Y-5489744D01*
X-5066742Y-5400478D01*
X-5059500Y-5364071D01*
X-5059500Y-5235928D01*
X-5069179Y-5187273D01*
X1179500Y-5187273D01*
X1179500Y-5292727D01*
X1206793Y-5394587D01*
X1259520Y-5485913D01*
X1334087Y-5560480D01*
X1425413Y-5613207D01*
X1527273Y-5640500D01*
X1527275Y-5640500D01*
X1632725Y-5640500D01*
X1632727Y-5640500D01*
X1734587Y-5613207D01*
X1825913Y-5560480D01*
X1900480Y-5485913D01*
X1953207Y-5394587D01*
X1980500Y-5292727D01*
X1980500Y-5187273D01*
X1953207Y-5085413D01*
X1900480Y-4994087D01*
X1825913Y-4919520D01*
X1741850Y-4870986D01*
X1734589Y-4866794D01*
X1734588Y-4866793D01*
X1734587Y-4866793D01*
X1632727Y-4839500D01*
X1527273Y-4839500D01*
X1425413Y-4866793D01*
X1425410Y-4866794D01*
X1334085Y-4919521D01*
X1259521Y-4994085D01*
X1206794Y-5085410D01*
X1206793Y-5085413D01*
X1179500Y-5187273D01*
X-5069179Y-5187273D01*
X-5084498Y-5110261D01*
X-5084499Y-5110260D01*
X-5084499Y-5110256D01*
X-5123577Y-5015913D01*
X-5133534Y-4991875D01*
X-5133539Y-4991866D01*
X-5204724Y-4885331D01*
X-5204727Y-4885327D01*
X-5295328Y-4794726D01*
X-5295332Y-4794723D01*
X-5401867Y-4723538D01*
X-5401880Y-4723531D01*
X-5425599Y-4713707D01*
X-5425600Y-4713707D01*
X-5471760Y-4694587D01*
X-5520256Y-4674499D01*
X-5520262Y-4674497D01*
X-5645929Y-4649500D01*
X-5645931Y-4649500D01*
X-5731615Y-4649500D01*
X-5798654Y-4629815D01*
X-5818187Y-4607273D01*
X-770500Y-4607273D01*
X-770500Y-4712727D01*
X-748528Y-4794726D01*
X-743207Y-4814586D01*
X-743206Y-4814589D01*
X-737036Y-4825276D01*
X-690480Y-4905913D01*
X-615913Y-4980480D01*
X-524587Y-5033207D01*
X-422727Y-5060500D01*
X-422725Y-5060500D01*
X-317276Y-5060500D01*
X-317273Y-5060500D01*
X-215413Y-5033207D01*
X-124087Y-4980480D01*
X-49520Y-4905913D01*
X3207Y-4814587D01*
X29282Y-4717273D01*
X2879500Y-4717273D01*
X2879500Y-4822727D01*
X2906793Y-4924587D01*
X2959520Y-5015913D01*
X3034087Y-5090480D01*
X3125413Y-5143207D01*
X3227273Y-5170500D01*
X3227275Y-5170500D01*
X3332725Y-5170500D01*
X3332727Y-5170500D01*
X3434587Y-5143207D01*
X3525913Y-5090480D01*
X3600480Y-5015913D01*
X3653207Y-4924587D01*
X3680500Y-4822727D01*
X3680500Y-4747273D01*
X5509500Y-4747273D01*
X5509500Y-4852727D01*
X5534359Y-4945501D01*
X5536793Y-4954586D01*
X5536794Y-4954589D01*
X5541769Y-4963206D01*
X5589520Y-5045913D01*
X5664087Y-5120480D01*
X5755413Y-5173207D01*
X5857273Y-5200500D01*
X5857275Y-5200500D01*
X5962725Y-5200500D01*
X5962727Y-5200500D01*
X6064587Y-5173207D01*
X6064591Y-5173204D01*
X6070705Y-5170673D01*
X6140174Y-5163204D01*
X6202653Y-5194479D01*
X6238305Y-5254569D01*
X6242157Y-5285234D01*
X6242157Y-5294384D01*
X6269450Y-5396244D01*
X6322177Y-5487570D01*
X6396744Y-5562137D01*
X6488070Y-5614864D01*
X6589930Y-5642157D01*
X6589932Y-5642157D01*
X6695382Y-5642157D01*
X6695384Y-5642157D01*
X6797244Y-5614864D01*
X6888570Y-5562137D01*
X6963137Y-5487570D01*
X7015864Y-5396244D01*
X7043157Y-5294384D01*
X7043157Y-5188930D01*
X7015864Y-5087070D01*
X6981340Y-5027273D01*
X10369500Y-5027273D01*
X10369500Y-5132727D01*
X10396793Y-5234587D01*
X10449520Y-5325913D01*
X10524087Y-5400480D01*
X10615413Y-5453207D01*
X10717273Y-5480500D01*
X10717275Y-5480500D01*
X10822725Y-5480500D01*
X10822727Y-5480500D01*
X10924587Y-5453207D01*
X11015913Y-5400480D01*
X11090480Y-5325913D01*
X11143207Y-5234587D01*
X11170500Y-5132727D01*
X11170500Y-5027273D01*
X11143207Y-4925413D01*
X11090480Y-4834087D01*
X11015913Y-4759520D01*
X10942739Y-4717273D01*
X10924589Y-4706794D01*
X10924588Y-4706793D01*
X10924587Y-4706793D01*
X10822727Y-4679500D01*
X10717273Y-4679500D01*
X10615413Y-4706793D01*
X10615410Y-4706794D01*
X10524085Y-4759521D01*
X10449521Y-4834085D01*
X10396794Y-4925410D01*
X10396793Y-4925413D01*
X10369500Y-5027273D01*
X6981340Y-5027273D01*
X6963137Y-4995744D01*
X6888570Y-4921177D01*
X6814565Y-4878450D01*
X6797246Y-4868451D01*
X6797245Y-4868450D01*
X6797244Y-4868450D01*
X6695384Y-4841157D01*
X6589930Y-4841157D01*
X6494251Y-4866794D01*
X6488063Y-4868452D01*
X6481945Y-4870986D01*
X6412475Y-4878450D01*
X6349998Y-4847171D01*
X6316782Y-4795391D01*
X6310500Y-4776414D01*
X6310500Y-4747273D01*
X6283207Y-4645413D01*
X6230480Y-4554087D01*
X6213666Y-4537273D01*
X7459500Y-4537273D01*
X7459500Y-4642727D01*
X7484137Y-4734672D01*
X7486793Y-4744586D01*
X7486794Y-4744589D01*
X7495415Y-4759521D01*
X7539520Y-4835913D01*
X7614087Y-4910480D01*
X7705413Y-4963207D01*
X7807273Y-4990500D01*
X7807275Y-4990500D01*
X7912725Y-4990500D01*
X7912727Y-4990500D01*
X8014587Y-4963207D01*
X8105913Y-4910480D01*
X8180480Y-4835913D01*
X8233207Y-4744587D01*
X8260500Y-4642727D01*
X8260500Y-4537273D01*
X8233207Y-4435413D01*
X8180480Y-4344087D01*
X8105913Y-4269520D01*
X8039059Y-4230922D01*
X8014589Y-4216794D01*
X8014588Y-4216793D01*
X8014587Y-4216793D01*
X7912727Y-4189500D01*
X7807273Y-4189500D01*
X7705413Y-4216793D01*
X7705410Y-4216794D01*
X7614085Y-4269521D01*
X7539521Y-4344085D01*
X7486794Y-4435410D01*
X7486793Y-4435413D01*
X7459500Y-4537273D01*
X6213666Y-4537273D01*
X6155913Y-4479520D01*
X6064587Y-4426793D01*
X5962727Y-4399500D01*
X5857273Y-4399500D01*
X5755413Y-4426793D01*
X5755410Y-4426794D01*
X5664085Y-4479521D01*
X5589521Y-4554085D01*
X5536794Y-4645410D01*
X5536793Y-4645413D01*
X5509500Y-4747273D01*
X3680500Y-4747273D01*
X3680500Y-4717273D01*
X3653207Y-4615413D01*
X3600480Y-4524087D01*
X3525913Y-4449520D01*
X3434587Y-4396793D01*
X3332727Y-4369500D01*
X3227273Y-4369500D01*
X3125413Y-4396793D01*
X3125410Y-4396794D01*
X3034085Y-4449521D01*
X2959521Y-4524085D01*
X2906794Y-4615410D01*
X2906793Y-4615413D01*
X2879500Y-4717273D01*
X29282Y-4717273D01*
X30500Y-4712727D01*
X30500Y-4607273D01*
X3207Y-4505413D01*
X-49520Y-4414087D01*
X-124087Y-4339520D01*
X-215413Y-4286793D01*
X-317273Y-4259500D01*
X-422727Y-4259500D01*
X-524587Y-4286793D01*
X-524590Y-4286794D01*
X-615915Y-4339521D01*
X-690479Y-4414085D01*
X-743206Y-4505410D01*
X-743207Y-4505413D01*
X-770500Y-4607273D01*
X-5818187Y-4607273D01*
X-5844409Y-4577011D01*
X-5855615Y-4525500D01*
X-5855615Y-4487275D01*
X-5855615Y-4487273D01*
X-5882908Y-4385413D01*
X-5935635Y-4294087D01*
X-6010202Y-4219520D01*
X-6101528Y-4166793D01*
X-6203388Y-4139500D01*
X-6308842Y-4139500D01*
X-6410702Y-4166793D01*
X-6410705Y-4166794D01*
X-6502030Y-4219521D01*
X-6576594Y-4294085D01*
X-6629321Y-4385410D01*
X-6629322Y-4385413D01*
X-6656615Y-4487273D01*
X-6656615Y-4549987D01*
X-6676300Y-4617026D01*
X-6729104Y-4662781D01*
X-6798262Y-4672725D01*
X-6804807Y-4671604D01*
X-6915929Y-4649500D01*
X-6915931Y-4649500D01*
X-7044069Y-4649500D01*
X-7044071Y-4649500D01*
X-7169739Y-4674497D01*
X-7169745Y-4674499D01*
X-7288125Y-4723533D01*
X-7288134Y-4723538D01*
X-7394669Y-4794723D01*
X-7394673Y-4794726D01*
X-7485274Y-4885327D01*
X-7485277Y-4885331D01*
X-7511898Y-4925173D01*
X-7565510Y-4969978D01*
X-7634835Y-4978685D01*
X-7697863Y-4948530D01*
X-7718102Y-4925173D01*
X-7744724Y-4885331D01*
X-7744727Y-4885327D01*
X-7835328Y-4794726D01*
X-7835332Y-4794723D01*
X-7941867Y-4723538D01*
X-7941876Y-4723533D01*
X-8060256Y-4674499D01*
X-8060262Y-4674497D01*
X-8185929Y-4649500D01*
X-8185931Y-4649500D01*
X-8314069Y-4649500D01*
X-8314071Y-4649500D01*
X-8423213Y-4671210D01*
X-8492805Y-4664983D01*
X-8547982Y-4622120D01*
X-8563587Y-4592926D01*
X-8576646Y-4557913D01*
X-8576650Y-4557906D01*
X-8662810Y-4442812D01*
X-8662813Y-4442809D01*
X-8777907Y-4356649D01*
X-8777914Y-4356645D01*
X-8912621Y-4306403D01*
X-8912628Y-4306401D01*
X-8972156Y-4300000D01*
X-9270000Y-4300000D01*
X-9270000Y-5090382D01*
X-9320446Y-5039936D01*
X-9394555Y-4997149D01*
X-9477213Y-4975000D01*
X-9562787Y-4975000D01*
X-9645445Y-4997149D01*
X-9719554Y-5039936D01*
X-9780064Y-5100446D01*
X-9822851Y-5174555D01*
X-9845000Y-5257213D01*
X-9845000Y-5342787D01*
X-9822851Y-5425445D01*
X-9780064Y-5499554D01*
X-9729618Y-5550000D01*
X-10520000Y-5550000D01*
X-10520000Y-5847844D01*
X-10513599Y-5907372D01*
X-10513597Y-5907382D01*
X-10504352Y-5932168D01*
X-10499368Y-6001859D01*
X-10532854Y-6063182D01*
X-10594177Y-6096666D01*
X-10620534Y-6099500D01*
X-17993039Y-6099500D01*
X-18006923Y-6098720D01*
X-18007784Y-6098623D01*
X-18025152Y-6096666D01*
X-18119516Y-6086033D01*
X-18146586Y-6079855D01*
X-18246926Y-6044745D01*
X-18271944Y-6032697D01*
X-18361954Y-5976140D01*
X-18383663Y-5958827D01*
X-18458828Y-5883662D01*
X-18476141Y-5861953D01*
X-18532698Y-5771943D01*
X-18544746Y-5746925D01*
X-18556032Y-5714672D01*
X-18579857Y-5646583D01*
X-18586034Y-5619514D01*
X-18586745Y-5613207D01*
X-18598720Y-5506921D01*
X-18599500Y-5493038D01*
X-18599500Y-4384071D01*
X-17625501Y-4384071D01*
X-17600503Y-4509738D01*
X-17600501Y-4509744D01*
X-17551467Y-4628124D01*
X-17551462Y-4628133D01*
X-17480277Y-4734668D01*
X-17480274Y-4734672D01*
X-17389673Y-4825273D01*
X-17389669Y-4825276D01*
X-17283134Y-4896461D01*
X-17283128Y-4896464D01*
X-17283127Y-4896465D01*
X-17164744Y-4945501D01*
X-17164740Y-4945501D01*
X-17164739Y-4945502D01*
X-17039072Y-4970500D01*
X-17039069Y-4970500D01*
X-16110929Y-4970500D01*
X-16026385Y-4953682D01*
X-15985256Y-4945501D01*
X-15866873Y-4896465D01*
X-15760331Y-4825276D01*
X-15669724Y-4734669D01*
X-15598535Y-4628127D01*
X-15549499Y-4509744D01*
X-15541318Y-4468615D01*
X-15524500Y-4384071D01*
X-13595501Y-4384071D01*
X-13570503Y-4509738D01*
X-13570501Y-4509744D01*
X-13521467Y-4628124D01*
X-13521462Y-4628133D01*
X-13450277Y-4734668D01*
X-13450274Y-4734672D01*
X-13359673Y-4825273D01*
X-13359669Y-4825276D01*
X-13253134Y-4896461D01*
X-13253128Y-4896464D01*
X-13253127Y-4896465D01*
X-13134744Y-4945501D01*
X-13134740Y-4945501D01*
X-13134739Y-4945502D01*
X-13009072Y-4970500D01*
X-13009069Y-4970500D01*
X-11780929Y-4970500D01*
X-11696385Y-4953682D01*
X-11655256Y-4945501D01*
X-11536873Y-4896465D01*
X-11430331Y-4825276D01*
X-11357227Y-4752172D01*
X-10520000Y-4752172D01*
X-10520000Y-5050000D01*
X-9770000Y-5050000D01*
X-9770000Y-4300000D01*
X-10067845Y-4300000D01*
X-10127373Y-4306401D01*
X-10127380Y-4306403D01*
X-10262087Y-4356645D01*
X-10262094Y-4356649D01*
X-10377188Y-4442809D01*
X-10377191Y-4442812D01*
X-10463351Y-4557906D01*
X-10463355Y-4557913D01*
X-10513597Y-4692620D01*
X-10513599Y-4692627D01*
X-10519999Y-4752153D01*
X-10520000Y-4752172D01*
X-11357227Y-4752172D01*
X-11339724Y-4734669D01*
X-11311632Y-4692627D01*
X-11303168Y-4679960D01*
X-11268539Y-4628133D01*
X-11268539Y-4628132D01*
X-11268535Y-4628127D01*
X-11219499Y-4509744D01*
X-11211318Y-4468615D01*
X-11194500Y-4384071D01*
X-11194500Y-4255928D01*
X-11219498Y-4130261D01*
X-11219499Y-4130260D01*
X-11219499Y-4130256D01*
X-11268535Y-4011873D01*
X-11268536Y-4011872D01*
X-11268539Y-4011866D01*
X-11339724Y-3905331D01*
X-11339727Y-3905327D01*
X-11430328Y-3814726D01*
X-11430332Y-3814723D01*
X-11536867Y-3743538D01*
X-11536876Y-3743533D01*
X-11655256Y-3694499D01*
X-11655262Y-3694497D01*
X-11780929Y-3669500D01*
X-11780931Y-3669500D01*
X-13009069Y-3669500D01*
X-13009071Y-3669500D01*
X-13134739Y-3694497D01*
X-13134745Y-3694499D01*
X-13253125Y-3743533D01*
X-13253134Y-3743538D01*
X-13359669Y-3814723D01*
X-13359673Y-3814726D01*
X-13450274Y-3905327D01*
X-13450277Y-3905331D01*
X-13521462Y-4011866D01*
X-13521467Y-4011875D01*
X-13570501Y-4130255D01*
X-13570503Y-4130261D01*
X-13595500Y-4255928D01*
X-13595500Y-4255931D01*
X-13595500Y-4384069D01*
X-13595500Y-4384071D01*
X-13595501Y-4384071D01*
X-15524500Y-4384071D01*
X-15524500Y-4255928D01*
X-15549498Y-4130261D01*
X-15549499Y-4130260D01*
X-15549499Y-4130256D01*
X-15598535Y-4011873D01*
X-15598536Y-4011872D01*
X-15598539Y-4011866D01*
X-15669724Y-3905331D01*
X-15669727Y-3905327D01*
X-15760328Y-3814726D01*
X-15760332Y-3814723D01*
X-15866867Y-3743538D01*
X-15866876Y-3743533D01*
X-15985256Y-3694499D01*
X-15985262Y-3694497D01*
X-16110929Y-3669500D01*
X-16110931Y-3669500D01*
X-17039069Y-3669500D01*
X-17039071Y-3669500D01*
X-17164739Y-3694497D01*
X-17164745Y-3694499D01*
X-17283125Y-3743533D01*
X-17283134Y-3743538D01*
X-17389669Y-3814723D01*
X-17389673Y-3814726D01*
X-17480274Y-3905327D01*
X-17480277Y-3905331D01*
X-17551462Y-4011866D01*
X-17551467Y-4011875D01*
X-17600501Y-4130255D01*
X-17600503Y-4130261D01*
X-17625500Y-4255928D01*
X-17625500Y-4255931D01*
X-17625500Y-4384069D01*
X-17625500Y-4384071D01*
X-17625501Y-4384071D01*
X-18599500Y-4384071D01*
X-18599500Y2552727D01*
X-17650500Y2552727D01*
X-17650500Y2447273D01*
X-17627905Y2362949D01*
X-17623207Y2345414D01*
X-17623206Y2345411D01*
X-17610109Y2322727D01*
X-17570480Y2254087D01*
X-17495913Y2179520D01*
X-17404587Y2126793D01*
X-17378394Y2119775D01*
X-17318733Y2083410D01*
X-17288204Y2020563D01*
X-17296499Y1951188D01*
X-17340984Y1897310D01*
X-17378393Y1880226D01*
X-17404583Y1873208D01*
X-17404587Y1873207D01*
X-17404590Y1873206D01*
X-17495915Y1820479D01*
X-17570479Y1745915D01*
X-17623206Y1654590D01*
X-17623207Y1654587D01*
X-17650500Y1552727D01*
X-17650500Y1447273D01*
X-17623207Y1345413D01*
X-17570480Y1254087D01*
X-17495913Y1179520D01*
X-17404587Y1126793D01*
X-17378394Y1119775D01*
X-17318733Y1083410D01*
X-17288204Y1020563D01*
X-17296499Y951188D01*
X-17340984Y897310D01*
X-17378393Y880226D01*
X-17404583Y873208D01*
X-17404587Y873207D01*
X-17404590Y873206D01*
X-17495915Y820479D01*
X-17570479Y745915D01*
X-17623206Y654590D01*
X-17623207Y654587D01*
X-17650500Y552727D01*
X-17650500Y447273D01*
X-17623207Y345413D01*
X-17570480Y254087D01*
X-17495913Y179520D01*
X-17404587Y126793D01*
X-17378394Y119775D01*
X-17318733Y83410D01*
X-17288204Y20563D01*
X-17296499Y-48812D01*
X-17340984Y-102690D01*
X-17378393Y-119774D01*
X-17400821Y-125784D01*
X-17404587Y-126793D01*
X-17404590Y-126794D01*
X-17495915Y-179521D01*
X-17570479Y-254085D01*
X-17623206Y-345410D01*
X-17623207Y-345413D01*
X-17650500Y-447273D01*
X-17650500Y-552727D01*
X-17623207Y-654587D01*
X-17570480Y-745913D01*
X-17495913Y-820480D01*
X-17404587Y-873207D01*
X-17378394Y-880225D01*
X-17318733Y-916590D01*
X-17288204Y-979437D01*
X-17296499Y-1048812D01*
X-17340984Y-1102690D01*
X-17378393Y-1119774D01*
X-17404583Y-1126792D01*
X-17404587Y-1126793D01*
X-17404590Y-1126794D01*
X-17495915Y-1179521D01*
X-17570479Y-1254085D01*
X-17623206Y-1345410D01*
X-17623207Y-1345413D01*
X-17650500Y-1447273D01*
X-17650500Y-1552727D01*
X-17630654Y-1626792D01*
X-17623207Y-1654586D01*
X-17623206Y-1654589D01*
X-17622441Y-1655914D01*
X-17570480Y-1745913D01*
X-17495913Y-1820480D01*
X-17404587Y-1873207D01*
X-17378394Y-1880225D01*
X-17318733Y-1916590D01*
X-17288204Y-1979437D01*
X-17296499Y-2048812D01*
X-17340984Y-2102690D01*
X-17378393Y-2119774D01*
X-17389412Y-2122727D01*
X-17404587Y-2126793D01*
X-17404590Y-2126794D01*
X-17495915Y-2179521D01*
X-17570479Y-2254085D01*
X-17623206Y-2345410D01*
X-17623207Y-2345413D01*
X-17650500Y-2447273D01*
X-17650500Y-2552727D01*
X-17623207Y-2654587D01*
X-17570480Y-2745913D01*
X-17495913Y-2820480D01*
X-17404587Y-2873207D01*
X-17302727Y-2900500D01*
X-17302725Y-2900500D01*
X-17197275Y-2900500D01*
X-17197273Y-2900500D01*
X-17095413Y-2873207D01*
X-17004087Y-2820480D01*
X-16962681Y-2779074D01*
X-16901358Y-2745589D01*
X-16831666Y-2750573D01*
X-16787319Y-2779074D01*
X-16745913Y-2820480D01*
X-16654587Y-2873207D01*
X-16552727Y-2900500D01*
X-16552725Y-2900500D01*
X-16447275Y-2900500D01*
X-16447273Y-2900500D01*
X-16345413Y-2873207D01*
X-16254087Y-2820480D01*
X-16212681Y-2779074D01*
X-16151358Y-2745589D01*
X-16081666Y-2750573D01*
X-16037319Y-2779074D01*
X-15995913Y-2820480D01*
X-15904587Y-2873207D01*
X-15802727Y-2900500D01*
X-15802725Y-2900500D01*
X-15697275Y-2900500D01*
X-15697273Y-2900500D01*
X-15595413Y-2873207D01*
X-15504087Y-2820480D01*
X-15462681Y-2779074D01*
X-15401358Y-2745589D01*
X-15331666Y-2750573D01*
X-15287319Y-2779074D01*
X-15245913Y-2820480D01*
X-15154587Y-2873207D01*
X-15052727Y-2900500D01*
X-15052725Y-2900500D01*
X-14947275Y-2900500D01*
X-14947273Y-2900500D01*
X-14845413Y-2873207D01*
X-14777473Y-2833982D01*
X-13320500Y-2833982D01*
X-13320500Y-2946018D01*
X-13291503Y-3054237D01*
X-13235485Y-3151263D01*
X-13156263Y-3230485D01*
X-13059237Y-3286503D01*
X-12951018Y-3315500D01*
X-12951016Y-3315500D01*
X-12838984Y-3315500D01*
X-12838982Y-3315500D01*
X-12730763Y-3286503D01*
X-12633737Y-3230485D01*
X-12576640Y-3173388D01*
X-6726615Y-3173388D01*
X-6726615Y-3278842D01*
X-6699322Y-3380702D01*
X-6646595Y-3472028D01*
X-6572028Y-3546595D01*
X-6480702Y-3599322D01*
X-6378842Y-3626615D01*
X-6378840Y-3626615D01*
X-6273390Y-3626615D01*
X-6273388Y-3626615D01*
X-6171528Y-3599322D01*
X-6080202Y-3546595D01*
X-6005635Y-3472028D01*
X-5961875Y-3396233D01*
X-3430866Y-3396233D01*
X-3430866Y-3501687D01*
X-3404705Y-3599320D01*
X-3403573Y-3603546D01*
X-3403572Y-3603549D01*
X-3403261Y-3604087D01*
X-3350846Y-3694873D01*
X-3276279Y-3769440D01*
X-3184953Y-3822167D01*
X-3083093Y-3849460D01*
X-3083091Y-3849460D01*
X-2977641Y-3849460D01*
X-2977639Y-3849460D01*
X-2875779Y-3822167D01*
X-2784453Y-3769440D01*
X-2709886Y-3694873D01*
X-2657159Y-3603547D01*
X-2629866Y-3501687D01*
X-2629866Y-3396233D01*
X-2657159Y-3294373D01*
X-2709886Y-3203047D01*
X-2715660Y-3197273D01*
X4669500Y-3197273D01*
X4669500Y-3302727D01*
X4696793Y-3404587D01*
X4749520Y-3495913D01*
X4824087Y-3570480D01*
X4915413Y-3623207D01*
X5017273Y-3650500D01*
X5017275Y-3650500D01*
X5122725Y-3650500D01*
X5122727Y-3650500D01*
X5224587Y-3623207D01*
X5315913Y-3570480D01*
X5390480Y-3495913D01*
X5443207Y-3404587D01*
X5470500Y-3302727D01*
X5470500Y-3287273D01*
X7939500Y-3287273D01*
X7939500Y-3392727D01*
X7962026Y-3476794D01*
X7966793Y-3494586D01*
X7966794Y-3494589D01*
X7970892Y-3501687D01*
X8019520Y-3585913D01*
X8094087Y-3660480D01*
X8185413Y-3713207D01*
X8287273Y-3740500D01*
X8287275Y-3740500D01*
X8392725Y-3740500D01*
X8392727Y-3740500D01*
X8494587Y-3713207D01*
X8585913Y-3660480D01*
X8599120Y-3647273D01*
X12409500Y-3647273D01*
X12409500Y-3752727D01*
X12436793Y-3854587D01*
X12489520Y-3945913D01*
X12564087Y-4020480D01*
X12655413Y-4073207D01*
X12757273Y-4100500D01*
X12757275Y-4100500D01*
X12862725Y-4100500D01*
X12862727Y-4100500D01*
X12964587Y-4073207D01*
X13055913Y-4020480D01*
X13130480Y-3945913D01*
X13183207Y-3854587D01*
X13210500Y-3752727D01*
X13210500Y-3647273D01*
X13183207Y-3545413D01*
X13130480Y-3454087D01*
X13055913Y-3379520D01*
X12964587Y-3326793D01*
X12862727Y-3299500D01*
X12757273Y-3299500D01*
X12655413Y-3326793D01*
X12655410Y-3326794D01*
X12564085Y-3379521D01*
X12489521Y-3454085D01*
X12436794Y-3545410D01*
X12436793Y-3545413D01*
X12409500Y-3647273D01*
X8599120Y-3647273D01*
X8660480Y-3585913D01*
X8713207Y-3494587D01*
X8740500Y-3392727D01*
X8740500Y-3287273D01*
X8713207Y-3185413D01*
X8660480Y-3094087D01*
X8585913Y-3019520D01*
X8494587Y-2966793D01*
X8392727Y-2939500D01*
X8287273Y-2939500D01*
X8185413Y-2966793D01*
X8185410Y-2966794D01*
X8094085Y-3019521D01*
X8019521Y-3094085D01*
X7966794Y-3185410D01*
X7966793Y-3185413D01*
X7939500Y-3287273D01*
X5470500Y-3287273D01*
X5470500Y-3197273D01*
X5443207Y-3095413D01*
X5390480Y-3004087D01*
X5315913Y-2929520D01*
X5224587Y-2876793D01*
X5122727Y-2849500D01*
X5017273Y-2849500D01*
X4915413Y-2876793D01*
X4915410Y-2876794D01*
X4824085Y-2929521D01*
X4749521Y-3004085D01*
X4696794Y-3095410D01*
X4696793Y-3095413D01*
X4669500Y-3197273D01*
X-2715660Y-3197273D01*
X-2784453Y-3128480D01*
X-2875779Y-3075753D01*
X-2977639Y-3048460D01*
X-3083093Y-3048460D01*
X-3184953Y-3075753D01*
X-3184956Y-3075754D01*
X-3276281Y-3128481D01*
X-3350845Y-3203045D01*
X-3403572Y-3294370D01*
X-3403573Y-3294373D01*
X-3430866Y-3396233D01*
X-5961875Y-3396233D01*
X-5952908Y-3380702D01*
X-5925615Y-3278842D01*
X-5925615Y-3173388D01*
X-5952908Y-3071528D01*
X-6005635Y-2980202D01*
X-6080202Y-2905635D01*
X-6171528Y-2852908D01*
X-6273388Y-2825615D01*
X-6378842Y-2825615D01*
X-6480702Y-2852908D01*
X-6480705Y-2852909D01*
X-6572030Y-2905636D01*
X-6646594Y-2980200D01*
X-6699321Y-3071525D01*
X-6699322Y-3071528D01*
X-6726615Y-3173388D01*
X-12576640Y-3173388D01*
X-12554515Y-3151263D01*
X-12498497Y-3054237D01*
X-12469500Y-2946018D01*
X-12469500Y-2833982D01*
X-12498497Y-2725763D01*
X-12554515Y-2628737D01*
X-12633737Y-2549515D01*
X-12730763Y-2493497D01*
X-12838982Y-2464500D01*
X-12951018Y-2464500D01*
X-13059237Y-2493497D01*
X-13059240Y-2493498D01*
X-13156260Y-2549513D01*
X-13156266Y-2549517D01*
X-13235483Y-2628734D01*
X-13235487Y-2628740D01*
X-13291502Y-2725760D01*
X-13291503Y-2725763D01*
X-13320500Y-2833982D01*
X-14777473Y-2833982D01*
X-14754087Y-2820480D01*
X-14679520Y-2745913D01*
X-14626793Y-2654587D01*
X-14599500Y-2552727D01*
X-14599500Y-2447273D01*
X-14626793Y-2345413D01*
X-14679520Y-2254087D01*
X-14754087Y-2179520D01*
X-14845413Y-2126793D01*
X-14871637Y-2119766D01*
X-14901846Y-2101343D01*
X-14931267Y-2083411D01*
X-14931274Y-2083397D01*
X-14931287Y-2083389D01*
X-14947150Y-2050715D01*
X-14961797Y-2020564D01*
X-14961796Y-2020549D01*
X-14961802Y-2020536D01*
X-14961411Y-2017273D01*
X-6300500Y-2017273D01*
X-6300500Y-2122727D01*
X-6273207Y-2224587D01*
X-6220480Y-2315913D01*
X-6145913Y-2390480D01*
X-6054587Y-2443207D01*
X-5952727Y-2470500D01*
X-5952725Y-2470500D01*
X-5847275Y-2470500D01*
X-5847273Y-2470500D01*
X-5745413Y-2443207D01*
X-5654087Y-2390480D01*
X-5579520Y-2315913D01*
X-5526793Y-2224587D01*
X-5499500Y-2122727D01*
X-5499500Y-2017273D01*
X-5526793Y-1915413D01*
X-5579520Y-1824087D01*
X-5654087Y-1749520D01*
X-5745413Y-1696793D01*
X-5847273Y-1669500D01*
X-5952727Y-1669500D01*
X-6054587Y-1696793D01*
X-6054590Y-1696794D01*
X-6145915Y-1749521D01*
X-6220479Y-1824085D01*
X-6273206Y-1915410D01*
X-6273207Y-1915413D01*
X-6300500Y-2017273D01*
X-14961411Y-2017273D01*
X-14957504Y-1984658D01*
X-14953503Y-1951188D01*
X-14953493Y-1951175D01*
X-14953491Y-1951162D01*
X-14932695Y-1925986D01*
X-14909018Y-1897310D01*
X-14909001Y-1897302D01*
X-14908994Y-1897294D01*
X-14908958Y-1897282D01*
X-14871608Y-1880225D01*
X-14845413Y-1873207D01*
X-14754087Y-1820480D01*
X-14679520Y-1745913D01*
X-14626793Y-1654587D01*
X-14599500Y-1552727D01*
X-14599500Y-1507273D01*
X-2470500Y-1507273D01*
X-2470500Y-1612727D01*
X-2443207Y-1714587D01*
X-2390480Y-1805913D01*
X-2315913Y-1880480D01*
X-2224587Y-1933207D01*
X-2122727Y-1960500D01*
X-2122725Y-1960500D01*
X-2017275Y-1960500D01*
X-2017273Y-1960500D01*
X-1915413Y-1933207D01*
X-1824087Y-1880480D01*
X-1749520Y-1805913D01*
X-1696793Y-1714587D01*
X-1669500Y-1612727D01*
X-1669500Y-1507273D01*
X-1696793Y-1405413D01*
X-1701277Y-1397646D01*
X-1717751Y-1329751D01*
X-1703180Y-1277064D01*
X-1694526Y-1260918D01*
X-1679520Y-1245913D01*
X-1626793Y-1154587D01*
X-1616063Y-1114541D01*
X-1609289Y-1101904D01*
X-1594433Y-1086815D01*
X-1583411Y-1068733D01*
X-1570410Y-1062417D01*
X-1560268Y-1052117D01*
X-1539611Y-1047455D01*
X-1520564Y-1038203D01*
X-1506213Y-1039918D01*
X-1492112Y-1036737D01*
X-1472215Y-1043983D01*
X-1451188Y-1046497D01*
X-1440042Y-1055700D01*
X-1426461Y-1060646D01*
X-1413641Y-1077498D01*
X-1397310Y-1090982D01*
X-1388190Y-1110952D01*
X-1384157Y-1116254D01*
X-1383819Y-1120525D01*
X-1380225Y-1128394D01*
X-1373208Y-1154585D01*
X-1373206Y-1154589D01*
X-1367723Y-1164085D01*
X-1320480Y-1245913D01*
X-1245913Y-1320480D01*
X-1154587Y-1373207D01*
X-1128394Y-1380225D01*
X-1068733Y-1416590D01*
X-1038204Y-1479437D01*
X-1046499Y-1548812D01*
X-1090984Y-1602690D01*
X-1128393Y-1619774D01*
X-1154583Y-1626792D01*
X-1154587Y-1626793D01*
X-1154590Y-1626794D01*
X-1245915Y-1679521D01*
X-1320479Y-1754085D01*
X-1373206Y-1845410D01*
X-1373207Y-1845413D01*
X-1400500Y-1947273D01*
X-1400500Y-2052727D01*
X-1373207Y-2154587D01*
X-1320480Y-2245913D01*
X-1245913Y-2320480D01*
X-1154587Y-2373207D01*
X-1052727Y-2400500D01*
X-1052725Y-2400500D01*
X-947275Y-2400500D01*
X-947273Y-2400500D01*
X-845413Y-2373207D01*
X-754087Y-2320480D01*
X-679520Y-2245913D01*
X-626793Y-2154587D01*
X-619775Y-2128393D01*
X-583411Y-2068733D01*
X-520564Y-2038203D01*
X-451188Y-2046497D01*
X-397310Y-2090982D01*
X-380225Y-2128394D01*
X-373208Y-2154585D01*
X-373207Y-2154587D01*
X-320480Y-2245913D01*
X-245913Y-2320480D01*
X-154587Y-2373207D01*
X-52727Y-2400500D01*
X-52725Y-2400500D01*
X52725Y-2400500D01*
X52727Y-2400500D01*
X154587Y-2373207D01*
X245913Y-2320480D01*
X320480Y-2245913D01*
X373207Y-2154587D01*
X400500Y-2052727D01*
X400500Y-1947273D01*
X373207Y-1845413D01*
X320480Y-1754087D01*
X245913Y-1679520D01*
X154587Y-1626793D01*
X154585Y-1626792D01*
X138979Y-1622611D01*
X128393Y-1619774D01*
X68733Y-1583411D01*
X38203Y-1520564D01*
X46497Y-1451188D01*
X90982Y-1397310D01*
X128392Y-1380225D01*
X154587Y-1373207D01*
X245913Y-1320480D01*
X320480Y-1245913D01*
X373207Y-1154587D01*
X400500Y-1052727D01*
X400500Y-947273D01*
X373207Y-845413D01*
X320480Y-754087D01*
X245913Y-679520D01*
X154587Y-626793D01*
X154585Y-626792D01*
X138979Y-622611D01*
X128393Y-619774D01*
X68733Y-583411D01*
X38203Y-520564D01*
X46497Y-451188D01*
X90982Y-397310D01*
X128392Y-380225D01*
X154587Y-373207D01*
X245913Y-320480D01*
X320480Y-245913D01*
X373207Y-154587D01*
X400500Y-52727D01*
X400500Y52727D01*
X373207Y154587D01*
X320480Y245913D01*
X245913Y320480D01*
X154587Y373207D01*
X154585Y373208D01*
X138979Y377389D01*
X128393Y380226D01*
X68733Y416589D01*
X38203Y479436D01*
X46497Y548812D01*
X90982Y602690D01*
X128392Y619775D01*
X154587Y626793D01*
X245913Y679520D01*
X320480Y754087D01*
X373207Y845413D01*
X400500Y947273D01*
X400500Y1052727D01*
X373207Y1154587D01*
X320480Y1245913D01*
X245913Y1320480D01*
X154587Y1373207D01*
X154585Y1373208D01*
X138979Y1377389D01*
X128393Y1380226D01*
X68733Y1416589D01*
X38203Y1479436D01*
X46497Y1548812D01*
X90982Y1602690D01*
X128392Y1619775D01*
X154587Y1626793D01*
X245913Y1679520D01*
X320480Y1754087D01*
X373207Y1845413D01*
X400500Y1947273D01*
X400500Y2052727D01*
X373207Y2154587D01*
X320480Y2245913D01*
X245913Y2320480D01*
X154587Y2373207D01*
X125205Y2381080D01*
X93812Y2389492D01*
X52727Y2400500D01*
X-52727Y2400500D01*
X-154587Y2373207D01*
X-154590Y2373206D01*
X-245915Y2320479D01*
X-320479Y2245915D01*
X-373206Y2154590D01*
X-373207Y2154587D01*
X-380225Y2128394D01*
X-416590Y2068733D01*
X-479437Y2038204D01*
X-548812Y2046499D01*
X-602690Y2090984D01*
X-619775Y2128394D01*
X-626793Y2154587D01*
X-679520Y2245913D01*
X-754087Y2320480D01*
X-845413Y2373207D01*
X-947273Y2400500D01*
X-1052727Y2400500D01*
X-1154587Y2373207D01*
X-1154590Y2373206D01*
X-1245915Y2320479D01*
X-1320479Y2245915D01*
X-1373206Y2154590D01*
X-1373207Y2154587D01*
X-1380225Y2128394D01*
X-1416590Y2068733D01*
X-1479437Y2038204D01*
X-1548812Y2046499D01*
X-1602690Y2090984D01*
X-1619775Y2128394D01*
X-1626793Y2154587D01*
X-1679520Y2245913D01*
X-1754087Y2320480D01*
X-1845413Y2373207D01*
X-1947273Y2400500D01*
X-2052727Y2400500D01*
X-2154587Y2373207D01*
X-2154590Y2373206D01*
X-2245915Y2320479D01*
X-2320479Y2245915D01*
X-2373206Y2154590D01*
X-2373207Y2154587D01*
X-2400500Y2052727D01*
X-2400500Y1947273D01*
X-2373207Y1845415D01*
X-2373207Y1845414D01*
X-2373206Y1845411D01*
X-2359078Y1820941D01*
X-2320480Y1754087D01*
X-2245913Y1679520D01*
X-2154587Y1626793D01*
X-2128394Y1619775D01*
X-2068733Y1583410D01*
X-2038204Y1520563D01*
X-2046499Y1451188D01*
X-2090984Y1397310D01*
X-2128393Y1380226D01*
X-2154583Y1373208D01*
X-2154587Y1373207D01*
X-2154590Y1373206D01*
X-2245915Y1320479D01*
X-2320479Y1245915D01*
X-2373206Y1154590D01*
X-2373207Y1154587D01*
X-2400500Y1052727D01*
X-2400500Y947273D01*
X-2373207Y845413D01*
X-2320480Y754087D01*
X-2245913Y679520D01*
X-2154587Y626793D01*
X-2052727Y599500D01*
X-2052725Y599500D01*
X-1947275Y599500D01*
X-1947273Y599500D01*
X-1845413Y626793D01*
X-1754087Y679520D01*
X-1679520Y754087D01*
X-1626793Y845413D01*
X-1619775Y871607D01*
X-1583411Y931267D01*
X-1520564Y961797D01*
X-1451188Y953503D01*
X-1397310Y909018D01*
X-1380225Y871606D01*
X-1373208Y845415D01*
X-1373207Y845413D01*
X-1320480Y754087D01*
X-1245913Y679520D01*
X-1154587Y626793D01*
X-1128394Y619775D01*
X-1068733Y583410D01*
X-1038204Y520563D01*
X-1046499Y451188D01*
X-1090984Y397310D01*
X-1128393Y380226D01*
X-1144480Y375915D01*
X-1154587Y373207D01*
X-1154590Y373206D01*
X-1245915Y320479D01*
X-1320479Y245915D01*
X-1373206Y154590D01*
X-1373207Y154587D01*
X-1400500Y52727D01*
X-1400500Y-52727D01*
X-1373207Y-154587D01*
X-1320480Y-245913D01*
X-1245913Y-320480D01*
X-1154587Y-373207D01*
X-1128394Y-380225D01*
X-1068733Y-416590D01*
X-1038204Y-479437D01*
X-1046499Y-548812D01*
X-1090984Y-602690D01*
X-1128393Y-619774D01*
X-1154583Y-626792D01*
X-1154587Y-626793D01*
X-1154590Y-626794D01*
X-1245915Y-679521D01*
X-1320479Y-754085D01*
X-1373206Y-845410D01*
X-1373207Y-845413D01*
X-1380225Y-871606D01*
X-1416590Y-931267D01*
X-1479437Y-961796D01*
X-1548812Y-953501D01*
X-1602690Y-909016D01*
X-1619775Y-871606D01*
X-1622669Y-860806D01*
X-1626793Y-845413D01*
X-1679520Y-754087D01*
X-1754087Y-679520D01*
X-1845413Y-626793D01*
X-1947273Y-599500D01*
X-2052727Y-599500D01*
X-2154587Y-626793D01*
X-2154590Y-626794D01*
X-2245915Y-679521D01*
X-2320479Y-754085D01*
X-2373206Y-845410D01*
X-2373207Y-845413D01*
X-2400500Y-947273D01*
X-2400500Y-1052727D01*
X-2373207Y-1154585D01*
X-2373207Y-1154586D01*
X-2373207Y-1154587D01*
X-2368724Y-1162351D01*
X-2352250Y-1230251D01*
X-2375101Y-1296278D01*
X-2388423Y-1312029D01*
X-2390480Y-1314086D01*
X-2443206Y-1405410D01*
X-2443207Y-1405413D01*
X-2470500Y-1507273D01*
X-14599500Y-1507273D01*
X-14599500Y-1447273D01*
X-14626793Y-1345413D01*
X-14679520Y-1254087D01*
X-14754087Y-1179520D01*
X-14845413Y-1126793D01*
X-14845415Y-1126792D01*
X-14861021Y-1122611D01*
X-14871607Y-1119774D01*
X-14931267Y-1083411D01*
X-14961797Y-1020564D01*
X-14953503Y-951188D01*
X-14909018Y-897310D01*
X-14871608Y-880225D01*
X-14845413Y-873207D01*
X-14754087Y-820480D01*
X-14679520Y-745913D01*
X-14626793Y-654587D01*
X-14599500Y-552727D01*
X-14599500Y-447273D01*
X-14626793Y-345413D01*
X-14679520Y-254087D01*
X-14754087Y-179520D01*
X-14845413Y-126793D01*
X-14845415Y-126792D01*
X-14861021Y-122611D01*
X-14871607Y-119774D01*
X-14931267Y-83411D01*
X-14961797Y-20564D01*
X-14953503Y48812D01*
X-14909018Y102690D01*
X-14871608Y119775D01*
X-14845413Y126793D01*
X-14754087Y179520D01*
X-14750880Y182727D01*
X-2960500Y182727D01*
X-2960500Y77273D01*
X-2933207Y-24587D01*
X-2880480Y-115913D01*
X-2805913Y-190480D01*
X-2714587Y-243207D01*
X-2612727Y-270500D01*
X-2612725Y-270500D01*
X-2507275Y-270500D01*
X-2507273Y-270500D01*
X-2405413Y-243207D01*
X-2314087Y-190480D01*
X-2239520Y-115913D01*
X-2186793Y-24587D01*
X-2159500Y77273D01*
X-2159500Y182727D01*
X-2186793Y284587D01*
X-2239520Y375913D01*
X-2314087Y450480D01*
X-2405413Y503207D01*
X-2507273Y530500D01*
X-2612727Y530500D01*
X-2714587Y503207D01*
X-2714590Y503206D01*
X-2805915Y450479D01*
X-2880479Y375915D01*
X-2933206Y284590D01*
X-2933207Y284587D01*
X-2960500Y182727D01*
X-14750880Y182727D01*
X-14679520Y254087D01*
X-14626793Y345413D01*
X-14599500Y447273D01*
X-14599500Y552727D01*
X-14626793Y654587D01*
X-14679520Y745913D01*
X-14754087Y820480D01*
X-14845413Y873207D01*
X-14845415Y873208D01*
X-14861021Y877389D01*
X-14871607Y880226D01*
X-14931267Y916589D01*
X-14961797Y979436D01*
X-14953503Y1048812D01*
X-14909018Y1102690D01*
X-14871608Y1119775D01*
X-14845413Y1126793D01*
X-14754087Y1179520D01*
X-14679520Y1254087D01*
X-14626793Y1345413D01*
X-14599500Y1447273D01*
X-14599500Y1552727D01*
X-14626793Y1654587D01*
X-14679520Y1745913D01*
X-14754087Y1820480D01*
X-14845413Y1873207D01*
X-14845415Y1873208D01*
X-14861021Y1877389D01*
X-14871607Y1880226D01*
X-14931267Y1916589D01*
X-14961797Y1979436D01*
X-14953503Y2048812D01*
X-14909018Y2102690D01*
X-14871608Y2119775D01*
X-14845413Y2126793D01*
X-14754087Y2179520D01*
X-14679520Y2254087D01*
X-14639891Y2322727D01*
X-11200500Y2322727D01*
X-11200500Y2217273D01*
X-11173207Y2115413D01*
X-11120480Y2024087D01*
X-11045913Y1949520D01*
X-10954587Y1896793D01*
X-10852727Y1869500D01*
X-10852725Y1869500D01*
X-10747275Y1869500D01*
X-10747273Y1869500D01*
X-10645413Y1896793D01*
X-10554087Y1949520D01*
X-10479520Y2024087D01*
X-10426793Y2115413D01*
X-10399500Y2217273D01*
X-10399500Y2322727D01*
X-10426793Y2424587D01*
X-10466134Y2492727D01*
X799500Y2492727D01*
X799500Y2387273D01*
X826793Y2285413D01*
X879520Y2194087D01*
X954087Y2119520D01*
X1045413Y2066793D01*
X1147273Y2039500D01*
X1147275Y2039500D01*
X1252725Y2039500D01*
X1252727Y2039500D01*
X1354587Y2066793D01*
X1413502Y2100808D01*
X1481399Y2117280D01*
X1547426Y2094428D01*
X1590617Y2039507D01*
X1599500Y1993420D01*
X1599500Y1947273D01*
X1626793Y1845415D01*
X1626793Y1845414D01*
X1626794Y1845411D01*
X1640922Y1820941D01*
X1679520Y1754087D01*
X1754087Y1679520D01*
X1845413Y1626793D01*
X1871606Y1619775D01*
X1931267Y1583410D01*
X1961796Y1520563D01*
X1953501Y1451188D01*
X1909016Y1397310D01*
X1871607Y1380226D01*
X1845417Y1373208D01*
X1845413Y1373207D01*
X1845410Y1373206D01*
X1754085Y1320479D01*
X1679521Y1245915D01*
X1626794Y1154590D01*
X1626793Y1154587D01*
X1599500Y1052727D01*
X1599500Y947273D01*
X1626793Y845413D01*
X1679520Y754087D01*
X1754087Y679520D01*
X1845413Y626793D01*
X1871606Y619775D01*
X1931267Y583410D01*
X1961796Y520563D01*
X1953501Y451188D01*
X1909016Y397310D01*
X1871607Y380226D01*
X1855520Y375915D01*
X1845413Y373207D01*
X1845410Y373206D01*
X1754085Y320479D01*
X1679521Y245915D01*
X1626794Y154590D01*
X1626793Y154587D01*
X1599500Y52727D01*
X1599500Y-52727D01*
X1626793Y-154587D01*
X1679520Y-245913D01*
X1754087Y-320480D01*
X1845413Y-373207D01*
X1871606Y-380225D01*
X1931267Y-416590D01*
X1961796Y-479437D01*
X1953501Y-548812D01*
X1909016Y-602690D01*
X1871607Y-619774D01*
X1845417Y-626792D01*
X1845413Y-626793D01*
X1845410Y-626794D01*
X1754085Y-679521D01*
X1679521Y-754085D01*
X1626794Y-845410D01*
X1626793Y-845413D01*
X1599500Y-947273D01*
X1599500Y-1052727D01*
X1626793Y-1154585D01*
X1626793Y-1154586D01*
X1626794Y-1154589D01*
X1632277Y-1164085D01*
X1679520Y-1245913D01*
X1754087Y-1320480D01*
X1845413Y-1373207D01*
X1871606Y-1380225D01*
X1931267Y-1416590D01*
X1961796Y-1479437D01*
X1953501Y-1548812D01*
X1909016Y-1602690D01*
X1871607Y-1619774D01*
X1845417Y-1626792D01*
X1845413Y-1626793D01*
X1845410Y-1626794D01*
X1754085Y-1679521D01*
X1679521Y-1754085D01*
X1626794Y-1845410D01*
X1626793Y-1845413D01*
X1599500Y-1947273D01*
X1599500Y-2052727D01*
X1626793Y-2154587D01*
X1679520Y-2245913D01*
X1754087Y-2320480D01*
X1845413Y-2373207D01*
X1947273Y-2400500D01*
X1947275Y-2400500D01*
X2052725Y-2400500D01*
X2052727Y-2400500D01*
X2154587Y-2373207D01*
X2221134Y-2334785D01*
X2289030Y-2318314D01*
X2355057Y-2341166D01*
X2398248Y-2396087D01*
X2402905Y-2410078D01*
X2406793Y-2424587D01*
X2459520Y-2515913D01*
X2534087Y-2590480D01*
X2625413Y-2643207D01*
X2727273Y-2670500D01*
X2727275Y-2670500D01*
X2832725Y-2670500D01*
X2832727Y-2670500D01*
X2934587Y-2643207D01*
X3025913Y-2590480D01*
X3100480Y-2515913D01*
X3153207Y-2424587D01*
X3180500Y-2322727D01*
X3180500Y-2217273D01*
X3153207Y-2115413D01*
X3100480Y-2024087D01*
X3025913Y-1949520D01*
X2941008Y-1900500D01*
X2934589Y-1896794D01*
X2934588Y-1896793D01*
X2934587Y-1896793D01*
X2832727Y-1869500D01*
X2727273Y-1869500D01*
X2625413Y-1896793D01*
X2625412Y-1896793D01*
X2558867Y-1935213D01*
X2490967Y-1951685D01*
X2424940Y-1928832D01*
X2381750Y-1873910D01*
X2377093Y-1859917D01*
X2373207Y-1845414D01*
X2373205Y-1845410D01*
X2358812Y-1820480D01*
X2320480Y-1754087D01*
X2245913Y-1679520D01*
X2154587Y-1626793D01*
X2154585Y-1626792D01*
X2138979Y-1622611D01*
X2128393Y-1619774D01*
X2068733Y-1583411D01*
X2038203Y-1520564D01*
X2046497Y-1451188D01*
X2090982Y-1397310D01*
X2128392Y-1380225D01*
X2154587Y-1373207D01*
X2182186Y-1357273D01*
X11899500Y-1357273D01*
X11899500Y-1462727D01*
X11911437Y-1507275D01*
X11926793Y-1564586D01*
X11926794Y-1564589D01*
X11931769Y-1573206D01*
X11979520Y-1655913D01*
X12054087Y-1730480D01*
X12145413Y-1783207D01*
X12247273Y-1810500D01*
X12247275Y-1810500D01*
X12352725Y-1810500D01*
X12352727Y-1810500D01*
X12454587Y-1783207D01*
X12545913Y-1730480D01*
X12620480Y-1655913D01*
X12673207Y-1564587D01*
X12700500Y-1462727D01*
X12700500Y-1357273D01*
X12673207Y-1255413D01*
X12620480Y-1164087D01*
X12545913Y-1089520D01*
X12469512Y-1045410D01*
X12454589Y-1036794D01*
X12454588Y-1036793D01*
X12454587Y-1036793D01*
X12352727Y-1009500D01*
X12247273Y-1009500D01*
X12145413Y-1036793D01*
X12145410Y-1036794D01*
X12054085Y-1089521D01*
X11979521Y-1164085D01*
X11926794Y-1255410D01*
X11926793Y-1255413D01*
X11899500Y-1357273D01*
X2182186Y-1357273D01*
X2245913Y-1320480D01*
X2320480Y-1245913D01*
X2373207Y-1154587D01*
X2400500Y-1052727D01*
X2400500Y-947273D01*
X2373207Y-845413D01*
X2320480Y-754087D01*
X2245913Y-679520D01*
X2154587Y-626793D01*
X2154585Y-626792D01*
X2138979Y-622611D01*
X2128393Y-619774D01*
X2068733Y-583411D01*
X2038203Y-520564D01*
X2046497Y-451188D01*
X2090982Y-397310D01*
X2128392Y-380225D01*
X2154587Y-373207D01*
X2245913Y-320480D01*
X2320480Y-245913D01*
X2373207Y-154587D01*
X2400500Y-52727D01*
X2400500Y52727D01*
X2373207Y154587D01*
X2320480Y245913D01*
X2245913Y320480D01*
X2154587Y373207D01*
X2154585Y373208D01*
X2138979Y377389D01*
X2128393Y380226D01*
X2068733Y416589D01*
X2038203Y479436D01*
X2046497Y548812D01*
X2090982Y602690D01*
X2128392Y619775D01*
X2154587Y626793D01*
X2245913Y679520D01*
X2320480Y754087D01*
X2373207Y845413D01*
X2400500Y947273D01*
X2400500Y1004967D01*
X2420185Y1072006D01*
X2472989Y1117761D01*
X2542147Y1127705D01*
X2586495Y1112356D01*
X2665413Y1066793D01*
X2767273Y1039500D01*
X2767275Y1039500D01*
X2872725Y1039500D01*
X2872727Y1039500D01*
X2974587Y1066793D01*
X3065913Y1119520D01*
X3140480Y1194087D01*
X3193207Y1285413D01*
X3220500Y1387273D01*
X3220500Y1492727D01*
X3193207Y1594587D01*
X3140480Y1685913D01*
X3065913Y1760480D01*
X2974587Y1813207D01*
X2872727Y1840500D01*
X2767273Y1840500D01*
X2665413Y1813207D01*
X2665410Y1813206D01*
X2568775Y1757413D01*
X2500875Y1740940D01*
X2434848Y1763793D01*
X2391657Y1818714D01*
X2385016Y1888267D01*
X2386993Y1896865D01*
X2400500Y1947273D01*
X2400500Y2052727D01*
X2373207Y2154587D01*
X2320480Y2245913D01*
X2245913Y2320480D01*
X2154587Y2373207D01*
X2052727Y2400500D01*
X1947273Y2400500D01*
X1845413Y2373207D01*
X1845410Y2373206D01*
X1786500Y2339194D01*
X1718599Y2322721D01*
X1652572Y2345574D01*
X1609382Y2400495D01*
X1600500Y2446581D01*
X1600500Y2492725D01*
X1600500Y2492727D01*
X1573207Y2594587D01*
X1520480Y2685913D01*
X1445913Y2760480D01*
X1354587Y2813207D01*
X1252727Y2840500D01*
X1147273Y2840500D01*
X1045413Y2813207D01*
X1045410Y2813206D01*
X954085Y2760479D01*
X879521Y2685915D01*
X826794Y2594590D01*
X826793Y2594587D01*
X799500Y2492727D01*
X-10466134Y2492727D01*
X-10479520Y2515913D01*
X-10554087Y2590480D01*
X-10645413Y2643207D01*
X-10747273Y2670500D01*
X-10852727Y2670500D01*
X-10954587Y2643207D01*
X-10954590Y2643206D01*
X-11045915Y2590479D01*
X-11120479Y2515915D01*
X-11173206Y2424590D01*
X-11173207Y2424587D01*
X-11200500Y2322727D01*
X-14639891Y2322727D01*
X-14626793Y2345413D01*
X-14599500Y2447273D01*
X-14599500Y2552727D01*
X-14626793Y2654587D01*
X-14679520Y2745913D01*
X-14754087Y2820480D01*
X-14845413Y2873207D01*
X-14947273Y2900500D01*
X-15052727Y2900500D01*
X-15154587Y2873207D01*
X-15154590Y2873206D01*
X-15245915Y2820479D01*
X-15287319Y2779074D01*
X-15348642Y2745589D01*
X-15418334Y2750573D01*
X-15462681Y2779074D01*
X-15504086Y2820479D01*
X-15504087Y2820480D01*
X-15595413Y2873207D01*
X-15697273Y2900500D01*
X-15802727Y2900500D01*
X-15904587Y2873207D01*
X-15904590Y2873206D01*
X-15995915Y2820479D01*
X-16037319Y2779074D01*
X-16098642Y2745589D01*
X-16168334Y2750573D01*
X-16212681Y2779074D01*
X-16254086Y2820479D01*
X-16254087Y2820480D01*
X-16345413Y2873207D01*
X-16447273Y2900500D01*
X-16552727Y2900500D01*
X-16654587Y2873207D01*
X-16654590Y2873206D01*
X-16745915Y2820479D01*
X-16787319Y2779074D01*
X-16848642Y2745589D01*
X-16918334Y2750573D01*
X-16962681Y2779074D01*
X-17004086Y2820479D01*
X-17004087Y2820480D01*
X-17095413Y2873207D01*
X-17197273Y2900500D01*
X-17302727Y2900500D01*
X-17404587Y2873207D01*
X-17404590Y2873206D01*
X-17495915Y2820479D01*
X-17570479Y2745915D01*
X-17623206Y2654590D01*
X-17623207Y2654587D01*
X-17650500Y2552727D01*
X-18599500Y2552727D01*
X-18599500Y2946018D01*
X-13320500Y2946018D01*
X-13320500Y2833982D01*
X-13291503Y2725763D01*
X-13235485Y2628737D01*
X-13156263Y2549515D01*
X-13059237Y2493497D01*
X-12951018Y2464500D01*
X-12951016Y2464500D01*
X-12838984Y2464500D01*
X-12838982Y2464500D01*
X-12730763Y2493497D01*
X-12633737Y2549515D01*
X-12554515Y2628737D01*
X-12498497Y2725763D01*
X-12469500Y2833982D01*
X-12469500Y2946018D01*
X-12498497Y3054237D01*
X-12554515Y3151263D01*
X-12633737Y3230485D01*
X-12725281Y3283338D01*
X-12730761Y3286502D01*
X-12730762Y3286503D01*
X-12730763Y3286503D01*
X-12838982Y3315500D01*
X-12951018Y3315500D01*
X-13059237Y3286503D01*
X-13059240Y3286502D01*
X-13156260Y3230487D01*
X-13156266Y3230483D01*
X-13235483Y3151266D01*
X-13235487Y3151260D01*
X-13291502Y3054240D01*
X-13291503Y3054237D01*
X-13320500Y2946018D01*
X-18599500Y2946018D01*
X-18599500Y4255929D01*
X-17625501Y4255929D01*
X-17600503Y4130262D01*
X-17600501Y4130256D01*
X-17551467Y4011876D01*
X-17551462Y4011867D01*
X-17480277Y3905332D01*
X-17480274Y3905328D01*
X-17389673Y3814727D01*
X-17389669Y3814724D01*
X-17283134Y3743539D01*
X-17283128Y3743536D01*
X-17283127Y3743535D01*
X-17164744Y3694499D01*
X-17164740Y3694499D01*
X-17164739Y3694498D01*
X-17039072Y3669500D01*
X-17039069Y3669500D01*
X-16110929Y3669500D01*
X-16026385Y3686318D01*
X-15985256Y3694499D01*
X-15866873Y3743535D01*
X-15760331Y3814724D01*
X-15669724Y3905331D01*
X-15598535Y4011873D01*
X-15549499Y4130256D01*
X-15533719Y4209583D01*
X-15524500Y4255929D01*
X-13595501Y4255929D01*
X-13570503Y4130262D01*
X-13570501Y4130256D01*
X-13521467Y4011876D01*
X-13521462Y4011867D01*
X-13450277Y3905332D01*
X-13450274Y3905328D01*
X-13359673Y3814727D01*
X-13359669Y3814724D01*
X-13253134Y3743539D01*
X-13253128Y3743536D01*
X-13253127Y3743535D01*
X-13134744Y3694499D01*
X-13134740Y3694499D01*
X-13134739Y3694498D01*
X-13009072Y3669500D01*
X-13009069Y3669500D01*
X-11780929Y3669500D01*
X-11696385Y3686318D01*
X-11655256Y3694499D01*
X-11536873Y3743535D01*
X-11430331Y3814724D01*
X-11339724Y3905331D01*
X-11268535Y4011873D01*
X-11219499Y4130256D01*
X-11203719Y4209583D01*
X-11194500Y4255929D01*
X-11194500Y4352727D01*
X-6800500Y4352727D01*
X-6800500Y4247273D01*
X-6773207Y4145413D01*
X-6720480Y4054087D01*
X-6645913Y3979520D01*
X-6554587Y3926793D01*
X-6452727Y3899500D01*
X-6452725Y3899500D01*
X-6347275Y3899500D01*
X-6347273Y3899500D01*
X-6245413Y3926793D01*
X-6161999Y3974953D01*
X-6094100Y3991425D01*
X-6038002Y3974953D01*
X-5954587Y3926793D01*
X-5852727Y3899500D01*
X-5852725Y3899500D01*
X-5747275Y3899500D01*
X-5747273Y3899500D01*
X-5725366Y3905370D01*
X-5655519Y3903709D01*
X-5597656Y3864547D01*
X-5570150Y3800320D01*
X-5573498Y3753504D01*
X-5600500Y3652729D01*
X-5600500Y3652727D01*
X-5600500Y3547273D01*
X-5573207Y3445413D01*
X-5535779Y3380586D01*
X-5519307Y3312690D01*
X-5542159Y3246663D01*
X-5555485Y3230908D01*
X-5610480Y3175913D01*
X-5663206Y3084590D01*
X-5663207Y3084587D01*
X-5690500Y2982727D01*
X-5690500Y2877273D01*
X-5673333Y2813207D01*
X-5663207Y2775414D01*
X-5663206Y2775411D01*
X-5654585Y2760479D01*
X-5610480Y2684087D01*
X-5535913Y2609520D01*
X-5444587Y2556793D01*
X-5342727Y2529500D01*
X-5342725Y2529500D01*
X-5237275Y2529500D01*
X-5237273Y2529500D01*
X-5135413Y2556793D01*
X-5044087Y2609520D01*
X-4969520Y2684087D01*
X-4916793Y2775413D01*
X-4889500Y2877273D01*
X-4889500Y2982727D01*
X-4916793Y3084587D01*
X-4954221Y3149414D01*
X-4970694Y3217310D01*
X-4947842Y3283338D01*
X-4934526Y3299082D01*
X-4879520Y3354087D01*
X-4826793Y3445413D01*
X-4799500Y3547273D01*
X-4799500Y3652727D01*
X-4826793Y3754587D01*
X-4843040Y3782727D01*
X-2110500Y3782727D01*
X-2110500Y3677273D01*
X-2085166Y3582727D01*
X-2083207Y3575414D01*
X-2083206Y3575411D01*
X-2071661Y3555414D01*
X-2030480Y3484087D01*
X-1955913Y3409520D01*
X-1864587Y3356793D01*
X-1762727Y3329500D01*
X-1762725Y3329500D01*
X-1657275Y3329500D01*
X-1657273Y3329500D01*
X-1555413Y3356793D01*
X-1531073Y3370846D01*
X-1463177Y3387319D01*
X-1397149Y3364468D01*
X-1361688Y3325461D01*
X-1320480Y3254087D01*
X-1245913Y3179520D01*
X-1154587Y3126793D01*
X-1052727Y3099500D01*
X-1052725Y3099500D01*
X-947275Y3099500D01*
X-947273Y3099500D01*
X-845413Y3126793D01*
X-754087Y3179520D01*
X-679520Y3254087D01*
X-626793Y3345413D01*
X-619775Y3371607D01*
X-583411Y3431267D01*
X-520564Y3461797D01*
X-451188Y3453503D01*
X-397310Y3409018D01*
X-380225Y3371606D01*
X-373208Y3345415D01*
X-373206Y3345411D01*
X-368231Y3336794D01*
X-320480Y3254087D01*
X-245913Y3179520D01*
X-154587Y3126793D01*
X-52727Y3099500D01*
X-52725Y3099500D01*
X52725Y3099500D01*
X52727Y3099500D01*
X154587Y3126793D01*
X245913Y3179520D01*
X320480Y3254087D01*
X320480Y3254088D01*
X326227Y3259834D01*
X328450Y3257611D01*
X372883Y3290069D01*
X442628Y3294239D01*
X502537Y3261070D01*
X554087Y3209520D01*
X645413Y3156793D01*
X747273Y3129500D01*
X747275Y3129500D01*
X852725Y3129500D01*
X852727Y3129500D01*
X902091Y3142727D01*
X8129500Y3142727D01*
X8129500Y3037273D01*
X8156793Y2935413D01*
X8209520Y2844087D01*
X8284087Y2769520D01*
X8375413Y2716793D01*
X8477273Y2689500D01*
X8477275Y2689500D01*
X8582725Y2689500D01*
X8582727Y2689500D01*
X8684587Y2716793D01*
X8775913Y2769520D01*
X8850480Y2844087D01*
X8903207Y2935413D01*
X8930500Y3037273D01*
X8930500Y3142727D01*
X8903207Y3244587D01*
X8850480Y3335913D01*
X8775913Y3410480D01*
X8684587Y3463207D01*
X8582727Y3490500D01*
X8477273Y3490500D01*
X8375413Y3463207D01*
X8375410Y3463206D01*
X8284085Y3410479D01*
X8209521Y3335915D01*
X8156794Y3244590D01*
X8156793Y3244587D01*
X8129500Y3142727D01*
X902091Y3142727D01*
X954587Y3156793D01*
X1045913Y3209520D01*
X1120480Y3284087D01*
X1173207Y3375413D01*
X1200500Y3477273D01*
X1200500Y3582727D01*
X1173207Y3684587D01*
X1122319Y3772727D01*
X2879500Y3772727D01*
X2879500Y3667273D01*
X2905904Y3568733D01*
X2906793Y3565414D01*
X2906794Y3565411D01*
X2917266Y3547273D01*
X2959520Y3474087D01*
X3034087Y3399520D01*
X3125413Y3346793D01*
X3227273Y3319500D01*
X3227275Y3319500D01*
X3332725Y3319500D01*
X3332727Y3319500D01*
X3434587Y3346793D01*
X3525913Y3399520D01*
X3600480Y3474087D01*
X3653207Y3565413D01*
X3680500Y3667273D01*
X3680500Y3772727D01*
X3653207Y3874587D01*
X3600480Y3965913D01*
X3525913Y4040480D01*
X3504701Y4052727D01*
X4899500Y4052727D01*
X4899500Y3947273D01*
X4926793Y3845413D01*
X4979520Y3754087D01*
X5054087Y3679520D01*
X5145413Y3626793D01*
X5247273Y3599500D01*
X5247275Y3599500D01*
X5352725Y3599500D01*
X5352727Y3599500D01*
X5454587Y3626793D01*
X5545913Y3679520D01*
X5620480Y3754087D01*
X5673207Y3845413D01*
X5700500Y3947273D01*
X5700500Y4052727D01*
X5675046Y4147725D01*
X11789500Y4147725D01*
X11789500Y4042271D01*
X11816793Y3940411D01*
X11869520Y3849085D01*
X11944087Y3774518D01*
X12035413Y3721791D01*
X12137273Y3694498D01*
X12137275Y3694498D01*
X12234377Y3694498D01*
X12301416Y3674813D01*
X12347171Y3622009D01*
X12354152Y3602592D01*
X12366793Y3555412D01*
X12366794Y3555411D01*
X12419520Y3464087D01*
X12494087Y3389520D01*
X12585413Y3336793D01*
X12687273Y3309500D01*
X12687275Y3309500D01*
X12792725Y3309500D01*
X12792727Y3309500D01*
X12894587Y3336793D01*
X12985913Y3389520D01*
X13060480Y3464087D01*
X13113207Y3555413D01*
X13140500Y3657273D01*
X13140500Y3762727D01*
X13113207Y3864587D01*
X13060480Y3955913D01*
X12985913Y4030480D01*
X12894587Y4083207D01*
X12792727Y4110500D01*
X12695623Y4110500D01*
X12628584Y4130185D01*
X12582829Y4182989D01*
X12575848Y4202406D01*
X12567344Y4234145D01*
X12563207Y4249585D01*
X12510480Y4340911D01*
X12435913Y4415478D01*
X12344587Y4468205D01*
X12242727Y4495498D01*
X12137273Y4495498D01*
X12035413Y4468205D01*
X12035410Y4468204D01*
X11944085Y4415477D01*
X11869521Y4340913D01*
X11816794Y4249588D01*
X11816794Y4249587D01*
X11816793Y4249585D01*
X11789500Y4147725D01*
X5675046Y4147725D01*
X5673207Y4154587D01*
X5661438Y4174971D01*
X5657879Y4184382D01*
X5655960Y4209583D01*
X5650001Y4234145D01*
X5653353Y4243831D01*
X5652575Y4254050D01*
X5664585Y4276288D01*
X5672852Y4300173D01*
X5681957Y4308451D01*
X5685779Y4315526D01*
X5695866Y4321095D01*
X5711859Y4335633D01*
X5735913Y4349520D01*
X5810480Y4424087D01*
X5863207Y4515413D01*
X5890500Y4617273D01*
X5890500Y4722727D01*
X5863207Y4824587D01*
X5810480Y4915913D01*
X5735913Y4990480D01*
X5644587Y5043207D01*
X5542727Y5070500D01*
X5437273Y5070500D01*
X5335413Y5043207D01*
X5335410Y5043206D01*
X5244085Y4990479D01*
X5169521Y4915915D01*
X5116794Y4824590D01*
X5116793Y4824587D01*
X5089500Y4722727D01*
X5089500Y4617273D01*
X5116793Y4515413D01*
X5123525Y4503752D01*
X5139998Y4435853D01*
X5117146Y4369826D01*
X5078140Y4334367D01*
X5054085Y4320479D01*
X4979521Y4245915D01*
X4926794Y4154590D01*
X4926793Y4154587D01*
X4899500Y4052727D01*
X3504701Y4052727D01*
X3434587Y4093207D01*
X3332727Y4120500D01*
X3227273Y4120500D01*
X3125413Y4093207D01*
X3125410Y4093206D01*
X3034085Y4040479D01*
X2959521Y3965915D01*
X2906794Y3874590D01*
X2906793Y3874587D01*
X2879500Y3772727D01*
X1122319Y3772727D01*
X1120480Y3775913D01*
X1045913Y3850480D01*
X954587Y3903207D01*
X852727Y3930500D01*
X747273Y3930500D01*
X645413Y3903207D01*
X645410Y3903206D01*
X554085Y3850479D01*
X473773Y3770166D01*
X471561Y3772378D01*
X427011Y3739894D01*
X357262Y3735787D01*
X297462Y3768931D01*
X245914Y3820479D01*
X245913Y3820480D01*
X167874Y3865536D01*
X154589Y3873206D01*
X154588Y3873207D01*
X154587Y3873207D01*
X52727Y3900500D01*
X-52727Y3900500D01*
X-154587Y3873207D01*
X-154590Y3873206D01*
X-245915Y3820479D01*
X-320479Y3745915D01*
X-373206Y3654590D01*
X-373207Y3654587D01*
X-380225Y3628394D01*
X-416590Y3568733D01*
X-479437Y3538204D01*
X-548812Y3546499D01*
X-602690Y3590984D01*
X-619775Y3628394D01*
X-626793Y3654587D01*
X-679520Y3745913D01*
X-754087Y3820480D01*
X-832126Y3865536D01*
X-845411Y3873206D01*
X-845412Y3873207D01*
X-845413Y3873207D01*
X-947273Y3900500D01*
X-1052727Y3900500D01*
X-1154587Y3873207D01*
X-1154592Y3873205D01*
X-1178929Y3859154D01*
X-1246829Y3842683D01*
X-1312856Y3865536D01*
X-1348313Y3904540D01*
X-1389520Y3975913D01*
X-1464087Y4050480D01*
X-1555413Y4103207D01*
X-1657273Y4130500D01*
X-1762727Y4130500D01*
X-1864587Y4103207D01*
X-1864590Y4103206D01*
X-1955915Y4050479D01*
X-2030479Y3975915D01*
X-2083206Y3884590D01*
X-2083207Y3884587D01*
X-2110500Y3782727D01*
X-4843040Y3782727D01*
X-4879520Y3845913D01*
X-4905785Y3872178D01*
X-4913206Y3883976D01*
X-4919080Y3904721D01*
X-4929411Y3923642D01*
X-4928408Y3937671D01*
X-4932239Y3951203D01*
X-4925965Y3971829D01*
X-4924427Y3993334D01*
X-4914927Y4008118D01*
X-4911905Y4018049D01*
X-4904500Y4024342D01*
X-4895926Y4037681D01*
X-4891335Y4042272D01*
X-4879520Y4054087D01*
X-4826793Y4145413D01*
X-4799500Y4247273D01*
X-4799500Y4352727D01*
X-4826793Y4454587D01*
X-4874953Y4538002D01*
X-4891425Y4605900D01*
X-4874953Y4661999D01*
X-4826793Y4745413D01*
X-4799500Y4847273D01*
X-4799500Y4952727D01*
X-4826793Y5054587D01*
X-4879520Y5145913D01*
X-4954087Y5220480D01*
X-5020941Y5259078D01*
X-5045411Y5273206D01*
X-5045412Y5273207D01*
X-5045413Y5273207D01*
X-5147273Y5300500D01*
X-5252727Y5300500D01*
X-5354587Y5273207D01*
X-5354590Y5273206D01*
X-5445915Y5220479D01*
X-5520479Y5145915D01*
X-5573206Y5054590D01*
X-5573207Y5054587D01*
X-5600500Y4952727D01*
X-5600500Y4847275D01*
X-5599439Y4839217D01*
X-5602724Y4838785D01*
X-5604047Y4784325D01*
X-5643238Y4726482D01*
X-5707480Y4699010D01*
X-5738977Y4701263D01*
X-5739217Y4699439D01*
X-5747272Y4700500D01*
X-5747273Y4700500D01*
X-5852727Y4700500D01*
X-5954587Y4673207D01*
X-5954590Y4673206D01*
X-6038000Y4625049D01*
X-6105901Y4608576D01*
X-6162000Y4625049D01*
X-6245411Y4673206D01*
X-6245412Y4673207D01*
X-6245413Y4673207D01*
X-6347273Y4700500D01*
X-6452727Y4700500D01*
X-6554587Y4673207D01*
X-6554590Y4673206D01*
X-6645915Y4620479D01*
X-6720479Y4545915D01*
X-6773206Y4454590D01*
X-6773207Y4454587D01*
X-6800500Y4352727D01*
X-11194500Y4352727D01*
X-11194500Y4384072D01*
X-11219498Y4509739D01*
X-11219499Y4509740D01*
X-11219499Y4509744D01*
X-11264039Y4617273D01*
X-11268534Y4628125D01*
X-11268539Y4628134D01*
X-11339724Y4734669D01*
X-11339727Y4734673D01*
X-11430328Y4825274D01*
X-11430332Y4825277D01*
X-11536867Y4896462D01*
X-11536876Y4896467D01*
X-11655256Y4945501D01*
X-11655262Y4945503D01*
X-11780929Y4970500D01*
X-11780931Y4970500D01*
X-13009069Y4970500D01*
X-13009071Y4970500D01*
X-13134739Y4945503D01*
X-13134745Y4945501D01*
X-13253125Y4896467D01*
X-13253134Y4896462D01*
X-13359669Y4825277D01*
X-13359673Y4825274D01*
X-13450274Y4734673D01*
X-13450277Y4734669D01*
X-13521462Y4628134D01*
X-13521467Y4628125D01*
X-13570501Y4509745D01*
X-13570503Y4509739D01*
X-13595500Y4384072D01*
X-13595500Y4384069D01*
X-13595500Y4255931D01*
X-13595500Y4255929D01*
X-13595501Y4255929D01*
X-15524500Y4255929D01*
X-15524500Y4384072D01*
X-15549498Y4509739D01*
X-15549499Y4509740D01*
X-15549499Y4509744D01*
X-15594039Y4617273D01*
X-15598534Y4628125D01*
X-15598539Y4628134D01*
X-15669724Y4734669D01*
X-15669727Y4734673D01*
X-15760328Y4825274D01*
X-15760332Y4825277D01*
X-15866867Y4896462D01*
X-15866876Y4896467D01*
X-15985256Y4945501D01*
X-15985262Y4945503D01*
X-16110929Y4970500D01*
X-16110931Y4970500D01*
X-17039069Y4970500D01*
X-17039071Y4970500D01*
X-17164739Y4945503D01*
X-17164745Y4945501D01*
X-17283125Y4896467D01*
X-17283134Y4896462D01*
X-17389669Y4825277D01*
X-17389673Y4825274D01*
X-17480274Y4734673D01*
X-17480277Y4734669D01*
X-17551462Y4628134D01*
X-17551467Y4628125D01*
X-17600501Y4509745D01*
X-17600503Y4509739D01*
X-17625500Y4384072D01*
X-17625500Y4384069D01*
X-17625500Y4255931D01*
X-17625500Y4255929D01*
X-17625501Y4255929D01*
X-18599500Y4255929D01*
X-18599500Y5493039D01*
X-18598720Y5506922D01*
X-18590026Y5584086D01*
X-18586034Y5619519D01*
X-18579858Y5646582D01*
X-18544744Y5746932D01*
X-18532701Y5771938D01*
X-18476137Y5861960D01*
X-18458832Y5883659D01*
X-18383659Y5958832D01*
X-18361960Y5976137D01*
X-18271938Y6032701D01*
X-18246932Y6044744D01*
X-18146582Y6079858D01*
X-18119519Y6086034D01*
X-18022231Y6096996D01*
X-18006922Y6098720D01*
X-17993039Y6099500D01*
X-17942417Y6099500D01*
X7975984Y6099500D01*
X8043023Y6079815D01*
G37*
%TD.AperFunction*%
%TD*%
M02*
