%TF.GenerationSoftware,KiCad,Pcbnew,9.0.6-9.0.6~ubuntu24.04.1*%
%TF.CreationDate,2025-11-23T17:21:16+08:00*%
%TF.ProjectId,demo,64656d6f-2e6b-4696-9361-645f70636258,V1.0.1*%
%TF.SameCoordinates,PX5f5e100PY5f5e100*%
%TF.FileFunction,Legend,Top*%
%TF.FilePolarity,Positive*%
%FSLAX46Y46*%
G04 Gerber Fmt 4.6, Leading zero omitted, Abs format (unit mm)*
G04 Created by KiCad (PCBNEW 9.0.6-9.0.6~ubuntu24.04.1) date 2025-11-23 17:21:16*
%MOMM*%
%LPD*%
G01*
G04 APERTURE LIST*
G04 Aperture macros list*
%AMRoundRect*
0 Rectangle with rounded corners*
0 $1 Rounding radius*
0 $2 $3 $4 $5 $6 $7 $8 $9 X,Y pos of 4 corners*
0 Add a 4 corners polygon primitive as box body*
4,1,4,$2,$3,$4,$5,$6,$7,$8,$9,$2,$3,0*
0 Add four circle primitives for the rounded corners*
1,1,$1+$1,$2,$3*
1,1,$1+$1,$4,$5*
1,1,$1+$1,$6,$7*
1,1,$1+$1,$8,$9*
0 Add four rect primitives between the rounded corners*
20,1,$1+$1,$2,$3,$4,$5,0*
20,1,$1+$1,$4,$5,$6,$7,0*
20,1,$1+$1,$6,$7,$8,$9,0*
20,1,$1+$1,$8,$9,$2,$3,0*%
G04 Aperture macros list end*
%ADD10C,0.120000*%
%ADD11C,0.100000*%
%ADD12RoundRect,0.250000X0.450000X0.350000X-0.450000X0.350000X-0.450000X-0.350000X0.450000X-0.350000X0*%
%ADD13RoundRect,0.225000X-0.225000X-0.250000X0.225000X-0.250000X0.225000X0.250000X-0.225000X0.250000X0*%
%ADD14RoundRect,0.140000X0.140000X0.170000X-0.140000X0.170000X-0.140000X-0.170000X0.140000X-0.170000X0*%
%ADD15RoundRect,0.135000X0.135000X0.185000X-0.135000X0.185000X-0.135000X-0.185000X0.135000X-0.185000X0*%
%ADD16RoundRect,0.140000X-0.140000X-0.170000X0.140000X-0.170000X0.140000X0.170000X-0.140000X0.170000X0*%
%ADD17RoundRect,0.135000X0.185000X-0.135000X0.185000X0.135000X-0.185000X0.135000X-0.185000X-0.135000X0*%
%ADD18RoundRect,0.135000X-0.135000X-0.185000X0.135000X-0.185000X0.135000X0.185000X-0.135000X0.185000X0*%
%ADD19RoundRect,0.225000X0.225000X0.250000X-0.225000X0.250000X-0.225000X-0.250000X0.225000X-0.250000X0*%
%ADD20RoundRect,0.135000X-0.185000X0.135000X-0.185000X-0.135000X0.185000X-0.135000X0.185000X0.135000X0*%
%ADD21R,1.700000X1.700000*%
%ADD22C,1.700000*%
%ADD23RoundRect,0.140000X-0.170000X0.140000X-0.170000X-0.140000X0.170000X-0.140000X0.170000X0.140000X0*%
%ADD24R,1.000000X1.000000*%
%ADD25C,1.000000*%
%ADD26RoundRect,0.147500X0.172500X-0.147500X0.172500X0.147500X-0.172500X0.147500X-0.172500X-0.147500X0*%
%ADD27RoundRect,0.147500X-0.172500X0.147500X-0.172500X-0.147500X0.172500X-0.147500X0.172500X0.147500X0*%
%ADD28RoundRect,0.375000X0.625000X0.375000X-0.625000X0.375000X-0.625000X-0.375000X0.625000X-0.375000X0*%
%ADD29RoundRect,0.500000X0.500000X1.400000X-0.500000X1.400000X-0.500000X-1.400000X0.500000X-1.400000X0*%
%ADD30RoundRect,0.075000X0.662500X0.075000X-0.662500X0.075000X-0.662500X-0.075000X0.662500X-0.075000X0*%
%ADD31RoundRect,0.075000X0.075000X0.662500X-0.075000X0.662500X-0.075000X-0.662500X0.075000X-0.662500X0*%
%ADD32C,0.500000*%
%ADD33R,0.950000X0.260000*%
%ADD34O,1.900000X0.900000*%
%ADD35O,2.200000X0.900000*%
%ADD36O,0.900000X1.500000*%
%ADD37RoundRect,0.150000X0.150000X-0.587500X0.150000X0.587500X-0.150000X0.587500X-0.150000X-0.587500X0*%
G04 APERTURE END LIST*
D10*
%TO.C,Y1*%
X35910000Y9760000D02*
X31790000Y9760000D01*
X35910000Y6340000D02*
X35910000Y9760000D01*
%TO.C,C1*%
X10484420Y14110000D02*
X10765580Y14110000D01*
X10484420Y13090000D02*
X10765580Y13090000D01*
%TO.C,C6*%
X30397836Y3420000D02*
X30182164Y3420000D01*
X30397836Y2700000D02*
X30182164Y2700000D01*
%TO.C,R16*%
X35173641Y12930000D02*
X34866359Y12930000D01*
X35173641Y12170000D02*
X34866359Y12170000D01*
%TO.C,C9*%
X34932164Y11910000D02*
X35147836Y11910000D01*
X34932164Y11190000D02*
X35147836Y11190000D01*
%TO.C,R21*%
X18220000Y13536359D02*
X18220000Y13843641D01*
X18980000Y13536359D02*
X18980000Y13843641D01*
%TO.C,R4*%
X10243641Y9003334D02*
X9936359Y9003334D01*
X10243641Y8243334D02*
X9936359Y8243334D01*
%TO.C,R7*%
X9936359Y4356667D02*
X10243641Y4356667D01*
X9936359Y3596667D02*
X10243641Y3596667D01*
%TO.C,R22*%
X32526359Y12930000D02*
X32833641Y12930000D01*
X32526359Y12170000D02*
X32833641Y12170000D01*
%TO.C,C3*%
X15665580Y4810000D02*
X15384420Y4810000D01*
X15665580Y3790000D02*
X15384420Y3790000D01*
%TO.C,C2*%
X9962164Y12510000D02*
X10177836Y12510000D01*
X9962164Y11790000D02*
X10177836Y11790000D01*
%TO.C,R1*%
X10243641Y11326667D02*
X9936359Y11326667D01*
X10243641Y10566667D02*
X9936359Y10566667D01*
%TO.C,R20*%
X32833641Y4830000D02*
X32526359Y4830000D01*
X32833641Y4070000D02*
X32526359Y4070000D01*
%TO.C,C11*%
X35147836Y10910000D02*
X34932164Y10910000D01*
X35147836Y10190000D02*
X34932164Y10190000D01*
%TO.C,R9*%
X17170000Y13843641D02*
X17170000Y13536359D01*
X17930000Y13843641D02*
X17930000Y13536359D01*
%TO.C,R3*%
X10243641Y10165000D02*
X9936359Y10165000D01*
X10243641Y9405000D02*
X9936359Y9405000D01*
%TO.C,R2*%
X10243641Y7841667D02*
X9936359Y7841667D01*
X10243641Y7081667D02*
X9936359Y7081667D01*
%TO.C,R8*%
X14020000Y13843641D02*
X14020000Y13536359D01*
X14780000Y13843641D02*
X14780000Y13536359D01*
%TO.C,R14*%
X19320000Y4493641D02*
X19320000Y4186359D01*
X20080000Y4493641D02*
X20080000Y4186359D01*
%TO.C,J2*%
X36590000Y13850000D02*
X37860000Y13850000D01*
X36590000Y12580000D02*
X36590000Y13850000D01*
X38937358Y10470000D02*
X39322642Y10470000D01*
X38937358Y9610000D02*
X39322642Y9610000D01*
X38937358Y7930000D02*
X39322642Y7930000D01*
X38937358Y7070000D02*
X39322642Y7070000D01*
X38937358Y5390000D02*
X39322642Y5390000D01*
X38937358Y4530000D02*
X39322642Y4530000D01*
X38937358Y2850000D02*
X39322642Y2850000D01*
X38937358Y1990000D02*
X39322642Y1990000D01*
X39020000Y13010000D02*
X39322642Y13010000D01*
X39020000Y12150000D02*
X39322642Y12150000D01*
X41477358Y13010000D02*
X41790000Y13010000D01*
X41477358Y12150000D02*
X41790000Y12150000D01*
X41477358Y10470000D02*
X41790000Y10470000D01*
X41477358Y9610000D02*
X41790000Y9610000D01*
X41477358Y7930000D02*
X41790000Y7930000D01*
X41477358Y7070000D02*
X41790000Y7070000D01*
X41477358Y5390000D02*
X41790000Y5390000D01*
X41477358Y4530000D02*
X41790000Y4530000D01*
X41477358Y2850000D02*
X41790000Y2850000D01*
X41477358Y1990000D02*
X41790000Y1990000D01*
X41790000Y13960000D02*
X41790000Y1040000D01*
X41790000Y11310000D02*
X44550000Y11310000D01*
X41790000Y8770000D02*
X44550000Y8770000D01*
X41790000Y6230000D02*
X44550000Y6230000D01*
X41790000Y3690000D02*
X44550000Y3690000D01*
X41790000Y1040000D02*
X44550000Y1040000D01*
X44550000Y13960000D02*
X41790000Y13960000D01*
X44550000Y10470000D02*
X50550000Y10470000D01*
X44550000Y7930000D02*
X50550000Y7930000D01*
X44550000Y5390000D02*
X50550000Y5390000D01*
X44550000Y2850000D02*
X50550000Y2850000D01*
X44550000Y1040000D02*
X44550000Y13960000D01*
X50550000Y10470000D02*
X50550000Y9610000D01*
X50550000Y9610000D02*
X44550000Y9610000D01*
X50550000Y7930000D02*
X50550000Y7070000D01*
X50550000Y7070000D02*
X44550000Y7070000D01*
X50550000Y5390000D02*
X50550000Y4530000D01*
X50550000Y4530000D02*
X44550000Y4530000D01*
X50550000Y2850000D02*
X50550000Y1990000D01*
X50550000Y1990000D02*
X44550000Y1990000D01*
X44550000Y13010000D02*
X50550000Y13010000D01*
X50550000Y12150000D01*
X44550000Y12150000D01*
X44550000Y13010000D01*
G36*
X44550000Y13010000D02*
G01*
X50550000Y13010000D01*
X50550000Y12150000D01*
X44550000Y12150000D01*
X44550000Y13010000D01*
G37*
%TO.C,C4*%
X17240000Y4427836D02*
X17240000Y4212164D01*
X17960000Y4427836D02*
X17960000Y4212164D01*
%TO.C,R13*%
X34866359Y2830000D02*
X35173641Y2830000D01*
X34866359Y2070000D02*
X35173641Y2070000D01*
%TO.C,R17*%
X32833641Y2780000D02*
X32526359Y2780000D01*
X32833641Y2020000D02*
X32526359Y2020000D01*
%TO.C,R18*%
X19270000Y13843641D02*
X19270000Y13536359D01*
X20030000Y13843641D02*
X20030000Y13536359D01*
%TO.C,J3*%
X14300000Y2860000D02*
X14300000Y2017923D01*
X14300000Y1382077D02*
X14300000Y540000D01*
X18045000Y2860000D02*
X14300000Y2860000D01*
X18045000Y2860000D02*
X18045000Y2366708D01*
X18045000Y1033292D02*
X18045000Y540000D01*
X18045000Y540000D02*
X14300000Y540000D01*
X18855000Y2860000D02*
X19665000Y2860000D01*
X19665000Y2860000D02*
X19665000Y1700000D01*
D11*
%TO.C,D2*%
X16550000Y12600000D02*
G75*
G02*
X16450000Y12600000I-50000J0D01*
G01*
X16450000Y12600000D02*
G75*
G02*
X16550000Y12600000I50000J0D01*
G01*
D10*
%TO.C,R10*%
X35173641Y5830000D02*
X34866359Y5830000D01*
X35173641Y5070000D02*
X34866359Y5070000D01*
%TO.C,R12*%
X34866359Y4830000D02*
X35173641Y4830000D01*
X34866359Y4070000D02*
X35173641Y4070000D01*
D11*
%TO.C,D1*%
X15500000Y14780000D02*
G75*
G02*
X15400000Y14780000I-50000J0D01*
G01*
X15400000Y14780000D02*
G75*
G02*
X15500000Y14780000I50000J0D01*
G01*
D10*
%TO.C,C7*%
X32552164Y10910000D02*
X32767836Y10910000D01*
X32552164Y10190000D02*
X32767836Y10190000D01*
%TO.C,C8*%
X21917836Y12800000D02*
X21702164Y12800000D01*
X21917836Y12080000D02*
X21702164Y12080000D01*
%TO.C,U1*%
X13840000Y12410000D02*
X13840000Y11150000D01*
X13840000Y5590000D02*
X13840000Y6850000D01*
X17600000Y12410000D02*
X13840000Y12410000D01*
X17600000Y5590000D02*
X13840000Y5590000D01*
X19120000Y5360000D02*
X18640000Y5360000D01*
X18880000Y5690000D01*
X19120000Y5360000D01*
G36*
X19120000Y5360000D02*
G01*
X18640000Y5360000D01*
X18880000Y5690000D01*
X19120000Y5360000D01*
G37*
%TO.C,R19*%
X32833641Y3830000D02*
X32526359Y3830000D01*
X32833641Y3070000D02*
X32526359Y3070000D01*
%TO.C,U2*%
X22440000Y11360000D02*
X22890000Y11360000D01*
X22440000Y10910000D02*
X22440000Y11360000D01*
X22440000Y4140000D02*
X22440000Y4590000D01*
X22890000Y4140000D02*
X22440000Y4140000D01*
X29210000Y11360000D02*
X29660000Y11360000D01*
X29660000Y11360000D02*
X29660000Y10910000D01*
X29660000Y4590000D02*
X29660000Y4140000D01*
X29660000Y4140000D02*
X29210000Y4140000D01*
X30640000Y4120000D02*
X29960000Y4120000D01*
X30300000Y4590000D01*
X30640000Y4120000D01*
G36*
X30640000Y4120000D02*
G01*
X29960000Y4120000D01*
X30300000Y4590000D01*
X30640000Y4120000D01*
G37*
%TO.C,R5*%
X10243641Y6680000D02*
X9936359Y6680000D01*
X10243641Y5920000D02*
X9936359Y5920000D01*
%TO.C,R15*%
X18270000Y4493641D02*
X18270000Y4186359D01*
X19030000Y4493641D02*
X19030000Y4186359D01*
%TO.C,R23*%
X32833641Y11930000D02*
X32526359Y11930000D01*
X32833641Y11170000D02*
X32526359Y11170000D01*
%TO.C,C5*%
X21000000Y3617836D02*
X21000000Y3402164D01*
X21720000Y3617836D02*
X21720000Y3402164D01*
%TO.C,R11*%
X35173641Y3830000D02*
X34866359Y3830000D01*
X35173641Y3070000D02*
X34866359Y3070000D01*
D11*
%TO.C,J1*%
X8325000Y12350000D02*
X1525000Y12350000D01*
X8325000Y12300000D02*
X8325000Y10800000D01*
X8325000Y2700000D02*
X8325000Y4200000D01*
X8325000Y2650000D02*
X1525000Y2650000D01*
D10*
%TO.C,Q1*%
X10340000Y3172500D02*
X11340000Y3172500D01*
X10340000Y1652500D02*
X10340000Y3172500D01*
X10390000Y1652500D02*
X10340000Y1652500D01*
X12290000Y1652500D02*
X11510000Y1652500D01*
X12460000Y3172500D02*
X13460000Y3172500D01*
X13460000Y3172500D02*
X13460000Y1652500D01*
X13460000Y1652500D02*
X13410000Y1652500D01*
X11850000Y872500D02*
X11520000Y1112500D01*
X11850000Y1352500D01*
X11850000Y872500D01*
G36*
X11850000Y872500D02*
G01*
X11520000Y1112500D01*
X11850000Y1352500D01*
X11850000Y872500D01*
G37*
%TO.C,C10*%
X32767836Y5810000D02*
X32552164Y5810000D01*
X32767836Y5090000D02*
X32552164Y5090000D01*
%TO.C,R6*%
X9936359Y5518334D02*
X10243641Y5518334D01*
X9936359Y4758334D02*
X10243641Y4758334D01*
%TD*%
%LPC*%
D12*
%TO.C,Y1*%
X34950000Y8900000D03*
X32750000Y8900000D03*
X32750000Y7200000D03*
X34950000Y7200000D03*
%TD*%
D13*
%TO.C,C1*%
X9850000Y13600000D03*
X11400000Y13600000D03*
%TD*%
D14*
%TO.C,C6*%
X30770000Y3060000D03*
X29810000Y3060000D03*
%TD*%
D15*
%TO.C,R16*%
X35530000Y12550000D03*
X34510000Y12550000D03*
%TD*%
D16*
%TO.C,C9*%
X34560000Y11550000D03*
X35520000Y11550000D03*
%TD*%
D17*
%TO.C,R21*%
X18600000Y13180000D03*
X18600000Y14200000D03*
%TD*%
D15*
%TO.C,R4*%
X10600000Y8623334D03*
X9580000Y8623334D03*
%TD*%
D18*
%TO.C,R7*%
X9580000Y3976667D03*
X10600000Y3976667D03*
%TD*%
%TO.C,R22*%
X32170000Y12550000D03*
X33190000Y12550000D03*
%TD*%
D19*
%TO.C,C3*%
X16300000Y4300000D03*
X14750000Y4300000D03*
%TD*%
D16*
%TO.C,C2*%
X9590000Y12150000D03*
X10550000Y12150000D03*
%TD*%
D15*
%TO.C,R1*%
X10600000Y10946667D03*
X9580000Y10946667D03*
%TD*%
%TO.C,R20*%
X33190000Y4450000D03*
X32170000Y4450000D03*
%TD*%
D14*
%TO.C,C11*%
X35520000Y10550000D03*
X34560000Y10550000D03*
%TD*%
D20*
%TO.C,R9*%
X17550000Y14200000D03*
X17550000Y13180000D03*
%TD*%
D15*
%TO.C,R3*%
X10600000Y9785000D03*
X9580000Y9785000D03*
%TD*%
%TO.C,R2*%
X10600000Y7461667D03*
X9580000Y7461667D03*
%TD*%
D20*
%TO.C,R8*%
X14400000Y14200000D03*
X14400000Y13180000D03*
%TD*%
%TO.C,R14*%
X19700000Y4850000D03*
X19700000Y3830000D03*
%TD*%
D21*
%TO.C,J2*%
X37860000Y12580000D03*
D22*
X40400000Y12580000D03*
X37860000Y10040000D03*
X40400000Y10040000D03*
X37860000Y7500000D03*
X40400000Y7500000D03*
X37860000Y4960000D03*
X40400000Y4960000D03*
X37860000Y2420000D03*
X40400000Y2420000D03*
%TD*%
D23*
%TO.C,C4*%
X17600000Y4800000D03*
X17600000Y3840000D03*
%TD*%
D18*
%TO.C,R13*%
X34510000Y2450000D03*
X35530000Y2450000D03*
%TD*%
D15*
%TO.C,R17*%
X33190000Y2400000D03*
X32170000Y2400000D03*
%TD*%
D20*
%TO.C,R18*%
X19650000Y14200000D03*
X19650000Y13180000D03*
%TD*%
D24*
%TO.C,J3*%
X18855000Y1700000D03*
D25*
X17585000Y1700000D03*
X16315000Y1700000D03*
X15045000Y1700000D03*
%TD*%
D26*
%TO.C,D2*%
X16500000Y13205000D03*
X16500000Y14175000D03*
%TD*%
D15*
%TO.C,R10*%
X35530000Y5450000D03*
X34510000Y5450000D03*
%TD*%
D18*
%TO.C,R12*%
X34510000Y4450000D03*
X35530000Y4450000D03*
%TD*%
D27*
%TO.C,D1*%
X15450000Y14175000D03*
X15450000Y13205000D03*
%TD*%
D16*
%TO.C,C7*%
X32180000Y10550000D03*
X33140000Y10550000D03*
%TD*%
D14*
%TO.C,C8*%
X22290000Y12440000D03*
X21330000Y12440000D03*
%TD*%
D28*
%TO.C,U1*%
X18900000Y6700000D03*
X18900000Y9000000D03*
D29*
X12600000Y9000000D03*
D28*
X18900000Y11300000D03*
%TD*%
D15*
%TO.C,R19*%
X33190000Y3450000D03*
X32170000Y3450000D03*
%TD*%
D30*
%TO.C,U2*%
X30212500Y5000000D03*
X30212500Y5500000D03*
X30212500Y6000000D03*
X30212500Y6500000D03*
X30212500Y7000000D03*
X30212500Y7500000D03*
X30212500Y8000000D03*
X30212500Y8500000D03*
X30212500Y9000000D03*
X30212500Y9500000D03*
X30212500Y10000000D03*
X30212500Y10500000D03*
D31*
X28800000Y11912500D03*
X28300000Y11912500D03*
X27800000Y11912500D03*
X27300000Y11912500D03*
X26800000Y11912500D03*
X26300000Y11912500D03*
X25800000Y11912500D03*
X25300000Y11912500D03*
X24800000Y11912500D03*
X24300000Y11912500D03*
X23800000Y11912500D03*
X23300000Y11912500D03*
D30*
X21887500Y10500000D03*
X21887500Y10000000D03*
X21887500Y9500000D03*
X21887500Y9000000D03*
X21887500Y8500000D03*
X21887500Y8000000D03*
X21887500Y7500000D03*
X21887500Y7000000D03*
X21887500Y6500000D03*
X21887500Y6000000D03*
X21887500Y5500000D03*
X21887500Y5000000D03*
D31*
X23300000Y3587500D03*
X23800000Y3587500D03*
X24300000Y3587500D03*
X24800000Y3587500D03*
X25300000Y3587500D03*
X25800000Y3587500D03*
X26300000Y3587500D03*
X26800000Y3587500D03*
X27300000Y3587500D03*
X27800000Y3587500D03*
X28300000Y3587500D03*
X28800000Y3587500D03*
%TD*%
D15*
%TO.C,R5*%
X10600000Y6300000D03*
X9580000Y6300000D03*
%TD*%
D20*
%TO.C,R15*%
X18650000Y4850000D03*
X18650000Y3830000D03*
%TD*%
D15*
%TO.C,R23*%
X33190000Y11550000D03*
X32170000Y11550000D03*
%TD*%
D23*
%TO.C,C5*%
X21360000Y3990000D03*
X21360000Y3030000D03*
%TD*%
D15*
%TO.C,R11*%
X35530000Y3450000D03*
X34510000Y3450000D03*
%TD*%
D32*
%TO.C,J1*%
X5925000Y10900000D03*
X5925000Y4100000D03*
D33*
X7900000Y10130000D03*
X7900000Y9630000D03*
X7900000Y9130000D03*
X7900000Y8630000D03*
X7900000Y8130000D03*
X7900000Y7630000D03*
X7900000Y7130000D03*
X7900000Y6630000D03*
X7900000Y6130000D03*
X7900000Y5630000D03*
X7900000Y5130000D03*
X7900000Y4630000D03*
X6600000Y4870000D03*
X6600000Y5370000D03*
X6600000Y5870000D03*
X6600000Y6370000D03*
X6600000Y6870000D03*
X6600000Y7370000D03*
X6600000Y7870000D03*
X6600000Y8370000D03*
X6600000Y8870000D03*
X6600000Y9370000D03*
X6600000Y9870000D03*
X6600000Y10370000D03*
D34*
X7275000Y11820000D03*
D35*
X2725000Y11820000D03*
D36*
X6775000Y11520000D03*
X6775000Y3480000D03*
D34*
X7275000Y3180000D03*
D35*
X2725000Y3180000D03*
%TD*%
D37*
%TO.C,Q1*%
X10950000Y1475000D03*
X12850000Y1475000D03*
X11900000Y3350000D03*
%TD*%
D14*
%TO.C,C10*%
X33140000Y5450000D03*
X32180000Y5450000D03*
%TD*%
D18*
%TO.C,R6*%
X9580000Y5138334D03*
X10600000Y5138334D03*
%TD*%
%LPD*%
M02*
