%TF.GenerationSoftware,KiCad,Pcbnew,9.0.6-9.0.6~ubuntu24.04.1*%
%TF.CreationDate,2025-11-26T01:33:41+08:00*%
%TF.ProjectId,demo,64656d6f-2e6b-4696-9361-645f70636258,V1.0.1*%
%TF.SameCoordinates,PX5f5e100PY5f5e100*%
%TF.FileFunction,Copper,L3,Inr*%
%TF.FilePolarity,Positive*%
%FSLAX46Y46*%
G04 Gerber Fmt 4.6, Leading zero omitted, Abs format (unit mm)*
G04 Created by KiCad (PCBNEW 9.0.6-9.0.6~ubuntu24.04.1) date 2025-11-26 01:33:41*
%MOMM*%
%LPD*%
G01*
G04 APERTURE LIST*
%TA.AperFunction,ComponentPad*%
%ADD10O,2.200000X0.900000*%
%TD*%
%TA.AperFunction,ComponentPad*%
%ADD11O,1.900000X0.900000*%
%TD*%
%TA.AperFunction,ComponentPad*%
%ADD12O,0.900000X1.500000*%
%TD*%
%TA.AperFunction,ComponentPad*%
%ADD13R,1.000000X1.000000*%
%TD*%
%TA.AperFunction,ComponentPad*%
%ADD14C,1.000000*%
%TD*%
%TA.AperFunction,ComponentPad*%
%ADD15R,1.700000X1.700000*%
%TD*%
%TA.AperFunction,ComponentPad*%
%ADD16C,1.700000*%
%TD*%
%TA.AperFunction,ViaPad*%
%ADD17C,0.500000*%
%TD*%
G04 APERTURE END LIST*
D10*
%TO.N,GND*%
%TO.C,J1*%
X2700000Y3180000D03*
D11*
X7250000Y3180000D03*
D12*
X6750000Y3480000D03*
X6750000Y11520000D03*
D10*
X2700000Y11820000D03*
D11*
X7250000Y11820000D03*
%TD*%
D13*
%TO.N,+3V3*%
%TO.C,J3*%
X32840000Y1800000D03*
D14*
%TO.N,Net-(J3-Pin_2)*%
X31570000Y1800000D03*
%TO.N,Net-(J3-Pin_3)*%
X30300000Y1800000D03*
%TO.N,GND*%
X29030000Y1800000D03*
%TD*%
D15*
%TO.N,+3V3*%
%TO.C,J2*%
X40460000Y12620000D03*
D16*
%TO.N,+5V*%
X43000000Y12620000D03*
%TO.N,GND*%
X40460000Y10080000D03*
X43000000Y10080000D03*
%TO.N,Net-(J2-Pin_5)*%
X40460000Y7540000D03*
%TO.N,Net-(J2-Pin_6)*%
X43000000Y7540000D03*
%TO.N,Net-(J2-Pin_7)*%
X40460000Y5000000D03*
%TO.N,Net-(J2-Pin_8)*%
X43000000Y5000000D03*
%TO.N,/T_Tx*%
X40460000Y2460000D03*
%TO.N,/T_Rx*%
X43000000Y2460000D03*
%TD*%
D17*
%TO.N,GND*%
X17900000Y3900000D03*
X17300000Y3900000D03*
X16700000Y3900000D03*
X16100000Y3890000D03*
X26350000Y12620000D03*
X25710000Y4640000D03*
X9870000Y11900000D03*
X36580000Y3780000D03*
X12630000Y9270000D03*
X28950000Y9430000D03*
%TO.N,/STM_JTCK*%
X37020000Y2060000D03*
%TO.N,/STM_JTMS*%
X36840000Y2910000D03*
X32790000Y5587500D03*
%TO.N,/STM_JTCK*%
X32150000Y6020000D03*
%TO.N,/T_JTMS*%
X36610000Y7810000D03*
X34050000Y7300000D03*
%TO.N,/T_JTCK*%
X33560000Y9010000D03*
X36570000Y9200000D03*
%TO.N,/T_NRST*%
X36400000Y4800000D03*
X30800000Y5600000D03*
%TO.N,/T_JTCK*%
X34220000Y6420000D03*
X29300000Y5680000D03*
%TO.N,/T_Tx*%
X27410000Y3820000D03*
%TO.N,/T_Rx*%
X28300000Y3300000D03*
%TO.N,GND*%
X20670000Y5350000D03*
%TO.N,/RENUM*%
X14950000Y4550000D03*
X30430000Y8012500D03*
%TO.N,Net-(J3-Pin_2)*%
X34410000Y2450000D03*
%TO.N,Net-(J3-Pin_3)*%
X34430000Y1050000D03*
%TO.N,Net-(U2-PB2)*%
X31800000Y2680000D03*
X26510000Y2200000D03*
%TO.N,Net-(U2-PA0)*%
X24086993Y6152111D03*
X28597099Y6742901D03*
%TO.N,/NRST*%
X27980000Y8410000D03*
X20120000Y7960000D03*
%TO.N,/LED_STLINK*%
X34230000Y8412500D03*
X19720000Y6220000D03*
%TO.N,/DM-*%
X34220000Y9412500D03*
%TO.N,/DP+*%
X33904073Y9922591D03*
%TO.N,/DM-*%
X12440000Y7300000D03*
%TO.N,/DP+*%
X12440000Y8400000D03*
%TO.N,Net-(J1-CC1)*%
X5474315Y6870000D03*
X8980000Y8150000D03*
%TO.N,Net-(J1-D--PadA7)*%
X8810000Y7130000D03*
X5840000Y7870000D03*
%TO.N,+3V3*%
X21920000Y3480000D03*
X12140000Y1620000D03*
X35340000Y4890000D03*
X36530000Y12460000D03*
X16540000Y830000D03*
X23070000Y3450000D03*
X26450000Y3100000D03*
X27310000Y12620000D03*
%TO.N,GND*%
X46450000Y13500000D03*
X45150000Y13500000D03*
X46450000Y12390909D03*
X45150000Y12390909D03*
%TO.N,+3V3*%
X16800000Y7900000D03*
X16800000Y8950000D03*
X17800000Y10000000D03*
X16800000Y10000000D03*
X18800000Y8950000D03*
X18800000Y7900000D03*
X18800000Y10000000D03*
X17800000Y7900000D03*
X17800000Y8950000D03*
%TO.N,GND*%
X45150000Y4627273D03*
X45150000Y3518182D03*
X45150000Y5736364D03*
X45150000Y11281818D03*
X45150000Y6845455D03*
X45150000Y2409091D03*
X45150000Y7954545D03*
X45150000Y9063636D03*
X45150000Y10172727D03*
X45150000Y1300000D03*
X46450000Y2409091D03*
X46450000Y1300000D03*
X46450000Y6845455D03*
X46450000Y3518182D03*
X46450000Y4627273D03*
X46450000Y5736364D03*
X46450000Y9063636D03*
X46450000Y7954545D03*
X46450000Y10172727D03*
X46450000Y11281818D03*
%TO.N,+5V*%
X14900000Y8020000D03*
X14900000Y8670000D03*
X14900000Y9320000D03*
X14900000Y10000000D03*
%TD*%
%TA.AperFunction,Conductor*%
%TO.N,GND*%
G36*
X46506922Y14598721D02*
G01*
X46619518Y14586034D01*
X46646583Y14579857D01*
X46746927Y14544745D01*
X46771941Y14532699D01*
X46861955Y14476140D01*
X46883662Y14458828D01*
X46958827Y14383663D01*
X46976140Y14361954D01*
X47032697Y14271944D01*
X47044745Y14246926D01*
X47079855Y14146586D01*
X47086033Y14119516D01*
X47098720Y14006923D01*
X47099500Y13993039D01*
X47099500Y1006962D01*
X47098720Y993078D01*
X47086033Y880485D01*
X47079855Y853415D01*
X47044745Y753075D01*
X47032697Y728057D01*
X46976140Y638047D01*
X46958827Y616338D01*
X46883662Y541173D01*
X46861953Y523860D01*
X46771943Y467303D01*
X46746925Y455255D01*
X46646585Y420145D01*
X46619516Y413967D01*
X46534855Y404428D01*
X46506921Y401280D01*
X46493039Y400500D01*
X16969260Y400500D01*
X16902221Y420185D01*
X16856466Y472989D01*
X16846522Y542147D01*
X16861873Y586500D01*
X16884804Y626218D01*
X16913207Y675413D01*
X16940500Y777273D01*
X16940500Y882727D01*
X16925843Y937428D01*
X28520979Y937428D01*
X28556328Y913808D01*
X28738306Y838431D01*
X28738318Y838428D01*
X28931504Y800001D01*
X28931508Y800000D01*
X29128492Y800000D01*
X29128495Y800001D01*
X29321681Y838428D01*
X29321693Y838431D01*
X29503676Y913810D01*
X29503680Y913813D01*
X29539019Y937427D01*
X29539020Y937428D01*
X29373721Y1102727D01*
X34029500Y1102727D01*
X34029500Y997273D01*
X34056793Y895413D01*
X34109520Y804087D01*
X34184087Y729520D01*
X34275413Y676793D01*
X34377273Y649500D01*
X34377275Y649500D01*
X34482725Y649500D01*
X34482727Y649500D01*
X34584587Y676793D01*
X34675913Y729520D01*
X34750480Y804087D01*
X34803207Y895413D01*
X34830500Y997273D01*
X34830500Y1102727D01*
X34803207Y1204587D01*
X34750480Y1295913D01*
X34675913Y1370480D01*
X34584587Y1423207D01*
X34482727Y1450500D01*
X34377273Y1450500D01*
X34275413Y1423207D01*
X34275410Y1423206D01*
X34184085Y1370479D01*
X34109521Y1295915D01*
X34056794Y1204590D01*
X34056793Y1204587D01*
X34029500Y1102727D01*
X29373721Y1102727D01*
X29030001Y1446447D01*
X29030000Y1446447D01*
X28520979Y937428D01*
X16925843Y937428D01*
X16913207Y984587D01*
X16860480Y1075913D01*
X16785913Y1150480D01*
X16694587Y1203207D01*
X16592727Y1230500D01*
X16487273Y1230500D01*
X16385413Y1203207D01*
X16385410Y1203206D01*
X16294085Y1150479D01*
X16219521Y1075915D01*
X16166794Y984590D01*
X16166793Y984587D01*
X16139500Y882727D01*
X16139500Y777273D01*
X16166424Y676793D01*
X16166793Y675414D01*
X16166794Y675411D01*
X16218127Y586500D01*
X16234600Y518600D01*
X16211747Y452573D01*
X16156826Y409382D01*
X16110740Y400500D01*
X8758126Y400500D01*
X8741942Y401561D01*
X8716601Y404898D01*
X8675725Y410279D01*
X8644460Y418657D01*
X8590333Y441077D01*
X8562300Y457261D01*
X8549213Y467303D01*
X8515815Y492930D01*
X8492929Y515816D01*
X8457259Y562302D01*
X8441076Y590334D01*
X8430305Y616338D01*
X8418655Y644462D01*
X8410278Y675728D01*
X8401561Y741941D01*
X8400500Y758126D01*
X8400500Y850654D01*
X8400499Y850659D01*
X8400013Y853415D01*
X8365543Y1048909D01*
X8296690Y1238080D01*
X8196035Y1412421D01*
X8186984Y1423207D01*
X8124266Y1497951D01*
X8066634Y1566634D01*
X7957737Y1658010D01*
X7940198Y1672727D01*
X11739500Y1672727D01*
X11739500Y1567273D01*
X11766793Y1465413D01*
X11819520Y1374087D01*
X11894087Y1299520D01*
X11985413Y1246793D01*
X12087273Y1219500D01*
X12087275Y1219500D01*
X12192725Y1219500D01*
X12192727Y1219500D01*
X12294587Y1246793D01*
X12385913Y1299520D01*
X12460480Y1374087D01*
X12513207Y1465413D01*
X12540500Y1567273D01*
X12540500Y1672727D01*
X12513207Y1774587D01*
X12460480Y1865913D01*
X12385913Y1940480D01*
X12294587Y1993207D01*
X12192727Y2020500D01*
X12087273Y2020500D01*
X11985413Y1993207D01*
X11985410Y1993206D01*
X11894085Y1940479D01*
X11819521Y1865915D01*
X11766794Y1774590D01*
X11766793Y1774587D01*
X11739500Y1672727D01*
X7940198Y1672727D01*
X7912425Y1696032D01*
X7912421Y1696035D01*
X7738084Y1796688D01*
X7738081Y1796689D01*
X7738080Y1796690D01*
X7690285Y1814086D01*
X7548908Y1865544D01*
X7350658Y1900500D01*
X7350656Y1900500D01*
X7302727Y1900500D01*
X1006961Y1900500D01*
X993077Y1901280D01*
X880484Y1913967D01*
X853414Y1920145D01*
X753074Y1955255D01*
X728056Y1967303D01*
X638046Y2023860D01*
X616337Y2041173D01*
X541172Y2116338D01*
X523859Y2138047D01*
X518061Y2147274D01*
X467301Y2228059D01*
X455254Y2253075D01*
X450553Y2266509D01*
X420143Y2353417D01*
X413966Y2380486D01*
X412074Y2397274D01*
X404592Y2463683D01*
X401280Y2493079D01*
X400500Y2506962D01*
X400500Y3430001D01*
X1131115Y3430001D01*
X1131116Y3430000D01*
X1883012Y3430000D01*
X1865795Y3420060D01*
X1809940Y3364205D01*
X1770444Y3295796D01*
X1750000Y3219496D01*
X1750000Y3140504D01*
X1770444Y3064204D01*
X1809940Y2995795D01*
X1865795Y2939940D01*
X1883012Y2930000D01*
X1131116Y2930000D01*
X1136506Y2902900D01*
X1136507Y2902897D01*
X1208119Y2730009D01*
X1208124Y2730000D01*
X1312086Y2574411D01*
X1312089Y2574407D01*
X1444406Y2442090D01*
X1444410Y2442087D01*
X1599999Y2338125D01*
X1600008Y2338120D01*
X1772894Y2266509D01*
X1772902Y2266507D01*
X1956428Y2230001D01*
X1956431Y2230000D01*
X2450000Y2230000D01*
X2450000Y2880000D01*
X2950000Y2880000D01*
X2950000Y2230000D01*
X3443569Y2230000D01*
X3443571Y2230001D01*
X3627097Y2266507D01*
X3627105Y2266509D01*
X3799991Y2338120D01*
X3800000Y2338125D01*
X3955589Y2442087D01*
X3955593Y2442090D01*
X4087910Y2574407D01*
X4087913Y2574411D01*
X4191875Y2730000D01*
X4191880Y2730009D01*
X4263492Y2902897D01*
X4263493Y2902900D01*
X4268884Y2930000D01*
X5831116Y2930000D01*
X5836506Y2902900D01*
X5836507Y2902897D01*
X5908119Y2730009D01*
X5908124Y2730000D01*
X6012086Y2574411D01*
X6012089Y2574407D01*
X6144406Y2442090D01*
X6144410Y2442087D01*
X6299999Y2338125D01*
X6300012Y2338118D01*
X6472889Y2266511D01*
X6472896Y2266509D01*
X6500000Y2261118D01*
X6500000Y2930000D01*
X5831116Y2930000D01*
X4268884Y2930000D01*
X3516988Y2930000D01*
X3534205Y2939940D01*
X3590060Y2995795D01*
X3629556Y3064204D01*
X3650000Y3140504D01*
X3650000Y3219496D01*
X3629556Y3295796D01*
X3590060Y3364205D01*
X3534205Y3420060D01*
X3516988Y3430000D01*
X4268884Y3430000D01*
X4268884Y3430001D01*
X4263493Y3457101D01*
X4263492Y3457104D01*
X4191880Y3629992D01*
X4191875Y3630001D01*
X4087913Y3785590D01*
X4087910Y3785594D01*
X3955593Y3917911D01*
X3955589Y3917914D01*
X3800000Y4021876D01*
X3799987Y4021883D01*
X3756947Y4039710D01*
X3756946Y4039710D01*
X3627105Y4093492D01*
X3627097Y4093494D01*
X3443570Y4130000D01*
X2950000Y4130000D01*
X2950000Y3480000D01*
X2450000Y3480000D01*
X2450000Y4130000D01*
X1956430Y4130000D01*
X1772902Y4093494D01*
X1772894Y4093492D01*
X1600008Y4021881D01*
X1599999Y4021876D01*
X1444410Y3917914D01*
X1444406Y3917911D01*
X1312089Y3785594D01*
X1312086Y3785590D01*
X1208124Y3630001D01*
X1208119Y3629992D01*
X1136507Y3457104D01*
X1136506Y3457101D01*
X1131115Y3430001D01*
X400500Y3430001D01*
X400500Y4146144D01*
X5549500Y4146144D01*
X5549500Y4053856D01*
X5570739Y3974590D01*
X5573387Y3964710D01*
X5573388Y3964707D01*
X5619526Y3884795D01*
X5619529Y3884791D01*
X5619531Y3884788D01*
X5684788Y3819531D01*
X5738001Y3788808D01*
X5761512Y3764151D01*
X5763681Y3766319D01*
X5800000Y3730000D01*
X6450000Y3730000D01*
X6450000Y3140504D01*
X6470444Y3064204D01*
X6509940Y2995795D01*
X6565795Y2939940D01*
X6634204Y2900444D01*
X6710504Y2880000D01*
X6789496Y2880000D01*
X7500000Y2880000D01*
X7500000Y2230000D01*
X7843569Y2230000D01*
X7843571Y2230001D01*
X8027097Y2266507D01*
X8027105Y2266509D01*
X8199991Y2338120D01*
X8200000Y2338125D01*
X8355589Y2442087D01*
X8355593Y2442090D01*
X8487910Y2574407D01*
X8487913Y2574411D01*
X8591875Y2730000D01*
X8591880Y2730009D01*
X8663492Y2902897D01*
X8663493Y2902900D01*
X8668884Y2930000D01*
X7916988Y2930000D01*
X7934205Y2939940D01*
X7990060Y2995795D01*
X8029556Y3064204D01*
X8050000Y3140504D01*
X8050000Y3219496D01*
X8029556Y3295796D01*
X7990060Y3364205D01*
X7934205Y3420060D01*
X7916988Y3430000D01*
X8668884Y3430000D01*
X8668884Y3430001D01*
X8663493Y3457100D01*
X8648457Y3493402D01*
X8648456Y3493404D01*
X8632168Y3532727D01*
X21519500Y3532727D01*
X21519500Y3427273D01*
X21546793Y3325413D01*
X21599520Y3234087D01*
X21674087Y3159520D01*
X21765413Y3106793D01*
X21867273Y3079500D01*
X21867275Y3079500D01*
X21972725Y3079500D01*
X21972727Y3079500D01*
X22074587Y3106793D01*
X22165913Y3159520D01*
X22240480Y3234087D01*
X22293207Y3325413D01*
X22320500Y3427273D01*
X22320500Y3502727D01*
X22669500Y3502727D01*
X22669500Y3397273D01*
X22696793Y3295413D01*
X22749520Y3204087D01*
X22824087Y3129520D01*
X22915413Y3076793D01*
X23017273Y3049500D01*
X23017275Y3049500D01*
X23122725Y3049500D01*
X23122727Y3049500D01*
X23224587Y3076793D01*
X23315913Y3129520D01*
X23339120Y3152727D01*
X26049500Y3152727D01*
X26049500Y3047273D01*
X26076793Y2945413D01*
X26129520Y2854087D01*
X26204087Y2779520D01*
X26272424Y2740066D01*
X26320638Y2689500D01*
X26333862Y2620893D01*
X26307894Y2556028D01*
X26272427Y2525295D01*
X26264085Y2520479D01*
X26189521Y2445915D01*
X26136794Y2354590D01*
X26136793Y2354587D01*
X26109500Y2252727D01*
X26109500Y2147273D01*
X26136793Y2045413D01*
X26189520Y1954087D01*
X26264087Y1879520D01*
X26355413Y1826793D01*
X26457273Y1799500D01*
X26457275Y1799500D01*
X26562725Y1799500D01*
X26562727Y1799500D01*
X26664587Y1826793D01*
X26755913Y1879520D01*
X26774889Y1898496D01*
X28030000Y1898496D01*
X28030000Y1701505D01*
X28068427Y1508319D01*
X28068430Y1508307D01*
X28143808Y1326327D01*
X28143809Y1326325D01*
X28167425Y1290981D01*
X28676446Y1800000D01*
X28676446Y1800001D01*
X28633660Y1842787D01*
X28705000Y1842787D01*
X28705000Y1757213D01*
X28727149Y1674555D01*
X28769936Y1600446D01*
X28830446Y1539936D01*
X28904555Y1497149D01*
X28987213Y1475000D01*
X29072787Y1475000D01*
X29155445Y1497149D01*
X29229554Y1539936D01*
X29290064Y1600446D01*
X29332851Y1674555D01*
X29355000Y1757213D01*
X29355000Y1800001D01*
X29383553Y1800001D01*
X29383553Y1800000D01*
X29779044Y1404509D01*
X29794464Y1385720D01*
X29794720Y1385336D01*
X29794721Y1385335D01*
X29794724Y1385331D01*
X29846623Y1333432D01*
X29885332Y1294723D01*
X29991866Y1223539D01*
X29991872Y1223536D01*
X29991873Y1223535D01*
X30110256Y1174499D01*
X30110260Y1174499D01*
X30110261Y1174498D01*
X30235928Y1149500D01*
X30235931Y1149500D01*
X30364071Y1149500D01*
X30448615Y1166318D01*
X30489744Y1174499D01*
X30608127Y1223535D01*
X30714669Y1294724D01*
X30805276Y1385331D01*
X30831898Y1425175D01*
X30885509Y1469978D01*
X30954834Y1478686D01*
X31017862Y1448532D01*
X31038100Y1425176D01*
X31046623Y1412421D01*
X31064725Y1385329D01*
X31155327Y1294727D01*
X31155331Y1294724D01*
X31261866Y1223539D01*
X31261872Y1223536D01*
X31261873Y1223535D01*
X31380256Y1174499D01*
X31380260Y1174499D01*
X31380261Y1174498D01*
X31505928Y1149500D01*
X31505931Y1149500D01*
X31634071Y1149500D01*
X31718615Y1166318D01*
X31759744Y1174499D01*
X31878127Y1223535D01*
X31984669Y1294724D01*
X31989890Y1299946D01*
X32051210Y1333432D01*
X32120901Y1328451D01*
X32176837Y1286583D01*
X32192249Y1252023D01*
X32193558Y1252564D01*
X32198234Y1241276D01*
X32224407Y1202105D01*
X32231496Y1191496D01*
X32281278Y1158233D01*
X32281281Y1158233D01*
X32281282Y1158232D01*
X32325177Y1149500D01*
X32325180Y1149500D01*
X33354822Y1149500D01*
X33398717Y1158232D01*
X33398717Y1158233D01*
X33398722Y1158233D01*
X33448504Y1191496D01*
X33481767Y1241278D01*
X33482864Y1246795D01*
X33490500Y1285178D01*
X33490500Y2314823D01*
X33481768Y2358718D01*
X33481767Y2358719D01*
X33481767Y2358722D01*
X33448504Y2408504D01*
X33448502Y2408506D01*
X33398724Y2441766D01*
X33398717Y2441769D01*
X33354822Y2450500D01*
X33354820Y2450500D01*
X32325180Y2450500D01*
X32319088Y2450500D01*
X32319088Y2452111D01*
X32258110Y2463683D01*
X32216927Y2502727D01*
X34009500Y2502727D01*
X34009500Y2397273D01*
X34036793Y2295413D01*
X34089520Y2204087D01*
X34164087Y2129520D01*
X34255413Y2076793D01*
X34357273Y2049500D01*
X34357275Y2049500D01*
X34462725Y2049500D01*
X34462727Y2049500D01*
X34564587Y2076793D01*
X34655913Y2129520D01*
X34730480Y2204087D01*
X34783207Y2295413D01*
X34810500Y2397273D01*
X34810500Y2502727D01*
X34783207Y2604587D01*
X34730480Y2695913D01*
X34655913Y2770480D01*
X34564587Y2823207D01*
X34462727Y2850500D01*
X34357273Y2850500D01*
X34255413Y2823207D01*
X34255410Y2823206D01*
X34164085Y2770479D01*
X34089521Y2695915D01*
X34036794Y2604590D01*
X34036793Y2604587D01*
X34009500Y2502727D01*
X32216927Y2502727D01*
X32207405Y2511754D01*
X32190739Y2579607D01*
X32194839Y2606150D01*
X32200500Y2627273D01*
X32200500Y2732727D01*
X32173207Y2834587D01*
X32120480Y2925913D01*
X32083666Y2962727D01*
X36439500Y2962727D01*
X36439500Y2857273D01*
X36465144Y2761570D01*
X36466793Y2755414D01*
X36466794Y2755411D01*
X36473398Y2743973D01*
X36519520Y2664087D01*
X36594087Y2589520D01*
X36685413Y2536793D01*
X36685415Y2536793D01*
X36687194Y2536055D01*
X36688464Y2535032D01*
X36692452Y2532729D01*
X36692092Y2532108D01*
X36741596Y2492213D01*
X36763660Y2425919D01*
X36746380Y2358220D01*
X36727422Y2333815D01*
X36699520Y2305913D01*
X36646794Y2214590D01*
X36646793Y2214587D01*
X36619500Y2112727D01*
X36619500Y2007273D01*
X36633752Y1954086D01*
X36646793Y1905414D01*
X36646794Y1905411D01*
X36660922Y1880941D01*
X36699520Y1814087D01*
X36774087Y1739520D01*
X36865413Y1686793D01*
X36967273Y1659500D01*
X36967275Y1659500D01*
X37072725Y1659500D01*
X37072727Y1659500D01*
X37174587Y1686793D01*
X37265913Y1739520D01*
X37340480Y1814087D01*
X37393207Y1905413D01*
X37420500Y2007273D01*
X37420500Y2112727D01*
X37393207Y2214587D01*
X37340480Y2305913D01*
X37284936Y2361457D01*
X39459499Y2361457D01*
X39497947Y2168171D01*
X39497950Y2168161D01*
X39573364Y1986093D01*
X39573371Y1986080D01*
X39682860Y1822219D01*
X39682863Y1822215D01*
X39822214Y1682864D01*
X39822218Y1682861D01*
X39986079Y1573372D01*
X39986092Y1573365D01*
X40143129Y1508319D01*
X40168165Y1497949D01*
X40168169Y1497949D01*
X40168170Y1497948D01*
X40361456Y1459500D01*
X40361459Y1459500D01*
X40558543Y1459500D01*
X40721289Y1491873D01*
X40751835Y1497949D01*
X40933914Y1573368D01*
X41097782Y1682861D01*
X41237139Y1822218D01*
X41346632Y1986086D01*
X41422051Y2168165D01*
X41441613Y2266509D01*
X41460500Y2361457D01*
X41999499Y2361457D01*
X42037947Y2168171D01*
X42037950Y2168161D01*
X42113364Y1986093D01*
X42113371Y1986080D01*
X42222860Y1822219D01*
X42222863Y1822215D01*
X42362214Y1682864D01*
X42362218Y1682861D01*
X42526079Y1573372D01*
X42526092Y1573365D01*
X42683129Y1508319D01*
X42708165Y1497949D01*
X42708169Y1497949D01*
X42708170Y1497948D01*
X42901456Y1459500D01*
X42901459Y1459500D01*
X43098543Y1459500D01*
X43261289Y1491873D01*
X43291835Y1497949D01*
X43473914Y1573368D01*
X43637782Y1682861D01*
X43777139Y1822218D01*
X43886632Y1986086D01*
X43962051Y2168165D01*
X43981613Y2266509D01*
X44000500Y2361457D01*
X44000500Y2558544D01*
X43962052Y2751830D01*
X43962051Y2751831D01*
X43962051Y2751835D01*
X43958018Y2761571D01*
X43886635Y2933908D01*
X43886628Y2933921D01*
X43777139Y3097782D01*
X43777136Y3097786D01*
X43637785Y3237137D01*
X43637781Y3237140D01*
X43473920Y3346629D01*
X43473907Y3346636D01*
X43291839Y3422050D01*
X43291829Y3422053D01*
X43098543Y3460500D01*
X43098541Y3460500D01*
X42901459Y3460500D01*
X42901457Y3460500D01*
X42708170Y3422053D01*
X42708160Y3422050D01*
X42526092Y3346636D01*
X42526079Y3346629D01*
X42362218Y3237140D01*
X42362214Y3237137D01*
X42222863Y3097786D01*
X42222860Y3097782D01*
X42113371Y2933921D01*
X42113364Y2933908D01*
X42037950Y2751840D01*
X42037947Y2751830D01*
X41999500Y2558544D01*
X41999500Y2558541D01*
X41999500Y2361459D01*
X41999500Y2361457D01*
X41999499Y2361457D01*
X41460500Y2361457D01*
X41460500Y2558544D01*
X41422052Y2751830D01*
X41422051Y2751831D01*
X41422051Y2751835D01*
X41418018Y2761571D01*
X41346635Y2933908D01*
X41346628Y2933921D01*
X41237139Y3097782D01*
X41237136Y3097786D01*
X41097785Y3237137D01*
X41097781Y3237140D01*
X40933920Y3346629D01*
X40933907Y3346636D01*
X40751839Y3422050D01*
X40751829Y3422053D01*
X40558543Y3460500D01*
X40558541Y3460500D01*
X40361459Y3460500D01*
X40361457Y3460500D01*
X40168170Y3422053D01*
X40168160Y3422050D01*
X39986092Y3346636D01*
X39986079Y3346629D01*
X39822218Y3237140D01*
X39822214Y3237137D01*
X39682863Y3097786D01*
X39682860Y3097782D01*
X39573371Y2933921D01*
X39573364Y2933908D01*
X39497950Y2751840D01*
X39497947Y2751830D01*
X39459500Y2558544D01*
X39459500Y2558541D01*
X39459500Y2361459D01*
X39459500Y2361457D01*
X39459499Y2361457D01*
X37284936Y2361457D01*
X37265913Y2380480D01*
X37174587Y2433207D01*
X37174586Y2433208D01*
X37174585Y2433208D01*
X37172799Y2433948D01*
X37171524Y2434975D01*
X37167548Y2437271D01*
X37167906Y2437892D01*
X37147251Y2454539D01*
X37120993Y2474196D01*
X37120189Y2476350D01*
X37118399Y2477793D01*
X37108041Y2508921D01*
X37096576Y2539660D01*
X37097064Y2541908D01*
X37096339Y2544089D01*
X37104453Y2575872D01*
X37111428Y2607933D01*
X37113265Y2610389D01*
X37113623Y2611787D01*
X37132575Y2636183D01*
X37160480Y2664087D01*
X37213207Y2755413D01*
X37240500Y2857273D01*
X37240500Y2962727D01*
X37213207Y3064587D01*
X37160480Y3155913D01*
X37085913Y3230480D01*
X36994587Y3283207D01*
X36892727Y3310500D01*
X36787273Y3310500D01*
X36685413Y3283207D01*
X36685410Y3283206D01*
X36594085Y3230479D01*
X36519521Y3155915D01*
X36466794Y3064590D01*
X36466793Y3064587D01*
X36439500Y2962727D01*
X32083666Y2962727D01*
X32045913Y3000480D01*
X31954587Y3053207D01*
X31852727Y3080500D01*
X31747273Y3080500D01*
X31645413Y3053207D01*
X31645410Y3053206D01*
X31554085Y3000479D01*
X31479521Y2925915D01*
X31426794Y2834590D01*
X31426793Y2834587D01*
X31399500Y2732727D01*
X31399500Y2627273D01*
X31418095Y2557872D01*
X31416433Y2488024D01*
X31377270Y2430161D01*
X31345775Y2411219D01*
X31261872Y2376465D01*
X31261866Y2376462D01*
X31155331Y2305277D01*
X31155327Y2305274D01*
X31064726Y2214673D01*
X31064723Y2214669D01*
X31038102Y2174827D01*
X30984490Y2130022D01*
X30915165Y2121315D01*
X30852137Y2151470D01*
X30831898Y2174827D01*
X30805276Y2214669D01*
X30805273Y2214673D01*
X30714672Y2305274D01*
X30714668Y2305277D01*
X30608133Y2376462D01*
X30608124Y2376467D01*
X30489744Y2425501D01*
X30489738Y2425503D01*
X30364071Y2450500D01*
X30364069Y2450500D01*
X30235931Y2450500D01*
X30235929Y2450500D01*
X30110261Y2425503D01*
X30110255Y2425501D01*
X29991875Y2376467D01*
X29991866Y2376462D01*
X29885332Y2305278D01*
X29794723Y2214669D01*
X29794718Y2214662D01*
X29794457Y2214270D01*
X29779045Y2195494D01*
X29383553Y1800001D01*
X29355000Y1800001D01*
X29355000Y1842787D01*
X29332851Y1925445D01*
X29290064Y1999554D01*
X29229554Y2060064D01*
X29155445Y2102851D01*
X29072787Y2125000D01*
X28987213Y2125000D01*
X28904555Y2102851D01*
X28830446Y2060064D01*
X28769936Y1999554D01*
X28727149Y1925445D01*
X28705000Y1842787D01*
X28633660Y1842787D01*
X28167426Y2309022D01*
X28167426Y2309021D01*
X28143813Y2273682D01*
X28143809Y2273675D01*
X28068429Y2091690D01*
X28068427Y2091682D01*
X28030000Y1898496D01*
X26774889Y1898496D01*
X26830480Y1954087D01*
X26883207Y2045413D01*
X26910500Y2147273D01*
X26910500Y2252727D01*
X26883207Y2354587D01*
X26830480Y2445913D01*
X26755913Y2520480D01*
X26686670Y2560457D01*
X26685856Y2560945D01*
X26662802Y2585916D01*
X26639360Y2610501D01*
X26639163Y2611520D01*
X26638461Y2612281D01*
X26632568Y2645742D01*
X26629324Y2662574D01*
X28520978Y2662574D01*
X29030000Y2153554D01*
X29030001Y2153554D01*
X29539020Y2662574D01*
X29503675Y2686191D01*
X29503673Y2686192D01*
X29321693Y2761570D01*
X29321681Y2761573D01*
X29128495Y2800000D01*
X28931504Y2800000D01*
X28738318Y2761573D01*
X28738310Y2761571D01*
X28556325Y2686191D01*
X28556318Y2686187D01*
X28520979Y2662574D01*
X28520978Y2662574D01*
X26629324Y2662574D01*
X26626138Y2679108D01*
X26626523Y2680070D01*
X26626343Y2681092D01*
X26639490Y2712460D01*
X26652106Y2743973D01*
X26653035Y2744779D01*
X26653351Y2745531D01*
X26656038Y2747381D01*
X26687576Y2774707D01*
X26695913Y2779520D01*
X26770480Y2854087D01*
X26823207Y2945413D01*
X26850500Y3047273D01*
X26850500Y3152727D01*
X26823207Y3254587D01*
X26770480Y3345913D01*
X26763664Y3352729D01*
X27899500Y3352729D01*
X27899500Y3352727D01*
X27899500Y3247273D01*
X27926793Y3145413D01*
X27979520Y3054087D01*
X28054087Y2979520D01*
X28145413Y2926793D01*
X28247273Y2899500D01*
X28247275Y2899500D01*
X28352725Y2899500D01*
X28352727Y2899500D01*
X28454587Y2926793D01*
X28545913Y2979520D01*
X28620480Y3054087D01*
X28673207Y3145413D01*
X28700500Y3247273D01*
X28700500Y3352727D01*
X28673207Y3454587D01*
X28620480Y3545913D01*
X28545913Y3620480D01*
X28454587Y3673207D01*
X28352727Y3700500D01*
X28247273Y3700500D01*
X28145413Y3673207D01*
X28145410Y3673206D01*
X28054087Y3620480D01*
X28006075Y3572469D01*
X28006073Y3572467D01*
X27979520Y3545913D01*
X27926793Y3454587D01*
X27918276Y3422803D01*
X27918275Y3422800D01*
X27899500Y3352729D01*
X26763664Y3352729D01*
X26695913Y3420480D01*
X26604587Y3473207D01*
X26502727Y3500500D01*
X26397273Y3500500D01*
X26295413Y3473207D01*
X26295410Y3473206D01*
X26204085Y3420479D01*
X26129521Y3345915D01*
X26076794Y3254590D01*
X26076793Y3254587D01*
X26049500Y3152727D01*
X23339120Y3152727D01*
X23390480Y3204087D01*
X23405718Y3230479D01*
X23415414Y3247274D01*
X23443207Y3295413D01*
X23470500Y3397273D01*
X23470500Y3502727D01*
X23443207Y3604587D01*
X23390480Y3695913D01*
X23315913Y3770480D01*
X23224587Y3823207D01*
X23122727Y3850500D01*
X23017273Y3850500D01*
X22915413Y3823207D01*
X22915410Y3823206D01*
X22824085Y3770479D01*
X22749521Y3695915D01*
X22696794Y3604590D01*
X22696793Y3604587D01*
X22669500Y3502727D01*
X22320500Y3502727D01*
X22320500Y3532727D01*
X22293207Y3634587D01*
X22240480Y3725913D01*
X22165913Y3800480D01*
X22074587Y3853207D01*
X22001737Y3872727D01*
X27009500Y3872727D01*
X27009500Y3767273D01*
X27036793Y3665413D01*
X27089520Y3574087D01*
X27164087Y3499520D01*
X27255413Y3446793D01*
X27357273Y3419500D01*
X27357275Y3419500D01*
X27462725Y3419500D01*
X27462727Y3419500D01*
X27564587Y3446793D01*
X27655913Y3499520D01*
X27730480Y3574087D01*
X27783207Y3665413D01*
X27810500Y3767273D01*
X27810500Y3872727D01*
X27783207Y3974587D01*
X27730480Y4065913D01*
X27655913Y4140480D01*
X27564587Y4193207D01*
X27462727Y4220500D01*
X27357273Y4220500D01*
X27255413Y4193207D01*
X27255410Y4193206D01*
X27164085Y4140479D01*
X27089521Y4065915D01*
X27036794Y3974590D01*
X27036793Y3974587D01*
X27009500Y3872727D01*
X22001737Y3872727D01*
X21972727Y3880500D01*
X21867273Y3880500D01*
X21765413Y3853207D01*
X21765410Y3853206D01*
X21674085Y3800479D01*
X21599521Y3725915D01*
X21546794Y3634590D01*
X21546793Y3634587D01*
X21519500Y3532727D01*
X8632168Y3532727D01*
X8591880Y3629991D01*
X8591875Y3630001D01*
X8487913Y3785590D01*
X8487910Y3785594D01*
X8355593Y3917911D01*
X8355589Y3917914D01*
X8200000Y4021876D01*
X8199991Y4021881D01*
X8027105Y4093492D01*
X8027097Y4093494D01*
X7843570Y4130000D01*
X7716152Y4130000D01*
X7649113Y4149685D01*
X7603358Y4202489D01*
X7601591Y4206548D01*
X7591882Y4229988D01*
X7591875Y4230001D01*
X7487913Y4385590D01*
X7487910Y4385594D01*
X7355590Y4517914D01*
X7228658Y4602727D01*
X14549500Y4602727D01*
X14549500Y4497273D01*
X14576793Y4395413D01*
X14629520Y4304087D01*
X14704087Y4229520D01*
X14795413Y4176793D01*
X14897273Y4149500D01*
X14897275Y4149500D01*
X15002725Y4149500D01*
X15002727Y4149500D01*
X15104587Y4176793D01*
X15195913Y4229520D01*
X15270480Y4304087D01*
X15323207Y4395413D01*
X15350500Y4497273D01*
X15350500Y4602727D01*
X15323207Y4704587D01*
X15270480Y4795913D01*
X15195913Y4870480D01*
X15104587Y4923207D01*
X15031737Y4942727D01*
X34939500Y4942727D01*
X34939500Y4837273D01*
X34966793Y4735413D01*
X35019520Y4644087D01*
X35094087Y4569520D01*
X35185413Y4516793D01*
X35287273Y4489500D01*
X35287275Y4489500D01*
X35392725Y4489500D01*
X35392727Y4489500D01*
X35494587Y4516793D01*
X35585913Y4569520D01*
X35660480Y4644087D01*
X35713207Y4735413D01*
X35740500Y4837273D01*
X35740500Y4852727D01*
X35999500Y4852727D01*
X35999500Y4747273D01*
X36012466Y4698885D01*
X36026793Y4645414D01*
X36026794Y4645411D01*
X36027559Y4644086D01*
X36079520Y4554087D01*
X36154087Y4479520D01*
X36245413Y4426793D01*
X36347273Y4399500D01*
X36347275Y4399500D01*
X36452725Y4399500D01*
X36452727Y4399500D01*
X36554587Y4426793D01*
X36645913Y4479520D01*
X36720480Y4554087D01*
X36773207Y4645413D01*
X36800500Y4747273D01*
X36800500Y4852727D01*
X36787443Y4901457D01*
X39459499Y4901457D01*
X39497947Y4708171D01*
X39497950Y4708161D01*
X39573364Y4526093D01*
X39573371Y4526080D01*
X39682860Y4362219D01*
X39682863Y4362215D01*
X39822214Y4222864D01*
X39822218Y4222861D01*
X39986079Y4113372D01*
X39986092Y4113365D01*
X40168160Y4037951D01*
X40168165Y4037949D01*
X40168169Y4037949D01*
X40168170Y4037948D01*
X40361456Y3999500D01*
X40361459Y3999500D01*
X40558543Y3999500D01*
X40688582Y4025368D01*
X40751835Y4037949D01*
X40933914Y4113368D01*
X41097782Y4222861D01*
X41237139Y4362218D01*
X41346632Y4526086D01*
X41422051Y4708165D01*
X41439506Y4795915D01*
X41460500Y4901457D01*
X41999499Y4901457D01*
X42037947Y4708171D01*
X42037950Y4708161D01*
X42113364Y4526093D01*
X42113371Y4526080D01*
X42222860Y4362219D01*
X42222863Y4362215D01*
X42362214Y4222864D01*
X42362218Y4222861D01*
X42526079Y4113372D01*
X42526092Y4113365D01*
X42708160Y4037951D01*
X42708165Y4037949D01*
X42708169Y4037949D01*
X42708170Y4037948D01*
X42901456Y3999500D01*
X42901459Y3999500D01*
X43098543Y3999500D01*
X43228582Y4025368D01*
X43291835Y4037949D01*
X43473914Y4113368D01*
X43637782Y4222861D01*
X43777139Y4362218D01*
X43886632Y4526086D01*
X43962051Y4708165D01*
X43979506Y4795915D01*
X44000500Y4901457D01*
X44000500Y5098544D01*
X43962052Y5291830D01*
X43962051Y5291831D01*
X43962051Y5291835D01*
X43955855Y5306794D01*
X43886635Y5473908D01*
X43886628Y5473921D01*
X43777139Y5637782D01*
X43777136Y5637786D01*
X43637785Y5777137D01*
X43637781Y5777140D01*
X43473920Y5886629D01*
X43473907Y5886636D01*
X43291839Y5962050D01*
X43291829Y5962053D01*
X43098543Y6000500D01*
X43098541Y6000500D01*
X42901459Y6000500D01*
X42901457Y6000500D01*
X42708170Y5962053D01*
X42708160Y5962050D01*
X42526092Y5886636D01*
X42526079Y5886629D01*
X42362218Y5777140D01*
X42362214Y5777137D01*
X42222863Y5637786D01*
X42222860Y5637782D01*
X42113371Y5473921D01*
X42113364Y5473908D01*
X42037950Y5291840D01*
X42037947Y5291830D01*
X41999500Y5098544D01*
X41999500Y5098541D01*
X41999500Y4901459D01*
X41999500Y4901457D01*
X41999499Y4901457D01*
X41460500Y4901457D01*
X41460500Y5098544D01*
X41422052Y5291830D01*
X41422051Y5291831D01*
X41422051Y5291835D01*
X41415855Y5306794D01*
X41346635Y5473908D01*
X41346628Y5473921D01*
X41237139Y5637782D01*
X41237136Y5637786D01*
X41097785Y5777137D01*
X41097781Y5777140D01*
X40933920Y5886629D01*
X40933907Y5886636D01*
X40751839Y5962050D01*
X40751829Y5962053D01*
X40558543Y6000500D01*
X40558541Y6000500D01*
X40361459Y6000500D01*
X40361457Y6000500D01*
X40168170Y5962053D01*
X40168160Y5962050D01*
X39986092Y5886636D01*
X39986079Y5886629D01*
X39822218Y5777140D01*
X39822214Y5777137D01*
X39682863Y5637786D01*
X39682860Y5637782D01*
X39573371Y5473921D01*
X39573364Y5473908D01*
X39497950Y5291840D01*
X39497947Y5291830D01*
X39459500Y5098544D01*
X39459500Y5098541D01*
X39459500Y4901459D01*
X39459500Y4901457D01*
X39459499Y4901457D01*
X36787443Y4901457D01*
X36773207Y4954587D01*
X36720480Y5045913D01*
X36645913Y5120480D01*
X36554587Y5173207D01*
X36452727Y5200500D01*
X36347273Y5200500D01*
X36245413Y5173207D01*
X36245410Y5173206D01*
X36154085Y5120479D01*
X36079521Y5045915D01*
X36026794Y4954590D01*
X36026793Y4954587D01*
X35999500Y4852727D01*
X35740500Y4852727D01*
X35740500Y4942727D01*
X35713207Y5044587D01*
X35660480Y5135913D01*
X35585913Y5210480D01*
X35494587Y5263207D01*
X35392727Y5290500D01*
X35287273Y5290500D01*
X35185413Y5263207D01*
X35185410Y5263206D01*
X35094085Y5210479D01*
X35019521Y5135915D01*
X34966794Y5044590D01*
X34966793Y5044587D01*
X34939500Y4942727D01*
X15031737Y4942727D01*
X15002727Y4950500D01*
X14897273Y4950500D01*
X14795413Y4923207D01*
X14795410Y4923206D01*
X14704085Y4870479D01*
X14629521Y4795915D01*
X14576794Y4704590D01*
X14576793Y4704587D01*
X14549500Y4602727D01*
X7228658Y4602727D01*
X7200000Y4621876D01*
X7199991Y4621881D01*
X7027103Y4693493D01*
X7027100Y4693494D01*
X7000000Y4698885D01*
X7000000Y3946989D01*
X6990060Y3964205D01*
X6934205Y4020060D01*
X6865796Y4059556D01*
X6789496Y4080000D01*
X6710504Y4080000D01*
X6634204Y4059556D01*
X6565795Y4020060D01*
X6509940Y3964205D01*
X6500000Y3946989D01*
X6500000Y4698884D01*
X6499999Y4698885D01*
X6472899Y4693494D01*
X6472896Y4693493D01*
X6300008Y4621881D01*
X6299999Y4621876D01*
X6144413Y4517916D01*
X6144407Y4517912D01*
X6099964Y4473469D01*
X6038641Y4439985D01*
X5980193Y4441377D01*
X5946145Y4450500D01*
X5946144Y4450500D01*
X5853856Y4450500D01*
X5764712Y4426614D01*
X5764711Y4426614D01*
X5764709Y4426613D01*
X5764706Y4426612D01*
X5684794Y4380474D01*
X5684785Y4380467D01*
X5619533Y4315215D01*
X5619526Y4315206D01*
X5573388Y4235294D01*
X5573387Y4235291D01*
X5573386Y4235289D01*
X5573386Y4235288D01*
X5549500Y4146144D01*
X400500Y4146144D01*
X400500Y5732727D01*
X28899500Y5732727D01*
X28899500Y5627273D01*
X28926793Y5525413D01*
X28979520Y5434087D01*
X29054087Y5359520D01*
X29145413Y5306793D01*
X29247273Y5279500D01*
X29247275Y5279500D01*
X29352725Y5279500D01*
X29352727Y5279500D01*
X29454587Y5306793D01*
X29545913Y5359520D01*
X29620480Y5434087D01*
X29673207Y5525413D01*
X29700500Y5627273D01*
X29700500Y5652727D01*
X30399500Y5652727D01*
X30399500Y5547273D01*
X30426793Y5445413D01*
X30479520Y5354087D01*
X30554087Y5279520D01*
X30645413Y5226793D01*
X30747273Y5199500D01*
X30747275Y5199500D01*
X30852725Y5199500D01*
X30852727Y5199500D01*
X30954587Y5226793D01*
X31045913Y5279520D01*
X31120480Y5354087D01*
X31173207Y5445413D01*
X31200500Y5547273D01*
X31200500Y5652727D01*
X31173207Y5754587D01*
X31120480Y5845913D01*
X31045913Y5920480D01*
X30954587Y5973207D01*
X30852727Y6000500D01*
X30747273Y6000500D01*
X30645413Y5973207D01*
X30645410Y5973206D01*
X30554085Y5920479D01*
X30479521Y5845915D01*
X30426794Y5754590D01*
X30426793Y5754587D01*
X30399500Y5652727D01*
X29700500Y5652727D01*
X29700500Y5732727D01*
X29673207Y5834587D01*
X29620480Y5925913D01*
X29545913Y6000480D01*
X29479059Y6039078D01*
X29454589Y6053206D01*
X29454588Y6053207D01*
X29454587Y6053207D01*
X29381737Y6072727D01*
X31749500Y6072727D01*
X31749500Y5967273D01*
X31776793Y5865413D01*
X31829520Y5774087D01*
X31904087Y5699520D01*
X31995413Y5646793D01*
X32097273Y5619500D01*
X32097275Y5619500D01*
X32202725Y5619500D01*
X32202727Y5619500D01*
X32236032Y5628424D01*
X32305880Y5626763D01*
X32363743Y5587601D01*
X32387900Y5540744D01*
X32416793Y5432912D01*
X32416794Y5432911D01*
X32469520Y5341587D01*
X32544087Y5267020D01*
X32635413Y5214293D01*
X32737273Y5187000D01*
X32737275Y5187000D01*
X32842725Y5187000D01*
X32842727Y5187000D01*
X32944587Y5214293D01*
X33035913Y5267020D01*
X33110480Y5341587D01*
X33163207Y5432913D01*
X33190500Y5534773D01*
X33190500Y5640227D01*
X33163207Y5742087D01*
X33110480Y5833413D01*
X33035913Y5907980D01*
X32944587Y5960707D01*
X32842727Y5988000D01*
X32737273Y5988000D01*
X32737271Y5988000D01*
X32703966Y5979076D01*
X32634116Y5980740D01*
X32576254Y6019903D01*
X32552099Y6066758D01*
X32543357Y6099385D01*
X32523207Y6174587D01*
X32470480Y6265913D01*
X32395913Y6340480D01*
X32304587Y6393207D01*
X32202727Y6420500D01*
X32097273Y6420500D01*
X31995413Y6393207D01*
X31995410Y6393206D01*
X31904085Y6340479D01*
X31829521Y6265915D01*
X31776794Y6174590D01*
X31776793Y6174587D01*
X31749500Y6072727D01*
X29381737Y6072727D01*
X29352727Y6080500D01*
X29247273Y6080500D01*
X29145413Y6053207D01*
X29145410Y6053206D01*
X29054085Y6000479D01*
X28979521Y5925915D01*
X28926794Y5834590D01*
X28926793Y5834587D01*
X28899500Y5732727D01*
X400500Y5732727D01*
X400500Y6272727D01*
X19319500Y6272727D01*
X19319500Y6167273D01*
X19346793Y6065413D01*
X19399520Y5974087D01*
X19474087Y5899520D01*
X19565413Y5846793D01*
X19667273Y5819500D01*
X19667275Y5819500D01*
X19772725Y5819500D01*
X19772727Y5819500D01*
X19874587Y5846793D01*
X19965913Y5899520D01*
X20040480Y5974087D01*
X20093207Y6065413D01*
X20120500Y6167273D01*
X20120500Y6204838D01*
X23686493Y6204838D01*
X23686493Y6099384D01*
X23713786Y5997524D01*
X23766513Y5906198D01*
X23841080Y5831631D01*
X23932406Y5778904D01*
X24034266Y5751611D01*
X24034268Y5751611D01*
X24139718Y5751611D01*
X24139720Y5751611D01*
X24241580Y5778904D01*
X24332906Y5831631D01*
X24407473Y5906198D01*
X24460200Y5997524D01*
X24487493Y6099384D01*
X24487493Y6204838D01*
X24460200Y6306698D01*
X24407473Y6398024D01*
X24332906Y6472591D01*
X24241580Y6525318D01*
X24139720Y6552611D01*
X24034266Y6552611D01*
X23932406Y6525318D01*
X23932403Y6525317D01*
X23841078Y6472590D01*
X23766514Y6398026D01*
X23713787Y6306701D01*
X23713786Y6306698D01*
X23686493Y6204838D01*
X20120500Y6204838D01*
X20120500Y6272727D01*
X20093207Y6374587D01*
X20040480Y6465913D01*
X19965913Y6540480D01*
X19899059Y6579078D01*
X19874589Y6593206D01*
X19874588Y6593207D01*
X19874587Y6593207D01*
X19772727Y6620500D01*
X19667273Y6620500D01*
X19565413Y6593207D01*
X19565410Y6593206D01*
X19474085Y6540479D01*
X19399521Y6465915D01*
X19346794Y6374590D01*
X19346793Y6374587D01*
X19319500Y6272727D01*
X400500Y6272727D01*
X400500Y6922727D01*
X5073815Y6922727D01*
X5073815Y6817273D01*
X5101108Y6715413D01*
X5153835Y6624087D01*
X5228402Y6549520D01*
X5319728Y6496793D01*
X5421588Y6469500D01*
X5421590Y6469500D01*
X5527040Y6469500D01*
X5527042Y6469500D01*
X5628902Y6496793D01*
X5720228Y6549520D01*
X5794795Y6624087D01*
X5847522Y6715413D01*
X5874815Y6817273D01*
X5874815Y6922727D01*
X5847522Y7024587D01*
X5794795Y7115913D01*
X5727981Y7182727D01*
X8409500Y7182727D01*
X8409500Y7077273D01*
X8436793Y6975413D01*
X8489520Y6884087D01*
X8564087Y6809520D01*
X8655413Y6756793D01*
X8757273Y6729500D01*
X8757275Y6729500D01*
X8862725Y6729500D01*
X8862727Y6729500D01*
X8964587Y6756793D01*
X9031851Y6795628D01*
X28196599Y6795628D01*
X28196599Y6690175D01*
X28223892Y6588315D01*
X28223893Y6588312D01*
X28231817Y6574587D01*
X28276619Y6496988D01*
X28351186Y6422421D01*
X28442512Y6369694D01*
X28544372Y6342401D01*
X28544374Y6342401D01*
X28649824Y6342401D01*
X28649826Y6342401D01*
X28751686Y6369694D01*
X28843012Y6422421D01*
X28917579Y6496988D01*
X28970306Y6588314D01*
X28997599Y6690174D01*
X28997599Y6795628D01*
X28970306Y6897488D01*
X28917579Y6988814D01*
X28843012Y7063381D01*
X28752024Y7115913D01*
X28751688Y7116107D01*
X28751687Y7116108D01*
X28751686Y7116108D01*
X28649826Y7143401D01*
X28544372Y7143401D01*
X28442512Y7116108D01*
X28442509Y7116107D01*
X28351184Y7063380D01*
X28276620Y6988816D01*
X28223893Y6897491D01*
X28223892Y6897488D01*
X28196599Y6795628D01*
X9031851Y6795628D01*
X9055913Y6809520D01*
X9130480Y6884087D01*
X9183207Y6975413D01*
X9210500Y7077273D01*
X9210500Y7182727D01*
X9183207Y7284587D01*
X9143866Y7352727D01*
X12039500Y7352727D01*
X12039500Y7247273D01*
X12056796Y7182725D01*
X12066793Y7145414D01*
X12066794Y7145411D01*
X12080922Y7120941D01*
X12119520Y7054087D01*
X12194087Y6979520D01*
X12285413Y6926793D01*
X12387273Y6899500D01*
X12387275Y6899500D01*
X12492725Y6899500D01*
X12492727Y6899500D01*
X12594587Y6926793D01*
X12685913Y6979520D01*
X12760480Y7054087D01*
X12813207Y7145413D01*
X12840500Y7247273D01*
X12840500Y7352727D01*
X33649500Y7352727D01*
X33649500Y7247273D01*
X33666796Y7182725D01*
X33676793Y7145414D01*
X33676794Y7145411D01*
X33690922Y7120941D01*
X33729520Y7054087D01*
X33804087Y6979520D01*
X33895413Y6926793D01*
X33896944Y6926383D01*
X33898089Y6925685D01*
X33902920Y6923684D01*
X33902608Y6922931D01*
X33956605Y6890019D01*
X33987135Y6827173D01*
X33978841Y6757797D01*
X33952534Y6718928D01*
X33899521Y6665915D01*
X33846794Y6574590D01*
X33846793Y6574587D01*
X33819500Y6472727D01*
X33819500Y6367273D01*
X33846793Y6265413D01*
X33899520Y6174087D01*
X33974087Y6099520D01*
X34065413Y6046793D01*
X34167273Y6019500D01*
X34167275Y6019500D01*
X34272725Y6019500D01*
X34272727Y6019500D01*
X34374587Y6046793D01*
X34465913Y6099520D01*
X34540480Y6174087D01*
X34593207Y6265413D01*
X34620500Y6367273D01*
X34620500Y6472727D01*
X34593207Y6574587D01*
X34540480Y6665913D01*
X34465913Y6740480D01*
X34374587Y6793207D01*
X34374586Y6793208D01*
X34374582Y6793209D01*
X34373047Y6793620D01*
X34371898Y6794321D01*
X34367080Y6796316D01*
X34367391Y6797068D01*
X34313388Y6829988D01*
X34282863Y6892837D01*
X34291161Y6962212D01*
X34317464Y7001072D01*
X34370480Y7054087D01*
X34423207Y7145413D01*
X34450500Y7247273D01*
X34450500Y7352727D01*
X34423207Y7454587D01*
X34370480Y7545913D01*
X34295913Y7620480D01*
X34204587Y7673207D01*
X34102727Y7700500D01*
X33997273Y7700500D01*
X33895413Y7673207D01*
X33895410Y7673206D01*
X33804085Y7620479D01*
X33729521Y7545915D01*
X33676794Y7454590D01*
X33676793Y7454587D01*
X33649500Y7352727D01*
X12840500Y7352727D01*
X12813207Y7454587D01*
X12760480Y7545913D01*
X12685913Y7620480D01*
X12594587Y7673207D01*
X12492727Y7700500D01*
X12387273Y7700500D01*
X12285413Y7673207D01*
X12285410Y7673206D01*
X12194085Y7620479D01*
X12119521Y7545915D01*
X12066794Y7454590D01*
X12066793Y7454587D01*
X12039500Y7352727D01*
X9143866Y7352727D01*
X9130480Y7375913D01*
X9055913Y7450480D01*
X8988290Y7489522D01*
X8964589Y7503206D01*
X8964587Y7503207D01*
X8961538Y7504024D01*
X8961537Y7504025D01*
X8862727Y7530500D01*
X8757273Y7530500D01*
X8655413Y7503207D01*
X8655410Y7503206D01*
X8564085Y7450479D01*
X8489521Y7375915D01*
X8436794Y7284590D01*
X8436793Y7284587D01*
X8409500Y7182727D01*
X5727981Y7182727D01*
X5720228Y7190480D01*
X5628902Y7243207D01*
X5527042Y7270500D01*
X5421588Y7270500D01*
X5319728Y7243207D01*
X5319725Y7243206D01*
X5228400Y7190479D01*
X5153836Y7115915D01*
X5101109Y7024590D01*
X5101108Y7024587D01*
X5073815Y6922727D01*
X400500Y6922727D01*
X400500Y7922727D01*
X5439500Y7922727D01*
X5439500Y7817273D01*
X5458755Y7745414D01*
X5466793Y7715414D01*
X5466794Y7715411D01*
X5467559Y7714086D01*
X5519520Y7624087D01*
X5594087Y7549520D01*
X5685413Y7496793D01*
X5787273Y7469500D01*
X5787275Y7469500D01*
X5892725Y7469500D01*
X5892727Y7469500D01*
X5994587Y7496793D01*
X6085913Y7549520D01*
X6160480Y7624087D01*
X6213207Y7715413D01*
X6240500Y7817273D01*
X6240500Y7922727D01*
X6213207Y8024587D01*
X6160480Y8115913D01*
X6085913Y8190480D01*
X6064701Y8202727D01*
X8579500Y8202727D01*
X8579500Y8097273D01*
X8603019Y8009500D01*
X8606793Y7995414D01*
X8606794Y7995411D01*
X8610634Y7988760D01*
X8659520Y7904087D01*
X8734087Y7829520D01*
X8825413Y7776793D01*
X8927273Y7749500D01*
X8996964Y7749500D01*
X9032725Y7749500D01*
X9032727Y7749500D01*
X9134587Y7776793D01*
X9225913Y7829520D01*
X9300480Y7904087D01*
X9353207Y7995413D01*
X9380500Y8097273D01*
X9380500Y8202727D01*
X9353207Y8304587D01*
X9300480Y8395913D01*
X9243666Y8452727D01*
X12039500Y8452727D01*
X12039500Y8347273D01*
X12064114Y8255414D01*
X12066793Y8245414D01*
X12066794Y8245411D01*
X12068067Y8243206D01*
X12119520Y8154087D01*
X12194087Y8079520D01*
X12285413Y8026793D01*
X12387273Y7999500D01*
X12387275Y7999500D01*
X12492725Y7999500D01*
X12492727Y7999500D01*
X12594587Y8026793D01*
X12685913Y8079520D01*
X12760480Y8154087D01*
X12813207Y8245413D01*
X12840500Y8347273D01*
X12840500Y8452727D01*
X12813207Y8554587D01*
X12760480Y8645913D01*
X12685913Y8720480D01*
X12594587Y8773207D01*
X12492727Y8800500D01*
X12387273Y8800500D01*
X12285413Y8773207D01*
X12285410Y8773206D01*
X12194085Y8720479D01*
X12119521Y8645915D01*
X12066794Y8554590D01*
X12066793Y8554587D01*
X12039500Y8452727D01*
X9243666Y8452727D01*
X9225913Y8470480D01*
X9134587Y8523207D01*
X9032727Y8550500D01*
X8927273Y8550500D01*
X8825413Y8523207D01*
X8825410Y8523206D01*
X8734085Y8470479D01*
X8659521Y8395915D01*
X8606794Y8304590D01*
X8606793Y8304587D01*
X8579500Y8202727D01*
X6064701Y8202727D01*
X5994587Y8243207D01*
X5892727Y8270500D01*
X5787273Y8270500D01*
X5685413Y8243207D01*
X5685410Y8243206D01*
X5594085Y8190479D01*
X5519521Y8115915D01*
X5466794Y8024590D01*
X5466793Y8024587D01*
X5439500Y7922727D01*
X400500Y7922727D01*
X400500Y10052727D01*
X14499500Y10052727D01*
X14499500Y9947273D01*
X14526793Y9845413D01*
X14571486Y9768002D01*
X14579521Y9754086D01*
X14585926Y9747681D01*
X14619411Y9686358D01*
X14614427Y9616666D01*
X14585926Y9572319D01*
X14579521Y9565915D01*
X14526794Y9474590D01*
X14526793Y9474587D01*
X14499500Y9372727D01*
X14499500Y9267273D01*
X14526479Y9166587D01*
X14526793Y9165414D01*
X14526794Y9165411D01*
X14537266Y9147273D01*
X14577573Y9077459D01*
X14579521Y9074086D01*
X14582287Y9070481D01*
X14607478Y9005311D01*
X14593435Y8936866D01*
X14582287Y8919519D01*
X14579521Y8915915D01*
X14526794Y8824590D01*
X14526793Y8824587D01*
X14499500Y8722727D01*
X14499500Y8617273D01*
X14517660Y8549501D01*
X14526793Y8515414D01*
X14526794Y8515411D01*
X14534508Y8502050D01*
X14579519Y8424088D01*
X14579521Y8424086D01*
X14582287Y8420481D01*
X14607478Y8355311D01*
X14593435Y8286866D01*
X14582287Y8269519D01*
X14579521Y8265915D01*
X14526794Y8174590D01*
X14526793Y8174587D01*
X14499500Y8072727D01*
X14499500Y7967273D01*
X14516431Y7904087D01*
X14526793Y7865414D01*
X14526794Y7865411D01*
X14537266Y7847273D01*
X14579520Y7774087D01*
X14654087Y7699520D01*
X14745413Y7646793D01*
X14847273Y7619500D01*
X14847275Y7619500D01*
X14952725Y7619500D01*
X14952727Y7619500D01*
X15054587Y7646793D01*
X15145913Y7699520D01*
X15220480Y7774087D01*
X15273207Y7865413D01*
X15296602Y7952727D01*
X16399500Y7952727D01*
X16399500Y7847273D01*
X16426793Y7745413D01*
X16479520Y7654087D01*
X16554087Y7579520D01*
X16645413Y7526793D01*
X16747273Y7499500D01*
X16747275Y7499500D01*
X16852725Y7499500D01*
X16852727Y7499500D01*
X16954587Y7526793D01*
X17045913Y7579520D01*
X17120480Y7654087D01*
X17173207Y7745413D01*
X17180225Y7771607D01*
X17216589Y7831267D01*
X17279436Y7861797D01*
X17348812Y7853503D01*
X17402690Y7809018D01*
X17419775Y7771606D01*
X17426792Y7745415D01*
X17426793Y7745413D01*
X17479520Y7654087D01*
X17554087Y7579520D01*
X17645413Y7526793D01*
X17747273Y7499500D01*
X17747275Y7499500D01*
X17852725Y7499500D01*
X17852727Y7499500D01*
X17954587Y7526793D01*
X18045913Y7579520D01*
X18120480Y7654087D01*
X18173207Y7745413D01*
X18180225Y7771607D01*
X18216589Y7831267D01*
X18279436Y7861797D01*
X18348812Y7853503D01*
X18402690Y7809018D01*
X18419775Y7771606D01*
X18426792Y7745415D01*
X18426793Y7745413D01*
X18479520Y7654087D01*
X18554087Y7579520D01*
X18645413Y7526793D01*
X18747273Y7499500D01*
X18747275Y7499500D01*
X18852725Y7499500D01*
X18852727Y7499500D01*
X18954587Y7526793D01*
X19045913Y7579520D01*
X19120480Y7654087D01*
X19173207Y7745413D01*
X19200500Y7847273D01*
X19200500Y7952727D01*
X19184423Y8012727D01*
X19719500Y8012727D01*
X19719500Y7907273D01*
X19746793Y7805413D01*
X19799520Y7714087D01*
X19874087Y7639520D01*
X19965413Y7586793D01*
X20067273Y7559500D01*
X20067275Y7559500D01*
X20172725Y7559500D01*
X20172727Y7559500D01*
X20274587Y7586793D01*
X20365913Y7639520D01*
X20440480Y7714087D01*
X20493207Y7805413D01*
X20520500Y7907273D01*
X20520500Y8012727D01*
X20493207Y8114587D01*
X20440480Y8205913D01*
X20365913Y8280480D01*
X20274587Y8333207D01*
X20172727Y8360500D01*
X20067273Y8360500D01*
X19965413Y8333207D01*
X19965410Y8333206D01*
X19874085Y8280479D01*
X19799521Y8205915D01*
X19746794Y8114590D01*
X19746793Y8114587D01*
X19719500Y8012727D01*
X19184423Y8012727D01*
X19173207Y8054587D01*
X19120480Y8145913D01*
X19045913Y8220480D01*
X18954587Y8273207D01*
X18852727Y8300500D01*
X18747273Y8300500D01*
X18645413Y8273207D01*
X18645410Y8273206D01*
X18554085Y8220479D01*
X18479521Y8145915D01*
X18426794Y8054590D01*
X18426793Y8054587D01*
X18422026Y8036794D01*
X18419775Y8028394D01*
X18383410Y7968733D01*
X18320563Y7938204D01*
X18251188Y7946499D01*
X18197310Y7990984D01*
X18180225Y8028394D01*
X18173207Y8054587D01*
X18120480Y8145913D01*
X18045913Y8220480D01*
X17954587Y8273207D01*
X17852727Y8300500D01*
X17747273Y8300500D01*
X17645413Y8273207D01*
X17645410Y8273206D01*
X17554085Y8220479D01*
X17479521Y8145915D01*
X17426794Y8054590D01*
X17426793Y8054587D01*
X17422026Y8036794D01*
X17419775Y8028394D01*
X17383410Y7968733D01*
X17320563Y7938204D01*
X17251188Y7946499D01*
X17197310Y7990984D01*
X17180225Y8028394D01*
X17173207Y8054587D01*
X17120480Y8145913D01*
X17045913Y8220480D01*
X16954587Y8273207D01*
X16852727Y8300500D01*
X16747273Y8300500D01*
X16645413Y8273207D01*
X16645410Y8273206D01*
X16554085Y8220479D01*
X16479521Y8145915D01*
X16426794Y8054590D01*
X16426793Y8054587D01*
X16399500Y7952727D01*
X15296602Y7952727D01*
X15300500Y7967273D01*
X15300500Y8072727D01*
X15273207Y8174587D01*
X15220480Y8265913D01*
X15220475Y8265918D01*
X15217717Y8269513D01*
X15192522Y8334682D01*
X15206560Y8403127D01*
X15217717Y8420487D01*
X15220472Y8424080D01*
X15220480Y8424087D01*
X15242789Y8462727D01*
X27579500Y8462727D01*
X27579500Y8357273D01*
X27606793Y8255413D01*
X27659520Y8164087D01*
X27734087Y8089520D01*
X27825413Y8036793D01*
X27927273Y8009500D01*
X27927275Y8009500D01*
X28032725Y8009500D01*
X28032727Y8009500D01*
X28134587Y8036793D01*
X28183836Y8065227D01*
X30029500Y8065227D01*
X30029500Y7959773D01*
X30056793Y7857913D01*
X30109520Y7766587D01*
X30184087Y7692020D01*
X30275413Y7639293D01*
X30377273Y7612000D01*
X30377275Y7612000D01*
X30482725Y7612000D01*
X30482727Y7612000D01*
X30584587Y7639293D01*
X30675913Y7692020D01*
X30750480Y7766587D01*
X30803207Y7857913D01*
X30804497Y7862727D01*
X36209500Y7862727D01*
X36209500Y7757273D01*
X36236793Y7655415D01*
X36236793Y7655414D01*
X36236794Y7655411D01*
X36241769Y7646794D01*
X36289520Y7564087D01*
X36364087Y7489520D01*
X36455413Y7436793D01*
X36557273Y7409500D01*
X36557275Y7409500D01*
X36662725Y7409500D01*
X36662727Y7409500D01*
X36764587Y7436793D01*
X36855913Y7489520D01*
X36930480Y7564087D01*
X36983207Y7655413D01*
X37010500Y7757273D01*
X37010500Y7862727D01*
X36983207Y7964587D01*
X36930480Y8055913D01*
X36855913Y8130480D01*
X36779512Y8174590D01*
X36764589Y8183206D01*
X36764588Y8183207D01*
X36764587Y8183207D01*
X36662727Y8210500D01*
X36557273Y8210500D01*
X36455413Y8183207D01*
X36455410Y8183206D01*
X36364085Y8130479D01*
X36289521Y8055915D01*
X36236794Y7964590D01*
X36236793Y7964587D01*
X36209500Y7862727D01*
X30804497Y7862727D01*
X30830500Y7959773D01*
X30830500Y8065227D01*
X30803207Y8167087D01*
X30750480Y8258413D01*
X30675913Y8332980D01*
X30584587Y8385707D01*
X30482727Y8413000D01*
X30377273Y8413000D01*
X30275413Y8385707D01*
X30275410Y8385706D01*
X30184085Y8332979D01*
X30109521Y8258415D01*
X30056794Y8167090D01*
X30056793Y8167087D01*
X30029500Y8065227D01*
X28183836Y8065227D01*
X28225913Y8089520D01*
X28300480Y8164087D01*
X28353207Y8255413D01*
X28380500Y8357273D01*
X28380500Y8462727D01*
X28353207Y8564587D01*
X28300480Y8655913D01*
X28225913Y8730480D01*
X28134587Y8783207D01*
X28032727Y8810500D01*
X27927273Y8810500D01*
X27825413Y8783207D01*
X27825410Y8783206D01*
X27734085Y8730479D01*
X27659521Y8655915D01*
X27606794Y8564590D01*
X27606793Y8564587D01*
X27579500Y8462727D01*
X15242789Y8462727D01*
X15273207Y8515413D01*
X15300500Y8617273D01*
X15300500Y8722727D01*
X15273207Y8824587D01*
X15220480Y8915913D01*
X15220475Y8915918D01*
X15217717Y8919513D01*
X15208650Y8942964D01*
X15195872Y8964617D01*
X15196267Y8974996D01*
X15192522Y8984682D01*
X15196223Y9002727D01*
X16399500Y9002727D01*
X16399500Y8897273D01*
X16426793Y8795413D01*
X16479520Y8704087D01*
X16554087Y8629520D01*
X16645413Y8576793D01*
X16747273Y8549500D01*
X16747275Y8549500D01*
X16852725Y8549500D01*
X16852727Y8549500D01*
X16954587Y8576793D01*
X17045913Y8629520D01*
X17120480Y8704087D01*
X17173207Y8795413D01*
X17180225Y8821607D01*
X17216589Y8881267D01*
X17279436Y8911797D01*
X17348812Y8903503D01*
X17402690Y8859018D01*
X17419775Y8821606D01*
X17426792Y8795415D01*
X17426793Y8795413D01*
X17479520Y8704087D01*
X17554087Y8629520D01*
X17645413Y8576793D01*
X17747273Y8549500D01*
X17747275Y8549500D01*
X17852725Y8549500D01*
X17852727Y8549500D01*
X17954587Y8576793D01*
X18045913Y8629520D01*
X18120480Y8704087D01*
X18173207Y8795413D01*
X18180225Y8821607D01*
X18216589Y8881267D01*
X18279436Y8911797D01*
X18348812Y8903503D01*
X18402690Y8859018D01*
X18419775Y8821606D01*
X18426792Y8795415D01*
X18426793Y8795413D01*
X18479520Y8704087D01*
X18554087Y8629520D01*
X18645413Y8576793D01*
X18747273Y8549500D01*
X18747275Y8549500D01*
X18852725Y8549500D01*
X18852727Y8549500D01*
X18954587Y8576793D01*
X19045913Y8629520D01*
X19120480Y8704087D01*
X19173207Y8795413D01*
X19200500Y8897273D01*
X19200500Y9002727D01*
X19184423Y9062727D01*
X33159500Y9062727D01*
X33159500Y8957273D01*
X33186793Y8855413D01*
X33239520Y8764087D01*
X33314087Y8689520D01*
X33405413Y8636793D01*
X33507273Y8609500D01*
X33507275Y8609500D01*
X33612724Y8609500D01*
X33612727Y8609500D01*
X33680464Y8627650D01*
X33750308Y8625987D01*
X33808171Y8586825D01*
X33835676Y8522597D01*
X33832329Y8475786D01*
X33829500Y8465227D01*
X33829500Y8359773D01*
X33856659Y8258415D01*
X33856793Y8257914D01*
X33856794Y8257911D01*
X33864009Y8245414D01*
X33909520Y8166587D01*
X33984087Y8092020D01*
X34075413Y8039293D01*
X34177273Y8012000D01*
X34177275Y8012000D01*
X34282725Y8012000D01*
X34282727Y8012000D01*
X34384587Y8039293D01*
X34475913Y8092020D01*
X34550480Y8166587D01*
X34603207Y8257913D01*
X34630500Y8359773D01*
X34630500Y8465227D01*
X34603207Y8567087D01*
X34550480Y8658413D01*
X34475913Y8732980D01*
X34384587Y8785707D01*
X34353392Y8794066D01*
X34293732Y8830430D01*
X34263203Y8893277D01*
X34271498Y8962652D01*
X34315983Y9016530D01*
X34353393Y9033615D01*
X34374587Y9039293D01*
X34465913Y9092020D01*
X34540480Y9166587D01*
X34590213Y9252727D01*
X36169500Y9252727D01*
X36169500Y9147273D01*
X36188207Y9077459D01*
X36196793Y9045414D01*
X36196794Y9045411D01*
X36210922Y9020941D01*
X36249520Y8954087D01*
X36324087Y8879520D01*
X36415413Y8826793D01*
X36517273Y8799500D01*
X36517275Y8799500D01*
X36622725Y8799500D01*
X36622727Y8799500D01*
X36724587Y8826793D01*
X36815913Y8879520D01*
X36890480Y8954087D01*
X36943207Y9045413D01*
X36970500Y9147273D01*
X36970500Y9252727D01*
X36943207Y9354587D01*
X36890480Y9445913D01*
X36815913Y9520480D01*
X36724587Y9573207D01*
X36622727Y9600500D01*
X36517273Y9600500D01*
X36415413Y9573207D01*
X36415410Y9573206D01*
X36324085Y9520479D01*
X36249521Y9445915D01*
X36196794Y9354590D01*
X36196793Y9354587D01*
X36169500Y9252727D01*
X34590213Y9252727D01*
X34593207Y9257913D01*
X34620500Y9359773D01*
X34620500Y9465227D01*
X34593207Y9567087D01*
X34540480Y9658413D01*
X34465913Y9732980D01*
X34374587Y9785707D01*
X34367548Y9789771D01*
X34369188Y9792613D01*
X34326708Y9826855D01*
X34304651Y9893152D01*
X34304573Y9897562D01*
X34304573Y9975316D01*
X34304573Y9975318D01*
X34277280Y10077178D01*
X34255367Y10115132D01*
X34247292Y10129119D01*
X34247291Y10129121D01*
X34224552Y10168505D01*
X34206810Y10186247D01*
X39110000Y10186247D01*
X39110000Y9973754D01*
X39143242Y9763873D01*
X39143242Y9763870D01*
X39208904Y9561783D01*
X39305375Y9372450D01*
X39344728Y9318284D01*
X39977037Y9950592D01*
X39994075Y9887007D01*
X40059901Y9772993D01*
X40152993Y9679901D01*
X40267007Y9614075D01*
X40330590Y9597038D01*
X39698282Y8964731D01*
X39698282Y8964730D01*
X39752449Y8925376D01*
X39941782Y8828905D01*
X40143865Y8763245D01*
X40202587Y8753944D01*
X40265722Y8724015D01*
X40302654Y8664703D01*
X40301656Y8594841D01*
X40263047Y8536608D01*
X40207384Y8509853D01*
X40168167Y8502052D01*
X40168160Y8502050D01*
X39986092Y8426636D01*
X39986079Y8426629D01*
X39822218Y8317140D01*
X39822214Y8317137D01*
X39682863Y8177786D01*
X39682860Y8177782D01*
X39573371Y8013921D01*
X39573364Y8013908D01*
X39497950Y7831840D01*
X39497947Y7831830D01*
X39459500Y7638544D01*
X39459500Y7638541D01*
X39459500Y7441459D01*
X39459500Y7441457D01*
X39459499Y7441457D01*
X39497947Y7248171D01*
X39497950Y7248161D01*
X39573364Y7066093D01*
X39573371Y7066080D01*
X39682860Y6902219D01*
X39682863Y6902215D01*
X39822214Y6762864D01*
X39822218Y6762861D01*
X39986079Y6653372D01*
X39986092Y6653365D01*
X40131331Y6593206D01*
X40168165Y6577949D01*
X40168169Y6577949D01*
X40168170Y6577948D01*
X40361456Y6539500D01*
X40361459Y6539500D01*
X40558543Y6539500D01*
X40734948Y6574590D01*
X40751835Y6577949D01*
X40933914Y6653368D01*
X41097782Y6762861D01*
X41237139Y6902218D01*
X41346632Y7066086D01*
X41422051Y7248165D01*
X41447462Y7375913D01*
X41460500Y7441457D01*
X41460500Y7638544D01*
X41422052Y7831830D01*
X41422051Y7831831D01*
X41422051Y7831835D01*
X41422049Y7831840D01*
X41346635Y8013908D01*
X41346628Y8013921D01*
X41237139Y8177782D01*
X41237136Y8177786D01*
X41097785Y8317137D01*
X41097781Y8317140D01*
X40933920Y8426629D01*
X40933907Y8426636D01*
X40751839Y8502050D01*
X40751830Y8502053D01*
X40712616Y8509853D01*
X40650705Y8542239D01*
X40616132Y8602955D01*
X40619873Y8672725D01*
X40660740Y8729396D01*
X40717412Y8753944D01*
X40776134Y8763245D01*
X40978217Y8828905D01*
X41167554Y8925378D01*
X41221716Y8964730D01*
X41221717Y8964730D01*
X40589408Y9597038D01*
X40652993Y9614075D01*
X40767007Y9679901D01*
X40860099Y9772993D01*
X40925925Y9887007D01*
X40942962Y9950591D01*
X41575270Y9318283D01*
X41575270Y9318284D01*
X41614622Y9372446D01*
X41619514Y9382046D01*
X41667488Y9432843D01*
X41735308Y9449639D01*
X41801444Y9427103D01*
X41840486Y9382046D01*
X41845375Y9372450D01*
X41884728Y9318284D01*
X42517037Y9950592D01*
X42534075Y9887007D01*
X42599901Y9772993D01*
X42692993Y9679901D01*
X42807007Y9614075D01*
X42870590Y9597038D01*
X42238282Y8964731D01*
X42238282Y8964730D01*
X42292449Y8925376D01*
X42481782Y8828905D01*
X42683865Y8763245D01*
X42742587Y8753944D01*
X42805722Y8724015D01*
X42842654Y8664703D01*
X42841656Y8594841D01*
X42803047Y8536608D01*
X42747384Y8509853D01*
X42708167Y8502052D01*
X42708160Y8502050D01*
X42526092Y8426636D01*
X42526079Y8426629D01*
X42362218Y8317140D01*
X42362214Y8317137D01*
X42222863Y8177786D01*
X42222860Y8177782D01*
X42113371Y8013921D01*
X42113364Y8013908D01*
X42037950Y7831840D01*
X42037947Y7831830D01*
X41999500Y7638544D01*
X41999500Y7638541D01*
X41999500Y7441459D01*
X41999500Y7441457D01*
X41999499Y7441457D01*
X42037947Y7248171D01*
X42037950Y7248161D01*
X42113364Y7066093D01*
X42113371Y7066080D01*
X42222860Y6902219D01*
X42222863Y6902215D01*
X42362214Y6762864D01*
X42362218Y6762861D01*
X42526079Y6653372D01*
X42526092Y6653365D01*
X42671331Y6593206D01*
X42708165Y6577949D01*
X42708169Y6577949D01*
X42708170Y6577948D01*
X42901456Y6539500D01*
X42901459Y6539500D01*
X43098543Y6539500D01*
X43274948Y6574590D01*
X43291835Y6577949D01*
X43473914Y6653368D01*
X43637782Y6762861D01*
X43777139Y6902218D01*
X43886632Y7066086D01*
X43962051Y7248165D01*
X43987462Y7375913D01*
X44000500Y7441457D01*
X44000500Y7638544D01*
X43962052Y7831830D01*
X43962051Y7831831D01*
X43962051Y7831835D01*
X43962049Y7831840D01*
X43886635Y8013908D01*
X43886628Y8013921D01*
X43777139Y8177782D01*
X43777136Y8177786D01*
X43637785Y8317137D01*
X43637781Y8317140D01*
X43473920Y8426629D01*
X43473907Y8426636D01*
X43291839Y8502050D01*
X43291830Y8502053D01*
X43252616Y8509853D01*
X43190705Y8542239D01*
X43156132Y8602955D01*
X43159873Y8672725D01*
X43200740Y8729396D01*
X43257412Y8753944D01*
X43316134Y8763245D01*
X43518217Y8828905D01*
X43707554Y8925378D01*
X43761716Y8964730D01*
X43761717Y8964730D01*
X43129408Y9597038D01*
X43192993Y9614075D01*
X43307007Y9679901D01*
X43400099Y9772993D01*
X43465925Y9887007D01*
X43482962Y9950592D01*
X44115270Y9318283D01*
X44115270Y9318284D01*
X44154622Y9372446D01*
X44251095Y9561783D01*
X44316757Y9763870D01*
X44316757Y9763873D01*
X44350000Y9973754D01*
X44350000Y10186247D01*
X44316757Y10396128D01*
X44316757Y10396131D01*
X44251095Y10598218D01*
X44154624Y10787551D01*
X44115270Y10841718D01*
X44115269Y10841718D01*
X43482962Y10209410D01*
X43465925Y10272993D01*
X43400099Y10387007D01*
X43307007Y10480099D01*
X43192993Y10545925D01*
X43129409Y10562963D01*
X43761716Y11195272D01*
X43707550Y11234625D01*
X43518217Y11331096D01*
X43316128Y11396758D01*
X43257411Y11406058D01*
X43194276Y11435988D01*
X43157345Y11495299D01*
X43158343Y11565162D01*
X43196953Y11623394D01*
X43252615Y11650148D01*
X43291835Y11657949D01*
X43473914Y11733368D01*
X43637782Y11842861D01*
X43777139Y11982218D01*
X43886632Y12146086D01*
X43962051Y12328165D01*
X43994847Y12493039D01*
X44000500Y12521457D01*
X44000500Y12718544D01*
X43962052Y12911830D01*
X43962051Y12911831D01*
X43962051Y12911835D01*
X43962049Y12911840D01*
X43886635Y13093908D01*
X43886628Y13093921D01*
X43777139Y13257782D01*
X43777136Y13257786D01*
X43637785Y13397137D01*
X43637781Y13397140D01*
X43473920Y13506629D01*
X43473907Y13506636D01*
X43291839Y13582050D01*
X43291829Y13582053D01*
X43098543Y13620500D01*
X43098541Y13620500D01*
X42901459Y13620500D01*
X42901457Y13620500D01*
X42708170Y13582053D01*
X42708160Y13582050D01*
X42526092Y13506636D01*
X42526079Y13506629D01*
X42362218Y13397140D01*
X42362214Y13397137D01*
X42222863Y13257786D01*
X42222860Y13257782D01*
X42113371Y13093921D01*
X42113364Y13093908D01*
X42037950Y12911840D01*
X42037947Y12911830D01*
X41999500Y12718544D01*
X41999500Y12718541D01*
X41999500Y12521459D01*
X41999500Y12521457D01*
X41999499Y12521457D01*
X42037947Y12328171D01*
X42037950Y12328161D01*
X42113364Y12146093D01*
X42113371Y12146080D01*
X42222860Y11982219D01*
X42222863Y11982215D01*
X42362214Y11842864D01*
X42362218Y11842861D01*
X42526079Y11733372D01*
X42526092Y11733365D01*
X42708160Y11657951D01*
X42708165Y11657949D01*
X42728491Y11653906D01*
X42747381Y11650148D01*
X42809292Y11617763D01*
X42843866Y11557048D01*
X42840127Y11487278D01*
X42799261Y11430606D01*
X42742589Y11406058D01*
X42683870Y11396758D01*
X42683869Y11396758D01*
X42481782Y11331096D01*
X42292439Y11234620D01*
X42238282Y11195273D01*
X42238282Y11195272D01*
X42870591Y10562963D01*
X42807007Y10545925D01*
X42692993Y10480099D01*
X42599901Y10387007D01*
X42534075Y10272993D01*
X42517037Y10209409D01*
X41884728Y10841718D01*
X41884727Y10841718D01*
X41845380Y10787560D01*
X41840483Y10777949D01*
X41792506Y10727155D01*
X41724684Y10710362D01*
X41658550Y10732902D01*
X41619516Y10777952D01*
X41614626Y10787548D01*
X41575270Y10841718D01*
X41575269Y10841718D01*
X40942962Y10209410D01*
X40925925Y10272993D01*
X40860099Y10387007D01*
X40767007Y10480099D01*
X40652993Y10545925D01*
X40589409Y10562963D01*
X41221716Y11195272D01*
X41167550Y11234625D01*
X40978217Y11331096D01*
X40835186Y11377569D01*
X40777511Y11417006D01*
X40750312Y11481365D01*
X40762227Y11550211D01*
X40809471Y11601687D01*
X40873504Y11619500D01*
X41324822Y11619500D01*
X41368717Y11628232D01*
X41368717Y11628233D01*
X41368722Y11628233D01*
X41418504Y11661496D01*
X41451767Y11711278D01*
X41460500Y11755180D01*
X41460500Y13484820D01*
X41460500Y13484823D01*
X41451768Y13528718D01*
X41451767Y13528719D01*
X41451767Y13528722D01*
X41418504Y13578504D01*
X41413197Y13582050D01*
X41368724Y13611766D01*
X41368717Y13611769D01*
X41324822Y13620500D01*
X41324820Y13620500D01*
X39595180Y13620500D01*
X39595178Y13620500D01*
X39551282Y13611769D01*
X39551275Y13611766D01*
X39501496Y13578505D01*
X39501495Y13578504D01*
X39468234Y13528725D01*
X39468231Y13528718D01*
X39459500Y13484823D01*
X39459500Y13484820D01*
X39459500Y11755180D01*
X39459500Y11755178D01*
X39459499Y11755178D01*
X39468231Y11711283D01*
X39468234Y11711276D01*
X39501495Y11661497D01*
X39501496Y11661496D01*
X39551278Y11628233D01*
X39551281Y11628233D01*
X39551282Y11628232D01*
X39595177Y11619500D01*
X40046496Y11619500D01*
X40113535Y11599815D01*
X40159290Y11547011D01*
X40169234Y11477853D01*
X40140209Y11414297D01*
X40084814Y11377569D01*
X39941782Y11331096D01*
X39752439Y11234620D01*
X39698282Y11195273D01*
X39698282Y11195272D01*
X40330591Y10562963D01*
X40267007Y10545925D01*
X40152993Y10480099D01*
X40059901Y10387007D01*
X39994075Y10272993D01*
X39977037Y10209409D01*
X39344728Y10841718D01*
X39344727Y10841718D01*
X39305380Y10787561D01*
X39208904Y10598218D01*
X39143242Y10396131D01*
X39143242Y10396128D01*
X39110000Y10186247D01*
X34206810Y10186247D01*
X34149987Y10243070D01*
X34149986Y10243071D01*
X34058660Y10295798D01*
X33956800Y10323091D01*
X33851346Y10323091D01*
X33749486Y10295798D01*
X33749483Y10295797D01*
X33658158Y10243070D01*
X33583594Y10168506D01*
X33530867Y10077181D01*
X33530866Y10077178D01*
X33503573Y9975318D01*
X33503573Y9869864D01*
X33510125Y9845414D01*
X33530866Y9768005D01*
X33530867Y9768002D01*
X33542599Y9747681D01*
X33581952Y9679520D01*
X33583594Y9676677D01*
X33638090Y9622181D01*
X33671575Y9560858D01*
X33666591Y9491166D01*
X33624719Y9435233D01*
X33559255Y9410816D01*
X33550409Y9410500D01*
X33507273Y9410500D01*
X33405413Y9383207D01*
X33405410Y9383206D01*
X33314085Y9330479D01*
X33239521Y9255915D01*
X33186794Y9164590D01*
X33186793Y9164587D01*
X33159500Y9062727D01*
X19184423Y9062727D01*
X19173207Y9104587D01*
X19120480Y9195913D01*
X19045913Y9270480D01*
X18954587Y9323207D01*
X18852727Y9350500D01*
X18747273Y9350500D01*
X18645413Y9323207D01*
X18645410Y9323206D01*
X18554085Y9270479D01*
X18479521Y9195915D01*
X18426794Y9104590D01*
X18426793Y9104587D01*
X18419775Y9078394D01*
X18383410Y9018733D01*
X18320563Y8988204D01*
X18251188Y8996499D01*
X18197310Y9040984D01*
X18180225Y9078394D01*
X18176574Y9092020D01*
X18173207Y9104587D01*
X18120480Y9195913D01*
X18045913Y9270480D01*
X17954587Y9323207D01*
X17852727Y9350500D01*
X17747273Y9350500D01*
X17645413Y9323207D01*
X17645410Y9323206D01*
X17554085Y9270479D01*
X17479521Y9195915D01*
X17426794Y9104590D01*
X17426793Y9104587D01*
X17419775Y9078394D01*
X17383410Y9018733D01*
X17320563Y8988204D01*
X17251188Y8996499D01*
X17197310Y9040984D01*
X17180225Y9078394D01*
X17176574Y9092020D01*
X17173207Y9104587D01*
X17120480Y9195913D01*
X17045913Y9270480D01*
X16954587Y9323207D01*
X16852727Y9350500D01*
X16747273Y9350500D01*
X16645413Y9323207D01*
X16645410Y9323206D01*
X16554085Y9270479D01*
X16479521Y9195915D01*
X16426794Y9104590D01*
X16426793Y9104587D01*
X16399500Y9002727D01*
X15196223Y9002727D01*
X15197573Y9009312D01*
X15198530Y9034436D01*
X15205357Y9047265D01*
X15206560Y9053127D01*
X15214402Y9065959D01*
X15219134Y9072742D01*
X15220480Y9074087D01*
X15273207Y9165413D01*
X15300500Y9267273D01*
X15300500Y9372727D01*
X15273207Y9474587D01*
X15220480Y9565913D01*
X15214074Y9572319D01*
X15180589Y9633642D01*
X15185573Y9703334D01*
X15214074Y9747681D01*
X15220480Y9754087D01*
X15273207Y9845413D01*
X15300500Y9947273D01*
X15300500Y10052727D01*
X16399500Y10052727D01*
X16399500Y9947273D01*
X16426793Y9845413D01*
X16479520Y9754087D01*
X16554087Y9679520D01*
X16645413Y9626793D01*
X16747273Y9599500D01*
X16747275Y9599500D01*
X16852725Y9599500D01*
X16852727Y9599500D01*
X16954587Y9626793D01*
X17045913Y9679520D01*
X17120480Y9754087D01*
X17173207Y9845413D01*
X17180225Y9871607D01*
X17216589Y9931267D01*
X17279436Y9961797D01*
X17348812Y9953503D01*
X17402690Y9909018D01*
X17419774Y9871608D01*
X17422611Y9861021D01*
X17426792Y9845415D01*
X17426793Y9845413D01*
X17479520Y9754087D01*
X17554087Y9679520D01*
X17645413Y9626793D01*
X17747273Y9599500D01*
X17747275Y9599500D01*
X17852725Y9599500D01*
X17852727Y9599500D01*
X17954587Y9626793D01*
X18045913Y9679520D01*
X18120480Y9754087D01*
X18173207Y9845413D01*
X18180225Y9871607D01*
X18216589Y9931267D01*
X18279436Y9961797D01*
X18348812Y9953503D01*
X18402690Y9909018D01*
X18419774Y9871608D01*
X18422611Y9861021D01*
X18426792Y9845415D01*
X18426793Y9845413D01*
X18479520Y9754087D01*
X18554087Y9679520D01*
X18645413Y9626793D01*
X18747273Y9599500D01*
X18747275Y9599500D01*
X18852725Y9599500D01*
X18852727Y9599500D01*
X18954587Y9626793D01*
X19045913Y9679520D01*
X19120480Y9754087D01*
X19173207Y9845413D01*
X19200500Y9947273D01*
X19200500Y10052727D01*
X19173207Y10154587D01*
X19120480Y10245913D01*
X19045913Y10320480D01*
X18954587Y10373207D01*
X18852727Y10400500D01*
X18747273Y10400500D01*
X18645413Y10373207D01*
X18645410Y10373206D01*
X18554085Y10320479D01*
X18479521Y10245915D01*
X18426794Y10154590D01*
X18426793Y10154587D01*
X18419970Y10129121D01*
X18419775Y10128394D01*
X18383410Y10068733D01*
X18320563Y10038204D01*
X18251188Y10046499D01*
X18197310Y10090984D01*
X18180225Y10128394D01*
X18180031Y10129119D01*
X18173207Y10154587D01*
X18120480Y10245913D01*
X18045913Y10320480D01*
X17954587Y10373207D01*
X17852727Y10400500D01*
X17747273Y10400500D01*
X17645413Y10373207D01*
X17645410Y10373206D01*
X17554085Y10320479D01*
X17479521Y10245915D01*
X17426794Y10154590D01*
X17426793Y10154587D01*
X17419970Y10129121D01*
X17419775Y10128394D01*
X17383410Y10068733D01*
X17320563Y10038204D01*
X17251188Y10046499D01*
X17197310Y10090984D01*
X17180225Y10128394D01*
X17180031Y10129119D01*
X17173207Y10154587D01*
X17120480Y10245913D01*
X17045913Y10320480D01*
X16954587Y10373207D01*
X16852727Y10400500D01*
X16747273Y10400500D01*
X16645413Y10373207D01*
X16645410Y10373206D01*
X16554085Y10320479D01*
X16479521Y10245915D01*
X16426794Y10154590D01*
X16426793Y10154587D01*
X16399500Y10052727D01*
X15300500Y10052727D01*
X15273207Y10154587D01*
X15220480Y10245913D01*
X15145913Y10320480D01*
X15054587Y10373207D01*
X14952727Y10400500D01*
X14847273Y10400500D01*
X14745413Y10373207D01*
X14745410Y10373206D01*
X14654085Y10320479D01*
X14579521Y10245915D01*
X14526794Y10154590D01*
X14526793Y10154587D01*
X14499500Y10052727D01*
X400500Y10052727D01*
X400500Y12070001D01*
X1131115Y12070001D01*
X1131116Y12070000D01*
X1883012Y12070000D01*
X1865795Y12060060D01*
X1809940Y12004205D01*
X1770444Y11935796D01*
X1750000Y11859496D01*
X1750000Y11780504D01*
X1770444Y11704204D01*
X1809940Y11635795D01*
X1865795Y11579940D01*
X1883012Y11570000D01*
X1131116Y11570000D01*
X1136506Y11542900D01*
X1136507Y11542897D01*
X1208119Y11370009D01*
X1208124Y11370000D01*
X1312086Y11214411D01*
X1312089Y11214407D01*
X1444406Y11082090D01*
X1444410Y11082087D01*
X1599999Y10978125D01*
X1600008Y10978120D01*
X1772894Y10906509D01*
X1772902Y10906507D01*
X1956428Y10870001D01*
X1956431Y10870000D01*
X2450000Y10870000D01*
X2450000Y11520000D01*
X2950000Y11520000D01*
X2950000Y10870000D01*
X3443569Y10870000D01*
X3443571Y10870001D01*
X3627097Y10906507D01*
X3627105Y10906509D01*
X3722793Y10946144D01*
X5549500Y10946144D01*
X5549500Y10853856D01*
X5571969Y10770000D01*
X5573387Y10764710D01*
X5573388Y10764707D01*
X5619526Y10684795D01*
X5619529Y10684791D01*
X5619531Y10684788D01*
X5684788Y10619531D01*
X5684791Y10619530D01*
X5684794Y10619527D01*
X5764706Y10573389D01*
X5764707Y10573389D01*
X5764712Y10573386D01*
X5853856Y10549500D01*
X5853858Y10549500D01*
X5946142Y10549500D01*
X5946144Y10549500D01*
X5980191Y10558623D01*
X6050040Y10556961D01*
X6099966Y10526530D01*
X6144406Y10482090D01*
X6144410Y10482087D01*
X6299999Y10378125D01*
X6300012Y10378118D01*
X6472889Y10306511D01*
X6472896Y10306509D01*
X6500000Y10301118D01*
X6500000Y11053012D01*
X6509940Y11035795D01*
X6565795Y10979940D01*
X6634204Y10940444D01*
X6710504Y10920000D01*
X6789496Y10920000D01*
X6865796Y10940444D01*
X6934205Y10979940D01*
X6990060Y11035795D01*
X7000000Y11053012D01*
X7000000Y10301119D01*
X7027103Y10306509D01*
X7027110Y10306511D01*
X7199987Y10378118D01*
X7200000Y10378125D01*
X7355589Y10482087D01*
X7355593Y10482090D01*
X7487910Y10614407D01*
X7487913Y10614411D01*
X7591875Y10770000D01*
X7591882Y10770013D01*
X7601591Y10793452D01*
X7645431Y10847856D01*
X7711725Y10869921D01*
X7716152Y10870000D01*
X7843569Y10870000D01*
X7843571Y10870001D01*
X8027097Y10906507D01*
X8027105Y10906509D01*
X8199991Y10978120D01*
X8200000Y10978125D01*
X8355589Y11082087D01*
X8355593Y11082090D01*
X8487910Y11214407D01*
X8487913Y11214411D01*
X8591875Y11370000D01*
X8591880Y11370009D01*
X8663492Y11542897D01*
X8663493Y11542900D01*
X8668884Y11570000D01*
X7916988Y11570000D01*
X7934205Y11579940D01*
X7990060Y11635795D01*
X8029556Y11704204D01*
X8050000Y11780504D01*
X8050000Y11859496D01*
X8029556Y11935796D01*
X7990060Y12004205D01*
X7934205Y12060060D01*
X7916988Y12070000D01*
X8668884Y12070000D01*
X8668884Y12070001D01*
X8663493Y12097101D01*
X8663492Y12097104D01*
X8591880Y12269992D01*
X8591875Y12270001D01*
X8487913Y12425590D01*
X8487910Y12425594D01*
X8355592Y12557912D01*
X8325900Y12577751D01*
X8325899Y12577752D01*
X8200000Y12661876D01*
X8199991Y12661881D01*
X8173806Y12672727D01*
X26909500Y12672727D01*
X26909500Y12567273D01*
X26936793Y12465413D01*
X26989520Y12374087D01*
X27064087Y12299520D01*
X27155413Y12246793D01*
X27257273Y12219500D01*
X27257275Y12219500D01*
X27362725Y12219500D01*
X27362727Y12219500D01*
X27464587Y12246793D01*
X27555913Y12299520D01*
X27630480Y12374087D01*
X27683207Y12465413D01*
X27695885Y12512727D01*
X36129500Y12512727D01*
X36129500Y12407273D01*
X36156793Y12305413D01*
X36209520Y12214087D01*
X36284087Y12139520D01*
X36375413Y12086793D01*
X36477273Y12059500D01*
X36477275Y12059500D01*
X36582725Y12059500D01*
X36582727Y12059500D01*
X36684587Y12086793D01*
X36775913Y12139520D01*
X36850480Y12214087D01*
X36903207Y12305413D01*
X36930500Y12407273D01*
X36930500Y12512727D01*
X36903207Y12614587D01*
X36850480Y12705913D01*
X36775913Y12780480D01*
X36684587Y12833207D01*
X36582727Y12860500D01*
X36477273Y12860500D01*
X36375413Y12833207D01*
X36375410Y12833206D01*
X36284085Y12780479D01*
X36209521Y12705915D01*
X36156794Y12614590D01*
X36156793Y12614587D01*
X36129500Y12512727D01*
X27695885Y12512727D01*
X27710500Y12567273D01*
X27710500Y12672727D01*
X27683207Y12774587D01*
X27630480Y12865913D01*
X27555913Y12940480D01*
X27464587Y12993207D01*
X27362727Y13020500D01*
X27257273Y13020500D01*
X27155413Y12993207D01*
X27155410Y12993206D01*
X27064085Y12940479D01*
X26989521Y12865915D01*
X26936794Y12774590D01*
X26936793Y12774587D01*
X26909500Y12672727D01*
X8173806Y12672727D01*
X8027105Y12733492D01*
X8027097Y12733494D01*
X7843570Y12770000D01*
X7500000Y12770000D01*
X7500000Y12120000D01*
X6789496Y12120000D01*
X6710504Y12120000D01*
X6634204Y12099556D01*
X6565795Y12060060D01*
X6509940Y12004205D01*
X6470444Y11935796D01*
X6450000Y11859496D01*
X6450000Y11270000D01*
X5800000Y11270000D01*
X5763681Y11233681D01*
X5762658Y11234704D01*
X5738001Y11211193D01*
X5684794Y11180474D01*
X5684785Y11180467D01*
X5619533Y11115215D01*
X5619526Y11115206D01*
X5573388Y11035294D01*
X5573387Y11035291D01*
X5573386Y11035289D01*
X5573386Y11035288D01*
X5549500Y10946144D01*
X3722793Y10946144D01*
X3799991Y10978120D01*
X3800000Y10978125D01*
X3918604Y11057373D01*
X3955589Y11082087D01*
X3955593Y11082090D01*
X4087910Y11214407D01*
X4087913Y11214411D01*
X4191875Y11370000D01*
X4191880Y11370009D01*
X4263492Y11542897D01*
X4263493Y11542900D01*
X4268884Y11570000D01*
X3516988Y11570000D01*
X3534205Y11579940D01*
X3590060Y11635795D01*
X3629556Y11704204D01*
X3650000Y11780504D01*
X3650000Y11859496D01*
X3629556Y11935796D01*
X3590060Y12004205D01*
X3534205Y12060060D01*
X3516988Y12070000D01*
X4268884Y12070000D01*
X4268884Y12070001D01*
X5831115Y12070001D01*
X5831116Y12070000D01*
X6500000Y12070000D01*
X6500000Y12738885D01*
X6499999Y12738885D01*
X6472899Y12733494D01*
X6472896Y12733493D01*
X6300008Y12661881D01*
X6299999Y12661876D01*
X6144410Y12557914D01*
X6144406Y12557911D01*
X6012089Y12425594D01*
X6012086Y12425590D01*
X5908124Y12270001D01*
X5908119Y12269992D01*
X5836507Y12097104D01*
X5836506Y12097101D01*
X5831115Y12070001D01*
X4268884Y12070001D01*
X4263493Y12097101D01*
X4263492Y12097104D01*
X4191880Y12269992D01*
X4191875Y12270001D01*
X4087913Y12425590D01*
X4087910Y12425594D01*
X3955593Y12557911D01*
X3955589Y12557914D01*
X3800000Y12661876D01*
X3799991Y12661881D01*
X3627105Y12733492D01*
X3627097Y12733494D01*
X3443570Y12770000D01*
X2950000Y12770000D01*
X2950000Y12120000D01*
X2450000Y12120000D01*
X2450000Y12770000D01*
X1956430Y12770000D01*
X1772902Y12733494D01*
X1772894Y12733492D01*
X1600008Y12661881D01*
X1599999Y12661876D01*
X1444410Y12557914D01*
X1444406Y12557911D01*
X1312089Y12425594D01*
X1312086Y12425590D01*
X1208124Y12270001D01*
X1208119Y12269992D01*
X1136507Y12097104D01*
X1136506Y12097101D01*
X1131115Y12070001D01*
X400500Y12070001D01*
X400500Y12493039D01*
X401280Y12506922D01*
X408080Y12567275D01*
X413966Y12619519D01*
X420142Y12646582D01*
X455256Y12746932D01*
X467299Y12771938D01*
X523863Y12861960D01*
X541168Y12883659D01*
X616341Y12958832D01*
X638040Y12976137D01*
X728062Y13032701D01*
X753068Y13044744D01*
X853418Y13079858D01*
X880481Y13086034D01*
X977769Y13096996D01*
X993078Y13098720D01*
X1006961Y13099500D01*
X7350654Y13099500D01*
X7350656Y13099500D01*
X7548909Y13134457D01*
X7738080Y13203310D01*
X7912421Y13303965D01*
X8066634Y13433366D01*
X8196035Y13587579D01*
X8296690Y13761920D01*
X8365543Y13951091D01*
X8400500Y14149344D01*
X8400500Y14241875D01*
X8401561Y14258060D01*
X8410278Y14324273D01*
X8418655Y14355537D01*
X8441077Y14409670D01*
X8457257Y14437696D01*
X8492932Y14484189D01*
X8515811Y14507068D01*
X8562304Y14542743D01*
X8590330Y14558923D01*
X8644463Y14581345D01*
X8675724Y14589722D01*
X8741941Y14598439D01*
X8758126Y14599500D01*
X8807583Y14599500D01*
X46442417Y14599500D01*
X46493039Y14599500D01*
X46506922Y14598721D01*
G37*
%TD.AperFunction*%
%TD*%
M02*
