M48
; DRILL file {KiCad 9.0.6-9.0.6~ubuntu24.04.1} date 2025-11-26T01:33:08+0800
; FORMAT={-:-/ absolute / metric / decimal}
; #@! TF.CreationDate,2025-11-26T01:33:08+08:00
; #@! TF.GenerationSoftware,Kicad,Pcbnew,9.0.6-9.0.6~ubuntu24.04.1
; #@! TF.FileFunction,Plated,1,4,PTH
FMAT,2
METRIC
; #@! TA.AperFunction,Plated,PTH,ViaDrill
T1C0.300
; #@! TA.AperFunction,Plated,PTH,ComponentDrill
T2C0.600
; #@! TA.AperFunction,Plated,PTH,ComponentDrill
T3C0.650
; #@! TA.AperFunction,Plated,PTH,ComponentDrill
T4C1.000
%
G90
G05
T1
X5.474Y6.87
X5.84Y7.87
X8.81Y7.13
X8.98Y8.15
X9.87Y11.9
X12.14Y1.62
X12.44Y8.4
X12.44Y7.3
X12.63Y9.27
X14.9Y10.0
X14.9Y9.32
X14.9Y8.67
X14.9Y8.02
X14.95Y4.55
X16.1Y3.89
X16.54Y0.83
X16.7Y3.9
X16.8Y10.0
X16.8Y8.95
X16.8Y7.9
X17.3Y3.9
X17.8Y10.0
X17.8Y8.95
X17.8Y7.9
X17.9Y3.9
X18.8Y10.0
X18.8Y8.95
X18.8Y7.9
X19.72Y6.22
X20.12Y7.96
X20.67Y5.35
X21.92Y3.48
X23.07Y3.45
X24.087Y6.152
X25.71Y4.64
X26.35Y12.62
X26.45Y3.1
X26.51Y2.2
X27.31Y12.62
X27.41Y3.82
X27.98Y8.41
X28.3Y3.3
X28.597Y6.743
X28.95Y9.43
X29.3Y5.68
X30.43Y8.012
X30.8Y5.6
X31.8Y2.68
X32.15Y6.02
X32.79Y5.587
X33.56Y9.01
X33.904Y9.923
X34.05Y7.3
X34.22Y9.412
X34.22Y6.42
X34.23Y8.412
X34.41Y2.45
X34.43Y1.05
X35.34Y4.89
X36.4Y4.8
X36.53Y12.46
X36.57Y9.2
X36.58Y3.78
X36.61Y7.81
X36.84Y2.91
X37.02Y2.06
X45.15Y13.5
X45.15Y12.391
X45.15Y11.282
X45.15Y10.173
X45.15Y9.064
X45.15Y7.955
X45.15Y6.845
X45.15Y5.736
X45.15Y4.627
X45.15Y3.518
X45.15Y2.409
X45.15Y1.3
X46.45Y13.5
X46.45Y12.391
X46.45Y11.282
X46.45Y10.173
X46.45Y9.064
X46.45Y7.955
X46.45Y6.845
X46.45Y5.736
X46.45Y4.627
X46.45Y3.518
X46.45Y2.409
X46.45Y1.3
T3
X29.03Y1.8
X30.3Y1.8
X31.57Y1.8
X32.84Y1.8
T4
X40.46Y12.62
X40.46Y10.08
X40.46Y7.54
X40.46Y5.0
X40.46Y2.46
X43.0Y12.62
X43.0Y10.08
X43.0Y7.54
X43.0Y5.0
X43.0Y2.46
T2
G00X3.35Y11.82
M15
G01X2.05Y11.82
M16
G05
G00X3.35Y3.18
M15
G01X2.05Y3.18
M16
G05
G00X6.75Y11.82
M15
G01X6.75Y11.22
M16
G05
G00X6.75Y3.78
M15
G01X6.75Y3.18
M16
G05
G00X7.75Y11.82
M15
G01X6.75Y11.82
M16
G05
G00X7.75Y3.18
M15
G01X6.75Y3.18
M16
G05
M30
