%TF.GenerationSoftware,KiCad,Pcbnew,9.0.6-9.0.6~ubuntu24.04.1*%
%TF.CreationDate,2025-11-26T01:33:41+08:00*%
%TF.ProjectId,demo,64656d6f-2e6b-4696-9361-645f70636258,V1.0.1*%
%TF.SameCoordinates,PX5f5e100PY5f5e100*%
%TF.FileFunction,Copper,L4,Bot*%
%TF.FilePolarity,Positive*%
%FSLAX46Y46*%
G04 Gerber Fmt 4.6, Leading zero omitted, Abs format (unit mm)*
G04 Created by KiCad (PCBNEW 9.0.6-9.0.6~ubuntu24.04.1) date 2025-11-26 01:33:41*
%MOMM*%
%LPD*%
G01*
G04 APERTURE LIST*
%TA.AperFunction,ComponentPad*%
%ADD10O,2.200000X0.900000*%
%TD*%
%TA.AperFunction,ComponentPad*%
%ADD11O,1.900000X0.900000*%
%TD*%
%TA.AperFunction,ComponentPad*%
%ADD12O,0.900000X1.500000*%
%TD*%
%TA.AperFunction,ComponentPad*%
%ADD13R,1.000000X1.000000*%
%TD*%
%TA.AperFunction,ComponentPad*%
%ADD14C,1.000000*%
%TD*%
%TA.AperFunction,ComponentPad*%
%ADD15R,1.700000X1.700000*%
%TD*%
%TA.AperFunction,ComponentPad*%
%ADD16C,1.700000*%
%TD*%
%TA.AperFunction,ViaPad*%
%ADD17C,0.500000*%
%TD*%
%TA.AperFunction,Conductor*%
%ADD18C,0.100000*%
%TD*%
G04 APERTURE END LIST*
D10*
%TO.P,J1,S1,SHIELD*%
%TO.N,GND*%
X2700000Y3180000D03*
D11*
X7250000Y3180000D03*
D12*
X6750000Y3480000D03*
X6750000Y11520000D03*
D10*
X2700000Y11820000D03*
D11*
X7250000Y11820000D03*
%TD*%
D13*
%TO.P,J3,1,Pin_1*%
%TO.N,+3V3*%
X32840000Y1800000D03*
D14*
%TO.P,J3,2,Pin_2*%
%TO.N,Net-(J3-Pin_2)*%
X31570000Y1800000D03*
%TO.P,J3,3,Pin_3*%
%TO.N,Net-(J3-Pin_3)*%
X30300000Y1800000D03*
%TO.P,J3,4,Pin_4*%
%TO.N,GND*%
X29030000Y1800000D03*
%TD*%
D15*
%TO.P,J2,1,Pin_1*%
%TO.N,+3V3*%
X40460000Y12620000D03*
D16*
%TO.P,J2,2,Pin_2*%
%TO.N,+5V*%
X43000000Y12620000D03*
%TO.P,J2,3,Pin_3*%
%TO.N,GND*%
X40460000Y10080000D03*
%TO.P,J2,4,Pin_4*%
X43000000Y10080000D03*
%TO.P,J2,5,Pin_5*%
%TO.N,Net-(J2-Pin_5)*%
X40460000Y7540000D03*
%TO.P,J2,6,Pin_6*%
%TO.N,Net-(J2-Pin_6)*%
X43000000Y7540000D03*
%TO.P,J2,7,Pin_7*%
%TO.N,Net-(J2-Pin_7)*%
X40460000Y5000000D03*
%TO.P,J2,8,Pin_8*%
%TO.N,Net-(J2-Pin_8)*%
X43000000Y5000000D03*
%TO.P,J2,9,Pin_9*%
%TO.N,/T_Tx*%
X40460000Y2460000D03*
%TO.P,J2,10,Pin_10*%
%TO.N,/T_Rx*%
X43000000Y2460000D03*
%TD*%
D17*
%TO.N,GND*%
X17900000Y3900000D03*
X17300000Y3900000D03*
X16700000Y3900000D03*
X16100000Y3890000D03*
X26350000Y12620000D03*
X25710000Y4640000D03*
X9870000Y11900000D03*
X36580000Y3780000D03*
X12630000Y9270000D03*
X28950000Y9430000D03*
%TO.N,/STM_JTCK*%
X37020000Y2060000D03*
%TO.N,/STM_JTMS*%
X36840000Y2910000D03*
X32790000Y5587500D03*
%TO.N,/STM_JTCK*%
X32150000Y6020000D03*
%TO.N,/T_JTMS*%
X36610000Y7810000D03*
X34050000Y7300000D03*
%TO.N,/T_JTCK*%
X33560000Y9010000D03*
X36570000Y9200000D03*
%TO.N,/T_NRST*%
X36400000Y4800000D03*
X30800000Y5600000D03*
%TO.N,/T_JTCK*%
X34220000Y6420000D03*
X29300000Y5680000D03*
%TO.N,/T_Tx*%
X27410000Y3820000D03*
%TO.N,/T_Rx*%
X28300000Y3300000D03*
%TO.N,GND*%
X20670000Y5350000D03*
%TO.N,/RENUM*%
X14950000Y4550000D03*
X30430000Y8012500D03*
%TO.N,Net-(J3-Pin_2)*%
X34410000Y2450000D03*
%TO.N,Net-(J3-Pin_3)*%
X34430000Y1050000D03*
%TO.N,Net-(U2-PB2)*%
X31800000Y2680000D03*
X26510000Y2200000D03*
%TO.N,Net-(U2-PA0)*%
X24086993Y6152111D03*
X28597099Y6742901D03*
%TO.N,/NRST*%
X27980000Y8410000D03*
X20120000Y7960000D03*
%TO.N,/LED_STLINK*%
X34230000Y8412500D03*
X19720000Y6220000D03*
%TO.N,/DM-*%
X34220000Y9412500D03*
%TO.N,/DP+*%
X33904073Y9922591D03*
%TO.N,/DM-*%
X12440000Y7300000D03*
%TO.N,/DP+*%
X12440000Y8400000D03*
%TO.N,Net-(J1-CC1)*%
X5474315Y6870000D03*
X8980000Y8150000D03*
%TO.N,Net-(J1-D--PadA7)*%
X8810000Y7130000D03*
X5840000Y7870000D03*
%TO.N,+3V3*%
X21920000Y3480000D03*
X12140000Y1620000D03*
X35340000Y4890000D03*
X36530000Y12460000D03*
X16540000Y830000D03*
X23070000Y3450000D03*
X26450000Y3100000D03*
X27310000Y12620000D03*
%TO.N,GND*%
X46450000Y13500000D03*
X45150000Y13500000D03*
X46450000Y12390909D03*
X45150000Y12390909D03*
%TO.N,+3V3*%
X16800000Y7900000D03*
X16800000Y8950000D03*
X17800000Y10000000D03*
X16800000Y10000000D03*
X18800000Y8950000D03*
X18800000Y7900000D03*
X18800000Y10000000D03*
X17800000Y7900000D03*
X17800000Y8950000D03*
%TO.N,GND*%
X45150000Y4627273D03*
X45150000Y3518182D03*
X45150000Y5736364D03*
X45150000Y11281818D03*
X45150000Y6845455D03*
X45150000Y2409091D03*
X45150000Y7954545D03*
X45150000Y9063636D03*
X45150000Y10172727D03*
X45150000Y1300000D03*
X46450000Y2409091D03*
X46450000Y1300000D03*
X46450000Y6845455D03*
X46450000Y3518182D03*
X46450000Y4627273D03*
X46450000Y5736364D03*
X46450000Y9063636D03*
X46450000Y7954545D03*
X46450000Y10172727D03*
X46450000Y11281818D03*
%TO.N,+5V*%
X14900000Y8020000D03*
X14900000Y8670000D03*
X14900000Y9320000D03*
X14900000Y10000000D03*
%TD*%
D18*
%TO.N,/STM_JTCK*%
X37020000Y2060000D02*
X37510000Y2550000D01*
X37510000Y2550000D02*
X37510000Y3295743D01*
X36805756Y5788500D02*
X33156100Y5788500D01*
X37510000Y3295743D02*
X37511000Y3296744D01*
X37511000Y3296744D02*
X37511000Y5083257D01*
X37510000Y5090000D02*
X36830000Y5770000D01*
X37511000Y5083257D02*
X37510000Y5084257D01*
X37510000Y5084257D02*
X37510000Y5090000D01*
X36830000Y5770000D02*
X36824256Y5770000D01*
X36824256Y5770000D02*
X36805756Y5788500D01*
X33156100Y5788500D02*
X32924600Y6020000D01*
X32924600Y6020000D02*
X32150000Y6020000D01*
%TO.N,/STM_JTMS*%
X37310000Y3380000D02*
X36840000Y2910000D01*
X37310000Y5000000D02*
X37310000Y3380000D01*
X32790000Y5587500D02*
X36722500Y5587500D01*
X36722500Y5587500D02*
X37310000Y5000000D01*
%TO.N,/T_JTMS*%
X34050000Y7300000D02*
X34050000Y7640000D01*
X34050000Y7640000D02*
X34220000Y7810000D01*
X34220000Y7810000D02*
X36610000Y7810000D01*
%TO.N,/T_JTCK*%
X36380000Y9010000D02*
X33560000Y9010000D01*
X36570000Y9200000D02*
X36380000Y9010000D01*
%TO.N,/T_Tx*%
X27410000Y3820000D02*
X28370000Y3820000D01*
X34660000Y3060000D02*
X36057128Y1662872D01*
X36253256Y1451000D02*
X39451000Y1451000D01*
X28370000Y3820000D02*
X29130000Y3060000D01*
X29130000Y3060000D02*
X31328644Y3060000D01*
X31328644Y3060000D02*
X31550644Y3282000D01*
X31550644Y3282000D02*
X32049357Y3282000D01*
X32049357Y3282000D02*
X32271356Y3060000D01*
X32271356Y3060000D02*
X34660000Y3060000D01*
X39451000Y1451000D02*
X40460000Y2460000D01*
X36057128Y1662872D02*
X36057128Y1647128D01*
X36057128Y1647128D02*
X36253256Y1451000D01*
%TO.N,/T_Rx*%
X28300000Y3300000D02*
X28749000Y2851000D01*
X34811000Y2616100D02*
X34811000Y2609000D01*
X28749000Y2851000D02*
X31403900Y2851000D01*
X36170000Y1250000D02*
X41790000Y1250000D01*
X31403900Y2851000D02*
X31633900Y3081000D01*
X31966100Y3081000D02*
X32196100Y2851000D01*
X31633900Y3081000D02*
X31966100Y3081000D01*
X32196100Y2851000D02*
X34576100Y2851000D01*
X34576100Y2851000D02*
X34811000Y2616100D01*
X34811000Y2609000D02*
X36170000Y1250000D01*
X41790000Y1250000D02*
X43000000Y2460000D01*
%TO.N,/T_NRST*%
X36400000Y4800000D02*
X35830000Y4800000D01*
X35830000Y4800000D02*
X35519000Y4489000D01*
X35519000Y4489000D02*
X31911000Y4489000D01*
X31911000Y4489000D02*
X30800000Y5600000D01*
%TO.N,/T_JTCK*%
X29300000Y5680000D02*
X30080000Y5680000D01*
X30080000Y5680000D02*
X30820000Y6420000D01*
X30820000Y6420000D02*
X34220000Y6420000D01*
%TO.N,Net-(U2-PA0)*%
X24086993Y6152111D02*
X24086993Y6156993D01*
X24086993Y6156993D02*
X24408000Y6478000D01*
X24408000Y6478000D02*
X28332198Y6478000D01*
X28332198Y6478000D02*
X28597099Y6742901D01*
%TO.N,/RENUM*%
X14950000Y4550000D02*
X14950000Y5580000D01*
X18732900Y6640000D02*
X19621789Y5751111D01*
X14950000Y5580000D02*
X16010000Y6640000D01*
X24761982Y6260000D02*
X28680000Y6260000D01*
X16010000Y6640000D02*
X18732900Y6640000D01*
X19621789Y5751111D02*
X24253093Y5751111D01*
X24253093Y5751111D02*
X24761982Y6260000D01*
X28761901Y6341901D02*
X28763199Y6341901D01*
X28998099Y6578099D02*
X30430000Y8010000D01*
X28680000Y6260000D02*
X28761901Y6341901D01*
X28763199Y6341901D02*
X28998099Y6576801D01*
X28998099Y6576801D02*
X28998099Y6578099D01*
X30430000Y8010000D02*
X30430000Y8012500D01*
%TO.N,Net-(J3-Pin_3)*%
X34430000Y1050000D02*
X31050000Y1050000D01*
X31050000Y1050000D02*
X30300000Y1800000D01*
%TO.N,Net-(U2-PB2)*%
X26790000Y2480000D02*
X26510000Y2200000D01*
X31800000Y2680000D02*
X31600000Y2480000D01*
X31600000Y2480000D02*
X26790000Y2480000D01*
%TO.N,/NRST*%
X20320000Y8410000D02*
X27980000Y8410000D01*
X20120000Y7960000D02*
X20120000Y8210000D01*
X20120000Y8210000D02*
X20320000Y8410000D01*
%TO.N,/LED_STLINK*%
X34230000Y8412500D02*
X29701012Y8412500D01*
X29701012Y8412500D02*
X27967512Y6679000D01*
X20179000Y6679000D02*
X19720000Y6220000D01*
X27967512Y6679000D02*
X20179000Y6679000D01*
%TO.N,/DM-*%
X34220000Y9412500D02*
X30416756Y9412500D01*
X30416756Y9412500D02*
X27884256Y6880000D01*
X27884256Y6880000D02*
X12860000Y6880000D01*
X12860000Y6880000D02*
X12440000Y7300000D01*
%TO.N,/DP+*%
X33904073Y9922591D02*
X30642591Y9922591D01*
X30642591Y9922591D02*
X27801000Y7081000D01*
X27801000Y7081000D02*
X13759000Y7081000D01*
X13759000Y7081000D02*
X12440000Y8400000D01*
%TO.N,Net-(J3-Pin_2)*%
X34410000Y2450000D02*
X32220000Y2450000D01*
X32220000Y2450000D02*
X31570000Y1800000D01*
%TO.N,Net-(J1-CC1)*%
X5474315Y6870000D02*
X5210000Y7134315D01*
X5210000Y7134315D02*
X5210000Y7807100D01*
X5210000Y7807100D02*
X5672900Y8270000D01*
X5672900Y8270000D02*
X8860000Y8270000D01*
X8860000Y8270000D02*
X8980000Y8150000D01*
%TO.N,Net-(J1-D--PadA7)*%
X5840000Y7870000D02*
X5600000Y7630000D01*
X5600000Y7630000D02*
X5600000Y7310000D01*
X5600000Y7310000D02*
X5780000Y7130000D01*
X5780000Y7130000D02*
X8810000Y7130000D01*
%TD*%
%TA.AperFunction,Conductor*%
%TO.N,GND*%
G36*
X46506922Y14598721D02*
G01*
X46619518Y14586034D01*
X46646583Y14579857D01*
X46746927Y14544745D01*
X46771941Y14532699D01*
X46861955Y14476140D01*
X46883662Y14458828D01*
X46958827Y14383663D01*
X46976140Y14361954D01*
X47032697Y14271944D01*
X47044745Y14246926D01*
X47079855Y14146586D01*
X47086033Y14119516D01*
X47098720Y14006923D01*
X47099500Y13993039D01*
X47099500Y1006962D01*
X47098720Y993078D01*
X47086033Y880485D01*
X47079855Y853415D01*
X47044745Y753075D01*
X47032697Y728057D01*
X46976140Y638047D01*
X46958827Y616338D01*
X46883662Y541173D01*
X46861953Y523860D01*
X46771943Y467303D01*
X46746925Y455255D01*
X46646585Y420145D01*
X46619516Y413967D01*
X46534855Y404428D01*
X46506921Y401280D01*
X46493039Y400500D01*
X16969260Y400500D01*
X16902221Y420185D01*
X16856466Y472989D01*
X16846522Y542147D01*
X16861873Y586500D01*
X16884804Y626218D01*
X16913207Y675413D01*
X16940500Y777273D01*
X16940500Y882727D01*
X16925843Y937428D01*
X28520979Y937428D01*
X28556328Y913808D01*
X28738306Y838431D01*
X28738318Y838428D01*
X28931504Y800001D01*
X28931508Y800000D01*
X29128492Y800000D01*
X29128495Y800001D01*
X29321681Y838428D01*
X29321693Y838431D01*
X29503676Y913810D01*
X29503680Y913813D01*
X29539019Y937427D01*
X29539020Y937428D01*
X29030001Y1446447D01*
X29030000Y1446447D01*
X28520979Y937428D01*
X16925843Y937428D01*
X16913207Y984587D01*
X16860480Y1075913D01*
X16785913Y1150480D01*
X16694587Y1203207D01*
X16592727Y1230500D01*
X16487273Y1230500D01*
X16385413Y1203207D01*
X16385410Y1203206D01*
X16294085Y1150479D01*
X16219521Y1075915D01*
X16166794Y984590D01*
X16166793Y984587D01*
X16139500Y882727D01*
X16139500Y777273D01*
X16166424Y676793D01*
X16166793Y675414D01*
X16166794Y675411D01*
X16218127Y586500D01*
X16234600Y518600D01*
X16211747Y452573D01*
X16156826Y409382D01*
X16110740Y400500D01*
X8758126Y400500D01*
X8741942Y401561D01*
X8716601Y404898D01*
X8675725Y410279D01*
X8644460Y418657D01*
X8590333Y441077D01*
X8562300Y457261D01*
X8549213Y467303D01*
X8515815Y492930D01*
X8492929Y515816D01*
X8457259Y562302D01*
X8441076Y590334D01*
X8430305Y616338D01*
X8418655Y644462D01*
X8410278Y675728D01*
X8401561Y741941D01*
X8400500Y758126D01*
X8400500Y850654D01*
X8400499Y850659D01*
X8400013Y853415D01*
X8365543Y1048909D01*
X8296690Y1238080D01*
X8196035Y1412421D01*
X8186984Y1423207D01*
X8120340Y1502630D01*
X8066634Y1566634D01*
X7996950Y1625106D01*
X7940198Y1672727D01*
X11739500Y1672727D01*
X11739500Y1567273D01*
X11766793Y1465413D01*
X11819520Y1374087D01*
X11894087Y1299520D01*
X11985413Y1246793D01*
X12087273Y1219500D01*
X12087275Y1219500D01*
X12192725Y1219500D01*
X12192727Y1219500D01*
X12294587Y1246793D01*
X12385913Y1299520D01*
X12460480Y1374087D01*
X12513207Y1465413D01*
X12540500Y1567273D01*
X12540500Y1672727D01*
X12513207Y1774587D01*
X12460480Y1865913D01*
X12385913Y1940480D01*
X12306921Y1986086D01*
X12294589Y1993206D01*
X12294588Y1993207D01*
X12294587Y1993207D01*
X12192727Y2020500D01*
X12087273Y2020500D01*
X11985413Y1993207D01*
X11985410Y1993206D01*
X11894085Y1940479D01*
X11819521Y1865915D01*
X11766794Y1774590D01*
X11766793Y1774587D01*
X11739500Y1672727D01*
X7940198Y1672727D01*
X7912425Y1696032D01*
X7912421Y1696035D01*
X7738084Y1796688D01*
X7738081Y1796689D01*
X7738080Y1796690D01*
X7714190Y1805385D01*
X7548908Y1865544D01*
X7350658Y1900500D01*
X7350656Y1900500D01*
X7302727Y1900500D01*
X1006961Y1900500D01*
X993077Y1901280D01*
X880484Y1913967D01*
X853414Y1920145D01*
X753074Y1955255D01*
X728056Y1967303D01*
X638046Y2023860D01*
X616337Y2041173D01*
X541172Y2116338D01*
X523859Y2138047D01*
X518061Y2147274D01*
X467301Y2228059D01*
X455254Y2253075D01*
X450553Y2266509D01*
X420143Y2353417D01*
X413966Y2380486D01*
X401280Y2493079D01*
X400500Y2506962D01*
X400500Y3430001D01*
X1131115Y3430001D01*
X1131116Y3430000D01*
X1883012Y3430000D01*
X1865795Y3420060D01*
X1809940Y3364205D01*
X1770444Y3295796D01*
X1750000Y3219496D01*
X1750000Y3140504D01*
X1770444Y3064204D01*
X1809940Y2995795D01*
X1865795Y2939940D01*
X1883012Y2930000D01*
X1131116Y2930000D01*
X1136506Y2902900D01*
X1136507Y2902897D01*
X1208119Y2730009D01*
X1208124Y2730000D01*
X1312086Y2574411D01*
X1312089Y2574407D01*
X1444406Y2442090D01*
X1444410Y2442087D01*
X1599999Y2338125D01*
X1600008Y2338120D01*
X1772894Y2266509D01*
X1772902Y2266507D01*
X1956428Y2230001D01*
X1956431Y2230000D01*
X2450000Y2230000D01*
X2450000Y2880000D01*
X2950000Y2880000D01*
X2950000Y2230000D01*
X3443569Y2230000D01*
X3443571Y2230001D01*
X3627097Y2266507D01*
X3627105Y2266509D01*
X3799991Y2338120D01*
X3800000Y2338125D01*
X3955589Y2442087D01*
X3955593Y2442090D01*
X4087910Y2574407D01*
X4087913Y2574411D01*
X4191875Y2730000D01*
X4191880Y2730009D01*
X4263492Y2902897D01*
X4263493Y2902900D01*
X4268884Y2930000D01*
X5831116Y2930000D01*
X5836506Y2902900D01*
X5836507Y2902897D01*
X5908119Y2730009D01*
X5908124Y2730000D01*
X6012086Y2574411D01*
X6012089Y2574407D01*
X6144406Y2442090D01*
X6144410Y2442087D01*
X6299999Y2338125D01*
X6300012Y2338118D01*
X6472889Y2266511D01*
X6472896Y2266509D01*
X6500000Y2261118D01*
X6500000Y2930000D01*
X5831116Y2930000D01*
X4268884Y2930000D01*
X3516988Y2930000D01*
X3534205Y2939940D01*
X3590060Y2995795D01*
X3629556Y3064204D01*
X3650000Y3140504D01*
X3650000Y3219496D01*
X3629556Y3295796D01*
X3590060Y3364205D01*
X3534205Y3420060D01*
X3516988Y3430000D01*
X4268884Y3430000D01*
X4268884Y3430001D01*
X4263493Y3457101D01*
X4263492Y3457104D01*
X4191880Y3629992D01*
X4191875Y3630001D01*
X4087913Y3785590D01*
X4087910Y3785594D01*
X3955593Y3917911D01*
X3955589Y3917914D01*
X3800000Y4021876D01*
X3799987Y4021883D01*
X3756947Y4039710D01*
X3756946Y4039710D01*
X3627105Y4093492D01*
X3627097Y4093494D01*
X3443570Y4130000D01*
X2950000Y4130000D01*
X2950000Y3480000D01*
X2450000Y3480000D01*
X2450000Y4130000D01*
X1956430Y4130000D01*
X1772902Y4093494D01*
X1772894Y4093492D01*
X1600008Y4021881D01*
X1599999Y4021876D01*
X1444410Y3917914D01*
X1444406Y3917911D01*
X1312089Y3785594D01*
X1312086Y3785590D01*
X1208124Y3630001D01*
X1208119Y3629992D01*
X1136507Y3457104D01*
X1136506Y3457101D01*
X1131115Y3430001D01*
X400500Y3430001D01*
X400500Y4146144D01*
X5549500Y4146144D01*
X5549500Y4053856D01*
X5570739Y3974590D01*
X5573387Y3964710D01*
X5573388Y3964707D01*
X5619526Y3884795D01*
X5619529Y3884791D01*
X5619531Y3884788D01*
X5684788Y3819531D01*
X5738001Y3788808D01*
X5761512Y3764151D01*
X5763681Y3766319D01*
X5800000Y3730000D01*
X6450000Y3730000D01*
X6450000Y3140504D01*
X6470444Y3064204D01*
X6509940Y2995795D01*
X6565795Y2939940D01*
X6634204Y2900444D01*
X6710504Y2880000D01*
X6789496Y2880000D01*
X7500000Y2880000D01*
X7500000Y2230000D01*
X7843569Y2230000D01*
X7843571Y2230001D01*
X8027097Y2266507D01*
X8027105Y2266509D01*
X8199991Y2338120D01*
X8200000Y2338125D01*
X8355589Y2442087D01*
X8355593Y2442090D01*
X8487910Y2574407D01*
X8487913Y2574411D01*
X8591875Y2730000D01*
X8591880Y2730009D01*
X8663492Y2902897D01*
X8663493Y2902900D01*
X8668884Y2930000D01*
X7916988Y2930000D01*
X7934205Y2939940D01*
X7990060Y2995795D01*
X8029556Y3064204D01*
X8050000Y3140504D01*
X8050000Y3219496D01*
X8029556Y3295796D01*
X7990060Y3364205D01*
X7934205Y3420060D01*
X7916988Y3430000D01*
X8668884Y3430000D01*
X8668884Y3430001D01*
X8663493Y3457100D01*
X8648457Y3493402D01*
X8648456Y3493404D01*
X8632168Y3532727D01*
X21519500Y3532727D01*
X21519500Y3427273D01*
X21546793Y3325413D01*
X21599520Y3234087D01*
X21674087Y3159520D01*
X21765413Y3106793D01*
X21867273Y3079500D01*
X21867275Y3079500D01*
X21972725Y3079500D01*
X21972727Y3079500D01*
X22074587Y3106793D01*
X22165913Y3159520D01*
X22240480Y3234087D01*
X22293207Y3325413D01*
X22320500Y3427273D01*
X22320500Y3502727D01*
X22669500Y3502727D01*
X22669500Y3397273D01*
X22696793Y3295413D01*
X22749520Y3204087D01*
X22824087Y3129520D01*
X22915413Y3076793D01*
X23017273Y3049500D01*
X23017275Y3049500D01*
X23122725Y3049500D01*
X23122727Y3049500D01*
X23224587Y3076793D01*
X23315913Y3129520D01*
X23390480Y3204087D01*
X23443207Y3295413D01*
X23470500Y3397273D01*
X23470500Y3502727D01*
X23443207Y3604587D01*
X23390480Y3695913D01*
X23315913Y3770480D01*
X23224587Y3823207D01*
X23122727Y3850500D01*
X23017273Y3850500D01*
X22915413Y3823207D01*
X22915410Y3823206D01*
X22824085Y3770479D01*
X22749521Y3695915D01*
X22696794Y3604590D01*
X22696793Y3604587D01*
X22669500Y3502727D01*
X22320500Y3502727D01*
X22320500Y3532727D01*
X22293207Y3634587D01*
X22240480Y3725913D01*
X22165913Y3800480D01*
X22074587Y3853207D01*
X21972727Y3880500D01*
X21867273Y3880500D01*
X21765413Y3853207D01*
X21765410Y3853206D01*
X21674085Y3800479D01*
X21599521Y3725915D01*
X21546794Y3634590D01*
X21546793Y3634587D01*
X21519500Y3532727D01*
X8632168Y3532727D01*
X8591880Y3629991D01*
X8591875Y3630001D01*
X8487913Y3785590D01*
X8487910Y3785594D01*
X8355593Y3917911D01*
X8355589Y3917914D01*
X8200000Y4021876D01*
X8199991Y4021881D01*
X8027105Y4093492D01*
X8027097Y4093494D01*
X7843570Y4130000D01*
X7716152Y4130000D01*
X7649113Y4149685D01*
X7603358Y4202489D01*
X7601591Y4206548D01*
X7591882Y4229988D01*
X7591875Y4230001D01*
X7487913Y4385590D01*
X7487910Y4385594D01*
X7355593Y4517911D01*
X7355589Y4517914D01*
X7200000Y4621876D01*
X7199991Y4621881D01*
X7027103Y4693493D01*
X7027100Y4693494D01*
X7000000Y4698885D01*
X7000000Y3946989D01*
X6990060Y3964205D01*
X6934205Y4020060D01*
X6865796Y4059556D01*
X6789496Y4080000D01*
X6710504Y4080000D01*
X6634204Y4059556D01*
X6565795Y4020060D01*
X6509940Y3964205D01*
X6500000Y3946989D01*
X6500000Y4698884D01*
X6499999Y4698885D01*
X6472899Y4693494D01*
X6472896Y4693493D01*
X6300008Y4621881D01*
X6299999Y4621876D01*
X6144413Y4517916D01*
X6144407Y4517912D01*
X6099964Y4473469D01*
X6038641Y4439985D01*
X5980193Y4441377D01*
X5946145Y4450500D01*
X5946144Y4450500D01*
X5853856Y4450500D01*
X5764712Y4426614D01*
X5764711Y4426614D01*
X5764709Y4426613D01*
X5764706Y4426612D01*
X5684794Y4380474D01*
X5684785Y4380467D01*
X5619533Y4315215D01*
X5619526Y4315206D01*
X5573388Y4235294D01*
X5573387Y4235291D01*
X5573386Y4235289D01*
X5573386Y4235288D01*
X5549500Y4146144D01*
X400500Y4146144D01*
X400500Y7846984D01*
X5009500Y7846984D01*
X5009500Y7094432D01*
X5040024Y7020741D01*
X5046809Y7010587D01*
X5045242Y7009541D01*
X5071531Y6961396D01*
X5072807Y6930854D01*
X5073815Y6930854D01*
X5073815Y6922727D01*
X5073815Y6817273D01*
X5101108Y6715413D01*
X5153835Y6624087D01*
X5228402Y6549520D01*
X5319728Y6496793D01*
X5421588Y6469500D01*
X5421590Y6469500D01*
X5527040Y6469500D01*
X5527042Y6469500D01*
X5628902Y6496793D01*
X5720228Y6549520D01*
X5794795Y6624087D01*
X5847522Y6715413D01*
X5874815Y6817273D01*
X5874815Y6817282D01*
X5875396Y6821688D01*
X5903664Y6885584D01*
X5961990Y6924054D01*
X5998335Y6929500D01*
X8393524Y6929500D01*
X8460563Y6909815D01*
X8483058Y6889120D01*
X8483773Y6889834D01*
X8489520Y6884087D01*
X8564087Y6809520D01*
X8655413Y6756793D01*
X8757273Y6729500D01*
X8757275Y6729500D01*
X8862725Y6729500D01*
X8862727Y6729500D01*
X8964587Y6756793D01*
X9055913Y6809520D01*
X9130480Y6884087D01*
X9183207Y6975413D01*
X9210500Y7077273D01*
X9210500Y7182727D01*
X9183207Y7284587D01*
X9130480Y7375913D01*
X9055913Y7450480D01*
X8988290Y7489522D01*
X8964589Y7503206D01*
X8964587Y7503207D01*
X8961538Y7504024D01*
X8961537Y7504025D01*
X8862727Y7530500D01*
X8757273Y7530500D01*
X8655413Y7503207D01*
X8655410Y7503206D01*
X8564085Y7450479D01*
X8483773Y7370166D01*
X8482088Y7371851D01*
X8435477Y7337813D01*
X8393524Y7330500D01*
X6165772Y7330500D01*
X6098733Y7350185D01*
X6052978Y7402989D01*
X6043034Y7472147D01*
X6072059Y7535703D01*
X6080388Y7543551D01*
X6080166Y7543773D01*
X6117512Y7581119D01*
X6160480Y7624087D01*
X6213207Y7715413D01*
X6240500Y7817273D01*
X6240500Y7922727D01*
X6240500Y7922730D01*
X6239633Y7929316D01*
X6250399Y7998351D01*
X6296780Y8050607D01*
X6362572Y8069500D01*
X8493251Y8069500D01*
X8560290Y8049815D01*
X8601796Y8001914D01*
X8602729Y8002452D01*
X8605521Y7997615D01*
X8606045Y7997011D01*
X8606581Y7995780D01*
X8606793Y7995413D01*
X8659520Y7904087D01*
X8734087Y7829520D01*
X8825413Y7776793D01*
X8927273Y7749500D01*
X8996964Y7749500D01*
X9032725Y7749500D01*
X9032727Y7749500D01*
X9134587Y7776793D01*
X9225913Y7829520D01*
X9300480Y7904087D01*
X9353207Y7995413D01*
X9380500Y8097273D01*
X9380500Y8202727D01*
X9353207Y8304587D01*
X9300480Y8395913D01*
X9243666Y8452727D01*
X12039500Y8452727D01*
X12039500Y8347273D01*
X12066793Y8245413D01*
X12119520Y8154087D01*
X12194087Y8079520D01*
X12285413Y8026793D01*
X12387273Y7999500D01*
X12387275Y7999500D01*
X12495561Y7999500D01*
X12496191Y7999735D01*
X12497271Y7999500D01*
X12500854Y7999500D01*
X12500854Y7998721D01*
X12526863Y7993063D01*
X12557879Y7988228D01*
X12561817Y7985459D01*
X12564464Y7984883D01*
X12592718Y7963732D01*
X12661668Y7894782D01*
X12695153Y7833459D01*
X12690169Y7763767D01*
X12648297Y7707834D01*
X12582833Y7683417D01*
X12541895Y7687326D01*
X12492728Y7700500D01*
X12492727Y7700500D01*
X12387273Y7700500D01*
X12285413Y7673207D01*
X12285410Y7673206D01*
X12194085Y7620479D01*
X12119521Y7545915D01*
X12066794Y7454590D01*
X12066793Y7454587D01*
X12039500Y7352727D01*
X12039500Y7247273D01*
X12066793Y7145413D01*
X12119520Y7054087D01*
X12194087Y6979520D01*
X12285413Y6926793D01*
X12387273Y6899500D01*
X12387275Y6899500D01*
X12500854Y6899500D01*
X12500854Y6897117D01*
X12557879Y6888228D01*
X12592718Y6863732D01*
X12746426Y6710024D01*
X12820118Y6679500D01*
X12899882Y6679500D01*
X15466589Y6679500D01*
X15533628Y6659815D01*
X15579383Y6607011D01*
X15589327Y6537853D01*
X15560302Y6474297D01*
X15554276Y6467826D01*
X14988565Y5902116D01*
X14818985Y5732536D01*
X14780024Y5693575D01*
X14749500Y5619884D01*
X14749500Y4966478D01*
X14729815Y4899439D01*
X14709121Y4876940D01*
X14709834Y4876227D01*
X14629520Y4795913D01*
X14576794Y4704590D01*
X14576793Y4704587D01*
X14549500Y4602727D01*
X14549500Y4497273D01*
X14576793Y4395413D01*
X14629520Y4304087D01*
X14704087Y4229520D01*
X14795413Y4176793D01*
X14897273Y4149500D01*
X14897275Y4149500D01*
X15002725Y4149500D01*
X15002727Y4149500D01*
X15104587Y4176793D01*
X15195913Y4229520D01*
X15270480Y4304087D01*
X15323207Y4395413D01*
X15350500Y4497273D01*
X15350500Y4602727D01*
X15323207Y4704587D01*
X15270480Y4795913D01*
X15195913Y4870480D01*
X15195912Y4870481D01*
X15190166Y4876227D01*
X15191847Y4877909D01*
X15157803Y4924552D01*
X15150500Y4966478D01*
X15150500Y5445589D01*
X15170185Y5512628D01*
X15186819Y5533270D01*
X16056730Y6403181D01*
X16118053Y6436666D01*
X16144411Y6439500D01*
X18598488Y6439500D01*
X18665527Y6419815D01*
X18686169Y6403181D01*
X19451813Y5637537D01*
X19508215Y5581135D01*
X19581907Y5550611D01*
X19581909Y5550611D01*
X24292973Y5550611D01*
X24292975Y5550611D01*
X24366667Y5581135D01*
X24808713Y6023181D01*
X24870036Y6056666D01*
X24896394Y6059500D01*
X28719880Y6059500D01*
X28719882Y6059500D01*
X28793574Y6090024D01*
X28796204Y6092654D01*
X28796453Y6092791D01*
X28796802Y6093249D01*
X28876384Y6171765D01*
X28876773Y6171925D01*
X29168075Y6463227D01*
X29168075Y6463228D01*
X29173388Y6468540D01*
X29179328Y6475780D01*
X30279491Y7575943D01*
X30340812Y7609426D01*
X30369145Y7610607D01*
X30369145Y7612000D01*
X30482725Y7612000D01*
X30482727Y7612000D01*
X30584587Y7639293D01*
X30675913Y7692020D01*
X30750480Y7766587D01*
X30803207Y7857913D01*
X30830500Y7959773D01*
X30830500Y8065227D01*
X30830500Y8065230D01*
X30829633Y8071816D01*
X30840399Y8140851D01*
X30886780Y8193107D01*
X30952572Y8212000D01*
X33813524Y8212000D01*
X33880563Y8192315D01*
X33903058Y8171620D01*
X33903773Y8172334D01*
X33909520Y8166587D01*
X33984087Y8092020D01*
X33988291Y8089593D01*
X33992733Y8087028D01*
X34009982Y8068937D01*
X34029997Y8053954D01*
X34033678Y8044084D01*
X34040947Y8036460D01*
X34045677Y8011915D01*
X34054414Y7988490D01*
X34052174Y7978197D01*
X34054168Y7967853D01*
X34044877Y7944649D01*
X34039563Y7920217D01*
X34029958Y7907388D01*
X34028198Y7902989D01*
X34018412Y7891962D01*
X33936426Y7809976D01*
X33936425Y7809976D01*
X33936424Y7809975D01*
X33880025Y7753576D01*
X33880022Y7753572D01*
X33847303Y7674582D01*
X33808237Y7623666D01*
X33804092Y7620485D01*
X33729520Y7545913D01*
X33676794Y7454590D01*
X33676793Y7454587D01*
X33649500Y7352727D01*
X33649500Y7247273D01*
X33676793Y7145413D01*
X33729520Y7054087D01*
X33804087Y6979520D01*
X33895413Y6926793D01*
X33896944Y6926383D01*
X33898089Y6925685D01*
X33902920Y6923684D01*
X33902787Y6923365D01*
X33907451Y6923061D01*
X33931294Y6905447D01*
X33956605Y6890019D01*
X33959084Y6884916D01*
X33963648Y6881544D01*
X33974182Y6853836D01*
X33987135Y6827173D01*
X33986461Y6821540D01*
X33988478Y6816235D01*
X33982359Y6787227D01*
X33978841Y6757797D01*
X33974922Y6751968D01*
X33974058Y6747870D01*
X33954395Y6721431D01*
X33953086Y6719483D01*
X33952771Y6719165D01*
X33899520Y6665913D01*
X33898578Y6664283D01*
X33891758Y6657375D01*
X33867694Y6644038D01*
X33845477Y6627813D01*
X33835186Y6626020D01*
X33830647Y6623503D01*
X33823444Y6623973D01*
X33803524Y6620500D01*
X30780116Y6620500D01*
X30706425Y6589976D01*
X30706424Y6589975D01*
X30033269Y5916819D01*
X30006341Y5902116D01*
X29980523Y5885523D01*
X29974322Y5884632D01*
X29971946Y5883334D01*
X29945588Y5880500D01*
X29716476Y5880500D01*
X29649437Y5900185D01*
X29626941Y5920881D01*
X29626227Y5920166D01*
X29545914Y6000479D01*
X29545913Y6000480D01*
X29479059Y6039078D01*
X29454589Y6053206D01*
X29454588Y6053207D01*
X29454587Y6053207D01*
X29352727Y6080500D01*
X29247273Y6080500D01*
X29145413Y6053207D01*
X29145410Y6053206D01*
X29058433Y6002990D01*
X29058430Y6002988D01*
X29054087Y6000480D01*
X28979520Y5925913D01*
X28978477Y5924108D01*
X28978476Y5924106D01*
X28926794Y5834590D01*
X28926793Y5834587D01*
X28899500Y5732727D01*
X28899500Y5627273D01*
X28926793Y5525413D01*
X28979520Y5434087D01*
X29054087Y5359520D01*
X29145413Y5306793D01*
X29247273Y5279500D01*
X29247275Y5279500D01*
X29352725Y5279500D01*
X29352727Y5279500D01*
X29454587Y5306793D01*
X29545913Y5359520D01*
X29620480Y5434087D01*
X29620480Y5434088D01*
X29626227Y5439834D01*
X29627911Y5438150D01*
X29674523Y5472187D01*
X29716476Y5479500D01*
X30119880Y5479500D01*
X30119882Y5479500D01*
X30193574Y5510024D01*
X30211988Y5528439D01*
X30273307Y5561922D01*
X30342998Y5556939D01*
X30398933Y5515068D01*
X30419441Y5472851D01*
X30426793Y5445413D01*
X30479520Y5354087D01*
X30554087Y5279520D01*
X30645413Y5226793D01*
X30747273Y5199500D01*
X30747275Y5199500D01*
X30860854Y5199500D01*
X30860854Y5197117D01*
X30917879Y5188228D01*
X30952718Y5163732D01*
X31797426Y4319024D01*
X31871118Y4288500D01*
X31871120Y4288500D01*
X35558880Y4288500D01*
X35558882Y4288500D01*
X35632574Y4319024D01*
X35876730Y4563182D01*
X35903657Y4577885D01*
X35929476Y4594477D01*
X35935676Y4595369D01*
X35938053Y4596666D01*
X35964411Y4599500D01*
X35983524Y4599500D01*
X36050563Y4579815D01*
X36073058Y4559120D01*
X36073773Y4559834D01*
X36079520Y4554087D01*
X36154087Y4479520D01*
X36245413Y4426793D01*
X36347273Y4399500D01*
X36347275Y4399500D01*
X36452725Y4399500D01*
X36452727Y4399500D01*
X36554587Y4426793D01*
X36645913Y4479520D01*
X36720480Y4554087D01*
X36773207Y4645413D01*
X36800500Y4747273D01*
X36800500Y4852727D01*
X36783664Y4915560D01*
X36785327Y4985404D01*
X36824489Y5043267D01*
X36888717Y5070772D01*
X36957619Y5059186D01*
X36991119Y5035332D01*
X37073182Y4953269D01*
X37106666Y4891948D01*
X37109500Y4865589D01*
X37109500Y3514414D01*
X37100855Y3484977D01*
X37094332Y3454986D01*
X37090576Y3449970D01*
X37089815Y3447375D01*
X37073181Y3426732D01*
X36992716Y3346268D01*
X36931392Y3312784D01*
X36900854Y3311510D01*
X36900854Y3310500D01*
X36787273Y3310500D01*
X36685413Y3283207D01*
X36685410Y3283206D01*
X36594085Y3230479D01*
X36519521Y3155915D01*
X36466794Y3064590D01*
X36466793Y3064587D01*
X36439500Y2962727D01*
X36439500Y2857273D01*
X36466793Y2755413D01*
X36519520Y2664087D01*
X36594087Y2589520D01*
X36685413Y2536793D01*
X36685415Y2536793D01*
X36687194Y2536055D01*
X36688464Y2535032D01*
X36692452Y2532729D01*
X36692092Y2532108D01*
X36741596Y2492213D01*
X36763660Y2425919D01*
X36746380Y2358220D01*
X36727422Y2333815D01*
X36699520Y2305913D01*
X36646794Y2214590D01*
X36646793Y2214587D01*
X36619500Y2112727D01*
X36619500Y2007273D01*
X36643529Y1917597D01*
X36646793Y1905414D01*
X36646794Y1905411D01*
X36655436Y1890443D01*
X36684609Y1839913D01*
X36686003Y1837500D01*
X36687434Y1831599D01*
X36691410Y1827011D01*
X36695574Y1798047D01*
X36702476Y1769600D01*
X36700490Y1763862D01*
X36701354Y1757853D01*
X36689197Y1731234D01*
X36679624Y1703573D01*
X36674851Y1699820D01*
X36672329Y1694297D01*
X36647707Y1678475D01*
X36624703Y1660383D01*
X36617352Y1658967D01*
X36613551Y1656523D01*
X36578616Y1651500D01*
X36387668Y1651500D01*
X36320629Y1671185D01*
X36299987Y1687819D01*
X36255678Y1732128D01*
X36228797Y1772358D01*
X36227104Y1776446D01*
X36170702Y1832848D01*
X36163637Y1839913D01*
X36163630Y1839919D01*
X35471441Y2532108D01*
X34773574Y3229976D01*
X34756281Y3237139D01*
X34699883Y3260500D01*
X34699882Y3260500D01*
X32405767Y3260500D01*
X32376326Y3269145D01*
X32346340Y3275668D01*
X32341324Y3279423D01*
X32338728Y3280185D01*
X32318086Y3296819D01*
X32236775Y3378130D01*
X32236771Y3378136D01*
X32162932Y3451975D01*
X32162931Y3451976D01*
X32110823Y3473560D01*
X32110822Y3473561D01*
X32089244Y3482499D01*
X32089240Y3482500D01*
X32089239Y3482500D01*
X31590526Y3482500D01*
X31510761Y3482500D01*
X31489177Y3473560D01*
X31489176Y3473560D01*
X31437070Y3451977D01*
X31415095Y3430001D01*
X31380668Y3395574D01*
X31281913Y3296819D01*
X31220590Y3263334D01*
X31194232Y3260500D01*
X29264412Y3260500D01*
X29197373Y3280185D01*
X29176731Y3296819D01*
X28483574Y3989976D01*
X28409883Y4020500D01*
X28409882Y4020500D01*
X27826476Y4020500D01*
X27759437Y4040185D01*
X27736941Y4060881D01*
X27736227Y4060166D01*
X27655914Y4140479D01*
X27655913Y4140480D01*
X27564587Y4193207D01*
X27462727Y4220500D01*
X27357273Y4220500D01*
X27255413Y4193207D01*
X27255410Y4193206D01*
X27164085Y4140479D01*
X27089521Y4065915D01*
X27036794Y3974590D01*
X27036793Y3974587D01*
X27009500Y3872727D01*
X27009500Y3767273D01*
X27036793Y3665413D01*
X27089520Y3574087D01*
X27164087Y3499520D01*
X27255413Y3446793D01*
X27357273Y3419500D01*
X27357275Y3419500D01*
X27462725Y3419500D01*
X27462727Y3419500D01*
X27564587Y3446793D01*
X27655913Y3499520D01*
X27715161Y3558769D01*
X27776480Y3592251D01*
X27846172Y3587267D01*
X27902106Y3545396D01*
X27926523Y3479932D01*
X27922614Y3438993D01*
X27899500Y3352729D01*
X27899500Y3352727D01*
X27899500Y3247273D01*
X27926793Y3145413D01*
X27979520Y3054087D01*
X28054087Y2979520D01*
X28145413Y2926793D01*
X28154813Y2924275D01*
X28214472Y2887910D01*
X28245002Y2825064D01*
X28236708Y2755688D01*
X28192223Y2701810D01*
X28125671Y2680535D01*
X28122719Y2680500D01*
X26885033Y2680500D01*
X26817994Y2700185D01*
X26772239Y2752989D01*
X26762295Y2822147D01*
X26777644Y2866496D01*
X26823207Y2945413D01*
X26850500Y3047273D01*
X26850500Y3152727D01*
X26823207Y3254587D01*
X26770480Y3345913D01*
X26695913Y3420480D01*
X26626596Y3460500D01*
X26604589Y3473206D01*
X26604588Y3473207D01*
X26604587Y3473207D01*
X26502727Y3500500D01*
X26397273Y3500500D01*
X26295413Y3473207D01*
X26295410Y3473206D01*
X26204085Y3420479D01*
X26129521Y3345915D01*
X26076794Y3254590D01*
X26076793Y3254587D01*
X26049500Y3152727D01*
X26049500Y3047273D01*
X26076793Y2945413D01*
X26129520Y2854087D01*
X26204087Y2779520D01*
X26272424Y2740066D01*
X26320638Y2689500D01*
X26333862Y2620893D01*
X26307894Y2556028D01*
X26272427Y2525295D01*
X26264085Y2520479D01*
X26189521Y2445915D01*
X26136794Y2354590D01*
X26136793Y2354587D01*
X26109500Y2252727D01*
X26109500Y2147273D01*
X26136793Y2045413D01*
X26189520Y1954087D01*
X26264087Y1879520D01*
X26355413Y1826793D01*
X26457273Y1799500D01*
X26457275Y1799500D01*
X26562725Y1799500D01*
X26562727Y1799500D01*
X26664587Y1826793D01*
X26755913Y1879520D01*
X26830480Y1954087D01*
X26883207Y2045413D01*
X26910500Y2147273D01*
X26910500Y2155500D01*
X26930185Y2222539D01*
X26982989Y2268294D01*
X27034500Y2279500D01*
X27960644Y2279500D01*
X28027683Y2259815D01*
X28073438Y2207011D01*
X28083382Y2137853D01*
X28075205Y2108047D01*
X28068429Y2091690D01*
X28068427Y2091682D01*
X28030000Y1898496D01*
X28030000Y1701505D01*
X28068427Y1508319D01*
X28068430Y1508307D01*
X28143808Y1326327D01*
X28143809Y1326325D01*
X28167426Y1290981D01*
X28705000Y1828555D01*
X28705000Y1757213D01*
X28727149Y1674555D01*
X28769936Y1600446D01*
X28830446Y1539936D01*
X28904555Y1497149D01*
X28987213Y1475000D01*
X29072787Y1475000D01*
X29155445Y1497149D01*
X29229554Y1539936D01*
X29290064Y1600446D01*
X29332851Y1674555D01*
X29355000Y1757213D01*
X29355000Y1828553D01*
X29779044Y1404509D01*
X29794464Y1385720D01*
X29794720Y1385336D01*
X29794721Y1385335D01*
X29794724Y1385331D01*
X29853728Y1326327D01*
X29885332Y1294723D01*
X29991866Y1223539D01*
X29991872Y1223536D01*
X29991873Y1223535D01*
X30110256Y1174499D01*
X30110260Y1174499D01*
X30110261Y1174498D01*
X30235928Y1149500D01*
X30235931Y1149500D01*
X30364071Y1149500D01*
X30448615Y1166318D01*
X30489744Y1174499D01*
X30520824Y1187374D01*
X30590291Y1194842D01*
X30652771Y1163568D01*
X30655957Y1160493D01*
X30936426Y880024D01*
X31010118Y849500D01*
X31089882Y849500D01*
X34013524Y849500D01*
X34080563Y829815D01*
X34103058Y809120D01*
X34103773Y809834D01*
X34109520Y804087D01*
X34184087Y729520D01*
X34275413Y676793D01*
X34377273Y649500D01*
X34377275Y649500D01*
X34482725Y649500D01*
X34482727Y649500D01*
X34584587Y676793D01*
X34675913Y729520D01*
X34750480Y804087D01*
X34803207Y895413D01*
X34830500Y997273D01*
X34830500Y1102727D01*
X34803207Y1204587D01*
X34750480Y1295913D01*
X34675913Y1370480D01*
X34584587Y1423207D01*
X34482727Y1450500D01*
X34377273Y1450500D01*
X34275413Y1423207D01*
X34275410Y1423206D01*
X34184085Y1370479D01*
X34103773Y1290166D01*
X34102088Y1291851D01*
X34055477Y1257813D01*
X34013524Y1250500D01*
X33614500Y1250500D01*
X33547461Y1270185D01*
X33501706Y1322989D01*
X33490500Y1374500D01*
X33490500Y2125500D01*
X33510185Y2192539D01*
X33562989Y2238294D01*
X33614500Y2249500D01*
X33993524Y2249500D01*
X34060563Y2229815D01*
X34083058Y2209120D01*
X34083773Y2209834D01*
X34089520Y2204087D01*
X34164087Y2129520D01*
X34255413Y2076793D01*
X34357273Y2049500D01*
X34357275Y2049500D01*
X34462725Y2049500D01*
X34462727Y2049500D01*
X34564587Y2076793D01*
X34655913Y2129520D01*
X34730480Y2204087D01*
X34730484Y2204095D01*
X34732053Y2206138D01*
X34733825Y2207433D01*
X34736227Y2209834D01*
X34736601Y2209460D01*
X34788479Y2247343D01*
X34858225Y2251501D01*
X34918113Y2218337D01*
X36056426Y1080024D01*
X36130118Y1049500D01*
X36130120Y1049500D01*
X41829880Y1049500D01*
X41829882Y1049500D01*
X41903574Y1080024D01*
X42376882Y1553334D01*
X42438203Y1586817D01*
X42507894Y1581833D01*
X42523010Y1575011D01*
X42526082Y1573369D01*
X42683129Y1508319D01*
X42708165Y1497949D01*
X42708169Y1497949D01*
X42708170Y1497948D01*
X42901456Y1459500D01*
X42901459Y1459500D01*
X43098543Y1459500D01*
X43261289Y1491873D01*
X43291835Y1497949D01*
X43473914Y1573368D01*
X43637782Y1682861D01*
X43777139Y1822218D01*
X43886632Y1986086D01*
X43962051Y2168165D01*
X43981613Y2266509D01*
X44000500Y2361457D01*
X44000500Y2558544D01*
X43962052Y2751830D01*
X43962051Y2751831D01*
X43962051Y2751835D01*
X43919697Y2854087D01*
X43886635Y2933908D01*
X43886628Y2933921D01*
X43777139Y3097782D01*
X43777136Y3097786D01*
X43637785Y3237137D01*
X43637781Y3237140D01*
X43473920Y3346629D01*
X43473907Y3346636D01*
X43291839Y3422050D01*
X43291829Y3422053D01*
X43098543Y3460500D01*
X43098541Y3460500D01*
X42901459Y3460500D01*
X42901457Y3460500D01*
X42708170Y3422053D01*
X42708160Y3422050D01*
X42526092Y3346636D01*
X42526079Y3346629D01*
X42362218Y3237140D01*
X42362214Y3237137D01*
X42222863Y3097786D01*
X42222860Y3097782D01*
X42113371Y2933921D01*
X42113364Y2933908D01*
X42037950Y2751840D01*
X42037947Y2751830D01*
X41999500Y2558544D01*
X41999500Y2558541D01*
X41999500Y2361459D01*
X41999500Y2361457D01*
X41999499Y2361457D01*
X42037947Y2168171D01*
X42037950Y2168161D01*
X42113366Y1986088D01*
X42115007Y1983019D01*
X42115380Y1981227D01*
X42115699Y1980457D01*
X42115553Y1980397D01*
X42129250Y1914617D01*
X42104251Y1849372D01*
X42093331Y1836883D01*
X41743269Y1486819D01*
X41681946Y1453334D01*
X41655588Y1450500D01*
X41158803Y1450500D01*
X41091764Y1470185D01*
X41046009Y1522989D01*
X41036065Y1592147D01*
X41065090Y1655703D01*
X41089912Y1677602D01*
X41093031Y1679687D01*
X41097782Y1682861D01*
X41237139Y1822218D01*
X41346632Y1986086D01*
X41422051Y2168165D01*
X41441613Y2266509D01*
X41460500Y2361457D01*
X41460500Y2558544D01*
X41422052Y2751830D01*
X41422051Y2751831D01*
X41422051Y2751835D01*
X41379697Y2854087D01*
X41346635Y2933908D01*
X41346628Y2933921D01*
X41237139Y3097782D01*
X41237136Y3097786D01*
X41097785Y3237137D01*
X41097781Y3237140D01*
X40933920Y3346629D01*
X40933907Y3346636D01*
X40751839Y3422050D01*
X40751829Y3422053D01*
X40558543Y3460500D01*
X40558541Y3460500D01*
X40361459Y3460500D01*
X40361457Y3460500D01*
X40168170Y3422053D01*
X40168160Y3422050D01*
X39986092Y3346636D01*
X39986079Y3346629D01*
X39822218Y3237140D01*
X39822214Y3237137D01*
X39682863Y3097786D01*
X39682860Y3097782D01*
X39573371Y2933921D01*
X39573364Y2933908D01*
X39497950Y2751840D01*
X39497947Y2751830D01*
X39459500Y2558544D01*
X39459500Y2558541D01*
X39459500Y2361459D01*
X39459500Y2361457D01*
X39459499Y2361457D01*
X39497947Y2168171D01*
X39497950Y2168161D01*
X39573366Y1986088D01*
X39575007Y1983019D01*
X39575380Y1981227D01*
X39575699Y1980457D01*
X39575553Y1980397D01*
X39580284Y1957674D01*
X39589334Y1933411D01*
X39587291Y1924022D01*
X39589250Y1914617D01*
X39579987Y1890443D01*
X39574483Y1865138D01*
X39565897Y1853669D01*
X39564251Y1849372D01*
X39553332Y1836883D01*
X39404267Y1687818D01*
X39342947Y1654334D01*
X39316588Y1651500D01*
X37461384Y1651500D01*
X37394345Y1671185D01*
X37348590Y1723989D01*
X37338646Y1793147D01*
X37353997Y1837500D01*
X37393207Y1905413D01*
X37420500Y2007273D01*
X37420500Y2112727D01*
X37420500Y2120854D01*
X37422882Y2120854D01*
X37431774Y2177884D01*
X37456268Y2212719D01*
X37538962Y2295413D01*
X37679976Y2436426D01*
X37710500Y2510118D01*
X37710500Y2589882D01*
X37710500Y3239594D01*
X37710519Y3241757D01*
X37710751Y3255054D01*
X37711500Y3256862D01*
X37711500Y3256914D01*
X37711520Y3256962D01*
X37711500Y3296844D01*
X37711500Y4901457D01*
X39459499Y4901457D01*
X39497947Y4708171D01*
X39497950Y4708161D01*
X39573364Y4526093D01*
X39573371Y4526080D01*
X39682860Y4362219D01*
X39682863Y4362215D01*
X39822214Y4222864D01*
X39822218Y4222861D01*
X39986079Y4113372D01*
X39986092Y4113365D01*
X40168160Y4037951D01*
X40168165Y4037949D01*
X40168169Y4037949D01*
X40168170Y4037948D01*
X40361456Y3999500D01*
X40361459Y3999500D01*
X40558543Y3999500D01*
X40688582Y4025368D01*
X40751835Y4037949D01*
X40933914Y4113368D01*
X41097782Y4222861D01*
X41237139Y4362218D01*
X41346632Y4526086D01*
X41422051Y4708165D01*
X41446224Y4829687D01*
X41460500Y4901457D01*
X41999499Y4901457D01*
X42037947Y4708171D01*
X42037950Y4708161D01*
X42113364Y4526093D01*
X42113371Y4526080D01*
X42222860Y4362219D01*
X42222863Y4362215D01*
X42362214Y4222864D01*
X42362218Y4222861D01*
X42526079Y4113372D01*
X42526092Y4113365D01*
X42708160Y4037951D01*
X42708165Y4037949D01*
X42708169Y4037949D01*
X42708170Y4037948D01*
X42901456Y3999500D01*
X42901459Y3999500D01*
X43098543Y3999500D01*
X43228582Y4025368D01*
X43291835Y4037949D01*
X43473914Y4113368D01*
X43637782Y4222861D01*
X43777139Y4362218D01*
X43886632Y4526086D01*
X43962051Y4708165D01*
X43986224Y4829687D01*
X44000500Y4901457D01*
X44000500Y5098544D01*
X43962052Y5291830D01*
X43962051Y5291831D01*
X43962051Y5291835D01*
X43955855Y5306794D01*
X43886635Y5473908D01*
X43886628Y5473921D01*
X43777139Y5637782D01*
X43777136Y5637786D01*
X43637785Y5777137D01*
X43637781Y5777140D01*
X43473920Y5886629D01*
X43473907Y5886636D01*
X43291839Y5962050D01*
X43291829Y5962053D01*
X43098543Y6000500D01*
X43098541Y6000500D01*
X42901459Y6000500D01*
X42901457Y6000500D01*
X42708170Y5962053D01*
X42708160Y5962050D01*
X42526092Y5886636D01*
X42526079Y5886629D01*
X42362218Y5777140D01*
X42362214Y5777137D01*
X42222863Y5637786D01*
X42222860Y5637782D01*
X42113371Y5473921D01*
X42113364Y5473908D01*
X42037950Y5291840D01*
X42037947Y5291830D01*
X41999500Y5098544D01*
X41999500Y5098541D01*
X41999500Y4901459D01*
X41999500Y4901457D01*
X41999499Y4901457D01*
X41460500Y4901457D01*
X41460500Y5098544D01*
X41422052Y5291830D01*
X41422051Y5291831D01*
X41422051Y5291835D01*
X41415855Y5306794D01*
X41346635Y5473908D01*
X41346628Y5473921D01*
X41237139Y5637782D01*
X41237136Y5637786D01*
X41097785Y5777137D01*
X41097781Y5777140D01*
X40933920Y5886629D01*
X40933907Y5886636D01*
X40751839Y5962050D01*
X40751829Y5962053D01*
X40558543Y6000500D01*
X40558541Y6000500D01*
X40361459Y6000500D01*
X40361457Y6000500D01*
X40168170Y5962053D01*
X40168160Y5962050D01*
X39986092Y5886636D01*
X39986079Y5886629D01*
X39822218Y5777140D01*
X39822214Y5777137D01*
X39682863Y5637786D01*
X39682860Y5637782D01*
X39573371Y5473921D01*
X39573364Y5473908D01*
X39497950Y5291840D01*
X39497947Y5291830D01*
X39459500Y5098544D01*
X39459500Y5098541D01*
X39459500Y4901459D01*
X39459500Y4901457D01*
X39459499Y4901457D01*
X37711500Y4901457D01*
X37711500Y5123139D01*
X37710891Y5124609D01*
X37710784Y5128450D01*
X37710500Y5129879D01*
X37710500Y5129882D01*
X37679976Y5203574D01*
X37623574Y5259976D01*
X37295949Y5587601D01*
X36943577Y5939974D01*
X36936417Y5944758D01*
X36921335Y5957136D01*
X36919330Y5958476D01*
X36845639Y5989000D01*
X36845638Y5989000D01*
X34648394Y5989000D01*
X34581355Y6008685D01*
X34535600Y6061489D01*
X34525656Y6130647D01*
X34541007Y6175000D01*
X34548768Y6188443D01*
X34593207Y6265413D01*
X34620500Y6367273D01*
X34620500Y6472727D01*
X34593207Y6574587D01*
X34540480Y6665913D01*
X34465913Y6740480D01*
X34374587Y6793207D01*
X34374586Y6793208D01*
X34374582Y6793209D01*
X34373047Y6793620D01*
X34371898Y6794321D01*
X34367080Y6796316D01*
X34367391Y6797068D01*
X34313388Y6829988D01*
X34282863Y6892837D01*
X34291161Y6962212D01*
X34317464Y7001072D01*
X34370480Y7054087D01*
X34423207Y7145413D01*
X34450500Y7247273D01*
X34450500Y7352727D01*
X34423523Y7453408D01*
X34425186Y7523257D01*
X34464349Y7581119D01*
X34528577Y7608623D01*
X34543298Y7609500D01*
X36193524Y7609500D01*
X36260563Y7589815D01*
X36283058Y7569120D01*
X36283773Y7569834D01*
X36289520Y7564087D01*
X36364087Y7489520D01*
X36455413Y7436793D01*
X36557273Y7409500D01*
X36557275Y7409500D01*
X36662725Y7409500D01*
X36662727Y7409500D01*
X36764587Y7436793D01*
X36855913Y7489520D01*
X36930480Y7564087D01*
X36983207Y7655413D01*
X37010500Y7757273D01*
X37010500Y7862727D01*
X36983207Y7964587D01*
X36930480Y8055913D01*
X36855913Y8130480D01*
X36779512Y8174590D01*
X36764589Y8183206D01*
X36764588Y8183207D01*
X36764587Y8183207D01*
X36662727Y8210500D01*
X36557273Y8210500D01*
X36455413Y8183207D01*
X36455410Y8183206D01*
X36364085Y8130479D01*
X36283773Y8050166D01*
X36282088Y8051851D01*
X36235477Y8017813D01*
X36193524Y8010500D01*
X34675137Y8010500D01*
X34608098Y8030185D01*
X34562343Y8082989D01*
X34552399Y8152147D01*
X34567750Y8196500D01*
X34571345Y8202727D01*
X34603207Y8257913D01*
X34630500Y8359773D01*
X34630500Y8465227D01*
X34603207Y8567087D01*
X34570637Y8623500D01*
X34554164Y8691400D01*
X34577017Y8757427D01*
X34631938Y8800618D01*
X34678024Y8809500D01*
X36419881Y8809500D01*
X36419882Y8809500D01*
X36419882Y8809501D01*
X36425998Y8810717D01*
X36482285Y8808875D01*
X36489972Y8806816D01*
X36517273Y8799500D01*
X36517274Y8799500D01*
X36622725Y8799500D01*
X36622727Y8799500D01*
X36724587Y8826793D01*
X36815913Y8879520D01*
X36890480Y8954087D01*
X36943207Y9045413D01*
X36970500Y9147273D01*
X36970500Y9252727D01*
X36943207Y9354587D01*
X36890480Y9445913D01*
X36815913Y9520480D01*
X36724587Y9573207D01*
X36622727Y9600500D01*
X36517273Y9600500D01*
X36415413Y9573207D01*
X36415410Y9573206D01*
X36324085Y9520479D01*
X36249521Y9445915D01*
X36196794Y9354590D01*
X36196793Y9354587D01*
X36187066Y9318283D01*
X36182812Y9302407D01*
X36146447Y9242746D01*
X36083600Y9212217D01*
X36063037Y9210500D01*
X34742102Y9210500D01*
X34675063Y9230185D01*
X34629308Y9282989D01*
X34619364Y9352147D01*
X34619731Y9353939D01*
X34620500Y9359775D01*
X34620500Y9465225D01*
X34620500Y9465227D01*
X34593207Y9567087D01*
X34540480Y9658413D01*
X34465913Y9732980D01*
X34374587Y9785707D01*
X34367548Y9789771D01*
X34369188Y9792613D01*
X34326708Y9826855D01*
X34304651Y9893152D01*
X34304573Y9897562D01*
X34304573Y9975316D01*
X34304573Y9975318D01*
X34277280Y10077178D01*
X34250772Y10123091D01*
X34247292Y10129119D01*
X34247291Y10129121D01*
X34224552Y10168505D01*
X34206810Y10186247D01*
X39110000Y10186247D01*
X39110000Y9973754D01*
X39143242Y9763873D01*
X39143242Y9763870D01*
X39208904Y9561783D01*
X39305375Y9372450D01*
X39344728Y9318284D01*
X39977037Y9950592D01*
X39994075Y9887007D01*
X40059901Y9772993D01*
X40152993Y9679901D01*
X40267007Y9614075D01*
X40330590Y9597038D01*
X39698282Y8964731D01*
X39698282Y8964730D01*
X39752449Y8925376D01*
X39941782Y8828905D01*
X40143865Y8763245D01*
X40202587Y8753944D01*
X40265722Y8724015D01*
X40302654Y8664703D01*
X40301656Y8594841D01*
X40263047Y8536608D01*
X40207384Y8509853D01*
X40168167Y8502052D01*
X40168160Y8502050D01*
X39986092Y8426636D01*
X39986079Y8426629D01*
X39822218Y8317140D01*
X39822214Y8317137D01*
X39682863Y8177786D01*
X39682860Y8177782D01*
X39573371Y8013921D01*
X39573364Y8013908D01*
X39497950Y7831840D01*
X39497947Y7831830D01*
X39459500Y7638544D01*
X39459500Y7638541D01*
X39459500Y7441459D01*
X39459500Y7441457D01*
X39459499Y7441457D01*
X39497947Y7248171D01*
X39497950Y7248161D01*
X39573364Y7066093D01*
X39573371Y7066080D01*
X39682860Y6902219D01*
X39682863Y6902215D01*
X39822214Y6762864D01*
X39822218Y6762861D01*
X39986079Y6653372D01*
X39986092Y6653365D01*
X40139129Y6589976D01*
X40168165Y6577949D01*
X40168169Y6577949D01*
X40168170Y6577948D01*
X40361456Y6539500D01*
X40361459Y6539500D01*
X40558543Y6539500D01*
X40734948Y6574590D01*
X40751835Y6577949D01*
X40933914Y6653368D01*
X41097782Y6762861D01*
X41237139Y6902218D01*
X41346632Y7066086D01*
X41422051Y7248165D01*
X41447462Y7375913D01*
X41460500Y7441457D01*
X41460500Y7638544D01*
X41422052Y7831830D01*
X41422051Y7831831D01*
X41422051Y7831835D01*
X41415776Y7846984D01*
X41346635Y8013908D01*
X41346628Y8013921D01*
X41237139Y8177782D01*
X41237136Y8177786D01*
X41097785Y8317137D01*
X41097781Y8317140D01*
X40933920Y8426629D01*
X40933907Y8426636D01*
X40751839Y8502050D01*
X40751830Y8502053D01*
X40712616Y8509853D01*
X40650705Y8542239D01*
X40616132Y8602955D01*
X40619873Y8672725D01*
X40660740Y8729396D01*
X40717412Y8753944D01*
X40776134Y8763245D01*
X40978217Y8828905D01*
X41167554Y8925378D01*
X41221716Y8964730D01*
X41221717Y8964730D01*
X40589408Y9597038D01*
X40652993Y9614075D01*
X40767007Y9679901D01*
X40860099Y9772993D01*
X40925925Y9887007D01*
X40942962Y9950591D01*
X41575270Y9318283D01*
X41575270Y9318284D01*
X41614622Y9372446D01*
X41619514Y9382046D01*
X41667488Y9432843D01*
X41735308Y9449639D01*
X41801444Y9427103D01*
X41840486Y9382046D01*
X41845375Y9372450D01*
X41884728Y9318284D01*
X42517037Y9950592D01*
X42534075Y9887007D01*
X42599901Y9772993D01*
X42692993Y9679901D01*
X42807007Y9614075D01*
X42870590Y9597038D01*
X42238282Y8964731D01*
X42238282Y8964730D01*
X42292449Y8925376D01*
X42481782Y8828905D01*
X42683865Y8763245D01*
X42742587Y8753944D01*
X42805722Y8724015D01*
X42842654Y8664703D01*
X42841656Y8594841D01*
X42803047Y8536608D01*
X42747384Y8509853D01*
X42708167Y8502052D01*
X42708160Y8502050D01*
X42526092Y8426636D01*
X42526079Y8426629D01*
X42362218Y8317140D01*
X42362214Y8317137D01*
X42222863Y8177786D01*
X42222860Y8177782D01*
X42113371Y8013921D01*
X42113364Y8013908D01*
X42037950Y7831840D01*
X42037947Y7831830D01*
X41999500Y7638544D01*
X41999500Y7638541D01*
X41999500Y7441459D01*
X41999500Y7441457D01*
X41999499Y7441457D01*
X42037947Y7248171D01*
X42037950Y7248161D01*
X42113364Y7066093D01*
X42113371Y7066080D01*
X42222860Y6902219D01*
X42222863Y6902215D01*
X42362214Y6762864D01*
X42362218Y6762861D01*
X42526079Y6653372D01*
X42526092Y6653365D01*
X42679129Y6589976D01*
X42708165Y6577949D01*
X42708169Y6577949D01*
X42708170Y6577948D01*
X42901456Y6539500D01*
X42901459Y6539500D01*
X43098543Y6539500D01*
X43274948Y6574590D01*
X43291835Y6577949D01*
X43473914Y6653368D01*
X43637782Y6762861D01*
X43777139Y6902218D01*
X43886632Y7066086D01*
X43962051Y7248165D01*
X43987462Y7375913D01*
X44000500Y7441457D01*
X44000500Y7638544D01*
X43962052Y7831830D01*
X43962051Y7831831D01*
X43962051Y7831835D01*
X43955776Y7846984D01*
X43886635Y8013908D01*
X43886628Y8013921D01*
X43777139Y8177782D01*
X43777136Y8177786D01*
X43637785Y8317137D01*
X43637781Y8317140D01*
X43473920Y8426629D01*
X43473907Y8426636D01*
X43291839Y8502050D01*
X43291830Y8502053D01*
X43252616Y8509853D01*
X43190705Y8542239D01*
X43156132Y8602955D01*
X43159873Y8672725D01*
X43200740Y8729396D01*
X43257412Y8753944D01*
X43316134Y8763245D01*
X43518217Y8828905D01*
X43707554Y8925378D01*
X43761716Y8964730D01*
X43761717Y8964730D01*
X43129408Y9597038D01*
X43192993Y9614075D01*
X43307007Y9679901D01*
X43400099Y9772993D01*
X43465925Y9887007D01*
X43482962Y9950592D01*
X44115270Y9318283D01*
X44115270Y9318284D01*
X44154622Y9372446D01*
X44251095Y9561783D01*
X44316757Y9763870D01*
X44316757Y9763873D01*
X44350000Y9973754D01*
X44350000Y10186247D01*
X44316757Y10396128D01*
X44316757Y10396131D01*
X44251095Y10598218D01*
X44154624Y10787551D01*
X44115270Y10841718D01*
X44115269Y10841718D01*
X43482962Y10209410D01*
X43465925Y10272993D01*
X43400099Y10387007D01*
X43307007Y10480099D01*
X43192993Y10545925D01*
X43129409Y10562963D01*
X43761716Y11195272D01*
X43707550Y11234625D01*
X43518217Y11331096D01*
X43316128Y11396758D01*
X43257411Y11406058D01*
X43194276Y11435988D01*
X43157345Y11495299D01*
X43158343Y11565162D01*
X43196953Y11623394D01*
X43252615Y11650148D01*
X43291835Y11657949D01*
X43473914Y11733368D01*
X43637782Y11842861D01*
X43777139Y11982218D01*
X43886632Y12146086D01*
X43962051Y12328165D01*
X43994847Y12493039D01*
X44000500Y12521457D01*
X44000500Y12718544D01*
X43962052Y12911830D01*
X43962051Y12911831D01*
X43962051Y12911835D01*
X43962049Y12911840D01*
X43886635Y13093908D01*
X43886628Y13093921D01*
X43777139Y13257782D01*
X43777136Y13257786D01*
X43637785Y13397137D01*
X43637781Y13397140D01*
X43473920Y13506629D01*
X43473907Y13506636D01*
X43291839Y13582050D01*
X43291829Y13582053D01*
X43098543Y13620500D01*
X43098541Y13620500D01*
X42901459Y13620500D01*
X42901457Y13620500D01*
X42708170Y13582053D01*
X42708160Y13582050D01*
X42526092Y13506636D01*
X42526079Y13506629D01*
X42362218Y13397140D01*
X42362214Y13397137D01*
X42222863Y13257786D01*
X42222860Y13257782D01*
X42113371Y13093921D01*
X42113364Y13093908D01*
X42037950Y12911840D01*
X42037947Y12911830D01*
X41999500Y12718544D01*
X41999500Y12718541D01*
X41999500Y12521459D01*
X41999500Y12521457D01*
X41999499Y12521457D01*
X42037947Y12328171D01*
X42037950Y12328161D01*
X42113364Y12146093D01*
X42113371Y12146080D01*
X42222860Y11982219D01*
X42222863Y11982215D01*
X42362214Y11842864D01*
X42362218Y11842861D01*
X42526079Y11733372D01*
X42526092Y11733365D01*
X42708160Y11657951D01*
X42708165Y11657949D01*
X42728491Y11653906D01*
X42747381Y11650148D01*
X42809292Y11617763D01*
X42843866Y11557048D01*
X42840127Y11487278D01*
X42799261Y11430606D01*
X42742589Y11406058D01*
X42683870Y11396758D01*
X42683869Y11396758D01*
X42481782Y11331096D01*
X42292439Y11234620D01*
X42238282Y11195273D01*
X42238282Y11195272D01*
X42870591Y10562963D01*
X42807007Y10545925D01*
X42692993Y10480099D01*
X42599901Y10387007D01*
X42534075Y10272993D01*
X42517037Y10209409D01*
X41884728Y10841718D01*
X41884727Y10841718D01*
X41845380Y10787560D01*
X41840483Y10777949D01*
X41792506Y10727155D01*
X41724684Y10710362D01*
X41658550Y10732902D01*
X41619516Y10777952D01*
X41614626Y10787548D01*
X41575270Y10841718D01*
X41575269Y10841718D01*
X40942962Y10209410D01*
X40925925Y10272993D01*
X40860099Y10387007D01*
X40767007Y10480099D01*
X40652993Y10545925D01*
X40589409Y10562963D01*
X41221716Y11195272D01*
X41167550Y11234625D01*
X40978217Y11331096D01*
X40835186Y11377569D01*
X40777511Y11417006D01*
X40750312Y11481365D01*
X40762227Y11550211D01*
X40809471Y11601687D01*
X40873504Y11619500D01*
X41324822Y11619500D01*
X41368717Y11628232D01*
X41368717Y11628233D01*
X41368722Y11628233D01*
X41418504Y11661496D01*
X41451767Y11711278D01*
X41460500Y11755180D01*
X41460500Y13484820D01*
X41460500Y13484823D01*
X41451768Y13528718D01*
X41451767Y13528719D01*
X41451767Y13528722D01*
X41418504Y13578504D01*
X41413197Y13582050D01*
X41368724Y13611766D01*
X41368717Y13611769D01*
X41324822Y13620500D01*
X41324820Y13620500D01*
X39595180Y13620500D01*
X39595178Y13620500D01*
X39551282Y13611769D01*
X39551275Y13611766D01*
X39501496Y13578505D01*
X39501495Y13578504D01*
X39468234Y13528725D01*
X39468231Y13528718D01*
X39459500Y13484823D01*
X39459500Y13484820D01*
X39459500Y11755180D01*
X39459500Y11755178D01*
X39459499Y11755178D01*
X39468231Y11711283D01*
X39468234Y11711276D01*
X39501495Y11661497D01*
X39501496Y11661496D01*
X39551278Y11628233D01*
X39551281Y11628233D01*
X39551282Y11628232D01*
X39595177Y11619500D01*
X40046496Y11619500D01*
X40113535Y11599815D01*
X40159290Y11547011D01*
X40169234Y11477853D01*
X40140209Y11414297D01*
X40084814Y11377569D01*
X39941782Y11331096D01*
X39752439Y11234620D01*
X39698282Y11195273D01*
X39698282Y11195272D01*
X40330591Y10562963D01*
X40267007Y10545925D01*
X40152993Y10480099D01*
X40059901Y10387007D01*
X39994075Y10272993D01*
X39977037Y10209409D01*
X39344728Y10841718D01*
X39344727Y10841718D01*
X39305380Y10787561D01*
X39208904Y10598218D01*
X39143242Y10396131D01*
X39143242Y10396128D01*
X39110000Y10186247D01*
X34206810Y10186247D01*
X34149987Y10243070D01*
X34149986Y10243071D01*
X34058660Y10295798D01*
X33956800Y10323091D01*
X33851346Y10323091D01*
X33749486Y10295798D01*
X33749483Y10295797D01*
X33658158Y10243070D01*
X33577846Y10162757D01*
X33576161Y10164442D01*
X33529550Y10130404D01*
X33487597Y10123091D01*
X30602707Y10123091D01*
X30529016Y10092567D01*
X28554543Y8118094D01*
X28493220Y8084609D01*
X28423528Y8089593D01*
X28367595Y8131465D01*
X28343178Y8196929D01*
X28351372Y8247490D01*
X28351103Y8247562D01*
X28351815Y8250223D01*
X28352304Y8253234D01*
X28353203Y8255407D01*
X28353207Y8255413D01*
X28380500Y8357273D01*
X28380500Y8462727D01*
X28353207Y8564587D01*
X28300480Y8655913D01*
X28225913Y8730480D01*
X28134587Y8783207D01*
X28032727Y8810500D01*
X27927273Y8810500D01*
X27825413Y8783207D01*
X27825410Y8783206D01*
X27734085Y8730479D01*
X27653773Y8650166D01*
X27652088Y8651851D01*
X27605477Y8617813D01*
X27563524Y8610500D01*
X20280116Y8610500D01*
X20206425Y8579976D01*
X20206424Y8579975D01*
X20006427Y8379977D01*
X20006425Y8379975D01*
X19963337Y8336889D01*
X19937661Y8317186D01*
X19874087Y8280480D01*
X19874084Y8280478D01*
X19799521Y8205915D01*
X19746794Y8114590D01*
X19746793Y8114587D01*
X19719500Y8012727D01*
X19719500Y7907273D01*
X19746793Y7805413D01*
X19799520Y7714087D01*
X19874087Y7639520D01*
X19965413Y7586793D01*
X20067273Y7559500D01*
X20067275Y7559500D01*
X20172725Y7559500D01*
X20172727Y7559500D01*
X20274587Y7586793D01*
X20365913Y7639520D01*
X20440480Y7714087D01*
X20493207Y7805413D01*
X20520500Y7907273D01*
X20520500Y8012727D01*
X20511807Y8045169D01*
X20509600Y8053408D01*
X20511263Y8123258D01*
X20550426Y8181120D01*
X20614655Y8208623D01*
X20629375Y8209500D01*
X27563524Y8209500D01*
X27630563Y8189815D01*
X27653058Y8169120D01*
X27653773Y8169834D01*
X27659520Y8164087D01*
X27734087Y8089520D01*
X27825413Y8036793D01*
X27927273Y8009500D01*
X27927275Y8009500D01*
X28032725Y8009500D01*
X28032727Y8009500D01*
X28134587Y8036793D01*
X28134593Y8036797D01*
X28136766Y8037696D01*
X28138753Y8037910D01*
X28142438Y8038897D01*
X28142591Y8038323D01*
X28206235Y8045169D01*
X28268716Y8013897D01*
X28304372Y7953810D01*
X28301882Y7883985D01*
X28271906Y7835457D01*
X27754269Y7317819D01*
X27692946Y7284334D01*
X27666588Y7281500D01*
X18981013Y7281500D01*
X18913974Y7301185D01*
X18868219Y7353989D01*
X18858275Y7423147D01*
X18887300Y7486703D01*
X18946078Y7524477D01*
X18948906Y7525271D01*
X18954587Y7526793D01*
X19045913Y7579520D01*
X19120480Y7654087D01*
X19173207Y7745413D01*
X19200500Y7847273D01*
X19200500Y7952727D01*
X19173207Y8054587D01*
X19120480Y8145913D01*
X19045913Y8220480D01*
X18954587Y8273207D01*
X18852727Y8300500D01*
X18747273Y8300500D01*
X18645413Y8273207D01*
X18645410Y8273206D01*
X18554085Y8220479D01*
X18479521Y8145915D01*
X18426794Y8054590D01*
X18426793Y8054587D01*
X18422026Y8036794D01*
X18419775Y8028394D01*
X18383410Y7968733D01*
X18320563Y7938204D01*
X18251188Y7946499D01*
X18197310Y7990984D01*
X18180225Y8028394D01*
X18178064Y8036460D01*
X18173207Y8054587D01*
X18120480Y8145913D01*
X18045913Y8220480D01*
X17954587Y8273207D01*
X17852727Y8300500D01*
X17747273Y8300500D01*
X17645413Y8273207D01*
X17645410Y8273206D01*
X17554085Y8220479D01*
X17479521Y8145915D01*
X17426794Y8054590D01*
X17426793Y8054587D01*
X17422026Y8036794D01*
X17419775Y8028394D01*
X17383410Y7968733D01*
X17320563Y7938204D01*
X17251188Y7946499D01*
X17197310Y7990984D01*
X17180225Y8028394D01*
X17178064Y8036460D01*
X17173207Y8054587D01*
X17120480Y8145913D01*
X17045913Y8220480D01*
X16954587Y8273207D01*
X16852727Y8300500D01*
X16747273Y8300500D01*
X16645413Y8273207D01*
X16645410Y8273206D01*
X16554085Y8220479D01*
X16479521Y8145915D01*
X16426794Y8054590D01*
X16426793Y8054587D01*
X16399500Y7952727D01*
X16399500Y7847273D01*
X16426793Y7745413D01*
X16479520Y7654087D01*
X16554087Y7579520D01*
X16645413Y7526793D01*
X16651079Y7525275D01*
X16710740Y7488911D01*
X16741270Y7426064D01*
X16732976Y7356688D01*
X16688491Y7302810D01*
X16621939Y7281535D01*
X16618987Y7281500D01*
X13893412Y7281500D01*
X13826373Y7301185D01*
X13805731Y7317819D01*
X12876268Y8247282D01*
X12842783Y8308605D01*
X12841511Y8339146D01*
X12840500Y8339146D01*
X12840500Y8452725D01*
X12840500Y8452727D01*
X12813207Y8554587D01*
X12760480Y8645913D01*
X12685913Y8720480D01*
X12594587Y8773207D01*
X12492727Y8800500D01*
X12387273Y8800500D01*
X12285413Y8773207D01*
X12285410Y8773206D01*
X12194085Y8720479D01*
X12119521Y8645915D01*
X12066794Y8554590D01*
X12066793Y8554587D01*
X12039500Y8452727D01*
X9243666Y8452727D01*
X9225913Y8470480D01*
X9134587Y8523207D01*
X9032727Y8550500D01*
X8927273Y8550500D01*
X8825413Y8523207D01*
X8825410Y8523206D01*
X8762896Y8487113D01*
X8700896Y8470500D01*
X5633017Y8470500D01*
X5614252Y8462727D01*
X5559325Y8439976D01*
X5559324Y8439975D01*
X5522477Y8403127D01*
X5502924Y8383574D01*
X5502923Y8383573D01*
X5290970Y8171620D01*
X5078985Y7959636D01*
X5040024Y7920675D01*
X5009500Y7846984D01*
X400500Y7846984D01*
X400500Y10052727D01*
X14499500Y10052727D01*
X14499500Y9947273D01*
X14526793Y9845415D01*
X14526793Y9845414D01*
X14526794Y9845411D01*
X14579521Y9754086D01*
X14585926Y9747681D01*
X14619411Y9686358D01*
X14614427Y9616666D01*
X14585926Y9572319D01*
X14579521Y9565915D01*
X14526794Y9474590D01*
X14526793Y9474587D01*
X14499500Y9372727D01*
X14499500Y9267273D01*
X14524647Y9173424D01*
X14526793Y9165414D01*
X14526794Y9165411D01*
X14537266Y9147273D01*
X14577573Y9077459D01*
X14579521Y9074086D01*
X14582287Y9070481D01*
X14607478Y9005311D01*
X14593435Y8936866D01*
X14582287Y8919519D01*
X14579521Y8915915D01*
X14526794Y8824590D01*
X14526793Y8824587D01*
X14499500Y8722727D01*
X14499500Y8617273D01*
X14517660Y8549501D01*
X14526793Y8515414D01*
X14526794Y8515411D01*
X14534508Y8502050D01*
X14579519Y8424088D01*
X14579521Y8424086D01*
X14582287Y8420481D01*
X14607478Y8355311D01*
X14593435Y8286866D01*
X14582287Y8269519D01*
X14579521Y8265915D01*
X14526794Y8174590D01*
X14526793Y8174587D01*
X14499500Y8072727D01*
X14499500Y7967273D01*
X14519680Y7891962D01*
X14526793Y7865414D01*
X14526794Y7865411D01*
X14537266Y7847273D01*
X14579520Y7774087D01*
X14654087Y7699520D01*
X14745413Y7646793D01*
X14847273Y7619500D01*
X14847275Y7619500D01*
X14952725Y7619500D01*
X14952727Y7619500D01*
X15054587Y7646793D01*
X15145913Y7699520D01*
X15220480Y7774087D01*
X15273207Y7865413D01*
X15300500Y7967273D01*
X15300500Y8072727D01*
X15273207Y8174587D01*
X15220480Y8265913D01*
X15220475Y8265918D01*
X15217717Y8269513D01*
X15192522Y8334682D01*
X15206560Y8403127D01*
X15217717Y8420487D01*
X15220472Y8424080D01*
X15220480Y8424087D01*
X15273207Y8515413D01*
X15300500Y8617273D01*
X15300500Y8722727D01*
X15273207Y8824587D01*
X15220480Y8915913D01*
X15220475Y8915918D01*
X15217717Y8919513D01*
X15208650Y8942964D01*
X15195872Y8964617D01*
X15196267Y8974996D01*
X15192522Y8984682D01*
X15196223Y9002727D01*
X16399500Y9002727D01*
X16399500Y8897273D01*
X16426793Y8795413D01*
X16479520Y8704087D01*
X16554087Y8629520D01*
X16645413Y8576793D01*
X16747273Y8549500D01*
X16747275Y8549500D01*
X16852725Y8549500D01*
X16852727Y8549500D01*
X16954587Y8576793D01*
X17045913Y8629520D01*
X17120480Y8704087D01*
X17173207Y8795413D01*
X17180225Y8821607D01*
X17216589Y8881267D01*
X17279436Y8911797D01*
X17348812Y8903503D01*
X17402690Y8859018D01*
X17419775Y8821606D01*
X17426792Y8795415D01*
X17426793Y8795413D01*
X17479520Y8704087D01*
X17554087Y8629520D01*
X17645413Y8576793D01*
X17747273Y8549500D01*
X17747275Y8549500D01*
X17852725Y8549500D01*
X17852727Y8549500D01*
X17954587Y8576793D01*
X18045913Y8629520D01*
X18120480Y8704087D01*
X18173207Y8795413D01*
X18180225Y8821607D01*
X18216589Y8881267D01*
X18279436Y8911797D01*
X18348812Y8903503D01*
X18402690Y8859018D01*
X18419775Y8821606D01*
X18426792Y8795415D01*
X18426793Y8795413D01*
X18479520Y8704087D01*
X18554087Y8629520D01*
X18645413Y8576793D01*
X18747273Y8549500D01*
X18747275Y8549500D01*
X18852725Y8549500D01*
X18852727Y8549500D01*
X18954587Y8576793D01*
X19045913Y8629520D01*
X19120480Y8704087D01*
X19173207Y8795413D01*
X19200500Y8897273D01*
X19200500Y9002727D01*
X19173207Y9104587D01*
X19120480Y9195913D01*
X19045913Y9270480D01*
X18954587Y9323207D01*
X18852727Y9350500D01*
X18747273Y9350500D01*
X18645413Y9323207D01*
X18645410Y9323206D01*
X18554085Y9270479D01*
X18479521Y9195915D01*
X18426794Y9104590D01*
X18426793Y9104587D01*
X18419775Y9078394D01*
X18383410Y9018733D01*
X18320563Y8988204D01*
X18251188Y8996499D01*
X18197310Y9040984D01*
X18180225Y9078394D01*
X18173207Y9104587D01*
X18120480Y9195913D01*
X18045913Y9270480D01*
X17954587Y9323207D01*
X17852727Y9350500D01*
X17747273Y9350500D01*
X17645413Y9323207D01*
X17645410Y9323206D01*
X17554085Y9270479D01*
X17479521Y9195915D01*
X17426794Y9104590D01*
X17426793Y9104587D01*
X17419775Y9078394D01*
X17383410Y9018733D01*
X17320563Y8988204D01*
X17251188Y8996499D01*
X17197310Y9040984D01*
X17180225Y9078394D01*
X17173207Y9104587D01*
X17120480Y9195913D01*
X17045913Y9270480D01*
X16954587Y9323207D01*
X16852727Y9350500D01*
X16747273Y9350500D01*
X16645413Y9323207D01*
X16645410Y9323206D01*
X16554085Y9270479D01*
X16479521Y9195915D01*
X16426794Y9104590D01*
X16426793Y9104587D01*
X16399500Y9002727D01*
X15196223Y9002727D01*
X15197573Y9009312D01*
X15198530Y9034436D01*
X15205357Y9047265D01*
X15206560Y9053127D01*
X15214402Y9065959D01*
X15219134Y9072742D01*
X15220480Y9074087D01*
X15273207Y9165413D01*
X15300500Y9267273D01*
X15300500Y9372727D01*
X15273207Y9474587D01*
X15220480Y9565913D01*
X15214074Y9572319D01*
X15180589Y9633642D01*
X15185573Y9703334D01*
X15214074Y9747681D01*
X15220480Y9754087D01*
X15273207Y9845413D01*
X15300500Y9947273D01*
X15300500Y10052727D01*
X16399500Y10052727D01*
X16399500Y9947273D01*
X16426793Y9845413D01*
X16479520Y9754087D01*
X16554087Y9679520D01*
X16645413Y9626793D01*
X16747273Y9599500D01*
X16747275Y9599500D01*
X16852725Y9599500D01*
X16852727Y9599500D01*
X16954587Y9626793D01*
X17045913Y9679520D01*
X17120480Y9754087D01*
X17173207Y9845413D01*
X17180225Y9871607D01*
X17216589Y9931267D01*
X17279436Y9961797D01*
X17348812Y9953503D01*
X17402690Y9909018D01*
X17419774Y9871608D01*
X17422611Y9861021D01*
X17426792Y9845415D01*
X17426793Y9845413D01*
X17479520Y9754087D01*
X17554087Y9679520D01*
X17645413Y9626793D01*
X17747273Y9599500D01*
X17747275Y9599500D01*
X17852725Y9599500D01*
X17852727Y9599500D01*
X17954587Y9626793D01*
X18045913Y9679520D01*
X18120480Y9754087D01*
X18173207Y9845413D01*
X18180225Y9871607D01*
X18216589Y9931267D01*
X18279436Y9961797D01*
X18348812Y9953503D01*
X18402690Y9909018D01*
X18419774Y9871608D01*
X18422611Y9861021D01*
X18426792Y9845415D01*
X18426793Y9845413D01*
X18479520Y9754087D01*
X18554087Y9679520D01*
X18645413Y9626793D01*
X18747273Y9599500D01*
X18747275Y9599500D01*
X18852725Y9599500D01*
X18852727Y9599500D01*
X18954587Y9626793D01*
X19045913Y9679520D01*
X19120480Y9754087D01*
X19173207Y9845413D01*
X19200500Y9947273D01*
X19200500Y10052727D01*
X19173207Y10154587D01*
X19120480Y10245913D01*
X19045913Y10320480D01*
X18954587Y10373207D01*
X18852727Y10400500D01*
X18747273Y10400500D01*
X18645413Y10373207D01*
X18645410Y10373206D01*
X18554085Y10320479D01*
X18479521Y10245915D01*
X18426794Y10154590D01*
X18426793Y10154587D01*
X18419970Y10129121D01*
X18419775Y10128394D01*
X18383410Y10068733D01*
X18320563Y10038204D01*
X18251188Y10046499D01*
X18197310Y10090984D01*
X18180225Y10128394D01*
X18180031Y10129119D01*
X18173207Y10154587D01*
X18120480Y10245913D01*
X18045913Y10320480D01*
X17954587Y10373207D01*
X17852727Y10400500D01*
X17747273Y10400500D01*
X17645413Y10373207D01*
X17645410Y10373206D01*
X17554085Y10320479D01*
X17479521Y10245915D01*
X17426794Y10154590D01*
X17426793Y10154587D01*
X17419970Y10129121D01*
X17419775Y10128394D01*
X17383410Y10068733D01*
X17320563Y10038204D01*
X17251188Y10046499D01*
X17197310Y10090984D01*
X17180225Y10128394D01*
X17180031Y10129119D01*
X17173207Y10154587D01*
X17120480Y10245913D01*
X17045913Y10320480D01*
X16954587Y10373207D01*
X16852727Y10400500D01*
X16747273Y10400500D01*
X16645413Y10373207D01*
X16645410Y10373206D01*
X16554085Y10320479D01*
X16479521Y10245915D01*
X16426794Y10154590D01*
X16426793Y10154587D01*
X16399500Y10052727D01*
X15300500Y10052727D01*
X15273207Y10154587D01*
X15220480Y10245913D01*
X15145913Y10320480D01*
X15054587Y10373207D01*
X14952727Y10400500D01*
X14847273Y10400500D01*
X14745413Y10373207D01*
X14745410Y10373206D01*
X14654085Y10320479D01*
X14579521Y10245915D01*
X14526794Y10154590D01*
X14526793Y10154587D01*
X14499500Y10052727D01*
X400500Y10052727D01*
X400500Y12070001D01*
X1131115Y12070001D01*
X1131116Y12070000D01*
X1883012Y12070000D01*
X1865795Y12060060D01*
X1809940Y12004205D01*
X1770444Y11935796D01*
X1750000Y11859496D01*
X1750000Y11780504D01*
X1770444Y11704204D01*
X1809940Y11635795D01*
X1865795Y11579940D01*
X1883012Y11570000D01*
X1131116Y11570000D01*
X1136506Y11542900D01*
X1136507Y11542897D01*
X1208119Y11370009D01*
X1208124Y11370000D01*
X1312086Y11214411D01*
X1312089Y11214407D01*
X1444406Y11082090D01*
X1444410Y11082087D01*
X1599999Y10978125D01*
X1600008Y10978120D01*
X1772894Y10906509D01*
X1772902Y10906507D01*
X1956428Y10870001D01*
X1956431Y10870000D01*
X2450000Y10870000D01*
X2450000Y11520000D01*
X2950000Y11520000D01*
X2950000Y10870000D01*
X3443569Y10870000D01*
X3443571Y10870001D01*
X3627097Y10906507D01*
X3627105Y10906509D01*
X3722793Y10946144D01*
X5549500Y10946144D01*
X5549500Y10853856D01*
X5571969Y10770000D01*
X5573387Y10764710D01*
X5573388Y10764707D01*
X5619526Y10684795D01*
X5619529Y10684791D01*
X5619531Y10684788D01*
X5684788Y10619531D01*
X5684791Y10619530D01*
X5684794Y10619527D01*
X5764706Y10573389D01*
X5764707Y10573389D01*
X5764712Y10573386D01*
X5853856Y10549500D01*
X5853858Y10549500D01*
X5946142Y10549500D01*
X5946144Y10549500D01*
X5980191Y10558623D01*
X6050040Y10556961D01*
X6099966Y10526530D01*
X6144406Y10482090D01*
X6144410Y10482087D01*
X6299999Y10378125D01*
X6300012Y10378118D01*
X6472889Y10306511D01*
X6472896Y10306509D01*
X6500000Y10301118D01*
X6500000Y11053012D01*
X6509940Y11035795D01*
X6565795Y10979940D01*
X6634204Y10940444D01*
X6710504Y10920000D01*
X6789496Y10920000D01*
X6865796Y10940444D01*
X6934205Y10979940D01*
X6990060Y11035795D01*
X7000000Y11053012D01*
X7000000Y10301119D01*
X7027103Y10306509D01*
X7027110Y10306511D01*
X7199987Y10378118D01*
X7200000Y10378125D01*
X7355589Y10482087D01*
X7355593Y10482090D01*
X7487910Y10614407D01*
X7487913Y10614411D01*
X7591875Y10770000D01*
X7591882Y10770013D01*
X7601591Y10793452D01*
X7645431Y10847856D01*
X7711725Y10869921D01*
X7716152Y10870000D01*
X7843569Y10870000D01*
X7843571Y10870001D01*
X8027097Y10906507D01*
X8027105Y10906509D01*
X8199991Y10978120D01*
X8200000Y10978125D01*
X8355589Y11082087D01*
X8355593Y11082090D01*
X8487910Y11214407D01*
X8487913Y11214411D01*
X8591875Y11370000D01*
X8591880Y11370009D01*
X8663492Y11542897D01*
X8663493Y11542900D01*
X8668884Y11570000D01*
X7916988Y11570000D01*
X7934205Y11579940D01*
X7990060Y11635795D01*
X8029556Y11704204D01*
X8050000Y11780504D01*
X8050000Y11859496D01*
X8029556Y11935796D01*
X7990060Y12004205D01*
X7934205Y12060060D01*
X7916988Y12070000D01*
X8668884Y12070000D01*
X8668884Y12070001D01*
X8663493Y12097101D01*
X8663492Y12097104D01*
X8591880Y12269992D01*
X8591875Y12270001D01*
X8487913Y12425590D01*
X8487910Y12425594D01*
X8355592Y12557912D01*
X8325900Y12577751D01*
X8325899Y12577752D01*
X8200000Y12661876D01*
X8199991Y12661881D01*
X8173806Y12672727D01*
X26909500Y12672727D01*
X26909500Y12567273D01*
X26936793Y12465413D01*
X26989520Y12374087D01*
X27064087Y12299520D01*
X27155413Y12246793D01*
X27257273Y12219500D01*
X27257275Y12219500D01*
X27362725Y12219500D01*
X27362727Y12219500D01*
X27464587Y12246793D01*
X27555913Y12299520D01*
X27630480Y12374087D01*
X27683207Y12465413D01*
X27695885Y12512727D01*
X36129500Y12512727D01*
X36129500Y12407273D01*
X36156793Y12305413D01*
X36209520Y12214087D01*
X36284087Y12139520D01*
X36375413Y12086793D01*
X36477273Y12059500D01*
X36477275Y12059500D01*
X36582725Y12059500D01*
X36582727Y12059500D01*
X36684587Y12086793D01*
X36775913Y12139520D01*
X36850480Y12214087D01*
X36903207Y12305413D01*
X36930500Y12407273D01*
X36930500Y12512727D01*
X36903207Y12614587D01*
X36850480Y12705913D01*
X36775913Y12780480D01*
X36684587Y12833207D01*
X36582727Y12860500D01*
X36477273Y12860500D01*
X36375413Y12833207D01*
X36375410Y12833206D01*
X36284085Y12780479D01*
X36209521Y12705915D01*
X36156794Y12614590D01*
X36156793Y12614587D01*
X36129500Y12512727D01*
X27695885Y12512727D01*
X27710500Y12567273D01*
X27710500Y12672727D01*
X27683207Y12774587D01*
X27630480Y12865913D01*
X27555913Y12940480D01*
X27464587Y12993207D01*
X27362727Y13020500D01*
X27257273Y13020500D01*
X27155413Y12993207D01*
X27155410Y12993206D01*
X27064085Y12940479D01*
X26989521Y12865915D01*
X26936794Y12774590D01*
X26936793Y12774587D01*
X26909500Y12672727D01*
X8173806Y12672727D01*
X8027105Y12733492D01*
X8027097Y12733494D01*
X7843570Y12770000D01*
X7500000Y12770000D01*
X7500000Y12120000D01*
X6789496Y12120000D01*
X6710504Y12120000D01*
X6634204Y12099556D01*
X6565795Y12060060D01*
X6509940Y12004205D01*
X6470444Y11935796D01*
X6450000Y11859496D01*
X6450000Y11270000D01*
X5800000Y11270000D01*
X5763681Y11233681D01*
X5762658Y11234704D01*
X5738001Y11211193D01*
X5684794Y11180474D01*
X5684785Y11180467D01*
X5619533Y11115215D01*
X5619526Y11115206D01*
X5573388Y11035294D01*
X5573387Y11035291D01*
X5573386Y11035289D01*
X5573386Y11035288D01*
X5549500Y10946144D01*
X3722793Y10946144D01*
X3799991Y10978120D01*
X3800000Y10978125D01*
X3918604Y11057373D01*
X3955589Y11082087D01*
X3955593Y11082090D01*
X4087910Y11214407D01*
X4087913Y11214411D01*
X4191875Y11370000D01*
X4191880Y11370009D01*
X4263492Y11542897D01*
X4263493Y11542900D01*
X4268884Y11570000D01*
X3516988Y11570000D01*
X3534205Y11579940D01*
X3590060Y11635795D01*
X3629556Y11704204D01*
X3650000Y11780504D01*
X3650000Y11859496D01*
X3629556Y11935796D01*
X3590060Y12004205D01*
X3534205Y12060060D01*
X3516988Y12070000D01*
X4268884Y12070000D01*
X4268884Y12070001D01*
X5831115Y12070001D01*
X5831116Y12070000D01*
X6500000Y12070000D01*
X6500000Y12738885D01*
X6499999Y12738885D01*
X6472899Y12733494D01*
X6472896Y12733493D01*
X6300008Y12661881D01*
X6299999Y12661876D01*
X6144410Y12557914D01*
X6144406Y12557911D01*
X6012089Y12425594D01*
X6012086Y12425590D01*
X5908124Y12270001D01*
X5908119Y12269992D01*
X5836507Y12097104D01*
X5836506Y12097101D01*
X5831115Y12070001D01*
X4268884Y12070001D01*
X4263493Y12097101D01*
X4263492Y12097104D01*
X4191880Y12269992D01*
X4191875Y12270001D01*
X4087913Y12425590D01*
X4087910Y12425594D01*
X3955593Y12557911D01*
X3955589Y12557914D01*
X3800000Y12661876D01*
X3799991Y12661881D01*
X3627105Y12733492D01*
X3627097Y12733494D01*
X3443570Y12770000D01*
X2950000Y12770000D01*
X2950000Y12120000D01*
X2450000Y12120000D01*
X2450000Y12770000D01*
X1956430Y12770000D01*
X1772902Y12733494D01*
X1772894Y12733492D01*
X1600008Y12661881D01*
X1599999Y12661876D01*
X1444410Y12557914D01*
X1444406Y12557911D01*
X1312089Y12425594D01*
X1312086Y12425590D01*
X1208124Y12270001D01*
X1208119Y12269992D01*
X1136507Y12097104D01*
X1136506Y12097101D01*
X1131115Y12070001D01*
X400500Y12070001D01*
X400500Y12493039D01*
X401280Y12506922D01*
X408080Y12567275D01*
X413966Y12619519D01*
X420142Y12646582D01*
X455256Y12746932D01*
X467299Y12771938D01*
X523863Y12861960D01*
X541168Y12883659D01*
X616341Y12958832D01*
X638040Y12976137D01*
X728062Y13032701D01*
X753068Y13044744D01*
X853418Y13079858D01*
X880481Y13086034D01*
X977769Y13096996D01*
X993078Y13098720D01*
X1006961Y13099500D01*
X7350654Y13099500D01*
X7350656Y13099500D01*
X7548909Y13134457D01*
X7738080Y13203310D01*
X7912421Y13303965D01*
X8066634Y13433366D01*
X8196035Y13587579D01*
X8296690Y13761920D01*
X8365543Y13951091D01*
X8400500Y14149344D01*
X8400500Y14241875D01*
X8401561Y14258060D01*
X8410278Y14324273D01*
X8418655Y14355537D01*
X8441077Y14409670D01*
X8457257Y14437696D01*
X8492932Y14484189D01*
X8515811Y14507068D01*
X8562304Y14542743D01*
X8590330Y14558923D01*
X8644463Y14581345D01*
X8675724Y14589722D01*
X8741941Y14598439D01*
X8758126Y14599500D01*
X8807583Y14599500D01*
X46442417Y14599500D01*
X46493039Y14599500D01*
X46506922Y14598721D01*
G37*
%TD.AperFunction*%
%TD*%
M02*
