%TF.GenerationSoftware,KiCad,Pcbnew,9.0.6-9.0.6~ubuntu24.04.1*%
%TF.CreationDate,2025-11-23T17:21:15+08:00*%
%TF.ProjectId,demo,64656d6f-2e6b-4696-9361-645f70636258,V1.0.1*%
%TF.SameCoordinates,PX5f5e100PY5f5e100*%
%TF.FileFunction,Copper,L4,Bot*%
%TF.FilePolarity,Positive*%
%FSLAX46Y46*%
G04 Gerber Fmt 4.6, Leading zero omitted, Abs format (unit mm)*
G04 Created by KiCad (PCBNEW 9.0.6-9.0.6~ubuntu24.04.1) date 2025-11-23 17:21:15*
%MOMM*%
%LPD*%
G01*
G04 APERTURE LIST*
%TA.AperFunction,ComponentPad*%
%ADD10R,1.700000X1.700000*%
%TD*%
%TA.AperFunction,ComponentPad*%
%ADD11C,1.700000*%
%TD*%
%TA.AperFunction,ComponentPad*%
%ADD12R,1.000000X1.000000*%
%TD*%
%TA.AperFunction,ComponentPad*%
%ADD13C,1.000000*%
%TD*%
%TA.AperFunction,ComponentPad*%
%ADD14O,1.900000X0.900000*%
%TD*%
%TA.AperFunction,ComponentPad*%
%ADD15O,2.200000X0.900000*%
%TD*%
%TA.AperFunction,ComponentPad*%
%ADD16O,0.900000X1.500000*%
%TD*%
%TA.AperFunction,ViaPad*%
%ADD17C,0.250000*%
%TD*%
%TA.AperFunction,Conductor*%
%ADD18C,0.200000*%
%TD*%
%TA.AperFunction,Conductor*%
%ADD19C,0.100000*%
%TD*%
G04 APERTURE END LIST*
D10*
%TO.P,J2,1,Pin_1*%
%TO.N,+3V3*%
X37860000Y12580000D03*
D11*
%TO.P,J2,2,Pin_2*%
%TO.N,+5V*%
X40400000Y12580000D03*
%TO.P,J2,3,Pin_3*%
%TO.N,GND*%
X37860000Y10040000D03*
%TO.P,J2,4,Pin_4*%
X40400000Y10040000D03*
%TO.P,J2,5,Pin_5*%
%TO.N,Net-(J2-Pin_5)*%
X37860000Y7500000D03*
%TO.P,J2,6,Pin_6*%
%TO.N,Net-(J2-Pin_6)*%
X40400000Y7500000D03*
%TO.P,J2,7,Pin_7*%
%TO.N,Net-(J2-Pin_7)*%
X37860000Y4960000D03*
%TO.P,J2,8,Pin_8*%
%TO.N,Net-(J2-Pin_8)*%
X40400000Y4960000D03*
%TO.P,J2,9,Pin_9*%
%TO.N,/T_Tx*%
X37860000Y2420000D03*
%TO.P,J2,10,Pin_10*%
%TO.N,/T_Rx*%
X40400000Y2420000D03*
%TD*%
D12*
%TO.P,J3,1,Pin_1*%
%TO.N,+3V3*%
X18855000Y1700000D03*
D13*
%TO.P,J3,2,Pin_2*%
%TO.N,Net-(J3-Pin_2)*%
X17585000Y1700000D03*
%TO.P,J3,3,Pin_3*%
%TO.N,Net-(J3-Pin_3)*%
X16315000Y1700000D03*
%TO.P,J3,4,Pin_4*%
%TO.N,GND*%
X15045000Y1700000D03*
%TD*%
D14*
%TO.P,J1,S1,SHIELD*%
%TO.N,GND*%
X7275000Y11820000D03*
D15*
X2725000Y11820000D03*
D16*
X6775000Y11520000D03*
X6775000Y3480000D03*
D14*
X7275000Y3180000D03*
D15*
X2725000Y3180000D03*
%TD*%
D17*
%TO.N,+5V*%
X19160000Y12360000D03*
%TO.N,GND*%
X15450000Y13725000D03*
X33700000Y8900000D03*
X17250000Y7000000D03*
X10080000Y10950000D03*
X17250000Y6500000D03*
X17250000Y6000000D03*
X17250000Y7500000D03*
X33760000Y11980000D03*
X17250000Y8000000D03*
X34950000Y7990000D03*
X19105000Y13180000D03*
X10100000Y5130000D03*
%TO.N,+3V3*%
X15500000Y7000000D03*
X15000000Y8000000D03*
X15000000Y7500000D03*
X16484811Y6500000D03*
X16009951Y6500000D03*
X15500000Y6000000D03*
X14500000Y7000000D03*
X14500000Y6000000D03*
X16000000Y7500000D03*
X16000000Y7000000D03*
X22000000Y4000000D03*
X15000000Y7000000D03*
X16500000Y6000000D03*
X22500000Y13100000D03*
X16000000Y8000000D03*
X32635000Y10510543D03*
X16500000Y7500000D03*
X35500000Y13400000D03*
X15000000Y6500000D03*
X15500000Y7500000D03*
X31400000Y3000000D03*
X16500000Y8000000D03*
X15500000Y6500000D03*
X15500000Y8000000D03*
X16500000Y7000000D03*
X16000000Y6000000D03*
X15000000Y6000000D03*
X11250000Y2750000D03*
X33200000Y13400000D03*
X16500000Y13725000D03*
X14500000Y6500000D03*
X14500000Y7500000D03*
X14500000Y8000000D03*
%TO.N,Net-(J1-CC1)*%
X7300000Y8312916D03*
X5900000Y6870000D03*
%TO.N,Net-(J1-D--PadA7)*%
X6029677Y7870000D03*
X7300000Y7120000D03*
%TO.N,/T_Rx*%
X28900000Y10900000D03*
%TO.N,/T_Tx*%
X30400000Y11400000D03*
%TO.N,/DP+*%
X11050000Y9790000D03*
X20880000Y6630000D03*
%TO.N,/DM-*%
X20580000Y7000000D03*
X11090000Y7460000D03*
%TO.N,/T_JTMS*%
X34510000Y6070000D03*
X22860000Y9500000D03*
%TO.N,/RENUM*%
X11080000Y4120000D03*
X23800000Y4440000D03*
%TO.N,/T_JTCK*%
X34510000Y4880000D03*
X22860000Y10000000D03*
X27990000Y10000000D03*
%TO.N,/T_NRST*%
X34510000Y3905000D03*
X26480000Y10480000D03*
%TO.N,/T_SWO*%
X33980000Y2980000D03*
X22850000Y7500000D03*
%TO.N,Net-(U2-PB2)*%
X25300000Y13230000D03*
X18600000Y13740000D03*
%TD*%
D18*
%TO.N,+5V*%
X39050000Y13930000D02*
X40400000Y12580000D01*
X34921034Y12360000D02*
X36460000Y13898966D01*
X19160000Y12360000D02*
X34921034Y12360000D01*
X36460000Y13930000D02*
X39050000Y13930000D01*
X36460000Y13898966D02*
X36460000Y13930000D01*
D19*
%TO.N,Net-(J1-CC1)*%
X5950000Y8370000D02*
X7242916Y8370000D01*
X5900000Y6870000D02*
X5510000Y7260000D01*
X5510000Y7930000D02*
X5950000Y8370000D01*
X7242916Y8370000D02*
X7300000Y8312916D01*
X5510000Y7260000D02*
X5510000Y7930000D01*
%TO.N,Net-(J1-D--PadA7)*%
X5850000Y7690000D02*
X6029677Y7869677D01*
X6040000Y7120000D02*
X5850000Y7310000D01*
X6029677Y7869677D02*
X6029677Y7870000D01*
X7300000Y7120000D02*
X6040000Y7120000D01*
X5850000Y7310000D02*
X5850000Y7690000D01*
%TO.N,/T_Rx*%
X38980000Y1000000D02*
X40400000Y2420000D01*
X35700000Y2300000D02*
X37000000Y1000000D01*
X28900000Y10900000D02*
X33760000Y10900000D01*
X35700000Y8960000D02*
X35700000Y2300000D01*
X33760000Y10900000D02*
X35700000Y8960000D01*
X37000000Y1000000D02*
X38980000Y1000000D01*
%TO.N,/T_Tx*%
X36200000Y4080000D02*
X37860000Y2420000D01*
X33830000Y11400000D02*
X36200000Y9030000D01*
X30400000Y11400000D02*
X33830000Y11400000D01*
X36200000Y9030000D02*
X36200000Y4080000D01*
%TO.N,/DP+*%
X18180323Y9790000D02*
X20880000Y7090323D01*
X11050000Y9790000D02*
X18180323Y9790000D01*
X20880000Y7090323D02*
X20880000Y6630000D01*
%TO.N,/DM-*%
X18130000Y9450000D02*
X20580000Y7000000D01*
X11090000Y7460000D02*
X13080000Y9450000D01*
X13080000Y9450000D02*
X18130000Y9450000D01*
%TO.N,/T_JTMS*%
X22860000Y9500000D02*
X31080000Y9500000D01*
X31080000Y9500000D02*
X34510000Y6070000D01*
%TO.N,/RENUM*%
X11080000Y4130000D02*
X11650000Y4700000D01*
X11650000Y4700000D02*
X23600000Y4700000D01*
X23800000Y4500000D02*
X23800000Y4440000D01*
X11080000Y4120000D02*
X11080000Y4130000D01*
X23600000Y4700000D02*
X23800000Y4500000D01*
%TO.N,/T_JTCK*%
X34786000Y6364000D02*
X34786000Y5156000D01*
X34786000Y5156000D02*
X34510000Y4880000D01*
X27990000Y10000000D02*
X31150000Y10000000D01*
X22860000Y10000000D02*
X27990000Y10000000D01*
X31150000Y10000000D02*
X34786000Y6364000D01*
%TO.N,/T_NRST*%
X31140000Y10490000D02*
X35190000Y6440000D01*
X26490000Y10490000D02*
X31140000Y10490000D01*
X26480000Y10480000D02*
X26490000Y10490000D01*
X35190000Y6440000D02*
X35190000Y4540000D01*
X35190000Y4540000D02*
X34555000Y3905000D01*
X34555000Y3905000D02*
X34510000Y3905000D01*
%TO.N,/T_SWO*%
X32260000Y7500000D02*
X22850000Y7500000D01*
X33980000Y5780000D02*
X32260000Y7500000D01*
X33980000Y2980000D02*
X33980000Y5780000D01*
%TO.N,Net-(U2-PB2)*%
X18750000Y13590000D02*
X18600000Y13740000D01*
X25300000Y13230000D02*
X24940000Y13590000D01*
X24940000Y13590000D02*
X18750000Y13590000D01*
%TD*%
M02*
