%TF.GenerationSoftware,KiCad,Pcbnew,9.0.6-9.0.6~ubuntu24.04.1*%
%TF.CreationDate,2025-11-26T01:33:41+08:00*%
%TF.ProjectId,demo,64656d6f-2e6b-4696-9361-645f70636258,V1.0.1*%
%TF.SameCoordinates,PX5f5e100PY5f5e100*%
%TF.FileFunction,Copper,L2,Inr*%
%TF.FilePolarity,Positive*%
%FSLAX46Y46*%
G04 Gerber Fmt 4.6, Leading zero omitted, Abs format (unit mm)*
G04 Created by KiCad (PCBNEW 9.0.6-9.0.6~ubuntu24.04.1) date 2025-11-26 01:33:41*
%MOMM*%
%LPD*%
G01*
G04 APERTURE LIST*
%TA.AperFunction,ComponentPad*%
%ADD10O,2.200000X0.900000*%
%TD*%
%TA.AperFunction,ComponentPad*%
%ADD11O,1.900000X0.900000*%
%TD*%
%TA.AperFunction,ComponentPad*%
%ADD12O,0.900000X1.500000*%
%TD*%
%TA.AperFunction,ComponentPad*%
%ADD13R,1.000000X1.000000*%
%TD*%
%TA.AperFunction,ComponentPad*%
%ADD14C,1.000000*%
%TD*%
%TA.AperFunction,ComponentPad*%
%ADD15R,1.700000X1.700000*%
%TD*%
%TA.AperFunction,ComponentPad*%
%ADD16C,1.700000*%
%TD*%
%TA.AperFunction,ViaPad*%
%ADD17C,0.500000*%
%TD*%
G04 APERTURE END LIST*
D10*
%TO.N,GND*%
%TO.C,J1*%
X2700000Y3180000D03*
D11*
X7250000Y3180000D03*
D12*
X6750000Y3480000D03*
X6750000Y11520000D03*
D10*
X2700000Y11820000D03*
D11*
X7250000Y11820000D03*
%TD*%
D13*
%TO.N,+3V3*%
%TO.C,J3*%
X32840000Y1800000D03*
D14*
%TO.N,Net-(J3-Pin_2)*%
X31570000Y1800000D03*
%TO.N,Net-(J3-Pin_3)*%
X30300000Y1800000D03*
%TO.N,GND*%
X29030000Y1800000D03*
%TD*%
D15*
%TO.N,+3V3*%
%TO.C,J2*%
X40460000Y12620000D03*
D16*
%TO.N,+5V*%
X43000000Y12620000D03*
%TO.N,GND*%
X40460000Y10080000D03*
X43000000Y10080000D03*
%TO.N,Net-(J2-Pin_5)*%
X40460000Y7540000D03*
%TO.N,Net-(J2-Pin_6)*%
X43000000Y7540000D03*
%TO.N,Net-(J2-Pin_7)*%
X40460000Y5000000D03*
%TO.N,Net-(J2-Pin_8)*%
X43000000Y5000000D03*
%TO.N,/T_Tx*%
X40460000Y2460000D03*
%TO.N,/T_Rx*%
X43000000Y2460000D03*
%TD*%
D17*
%TO.N,GND*%
X17900000Y3900000D03*
X17300000Y3900000D03*
X16700000Y3900000D03*
X16100000Y3890000D03*
X26350000Y12620000D03*
X25710000Y4640000D03*
X9870000Y11900000D03*
X36580000Y3780000D03*
X12630000Y9270000D03*
X28950000Y9430000D03*
%TO.N,/STM_JTCK*%
X37020000Y2060000D03*
%TO.N,/STM_JTMS*%
X36840000Y2910000D03*
X32790000Y5587500D03*
%TO.N,/STM_JTCK*%
X32150000Y6020000D03*
%TO.N,/T_JTMS*%
X36610000Y7810000D03*
X34050000Y7300000D03*
%TO.N,/T_JTCK*%
X33560000Y9010000D03*
X36570000Y9200000D03*
%TO.N,/T_NRST*%
X36400000Y4800000D03*
X30800000Y5600000D03*
%TO.N,/T_JTCK*%
X34220000Y6420000D03*
X29300000Y5680000D03*
%TO.N,/T_Tx*%
X27410000Y3820000D03*
%TO.N,/T_Rx*%
X28300000Y3300000D03*
%TO.N,GND*%
X20670000Y5350000D03*
%TO.N,/RENUM*%
X14950000Y4550000D03*
X30430000Y8012500D03*
%TO.N,Net-(J3-Pin_2)*%
X34410000Y2450000D03*
%TO.N,Net-(J3-Pin_3)*%
X34430000Y1050000D03*
%TO.N,Net-(U2-PB2)*%
X31800000Y2680000D03*
X26510000Y2200000D03*
%TO.N,Net-(U2-PA0)*%
X24086993Y6152111D03*
X28597099Y6742901D03*
%TO.N,/NRST*%
X27980000Y8410000D03*
X20120000Y7960000D03*
%TO.N,/LED_STLINK*%
X34230000Y8412500D03*
X19720000Y6220000D03*
%TO.N,/DM-*%
X34220000Y9412500D03*
%TO.N,/DP+*%
X33904073Y9922591D03*
%TO.N,/DM-*%
X12440000Y7300000D03*
%TO.N,/DP+*%
X12440000Y8400000D03*
%TO.N,Net-(J1-CC1)*%
X5474315Y6870000D03*
X8980000Y8150000D03*
%TO.N,Net-(J1-D--PadA7)*%
X8810000Y7130000D03*
X5840000Y7870000D03*
%TO.N,+3V3*%
X21920000Y3480000D03*
X12140000Y1620000D03*
X35340000Y4890000D03*
X36530000Y12460000D03*
X16540000Y830000D03*
X23070000Y3450000D03*
X26450000Y3100000D03*
X27310000Y12620000D03*
%TO.N,GND*%
X46450000Y13500000D03*
X45150000Y13500000D03*
X46450000Y12390909D03*
X45150000Y12390909D03*
%TO.N,+3V3*%
X16800000Y7900000D03*
X16800000Y8950000D03*
X17800000Y10000000D03*
X16800000Y10000000D03*
X18800000Y8950000D03*
X18800000Y7900000D03*
X18800000Y10000000D03*
X17800000Y7900000D03*
X17800000Y8950000D03*
%TO.N,GND*%
X45150000Y4627273D03*
X45150000Y3518182D03*
X45150000Y5736364D03*
X45150000Y11281818D03*
X45150000Y6845455D03*
X45150000Y2409091D03*
X45150000Y7954545D03*
X45150000Y9063636D03*
X45150000Y10172727D03*
X45150000Y1300000D03*
X46450000Y2409091D03*
X46450000Y1300000D03*
X46450000Y6845455D03*
X46450000Y3518182D03*
X46450000Y4627273D03*
X46450000Y5736364D03*
X46450000Y9063636D03*
X46450000Y7954545D03*
X46450000Y10172727D03*
X46450000Y11281818D03*
%TO.N,+5V*%
X14900000Y8020000D03*
X14900000Y8670000D03*
X14900000Y9320000D03*
X14900000Y10000000D03*
%TD*%
%TA.AperFunction,Conductor*%
%TO.N,+3V3*%
G36*
X13943039Y13480315D02*
G01*
X13988794Y13427511D01*
X14000000Y13376000D01*
X14000000Y7300000D01*
X15700000Y7300000D01*
X15700000Y7352727D01*
X33649500Y7352727D01*
X33649500Y7247273D01*
X33671295Y7165934D01*
X33676793Y7145414D01*
X33676794Y7145411D01*
X33690922Y7120941D01*
X33729520Y7054087D01*
X33804087Y6979520D01*
X33895413Y6926793D01*
X33896944Y6926383D01*
X33898089Y6925685D01*
X33902920Y6923684D01*
X33902608Y6922931D01*
X33956605Y6890019D01*
X33987135Y6827173D01*
X33978841Y6757797D01*
X33952534Y6718928D01*
X33899521Y6665915D01*
X33846794Y6574590D01*
X33846793Y6574587D01*
X33819500Y6472727D01*
X33819500Y6367273D01*
X33846793Y6265413D01*
X33899520Y6174087D01*
X33974087Y6099520D01*
X34065413Y6046793D01*
X34167273Y6019500D01*
X34167275Y6019500D01*
X34272725Y6019500D01*
X34272727Y6019500D01*
X34374587Y6046793D01*
X34465913Y6099520D01*
X34540480Y6174087D01*
X34593207Y6265413D01*
X34620500Y6367273D01*
X34620500Y6472727D01*
X34593207Y6574587D01*
X34540480Y6665913D01*
X34465913Y6740480D01*
X34374587Y6793207D01*
X34374586Y6793208D01*
X34374582Y6793209D01*
X34373047Y6793620D01*
X34371898Y6794321D01*
X34367080Y6796316D01*
X34367391Y6797068D01*
X34313388Y6829988D01*
X34282863Y6892837D01*
X34291161Y6962212D01*
X34317464Y7001072D01*
X34370480Y7054087D01*
X34423207Y7145413D01*
X34450500Y7247273D01*
X34450500Y7352727D01*
X34423207Y7454587D01*
X34370480Y7545913D01*
X34295913Y7620480D01*
X34204587Y7673207D01*
X34102727Y7700500D01*
X33997273Y7700500D01*
X33895413Y7673207D01*
X33895410Y7673206D01*
X33804085Y7620479D01*
X33729521Y7545915D01*
X33676794Y7454590D01*
X33676793Y7454587D01*
X33649500Y7352727D01*
X15700000Y7352727D01*
X15700000Y8012727D01*
X19719500Y8012727D01*
X19719500Y7907273D01*
X19739714Y7831835D01*
X19746793Y7805414D01*
X19746794Y7805411D01*
X19760922Y7780941D01*
X19799520Y7714087D01*
X19874087Y7639520D01*
X19965413Y7586793D01*
X20067273Y7559500D01*
X20067275Y7559500D01*
X20172725Y7559500D01*
X20172727Y7559500D01*
X20274587Y7586793D01*
X20365913Y7639520D01*
X20440480Y7714087D01*
X20493207Y7805413D01*
X20520500Y7907273D01*
X20520500Y8012727D01*
X20493207Y8114587D01*
X20440480Y8205913D01*
X20365913Y8280480D01*
X20284037Y8327751D01*
X20274589Y8333206D01*
X20274588Y8333207D01*
X20274587Y8333207D01*
X20172727Y8360500D01*
X20067273Y8360500D01*
X19965413Y8333207D01*
X19965410Y8333206D01*
X19874085Y8280479D01*
X19799521Y8205915D01*
X19746794Y8114590D01*
X19746793Y8114587D01*
X19719500Y8012727D01*
X15700000Y8012727D01*
X15700000Y8462727D01*
X27579500Y8462727D01*
X27579500Y8357273D01*
X27606793Y8255413D01*
X27659520Y8164087D01*
X27734087Y8089520D01*
X27825413Y8036793D01*
X27927273Y8009500D01*
X27927275Y8009500D01*
X28032725Y8009500D01*
X28032727Y8009500D01*
X28134587Y8036793D01*
X28183836Y8065227D01*
X30029500Y8065227D01*
X30029500Y7959773D01*
X30056793Y7857913D01*
X30109520Y7766587D01*
X30184087Y7692020D01*
X30275413Y7639293D01*
X30377273Y7612000D01*
X30377275Y7612000D01*
X30482725Y7612000D01*
X30482727Y7612000D01*
X30584587Y7639293D01*
X30675913Y7692020D01*
X30750480Y7766587D01*
X30803207Y7857913D01*
X30804497Y7862727D01*
X36209500Y7862727D01*
X36209500Y7757273D01*
X36236793Y7655413D01*
X36289520Y7564087D01*
X36364087Y7489520D01*
X36455413Y7436793D01*
X36557273Y7409500D01*
X36557275Y7409500D01*
X36662725Y7409500D01*
X36662727Y7409500D01*
X36764587Y7436793D01*
X36772665Y7441457D01*
X39459499Y7441457D01*
X39497947Y7248171D01*
X39497950Y7248161D01*
X39573364Y7066093D01*
X39573371Y7066080D01*
X39682860Y6902219D01*
X39682863Y6902215D01*
X39822214Y6762864D01*
X39822218Y6762861D01*
X39986079Y6653372D01*
X39986092Y6653365D01*
X40131331Y6593206D01*
X40168165Y6577949D01*
X40168169Y6577949D01*
X40168170Y6577948D01*
X40361456Y6539500D01*
X40361459Y6539500D01*
X40558543Y6539500D01*
X40734948Y6574590D01*
X40751835Y6577949D01*
X40933914Y6653368D01*
X41097782Y6762861D01*
X41237139Y6902218D01*
X41346632Y7066086D01*
X41422051Y7248165D01*
X41459572Y7436794D01*
X41460500Y7441457D01*
X41999499Y7441457D01*
X42037947Y7248171D01*
X42037950Y7248161D01*
X42113364Y7066093D01*
X42113371Y7066080D01*
X42222860Y6902219D01*
X42222863Y6902215D01*
X42362214Y6762864D01*
X42362218Y6762861D01*
X42526079Y6653372D01*
X42526092Y6653365D01*
X42671331Y6593206D01*
X42708165Y6577949D01*
X42708169Y6577949D01*
X42708170Y6577948D01*
X42901456Y6539500D01*
X42901459Y6539500D01*
X43098543Y6539500D01*
X43274948Y6574590D01*
X43291835Y6577949D01*
X43473914Y6653368D01*
X43637782Y6762861D01*
X43773103Y6898182D01*
X44749500Y6898182D01*
X44749500Y6792728D01*
X44769275Y6718928D01*
X44776793Y6690869D01*
X44776794Y6690866D01*
X44777193Y6690175D01*
X44829520Y6599542D01*
X44904087Y6524975D01*
X44995413Y6472248D01*
X45097273Y6444955D01*
X45097275Y6444955D01*
X45202725Y6444955D01*
X45202727Y6444955D01*
X45304587Y6472248D01*
X45395913Y6524975D01*
X45470480Y6599542D01*
X45523207Y6690868D01*
X45550500Y6792728D01*
X45550500Y6898182D01*
X46049500Y6898182D01*
X46049500Y6792728D01*
X46069275Y6718928D01*
X46076793Y6690869D01*
X46076794Y6690866D01*
X46077193Y6690175D01*
X46129520Y6599542D01*
X46204087Y6524975D01*
X46295413Y6472248D01*
X46397273Y6444955D01*
X46397275Y6444955D01*
X46502725Y6444955D01*
X46502727Y6444955D01*
X46604587Y6472248D01*
X46695913Y6524975D01*
X46770480Y6599542D01*
X46823207Y6690868D01*
X46850500Y6792728D01*
X46850500Y6898182D01*
X46823207Y7000042D01*
X46770480Y7091368D01*
X46695913Y7165935D01*
X46604587Y7218662D01*
X46502727Y7245955D01*
X46397273Y7245955D01*
X46295413Y7218662D01*
X46295410Y7218661D01*
X46204085Y7165934D01*
X46129521Y7091370D01*
X46076794Y7000045D01*
X46076793Y7000042D01*
X46049500Y6898182D01*
X45550500Y6898182D01*
X45523207Y7000042D01*
X45470480Y7091368D01*
X45395913Y7165935D01*
X45304587Y7218662D01*
X45202727Y7245955D01*
X45097273Y7245955D01*
X44995413Y7218662D01*
X44995410Y7218661D01*
X44904085Y7165934D01*
X44829521Y7091370D01*
X44776794Y7000045D01*
X44776793Y7000042D01*
X44749500Y6898182D01*
X43773103Y6898182D01*
X43777139Y6902218D01*
X43817226Y6962212D01*
X43825904Y6975199D01*
X43825904Y6975200D01*
X43886628Y7066080D01*
X43886628Y7066081D01*
X43886632Y7066086D01*
X43962051Y7248165D01*
X43999572Y7436794D01*
X44000500Y7441457D01*
X44000500Y7638544D01*
X43962052Y7831830D01*
X43962051Y7831831D01*
X43962051Y7831835D01*
X43948143Y7865413D01*
X43905673Y7967947D01*
X43889383Y8007272D01*
X44749500Y8007272D01*
X44749500Y7901818D01*
X44776793Y7799958D01*
X44829520Y7708632D01*
X44904087Y7634065D01*
X44995413Y7581338D01*
X45097273Y7554045D01*
X45097275Y7554045D01*
X45202725Y7554045D01*
X45202727Y7554045D01*
X45304587Y7581338D01*
X45395913Y7634065D01*
X45470480Y7708632D01*
X45523207Y7799958D01*
X45550500Y7901818D01*
X45550500Y8007272D01*
X46049500Y8007272D01*
X46049500Y7901818D01*
X46076793Y7799958D01*
X46129520Y7708632D01*
X46204087Y7634065D01*
X46295413Y7581338D01*
X46397273Y7554045D01*
X46397275Y7554045D01*
X46502725Y7554045D01*
X46502727Y7554045D01*
X46604587Y7581338D01*
X46695913Y7634065D01*
X46770480Y7708632D01*
X46823207Y7799958D01*
X46850500Y7901818D01*
X46850500Y8007272D01*
X46823207Y8109132D01*
X46770480Y8200458D01*
X46695913Y8275025D01*
X46604587Y8327752D01*
X46502727Y8355045D01*
X46397273Y8355045D01*
X46295413Y8327752D01*
X46295410Y8327751D01*
X46204085Y8275024D01*
X46129521Y8200460D01*
X46076794Y8109135D01*
X46076793Y8109132D01*
X46049500Y8007272D01*
X45550500Y8007272D01*
X45523207Y8109132D01*
X45470480Y8200458D01*
X45395913Y8275025D01*
X45304587Y8327752D01*
X45202727Y8355045D01*
X45097273Y8355045D01*
X44995413Y8327752D01*
X44995410Y8327751D01*
X44904085Y8275024D01*
X44829521Y8200460D01*
X44776794Y8109135D01*
X44776793Y8109132D01*
X44749500Y8007272D01*
X43889383Y8007272D01*
X43887124Y8012725D01*
X43886632Y8013914D01*
X43886630Y8013917D01*
X43886628Y8013921D01*
X43777139Y8177782D01*
X43777136Y8177786D01*
X43637785Y8317137D01*
X43637781Y8317140D01*
X43473920Y8426629D01*
X43473907Y8426636D01*
X43291839Y8502050D01*
X43291829Y8502053D01*
X43098543Y8540500D01*
X43098541Y8540500D01*
X42901459Y8540500D01*
X42901457Y8540500D01*
X42708170Y8502053D01*
X42708160Y8502050D01*
X42526092Y8426636D01*
X42526079Y8426629D01*
X42362218Y8317140D01*
X42362214Y8317137D01*
X42222863Y8177786D01*
X42222860Y8177782D01*
X42113371Y8013921D01*
X42113364Y8013908D01*
X42037950Y7831840D01*
X42037947Y7831830D01*
X41999500Y7638544D01*
X41999500Y7638541D01*
X41999500Y7441459D01*
X41999500Y7441457D01*
X41999499Y7441457D01*
X41460500Y7441457D01*
X41460500Y7638544D01*
X41422052Y7831830D01*
X41422051Y7831831D01*
X41422051Y7831835D01*
X41408143Y7865413D01*
X41346635Y8013908D01*
X41346628Y8013921D01*
X41237139Y8177782D01*
X41237136Y8177786D01*
X41097785Y8317137D01*
X41097781Y8317140D01*
X40933920Y8426629D01*
X40933907Y8426636D01*
X40751839Y8502050D01*
X40751829Y8502053D01*
X40558543Y8540500D01*
X40558541Y8540500D01*
X40361459Y8540500D01*
X40361457Y8540500D01*
X40168170Y8502053D01*
X40168160Y8502050D01*
X39986092Y8426636D01*
X39986079Y8426629D01*
X39822218Y8317140D01*
X39822214Y8317137D01*
X39682863Y8177786D01*
X39682860Y8177782D01*
X39573371Y8013921D01*
X39573364Y8013908D01*
X39497950Y7831840D01*
X39497947Y7831830D01*
X39459500Y7638544D01*
X39459500Y7638541D01*
X39459500Y7441459D01*
X39459500Y7441457D01*
X39459499Y7441457D01*
X36772665Y7441457D01*
X36855913Y7489520D01*
X36930480Y7564087D01*
X36983207Y7655413D01*
X37010500Y7757273D01*
X37010500Y7862727D01*
X36983207Y7964587D01*
X36930480Y8055913D01*
X36855913Y8130480D01*
X36779517Y8174587D01*
X36764589Y8183206D01*
X36764588Y8183207D01*
X36764587Y8183207D01*
X36662727Y8210500D01*
X36557273Y8210500D01*
X36455413Y8183207D01*
X36455410Y8183206D01*
X36364085Y8130479D01*
X36289521Y8055915D01*
X36236794Y7964590D01*
X36236793Y7964587D01*
X36209500Y7862727D01*
X30804497Y7862727D01*
X30830500Y7959773D01*
X30830500Y8065227D01*
X30803207Y8167087D01*
X30750480Y8258413D01*
X30675913Y8332980D01*
X30584587Y8385707D01*
X30482727Y8413000D01*
X30377273Y8413000D01*
X30275413Y8385707D01*
X30275410Y8385706D01*
X30184085Y8332979D01*
X30109521Y8258415D01*
X30056794Y8167090D01*
X30056793Y8167087D01*
X30029500Y8065227D01*
X28183836Y8065227D01*
X28225913Y8089520D01*
X28300480Y8164087D01*
X28353207Y8255413D01*
X28380500Y8357273D01*
X28380500Y8462727D01*
X28353207Y8564587D01*
X28300480Y8655913D01*
X28225913Y8730480D01*
X28134587Y8783207D01*
X28032727Y8810500D01*
X27927273Y8810500D01*
X27825413Y8783207D01*
X27825410Y8783206D01*
X27734085Y8730479D01*
X27659521Y8655915D01*
X27606794Y8564590D01*
X27606793Y8564587D01*
X27579500Y8462727D01*
X15700000Y8462727D01*
X15700000Y9482727D01*
X28549500Y9482727D01*
X28549500Y9377273D01*
X28576793Y9275413D01*
X28629520Y9184087D01*
X28704087Y9109520D01*
X28795413Y9056793D01*
X28897273Y9029500D01*
X28897275Y9029500D01*
X29002725Y9029500D01*
X29002727Y9029500D01*
X29104587Y9056793D01*
X29114865Y9062727D01*
X33159500Y9062727D01*
X33159500Y8957273D01*
X33186793Y8855413D01*
X33239520Y8764087D01*
X33314087Y8689520D01*
X33405413Y8636793D01*
X33507273Y8609500D01*
X33507275Y8609500D01*
X33612724Y8609500D01*
X33612727Y8609500D01*
X33680464Y8627650D01*
X33750308Y8625987D01*
X33808171Y8586825D01*
X33835676Y8522597D01*
X33832329Y8475786D01*
X33829500Y8465227D01*
X33829500Y8359773D01*
X33856659Y8258415D01*
X33856793Y8257914D01*
X33856794Y8257911D01*
X33864009Y8245414D01*
X33909520Y8166587D01*
X33984087Y8092020D01*
X34075413Y8039293D01*
X34177273Y8012000D01*
X34177275Y8012000D01*
X34282725Y8012000D01*
X34282727Y8012000D01*
X34384587Y8039293D01*
X34475913Y8092020D01*
X34550480Y8166587D01*
X34603207Y8257913D01*
X34630500Y8359773D01*
X34630500Y8465227D01*
X34603207Y8567087D01*
X34550480Y8658413D01*
X34475913Y8732980D01*
X34384587Y8785707D01*
X34353392Y8794066D01*
X34293732Y8830430D01*
X34263203Y8893277D01*
X34271498Y8962652D01*
X34315983Y9016530D01*
X34353393Y9033615D01*
X34374587Y9039293D01*
X34465913Y9092020D01*
X34540480Y9166587D01*
X34590213Y9252727D01*
X36169500Y9252727D01*
X36169500Y9147273D01*
X36193744Y9056795D01*
X36196793Y9045414D01*
X36196794Y9045411D01*
X36205980Y9029501D01*
X36249520Y8954087D01*
X36324087Y8879520D01*
X36415413Y8826793D01*
X36517273Y8799500D01*
X36517275Y8799500D01*
X36622725Y8799500D01*
X36622727Y8799500D01*
X36724587Y8826793D01*
X36815913Y8879520D01*
X36890480Y8954087D01*
X36943207Y9045413D01*
X36970500Y9147273D01*
X36970500Y9252727D01*
X36943207Y9354587D01*
X36890480Y9445913D01*
X36815913Y9520480D01*
X36724587Y9573207D01*
X36622727Y9600500D01*
X36517273Y9600500D01*
X36415413Y9573207D01*
X36415410Y9573206D01*
X36324085Y9520479D01*
X36249521Y9445915D01*
X36196794Y9354590D01*
X36196793Y9354587D01*
X36169500Y9252727D01*
X34590213Y9252727D01*
X34593207Y9257913D01*
X34620500Y9359773D01*
X34620500Y9465227D01*
X34593207Y9567087D01*
X34540480Y9658413D01*
X34465913Y9732980D01*
X34374587Y9785707D01*
X34367548Y9789771D01*
X34369188Y9792613D01*
X34326708Y9826855D01*
X34304651Y9893152D01*
X34304573Y9897562D01*
X34304573Y9975316D01*
X34304573Y9975318D01*
X34277280Y10077178D01*
X34224553Y10168504D01*
X34149986Y10243071D01*
X34058660Y10295798D01*
X33956800Y10323091D01*
X33851346Y10323091D01*
X33749486Y10295798D01*
X33749483Y10295797D01*
X33658158Y10243070D01*
X33583594Y10168506D01*
X33530867Y10077181D01*
X33530866Y10077178D01*
X33503573Y9975318D01*
X33503573Y9869864D01*
X33530866Y9768004D01*
X33581952Y9679520D01*
X33583594Y9676677D01*
X33638090Y9622181D01*
X33671575Y9560858D01*
X33666591Y9491166D01*
X33624719Y9435233D01*
X33559255Y9410816D01*
X33550409Y9410500D01*
X33507273Y9410500D01*
X33405413Y9383207D01*
X33405410Y9383206D01*
X33314085Y9330479D01*
X33239521Y9255915D01*
X33186794Y9164590D01*
X33186793Y9164587D01*
X33159500Y9062727D01*
X29114865Y9062727D01*
X29195913Y9109520D01*
X29270480Y9184087D01*
X29323207Y9275413D01*
X29350500Y9377273D01*
X29350500Y9482727D01*
X29323207Y9584587D01*
X29270480Y9675913D01*
X29195913Y9750480D01*
X29110973Y9799520D01*
X29104589Y9803206D01*
X29104588Y9803207D01*
X29104587Y9803207D01*
X29002727Y9830500D01*
X28897273Y9830500D01*
X28795413Y9803207D01*
X28795410Y9803206D01*
X28704085Y9750479D01*
X28629521Y9675915D01*
X28576794Y9584590D01*
X28576793Y9584587D01*
X28549500Y9482727D01*
X15700000Y9482727D01*
X15700000Y12672727D01*
X25949500Y12672727D01*
X25949500Y12567273D01*
X25976793Y12465413D01*
X26029520Y12374087D01*
X26104087Y12299520D01*
X26195413Y12246793D01*
X26297273Y12219500D01*
X26297275Y12219500D01*
X26402725Y12219500D01*
X26402727Y12219500D01*
X26504587Y12246793D01*
X26595913Y12299520D01*
X26670480Y12374087D01*
X26723207Y12465413D01*
X26750500Y12567273D01*
X26750500Y12672727D01*
X26723207Y12774587D01*
X26670480Y12865913D01*
X26595913Y12940480D01*
X26504587Y12993207D01*
X26402727Y13020500D01*
X26297273Y13020500D01*
X26195413Y12993207D01*
X26195410Y12993206D01*
X26104085Y12940479D01*
X26029521Y12865915D01*
X25976794Y12774590D01*
X25976793Y12774587D01*
X25949500Y12672727D01*
X15700000Y12672727D01*
X15700000Y13376000D01*
X15719685Y13443039D01*
X15772489Y13488794D01*
X15824000Y13500000D01*
X38986000Y13500000D01*
X39053039Y13480315D01*
X39098794Y13427511D01*
X39110000Y13376000D01*
X39110000Y12870000D01*
X40026988Y12870000D01*
X39994075Y12812993D01*
X39960000Y12685826D01*
X39960000Y12554174D01*
X39994075Y12427007D01*
X40026988Y12370000D01*
X39110000Y12370000D01*
X39110000Y11722156D01*
X39116401Y11662628D01*
X39116403Y11662621D01*
X39166645Y11527914D01*
X39166649Y11527907D01*
X39252809Y11412813D01*
X39252812Y11412810D01*
X39367906Y11326650D01*
X39367913Y11326646D01*
X39502620Y11276404D01*
X39502627Y11276402D01*
X39562155Y11270001D01*
X39562172Y11270000D01*
X40095092Y11270000D01*
X40162131Y11250315D01*
X40207886Y11197511D01*
X40217830Y11128353D01*
X40188805Y11064797D01*
X40142544Y11031439D01*
X39986092Y10966636D01*
X39986079Y10966629D01*
X39822218Y10857140D01*
X39822214Y10857137D01*
X39682863Y10717786D01*
X39682860Y10717782D01*
X39573371Y10553921D01*
X39573364Y10553908D01*
X39497950Y10371840D01*
X39497947Y10371830D01*
X39459500Y10178544D01*
X39459500Y10178543D01*
X39459500Y10178541D01*
X39459500Y9981459D01*
X39459500Y9981457D01*
X39459499Y9981457D01*
X39497947Y9788171D01*
X39497950Y9788161D01*
X39573364Y9606093D01*
X39573371Y9606080D01*
X39682860Y9442219D01*
X39682863Y9442215D01*
X39822214Y9302864D01*
X39822218Y9302861D01*
X39986079Y9193372D01*
X39986092Y9193365D01*
X40160070Y9121302D01*
X40168165Y9117949D01*
X40168169Y9117949D01*
X40168170Y9117948D01*
X40361456Y9079500D01*
X40361459Y9079500D01*
X40558543Y9079500D01*
X40709470Y9109522D01*
X40751835Y9117949D01*
X40933914Y9193368D01*
X41097782Y9302861D01*
X41237139Y9442218D01*
X41346632Y9606086D01*
X41422051Y9788165D01*
X41438302Y9869865D01*
X41460500Y9981457D01*
X41460500Y10178544D01*
X41422052Y10371830D01*
X41422051Y10371831D01*
X41422051Y10371835D01*
X41371778Y10493206D01*
X41346635Y10553908D01*
X41346628Y10553921D01*
X41237139Y10717782D01*
X41237136Y10717786D01*
X41097785Y10857137D01*
X41097781Y10857140D01*
X40933920Y10966629D01*
X40933907Y10966636D01*
X40777456Y11031439D01*
X40723052Y11075280D01*
X40700987Y11141574D01*
X40718266Y11209273D01*
X40769403Y11256884D01*
X40824908Y11270000D01*
X41276000Y11270000D01*
X41343039Y11250315D01*
X41388794Y11197511D01*
X41400000Y11146000D01*
X41400000Y11000000D01*
X42205716Y11000000D01*
X42272755Y10980315D01*
X42318510Y10927511D01*
X42328454Y10858353D01*
X42299429Y10794797D01*
X42293397Y10788319D01*
X42222863Y10717786D01*
X42222860Y10717782D01*
X42113371Y10553921D01*
X42113364Y10553908D01*
X42037950Y10371840D01*
X42037947Y10371830D01*
X41999500Y10178544D01*
X41999500Y10178543D01*
X41999500Y10178541D01*
X41999500Y9981459D01*
X41999500Y9981457D01*
X41999499Y9981457D01*
X42037947Y9788171D01*
X42037950Y9788161D01*
X42113364Y9606093D01*
X42113371Y9606080D01*
X42222860Y9442219D01*
X42222863Y9442215D01*
X42362214Y9302864D01*
X42362218Y9302861D01*
X42526079Y9193372D01*
X42526092Y9193365D01*
X42700070Y9121302D01*
X42708165Y9117949D01*
X42708169Y9117949D01*
X42708170Y9117948D01*
X42901456Y9079500D01*
X42901459Y9079500D01*
X43098543Y9079500D01*
X43249470Y9109522D01*
X43283862Y9116363D01*
X44749500Y9116363D01*
X44749500Y9010909D01*
X44776793Y8909049D01*
X44829520Y8817723D01*
X44904087Y8743156D01*
X44995413Y8690429D01*
X45097273Y8663136D01*
X45097275Y8663136D01*
X45202725Y8663136D01*
X45202727Y8663136D01*
X45304587Y8690429D01*
X45395913Y8743156D01*
X45470480Y8817723D01*
X45523207Y8909049D01*
X45550500Y9010909D01*
X45550500Y9116363D01*
X46049500Y9116363D01*
X46049500Y9010909D01*
X46076793Y8909049D01*
X46129520Y8817723D01*
X46204087Y8743156D01*
X46295413Y8690429D01*
X46397273Y8663136D01*
X46397275Y8663136D01*
X46502725Y8663136D01*
X46502727Y8663136D01*
X46604587Y8690429D01*
X46695913Y8743156D01*
X46770480Y8817723D01*
X46823207Y8909049D01*
X46850500Y9010909D01*
X46850500Y9116363D01*
X46823207Y9218223D01*
X46770480Y9309549D01*
X46695913Y9384116D01*
X46604587Y9436843D01*
X46502727Y9464136D01*
X46397273Y9464136D01*
X46295413Y9436843D01*
X46295410Y9436842D01*
X46204085Y9384115D01*
X46129521Y9309551D01*
X46076794Y9218226D01*
X46076793Y9218223D01*
X46049500Y9116363D01*
X45550500Y9116363D01*
X45523207Y9218223D01*
X45470480Y9309549D01*
X45395913Y9384116D01*
X45304587Y9436843D01*
X45202727Y9464136D01*
X45097273Y9464136D01*
X44995413Y9436843D01*
X44995410Y9436842D01*
X44904085Y9384115D01*
X44829521Y9309551D01*
X44776794Y9218226D01*
X44776793Y9218223D01*
X44749500Y9116363D01*
X43283862Y9116363D01*
X43291835Y9117949D01*
X43473914Y9193368D01*
X43473920Y9193372D01*
X43525135Y9227592D01*
X43596703Y9275413D01*
X43637782Y9302861D01*
X43777139Y9442218D01*
X43886632Y9606086D01*
X43962051Y9788165D01*
X43978302Y9869865D01*
X44000500Y9981457D01*
X44000500Y10178543D01*
X43994364Y10209388D01*
X43994364Y10209390D01*
X43991169Y10225454D01*
X44749500Y10225454D01*
X44749500Y10120000D01*
X44776793Y10018140D01*
X44829520Y9926814D01*
X44904087Y9852247D01*
X44995413Y9799520D01*
X45097273Y9772227D01*
X45097275Y9772227D01*
X45202725Y9772227D01*
X45202727Y9772227D01*
X45304587Y9799520D01*
X45395913Y9852247D01*
X45470480Y9926814D01*
X45523207Y10018140D01*
X45550500Y10120000D01*
X45550500Y10225454D01*
X46049500Y10225454D01*
X46049500Y10120000D01*
X46076793Y10018140D01*
X46129520Y9926814D01*
X46204087Y9852247D01*
X46295413Y9799520D01*
X46397273Y9772227D01*
X46397275Y9772227D01*
X46502725Y9772227D01*
X46502727Y9772227D01*
X46604587Y9799520D01*
X46695913Y9852247D01*
X46770480Y9926814D01*
X46823207Y10018140D01*
X46850500Y10120000D01*
X46850500Y10225454D01*
X46823207Y10327314D01*
X46770480Y10418640D01*
X46695913Y10493207D01*
X46604587Y10545934D01*
X46502727Y10573227D01*
X46397273Y10573227D01*
X46295413Y10545934D01*
X46295410Y10545933D01*
X46204085Y10493206D01*
X46129521Y10418642D01*
X46076794Y10327317D01*
X46076793Y10327314D01*
X46049500Y10225454D01*
X45550500Y10225454D01*
X45523207Y10327314D01*
X45470480Y10418640D01*
X45395913Y10493207D01*
X45304587Y10545934D01*
X45202727Y10573227D01*
X45097273Y10573227D01*
X44995413Y10545934D01*
X44995410Y10545933D01*
X44904085Y10493206D01*
X44829521Y10418642D01*
X44776794Y10327317D01*
X44776793Y10327314D01*
X44749500Y10225454D01*
X43991169Y10225454D01*
X43962052Y10371828D01*
X43962052Y10371830D01*
X43962051Y10371835D01*
X43911778Y10493206D01*
X43886635Y10553908D01*
X43886628Y10553921D01*
X43777139Y10717782D01*
X43777136Y10717786D01*
X43706603Y10788319D01*
X43673118Y10849642D01*
X43678102Y10919334D01*
X43719974Y10975267D01*
X43785438Y10999684D01*
X43794284Y11000000D01*
X44814063Y11000000D01*
X44881102Y10980315D01*
X44901744Y10963681D01*
X44904087Y10961338D01*
X44995413Y10908611D01*
X45097273Y10881318D01*
X45097275Y10881318D01*
X45202725Y10881318D01*
X45202727Y10881318D01*
X45304587Y10908611D01*
X45395913Y10961338D01*
X45398256Y10963681D01*
X45400720Y10965027D01*
X45402363Y10966287D01*
X45402559Y10966031D01*
X45459579Y10997166D01*
X45485937Y11000000D01*
X46114063Y11000000D01*
X46181102Y10980315D01*
X46201744Y10963681D01*
X46204087Y10961338D01*
X46295413Y10908611D01*
X46397273Y10881318D01*
X46397275Y10881318D01*
X46502725Y10881318D01*
X46502727Y10881318D01*
X46604587Y10908611D01*
X46695913Y10961338D01*
X46698256Y10963681D01*
X46700720Y10965027D01*
X46702363Y10966287D01*
X46702559Y10966031D01*
X46759579Y10997166D01*
X46785937Y11000000D01*
X46975500Y11000000D01*
X47042539Y10980315D01*
X47088294Y10927511D01*
X47099500Y10876000D01*
X47099500Y1006962D01*
X47098720Y993078D01*
X47086033Y880485D01*
X47079855Y853415D01*
X47044745Y753075D01*
X47032697Y728057D01*
X46976140Y638047D01*
X46958827Y616338D01*
X46883662Y541173D01*
X46861953Y523860D01*
X46771943Y467303D01*
X46746925Y455255D01*
X46646585Y420145D01*
X46619516Y413967D01*
X46534855Y404428D01*
X46506921Y401280D01*
X46493039Y400500D01*
X9624000Y400500D01*
X9556961Y420185D01*
X9511206Y472989D01*
X9500000Y524500D01*
X9500000Y1735929D01*
X28379499Y1735929D01*
X28404497Y1610262D01*
X28404499Y1610256D01*
X28453533Y1491876D01*
X28453538Y1491867D01*
X28524723Y1385332D01*
X28524726Y1385328D01*
X28615327Y1294727D01*
X28615331Y1294724D01*
X28721866Y1223539D01*
X28721872Y1223536D01*
X28721873Y1223535D01*
X28840256Y1174499D01*
X28840260Y1174499D01*
X28840261Y1174498D01*
X28965928Y1149500D01*
X28965931Y1149500D01*
X29094071Y1149500D01*
X29189219Y1168427D01*
X29219744Y1174499D01*
X29338127Y1223535D01*
X29444669Y1294724D01*
X29535276Y1385331D01*
X29561898Y1425175D01*
X29615509Y1469978D01*
X29684834Y1478686D01*
X29747862Y1448532D01*
X29768100Y1425176D01*
X29769417Y1423206D01*
X29794725Y1385329D01*
X29885327Y1294727D01*
X29885331Y1294724D01*
X29991866Y1223539D01*
X29991872Y1223536D01*
X29991873Y1223535D01*
X30110256Y1174499D01*
X30110260Y1174499D01*
X30110261Y1174498D01*
X30235928Y1149500D01*
X30235931Y1149500D01*
X30364071Y1149500D01*
X30459219Y1168427D01*
X30489744Y1174499D01*
X30608127Y1223535D01*
X30714669Y1294724D01*
X30805276Y1385331D01*
X30831898Y1425175D01*
X30885509Y1469978D01*
X30954834Y1478686D01*
X31017862Y1448532D01*
X31038100Y1425176D01*
X31039417Y1423206D01*
X31064725Y1385329D01*
X31155327Y1294727D01*
X31155331Y1294724D01*
X31261866Y1223539D01*
X31261872Y1223536D01*
X31261873Y1223535D01*
X31380256Y1174499D01*
X31380260Y1174499D01*
X31380261Y1174498D01*
X31505928Y1149500D01*
X31505931Y1149500D01*
X31634070Y1149500D01*
X31657989Y1154259D01*
X31743213Y1171211D01*
X31812803Y1164984D01*
X31867981Y1122122D01*
X31883586Y1092928D01*
X31896646Y1057913D01*
X31896649Y1057907D01*
X31982809Y942813D01*
X31982812Y942810D01*
X32097906Y856650D01*
X32097913Y856646D01*
X32232620Y806404D01*
X32232627Y806402D01*
X32292155Y800001D01*
X32292172Y800000D01*
X32590000Y800000D01*
X33090000Y800000D01*
X33387828Y800000D01*
X33387844Y800001D01*
X33447372Y806402D01*
X33447379Y806404D01*
X33582086Y856646D01*
X33582093Y856650D01*
X33697187Y942810D01*
X33697190Y942813D01*
X33783350Y1057907D01*
X33783354Y1057914D01*
X33789318Y1073903D01*
X33831189Y1129837D01*
X33896653Y1154254D01*
X33964926Y1139403D01*
X34014332Y1089998D01*
X34029500Y1030570D01*
X34029500Y997273D01*
X34056793Y895413D01*
X34109520Y804087D01*
X34184087Y729520D01*
X34275413Y676793D01*
X34377273Y649500D01*
X34377275Y649500D01*
X34482725Y649500D01*
X34482727Y649500D01*
X34584587Y676793D01*
X34675913Y729520D01*
X34750480Y804087D01*
X34803207Y895413D01*
X34830500Y997273D01*
X34830500Y1102727D01*
X34803207Y1204587D01*
X34750480Y1295913D01*
X34693666Y1352727D01*
X44749500Y1352727D01*
X44749500Y1247273D01*
X44776793Y1145413D01*
X44829520Y1054087D01*
X44904087Y979520D01*
X44995413Y926793D01*
X45097273Y899500D01*
X45097275Y899500D01*
X45202725Y899500D01*
X45202727Y899500D01*
X45304587Y926793D01*
X45395913Y979520D01*
X45470480Y1054087D01*
X45523207Y1145413D01*
X45550500Y1247273D01*
X45550500Y1352727D01*
X46049500Y1352727D01*
X46049500Y1247273D01*
X46076793Y1145413D01*
X46129520Y1054087D01*
X46204087Y979520D01*
X46295413Y926793D01*
X46397273Y899500D01*
X46397275Y899500D01*
X46502725Y899500D01*
X46502727Y899500D01*
X46604587Y926793D01*
X46695913Y979520D01*
X46770480Y1054087D01*
X46823207Y1145413D01*
X46850500Y1247273D01*
X46850500Y1352727D01*
X46823207Y1454587D01*
X46770480Y1545913D01*
X46695913Y1620480D01*
X46604587Y1673207D01*
X46502727Y1700500D01*
X46397273Y1700500D01*
X46295413Y1673207D01*
X46295410Y1673206D01*
X46204085Y1620479D01*
X46129521Y1545915D01*
X46076794Y1454590D01*
X46076793Y1454587D01*
X46049500Y1352727D01*
X45550500Y1352727D01*
X45523207Y1454587D01*
X45470480Y1545913D01*
X45395913Y1620480D01*
X45304587Y1673207D01*
X45202727Y1700500D01*
X45097273Y1700500D01*
X44995413Y1673207D01*
X44995410Y1673206D01*
X44904085Y1620479D01*
X44829521Y1545915D01*
X44776794Y1454590D01*
X44776793Y1454587D01*
X44749500Y1352727D01*
X34693666Y1352727D01*
X34675913Y1370480D01*
X34584587Y1423207D01*
X34482727Y1450500D01*
X34377273Y1450500D01*
X34275413Y1423207D01*
X34275410Y1423206D01*
X34184085Y1370479D01*
X34109522Y1295916D01*
X34109520Y1295914D01*
X34109520Y1295913D01*
X34081439Y1247274D01*
X34071387Y1229864D01*
X34020819Y1181649D01*
X33952212Y1168427D01*
X33887348Y1194395D01*
X33846820Y1251310D01*
X33840000Y1291865D01*
X33840000Y1550000D01*
X33090000Y1550000D01*
X33090000Y800000D01*
X32590000Y800000D01*
X32590000Y1590382D01*
X32640446Y1539936D01*
X32714555Y1497149D01*
X32797213Y1475000D01*
X32882787Y1475000D01*
X32965445Y1497149D01*
X33039554Y1539936D01*
X33100064Y1600446D01*
X33142851Y1674555D01*
X33165000Y1757213D01*
X33165000Y1842787D01*
X33142851Y1925445D01*
X33100064Y1999554D01*
X33039554Y2060064D01*
X32965445Y2102851D01*
X32882787Y2125000D01*
X32797213Y2125000D01*
X32714555Y2102851D01*
X32640446Y2060064D01*
X32590000Y2009618D01*
X32590000Y2800000D01*
X33090000Y2800000D01*
X33090000Y2050000D01*
X33840000Y2050000D01*
X33840000Y2173495D01*
X33859685Y2240534D01*
X33912489Y2286289D01*
X33981647Y2296233D01*
X34045203Y2267208D01*
X34071385Y2235497D01*
X34089520Y2204087D01*
X34164087Y2129520D01*
X34255413Y2076793D01*
X34357273Y2049500D01*
X34357275Y2049500D01*
X34462725Y2049500D01*
X34462727Y2049500D01*
X34564587Y2076793D01*
X34655913Y2129520D01*
X34730480Y2204087D01*
X34783207Y2295413D01*
X34810500Y2397273D01*
X34810500Y2502727D01*
X34783207Y2604587D01*
X34730480Y2695913D01*
X34655913Y2770480D01*
X34564587Y2823207D01*
X34462727Y2850500D01*
X34357273Y2850500D01*
X34255413Y2823207D01*
X34255410Y2823206D01*
X34164085Y2770479D01*
X34089521Y2695915D01*
X34036794Y2604590D01*
X34036791Y2604583D01*
X34021490Y2547479D01*
X33985125Y2487819D01*
X33922277Y2457291D01*
X33852902Y2465586D01*
X33799025Y2510072D01*
X33785532Y2536245D01*
X33783351Y2542092D01*
X33783350Y2542094D01*
X33697190Y2657188D01*
X33697187Y2657191D01*
X33582093Y2743351D01*
X33582086Y2743355D01*
X33447379Y2793597D01*
X33447372Y2793599D01*
X33387844Y2800000D01*
X33090000Y2800000D01*
X32590000Y2800000D01*
X32292155Y2800000D01*
X32279236Y2798610D01*
X32210476Y2811015D01*
X32159339Y2858625D01*
X32158593Y2859899D01*
X32120480Y2925913D01*
X32045913Y3000480D01*
X31954587Y3053207D01*
X31852727Y3080500D01*
X31747273Y3080500D01*
X31645413Y3053207D01*
X31645410Y3053206D01*
X31554085Y3000479D01*
X31479521Y2925915D01*
X31426794Y2834590D01*
X31426793Y2834587D01*
X31399500Y2732727D01*
X31399500Y2627273D01*
X31418095Y2557872D01*
X31416433Y2488024D01*
X31377270Y2430161D01*
X31345775Y2411219D01*
X31261872Y2376465D01*
X31261866Y2376462D01*
X31155331Y2305277D01*
X31155327Y2305274D01*
X31064726Y2214673D01*
X31064723Y2214669D01*
X31038102Y2174827D01*
X30984490Y2130022D01*
X30915165Y2121315D01*
X30852137Y2151470D01*
X30831898Y2174827D01*
X30805276Y2214669D01*
X30805273Y2214673D01*
X30714672Y2305274D01*
X30714668Y2305277D01*
X30608133Y2376462D01*
X30608124Y2376467D01*
X30489744Y2425501D01*
X30489738Y2425503D01*
X30364071Y2450500D01*
X30364069Y2450500D01*
X30235931Y2450500D01*
X30235929Y2450500D01*
X30110261Y2425503D01*
X30110255Y2425501D01*
X29991875Y2376467D01*
X29991866Y2376462D01*
X29885331Y2305277D01*
X29885327Y2305274D01*
X29794726Y2214673D01*
X29794723Y2214669D01*
X29768102Y2174827D01*
X29714490Y2130022D01*
X29645165Y2121315D01*
X29582137Y2151470D01*
X29561898Y2174827D01*
X29535276Y2214669D01*
X29535273Y2214673D01*
X29444672Y2305274D01*
X29444668Y2305277D01*
X29338133Y2376462D01*
X29338124Y2376467D01*
X29219744Y2425501D01*
X29219738Y2425503D01*
X29094071Y2450500D01*
X29094069Y2450500D01*
X28965931Y2450500D01*
X28965929Y2450500D01*
X28840261Y2425503D01*
X28840255Y2425501D01*
X28721875Y2376467D01*
X28721866Y2376462D01*
X28615331Y2305277D01*
X28615327Y2305274D01*
X28524726Y2214673D01*
X28524723Y2214669D01*
X28453538Y2108134D01*
X28453533Y2108125D01*
X28404499Y1989745D01*
X28404497Y1989739D01*
X28379500Y1864072D01*
X28379500Y1864069D01*
X28379500Y1735931D01*
X28379500Y1735929D01*
X28379499Y1735929D01*
X9500000Y1735929D01*
X9500000Y2252727D01*
X26109500Y2252727D01*
X26109500Y2147273D01*
X26132868Y2060064D01*
X26136793Y2045414D01*
X26136794Y2045411D01*
X26150922Y2020941D01*
X26189520Y1954087D01*
X26264087Y1879520D01*
X26355413Y1826793D01*
X26457273Y1799500D01*
X26457275Y1799500D01*
X26562725Y1799500D01*
X26562727Y1799500D01*
X26664587Y1826793D01*
X26755913Y1879520D01*
X26830480Y1954087D01*
X26883207Y2045413D01*
X26910500Y2147273D01*
X26910500Y2252727D01*
X26883207Y2354587D01*
X26830480Y2445913D01*
X26755913Y2520480D01*
X26664587Y2573207D01*
X26562727Y2600500D01*
X26457273Y2600500D01*
X26355413Y2573207D01*
X26355410Y2573206D01*
X26264085Y2520479D01*
X26189521Y2445915D01*
X26136794Y2354590D01*
X26136793Y2354587D01*
X26109500Y2252727D01*
X9500000Y2252727D01*
X9500000Y3352729D01*
X27899500Y3352729D01*
X27899500Y3352727D01*
X27899500Y3247273D01*
X27926793Y3145413D01*
X27979520Y3054087D01*
X28054087Y2979520D01*
X28145413Y2926793D01*
X28247273Y2899500D01*
X28247275Y2899500D01*
X28352725Y2899500D01*
X28352727Y2899500D01*
X28454587Y2926793D01*
X28545913Y2979520D01*
X28620480Y3054087D01*
X28673207Y3145413D01*
X28700500Y3247273D01*
X28700500Y3352727D01*
X28673207Y3454587D01*
X28620480Y3545913D01*
X28545913Y3620480D01*
X28455346Y3672769D01*
X28454589Y3673206D01*
X28454588Y3673207D01*
X28454587Y3673207D01*
X28352727Y3700500D01*
X28247273Y3700500D01*
X28145413Y3673207D01*
X28145410Y3673206D01*
X28054087Y3620480D01*
X28006075Y3572469D01*
X28006073Y3572467D01*
X27979520Y3545913D01*
X27926793Y3454587D01*
X27918276Y3422803D01*
X27918275Y3422800D01*
X27899500Y3352729D01*
X9500000Y3352729D01*
X9500000Y3942727D01*
X15699500Y3942727D01*
X15699500Y3837273D01*
X15726793Y3735413D01*
X15779520Y3644087D01*
X15854087Y3569520D01*
X15945413Y3516793D01*
X16047273Y3489500D01*
X16047275Y3489500D01*
X16152725Y3489500D01*
X16152727Y3489500D01*
X16254587Y3516793D01*
X16345913Y3569520D01*
X16345916Y3569524D01*
X16346659Y3569952D01*
X16414560Y3586425D01*
X16470658Y3569953D01*
X16545413Y3526793D01*
X16647273Y3499500D01*
X16647275Y3499500D01*
X16752725Y3499500D01*
X16752727Y3499500D01*
X16854587Y3526793D01*
X16938001Y3574953D01*
X17005900Y3591425D01*
X17061998Y3574953D01*
X17145413Y3526793D01*
X17247273Y3499500D01*
X17247275Y3499500D01*
X17352725Y3499500D01*
X17352727Y3499500D01*
X17454587Y3526793D01*
X17538001Y3574953D01*
X17605900Y3591425D01*
X17661998Y3574953D01*
X17745413Y3526793D01*
X17847273Y3499500D01*
X17847275Y3499500D01*
X17952725Y3499500D01*
X17952727Y3499500D01*
X18054587Y3526793D01*
X18145913Y3579520D01*
X18220480Y3654087D01*
X18273207Y3745413D01*
X18300500Y3847273D01*
X18300500Y3872727D01*
X27009500Y3872727D01*
X27009500Y3767273D01*
X27036793Y3665413D01*
X27089520Y3574087D01*
X27164087Y3499520D01*
X27255413Y3446793D01*
X27357273Y3419500D01*
X27357275Y3419500D01*
X27462725Y3419500D01*
X27462727Y3419500D01*
X27564587Y3446793D01*
X27655913Y3499520D01*
X27730480Y3574087D01*
X27783207Y3665413D01*
X27810500Y3767273D01*
X27810500Y3832727D01*
X36179500Y3832727D01*
X36179500Y3727273D01*
X36206793Y3625413D01*
X36259520Y3534087D01*
X36334087Y3459520D01*
X36425413Y3406793D01*
X36490039Y3389477D01*
X36549700Y3353112D01*
X36580229Y3290265D01*
X36571934Y3220890D01*
X36545629Y3182022D01*
X36519520Y3155913D01*
X36466794Y3064590D01*
X36466793Y3064587D01*
X36439500Y2962727D01*
X36439500Y2857273D01*
X36466793Y2755413D01*
X36519520Y2664087D01*
X36594087Y2589520D01*
X36685413Y2536793D01*
X36685415Y2536793D01*
X36687194Y2536055D01*
X36688464Y2535032D01*
X36692452Y2532729D01*
X36692092Y2532108D01*
X36741596Y2492213D01*
X36763660Y2425919D01*
X36746380Y2358220D01*
X36727422Y2333815D01*
X36699520Y2305913D01*
X36646794Y2214590D01*
X36646793Y2214587D01*
X36619500Y2112727D01*
X36619500Y2007273D01*
X36646793Y1905413D01*
X36699520Y1814087D01*
X36774087Y1739520D01*
X36865413Y1686793D01*
X36967273Y1659500D01*
X36967275Y1659500D01*
X37072725Y1659500D01*
X37072727Y1659500D01*
X37174587Y1686793D01*
X37265913Y1739520D01*
X37340480Y1814087D01*
X37393207Y1905413D01*
X37420500Y2007273D01*
X37420500Y2112727D01*
X37393207Y2214587D01*
X37340480Y2305913D01*
X37284936Y2361457D01*
X39459499Y2361457D01*
X39497947Y2168171D01*
X39497950Y2168161D01*
X39573364Y1986093D01*
X39573371Y1986080D01*
X39682860Y1822219D01*
X39682863Y1822215D01*
X39822214Y1682864D01*
X39822218Y1682861D01*
X39986079Y1573372D01*
X39986092Y1573365D01*
X40168160Y1497951D01*
X40168165Y1497949D01*
X40168169Y1497949D01*
X40168170Y1497948D01*
X40361456Y1459500D01*
X40361459Y1459500D01*
X40558543Y1459500D01*
X40721304Y1491876D01*
X40751835Y1497949D01*
X40933914Y1573368D01*
X41097782Y1682861D01*
X41237139Y1822218D01*
X41346632Y1986086D01*
X41422051Y2168165D01*
X41447362Y2295411D01*
X41460500Y2361457D01*
X41999499Y2361457D01*
X42037947Y2168171D01*
X42037950Y2168161D01*
X42113364Y1986093D01*
X42113371Y1986080D01*
X42222860Y1822219D01*
X42222863Y1822215D01*
X42362214Y1682864D01*
X42362218Y1682861D01*
X42526079Y1573372D01*
X42526092Y1573365D01*
X42708160Y1497951D01*
X42708165Y1497949D01*
X42708169Y1497949D01*
X42708170Y1497948D01*
X42901456Y1459500D01*
X42901459Y1459500D01*
X43098543Y1459500D01*
X43098544Y1459501D01*
X43151217Y1469978D01*
X43214020Y1482470D01*
X43214025Y1482471D01*
X43268595Y1493327D01*
X43291835Y1497949D01*
X43473914Y1573368D01*
X43637782Y1682861D01*
X43777139Y1822218D01*
X43886632Y1986086D01*
X43962051Y2168165D01*
X43987362Y2295411D01*
X44000500Y2361457D01*
X44000500Y2461818D01*
X44749500Y2461818D01*
X44749500Y2356364D01*
X44776793Y2254504D01*
X44829520Y2163178D01*
X44904087Y2088611D01*
X44995413Y2035884D01*
X45097273Y2008591D01*
X45097275Y2008591D01*
X45202725Y2008591D01*
X45202727Y2008591D01*
X45304587Y2035884D01*
X45395913Y2088611D01*
X45470480Y2163178D01*
X45523207Y2254504D01*
X45550500Y2356364D01*
X45550500Y2461818D01*
X46049500Y2461818D01*
X46049500Y2356364D01*
X46076793Y2254504D01*
X46129520Y2163178D01*
X46204087Y2088611D01*
X46295413Y2035884D01*
X46397273Y2008591D01*
X46397275Y2008591D01*
X46502725Y2008591D01*
X46502727Y2008591D01*
X46604587Y2035884D01*
X46695913Y2088611D01*
X46770480Y2163178D01*
X46823207Y2254504D01*
X46850500Y2356364D01*
X46850500Y2461818D01*
X46823207Y2563678D01*
X46770480Y2655004D01*
X46695913Y2729571D01*
X46604587Y2782298D01*
X46502727Y2809591D01*
X46397273Y2809591D01*
X46295413Y2782298D01*
X46295410Y2782297D01*
X46204085Y2729570D01*
X46129521Y2655006D01*
X46076794Y2563681D01*
X46076793Y2563678D01*
X46049500Y2461818D01*
X45550500Y2461818D01*
X45523207Y2563678D01*
X45470480Y2655004D01*
X45395913Y2729571D01*
X45304587Y2782298D01*
X45202727Y2809591D01*
X45097273Y2809591D01*
X44995413Y2782298D01*
X44995410Y2782297D01*
X44904085Y2729570D01*
X44829521Y2655006D01*
X44776794Y2563681D01*
X44776793Y2563678D01*
X44749500Y2461818D01*
X44000500Y2461818D01*
X44000500Y2558544D01*
X43962052Y2751830D01*
X43962051Y2751831D01*
X43962051Y2751835D01*
X43960569Y2755414D01*
X43886635Y2933908D01*
X43886628Y2933921D01*
X43777139Y3097782D01*
X43777136Y3097786D01*
X43637785Y3237137D01*
X43637781Y3237140D01*
X43473920Y3346629D01*
X43473907Y3346636D01*
X43291839Y3422050D01*
X43291829Y3422053D01*
X43114032Y3457419D01*
X43098543Y3460500D01*
X43098541Y3460500D01*
X42901459Y3460500D01*
X42901457Y3460500D01*
X42708170Y3422053D01*
X42708160Y3422050D01*
X42526092Y3346636D01*
X42526079Y3346629D01*
X42362218Y3237140D01*
X42362214Y3237137D01*
X42222863Y3097786D01*
X42222860Y3097782D01*
X42113371Y2933921D01*
X42113364Y2933908D01*
X42037950Y2751840D01*
X42037947Y2751830D01*
X41999500Y2558544D01*
X41999500Y2558541D01*
X41999500Y2361459D01*
X41999500Y2361457D01*
X41999499Y2361457D01*
X41460500Y2361457D01*
X41460500Y2558544D01*
X41422052Y2751830D01*
X41422051Y2751831D01*
X41422051Y2751835D01*
X41420569Y2755414D01*
X41346635Y2933908D01*
X41346628Y2933921D01*
X41237139Y3097782D01*
X41237136Y3097786D01*
X41097785Y3237137D01*
X41097781Y3237140D01*
X40933920Y3346629D01*
X40933907Y3346636D01*
X40751839Y3422050D01*
X40751829Y3422053D01*
X40558543Y3460500D01*
X40558541Y3460500D01*
X40361459Y3460500D01*
X40361457Y3460500D01*
X40168170Y3422053D01*
X40168160Y3422050D01*
X39986092Y3346636D01*
X39986079Y3346629D01*
X39822218Y3237140D01*
X39822214Y3237137D01*
X39682863Y3097786D01*
X39682860Y3097782D01*
X39573371Y2933921D01*
X39573364Y2933908D01*
X39497950Y2751840D01*
X39497947Y2751830D01*
X39459500Y2558544D01*
X39459500Y2558541D01*
X39459500Y2361459D01*
X39459500Y2361457D01*
X39459499Y2361457D01*
X37284936Y2361457D01*
X37265913Y2380480D01*
X37174587Y2433207D01*
X37174586Y2433208D01*
X37174585Y2433208D01*
X37172799Y2433948D01*
X37171524Y2434975D01*
X37167548Y2437271D01*
X37167906Y2437892D01*
X37147251Y2454539D01*
X37120993Y2474196D01*
X37120189Y2476350D01*
X37118399Y2477793D01*
X37108041Y2508921D01*
X37096576Y2539660D01*
X37097064Y2541908D01*
X37096339Y2544089D01*
X37104453Y2575872D01*
X37111428Y2607933D01*
X37113265Y2610389D01*
X37113623Y2611787D01*
X37132575Y2636183D01*
X37160480Y2664087D01*
X37213207Y2755413D01*
X37240500Y2857273D01*
X37240500Y2962727D01*
X37213207Y3064587D01*
X37160480Y3155913D01*
X37085913Y3230480D01*
X36994589Y3283206D01*
X36994588Y3283207D01*
X36929959Y3300524D01*
X36870298Y3336890D01*
X36839770Y3399737D01*
X36848065Y3469112D01*
X36874368Y3507976D01*
X36900480Y3534087D01*
X36921739Y3570909D01*
X44749500Y3570909D01*
X44749500Y3465455D01*
X44776793Y3363595D01*
X44829520Y3272269D01*
X44904087Y3197702D01*
X44995413Y3144975D01*
X45097273Y3117682D01*
X45097275Y3117682D01*
X45202725Y3117682D01*
X45202727Y3117682D01*
X45304587Y3144975D01*
X45395913Y3197702D01*
X45470480Y3272269D01*
X45523207Y3363595D01*
X45550500Y3465455D01*
X45550500Y3570909D01*
X46049500Y3570909D01*
X46049500Y3465455D01*
X46076793Y3363595D01*
X46129520Y3272269D01*
X46204087Y3197702D01*
X46295413Y3144975D01*
X46397273Y3117682D01*
X46397275Y3117682D01*
X46502725Y3117682D01*
X46502727Y3117682D01*
X46604587Y3144975D01*
X46695913Y3197702D01*
X46770480Y3272269D01*
X46823207Y3363595D01*
X46850500Y3465455D01*
X46850500Y3570909D01*
X46823207Y3672769D01*
X46770480Y3764095D01*
X46695913Y3838662D01*
X46604587Y3891389D01*
X46502727Y3918682D01*
X46397273Y3918682D01*
X46295413Y3891389D01*
X46295410Y3891388D01*
X46204085Y3838661D01*
X46129521Y3764097D01*
X46076794Y3672772D01*
X46076793Y3672769D01*
X46049500Y3570909D01*
X45550500Y3570909D01*
X45523207Y3672769D01*
X45470480Y3764095D01*
X45395913Y3838662D01*
X45304587Y3891389D01*
X45202727Y3918682D01*
X45097273Y3918682D01*
X44995413Y3891389D01*
X44995410Y3891388D01*
X44904085Y3838661D01*
X44829521Y3764097D01*
X44776794Y3672772D01*
X44776793Y3672769D01*
X44749500Y3570909D01*
X36921739Y3570909D01*
X36953207Y3625413D01*
X36980500Y3727273D01*
X36980500Y3832727D01*
X36953207Y3934587D01*
X36900480Y4025913D01*
X36825913Y4100480D01*
X36734587Y4153207D01*
X36632727Y4180500D01*
X36527273Y4180500D01*
X36428992Y4154167D01*
X36428992Y4154166D01*
X36425412Y4153207D01*
X36425410Y4153206D01*
X36334085Y4100479D01*
X36259521Y4025915D01*
X36206794Y3934590D01*
X36206793Y3934587D01*
X36179500Y3832727D01*
X27810500Y3832727D01*
X27810500Y3872727D01*
X27783207Y3974587D01*
X27730480Y4065913D01*
X27655913Y4140480D01*
X27564587Y4193207D01*
X27462727Y4220500D01*
X27357273Y4220500D01*
X27255413Y4193207D01*
X27255410Y4193206D01*
X27164085Y4140479D01*
X27089521Y4065915D01*
X27036794Y3974590D01*
X27036793Y3974587D01*
X27009500Y3872727D01*
X18300500Y3872727D01*
X18300500Y3952727D01*
X18273207Y4054587D01*
X18220480Y4145913D01*
X18145913Y4220480D01*
X18071908Y4263207D01*
X18054589Y4273206D01*
X18054588Y4273207D01*
X18054587Y4273207D01*
X17952727Y4300500D01*
X17847273Y4300500D01*
X17745413Y4273207D01*
X17745410Y4273206D01*
X17662000Y4225049D01*
X17594099Y4208576D01*
X17538000Y4225049D01*
X17454589Y4273206D01*
X17454588Y4273207D01*
X17454587Y4273207D01*
X17352727Y4300500D01*
X17247273Y4300500D01*
X17145413Y4273207D01*
X17145410Y4273206D01*
X17062000Y4225049D01*
X16994099Y4208576D01*
X16938000Y4225049D01*
X16854589Y4273206D01*
X16854588Y4273207D01*
X16854587Y4273207D01*
X16752727Y4300500D01*
X16647273Y4300500D01*
X16545413Y4273207D01*
X16545412Y4273207D01*
X16453338Y4220048D01*
X16385438Y4203576D01*
X16329339Y4220049D01*
X16254589Y4263206D01*
X16254588Y4263207D01*
X16254587Y4263207D01*
X16152727Y4290500D01*
X16047273Y4290500D01*
X15945413Y4263207D01*
X15945410Y4263206D01*
X15854085Y4210479D01*
X15779521Y4135915D01*
X15726794Y4044590D01*
X15726793Y4044587D01*
X15699500Y3942727D01*
X9500000Y3942727D01*
X9500000Y4602727D01*
X14549500Y4602727D01*
X14549500Y4497273D01*
X14568385Y4426795D01*
X14576793Y4395414D01*
X14576794Y4395411D01*
X14577559Y4394086D01*
X14629520Y4304087D01*
X14704087Y4229520D01*
X14795413Y4176793D01*
X14897273Y4149500D01*
X14897275Y4149500D01*
X15002725Y4149500D01*
X15002727Y4149500D01*
X15104587Y4176793D01*
X15195913Y4229520D01*
X15270480Y4304087D01*
X15323207Y4395413D01*
X15350500Y4497273D01*
X15350500Y4602727D01*
X15326385Y4692727D01*
X25309500Y4692727D01*
X25309500Y4587273D01*
X25336793Y4485413D01*
X25389520Y4394087D01*
X25464087Y4319520D01*
X25555413Y4266793D01*
X25657273Y4239500D01*
X25657275Y4239500D01*
X25762725Y4239500D01*
X25762727Y4239500D01*
X25864587Y4266793D01*
X25955913Y4319520D01*
X26030480Y4394087D01*
X26083207Y4485413D01*
X26110500Y4587273D01*
X26110500Y4692727D01*
X26083207Y4794587D01*
X26049640Y4852727D01*
X35999500Y4852727D01*
X35999500Y4747273D01*
X36026793Y4645413D01*
X36079520Y4554087D01*
X36154087Y4479520D01*
X36245413Y4426793D01*
X36347273Y4399500D01*
X36347275Y4399500D01*
X36392491Y4399500D01*
X36452727Y4399500D01*
X36554587Y4426793D01*
X36645913Y4479520D01*
X36720480Y4554087D01*
X36773207Y4645413D01*
X36800500Y4747273D01*
X36800500Y4852727D01*
X36787443Y4901457D01*
X39459499Y4901457D01*
X39497947Y4708171D01*
X39497950Y4708161D01*
X39573364Y4526093D01*
X39573371Y4526080D01*
X39682860Y4362219D01*
X39682863Y4362215D01*
X39822214Y4222864D01*
X39822218Y4222861D01*
X39986079Y4113372D01*
X39986092Y4113365D01*
X40127997Y4054587D01*
X40168165Y4037949D01*
X40168169Y4037949D01*
X40168170Y4037948D01*
X40361456Y3999500D01*
X40361459Y3999500D01*
X40558543Y3999500D01*
X40691337Y4025915D01*
X40751835Y4037949D01*
X40933914Y4113368D01*
X41097782Y4222861D01*
X41237139Y4362218D01*
X41346632Y4526086D01*
X41422051Y4708165D01*
X41450806Y4852725D01*
X41460500Y4901457D01*
X41999499Y4901457D01*
X42037947Y4708171D01*
X42037950Y4708161D01*
X42113364Y4526093D01*
X42113371Y4526080D01*
X42222860Y4362219D01*
X42222863Y4362215D01*
X42362214Y4222864D01*
X42362218Y4222861D01*
X42526079Y4113372D01*
X42526092Y4113365D01*
X42667997Y4054587D01*
X42708165Y4037949D01*
X42708169Y4037949D01*
X42708170Y4037948D01*
X42901456Y3999500D01*
X42901459Y3999500D01*
X43098543Y3999500D01*
X43231337Y4025915D01*
X43291835Y4037949D01*
X43473914Y4113368D01*
X43637782Y4222861D01*
X43777139Y4362218D01*
X43886632Y4526086D01*
X43950385Y4680000D01*
X44749500Y4680000D01*
X44749500Y4574546D01*
X44776793Y4472686D01*
X44829520Y4381360D01*
X44904087Y4306793D01*
X44995413Y4254066D01*
X45097273Y4226773D01*
X45097275Y4226773D01*
X45202725Y4226773D01*
X45202727Y4226773D01*
X45304587Y4254066D01*
X45395913Y4306793D01*
X45470480Y4381360D01*
X45523207Y4472686D01*
X45550500Y4574546D01*
X45550500Y4680000D01*
X46049500Y4680000D01*
X46049500Y4574546D01*
X46076793Y4472686D01*
X46129520Y4381360D01*
X46204087Y4306793D01*
X46295413Y4254066D01*
X46397273Y4226773D01*
X46397275Y4226773D01*
X46502725Y4226773D01*
X46502727Y4226773D01*
X46604587Y4254066D01*
X46695913Y4306793D01*
X46770480Y4381360D01*
X46823207Y4472686D01*
X46850500Y4574546D01*
X46850500Y4680000D01*
X46823207Y4781860D01*
X46770480Y4873186D01*
X46695913Y4947753D01*
X46604587Y5000480D01*
X46502727Y5027773D01*
X46397273Y5027773D01*
X46295413Y5000480D01*
X46295410Y5000479D01*
X46204085Y4947752D01*
X46129521Y4873188D01*
X46076794Y4781863D01*
X46076793Y4781860D01*
X46049500Y4680000D01*
X45550500Y4680000D01*
X45523207Y4781860D01*
X45470480Y4873186D01*
X45395913Y4947753D01*
X45304587Y5000480D01*
X45202727Y5027773D01*
X45097273Y5027773D01*
X44995413Y5000480D01*
X44995410Y5000479D01*
X44904085Y4947752D01*
X44829521Y4873188D01*
X44776794Y4781863D01*
X44776793Y4781860D01*
X44749500Y4680000D01*
X43950385Y4680000D01*
X43962051Y4708165D01*
X43962053Y4708175D01*
X43962879Y4712323D01*
X44000499Y4901455D01*
X44000500Y4901457D01*
X44000500Y5098544D01*
X43962052Y5291830D01*
X43962051Y5291831D01*
X43962051Y5291835D01*
X43955855Y5306794D01*
X43886635Y5473908D01*
X43886628Y5473921D01*
X43777139Y5637782D01*
X43777136Y5637786D01*
X43637785Y5777137D01*
X43637781Y5777140D01*
X43619895Y5789091D01*
X44749500Y5789091D01*
X44749500Y5683637D01*
X44776793Y5581777D01*
X44829520Y5490451D01*
X44904087Y5415884D01*
X44995413Y5363157D01*
X45097273Y5335864D01*
X45097275Y5335864D01*
X45202725Y5335864D01*
X45202727Y5335864D01*
X45304587Y5363157D01*
X45395913Y5415884D01*
X45470480Y5490451D01*
X45523207Y5581777D01*
X45550500Y5683637D01*
X45550500Y5789091D01*
X46049500Y5789091D01*
X46049500Y5683637D01*
X46076793Y5581777D01*
X46129520Y5490451D01*
X46204087Y5415884D01*
X46295413Y5363157D01*
X46397273Y5335864D01*
X46397275Y5335864D01*
X46502725Y5335864D01*
X46502727Y5335864D01*
X46604587Y5363157D01*
X46695913Y5415884D01*
X46770480Y5490451D01*
X46823207Y5581777D01*
X46850500Y5683637D01*
X46850500Y5789091D01*
X46823207Y5890951D01*
X46770480Y5982277D01*
X46695913Y6056844D01*
X46629059Y6095442D01*
X46604589Y6109570D01*
X46604588Y6109571D01*
X46604587Y6109571D01*
X46502727Y6136864D01*
X46397273Y6136864D01*
X46295413Y6109571D01*
X46295410Y6109570D01*
X46204085Y6056843D01*
X46129521Y5982279D01*
X46076794Y5890954D01*
X46076793Y5890951D01*
X46049500Y5789091D01*
X45550500Y5789091D01*
X45523207Y5890951D01*
X45470480Y5982277D01*
X45395913Y6056844D01*
X45329059Y6095442D01*
X45304589Y6109570D01*
X45304588Y6109571D01*
X45304587Y6109571D01*
X45202727Y6136864D01*
X45097273Y6136864D01*
X44995413Y6109571D01*
X44995410Y6109570D01*
X44904085Y6056843D01*
X44829521Y5982279D01*
X44776794Y5890954D01*
X44776793Y5890951D01*
X44749500Y5789091D01*
X43619895Y5789091D01*
X43473920Y5886629D01*
X43473907Y5886636D01*
X43291839Y5962050D01*
X43291829Y5962053D01*
X43098543Y6000500D01*
X43098541Y6000500D01*
X42901459Y6000500D01*
X42901457Y6000500D01*
X42708170Y5962053D01*
X42708160Y5962050D01*
X42526092Y5886636D01*
X42526079Y5886629D01*
X42362218Y5777140D01*
X42362214Y5777137D01*
X42222863Y5637786D01*
X42222860Y5637782D01*
X42113371Y5473921D01*
X42113364Y5473908D01*
X42037950Y5291840D01*
X42037947Y5291830D01*
X41999500Y5098544D01*
X41999500Y5098541D01*
X41999500Y4901459D01*
X41999500Y4901457D01*
X41999499Y4901457D01*
X41460500Y4901457D01*
X41460500Y5098544D01*
X41422052Y5291830D01*
X41422051Y5291831D01*
X41422051Y5291835D01*
X41415855Y5306794D01*
X41346635Y5473908D01*
X41346628Y5473921D01*
X41237139Y5637782D01*
X41237136Y5637786D01*
X41097785Y5777137D01*
X41097781Y5777140D01*
X40933920Y5886629D01*
X40933907Y5886636D01*
X40751839Y5962050D01*
X40751829Y5962053D01*
X40558543Y6000500D01*
X40558541Y6000500D01*
X40361459Y6000500D01*
X40361457Y6000500D01*
X40168170Y5962053D01*
X40168160Y5962050D01*
X39986092Y5886636D01*
X39986079Y5886629D01*
X39822218Y5777140D01*
X39822214Y5777137D01*
X39682863Y5637786D01*
X39682860Y5637782D01*
X39573371Y5473921D01*
X39573364Y5473908D01*
X39497950Y5291840D01*
X39497947Y5291830D01*
X39459500Y5098544D01*
X39459500Y5098541D01*
X39459500Y4901459D01*
X39459500Y4901457D01*
X39459499Y4901457D01*
X36787443Y4901457D01*
X36773207Y4954587D01*
X36720480Y5045913D01*
X36645913Y5120480D01*
X36554587Y5173207D01*
X36452727Y5200500D01*
X36347273Y5200500D01*
X36245413Y5173207D01*
X36245410Y5173206D01*
X36154085Y5120479D01*
X36079521Y5045915D01*
X36026794Y4954590D01*
X36026793Y4954587D01*
X35999500Y4852727D01*
X26049640Y4852727D01*
X26030480Y4885913D01*
X25955913Y4960480D01*
X25864587Y5013207D01*
X25762727Y5040500D01*
X25657273Y5040500D01*
X25555413Y5013207D01*
X25555410Y5013206D01*
X25464085Y4960479D01*
X25389521Y4885915D01*
X25336794Y4794590D01*
X25336793Y4794587D01*
X25309500Y4692727D01*
X15326385Y4692727D01*
X15323207Y4704587D01*
X15270480Y4795913D01*
X15195913Y4870480D01*
X15104587Y4923207D01*
X15002727Y4950500D01*
X14897273Y4950500D01*
X14795413Y4923207D01*
X14795410Y4923206D01*
X14704085Y4870479D01*
X14629521Y4795915D01*
X14576794Y4704590D01*
X14576793Y4704587D01*
X14549500Y4602727D01*
X9500000Y4602727D01*
X9500000Y5402727D01*
X20269500Y5402727D01*
X20269500Y5297273D01*
X20296793Y5195413D01*
X20349520Y5104087D01*
X20424087Y5029520D01*
X20515413Y4976793D01*
X20617273Y4949500D01*
X20617275Y4949500D01*
X20722725Y4949500D01*
X20722727Y4949500D01*
X20824587Y4976793D01*
X20915913Y5029520D01*
X20990480Y5104087D01*
X21043207Y5195413D01*
X21070500Y5297273D01*
X21070500Y5402727D01*
X21043207Y5504587D01*
X20990480Y5595913D01*
X20915913Y5670480D01*
X20824587Y5723207D01*
X20789057Y5732727D01*
X28899500Y5732727D01*
X28899500Y5627273D01*
X28926793Y5525413D01*
X28979520Y5434087D01*
X29054087Y5359520D01*
X29145413Y5306793D01*
X29247273Y5279500D01*
X29247275Y5279500D01*
X29352725Y5279500D01*
X29352727Y5279500D01*
X29454587Y5306793D01*
X29545913Y5359520D01*
X29620480Y5434087D01*
X29673207Y5525413D01*
X29700500Y5627273D01*
X29700500Y5652727D01*
X30399500Y5652727D01*
X30399500Y5547273D01*
X30426793Y5445413D01*
X30479520Y5354087D01*
X30554087Y5279520D01*
X30645413Y5226793D01*
X30747273Y5199500D01*
X30747275Y5199500D01*
X30852725Y5199500D01*
X30852727Y5199500D01*
X30954587Y5226793D01*
X31045913Y5279520D01*
X31120480Y5354087D01*
X31173207Y5445413D01*
X31200500Y5547273D01*
X31200500Y5652727D01*
X31173207Y5754587D01*
X31120480Y5845913D01*
X31045913Y5920480D01*
X30954587Y5973207D01*
X30852727Y6000500D01*
X30747273Y6000500D01*
X30645413Y5973207D01*
X30645410Y5973206D01*
X30554085Y5920479D01*
X30479521Y5845915D01*
X30426794Y5754590D01*
X30426793Y5754587D01*
X30399500Y5652727D01*
X29700500Y5652727D01*
X29700500Y5732727D01*
X29673207Y5834587D01*
X29620480Y5925913D01*
X29545913Y6000480D01*
X29479059Y6039078D01*
X29454589Y6053206D01*
X29454588Y6053207D01*
X29454587Y6053207D01*
X29381737Y6072727D01*
X31749500Y6072727D01*
X31749500Y5967273D01*
X31776793Y5865413D01*
X31829520Y5774087D01*
X31904087Y5699520D01*
X31995413Y5646793D01*
X32097273Y5619500D01*
X32097275Y5619500D01*
X32202725Y5619500D01*
X32202727Y5619500D01*
X32236032Y5628424D01*
X32305880Y5626763D01*
X32363743Y5587601D01*
X32387900Y5540744D01*
X32416793Y5432912D01*
X32416794Y5432911D01*
X32426625Y5415884D01*
X32469520Y5341587D01*
X32544087Y5267020D01*
X32635413Y5214293D01*
X32737273Y5187000D01*
X32737275Y5187000D01*
X32842725Y5187000D01*
X32842727Y5187000D01*
X32944587Y5214293D01*
X33035913Y5267020D01*
X33110480Y5341587D01*
X33163207Y5432913D01*
X33190500Y5534773D01*
X33190500Y5640227D01*
X33163207Y5742087D01*
X33110480Y5833413D01*
X33035913Y5907980D01*
X32944587Y5960707D01*
X32842727Y5988000D01*
X32737273Y5988000D01*
X32737271Y5988000D01*
X32703966Y5979076D01*
X32634116Y5980740D01*
X32576254Y6019903D01*
X32552099Y6066758D01*
X32543357Y6099385D01*
X32523207Y6174587D01*
X32470480Y6265913D01*
X32395913Y6340480D01*
X32304587Y6393207D01*
X32202727Y6420500D01*
X32097273Y6420500D01*
X31995413Y6393207D01*
X31995410Y6393206D01*
X31904085Y6340479D01*
X31829521Y6265915D01*
X31776794Y6174590D01*
X31776793Y6174587D01*
X31749500Y6072727D01*
X29381737Y6072727D01*
X29352727Y6080500D01*
X29247273Y6080500D01*
X29145413Y6053207D01*
X29145410Y6053206D01*
X29054085Y6000479D01*
X28979521Y5925915D01*
X28926794Y5834590D01*
X28926793Y5834587D01*
X28899500Y5732727D01*
X20789057Y5732727D01*
X20722727Y5750500D01*
X20617273Y5750500D01*
X20515413Y5723207D01*
X20515410Y5723206D01*
X20424085Y5670479D01*
X20349521Y5595915D01*
X20296794Y5504590D01*
X20296793Y5504587D01*
X20269500Y5402727D01*
X9500000Y5402727D01*
X9500000Y6272727D01*
X19319500Y6272727D01*
X19319500Y6167273D01*
X19346793Y6065413D01*
X19399520Y5974087D01*
X19474087Y5899520D01*
X19565413Y5846793D01*
X19667273Y5819500D01*
X19667275Y5819500D01*
X19772725Y5819500D01*
X19772727Y5819500D01*
X19874587Y5846793D01*
X19965913Y5899520D01*
X20040480Y5974087D01*
X20093207Y6065413D01*
X20120500Y6167273D01*
X20120500Y6204838D01*
X23686493Y6204838D01*
X23686493Y6099384D01*
X23713786Y5997524D01*
X23766513Y5906198D01*
X23841080Y5831631D01*
X23932406Y5778904D01*
X24034266Y5751611D01*
X24034268Y5751611D01*
X24139718Y5751611D01*
X24139720Y5751611D01*
X24241580Y5778904D01*
X24332906Y5831631D01*
X24407473Y5906198D01*
X24460200Y5997524D01*
X24487493Y6099384D01*
X24487493Y6204838D01*
X24460200Y6306698D01*
X24407473Y6398024D01*
X24332906Y6472591D01*
X24241580Y6525318D01*
X24139720Y6552611D01*
X24034266Y6552611D01*
X23932406Y6525318D01*
X23932403Y6525317D01*
X23841078Y6472590D01*
X23766514Y6398026D01*
X23713787Y6306701D01*
X23713786Y6306698D01*
X23686493Y6204838D01*
X20120500Y6204838D01*
X20120500Y6272727D01*
X20093207Y6374587D01*
X20040480Y6465913D01*
X19965913Y6540480D01*
X19899059Y6579078D01*
X19874589Y6593206D01*
X19874588Y6593207D01*
X19874587Y6593207D01*
X19772727Y6620500D01*
X19667273Y6620500D01*
X19565413Y6593207D01*
X19565410Y6593206D01*
X19474085Y6540479D01*
X19399521Y6465915D01*
X19346794Y6374590D01*
X19346793Y6374587D01*
X19319500Y6272727D01*
X9500000Y6272727D01*
X9500000Y6795628D01*
X28196599Y6795628D01*
X28196599Y6690175D01*
X28223892Y6588315D01*
X28223893Y6588312D01*
X28231817Y6574587D01*
X28276619Y6496988D01*
X28351186Y6422421D01*
X28442512Y6369694D01*
X28544372Y6342401D01*
X28544374Y6342401D01*
X28649824Y6342401D01*
X28649826Y6342401D01*
X28751686Y6369694D01*
X28843012Y6422421D01*
X28917579Y6496988D01*
X28970306Y6588314D01*
X28997599Y6690174D01*
X28997599Y6795628D01*
X28970306Y6897488D01*
X28917579Y6988814D01*
X28843012Y7063381D01*
X28751686Y7116108D01*
X28649826Y7143401D01*
X28544372Y7143401D01*
X28442512Y7116108D01*
X28442509Y7116107D01*
X28351184Y7063380D01*
X28276620Y6988816D01*
X28223893Y6897491D01*
X28223892Y6897488D01*
X28196599Y6795628D01*
X9500000Y6795628D01*
X9500000Y7352727D01*
X12039500Y7352727D01*
X12039500Y7247273D01*
X12061295Y7165934D01*
X12066793Y7145414D01*
X12066794Y7145411D01*
X12080922Y7120941D01*
X12119520Y7054087D01*
X12194087Y6979520D01*
X12285413Y6926793D01*
X12387273Y6899500D01*
X12387275Y6899500D01*
X12492725Y6899500D01*
X12492727Y6899500D01*
X12594587Y6926793D01*
X12685913Y6979520D01*
X12760480Y7054087D01*
X12813207Y7145413D01*
X12840500Y7247273D01*
X12840500Y7352727D01*
X12813207Y7454587D01*
X12760480Y7545913D01*
X12685913Y7620480D01*
X12594587Y7673207D01*
X12492727Y7700500D01*
X12387273Y7700500D01*
X12285413Y7673207D01*
X12285410Y7673206D01*
X12194085Y7620479D01*
X12119521Y7545915D01*
X12066794Y7454590D01*
X12066793Y7454587D01*
X12039500Y7352727D01*
X9500000Y7352727D01*
X9500000Y8452727D01*
X12039500Y8452727D01*
X12039500Y8347273D01*
X12066793Y8245413D01*
X12119520Y8154087D01*
X12194087Y8079520D01*
X12285413Y8026793D01*
X12387273Y7999500D01*
X12387275Y7999500D01*
X12492725Y7999500D01*
X12492727Y7999500D01*
X12594587Y8026793D01*
X12685913Y8079520D01*
X12760480Y8154087D01*
X12813207Y8245413D01*
X12840500Y8347273D01*
X12840500Y8452727D01*
X12813207Y8554587D01*
X12760480Y8645913D01*
X12719579Y8686814D01*
X12686094Y8748137D01*
X12691078Y8817829D01*
X12732950Y8873762D01*
X12775166Y8894269D01*
X12784587Y8896793D01*
X12875913Y8949520D01*
X12950480Y9024087D01*
X13003207Y9115413D01*
X13030500Y9217273D01*
X13030500Y9322727D01*
X13003207Y9424587D01*
X12950480Y9515913D01*
X12875913Y9590480D01*
X12809059Y9629078D01*
X12784589Y9643206D01*
X12784588Y9643207D01*
X12784587Y9643207D01*
X12682727Y9670500D01*
X12577273Y9670500D01*
X12475413Y9643207D01*
X12475410Y9643206D01*
X12384085Y9590479D01*
X12309521Y9515915D01*
X12256794Y9424590D01*
X12256793Y9424587D01*
X12229500Y9322727D01*
X12229500Y9217273D01*
X12256793Y9115413D01*
X12306394Y9029501D01*
X12309521Y9024086D01*
X12350420Y8983187D01*
X12383905Y8921864D01*
X12378921Y8852172D01*
X12337049Y8796239D01*
X12294836Y8775732D01*
X12285414Y8773208D01*
X12285410Y8773206D01*
X12194085Y8720479D01*
X12119521Y8645915D01*
X12066794Y8554590D01*
X12066793Y8554587D01*
X12039500Y8452727D01*
X9500000Y8452727D01*
X9500000Y11436388D01*
X9519685Y11503427D01*
X9572489Y11549182D01*
X9641647Y11559126D01*
X9685996Y11543777D01*
X9715413Y11526793D01*
X9817273Y11499500D01*
X9817275Y11499500D01*
X9922725Y11499500D01*
X9922727Y11499500D01*
X10024587Y11526793D01*
X10115913Y11579520D01*
X10190480Y11654087D01*
X10243207Y11745413D01*
X10270500Y11847273D01*
X10270500Y11952727D01*
X10243207Y12054587D01*
X10190480Y12145913D01*
X10115913Y12220480D01*
X10024587Y12273207D01*
X9922727Y12300500D01*
X9817273Y12300500D01*
X9715413Y12273207D01*
X9715412Y12273207D01*
X9685999Y12256225D01*
X9618098Y12239754D01*
X9552072Y12262606D01*
X9508882Y12317528D01*
X9500000Y12363613D01*
X9500000Y13376000D01*
X9519685Y13443039D01*
X9572489Y13488794D01*
X9624000Y13500000D01*
X13876000Y13500000D01*
X13943039Y13480315D01*
G37*
%TD.AperFunction*%
%TD*%
%TA.AperFunction,Conductor*%
%TO.N,+5V*%
G36*
X46506922Y14598721D02*
G01*
X46619518Y14586034D01*
X46646583Y14579857D01*
X46746927Y14544745D01*
X46771941Y14532699D01*
X46861955Y14476140D01*
X46883662Y14458828D01*
X46958827Y14383663D01*
X46976140Y14361954D01*
X47032697Y14271944D01*
X47044745Y14246926D01*
X47079855Y14146586D01*
X47086033Y14119516D01*
X47098720Y14006923D01*
X47099500Y13993039D01*
X47099500Y11279500D01*
X47096949Y11270815D01*
X47098238Y11261853D01*
X47087259Y11237813D01*
X47079815Y11212461D01*
X47072974Y11206534D01*
X47069213Y11198297D01*
X47046978Y11184008D01*
X47027011Y11166706D01*
X47016496Y11164419D01*
X47010435Y11160523D01*
X46975500Y11155500D01*
X46974500Y11155500D01*
X46907461Y11175185D01*
X46861706Y11227989D01*
X46850500Y11279500D01*
X46850500Y11334543D01*
X46850500Y11334545D01*
X46823207Y11436405D01*
X46770480Y11527731D01*
X46695913Y11602298D01*
X46629059Y11640896D01*
X46604589Y11655024D01*
X46604588Y11655025D01*
X46604587Y11655025D01*
X46502727Y11682318D01*
X46397273Y11682318D01*
X46295413Y11655025D01*
X46295410Y11655024D01*
X46204085Y11602297D01*
X46129521Y11527733D01*
X46076794Y11436408D01*
X46076793Y11436405D01*
X46049500Y11334545D01*
X46049500Y11279500D01*
X46029815Y11212461D01*
X45977011Y11166706D01*
X45925500Y11155500D01*
X45674500Y11155500D01*
X45607461Y11175185D01*
X45561706Y11227989D01*
X45550500Y11279500D01*
X45550500Y11334543D01*
X45550500Y11334545D01*
X45523207Y11436405D01*
X45470480Y11527731D01*
X45395913Y11602298D01*
X45329059Y11640896D01*
X45304589Y11655024D01*
X45304588Y11655025D01*
X45304587Y11655025D01*
X45202727Y11682318D01*
X45097273Y11682318D01*
X44995413Y11655025D01*
X44995410Y11655024D01*
X44904085Y11602297D01*
X44829521Y11527733D01*
X44776794Y11436408D01*
X44776793Y11436405D01*
X44749500Y11334545D01*
X44749500Y11279500D01*
X44729815Y11212461D01*
X44677011Y11166706D01*
X44625500Y11155500D01*
X43794257Y11155500D01*
X43788765Y11155403D01*
X43779893Y11155086D01*
X43779880Y11155084D01*
X43731096Y11145381D01*
X43665629Y11120963D01*
X43658763Y11118214D01*
X43595491Y11068457D01*
X43581442Y11049689D01*
X43577785Y11046952D01*
X43575888Y11042797D01*
X43550073Y11026207D01*
X43525508Y11007818D01*
X43519878Y11006803D01*
X43517110Y11005023D01*
X43482175Y11000000D01*
X43418020Y11000000D01*
X43370568Y11009439D01*
X43291835Y11042051D01*
X43291830Y11042053D01*
X43252616Y11049853D01*
X43190705Y11082239D01*
X43156132Y11142955D01*
X43159873Y11212725D01*
X43200740Y11269396D01*
X43257412Y11293944D01*
X43316134Y11303245D01*
X43518217Y11368905D01*
X43707554Y11465378D01*
X43761716Y11504730D01*
X43761717Y11504730D01*
X43129408Y12137038D01*
X43192993Y12154075D01*
X43307007Y12219901D01*
X43400099Y12312993D01*
X43465925Y12427007D01*
X43482962Y12490592D01*
X44115270Y11858283D01*
X44115270Y11858284D01*
X44154622Y11912446D01*
X44251095Y12101783D01*
X44316757Y12303870D01*
X44316757Y12303873D01*
X44338894Y12443636D01*
X44749500Y12443636D01*
X44749500Y12338182D01*
X44776793Y12236322D01*
X44829520Y12144996D01*
X44904087Y12070429D01*
X44995413Y12017702D01*
X45097273Y11990409D01*
X45097275Y11990409D01*
X45202725Y11990409D01*
X45202727Y11990409D01*
X45304587Y12017702D01*
X45395913Y12070429D01*
X45470480Y12144996D01*
X45523207Y12236322D01*
X45550500Y12338182D01*
X45550500Y12443636D01*
X46049500Y12443636D01*
X46049500Y12338182D01*
X46076793Y12236322D01*
X46129520Y12144996D01*
X46204087Y12070429D01*
X46295413Y12017702D01*
X46397273Y11990409D01*
X46397275Y11990409D01*
X46502725Y11990409D01*
X46502727Y11990409D01*
X46604587Y12017702D01*
X46695913Y12070429D01*
X46770480Y12144996D01*
X46823207Y12236322D01*
X46850500Y12338182D01*
X46850500Y12443636D01*
X46823207Y12545496D01*
X46770480Y12636822D01*
X46695913Y12711389D01*
X46629059Y12749987D01*
X46604589Y12764115D01*
X46604588Y12764116D01*
X46604587Y12764116D01*
X46502727Y12791409D01*
X46397273Y12791409D01*
X46295413Y12764116D01*
X46295410Y12764115D01*
X46204085Y12711388D01*
X46129521Y12636824D01*
X46076794Y12545499D01*
X46076793Y12545496D01*
X46049500Y12443636D01*
X45550500Y12443636D01*
X45523207Y12545496D01*
X45470480Y12636822D01*
X45395913Y12711389D01*
X45329059Y12749987D01*
X45304589Y12764115D01*
X45304588Y12764116D01*
X45304587Y12764116D01*
X45202727Y12791409D01*
X45097273Y12791409D01*
X44995413Y12764116D01*
X44995410Y12764115D01*
X44904085Y12711388D01*
X44829521Y12636824D01*
X44776794Y12545499D01*
X44776793Y12545496D01*
X44749500Y12443636D01*
X44338894Y12443636D01*
X44343254Y12471161D01*
X44350000Y12513754D01*
X44350000Y12726247D01*
X44316757Y12936128D01*
X44316757Y12936131D01*
X44251095Y13138218D01*
X44154624Y13327551D01*
X44115270Y13381718D01*
X44115269Y13381718D01*
X43482962Y12749410D01*
X43465925Y12812993D01*
X43400099Y12927007D01*
X43307007Y13020099D01*
X43192993Y13085925D01*
X43129409Y13102963D01*
X43579172Y13552727D01*
X44749500Y13552727D01*
X44749500Y13447273D01*
X44776793Y13345413D01*
X44829520Y13254087D01*
X44904087Y13179520D01*
X44995413Y13126793D01*
X45097273Y13099500D01*
X45097275Y13099500D01*
X45202725Y13099500D01*
X45202727Y13099500D01*
X45304587Y13126793D01*
X45395913Y13179520D01*
X45470480Y13254087D01*
X45523207Y13345413D01*
X45550500Y13447273D01*
X45550500Y13552727D01*
X46049500Y13552727D01*
X46049500Y13447273D01*
X46076793Y13345413D01*
X46129520Y13254087D01*
X46204087Y13179520D01*
X46295413Y13126793D01*
X46397273Y13099500D01*
X46397275Y13099500D01*
X46502725Y13099500D01*
X46502727Y13099500D01*
X46604587Y13126793D01*
X46695913Y13179520D01*
X46770480Y13254087D01*
X46823207Y13345413D01*
X46850500Y13447273D01*
X46850500Y13552727D01*
X46823207Y13654587D01*
X46770480Y13745913D01*
X46695913Y13820480D01*
X46617044Y13866015D01*
X46604589Y13873206D01*
X46604588Y13873207D01*
X46604587Y13873207D01*
X46502727Y13900500D01*
X46397273Y13900500D01*
X46295413Y13873207D01*
X46295410Y13873206D01*
X46204085Y13820479D01*
X46129521Y13745915D01*
X46076794Y13654590D01*
X46076793Y13654587D01*
X46049500Y13552727D01*
X45550500Y13552727D01*
X45523207Y13654587D01*
X45470480Y13745913D01*
X45395913Y13820480D01*
X45317044Y13866015D01*
X45304589Y13873206D01*
X45304588Y13873207D01*
X45304587Y13873207D01*
X45202727Y13900500D01*
X45097273Y13900500D01*
X44995413Y13873207D01*
X44995410Y13873206D01*
X44904085Y13820479D01*
X44829521Y13745915D01*
X44776794Y13654590D01*
X44776793Y13654587D01*
X44749500Y13552727D01*
X43579172Y13552727D01*
X43674980Y13648535D01*
X43761716Y13735272D01*
X43707550Y13774625D01*
X43518217Y13871096D01*
X43316129Y13936758D01*
X43106246Y13970000D01*
X42893754Y13970000D01*
X42683872Y13936758D01*
X42683869Y13936758D01*
X42481782Y13871096D01*
X42292439Y13774620D01*
X42238282Y13735273D01*
X42238282Y13735272D01*
X42870591Y13102963D01*
X42807007Y13085925D01*
X42692993Y13020099D01*
X42599901Y12927007D01*
X42534075Y12812993D01*
X42517037Y12749409D01*
X41884728Y13381718D01*
X41884727Y13381718D01*
X41845380Y13327561D01*
X41748904Y13138218D01*
X41702431Y12995186D01*
X41662994Y12937511D01*
X41598635Y12910312D01*
X41529789Y12922227D01*
X41478313Y12969471D01*
X41460500Y13033504D01*
X41460500Y13484823D01*
X41451768Y13528718D01*
X41451767Y13528719D01*
X41451767Y13528722D01*
X41418504Y13578504D01*
X41368722Y13611767D01*
X41368721Y13611768D01*
X41368720Y13611768D01*
X41368717Y13611769D01*
X41324822Y13620500D01*
X41324820Y13620500D01*
X39595180Y13620500D01*
X39595178Y13620500D01*
X39551282Y13611769D01*
X39551275Y13611766D01*
X39501496Y13578505D01*
X39485864Y13555109D01*
X39479773Y13550019D01*
X39476475Y13542797D01*
X39453344Y13527932D01*
X39432251Y13510304D01*
X39422877Y13508353D01*
X39417697Y13505023D01*
X39382762Y13500000D01*
X39298367Y13500000D01*
X39231328Y13519685D01*
X39204654Y13542797D01*
X39170560Y13582144D01*
X39165577Y13587624D01*
X39096854Y13629514D01*
X39096848Y13629517D01*
X39029812Y13649201D01*
X39029802Y13649203D01*
X38986003Y13655500D01*
X38986000Y13655500D01*
X15824000Y13655500D01*
X15823991Y13655500D01*
X15790944Y13651946D01*
X15739433Y13640740D01*
X15670657Y13606314D01*
X15617860Y13560564D01*
X15612376Y13555578D01*
X15570486Y13486855D01*
X15570483Y13486849D01*
X15550799Y13419813D01*
X15550797Y13419803D01*
X15544500Y13376004D01*
X15544500Y7579500D01*
X15524815Y7512461D01*
X15472011Y7466706D01*
X15420500Y7455500D01*
X14279500Y7455500D01*
X14212461Y7475185D01*
X14166706Y7527989D01*
X14155500Y7579500D01*
X14155500Y13375992D01*
X14155499Y13376004D01*
X14151946Y13409055D01*
X14140740Y13460566D01*
X14118486Y13505023D01*
X14106313Y13529343D01*
X14060563Y13582140D01*
X14060558Y13582146D01*
X14055580Y13587621D01*
X14055579Y13587622D01*
X14055577Y13587624D01*
X13986854Y13629514D01*
X13986848Y13629517D01*
X13919812Y13649201D01*
X13919802Y13649203D01*
X13876003Y13655500D01*
X13876000Y13655500D01*
X9624000Y13655500D01*
X9623991Y13655500D01*
X9590944Y13651946D01*
X9539433Y13640740D01*
X9470657Y13606314D01*
X9417860Y13560564D01*
X9412376Y13555578D01*
X9370486Y13486855D01*
X9370483Y13486849D01*
X9350799Y13419813D01*
X9350797Y13419803D01*
X9344500Y13376004D01*
X9344500Y13376000D01*
X9344500Y12363613D01*
X9346186Y12345957D01*
X9347310Y12334181D01*
X9356192Y12288101D01*
X9356194Y12288094D01*
X9379838Y12236322D01*
X9386650Y12221406D01*
X9412357Y12188716D01*
X9429849Y12166472D01*
X9433374Y12162203D01*
X9434553Y12160775D01*
X9434556Y12160773D01*
X9434558Y12160771D01*
X9438197Y12158308D01*
X9440997Y12154917D01*
X9441120Y12154805D01*
X9441103Y12154788D01*
X9482683Y12104430D01*
X9490977Y12035054D01*
X9488469Y12023527D01*
X9469500Y11952732D01*
X9469500Y11847272D01*
X9488895Y11774887D01*
X9487232Y11705037D01*
X9450326Y11649085D01*
X9417867Y11620958D01*
X9412376Y11615966D01*
X9370486Y11547243D01*
X9370483Y11547237D01*
X9350799Y11480201D01*
X9350797Y11480191D01*
X9344500Y11436392D01*
X9344500Y8616788D01*
X9324815Y8549749D01*
X9272011Y8503994D01*
X9202853Y8494050D01*
X9158500Y8509401D01*
X9134589Y8523206D01*
X9134588Y8523207D01*
X9134587Y8523207D01*
X9032727Y8550500D01*
X8927273Y8550500D01*
X8825413Y8523207D01*
X8825410Y8523206D01*
X8734085Y8470479D01*
X8659521Y8395915D01*
X8606794Y8304590D01*
X8606793Y8304587D01*
X8579500Y8202727D01*
X8579500Y8097273D01*
X8606793Y7995413D01*
X8659520Y7904087D01*
X8734087Y7829520D01*
X8825413Y7776793D01*
X8834813Y7774275D01*
X8894472Y7737910D01*
X8925002Y7675064D01*
X8916708Y7605688D01*
X8872223Y7551810D01*
X8805671Y7530535D01*
X8802719Y7530500D01*
X8757273Y7530500D01*
X8655413Y7503207D01*
X8655410Y7503206D01*
X8564085Y7450479D01*
X8489521Y7375915D01*
X8436794Y7284590D01*
X8436793Y7284587D01*
X8409500Y7182727D01*
X8409500Y7077273D01*
X8436793Y6975413D01*
X8489520Y6884087D01*
X8564087Y6809520D01*
X8655413Y6756793D01*
X8757273Y6729500D01*
X8757275Y6729500D01*
X8862725Y6729500D01*
X8862727Y6729500D01*
X8964587Y6756793D01*
X9055913Y6809520D01*
X9130480Y6884087D01*
X9130480Y6884088D01*
X9132819Y6886426D01*
X9194142Y6919911D01*
X9263834Y6914927D01*
X9319767Y6873055D01*
X9344184Y6807591D01*
X9344500Y6798745D01*
X9344500Y524500D01*
X9324815Y457461D01*
X9272011Y411706D01*
X9220500Y400500D01*
X8758126Y400500D01*
X8741942Y401561D01*
X8716601Y404898D01*
X8675725Y410279D01*
X8644460Y418657D01*
X8590333Y441077D01*
X8562300Y457261D01*
X8553164Y464271D01*
X8515815Y492930D01*
X8492929Y515816D01*
X8457259Y562302D01*
X8441076Y590334D01*
X8418656Y644461D01*
X8410278Y675728D01*
X8401561Y741941D01*
X8400500Y758126D01*
X8400500Y850654D01*
X8400499Y850659D01*
X8393601Y889778D01*
X8365543Y1048909D01*
X8296690Y1238080D01*
X8196035Y1412421D01*
X8066634Y1566634D01*
X7912421Y1696035D01*
X7738084Y1796688D01*
X7738081Y1796689D01*
X7738080Y1796690D01*
X7714190Y1805385D01*
X7548908Y1865544D01*
X7350658Y1900500D01*
X7350656Y1900500D01*
X7302727Y1900500D01*
X1006961Y1900500D01*
X993077Y1901280D01*
X880484Y1913967D01*
X853414Y1920145D01*
X753074Y1955255D01*
X728056Y1967303D01*
X638046Y2023860D01*
X616337Y2041173D01*
X541172Y2116338D01*
X523859Y2138047D01*
X481475Y2205500D01*
X467301Y2228059D01*
X455254Y2253075D01*
X444312Y2284345D01*
X420143Y2353417D01*
X413966Y2380486D01*
X401280Y2493079D01*
X400500Y2506962D01*
X400500Y3259057D01*
X1449500Y3259057D01*
X1449500Y3100944D01*
X1490423Y2948217D01*
X1490426Y2948210D01*
X1569475Y2811291D01*
X1569479Y2811286D01*
X1569480Y2811284D01*
X1681284Y2699480D01*
X1681286Y2699479D01*
X1681290Y2699476D01*
X1782440Y2641078D01*
X1818216Y2620423D01*
X1970943Y2579500D01*
X1970945Y2579500D01*
X3429055Y2579500D01*
X3429057Y2579500D01*
X3581784Y2620423D01*
X3718716Y2699480D01*
X3830520Y2811284D01*
X3909577Y2948216D01*
X3950500Y3100943D01*
X3950500Y3259057D01*
X3909577Y3411784D01*
X3909573Y3411791D01*
X3830524Y3548710D01*
X3830518Y3548718D01*
X3718717Y3660519D01*
X3718709Y3660525D01*
X3581790Y3739574D01*
X3581786Y3739576D01*
X3581784Y3739577D01*
X3429057Y3780500D01*
X1970943Y3780500D01*
X1818216Y3739577D01*
X1818209Y3739574D01*
X1681290Y3660525D01*
X1681282Y3660519D01*
X1569481Y3548718D01*
X1569475Y3548710D01*
X1490426Y3411791D01*
X1490423Y3411784D01*
X1449500Y3259057D01*
X400500Y3259057D01*
X400500Y4146144D01*
X5549500Y4146144D01*
X5549500Y4053856D01*
X5560771Y4011791D01*
X5573387Y3964710D01*
X5573388Y3964707D01*
X5619526Y3884795D01*
X5619529Y3884791D01*
X5619531Y3884788D01*
X5684788Y3819531D01*
X5684791Y3819530D01*
X5684794Y3819527D01*
X5764706Y3773389D01*
X5764707Y3773389D01*
X5764712Y3773386D01*
X5853856Y3749500D01*
X5853858Y3749500D01*
X5946140Y3749500D01*
X5946144Y3749500D01*
X5993410Y3762165D01*
X6063255Y3760502D01*
X6121118Y3721340D01*
X6148623Y3657112D01*
X6149500Y3642390D01*
X6149500Y3100944D01*
X6190423Y2948217D01*
X6190426Y2948210D01*
X6269475Y2811291D01*
X6269479Y2811286D01*
X6269480Y2811284D01*
X6381284Y2699480D01*
X6381286Y2699479D01*
X6381290Y2699476D01*
X6482440Y2641078D01*
X6518216Y2620423D01*
X6670943Y2579500D01*
X6670945Y2579500D01*
X7829055Y2579500D01*
X7829057Y2579500D01*
X7981784Y2620423D01*
X8118716Y2699480D01*
X8230520Y2811284D01*
X8309577Y2948216D01*
X8350500Y3100943D01*
X8350500Y3259057D01*
X8309577Y3411784D01*
X8309573Y3411791D01*
X8230524Y3548710D01*
X8230518Y3548718D01*
X8118717Y3660519D01*
X8118709Y3660525D01*
X7981790Y3739574D01*
X7981786Y3739576D01*
X7981784Y3739577D01*
X7829057Y3780500D01*
X7829056Y3780500D01*
X7466697Y3780500D01*
X7399658Y3800185D01*
X7353903Y3852989D01*
X7346925Y3872398D01*
X7309577Y4011784D01*
X7285287Y4053856D01*
X7230524Y4148710D01*
X7230518Y4148718D01*
X7118717Y4260519D01*
X7118709Y4260525D01*
X6981790Y4339574D01*
X6981786Y4339576D01*
X6981784Y4339577D01*
X6829057Y4380500D01*
X6670943Y4380500D01*
X6518216Y4339577D01*
X6518209Y4339574D01*
X6381289Y4260524D01*
X6376175Y4256600D01*
X6311005Y4231409D01*
X6242560Y4245450D01*
X6193305Y4292980D01*
X6180472Y4315206D01*
X6180469Y4315212D01*
X6115212Y4380469D01*
X6115209Y4380471D01*
X6115205Y4380474D01*
X6035293Y4426612D01*
X6035290Y4426613D01*
X6035289Y4426614D01*
X6035288Y4426614D01*
X5946144Y4450500D01*
X5853856Y4450500D01*
X5764712Y4426614D01*
X5764711Y4426614D01*
X5764709Y4426613D01*
X5764706Y4426612D01*
X5684794Y4380474D01*
X5684785Y4380467D01*
X5619533Y4315215D01*
X5619526Y4315206D01*
X5573388Y4235294D01*
X5573387Y4235291D01*
X5573386Y4235289D01*
X5573386Y4235288D01*
X5549500Y4146144D01*
X400500Y4146144D01*
X400500Y6922727D01*
X5073815Y6922727D01*
X5073815Y6817273D01*
X5101108Y6715413D01*
X5153835Y6624087D01*
X5228402Y6549520D01*
X5319728Y6496793D01*
X5421588Y6469500D01*
X5421590Y6469500D01*
X5527040Y6469500D01*
X5527042Y6469500D01*
X5628902Y6496793D01*
X5720228Y6549520D01*
X5794795Y6624087D01*
X5847522Y6715413D01*
X5874815Y6817273D01*
X5874815Y6922727D01*
X5847522Y7024587D01*
X5794795Y7115913D01*
X5720228Y7190480D01*
X5628902Y7243207D01*
X5527042Y7270500D01*
X5421588Y7270500D01*
X5319728Y7243207D01*
X5319725Y7243206D01*
X5228400Y7190479D01*
X5153836Y7115915D01*
X5101109Y7024590D01*
X5101108Y7024587D01*
X5073815Y6922727D01*
X400500Y6922727D01*
X400500Y7922727D01*
X5439500Y7922727D01*
X5439500Y7817273D01*
X5466793Y7715413D01*
X5519520Y7624087D01*
X5594087Y7549520D01*
X5685413Y7496793D01*
X5787273Y7469500D01*
X5787275Y7469500D01*
X5892725Y7469500D01*
X5892727Y7469500D01*
X5994587Y7496793D01*
X6085913Y7549520D01*
X6160480Y7624087D01*
X6213207Y7715413D01*
X6240500Y7817273D01*
X6240500Y7922727D01*
X6213207Y8024587D01*
X6160480Y8115913D01*
X6085913Y8190480D01*
X5994587Y8243207D01*
X5892727Y8270500D01*
X5787273Y8270500D01*
X5685413Y8243207D01*
X5685410Y8243206D01*
X5594085Y8190479D01*
X5519521Y8115915D01*
X5466794Y8024590D01*
X5466793Y8024587D01*
X5439500Y7922727D01*
X400500Y7922727D01*
X400500Y10946144D01*
X5549500Y10946144D01*
X5549500Y10853856D01*
X5572381Y10768461D01*
X5573387Y10764710D01*
X5573388Y10764707D01*
X5619526Y10684795D01*
X5619529Y10684791D01*
X5619531Y10684788D01*
X5684788Y10619531D01*
X5684791Y10619530D01*
X5684794Y10619527D01*
X5764706Y10573389D01*
X5764707Y10573389D01*
X5764712Y10573386D01*
X5853856Y10549500D01*
X5853858Y10549500D01*
X5946142Y10549500D01*
X5946144Y10549500D01*
X6035288Y10573386D01*
X6115212Y10619531D01*
X6180469Y10684788D01*
X6193305Y10707022D01*
X6243870Y10755236D01*
X6312477Y10768461D01*
X6376180Y10743397D01*
X6381291Y10739475D01*
X6518209Y10660427D01*
X6518216Y10660423D01*
X6670943Y10619500D01*
X6670945Y10619500D01*
X6829055Y10619500D01*
X6829057Y10619500D01*
X6981784Y10660423D01*
X7118716Y10739480D01*
X7230520Y10851284D01*
X7309577Y10988216D01*
X7346923Y11127596D01*
X7383287Y11187254D01*
X7446134Y11217783D01*
X7466697Y11219500D01*
X7829055Y11219500D01*
X7829057Y11219500D01*
X7981784Y11260423D01*
X8118716Y11339480D01*
X8230520Y11451284D01*
X8309577Y11588216D01*
X8350500Y11740943D01*
X8350500Y11899057D01*
X8309577Y12051784D01*
X8307959Y12054587D01*
X8230524Y12188710D01*
X8230518Y12188718D01*
X8118717Y12300519D01*
X8118709Y12300525D01*
X7981790Y12379574D01*
X7981786Y12379576D01*
X7981784Y12379577D01*
X7829057Y12420500D01*
X6829057Y12420500D01*
X6670943Y12420500D01*
X6518216Y12379577D01*
X6518209Y12379574D01*
X6381290Y12300525D01*
X6381282Y12300519D01*
X6269481Y12188718D01*
X6269475Y12188710D01*
X6190426Y12051791D01*
X6190423Y12051784D01*
X6149500Y11899057D01*
X6149500Y11357611D01*
X6129815Y11290572D01*
X6077011Y11244817D01*
X6007853Y11234873D01*
X5993407Y11237836D01*
X5967353Y11244817D01*
X5946144Y11250500D01*
X5853856Y11250500D01*
X5764712Y11226614D01*
X5764711Y11226614D01*
X5764709Y11226613D01*
X5764706Y11226612D01*
X5684794Y11180474D01*
X5684785Y11180467D01*
X5619533Y11115215D01*
X5619526Y11115206D01*
X5573388Y11035294D01*
X5573387Y11035291D01*
X5573386Y11035289D01*
X5573386Y11035288D01*
X5549500Y10946144D01*
X400500Y10946144D01*
X400500Y11899057D01*
X1449500Y11899057D01*
X1449500Y11740943D01*
X1482988Y11615966D01*
X1490423Y11588217D01*
X1490426Y11588210D01*
X1569475Y11451291D01*
X1569479Y11451286D01*
X1569480Y11451284D01*
X1681284Y11339480D01*
X1681286Y11339479D01*
X1681290Y11339476D01*
X1765996Y11290572D01*
X1818216Y11260423D01*
X1970943Y11219500D01*
X1970945Y11219500D01*
X3429055Y11219500D01*
X3429057Y11219500D01*
X3581784Y11260423D01*
X3718716Y11339480D01*
X3830520Y11451284D01*
X3909577Y11588216D01*
X3950500Y11740943D01*
X3950500Y11899057D01*
X3909577Y12051784D01*
X3907959Y12054587D01*
X3830524Y12188710D01*
X3830518Y12188718D01*
X3718717Y12300519D01*
X3718709Y12300525D01*
X3581790Y12379574D01*
X3581786Y12379576D01*
X3581784Y12379577D01*
X3429057Y12420500D01*
X1970943Y12420500D01*
X1818216Y12379577D01*
X1818209Y12379574D01*
X1681290Y12300525D01*
X1681282Y12300519D01*
X1569481Y12188718D01*
X1569475Y12188710D01*
X1490426Y12051791D01*
X1490423Y12051784D01*
X1449500Y11899057D01*
X400500Y11899057D01*
X400500Y12493039D01*
X401280Y12506922D01*
X413966Y12619515D01*
X420142Y12646582D01*
X455256Y12746932D01*
X467299Y12771938D01*
X523863Y12861960D01*
X541168Y12883659D01*
X616341Y12958832D01*
X638040Y12976137D01*
X728062Y13032701D01*
X753068Y13044744D01*
X853418Y13079858D01*
X880481Y13086034D01*
X977769Y13096996D01*
X993078Y13098720D01*
X1006961Y13099500D01*
X7350654Y13099500D01*
X7350656Y13099500D01*
X7548909Y13134457D01*
X7738080Y13203310D01*
X7912421Y13303965D01*
X8066634Y13433366D01*
X8196035Y13587579D01*
X8296690Y13761920D01*
X8365543Y13951091D01*
X8400500Y14149344D01*
X8400500Y14241875D01*
X8401561Y14258060D01*
X8410278Y14324273D01*
X8418655Y14355537D01*
X8441077Y14409670D01*
X8457257Y14437696D01*
X8492932Y14484189D01*
X8515811Y14507068D01*
X8562304Y14542743D01*
X8590330Y14558923D01*
X8644463Y14581345D01*
X8675724Y14589722D01*
X8741941Y14598439D01*
X8758126Y14599500D01*
X8807583Y14599500D01*
X46442417Y14599500D01*
X46493039Y14599500D01*
X46506922Y14598721D01*
G37*
%TD.AperFunction*%
%TA.AperFunction,Conductor*%
G36*
X42534075Y12427007D02*
G01*
X42599901Y12312993D01*
X42692993Y12219901D01*
X42807007Y12154075D01*
X42870590Y12137038D01*
X42238282Y11504731D01*
X42238282Y11504730D01*
X42292449Y11465376D01*
X42481782Y11368905D01*
X42683865Y11303245D01*
X42742587Y11293944D01*
X42747767Y11291489D01*
X42753496Y11291710D01*
X42778985Y11276690D01*
X42805722Y11264015D01*
X42808752Y11259149D01*
X42813691Y11256238D01*
X42827012Y11229824D01*
X42842654Y11204703D01*
X42842572Y11198970D01*
X42845153Y11193852D01*
X42842078Y11164425D01*
X42841656Y11134841D01*
X42838488Y11130065D01*
X42837893Y11124361D01*
X42819393Y11101264D01*
X42803047Y11076608D01*
X42796863Y11073133D01*
X42794215Y11069826D01*
X42780796Y11064104D01*
X42762702Y11053934D01*
X42755162Y11051400D01*
X42708165Y11042051D01*
X42625513Y11007816D01*
X42621492Y11006464D01*
X42612780Y11006127D01*
X42581980Y11000000D01*
X42518083Y11000000D01*
X42451044Y11019685D01*
X42424370Y11042797D01*
X42390276Y11082144D01*
X42385293Y11087624D01*
X42316570Y11129514D01*
X42316564Y11129517D01*
X42249528Y11149201D01*
X42249518Y11149203D01*
X42205719Y11155500D01*
X42205716Y11155500D01*
X41654913Y11155500D01*
X41587874Y11175185D01*
X41554318Y11206997D01*
X41542213Y11223791D01*
X41540740Y11230566D01*
X41506313Y11299342D01*
X41460558Y11352146D01*
X41455580Y11357621D01*
X41438059Y11368301D01*
X41423405Y11388633D01*
X41419784Y11398903D01*
X41412461Y11406960D01*
X41404043Y11443558D01*
X41400176Y11454528D01*
X41400857Y11457409D01*
X41400000Y11461136D01*
X41400000Y11596188D01*
X41419685Y11663227D01*
X41420897Y11665078D01*
X41451767Y11711278D01*
X41457668Y11740944D01*
X41460500Y11755178D01*
X41460500Y12206497D01*
X41480185Y12273536D01*
X41532989Y12319291D01*
X41602147Y12329235D01*
X41665703Y12300210D01*
X41702431Y12244815D01*
X41748904Y12101783D01*
X41845375Y11912450D01*
X41884728Y11858284D01*
X42517037Y12490592D01*
X42534075Y12427007D01*
G37*
%TD.AperFunction*%
%TD*%
M02*
