%TF.GenerationSoftware,KiCad,Pcbnew,9.0.6-9.0.6~ubuntu24.04.1*%
%TF.CreationDate,2025-11-23T17:21:16+08:00*%
%TF.ProjectId,demo,64656d6f-2e6b-4696-9361-645f70636258,V1.0.1*%
%TF.SameCoordinates,PX5f5e100PY5f5e100*%
%TF.FileFunction,Soldermask,Top*%
%TF.FilePolarity,Negative*%
%FSLAX46Y46*%
G04 Gerber Fmt 4.6, Leading zero omitted, Abs format (unit mm)*
G04 Created by KiCad (PCBNEW 9.0.6-9.0.6~ubuntu24.04.1) date 2025-11-23 17:21:16*
%MOMM*%
%LPD*%
G01*
G04 APERTURE LIST*
G04 Aperture macros list*
%AMRoundRect*
0 Rectangle with rounded corners*
0 $1 Rounding radius*
0 $2 $3 $4 $5 $6 $7 $8 $9 X,Y pos of 4 corners*
0 Add a 4 corners polygon primitive as box body*
4,1,4,$2,$3,$4,$5,$6,$7,$8,$9,$2,$3,0*
0 Add four circle primitives for the rounded corners*
1,1,$1+$1,$2,$3*
1,1,$1+$1,$4,$5*
1,1,$1+$1,$6,$7*
1,1,$1+$1,$8,$9*
0 Add four rect primitives between the rounded corners*
20,1,$1+$1,$2,$3,$4,$5,0*
20,1,$1+$1,$4,$5,$6,$7,0*
20,1,$1+$1,$6,$7,$8,$9,0*
20,1,$1+$1,$8,$9,$2,$3,0*%
G04 Aperture macros list end*
%ADD10RoundRect,0.250000X0.450000X0.350000X-0.450000X0.350000X-0.450000X-0.350000X0.450000X-0.350000X0*%
%ADD11RoundRect,0.225000X-0.225000X-0.250000X0.225000X-0.250000X0.225000X0.250000X-0.225000X0.250000X0*%
%ADD12RoundRect,0.140000X0.140000X0.170000X-0.140000X0.170000X-0.140000X-0.170000X0.140000X-0.170000X0*%
%ADD13RoundRect,0.135000X0.135000X0.185000X-0.135000X0.185000X-0.135000X-0.185000X0.135000X-0.185000X0*%
%ADD14RoundRect,0.140000X-0.140000X-0.170000X0.140000X-0.170000X0.140000X0.170000X-0.140000X0.170000X0*%
%ADD15RoundRect,0.135000X0.185000X-0.135000X0.185000X0.135000X-0.185000X0.135000X-0.185000X-0.135000X0*%
%ADD16RoundRect,0.135000X-0.135000X-0.185000X0.135000X-0.185000X0.135000X0.185000X-0.135000X0.185000X0*%
%ADD17RoundRect,0.225000X0.225000X0.250000X-0.225000X0.250000X-0.225000X-0.250000X0.225000X-0.250000X0*%
%ADD18RoundRect,0.135000X-0.185000X0.135000X-0.185000X-0.135000X0.185000X-0.135000X0.185000X0.135000X0*%
%ADD19R,1.700000X1.700000*%
%ADD20C,1.700000*%
%ADD21RoundRect,0.140000X-0.170000X0.140000X-0.170000X-0.140000X0.170000X-0.140000X0.170000X0.140000X0*%
%ADD22R,1.000000X1.000000*%
%ADD23C,1.000000*%
%ADD24RoundRect,0.147500X0.172500X-0.147500X0.172500X0.147500X-0.172500X0.147500X-0.172500X-0.147500X0*%
%ADD25RoundRect,0.147500X-0.172500X0.147500X-0.172500X-0.147500X0.172500X-0.147500X0.172500X0.147500X0*%
%ADD26RoundRect,0.375000X0.625000X0.375000X-0.625000X0.375000X-0.625000X-0.375000X0.625000X-0.375000X0*%
%ADD27RoundRect,0.500000X0.500000X1.400000X-0.500000X1.400000X-0.500000X-1.400000X0.500000X-1.400000X0*%
%ADD28RoundRect,0.075000X0.662500X0.075000X-0.662500X0.075000X-0.662500X-0.075000X0.662500X-0.075000X0*%
%ADD29RoundRect,0.075000X0.075000X0.662500X-0.075000X0.662500X-0.075000X-0.662500X0.075000X-0.662500X0*%
%ADD30C,0.500000*%
%ADD31R,0.950000X0.260000*%
%ADD32O,1.900000X0.900000*%
%ADD33O,2.200000X0.900000*%
%ADD34O,0.900000X1.500000*%
%ADD35RoundRect,0.150000X0.150000X-0.587500X0.150000X0.587500X-0.150000X0.587500X-0.150000X-0.587500X0*%
G04 APERTURE END LIST*
D10*
%TO.C,Y1*%
X34950000Y8900000D03*
X32750000Y8900000D03*
X32750000Y7200000D03*
X34950000Y7200000D03*
%TD*%
D11*
%TO.C,C1*%
X9850000Y13600000D03*
X11400000Y13600000D03*
%TD*%
D12*
%TO.C,C6*%
X30770000Y3060000D03*
X29810000Y3060000D03*
%TD*%
D13*
%TO.C,R16*%
X35530000Y12550000D03*
X34510000Y12550000D03*
%TD*%
D14*
%TO.C,C9*%
X34560000Y11550000D03*
X35520000Y11550000D03*
%TD*%
D15*
%TO.C,R21*%
X18600000Y13180000D03*
X18600000Y14200000D03*
%TD*%
D13*
%TO.C,R4*%
X10600000Y8623334D03*
X9580000Y8623334D03*
%TD*%
D16*
%TO.C,R7*%
X9580000Y3976667D03*
X10600000Y3976667D03*
%TD*%
%TO.C,R22*%
X32170000Y12550000D03*
X33190000Y12550000D03*
%TD*%
D17*
%TO.C,C3*%
X16300000Y4300000D03*
X14750000Y4300000D03*
%TD*%
D14*
%TO.C,C2*%
X9590000Y12150000D03*
X10550000Y12150000D03*
%TD*%
D13*
%TO.C,R1*%
X10600000Y10946667D03*
X9580000Y10946667D03*
%TD*%
%TO.C,R20*%
X33190000Y4450000D03*
X32170000Y4450000D03*
%TD*%
D12*
%TO.C,C11*%
X35520000Y10550000D03*
X34560000Y10550000D03*
%TD*%
D18*
%TO.C,R9*%
X17550000Y14200000D03*
X17550000Y13180000D03*
%TD*%
D13*
%TO.C,R3*%
X10600000Y9785000D03*
X9580000Y9785000D03*
%TD*%
%TO.C,R2*%
X10600000Y7461667D03*
X9580000Y7461667D03*
%TD*%
D18*
%TO.C,R8*%
X14400000Y14200000D03*
X14400000Y13180000D03*
%TD*%
%TO.C,R14*%
X19700000Y4850000D03*
X19700000Y3830000D03*
%TD*%
D19*
%TO.C,J2*%
X37860000Y12580000D03*
D20*
X40400000Y12580000D03*
X37860000Y10040000D03*
X40400000Y10040000D03*
X37860000Y7500000D03*
X40400000Y7500000D03*
X37860000Y4960000D03*
X40400000Y4960000D03*
X37860000Y2420000D03*
X40400000Y2420000D03*
%TD*%
D21*
%TO.C,C4*%
X17600000Y4800000D03*
X17600000Y3840000D03*
%TD*%
D16*
%TO.C,R13*%
X34510000Y2450000D03*
X35530000Y2450000D03*
%TD*%
D13*
%TO.C,R17*%
X33190000Y2400000D03*
X32170000Y2400000D03*
%TD*%
D18*
%TO.C,R18*%
X19650000Y14200000D03*
X19650000Y13180000D03*
%TD*%
D22*
%TO.C,J3*%
X18855000Y1700000D03*
D23*
X17585000Y1700000D03*
X16315000Y1700000D03*
X15045000Y1700000D03*
%TD*%
D24*
%TO.C,D2*%
X16500000Y13205000D03*
X16500000Y14175000D03*
%TD*%
D13*
%TO.C,R10*%
X35530000Y5450000D03*
X34510000Y5450000D03*
%TD*%
D16*
%TO.C,R12*%
X34510000Y4450000D03*
X35530000Y4450000D03*
%TD*%
D25*
%TO.C,D1*%
X15450000Y14175000D03*
X15450000Y13205000D03*
%TD*%
D14*
%TO.C,C7*%
X32180000Y10550000D03*
X33140000Y10550000D03*
%TD*%
D12*
%TO.C,C8*%
X22290000Y12440000D03*
X21330000Y12440000D03*
%TD*%
D26*
%TO.C,U1*%
X18900000Y6700000D03*
X18900000Y9000000D03*
D27*
X12600000Y9000000D03*
D26*
X18900000Y11300000D03*
%TD*%
D13*
%TO.C,R19*%
X33190000Y3450000D03*
X32170000Y3450000D03*
%TD*%
D28*
%TO.C,U2*%
X30212500Y5000000D03*
X30212500Y5500000D03*
X30212500Y6000000D03*
X30212500Y6500000D03*
X30212500Y7000000D03*
X30212500Y7500000D03*
X30212500Y8000000D03*
X30212500Y8500000D03*
X30212500Y9000000D03*
X30212500Y9500000D03*
X30212500Y10000000D03*
X30212500Y10500000D03*
D29*
X28800000Y11912500D03*
X28300000Y11912500D03*
X27800000Y11912500D03*
X27300000Y11912500D03*
X26800000Y11912500D03*
X26300000Y11912500D03*
X25800000Y11912500D03*
X25300000Y11912500D03*
X24800000Y11912500D03*
X24300000Y11912500D03*
X23800000Y11912500D03*
X23300000Y11912500D03*
D28*
X21887500Y10500000D03*
X21887500Y10000000D03*
X21887500Y9500000D03*
X21887500Y9000000D03*
X21887500Y8500000D03*
X21887500Y8000000D03*
X21887500Y7500000D03*
X21887500Y7000000D03*
X21887500Y6500000D03*
X21887500Y6000000D03*
X21887500Y5500000D03*
X21887500Y5000000D03*
D29*
X23300000Y3587500D03*
X23800000Y3587500D03*
X24300000Y3587500D03*
X24800000Y3587500D03*
X25300000Y3587500D03*
X25800000Y3587500D03*
X26300000Y3587500D03*
X26800000Y3587500D03*
X27300000Y3587500D03*
X27800000Y3587500D03*
X28300000Y3587500D03*
X28800000Y3587500D03*
%TD*%
D13*
%TO.C,R5*%
X10600000Y6300000D03*
X9580000Y6300000D03*
%TD*%
D18*
%TO.C,R15*%
X18650000Y4850000D03*
X18650000Y3830000D03*
%TD*%
D13*
%TO.C,R23*%
X33190000Y11550000D03*
X32170000Y11550000D03*
%TD*%
D21*
%TO.C,C5*%
X21360000Y3990000D03*
X21360000Y3030000D03*
%TD*%
D13*
%TO.C,R11*%
X35530000Y3450000D03*
X34510000Y3450000D03*
%TD*%
D30*
%TO.C,J1*%
X5925000Y10900000D03*
X5925000Y4100000D03*
D31*
X7900000Y10130000D03*
X7900000Y9630000D03*
X7900000Y9130000D03*
X7900000Y8630000D03*
X7900000Y8130000D03*
X7900000Y7630000D03*
X7900000Y7130000D03*
X7900000Y6630000D03*
X7900000Y6130000D03*
X7900000Y5630000D03*
X7900000Y5130000D03*
X7900000Y4630000D03*
X6600000Y4870000D03*
X6600000Y5370000D03*
X6600000Y5870000D03*
X6600000Y6370000D03*
X6600000Y6870000D03*
X6600000Y7370000D03*
X6600000Y7870000D03*
X6600000Y8370000D03*
X6600000Y8870000D03*
X6600000Y9370000D03*
X6600000Y9870000D03*
X6600000Y10370000D03*
D32*
X7275000Y11820000D03*
D33*
X2725000Y11820000D03*
D34*
X6775000Y11520000D03*
X6775000Y3480000D03*
D32*
X7275000Y3180000D03*
D33*
X2725000Y3180000D03*
%TD*%
D35*
%TO.C,Q1*%
X10950000Y1475000D03*
X12850000Y1475000D03*
X11900000Y3350000D03*
%TD*%
D12*
%TO.C,C10*%
X33140000Y5450000D03*
X32180000Y5450000D03*
%TD*%
D16*
%TO.C,R6*%
X9580000Y5138334D03*
X10600000Y5138334D03*
%TD*%
M02*
