%TF.GenerationSoftware,KiCad,Pcbnew,9.0.6-9.0.6~ubuntu24.04.1*%
%TF.CreationDate,2025-12-13T19:22:48+08:00*%
%TF.ProjectId,demo,64656d6f-2e6b-4696-9361-645f70636258,V1.0.1*%
%TF.SameCoordinates,PX632ea00PY5f5e100*%
%TF.FileFunction,AssemblyDrawing,Bot*%
%FSLAX46Y46*%
G04 Gerber Fmt 4.6, Leading zero omitted, Abs format (unit mm)*
G04 Created by KiCad (PCBNEW 9.0.6-9.0.6~ubuntu24.04.1) date 2025-12-13 19:22:48*
%MOMM*%
%LPD*%
G01*
G04 APERTURE LIST*
%ADD10C,0.100000*%
G04 APERTURE END LIST*
D10*
%TO.C,J3*%
X-10020000Y-4800000D02*
X-10020000Y-5800000D01*
X-9020000Y-5800000D01*
X-9020000Y-4800000D01*
X-10020000Y-4800000D01*
X-7750000Y-5300000D02*
G75*
G02*
X-8750000Y-5300000I-500000J0D01*
G01*
X-8750000Y-5300000D02*
G75*
G02*
X-7750000Y-5300000I500000J0D01*
G01*
X-6480000Y-5300000D02*
G75*
G02*
X-7480000Y-5300000I-500000J0D01*
G01*
X-7480000Y-5300000D02*
G75*
G02*
X-6480000Y-5300000I500000J0D01*
G01*
X-5210000Y-5300000D02*
G75*
G02*
X-6210000Y-5300000I-500000J0D01*
G01*
X-6210000Y-5300000D02*
G75*
G02*
X-5210000Y-5300000I500000J0D01*
G01*
%TD*%
%TO.C,J2*%
X11430000Y6010000D02*
X11430000Y4310000D01*
X13130000Y4310000D01*
X13130000Y6010000D01*
X11430000Y6010000D01*
X15670000Y5160000D02*
G75*
G02*
X13970000Y5160000I-850000J0D01*
G01*
X13970000Y5160000D02*
G75*
G02*
X15670000Y5160000I850000J0D01*
G01*
X13130000Y2620000D02*
G75*
G02*
X11430000Y2620000I-850000J0D01*
G01*
X11430000Y2620000D02*
G75*
G02*
X13130000Y2620000I850000J0D01*
G01*
X15670000Y2620000D02*
G75*
G02*
X13970000Y2620000I-850000J0D01*
G01*
X13970000Y2620000D02*
G75*
G02*
X15670000Y2620000I850000J0D01*
G01*
X13130000Y80000D02*
G75*
G02*
X11430000Y80000I-850000J0D01*
G01*
X11430000Y80000D02*
G75*
G02*
X13130000Y80000I850000J0D01*
G01*
X15670000Y70000D02*
G75*
G02*
X13970000Y70000I-850000J0D01*
G01*
X13970000Y70000D02*
G75*
G02*
X15670000Y70000I850000J0D01*
G01*
X13130000Y-2460000D02*
G75*
G02*
X11430000Y-2460000I-850000J0D01*
G01*
X11430000Y-2460000D02*
G75*
G02*
X13130000Y-2460000I850000J0D01*
G01*
X15670000Y-2460000D02*
G75*
G02*
X13970000Y-2460000I-850000J0D01*
G01*
X13970000Y-2460000D02*
G75*
G02*
X15670000Y-2460000I850000J0D01*
G01*
X13130000Y-5000000D02*
G75*
G02*
X11430000Y-5000000I-850000J0D01*
G01*
X11430000Y-5000000D02*
G75*
G02*
X13130000Y-5000000I850000J0D01*
G01*
X15670000Y-5000000D02*
G75*
G02*
X13970000Y-5000000I-850000J0D01*
G01*
X13970000Y-5000000D02*
G75*
G02*
X15670000Y-5000000I850000J0D01*
G01*
%TD*%
%TO.C,J1*%
X-12570000Y2890000D02*
G75*
G02*
X-13220000Y2890000I-325000J0D01*
G01*
X-13220000Y2890000D02*
G75*
G02*
X-12570000Y2890000I325000J0D01*
G01*
X-12570000Y-2890000D02*
G75*
G02*
X-13220000Y-2890000I-325000J0D01*
G01*
X-13220000Y-2890000D02*
G75*
G02*
X-12570000Y-2890000I325000J0D01*
G01*
X-11845000Y4820000D02*
X-12945000Y4820000D01*
X-12945000Y3820000D02*
G75*
G02*
X-12945000Y4820000I0J500000D01*
G01*
X-12945000Y3820000D02*
X-11845000Y3820000D01*
X-11845000Y3820000D02*
G75*
G03*
X-11845000Y4820000I0J500000D01*
G01*
X-16175000Y4820000D02*
X-16975000Y4820000D01*
X-16975000Y3820000D02*
G75*
G02*
X-16975000Y4820000I0J500000D01*
G01*
X-16975000Y3820000D02*
X-16175000Y3820000D01*
X-16175000Y3820000D02*
G75*
G03*
X-16175000Y4820000I0J500000D01*
G01*
X-11845000Y-3820000D02*
X-12945000Y-3820000D01*
X-12945000Y-4820000D02*
G75*
G02*
X-12945000Y-3820000I0J500000D01*
G01*
X-12945000Y-4820000D02*
X-11845000Y-4820000D01*
X-11845000Y-4820000D02*
G75*
G03*
X-11845000Y-3820000I0J500000D01*
G01*
X-16175000Y-3820000D02*
X-16975000Y-3820000D01*
X-16975000Y-4820000D02*
G75*
G02*
X-16975000Y-3820000I0J500000D01*
G01*
X-16975000Y-4820000D02*
X-16175000Y-4820000D01*
X-16175000Y-4820000D02*
G75*
G03*
X-16175000Y-3820000I0J500000D01*
G01*
%TD*%
M02*
