M48
; DRILL file {KiCad 9.0.6-9.0.6~ubuntu24.04.1} date 2025-12-14T03:52:51+0800
; FORMAT={-:-/ absolute / metric / decimal}
; #@! TF.CreationDate,2025-12-14T03:52:51+08:00
; #@! TF.GenerationSoftware,Kicad,Pcbnew,9.0.6-9.0.6~ubuntu24.04.1
; #@! TF.FileFunction,Plated,1,4,PTH
FMAT,2
METRIC
; #@! TA.AperFunction,Plated,PTH,ViaDrill
T1C0.300
; #@! TA.AperFunction,Plated,PTH,ComponentDrill
T2C0.600
; #@! TA.AperFunction,Plated,PTH,ComponentDrill
T3C0.650
%
G90
G05
T1
X-17.75Y5.75
X-17.25Y2.5
X-17.25Y1.5
X-17.25Y0.5
X-17.25Y-0.5
X-17.25Y-1.5
X-17.25Y-2.5
X-17.0Y5.75
X-16.5Y2.5
X-16.5Y1.5
X-16.5Y0.5
X-16.5Y-0.5
X-16.5Y-1.5
X-16.5Y-2.5
X-16.25Y5.75
X-15.75Y2.5
X-15.75Y1.5
X-15.75Y0.5
X-15.75Y-0.5
X-15.75Y-1.5
X-15.75Y-2.5
X-15.5Y5.75
X-15.0Y2.5
X-15.0Y1.5
X-15.0Y0.5
X-15.0Y-0.5
X-15.0Y-1.5
X-15.0Y-2.5
X-14.75Y5.75
X-14.0Y5.75
X-13.25Y5.75
X-12.5Y5.75
X-11.75Y5.75
X-11.0Y5.75
X-10.81Y1.31
X-10.8Y2.27
X-8.06Y-2.28
X-6.4Y4.3
X-6.326Y-3.226
X-6.256Y-4.54
X-5.9Y-2.07
X-5.8Y4.3
X-5.29Y2.93
X-5.2Y4.9
X-5.2Y4.3
X-5.2Y3.6
X-3.63Y-3.47
X-3.05Y4.78
X-3.03Y-3.449
X-2.68Y-5.85
X-2.56Y0.13
X-2.07Y-1.56
X-2.0Y2.0
X-2.0Y1.0
X-2.0Y-1.0
X-1.71Y3.73
X-1.0Y3.5
X-1.0Y2.0
X-1.0Y1.0
X-1.0Y0.0
X-1.0Y-1.0
X-1.0Y-2.0
X-0.37Y-4.66
X0.0Y3.5
X0.0Y2.0
X0.0Y1.0
X0.0Y0.0
X0.0Y-1.0
X0.0Y-2.0
X0.8Y3.53
X1.2Y2.44
X1.58Y-5.24
X2.0Y2.0
X2.0Y1.0
X2.0Y0.0
X2.0Y-1.0
X2.0Y-2.0
X2.63Y-5.85
X2.78Y-2.27
X2.82Y1.44
X3.28Y3.72
X3.28Y-4.77
X4.36Y-3.39
X4.58Y4.83
X5.07Y-3.25
X5.3Y4.0
X5.49Y4.67
X5.91Y-4.8
X6.643Y-5.242
X7.86Y-4.59
X8.126Y3.534
X8.34Y-3.34
X8.48Y5.83
X8.53Y3.09
X9.31Y5.64
X10.77Y-5.08
X12.19Y4.095
X12.3Y-1.41
X12.74Y3.71
X12.81Y-3.7
X14.2Y3.8
X14.2Y1.4
X14.2Y-1.2
X14.2Y-3.85
T3
X-9.52Y-5.3
X-8.25Y-5.3
X-6.98Y-5.3
X-5.71Y-5.3
T2
G00X-16.175Y4.32
M15
G01X-16.975Y4.32
M16
G05
G00X-16.175Y-4.32
M15
G01X-16.975Y-4.32
M16
G05
G00X-11.845Y4.32
M15
G01X-12.945Y4.32
M16
G05
G00X-11.845Y-4.32
M15
G01X-12.945Y-4.32
M16
G05
M30
