%TF.GenerationSoftware,KiCad,Pcbnew,9.0.6-9.0.6~ubuntu24.04.1*%
%TF.CreationDate,2025-11-23T17:21:15+08:00*%
%TF.ProjectId,demo,64656d6f-2e6b-4696-9361-645f70636258,V1.0.1*%
%TF.SameCoordinates,PX5f5e100PY5f5e100*%
%TF.FileFunction,Copper,L1,Top*%
%TF.FilePolarity,Positive*%
%FSLAX46Y46*%
G04 Gerber Fmt 4.6, Leading zero omitted, Abs format (unit mm)*
G04 Created by KiCad (PCBNEW 9.0.6-9.0.6~ubuntu24.04.1) date 2025-11-23 17:21:15*
%MOMM*%
%LPD*%
G01*
G04 APERTURE LIST*
G04 Aperture macros list*
%AMRoundRect*
0 Rectangle with rounded corners*
0 $1 Rounding radius*
0 $2 $3 $4 $5 $6 $7 $8 $9 X,Y pos of 4 corners*
0 Add a 4 corners polygon primitive as box body*
4,1,4,$2,$3,$4,$5,$6,$7,$8,$9,$2,$3,0*
0 Add four circle primitives for the rounded corners*
1,1,$1+$1,$2,$3*
1,1,$1+$1,$4,$5*
1,1,$1+$1,$6,$7*
1,1,$1+$1,$8,$9*
0 Add four rect primitives between the rounded corners*
20,1,$1+$1,$2,$3,$4,$5,0*
20,1,$1+$1,$4,$5,$6,$7,0*
20,1,$1+$1,$6,$7,$8,$9,0*
20,1,$1+$1,$8,$9,$2,$3,0*%
G04 Aperture macros list end*
%TA.AperFunction,SMDPad,CuDef*%
%ADD10RoundRect,0.250000X0.450000X0.350000X-0.450000X0.350000X-0.450000X-0.350000X0.450000X-0.350000X0*%
%TD*%
%TA.AperFunction,SMDPad,CuDef*%
%ADD11RoundRect,0.225000X-0.225000X-0.250000X0.225000X-0.250000X0.225000X0.250000X-0.225000X0.250000X0*%
%TD*%
%TA.AperFunction,SMDPad,CuDef*%
%ADD12RoundRect,0.140000X0.140000X0.170000X-0.140000X0.170000X-0.140000X-0.170000X0.140000X-0.170000X0*%
%TD*%
%TA.AperFunction,SMDPad,CuDef*%
%ADD13RoundRect,0.135000X0.135000X0.185000X-0.135000X0.185000X-0.135000X-0.185000X0.135000X-0.185000X0*%
%TD*%
%TA.AperFunction,SMDPad,CuDef*%
%ADD14RoundRect,0.140000X-0.140000X-0.170000X0.140000X-0.170000X0.140000X0.170000X-0.140000X0.170000X0*%
%TD*%
%TA.AperFunction,SMDPad,CuDef*%
%ADD15RoundRect,0.135000X0.185000X-0.135000X0.185000X0.135000X-0.185000X0.135000X-0.185000X-0.135000X0*%
%TD*%
%TA.AperFunction,SMDPad,CuDef*%
%ADD16RoundRect,0.135000X-0.135000X-0.185000X0.135000X-0.185000X0.135000X0.185000X-0.135000X0.185000X0*%
%TD*%
%TA.AperFunction,SMDPad,CuDef*%
%ADD17RoundRect,0.225000X0.225000X0.250000X-0.225000X0.250000X-0.225000X-0.250000X0.225000X-0.250000X0*%
%TD*%
%TA.AperFunction,SMDPad,CuDef*%
%ADD18RoundRect,0.135000X-0.185000X0.135000X-0.185000X-0.135000X0.185000X-0.135000X0.185000X0.135000X0*%
%TD*%
%TA.AperFunction,ComponentPad*%
%ADD19R,1.700000X1.700000*%
%TD*%
%TA.AperFunction,ComponentPad*%
%ADD20C,1.700000*%
%TD*%
%TA.AperFunction,SMDPad,CuDef*%
%ADD21RoundRect,0.140000X-0.170000X0.140000X-0.170000X-0.140000X0.170000X-0.140000X0.170000X0.140000X0*%
%TD*%
%TA.AperFunction,ComponentPad*%
%ADD22R,1.000000X1.000000*%
%TD*%
%TA.AperFunction,ComponentPad*%
%ADD23C,1.000000*%
%TD*%
%TA.AperFunction,SMDPad,CuDef*%
%ADD24RoundRect,0.147500X0.172500X-0.147500X0.172500X0.147500X-0.172500X0.147500X-0.172500X-0.147500X0*%
%TD*%
%TA.AperFunction,SMDPad,CuDef*%
%ADD25RoundRect,0.147500X-0.172500X0.147500X-0.172500X-0.147500X0.172500X-0.147500X0.172500X0.147500X0*%
%TD*%
%TA.AperFunction,SMDPad,CuDef*%
%ADD26RoundRect,0.375000X0.625000X0.375000X-0.625000X0.375000X-0.625000X-0.375000X0.625000X-0.375000X0*%
%TD*%
%TA.AperFunction,SMDPad,CuDef*%
%ADD27RoundRect,0.500000X0.500000X1.400000X-0.500000X1.400000X-0.500000X-1.400000X0.500000X-1.400000X0*%
%TD*%
%TA.AperFunction,SMDPad,CuDef*%
%ADD28RoundRect,0.075000X0.662500X0.075000X-0.662500X0.075000X-0.662500X-0.075000X0.662500X-0.075000X0*%
%TD*%
%TA.AperFunction,SMDPad,CuDef*%
%ADD29RoundRect,0.075000X0.075000X0.662500X-0.075000X0.662500X-0.075000X-0.662500X0.075000X-0.662500X0*%
%TD*%
%TA.AperFunction,SMDPad,CuDef*%
%ADD30R,0.950000X0.260000*%
%TD*%
%TA.AperFunction,ComponentPad*%
%ADD31O,1.900000X0.900000*%
%TD*%
%TA.AperFunction,ComponentPad*%
%ADD32O,2.200000X0.900000*%
%TD*%
%TA.AperFunction,ComponentPad*%
%ADD33O,0.900000X1.500000*%
%TD*%
%TA.AperFunction,SMDPad,CuDef*%
%ADD34RoundRect,0.150000X0.150000X-0.587500X0.150000X0.587500X-0.150000X0.587500X-0.150000X-0.587500X0*%
%TD*%
%TA.AperFunction,ViaPad*%
%ADD35C,0.250000*%
%TD*%
%TA.AperFunction,Conductor*%
%ADD36C,0.200000*%
%TD*%
%TA.AperFunction,Conductor*%
%ADD37C,0.100000*%
%TD*%
%TA.AperFunction,Conductor*%
%ADD38C,0.150000*%
%TD*%
G04 APERTURE END LIST*
D10*
%TO.P,Y1,1,1*%
%TO.N,Net-(U2-PD1)*%
X34950000Y8900000D03*
%TO.P,Y1,2,2*%
%TO.N,GND*%
X32750000Y8900000D03*
%TO.P,Y1,3,3*%
%TO.N,Net-(U2-PD0)*%
X32750000Y7200000D03*
%TO.P,Y1,4,4*%
%TO.N,GND*%
X34950000Y7200000D03*
%TD*%
D11*
%TO.P,C1,1*%
%TO.N,+5V*%
X9850000Y13600000D03*
%TO.P,C1,2*%
%TO.N,GND*%
X11400000Y13600000D03*
%TD*%
D12*
%TO.P,C6,1*%
%TO.N,+3V3*%
X30770000Y3060000D03*
%TO.P,C6,2*%
%TO.N,GND*%
X29810000Y3060000D03*
%TD*%
D13*
%TO.P,R16,1*%
%TO.N,+3V3*%
X35530000Y12550000D03*
%TO.P,R16,2*%
%TO.N,/NRST*%
X34510000Y12550000D03*
%TD*%
D14*
%TO.P,C9,1*%
%TO.N,/NRST*%
X34560000Y11550000D03*
%TO.P,C9,2*%
%TO.N,GND*%
X35520000Y11550000D03*
%TD*%
D15*
%TO.P,R21,1*%
%TO.N,GND*%
X18600000Y13180000D03*
%TO.P,R21,2*%
%TO.N,Net-(U2-PB2)*%
X18600000Y14200000D03*
%TD*%
D13*
%TO.P,R4,1*%
%TO.N,Net-(Q1-E)*%
X10600000Y8623334D03*
%TO.P,R4,2*%
%TO.N,/DP+*%
X9580000Y8623334D03*
%TD*%
D16*
%TO.P,R7,1*%
%TO.N,Net-(Q1-B)*%
X9580000Y3976667D03*
%TO.P,R7,2*%
%TO.N,/RENUM*%
X10600000Y3976667D03*
%TD*%
%TO.P,R22,1*%
%TO.N,Net-(U2-PA0)*%
X32170000Y12550000D03*
%TO.P,R22,2*%
%TO.N,+3V3*%
X33190000Y12550000D03*
%TD*%
D17*
%TO.P,C3,1*%
%TO.N,+3V3*%
X16300000Y4300000D03*
%TO.P,C3,2*%
%TO.N,GND*%
X14750000Y4300000D03*
%TD*%
D14*
%TO.P,C2,1*%
%TO.N,+5V*%
X9590000Y12150000D03*
%TO.P,C2,2*%
%TO.N,GND*%
X10550000Y12150000D03*
%TD*%
D13*
%TO.P,R1,1*%
%TO.N,GND*%
X10600000Y10946667D03*
%TO.P,R1,2*%
%TO.N,Net-(J1-CC1)*%
X9580000Y10946667D03*
%TD*%
%TO.P,R20,1*%
%TO.N,GND*%
X33190000Y4450000D03*
%TO.P,R20,2*%
%TO.N,Net-(U2-PC14)*%
X32170000Y4450000D03*
%TD*%
D12*
%TO.P,C11,1*%
%TO.N,GND*%
X35520000Y10550000D03*
%TO.P,C11,2*%
%TO.N,Net-(U2-PD1)*%
X34560000Y10550000D03*
%TD*%
D18*
%TO.P,R9,1*%
%TO.N,Net-(D2-K)*%
X17550000Y14200000D03*
%TO.P,R9,2*%
%TO.N,/LED_STLINK*%
X17550000Y13180000D03*
%TD*%
D13*
%TO.P,R3,1*%
%TO.N,/DP+*%
X10600000Y9785000D03*
%TO.P,R3,2*%
%TO.N,Net-(J1-D+-PadA6)*%
X9580000Y9785000D03*
%TD*%
%TO.P,R2,1*%
%TO.N,/DM-*%
X10600000Y7461667D03*
%TO.P,R2,2*%
%TO.N,Net-(J1-D--PadA7)*%
X9580000Y7461667D03*
%TD*%
D18*
%TO.P,R8,1*%
%TO.N,Net-(D1-A)*%
X14400000Y14200000D03*
%TO.P,R8,2*%
%TO.N,/LED_STLINK*%
X14400000Y13180000D03*
%TD*%
%TO.P,R14,1*%
%TO.N,/STM_JTMS*%
X19700000Y4850000D03*
%TO.P,R14,2*%
%TO.N,Net-(J3-Pin_2)*%
X19700000Y3830000D03*
%TD*%
D19*
%TO.P,J2,1,Pin_1*%
%TO.N,+3V3*%
X37860000Y12580000D03*
D20*
%TO.P,J2,2,Pin_2*%
%TO.N,+5V*%
X40400000Y12580000D03*
%TO.P,J2,3,Pin_3*%
%TO.N,GND*%
X37860000Y10040000D03*
%TO.P,J2,4,Pin_4*%
X40400000Y10040000D03*
%TO.P,J2,5,Pin_5*%
%TO.N,Net-(J2-Pin_5)*%
X37860000Y7500000D03*
%TO.P,J2,6,Pin_6*%
%TO.N,Net-(J2-Pin_6)*%
X40400000Y7500000D03*
%TO.P,J2,7,Pin_7*%
%TO.N,Net-(J2-Pin_7)*%
X37860000Y4960000D03*
%TO.P,J2,8,Pin_8*%
%TO.N,Net-(J2-Pin_8)*%
X40400000Y4960000D03*
%TO.P,J2,9,Pin_9*%
%TO.N,/T_Tx*%
X37860000Y2420000D03*
%TO.P,J2,10,Pin_10*%
%TO.N,/T_Rx*%
X40400000Y2420000D03*
%TD*%
D21*
%TO.P,C4,1*%
%TO.N,+3V3*%
X17600000Y4800000D03*
%TO.P,C4,2*%
%TO.N,GND*%
X17600000Y3840000D03*
%TD*%
D16*
%TO.P,R13,1*%
%TO.N,/T_SWO*%
X34510000Y2450000D03*
%TO.P,R13,2*%
%TO.N,Net-(J2-Pin_8)*%
X35530000Y2450000D03*
%TD*%
D13*
%TO.P,R17,1*%
%TO.N,GND*%
X33190000Y2400000D03*
%TO.P,R17,2*%
%TO.N,/BOOT0*%
X32170000Y2400000D03*
%TD*%
D18*
%TO.P,R18,1*%
%TO.N,Net-(U2-PB12)*%
X19650000Y14200000D03*
%TO.P,R18,2*%
%TO.N,/T_JTMS*%
X19650000Y13180000D03*
%TD*%
D22*
%TO.P,J3,1,Pin_1*%
%TO.N,+3V3*%
X18855000Y1700000D03*
D23*
%TO.P,J3,2,Pin_2*%
%TO.N,Net-(J3-Pin_2)*%
X17585000Y1700000D03*
%TO.P,J3,3,Pin_3*%
%TO.N,Net-(J3-Pin_3)*%
X16315000Y1700000D03*
%TO.P,J3,4,Pin_4*%
%TO.N,GND*%
X15045000Y1700000D03*
%TD*%
D24*
%TO.P,D2,1,K*%
%TO.N,Net-(D2-K)*%
X16500000Y13205000D03*
%TO.P,D2,2,A*%
%TO.N,+3V3*%
X16500000Y14175000D03*
%TD*%
D13*
%TO.P,R10,1*%
%TO.N,Net-(J2-Pin_5)*%
X35530000Y5450000D03*
%TO.P,R10,2*%
%TO.N,/T_JTMS*%
X34510000Y5450000D03*
%TD*%
D16*
%TO.P,R12,1*%
%TO.N,/T_JTCK*%
X34510000Y4450000D03*
%TO.P,R12,2*%
%TO.N,Net-(J2-Pin_6)*%
X35530000Y4450000D03*
%TD*%
D25*
%TO.P,D1,1,K*%
%TO.N,GND*%
X15450000Y14175000D03*
%TO.P,D1,2,A*%
%TO.N,Net-(D1-A)*%
X15450000Y13205000D03*
%TD*%
D14*
%TO.P,C7,1*%
%TO.N,+3V3*%
X32180000Y10550000D03*
%TO.P,C7,2*%
%TO.N,GND*%
X33140000Y10550000D03*
%TD*%
D12*
%TO.P,C8,1*%
%TO.N,+3V3*%
X22290000Y12440000D03*
%TO.P,C8,2*%
%TO.N,GND*%
X21330000Y12440000D03*
%TD*%
D26*
%TO.P,U1,1,GND*%
%TO.N,GND*%
X18900000Y6700000D03*
%TO.P,U1,2,VO*%
%TO.N,+3V3*%
X18900000Y9000000D03*
D27*
X12600000Y9000000D03*
D26*
%TO.P,U1,3,VI*%
%TO.N,+5V*%
X18900000Y11300000D03*
%TD*%
D13*
%TO.P,R19,1*%
%TO.N,GND*%
X33190000Y3450000D03*
%TO.P,R19,2*%
%TO.N,Net-(U2-PC13)*%
X32170000Y3450000D03*
%TD*%
D28*
%TO.P,U2,1,VBAT*%
%TO.N,+3V3*%
X30212500Y5000000D03*
%TO.P,U2,2,PC13*%
%TO.N,Net-(U2-PC13)*%
X30212500Y5500000D03*
%TO.P,U2,3,PC14*%
%TO.N,Net-(U2-PC14)*%
X30212500Y6000000D03*
%TO.P,U2,4,PC15*%
%TO.N,unconnected-(U2-PC15-Pad4)*%
X30212500Y6500000D03*
%TO.P,U2,5,PD0*%
%TO.N,Net-(U2-PD0)*%
X30212500Y7000000D03*
%TO.P,U2,6,PD1*%
%TO.N,Net-(U2-PD1)*%
X30212500Y7500000D03*
%TO.P,U2,7,NRST*%
%TO.N,/NRST*%
X30212500Y8000000D03*
%TO.P,U2,8,VSSA*%
%TO.N,GND*%
X30212500Y8500000D03*
%TO.P,U2,9,VDDA*%
%TO.N,+3V3*%
X30212500Y9000000D03*
%TO.P,U2,10,PA0*%
%TO.N,Net-(U2-PA0)*%
X30212500Y9500000D03*
%TO.P,U2,11,PA1*%
%TO.N,unconnected-(U2-PA1-Pad11)*%
X30212500Y10000000D03*
%TO.P,U2,12,PA2*%
%TO.N,/T_Tx*%
X30212500Y10500000D03*
D29*
%TO.P,U2,13,PA3*%
%TO.N,/T_Rx*%
X28800000Y11912500D03*
%TO.P,U2,14,PA4*%
%TO.N,unconnected-(U2-PA4-Pad14)*%
X28300000Y11912500D03*
%TO.P,U2,15,PA5*%
%TO.N,/T_JTCK*%
X27800000Y11912500D03*
%TO.P,U2,16,PA6*%
%TO.N,unconnected-(U2-PA6-Pad16)*%
X27300000Y11912500D03*
%TO.P,U2,17,PA7*%
%TO.N,unconnected-(U2-PA7-Pad17)*%
X26800000Y11912500D03*
%TO.P,U2,18,PB0*%
%TO.N,/T_NRST*%
X26300000Y11912500D03*
%TO.P,U2,19,PB1*%
%TO.N,unconnected-(U2-PB1-Pad19)*%
X25800000Y11912500D03*
%TO.P,U2,20,PB2*%
%TO.N,Net-(U2-PB2)*%
X25300000Y11912500D03*
%TO.P,U2,21,PB10*%
%TO.N,unconnected-(U2-PB10-Pad21)*%
X24800000Y11912500D03*
%TO.P,U2,22,PB11*%
%TO.N,unconnected-(U2-PB11-Pad22)*%
X24300000Y11912500D03*
%TO.P,U2,23,VSS*%
%TO.N,GND*%
X23800000Y11912500D03*
%TO.P,U2,24,VDD*%
%TO.N,+3V3*%
X23300000Y11912500D03*
D28*
%TO.P,U2,25,PB12*%
%TO.N,Net-(U2-PB12)*%
X21887500Y10500000D03*
%TO.P,U2,26,PB13*%
%TO.N,/T_JTCK*%
X21887500Y10000000D03*
%TO.P,U2,27,PB14*%
%TO.N,/T_JTMS*%
X21887500Y9500000D03*
%TO.P,U2,28,PB15*%
%TO.N,unconnected-(U2-PB15-Pad28)*%
X21887500Y9000000D03*
%TO.P,U2,29,PA8*%
%TO.N,unconnected-(U2-PA8-Pad29)*%
X21887500Y8500000D03*
%TO.P,U2,30,PA9*%
%TO.N,/LED_STLINK*%
X21887500Y8000000D03*
%TO.P,U2,31,PA10*%
%TO.N,/T_SWO*%
X21887500Y7500000D03*
%TO.P,U2,32,PA11*%
%TO.N,/DM-*%
X21887500Y7000000D03*
%TO.P,U2,33,PA12*%
%TO.N,/DP+*%
X21887500Y6500000D03*
%TO.P,U2,34,PA13*%
%TO.N,/STM_JTMS*%
X21887500Y6000000D03*
%TO.P,U2,35,VSS*%
%TO.N,GND*%
X21887500Y5500000D03*
%TO.P,U2,36,VDD*%
%TO.N,+3V3*%
X21887500Y5000000D03*
D29*
%TO.P,U2,37,PA14*%
%TO.N,/STM_JTCK*%
X23300000Y3587500D03*
%TO.P,U2,38,PA15*%
%TO.N,/RENUM*%
X23800000Y3587500D03*
%TO.P,U2,39,PB3*%
%TO.N,unconnected-(U2-PB3-Pad39)*%
X24300000Y3587500D03*
%TO.P,U2,40,PB4*%
%TO.N,unconnected-(U2-PB4-Pad40)*%
X24800000Y3587500D03*
%TO.P,U2,41,PB5*%
%TO.N,unconnected-(U2-PB5-Pad41)*%
X25300000Y3587500D03*
%TO.P,U2,42,PB6*%
%TO.N,unconnected-(U2-PB6-Pad42)*%
X25800000Y3587500D03*
%TO.P,U2,43,PB7*%
%TO.N,unconnected-(U2-PB7-Pad43)*%
X26300000Y3587500D03*
%TO.P,U2,44,BOOT0*%
%TO.N,/BOOT0*%
X26800000Y3587500D03*
%TO.P,U2,45,PB8*%
%TO.N,unconnected-(U2-PB8-Pad45)*%
X27300000Y3587500D03*
%TO.P,U2,46,PB9*%
%TO.N,unconnected-(U2-PB9-Pad46)*%
X27800000Y3587500D03*
%TO.P,U2,47,VSS*%
%TO.N,GND*%
X28300000Y3587500D03*
%TO.P,U2,48,VDD*%
%TO.N,+3V3*%
X28800000Y3587500D03*
%TD*%
D13*
%TO.P,R5,1*%
%TO.N,+5V*%
X10600000Y6300000D03*
%TO.P,R5,2*%
%TO.N,Net-(Q1-B)*%
X9580000Y6300000D03*
%TD*%
D18*
%TO.P,R15,1*%
%TO.N,/STM_JTCK*%
X18650000Y4850000D03*
%TO.P,R15,2*%
%TO.N,Net-(J3-Pin_3)*%
X18650000Y3830000D03*
%TD*%
D13*
%TO.P,R23,1*%
%TO.N,GND*%
X33190000Y11550000D03*
%TO.P,R23,2*%
%TO.N,Net-(U2-PA0)*%
X32170000Y11550000D03*
%TD*%
D21*
%TO.P,C5,1*%
%TO.N,+3V3*%
X21360000Y3990000D03*
%TO.P,C5,2*%
%TO.N,GND*%
X21360000Y3030000D03*
%TD*%
D13*
%TO.P,R11,1*%
%TO.N,Net-(J2-Pin_7)*%
X35530000Y3450000D03*
%TO.P,R11,2*%
%TO.N,/T_NRST*%
X34510000Y3450000D03*
%TD*%
D30*
%TO.P,J1,A1,GND*%
%TO.N,GND*%
X7900000Y10130000D03*
%TO.P,J1,A2,TX1+*%
%TO.N,unconnected-(J1-TX1+-PadA2)*%
X7900000Y9630000D03*
%TO.P,J1,A3,TX1-*%
%TO.N,unconnected-(J1-TX1--PadA3)*%
X7900000Y9130000D03*
%TO.P,J1,A4,VBUS*%
%TO.N,+5V*%
X7900000Y8630000D03*
%TO.P,J1,A5,CC1*%
%TO.N,Net-(J1-CC1)*%
X7900000Y8130000D03*
%TO.P,J1,A6,D+*%
%TO.N,Net-(J1-D+-PadA6)*%
X7900000Y7630000D03*
%TO.P,J1,A7,D-*%
%TO.N,Net-(J1-D--PadA7)*%
X7900000Y7130000D03*
%TO.P,J1,A8,SBU1*%
%TO.N,unconnected-(J1-SBU1-PadA8)*%
X7900000Y6630000D03*
%TO.P,J1,A9,VBUS*%
%TO.N,+5V*%
X7900000Y6130000D03*
%TO.P,J1,A10,RX2-*%
%TO.N,unconnected-(J1-RX2--PadA10)*%
X7900000Y5630000D03*
%TO.P,J1,A11,RX2+*%
%TO.N,unconnected-(J1-RX2+-PadA11)*%
X7900000Y5130000D03*
%TO.P,J1,A12,GND*%
%TO.N,GND*%
X7900000Y4630000D03*
%TO.P,J1,B1,GND*%
X6600000Y4870000D03*
%TO.P,J1,B2,TX2+*%
%TO.N,unconnected-(J1-TX2+-PadB2)*%
X6600000Y5370000D03*
%TO.P,J1,B3,TX2-*%
%TO.N,unconnected-(J1-TX2--PadB3)*%
X6600000Y5870000D03*
%TO.P,J1,B4,VBUS*%
%TO.N,+5V*%
X6600000Y6370000D03*
%TO.P,J1,B5,CC2*%
%TO.N,Net-(J1-CC1)*%
X6600000Y6870000D03*
%TO.P,J1,B6,D+*%
%TO.N,Net-(J1-D+-PadA6)*%
X6600000Y7370000D03*
%TO.P,J1,B7,D-*%
%TO.N,Net-(J1-D--PadA7)*%
X6600000Y7870000D03*
%TO.P,J1,B8,SBU2*%
%TO.N,unconnected-(J1-SBU2-PadB8)*%
X6600000Y8370000D03*
%TO.P,J1,B9,VBUS*%
%TO.N,+5V*%
X6600000Y8870000D03*
%TO.P,J1,B10,RX1-*%
%TO.N,unconnected-(J1-RX1--PadB10)*%
X6600000Y9370000D03*
%TO.P,J1,B11,RX1+*%
%TO.N,unconnected-(J1-RX1+-PadB11)*%
X6600000Y9870000D03*
%TO.P,J1,B12,GND*%
%TO.N,GND*%
X6600000Y10370000D03*
D31*
%TO.P,J1,S1,SHIELD*%
X7275000Y11820000D03*
D32*
X2725000Y11820000D03*
D33*
X6775000Y11520000D03*
X6775000Y3480000D03*
D31*
X7275000Y3180000D03*
D32*
X2725000Y3180000D03*
%TD*%
D34*
%TO.P,Q1,1,B*%
%TO.N,Net-(Q1-B)*%
X10950000Y1475000D03*
%TO.P,Q1,2,E*%
%TO.N,Net-(Q1-E)*%
X12850000Y1475000D03*
%TO.P,Q1,3,C*%
%TO.N,+3V3*%
X11900000Y3350000D03*
%TD*%
D12*
%TO.P,C10,1*%
%TO.N,GND*%
X33140000Y5450000D03*
%TO.P,C10,2*%
%TO.N,Net-(U2-PD0)*%
X32180000Y5450000D03*
%TD*%
D16*
%TO.P,R6,1*%
%TO.N,Net-(Q1-B)*%
X9580000Y5138334D03*
%TO.P,R6,2*%
%TO.N,GND*%
X10600000Y5138334D03*
%TD*%
D35*
%TO.N,+5V*%
X19160000Y12360000D03*
%TO.N,GND*%
X15450000Y13725000D03*
X33700000Y8900000D03*
X17250000Y7000000D03*
X10080000Y10950000D03*
X17250000Y6500000D03*
X17250000Y6000000D03*
X17250000Y7500000D03*
X33760000Y11980000D03*
X17250000Y8000000D03*
X34950000Y7990000D03*
X19105000Y13180000D03*
X10100000Y5130000D03*
%TO.N,+3V3*%
X15500000Y7000000D03*
X15000000Y8000000D03*
X15000000Y7500000D03*
X16484811Y6500000D03*
X16009951Y6500000D03*
X15500000Y6000000D03*
X14500000Y7000000D03*
X14500000Y6000000D03*
X16000000Y7500000D03*
X16000000Y7000000D03*
X22000000Y4000000D03*
X15000000Y7000000D03*
X16500000Y6000000D03*
X22500000Y13100000D03*
X16000000Y8000000D03*
X32635000Y10510543D03*
X16500000Y7500000D03*
X35500000Y13400000D03*
X15000000Y6500000D03*
X15500000Y7500000D03*
X31400000Y3000000D03*
X16500000Y8000000D03*
X15500000Y6500000D03*
X15500000Y8000000D03*
X16500000Y7000000D03*
X16000000Y6000000D03*
X15000000Y6000000D03*
X11250000Y2750000D03*
X33200000Y13400000D03*
X16500000Y13725000D03*
X14500000Y6500000D03*
X14500000Y7500000D03*
X14500000Y8000000D03*
%TO.N,Net-(J1-CC1)*%
X7300000Y8312916D03*
X5900000Y6870000D03*
%TO.N,Net-(J1-D--PadA7)*%
X6029677Y7870000D03*
X7300000Y7120000D03*
%TO.N,/T_Rx*%
X28900000Y10900000D03*
%TO.N,/T_Tx*%
X30400000Y11400000D03*
%TO.N,/DP+*%
X11050000Y9790000D03*
X20880000Y6630000D03*
%TO.N,/DM-*%
X20580000Y7000000D03*
X11090000Y7460000D03*
%TO.N,/T_JTMS*%
X34510000Y6070000D03*
X22860000Y9500000D03*
%TO.N,/RENUM*%
X11080000Y4120000D03*
X23800000Y4440000D03*
%TO.N,/T_JTCK*%
X34510000Y4880000D03*
X22860000Y10000000D03*
X27990000Y10000000D03*
%TO.N,/T_NRST*%
X34510000Y3905000D03*
X26480000Y10480000D03*
%TO.N,/T_SWO*%
X33980000Y2980000D03*
X22850000Y7500000D03*
%TO.N,Net-(U2-PB2)*%
X25300000Y13230000D03*
X18600000Y13740000D03*
%TD*%
D36*
%TO.N,+5V*%
X18900000Y11300000D02*
X18840000Y11360000D01*
X18900000Y12100000D02*
X19160000Y12360000D01*
X9590000Y12150000D02*
X9590000Y11890000D01*
X11040000Y11540000D02*
X11969000Y12469000D01*
X7090000Y6370000D02*
X7330000Y6130000D01*
X8676000Y13134000D02*
X9142000Y13600000D01*
X10911034Y9190000D02*
X10367748Y9190000D01*
X18890000Y11300000D02*
X18900000Y11300000D01*
X8510000Y8630000D02*
X8676000Y8796000D01*
X9940000Y11540000D02*
X11040000Y11540000D01*
X5300000Y6870000D02*
X5300000Y8320000D01*
X9590000Y12570000D02*
X9590000Y12150000D01*
X6600000Y8870000D02*
X7140000Y8870000D01*
X5850000Y8870000D02*
X6600000Y8870000D01*
X10367748Y9190000D02*
X10090000Y8912252D01*
X9142000Y13600000D02*
X9850000Y13600000D01*
X9850000Y12830000D02*
X9590000Y12570000D01*
X11969000Y12469000D02*
X17721000Y12469000D01*
X9850000Y13600000D02*
X9850000Y12830000D01*
X11380000Y9658966D02*
X10911034Y9190000D01*
X7330000Y6130000D02*
X7900000Y6130000D01*
X6600000Y6370000D02*
X7090000Y6370000D01*
X5300000Y8320000D02*
X5850000Y8870000D01*
X9590000Y11890000D02*
X9940000Y11540000D01*
X11850000Y11360000D02*
X11380000Y10890000D01*
X11380000Y10890000D02*
X11380000Y9658966D01*
X18900000Y11300000D02*
X18900000Y12100000D01*
X10090000Y8912252D02*
X10090000Y6810000D01*
X7140000Y8870000D02*
X7380000Y8630000D01*
X18840000Y11360000D02*
X11850000Y11360000D01*
X6600000Y6370000D02*
X5800000Y6370000D01*
X17721000Y12469000D02*
X18890000Y11300000D01*
X8676000Y8796000D02*
X8676000Y13134000D01*
X7380000Y8630000D02*
X7900000Y8630000D01*
X7900000Y8630000D02*
X8510000Y8630000D01*
X10090000Y6810000D02*
X10600000Y6300000D01*
X5800000Y6370000D02*
X5300000Y6870000D01*
D37*
%TO.N,GND*%
X33140000Y5450000D02*
X33140000Y2450000D01*
X10143332Y5130000D02*
X10151666Y5138334D01*
X33190000Y11550000D02*
X33190000Y10600000D01*
X33330000Y11550000D02*
X33190000Y11550000D01*
X6600000Y4870000D02*
X6840000Y4630000D01*
X23800000Y10960000D02*
X23480000Y10640000D01*
X33760000Y11980000D02*
X33330000Y11550000D01*
X35520000Y10550000D02*
X35520000Y11550000D01*
X21330000Y12320000D02*
X21330000Y12440000D01*
X15450000Y14175000D02*
X15450000Y13725000D01*
X17600000Y3840000D02*
X17434000Y3674000D01*
X28300000Y3587500D02*
X28300000Y4580000D01*
X10083333Y10946667D02*
X10080000Y10950000D01*
X28300000Y4580000D02*
X28470000Y4750000D01*
X10100000Y5130000D02*
X10143332Y5130000D01*
X10550000Y12150000D02*
X10550000Y12750000D01*
X23010000Y10640000D02*
X21330000Y12320000D01*
X7660000Y10370000D02*
X6600000Y10370000D01*
X33140000Y2450000D02*
X33190000Y2400000D01*
X6840000Y4630000D02*
X7900000Y4630000D01*
X37350000Y10550000D02*
X37860000Y10040000D01*
X23480000Y10640000D02*
X23010000Y10640000D01*
X18600000Y13180000D02*
X19105000Y13180000D01*
X10600000Y10946667D02*
X10083333Y10946667D01*
X28470000Y4750000D02*
X29030000Y4750000D01*
X15376000Y3674000D02*
X14750000Y4300000D01*
X23800000Y11912500D02*
X23800000Y10960000D01*
X33190000Y10600000D02*
X33140000Y10550000D01*
X7900000Y10130000D02*
X7660000Y10370000D01*
X14750000Y4300000D02*
X14750000Y1995000D01*
X29030000Y4750000D02*
X29810000Y3970000D01*
X10550000Y12750000D02*
X11400000Y13600000D01*
X10151666Y5138334D02*
X10600000Y5138334D01*
X17434000Y3674000D02*
X15376000Y3674000D01*
X33700000Y8900000D02*
X32750000Y8900000D01*
X14750000Y1995000D02*
X15045000Y1700000D01*
X34950000Y7200000D02*
X34950000Y7990000D01*
X29810000Y3970000D02*
X29810000Y3060000D01*
D38*
%TO.N,+3V3*%
X22290000Y12440000D02*
X22290000Y12890000D01*
X16300000Y4300000D02*
X15450000Y5150000D01*
X17600000Y4800000D02*
X17600000Y5150000D01*
D37*
X31490000Y10165000D02*
X31875000Y10550000D01*
D38*
X11250000Y2750000D02*
X11300000Y2750000D01*
X30770000Y3060000D02*
X30770000Y4442500D01*
X14500000Y9000000D02*
X16820000Y9000000D01*
X30770000Y2430000D02*
X30770000Y3060000D01*
X30530000Y2190000D02*
X30770000Y2430000D01*
X22290000Y12440000D02*
X22772500Y12440000D01*
X32635000Y10510543D02*
X32219457Y10510543D01*
X21370000Y4000000D02*
X21360000Y3990000D01*
X28800000Y2510000D02*
X29120000Y2190000D01*
X22290000Y12890000D02*
X22500000Y13100000D01*
X35500000Y13400000D02*
X35500000Y12580000D01*
X17170000Y4800000D02*
X17600000Y4800000D01*
X33200000Y13400000D02*
X33200000Y12560000D01*
X17350000Y5400000D02*
X16700000Y5400000D01*
X29120000Y2190000D02*
X30530000Y2190000D01*
X22772500Y12440000D02*
X23300000Y11912500D01*
X28800000Y3587500D02*
X28800000Y2510000D01*
D37*
X31490000Y9480000D02*
X31490000Y10165000D01*
D38*
X30830000Y3000000D02*
X30770000Y3060000D01*
X15450000Y5150000D02*
X13000000Y5150000D01*
X12600000Y5550000D02*
X12600000Y9000000D01*
X35500000Y12580000D02*
X35530000Y12550000D01*
X12600000Y9000000D02*
X14500000Y9000000D01*
X16670000Y4300000D02*
X17170000Y4800000D01*
X30770000Y4442500D02*
X30212500Y5000000D01*
X13000000Y5150000D02*
X12600000Y5550000D01*
X16500000Y13725000D02*
X16500000Y14175000D01*
X21360000Y4472500D02*
X21887500Y5000000D01*
X17600000Y5150000D02*
X17350000Y5400000D01*
X33200000Y12560000D02*
X33190000Y12550000D01*
X11300000Y2750000D02*
X11900000Y3350000D01*
X16700000Y5400000D02*
X16500000Y5600000D01*
X18900000Y9000000D02*
X16820000Y9000000D01*
X16300000Y4300000D02*
X16670000Y4300000D01*
X32219457Y10510543D02*
X32180000Y10550000D01*
X21360000Y3990000D02*
X21360000Y4472500D01*
X16500000Y5600000D02*
X16500000Y6000000D01*
D37*
X31875000Y10550000D02*
X32180000Y10550000D01*
X30212500Y9000000D02*
X31010000Y9000000D01*
D38*
X22000000Y4000000D02*
X21370000Y4000000D01*
X31400000Y3000000D02*
X30830000Y3000000D01*
D37*
X31010000Y9000000D02*
X31490000Y9480000D01*
%TO.N,Net-(U2-PD1)*%
X34560000Y10550000D02*
X34560000Y9290000D01*
X31650000Y8030000D02*
X31120000Y7500000D01*
X34080000Y8030000D02*
X31650000Y8030000D01*
X34560000Y9290000D02*
X34950000Y8900000D01*
X34950000Y8900000D02*
X34080000Y8030000D01*
X31120000Y7500000D02*
X30212500Y7500000D01*
%TO.N,Net-(U2-PD0)*%
X32180000Y5670000D02*
X32750000Y6240000D01*
X30212500Y7000000D02*
X32550000Y7000000D01*
X32180000Y5450000D02*
X32180000Y5670000D01*
X32550000Y7000000D02*
X32750000Y7200000D01*
X32750000Y6240000D02*
X32750000Y7200000D01*
%TO.N,/NRST*%
X33910000Y11320000D02*
X34140000Y11550000D01*
X32204552Y9870000D02*
X33460000Y9870000D01*
X34140000Y11550000D02*
X34560000Y11550000D01*
X30212500Y8000000D02*
X30949999Y8000000D01*
X33910000Y10320000D02*
X33910000Y11320000D01*
X30949999Y8000000D02*
X31260000Y8310001D01*
X31260000Y8310001D02*
X31260000Y8600000D01*
X31799000Y9464448D02*
X32204552Y9870000D01*
X31799000Y9139000D02*
X31799000Y9464448D01*
X34510000Y12550000D02*
X34510000Y11600000D01*
X31260000Y8600000D02*
X31799000Y9139000D01*
X34510000Y11600000D02*
X34560000Y11550000D01*
X33460000Y9870000D02*
X33910000Y10320000D01*
%TO.N,Net-(D1-A)*%
X14400000Y14170000D02*
X15365000Y13205000D01*
X15365000Y13205000D02*
X15450000Y13205000D01*
X14400000Y14200000D02*
X14400000Y14170000D01*
%TO.N,Net-(D2-K)*%
X17550000Y14200000D02*
X17550000Y14190000D01*
X16565000Y13205000D02*
X16500000Y13205000D01*
X17550000Y14190000D02*
X16565000Y13205000D01*
%TO.N,Net-(Q1-E)*%
X11026666Y8623334D02*
X11370000Y8280000D01*
X10600000Y8623334D02*
X11026666Y8623334D01*
X12850000Y3750000D02*
X12850000Y1475000D01*
X11370000Y5230000D02*
X12850000Y3750000D01*
X11370000Y8280000D02*
X11370000Y5230000D01*
%TO.N,Net-(Q1-B)*%
X9580000Y2845000D02*
X10950000Y1475000D01*
X9580000Y6300000D02*
X9580000Y2845000D01*
%TO.N,/BOOT0*%
X32170000Y2400000D02*
X31470000Y1700000D01*
X27950001Y1700000D02*
X26800000Y2850001D01*
X26800000Y2850001D02*
X26800000Y3587500D01*
X31470000Y1700000D02*
X27950001Y1700000D01*
%TO.N,Net-(J1-CC1)*%
X8920000Y8685032D02*
X8927000Y8692032D01*
X7900000Y8130000D02*
X8380000Y8130000D01*
X7482916Y8130000D02*
X7900000Y8130000D01*
X8927000Y8692032D02*
X8927000Y10567000D01*
X9306667Y10946667D02*
X9580000Y10946667D01*
X8380000Y8130000D02*
X8920000Y8670000D01*
X8920000Y8670000D02*
X8920000Y8685032D01*
X7300000Y8312916D02*
X7482916Y8130000D01*
X8927000Y10567000D02*
X9306667Y10946667D01*
X5900000Y6870000D02*
X6600000Y6870000D01*
%TO.N,Net-(J1-D--PadA7)*%
X7310000Y7130000D02*
X7300000Y7120000D01*
X6029677Y7870000D02*
X6600000Y7870000D01*
X9580000Y7461667D02*
X9578333Y7460000D01*
X9578333Y7460000D02*
X8820000Y7460000D01*
X7900000Y7130000D02*
X7310000Y7130000D01*
X8490000Y7130000D02*
X7900000Y7130000D01*
X8820000Y7460000D02*
X8490000Y7130000D01*
%TO.N,Net-(J1-D+-PadA6)*%
X7900000Y7630000D02*
X8480000Y7630000D01*
X8480000Y7630000D02*
X9159000Y8309000D01*
X6600000Y7370000D02*
X6945000Y7370000D01*
X6945000Y7370000D02*
X7205000Y7630000D01*
X9159000Y8309000D02*
X9159000Y9649000D01*
X7205000Y7630000D02*
X7900000Y7630000D01*
X9159000Y9649000D02*
X9295000Y9785000D01*
X9295000Y9785000D02*
X9580000Y9785000D01*
%TO.N,Net-(J2-Pin_5)*%
X35810000Y5450000D02*
X37860000Y7500000D01*
X35530000Y5450000D02*
X35810000Y5450000D01*
%TO.N,Net-(J2-Pin_6)*%
X37330000Y6250000D02*
X39150000Y6250000D01*
X39150000Y6250000D02*
X40400000Y7500000D01*
X35530000Y4450000D02*
X37330000Y6250000D01*
%TO.N,Net-(U2-PC13)*%
X30212500Y5500000D02*
X30935744Y5500000D01*
X31749000Y4686744D02*
X31749000Y3871000D01*
X31749000Y3871000D02*
X32170000Y3450000D01*
X30935744Y5500000D02*
X31749000Y4686744D01*
%TO.N,Net-(U2-PC14)*%
X31080000Y6000000D02*
X31560000Y5520000D01*
X32170000Y4550000D02*
X32170000Y4450000D01*
X30212500Y6000000D02*
X31080000Y6000000D01*
X31560000Y5160000D02*
X32170000Y4550000D01*
X31560000Y5520000D02*
X31560000Y5160000D01*
%TO.N,Net-(J2-Pin_7)*%
X35530000Y3450000D02*
X35760000Y3450000D01*
X37270000Y4960000D02*
X37860000Y4960000D01*
X35760000Y3450000D02*
X37270000Y4960000D01*
%TO.N,Net-(J2-Pin_8)*%
X39120000Y3680000D02*
X40400000Y4960000D01*
X36760000Y3680000D02*
X39120000Y3680000D01*
X35530000Y2450000D02*
X36760000Y3680000D01*
%TO.N,/T_Rx*%
X28800000Y11000000D02*
X28900000Y10900000D01*
X28800000Y11912500D02*
X28800000Y11000000D01*
%TO.N,/T_Tx*%
X30212500Y11212500D02*
X30400000Y11400000D01*
X30212500Y10500000D02*
X30212500Y11212500D01*
%TO.N,/STM_JTCK*%
X20730000Y3980000D02*
X20730000Y2800000D01*
X20410000Y4300000D02*
X20730000Y3980000D01*
X21130000Y2400000D02*
X22990000Y2400000D01*
X18850000Y4300000D02*
X20410000Y4300000D01*
X18650000Y4850000D02*
X18650000Y4500000D01*
X23300000Y2710000D02*
X23300000Y3587500D01*
X22990000Y2400000D02*
X23300000Y2710000D01*
X20730000Y2800000D02*
X21130000Y2400000D01*
X18650000Y4500000D02*
X18850000Y4300000D01*
%TO.N,/STM_JTMS*%
X19700000Y4850000D02*
X20850000Y6000000D01*
X20850000Y6000000D02*
X21887500Y6000000D01*
%TO.N,/LED_STLINK*%
X14400000Y13060000D02*
X14740000Y12720000D01*
X20369000Y8661000D02*
X21030000Y8000000D01*
X17090000Y12720000D02*
X17550000Y13180000D01*
X18080000Y12650000D02*
X19600000Y12650000D01*
X17550000Y13180000D02*
X18080000Y12650000D01*
X21030000Y8000000D02*
X21887500Y8000000D01*
X14400000Y13180000D02*
X14400000Y13060000D01*
X20369000Y11881000D02*
X20369000Y8661000D01*
X14740000Y12720000D02*
X17090000Y12720000D01*
X19600000Y12650000D02*
X20369000Y11881000D01*
%TO.N,/DP+*%
X9580000Y8765000D02*
X10600000Y9785000D01*
X10600000Y9785000D02*
X11045000Y9785000D01*
X11045000Y9785000D02*
X11050000Y9790000D01*
X21010000Y6500000D02*
X21887500Y6500000D01*
X9580000Y8623334D02*
X9580000Y8765000D01*
X20880000Y6630000D02*
X21010000Y6500000D01*
%TO.N,/DM-*%
X11088333Y7461667D02*
X11090000Y7460000D01*
X10600000Y7461667D02*
X11088333Y7461667D01*
X20580000Y7000000D02*
X21887500Y7000000D01*
%TO.N,Net-(U2-PB12)*%
X20790000Y10740000D02*
X21030000Y10500000D01*
X20150000Y14200000D02*
X20790000Y13560000D01*
X21030000Y10500000D02*
X21887500Y10500000D01*
X20790000Y13560000D02*
X20790000Y10740000D01*
X19650000Y14200000D02*
X20150000Y14200000D01*
%TO.N,/T_JTMS*%
X19650000Y13180000D02*
X20250000Y13180000D01*
X20250000Y13180000D02*
X20570000Y12860000D01*
X20570000Y9940000D02*
X21010000Y9500000D01*
X21887500Y9500000D02*
X22860000Y9500000D01*
X34510000Y6070000D02*
X34510000Y5450000D01*
X21010000Y9500000D02*
X21887500Y9500000D01*
X20570000Y12860000D02*
X20570000Y9940000D01*
%TO.N,Net-(U2-PA0)*%
X31180000Y10910000D02*
X31820000Y11550000D01*
X31010000Y9500000D02*
X31180000Y9670000D01*
X31180000Y9670000D02*
X31180000Y10910000D01*
X30212500Y9500000D02*
X31010000Y9500000D01*
X32170000Y11550000D02*
X32170000Y12550000D01*
X31820000Y11550000D02*
X32170000Y11550000D01*
%TO.N,/RENUM*%
X11080000Y4120000D02*
X10936667Y3976667D01*
X23800000Y3587500D02*
X23800000Y4440000D01*
X10936667Y3976667D02*
X10600000Y3976667D01*
%TO.N,/T_JTCK*%
X34510000Y4450000D02*
X34510000Y4880000D01*
X21887500Y10000000D02*
X22860000Y10000000D01*
X27800000Y10190000D02*
X27800000Y11912500D01*
X27990000Y10000000D02*
X27800000Y10190000D01*
%TO.N,/T_NRST*%
X34510000Y3450000D02*
X34510000Y3905000D01*
X26480000Y10480000D02*
X26300000Y10660000D01*
X26300000Y10660000D02*
X26300000Y11912500D01*
%TO.N,/T_SWO*%
X33980000Y2980000D02*
X34510000Y2450000D01*
X21887500Y7500000D02*
X22850000Y7500000D01*
%TO.N,Net-(J3-Pin_3)*%
X16315000Y2855000D02*
X16315000Y1700000D01*
X18650000Y3830000D02*
X18650000Y3350000D01*
X18400000Y3100000D02*
X16560000Y3100000D01*
X16560000Y3100000D02*
X16315000Y2855000D01*
X18650000Y3350000D02*
X18400000Y3100000D01*
%TO.N,Net-(J3-Pin_2)*%
X19700000Y3830000D02*
X19700000Y3360000D01*
X19070000Y2730000D02*
X17810000Y2730000D01*
X19700000Y3360000D02*
X19070000Y2730000D01*
X17585000Y2505000D02*
X17585000Y1700000D01*
X17810000Y2730000D02*
X17585000Y2505000D01*
%TO.N,Net-(U2-PB2)*%
X18600000Y14200000D02*
X18600000Y13740000D01*
X25300000Y13230000D02*
X25300000Y11912500D01*
%TD*%
%TA.AperFunction,Conductor*%
%TO.N,+3V3*%
G36*
X16047448Y8110234D02*
G01*
X16063653Y8103521D01*
X16083233Y8093279D01*
X16122594Y8067983D01*
X16195564Y8043695D01*
X16265255Y8038708D01*
X16271064Y8038431D01*
X16272646Y8038355D01*
X16272646Y8038356D01*
X16272649Y8038355D01*
X16350873Y8057330D01*
X16412197Y8090813D01*
X16412209Y8090823D01*
X16414695Y8092419D01*
X16415652Y8092701D01*
X16416086Y8092937D01*
X16416137Y8092843D01*
X16424377Y8095263D01*
X16434285Y8102667D01*
X16445155Y8107170D01*
X16476331Y8110522D01*
X16481733Y8112108D01*
X16484360Y8111385D01*
X16514622Y8114639D01*
X16577102Y8083365D01*
X16612755Y8023276D01*
X16611092Y7976706D01*
X16612229Y7970343D01*
X16610737Y7966759D01*
X16610262Y7953451D01*
X16607172Y7945166D01*
X16603527Y7936364D01*
X16593277Y7916766D01*
X16567980Y7877405D01*
X16543690Y7804425D01*
X16543690Y7804423D01*
X16538708Y7734759D01*
X16538707Y7734734D01*
X16538355Y7727342D01*
X16557332Y7649119D01*
X16557332Y7649118D01*
X16557333Y7649117D01*
X16590814Y7587801D01*
X16592424Y7585296D01*
X16602667Y7565712D01*
X16610230Y7547453D01*
X16617699Y7477984D01*
X16610232Y7452553D01*
X16603525Y7436359D01*
X16593277Y7416766D01*
X16567980Y7377405D01*
X16543690Y7304425D01*
X16543690Y7304423D01*
X16538708Y7234759D01*
X16538707Y7234734D01*
X16538355Y7227342D01*
X16557332Y7149119D01*
X16557332Y7149118D01*
X16557333Y7149117D01*
X16590814Y7087801D01*
X16592424Y7085296D01*
X16602668Y7065710D01*
X16610231Y7047450D01*
X16617698Y6977980D01*
X16610230Y6952547D01*
X16606908Y6944527D01*
X16590591Y6917021D01*
X16590828Y6916850D01*
X16588926Y6914214D01*
X16588917Y6914197D01*
X16588896Y6914172D01*
X16588888Y6914161D01*
X16560385Y6869812D01*
X16536095Y6796831D01*
X16536095Y6796829D01*
X16531113Y6727165D01*
X16531112Y6727140D01*
X16530760Y6719748D01*
X16549737Y6641525D01*
X16572811Y6599269D01*
X16578535Y6587303D01*
X16595041Y6547453D01*
X16602510Y6477983D01*
X16595041Y6452548D01*
X16583411Y6424471D01*
X16573166Y6404885D01*
X16560388Y6385003D01*
X16560385Y6384998D01*
X16536095Y6312023D01*
X16531113Y6242354D01*
X16531112Y6242329D01*
X16530760Y6234937D01*
X16549737Y6156714D01*
X16549737Y6156713D01*
X16549738Y6156712D01*
X16583217Y6095398D01*
X16583221Y6095393D01*
X16583222Y6095391D01*
X16589903Y6086467D01*
X16605195Y6059609D01*
X16610231Y6047450D01*
X16617698Y5977981D01*
X16610231Y5952550D01*
X16591278Y5906794D01*
X16582429Y5877626D01*
X16582427Y5877618D01*
X16579686Y5863840D01*
X16575643Y5856114D01*
X16575223Y5847405D01*
X16559695Y5825631D01*
X16547297Y5801930D01*
X16539720Y5797617D01*
X16534658Y5790517D01*
X16509820Y5780593D01*
X16486579Y5767360D01*
X16477872Y5767828D01*
X16469776Y5764592D01*
X16443517Y5769671D01*
X16416810Y5771104D01*
X16407937Y5776553D01*
X16401178Y5777860D01*
X16385595Y5790273D01*
X16372441Y5798351D01*
X16365812Y5804681D01*
X16364794Y5806306D01*
X16355072Y5814934D01*
X16353435Y5816497D01*
X16352897Y5817429D01*
X16343627Y5827014D01*
X16339450Y5832050D01*
X16334587Y5837637D01*
X16334586Y5837638D01*
X16324567Y5844045D01*
X16324567Y5844044D01*
X16316354Y5849296D01*
X16304591Y5859735D01*
X16295706Y5864182D01*
X16295067Y5862907D01*
X16291987Y5864876D01*
X16277419Y5874191D01*
X16266773Y5880999D01*
X16263341Y5882087D01*
X16245341Y5889394D01*
X16242113Y5891009D01*
X16235428Y5894159D01*
X16235425Y5894160D01*
X16235424Y5894160D01*
X16224797Y5895818D01*
X16206426Y5900137D01*
X16200164Y5902123D01*
X16193073Y5904187D01*
X16193071Y5904188D01*
X16193069Y5904188D01*
X16193068Y5904188D01*
X16193063Y5904189D01*
X16181192Y5904163D01*
X16181193Y5904162D01*
X16171433Y5904140D01*
X16155892Y5906563D01*
X16146013Y5905501D01*
X16146164Y5904083D01*
X16126014Y5904036D01*
X16126014Y5904035D01*
X16112575Y5904004D01*
X16112574Y5904004D01*
X16109098Y5903064D01*
X16090012Y5899481D01*
X16086436Y5899097D01*
X16086424Y5899095D01*
X16086423Y5899094D01*
X16043535Y5888147D01*
X16043532Y5888146D01*
X16043521Y5888143D01*
X16039324Y5886746D01*
X16038660Y5888739D01*
X16016750Y5886456D01*
X15986741Y5881042D01*
X15980380Y5882666D01*
X15977584Y5882374D01*
X15952543Y5889771D01*
X15936354Y5896477D01*
X15916769Y5906722D01*
X15877406Y5932019D01*
X15804423Y5956310D01*
X15734758Y5961292D01*
X15729195Y5961557D01*
X15727342Y5961645D01*
X15727341Y5961645D01*
X15705351Y5956310D01*
X15649119Y5942668D01*
X15649118Y5942668D01*
X15649116Y5942667D01*
X15587795Y5909183D01*
X15585284Y5907569D01*
X15565711Y5897333D01*
X15547452Y5889770D01*
X15477983Y5882301D01*
X15452546Y5889770D01*
X15441593Y5894307D01*
X15426273Y5901931D01*
X15418382Y5906563D01*
X15394698Y5920467D01*
X15385722Y5926271D01*
X15380492Y5929983D01*
X15359619Y5937208D01*
X15357620Y5937919D01*
X15311506Y5954791D01*
X15304494Y5957169D01*
X15304497Y5957169D01*
X15283249Y5958049D01*
X15283238Y5958049D01*
X15252081Y5959339D01*
X15252132Y5960049D01*
X15234730Y5961293D01*
X15227348Y5961645D01*
X15194663Y5953718D01*
X15193569Y5953664D01*
X15173259Y5949111D01*
X15155882Y5945216D01*
X15155862Y5945211D01*
X15148708Y5943428D01*
X15148707Y5943428D01*
X15125521Y5929848D01*
X15123403Y5928636D01*
X15103213Y5917340D01*
X15103103Y5917542D01*
X15087792Y5909181D01*
X15085302Y5907318D01*
X15078805Y5903682D01*
X15077112Y5903296D01*
X15065717Y5897336D01*
X15047459Y5889772D01*
X14977990Y5882299D01*
X14952546Y5889770D01*
X14936351Y5896478D01*
X14916769Y5906722D01*
X14877406Y5932019D01*
X14804423Y5956310D01*
X14734758Y5961292D01*
X14729195Y5961557D01*
X14727342Y5961645D01*
X14727341Y5961645D01*
X14705351Y5956310D01*
X14649119Y5942668D01*
X14649118Y5942668D01*
X14649116Y5942667D01*
X14587795Y5909183D01*
X14585284Y5907569D01*
X14584325Y5907288D01*
X14583912Y5907062D01*
X14583862Y5907152D01*
X14575607Y5904730D01*
X14565715Y5897335D01*
X14554845Y5892832D01*
X14523630Y5889476D01*
X14518242Y5887894D01*
X14515623Y5888615D01*
X14485378Y5885362D01*
X14422898Y5916635D01*
X14387244Y5976723D01*
X14388904Y6023251D01*
X14387765Y6029617D01*
X14389260Y6033213D01*
X14389736Y6046548D01*
X14392828Y6054839D01*
X14394804Y6059609D01*
X14396475Y6063645D01*
X14406721Y6083233D01*
X14432017Y6122594D01*
X14456305Y6195564D01*
X14461292Y6265255D01*
X14461645Y6272649D01*
X14458926Y6283856D01*
X14456589Y6293494D01*
X14442670Y6350873D01*
X14409187Y6412197D01*
X14409186Y6412199D01*
X14407582Y6414694D01*
X14397336Y6434280D01*
X14389767Y6452552D01*
X14382299Y6522017D01*
X14389764Y6547444D01*
X14396479Y6563657D01*
X14406713Y6583221D01*
X14432017Y6622594D01*
X14456305Y6695564D01*
X14461292Y6765255D01*
X14461645Y6772649D01*
X14461189Y6774527D01*
X14456415Y6794208D01*
X14442670Y6850873D01*
X14409187Y6912197D01*
X14409186Y6912199D01*
X14407582Y6914694D01*
X14397336Y6934280D01*
X14389767Y6952552D01*
X14382299Y7022017D01*
X14389767Y7047450D01*
X14396479Y7063655D01*
X14406721Y7083233D01*
X14407642Y7084666D01*
X14432017Y7122594D01*
X14456305Y7195564D01*
X14461292Y7265255D01*
X14461645Y7272649D01*
X14460023Y7279334D01*
X14449817Y7321408D01*
X14442670Y7350873D01*
X14409187Y7412197D01*
X14409186Y7412199D01*
X14407582Y7414694D01*
X14397336Y7434280D01*
X14389767Y7452553D01*
X14382299Y7522017D01*
X14389764Y7547444D01*
X14396479Y7563657D01*
X14406713Y7583221D01*
X14432017Y7622594D01*
X14456305Y7695564D01*
X14461292Y7765255D01*
X14461645Y7772649D01*
X14442670Y7850873D01*
X14409187Y7912197D01*
X14409186Y7912199D01*
X14407582Y7914694D01*
X14407300Y7915652D01*
X14407064Y7916085D01*
X14407158Y7916137D01*
X14404738Y7924375D01*
X14397332Y7934288D01*
X14396472Y7936364D01*
X14392829Y7945159D01*
X14389477Y7976337D01*
X14387893Y7981732D01*
X14388615Y7984357D01*
X14385361Y8014626D01*
X14416637Y8077105D01*
X14476726Y8112757D01*
X14523323Y8111093D01*
X14529678Y8112227D01*
X14533254Y8110738D01*
X14546551Y8110263D01*
X14554830Y8107176D01*
X14563653Y8103521D01*
X14583233Y8093279D01*
X14622594Y8067983D01*
X14695564Y8043695D01*
X14765255Y8038708D01*
X14771064Y8038431D01*
X14772646Y8038355D01*
X14772646Y8038356D01*
X14772649Y8038355D01*
X14850873Y8057330D01*
X14912197Y8090813D01*
X14912209Y8090823D01*
X14914695Y8092419D01*
X14934282Y8102666D01*
X14952547Y8110232D01*
X15022014Y8117701D01*
X15047448Y8110234D01*
X15063653Y8103521D01*
X15083233Y8093279D01*
X15122594Y8067983D01*
X15195564Y8043695D01*
X15265255Y8038708D01*
X15271064Y8038431D01*
X15272646Y8038355D01*
X15272646Y8038356D01*
X15272649Y8038355D01*
X15350873Y8057330D01*
X15412197Y8090813D01*
X15412209Y8090823D01*
X15414695Y8092419D01*
X15434282Y8102666D01*
X15452547Y8110232D01*
X15522014Y8117701D01*
X15547448Y8110234D01*
X15563653Y8103521D01*
X15583233Y8093279D01*
X15622594Y8067983D01*
X15695564Y8043695D01*
X15765255Y8038708D01*
X15771064Y8038431D01*
X15772646Y8038355D01*
X15772646Y8038356D01*
X15772649Y8038355D01*
X15850873Y8057330D01*
X15912197Y8090813D01*
X15912209Y8090823D01*
X15914695Y8092419D01*
X15934282Y8102666D01*
X15952547Y8110232D01*
X16022014Y8117701D01*
X16047448Y8110234D01*
G37*
%TD.AperFunction*%
%TD*%
%TA.AperFunction,Conductor*%
%TO.N,GND*%
G36*
X14716123Y14879815D02*
G01*
X14761878Y14827011D01*
X14771822Y14757853D01*
X14755815Y14712377D01*
X14737481Y14681377D01*
X14686411Y14633695D01*
X14630750Y14620500D01*
X14172384Y14620500D01*
X14172361Y14620498D01*
X14148504Y14617731D01*
X14148501Y14617731D01*
X14050864Y14574620D01*
X14050856Y14574614D01*
X13975386Y14499144D01*
X13975381Y14499137D01*
X13932270Y14401501D01*
X13929500Y14377625D01*
X13929500Y14022385D01*
X13929502Y14022362D01*
X13932269Y13998505D01*
X13932269Y13998502D01*
X13975380Y13900865D01*
X13975383Y13900861D01*
X13975384Y13900859D01*
X14050859Y13825384D01*
X14088574Y13808731D01*
X14100570Y13803434D01*
X14153946Y13758348D01*
X14174473Y13691562D01*
X14155634Y13624280D01*
X14103411Y13577863D01*
X14100570Y13576566D01*
X14050863Y13554618D01*
X14050861Y13554617D01*
X14050859Y13554616D01*
X14050858Y13554616D01*
X14050856Y13554614D01*
X13975386Y13479144D01*
X13975381Y13479137D01*
X13932270Y13381501D01*
X13929500Y13357625D01*
X13929500Y13002385D01*
X13929502Y13002362D01*
X13932269Y12978505D01*
X13932269Y12978502D01*
X13969764Y12893586D01*
X13978836Y12824308D01*
X13949013Y12761123D01*
X13889763Y12724092D01*
X13856330Y12719500D01*
X12310099Y12719500D01*
X12243060Y12739185D01*
X12197305Y12791989D01*
X12187361Y12861147D01*
X12204561Y12908598D01*
X12286544Y13041512D01*
X12286547Y13041519D01*
X12339855Y13202394D01*
X12349999Y13301678D01*
X12350000Y13301691D01*
X12350000Y13350000D01*
X11650000Y13350000D01*
X11650000Y12602295D01*
X11656173Y12590990D01*
X11655527Y12581961D01*
X11658691Y12573478D01*
X11653074Y12547658D01*
X11651189Y12521298D01*
X11645370Y12512245D01*
X11643839Y12505205D01*
X11622688Y12476951D01*
X11529324Y12383587D01*
X11468001Y12350102D01*
X11398309Y12355086D01*
X11342376Y12396958D01*
X11322566Y12436673D01*
X11305621Y12495000D01*
X11274000Y12495000D01*
X11206961Y12514685D01*
X11161206Y12567489D01*
X11150000Y12619000D01*
X11150000Y13850000D01*
X11650000Y13850000D01*
X12349999Y13850000D01*
X12349999Y13898308D01*
X12349998Y13898323D01*
X12339855Y13997608D01*
X12286547Y14158482D01*
X12286542Y14158493D01*
X12197575Y14302729D01*
X12197572Y14302733D01*
X12077732Y14422573D01*
X12077728Y14422576D01*
X11933492Y14511543D01*
X11933481Y14511548D01*
X11772606Y14564856D01*
X11673322Y14575000D01*
X11650000Y14575000D01*
X11650000Y13850000D01*
X11150000Y13850000D01*
X11150000Y14575001D01*
X11126693Y14575000D01*
X11126674Y14574999D01*
X11027392Y14564856D01*
X10866518Y14511548D01*
X10866507Y14511543D01*
X10722271Y14422576D01*
X10722267Y14422573D01*
X10602427Y14302733D01*
X10602424Y14302729D01*
X10513416Y14158425D01*
X10461468Y14111700D01*
X10392506Y14100479D01*
X10328424Y14128322D01*
X10320197Y14135841D01*
X10296210Y14159828D01*
X10183628Y14214865D01*
X10183626Y14214866D01*
X10183625Y14214866D01*
X10110636Y14225500D01*
X9589364Y14225500D01*
X9516375Y14214866D01*
X9516373Y14214866D01*
X9516371Y14214865D01*
X9403789Y14159828D01*
X9315172Y14071211D01*
X9260135Y13958629D01*
X9260134Y13958627D01*
X9260134Y13958625D01*
X9259842Y13956623D01*
X9258840Y13954440D01*
X9257291Y13949425D01*
X9256632Y13949629D01*
X9230698Y13893123D01*
X9171850Y13855459D01*
X9137138Y13850501D01*
X9092172Y13850501D01*
X9090963Y13850000D01*
X9038240Y13828161D01*
X9000103Y13812364D01*
X9000101Y13812363D01*
X8946087Y13758348D01*
X8929636Y13741897D01*
X8929635Y13741896D01*
X8726243Y13538504D01*
X8516662Y13328924D01*
X8516661Y13328924D01*
X8516662Y13328923D01*
X8463636Y13275897D01*
X8425500Y13183830D01*
X8425500Y12759894D01*
X8405815Y12692855D01*
X8353011Y12647100D01*
X8283853Y12637156D01*
X8232612Y12656790D01*
X8225001Y12661875D01*
X8224991Y12661881D01*
X8052105Y12733492D01*
X8052097Y12733494D01*
X7868570Y12770000D01*
X7525000Y12770000D01*
X7525000Y12120000D01*
X6814496Y12120000D01*
X6735504Y12120000D01*
X6659204Y12099556D01*
X6590795Y12060060D01*
X6534940Y12004205D01*
X6495444Y11935796D01*
X6475000Y11859496D01*
X6475000Y11270000D01*
X5825000Y11270000D01*
X5788681Y11233681D01*
X5787658Y11234704D01*
X5763001Y11211193D01*
X5709794Y11180474D01*
X5709785Y11180467D01*
X5644533Y11115215D01*
X5644526Y11115206D01*
X5598388Y11035294D01*
X5598387Y11035291D01*
X5598386Y11035289D01*
X5598386Y11035288D01*
X5574500Y10946144D01*
X5574500Y10853856D01*
X5592670Y10786043D01*
X5598386Y10764712D01*
X5624884Y10718817D01*
X5641357Y10650917D01*
X5633681Y10613487D01*
X5631402Y10607379D01*
X5631401Y10607373D01*
X5625000Y10547845D01*
X5625000Y10500000D01*
X6476000Y10500000D01*
X6484685Y10497450D01*
X6493647Y10498738D01*
X6517687Y10487760D01*
X6543039Y10480315D01*
X6548966Y10473475D01*
X6557203Y10469713D01*
X6571492Y10447479D01*
X6588794Y10427511D01*
X6591081Y10416997D01*
X6594977Y10410935D01*
X6600000Y10376000D01*
X6600000Y10364000D01*
X6580315Y10296961D01*
X6527511Y10251206D01*
X6476000Y10240000D01*
X5625000Y10240000D01*
X5625000Y10192156D01*
X5631401Y10132628D01*
X5631403Y10132621D01*
X5681645Y9997914D01*
X5681649Y9997907D01*
X5767809Y9882813D01*
X5767812Y9882810D01*
X5882908Y9796649D01*
X5882907Y9796649D01*
X5901689Y9789644D01*
X5904485Y9787551D01*
X5907952Y9787112D01*
X5932250Y9766767D01*
X5957623Y9747774D01*
X5959635Y9743838D01*
X5961523Y9742257D01*
X5966102Y9731187D01*
X5976726Y9710406D01*
X5978691Y9704109D01*
X5983233Y9681278D01*
X5988082Y9674020D01*
X5993412Y9656945D01*
X5993713Y9639168D01*
X5999025Y9622196D01*
X5994293Y9604958D01*
X5994596Y9587085D01*
X5985236Y9571965D01*
X5985025Y9571196D01*
X5987906Y9570002D01*
X5983231Y9558718D01*
X5974500Y9514823D01*
X5974500Y9244500D01*
X5954815Y9177461D01*
X5902011Y9131706D01*
X5850500Y9120500D01*
X5800170Y9120500D01*
X5708102Y9082364D01*
X5087636Y8461898D01*
X5049500Y8369830D01*
X5049500Y6820171D01*
X5077712Y6752061D01*
X5087636Y6728103D01*
X5587635Y6228105D01*
X5587636Y6228103D01*
X5658103Y6157636D01*
X5675331Y6150500D01*
X5750172Y6119499D01*
X5750173Y6119499D01*
X5850500Y6119499D01*
X5917539Y6099814D01*
X5963294Y6047010D01*
X5974500Y5995499D01*
X5974500Y5725180D01*
X5974500Y5725178D01*
X5974499Y5725178D01*
X5983231Y5681283D01*
X5987906Y5669998D01*
X5984505Y5668590D01*
X5999025Y5622196D01*
X5993412Y5583055D01*
X5988082Y5565980D01*
X5983233Y5558722D01*
X5978692Y5535894D01*
X5976726Y5529595D01*
X5960852Y5505792D01*
X5947589Y5480436D01*
X5941115Y5476194D01*
X5937962Y5471465D01*
X5925805Y5466161D01*
X5901695Y5450360D01*
X5882911Y5443354D01*
X5882907Y5443352D01*
X5767812Y5357191D01*
X5767809Y5357188D01*
X5681649Y5242094D01*
X5681645Y5242087D01*
X5631403Y5107380D01*
X5631401Y5107373D01*
X5625000Y5047845D01*
X5625000Y5000000D01*
X6476000Y5000000D01*
X6484685Y4997450D01*
X6493647Y4998738D01*
X6517687Y4987760D01*
X6543039Y4980315D01*
X6548966Y4973475D01*
X6557203Y4969713D01*
X6571492Y4947479D01*
X6588794Y4927511D01*
X6591081Y4916997D01*
X6594977Y4910935D01*
X6600000Y4876000D01*
X6600000Y4864000D01*
X6580315Y4796961D01*
X6527511Y4751206D01*
X6476000Y4740000D01*
X5625000Y4740000D01*
X5625000Y4692156D01*
X5631401Y4632628D01*
X5631403Y4632621D01*
X5681645Y4497914D01*
X5685897Y4490128D01*
X5683916Y4489047D01*
X5703999Y4435212D01*
X5689150Y4366938D01*
X5667998Y4338679D01*
X5644531Y4315212D01*
X5644526Y4315206D01*
X5598388Y4235294D01*
X5598387Y4235291D01*
X5598386Y4235289D01*
X5598386Y4235288D01*
X5574500Y4146144D01*
X5574500Y4053856D01*
X5595265Y3976358D01*
X5598387Y3964710D01*
X5598388Y3964707D01*
X5644526Y3884795D01*
X5644529Y3884791D01*
X5644531Y3884788D01*
X5709788Y3819531D01*
X5763001Y3788808D01*
X5786512Y3764151D01*
X5788681Y3766319D01*
X5825000Y3730000D01*
X6475000Y3730000D01*
X6475000Y3219496D01*
X6475000Y3140504D01*
X6495444Y3064204D01*
X6534940Y2995795D01*
X6590795Y2939940D01*
X6659204Y2900444D01*
X6735504Y2880000D01*
X7525000Y2880000D01*
X7525000Y2230000D01*
X7868569Y2230000D01*
X7868571Y2230001D01*
X8052097Y2266507D01*
X8052105Y2266509D01*
X8224991Y2338120D01*
X8225000Y2338125D01*
X8380589Y2442087D01*
X8380593Y2442090D01*
X8512910Y2574407D01*
X8512913Y2574411D01*
X8616875Y2730000D01*
X8616880Y2730009D01*
X8688492Y2902897D01*
X8688493Y2902900D01*
X8693884Y2930000D01*
X7941988Y2930000D01*
X7959205Y2939940D01*
X8015060Y2995795D01*
X8054556Y3064204D01*
X8075000Y3140504D01*
X8075000Y3219496D01*
X8054556Y3295796D01*
X8015060Y3364205D01*
X7959205Y3420060D01*
X7941988Y3430000D01*
X8693884Y3430000D01*
X8693884Y3430001D01*
X8688493Y3457101D01*
X8688492Y3457104D01*
X8616880Y3629992D01*
X8616875Y3630001D01*
X8512913Y3785590D01*
X8512910Y3785594D01*
X8480226Y3818278D01*
X8446741Y3879601D01*
X8451725Y3949293D01*
X8493597Y4005226D01*
X8524574Y4022141D01*
X8617086Y4056646D01*
X8617093Y4056650D01*
X8732187Y4142810D01*
X8732190Y4142813D01*
X8818350Y4257907D01*
X8818354Y4257914D01*
X8868596Y4392621D01*
X8868598Y4392628D01*
X8874999Y4452156D01*
X8875000Y4452173D01*
X8875000Y4500000D01*
X8024000Y4500000D01*
X8015314Y4502551D01*
X8006353Y4501262D01*
X7982312Y4512241D01*
X7956961Y4519685D01*
X7951033Y4526526D01*
X7942797Y4530287D01*
X7928507Y4552522D01*
X7911206Y4572489D01*
X7908918Y4583004D01*
X7905023Y4589065D01*
X7900000Y4624000D01*
X7900000Y4636000D01*
X7919685Y4703039D01*
X7972489Y4748794D01*
X8024000Y4760000D01*
X8875000Y4760000D01*
X8875000Y4807828D01*
X8874999Y4807845D01*
X8868598Y4867373D01*
X8868596Y4867380D01*
X8818354Y5002087D01*
X8818350Y5002094D01*
X8732190Y5117188D01*
X8732187Y5117191D01*
X8617092Y5203352D01*
X8598305Y5210359D01*
X8595510Y5212451D01*
X8592048Y5212889D01*
X8567751Y5233232D01*
X8542372Y5252231D01*
X8540361Y5256165D01*
X8538476Y5257743D01*
X8533899Y5268806D01*
X8523273Y5289595D01*
X8521309Y5295886D01*
X8516767Y5318722D01*
X8511915Y5325983D01*
X8506587Y5343055D01*
X8506285Y5360817D01*
X8500975Y5377770D01*
X8505706Y5395025D01*
X8505403Y5412914D01*
X8514753Y5428021D01*
X8514969Y5428808D01*
X8512094Y5429998D01*
X8516764Y5441274D01*
X8516767Y5441278D01*
X8518574Y5450360D01*
X8525500Y5485178D01*
X8525500Y5774823D01*
X8516768Y5818718D01*
X8516767Y5818719D01*
X8516767Y5818722D01*
X8516765Y5818725D01*
X8512094Y5830002D01*
X8515497Y5831412D01*
X8500975Y5877770D01*
X8514969Y5928808D01*
X8512094Y5929998D01*
X8516764Y5941274D01*
X8516767Y5941278D01*
X8517869Y5946819D01*
X8525500Y5985178D01*
X8525500Y6274823D01*
X8516768Y6318718D01*
X8516767Y6318719D01*
X8516767Y6318722D01*
X8516765Y6318725D01*
X8512094Y6330002D01*
X8515497Y6331412D01*
X8500975Y6377770D01*
X8514969Y6428808D01*
X8512094Y6429998D01*
X8516764Y6441274D01*
X8516767Y6441278D01*
X8518502Y6450000D01*
X8525500Y6485178D01*
X8525500Y6774822D01*
X8517261Y6816239D01*
X8523488Y6885831D01*
X8566350Y6941009D01*
X8591417Y6954989D01*
X8603574Y6960024D01*
X8866730Y7223182D01*
X8893657Y7237885D01*
X8919476Y7254477D01*
X8925676Y7255369D01*
X8928053Y7256666D01*
X8954411Y7259500D01*
X9059690Y7259500D01*
X9126729Y7239815D01*
X9172484Y7187011D01*
X9173124Y7185587D01*
X9205384Y7112526D01*
X9280859Y7037051D01*
X9346544Y7008048D01*
X9377752Y6994268D01*
X9431128Y6949182D01*
X9451655Y6882396D01*
X9432817Y6815114D01*
X9380593Y6768697D01*
X9377753Y6767400D01*
X9280861Y6724617D01*
X9280856Y6724614D01*
X9205386Y6649144D01*
X9205381Y6649137D01*
X9162270Y6551501D01*
X9159500Y6527625D01*
X9159500Y6072385D01*
X9159502Y6072362D01*
X9162269Y6048505D01*
X9162269Y6048502D01*
X9205380Y5950865D01*
X9205383Y5950861D01*
X9205384Y5950859D01*
X9280859Y5875384D01*
X9305586Y5864466D01*
X9319789Y5852470D01*
X9336703Y5844745D01*
X9345927Y5830393D01*
X9358962Y5819382D01*
X9364425Y5801609D01*
X9374477Y5785967D01*
X9379086Y5753910D01*
X9379490Y5752596D01*
X9379500Y5751032D01*
X9379500Y5687303D01*
X9359815Y5620264D01*
X9307011Y5574509D01*
X9305587Y5573869D01*
X9280863Y5562953D01*
X9280856Y5562948D01*
X9205386Y5487478D01*
X9205381Y5487471D01*
X9162270Y5389835D01*
X9159500Y5365959D01*
X9159500Y4910719D01*
X9159502Y4910696D01*
X9162269Y4886839D01*
X9162269Y4886836D01*
X9205380Y4789199D01*
X9205383Y4789195D01*
X9205384Y4789193D01*
X9280859Y4713718D01*
X9305586Y4702800D01*
X9319789Y4690804D01*
X9336703Y4683079D01*
X9345927Y4668727D01*
X9358962Y4657716D01*
X9364425Y4639943D01*
X9374477Y4624301D01*
X9379086Y4592244D01*
X9379490Y4590930D01*
X9379500Y4589366D01*
X9379500Y4525636D01*
X9359815Y4458597D01*
X9307011Y4412842D01*
X9305587Y4412202D01*
X9280863Y4401286D01*
X9280856Y4401281D01*
X9205386Y4325811D01*
X9205381Y4325804D01*
X9162270Y4228168D01*
X9159500Y4204292D01*
X9159500Y3749052D01*
X9159502Y3749029D01*
X9162269Y3725172D01*
X9162269Y3725169D01*
X9205380Y3627532D01*
X9205383Y3627528D01*
X9205384Y3627526D01*
X9280859Y3552051D01*
X9305586Y3541133D01*
X9358962Y3496049D01*
X9379490Y3429263D01*
X9379500Y3427699D01*
X9379500Y2805117D01*
X9410024Y2731426D01*
X10463181Y1678269D01*
X10496666Y1616946D01*
X10499500Y1590588D01*
X10499500Y842644D01*
X10499502Y842618D01*
X10502413Y817513D01*
X10502415Y817509D01*
X10547793Y714736D01*
X10547794Y714735D01*
X10627235Y635294D01*
X10730009Y589915D01*
X10755135Y587000D01*
X11144864Y587001D01*
X11144879Y587003D01*
X11144882Y587003D01*
X11169987Y589914D01*
X11169988Y589915D01*
X11169991Y589915D01*
X11272765Y635294D01*
X11352206Y714735D01*
X11397585Y817509D01*
X11400500Y842635D01*
X11400499Y2107364D01*
X11400497Y2107383D01*
X11397586Y2132488D01*
X11397585Y2132490D01*
X11397585Y2132491D01*
X11352206Y2235265D01*
X11300380Y2287091D01*
X11286353Y2312778D01*
X11269948Y2337018D01*
X11269803Y2343088D01*
X11266895Y2348414D01*
X11268982Y2377608D01*
X11268287Y2406868D01*
X11271445Y2412051D01*
X11271879Y2418106D01*
X11289421Y2441540D01*
X11304653Y2466527D01*
X11311268Y2470724D01*
X11313751Y2474039D01*
X11333882Y2486310D01*
X11337185Y2487915D01*
X11406058Y2516443D01*
X11415637Y2526023D01*
X11434393Y2535133D01*
X11449114Y2537609D01*
X11462214Y2544761D01*
X11482869Y2543284D01*
X11503295Y2546718D01*
X11517016Y2540842D01*
X11531906Y2539777D01*
X11556678Y2523857D01*
X11567523Y2519212D01*
X11570308Y2515097D01*
X11576253Y2511276D01*
X11577235Y2510294D01*
X11680009Y2464915D01*
X11705135Y2462000D01*
X12094864Y2462001D01*
X12094879Y2462003D01*
X12094882Y2462003D01*
X12119987Y2464914D01*
X12119988Y2464915D01*
X12119991Y2464915D01*
X12222765Y2510294D01*
X12302206Y2589735D01*
X12347585Y2692509D01*
X12350500Y2717635D01*
X12350499Y3666590D01*
X12356737Y3687836D01*
X12358317Y3709923D01*
X12366388Y3720706D01*
X12370183Y3733628D01*
X12386919Y3748130D01*
X12400189Y3765856D01*
X12412807Y3770563D01*
X12422987Y3779383D01*
X12444905Y3782535D01*
X12465653Y3790273D01*
X12478813Y3787411D01*
X12492146Y3789327D01*
X12512289Y3780128D01*
X12533926Y3775421D01*
X12551651Y3762153D01*
X12555702Y3760302D01*
X12562180Y3754270D01*
X12613181Y3703269D01*
X12646666Y3641946D01*
X12649500Y3615588D01*
X12649500Y2449490D01*
X12629815Y2382451D01*
X12577011Y2336696D01*
X12575588Y2336056D01*
X12549470Y2324524D01*
X12527238Y2314707D01*
X12527233Y2314705D01*
X12447794Y2235266D01*
X12402415Y2132494D01*
X12402415Y2132492D01*
X12399500Y2107369D01*
X12399500Y842644D01*
X12399502Y842618D01*
X12402413Y817513D01*
X12402415Y817509D01*
X12447793Y714736D01*
X12447794Y714735D01*
X12527235Y635294D01*
X12630009Y589915D01*
X12655135Y587000D01*
X13044864Y587001D01*
X13044879Y587003D01*
X13044882Y587003D01*
X13069987Y589914D01*
X13069988Y589915D01*
X13069991Y589915D01*
X13172765Y635294D01*
X13252206Y714735D01*
X13297585Y817509D01*
X13299896Y837428D01*
X14535979Y837428D01*
X14571328Y813808D01*
X14753306Y738431D01*
X14753318Y738428D01*
X14946504Y700001D01*
X14946508Y700000D01*
X15143492Y700000D01*
X15143495Y700001D01*
X15336681Y738428D01*
X15336693Y738431D01*
X15518676Y813810D01*
X15518680Y813813D01*
X15554019Y837427D01*
X15554020Y837428D01*
X15045001Y1346447D01*
X15045000Y1346447D01*
X14535979Y837428D01*
X13299896Y837428D01*
X13300500Y842635D01*
X13300499Y1798496D01*
X14045000Y1798496D01*
X14045000Y1601505D01*
X14083427Y1408319D01*
X14083430Y1408307D01*
X14158808Y1226327D01*
X14158809Y1226325D01*
X14182425Y1190981D01*
X14691446Y1700000D01*
X14691446Y1700001D01*
X14648660Y1742787D01*
X14720000Y1742787D01*
X14720000Y1657213D01*
X14742149Y1574555D01*
X14784936Y1500446D01*
X14845446Y1439936D01*
X14919555Y1397149D01*
X15002213Y1375000D01*
X15087787Y1375000D01*
X15170445Y1397149D01*
X15244554Y1439936D01*
X15305064Y1500446D01*
X15347851Y1574555D01*
X15370000Y1657213D01*
X15370000Y1742787D01*
X15347851Y1825445D01*
X15305064Y1899554D01*
X15244554Y1960064D01*
X15170445Y2002851D01*
X15087787Y2025000D01*
X15002213Y2025000D01*
X14919555Y2002851D01*
X14845446Y1960064D01*
X14784936Y1899554D01*
X14742149Y1825445D01*
X14720000Y1742787D01*
X14648660Y1742787D01*
X14182426Y2209022D01*
X14182426Y2209021D01*
X14158813Y2173682D01*
X14158809Y2173675D01*
X14083429Y1991690D01*
X14083427Y1991682D01*
X14045000Y1798496D01*
X13300499Y1798496D01*
X13300499Y2107364D01*
X13300497Y2107383D01*
X13297586Y2132488D01*
X13297585Y2132490D01*
X13297585Y2132491D01*
X13252206Y2235265D01*
X13172765Y2314706D01*
X13133955Y2331843D01*
X13124412Y2336056D01*
X13110209Y2348054D01*
X13093297Y2355777D01*
X13084071Y2370133D01*
X13071037Y2381143D01*
X13065575Y2398914D01*
X13055523Y2414555D01*
X13050912Y2446619D01*
X13050510Y2447929D01*
X13050500Y2449490D01*
X13050500Y2562574D01*
X14535978Y2562574D01*
X15045000Y2053554D01*
X15045001Y2053554D01*
X15554020Y2562574D01*
X15518675Y2586191D01*
X15518673Y2586192D01*
X15336693Y2661570D01*
X15336681Y2661573D01*
X15143495Y2700000D01*
X14946504Y2700000D01*
X14753318Y2661573D01*
X14753310Y2661571D01*
X14571325Y2586191D01*
X14571318Y2586187D01*
X14535979Y2562574D01*
X14535978Y2562574D01*
X13050500Y2562574D01*
X13050500Y3789881D01*
X13050499Y3789884D01*
X13046676Y3799114D01*
X13019976Y3863574D01*
X12963574Y3919976D01*
X12881872Y4001678D01*
X13800001Y4001678D01*
X13810144Y3902393D01*
X13863452Y3741519D01*
X13863457Y3741508D01*
X13952424Y3597272D01*
X13952427Y3597268D01*
X14072267Y3477428D01*
X14072271Y3477425D01*
X14216507Y3388458D01*
X14216518Y3388453D01*
X14377393Y3335145D01*
X14476683Y3325001D01*
X14500000Y3325002D01*
X14500000Y4050000D01*
X13800001Y4050000D01*
X13800001Y4001678D01*
X12881872Y4001678D01*
X11606819Y5276731D01*
X11573334Y5338054D01*
X11570500Y5364412D01*
X11570500Y6940008D01*
X11590185Y7007047D01*
X11642989Y7052802D01*
X11712147Y7062746D01*
X11757617Y7046742D01*
X11839602Y6998256D01*
X11853329Y6994268D01*
X11997426Y6952403D01*
X11997429Y6952403D01*
X11997431Y6952402D01*
X12034306Y6949500D01*
X12250500Y6949500D01*
X12317539Y6929815D01*
X12363294Y6877011D01*
X12374500Y6825500D01*
X12374500Y5604858D01*
X12374499Y5604844D01*
X12374499Y5505147D01*
X12374500Y5505142D01*
X12398772Y5446543D01*
X12408829Y5422265D01*
X12408830Y5422264D01*
X12472264Y5358830D01*
X12472265Y5358830D01*
X12681953Y5149141D01*
X12872264Y4958830D01*
X12872266Y4958828D01*
X12930278Y4934800D01*
X12955145Y4924500D01*
X13044854Y4924500D01*
X13713609Y4924500D01*
X13780648Y4904815D01*
X13826403Y4852011D01*
X13836347Y4782853D01*
X13831315Y4761496D01*
X13810144Y4697607D01*
X13800000Y4598323D01*
X13800000Y4550000D01*
X14500000Y4550000D01*
X14500000Y4800500D01*
X14519685Y4867539D01*
X14572489Y4913294D01*
X14624000Y4924500D01*
X14876000Y4924500D01*
X14943039Y4904815D01*
X14988794Y4852011D01*
X15000000Y4800500D01*
X15000000Y3325001D01*
X15023308Y3325001D01*
X15023322Y3325002D01*
X15122607Y3335145D01*
X15283481Y3388453D01*
X15283492Y3388458D01*
X15427728Y3477425D01*
X15427732Y3477428D01*
X15547571Y3597267D01*
X15636582Y3741576D01*
X15688530Y3788300D01*
X15757493Y3799523D01*
X15821575Y3771679D01*
X15829802Y3764160D01*
X15853789Y3740173D01*
X15952318Y3692006D01*
X15966375Y3685134D01*
X16039364Y3674500D01*
X16039370Y3674500D01*
X16560630Y3674500D01*
X16560636Y3674500D01*
X16633625Y3685134D01*
X16633628Y3685136D01*
X16636297Y3685960D01*
X16639611Y3686007D01*
X16643155Y3686523D01*
X16643222Y3686058D01*
X16646403Y3686103D01*
X16655611Y3690276D01*
X16680755Y3686588D01*
X16706160Y3686946D01*
X16714739Y3681603D01*
X16724741Y3680135D01*
X16743895Y3663442D01*
X16765465Y3650006D01*
X16771197Y3639648D01*
X16777414Y3634229D01*
X16791984Y3602083D01*
X16833526Y3459095D01*
X16833327Y3389226D01*
X16795385Y3330556D01*
X16731747Y3301712D01*
X16714450Y3300500D01*
X16520116Y3300500D01*
X16446425Y3269976D01*
X16145024Y2968575D01*
X16114500Y2894884D01*
X16114500Y2403901D01*
X16094815Y2336862D01*
X16042011Y2291107D01*
X16037956Y2289341D01*
X16006875Y2276467D01*
X16006866Y2276462D01*
X15900332Y2205278D01*
X15809723Y2114669D01*
X15809718Y2114662D01*
X15809457Y2114270D01*
X15794045Y2095494D01*
X15398553Y1700001D01*
X15398553Y1700000D01*
X15794044Y1304509D01*
X15809464Y1285720D01*
X15809720Y1285336D01*
X15809721Y1285335D01*
X15809724Y1285331D01*
X15861623Y1233432D01*
X15900332Y1194723D01*
X16006866Y1123539D01*
X16006872Y1123536D01*
X16006873Y1123535D01*
X16125256Y1074499D01*
X16125260Y1074499D01*
X16125261Y1074498D01*
X16250928Y1049500D01*
X16250931Y1049500D01*
X16379071Y1049500D01*
X16463615Y1066318D01*
X16504744Y1074499D01*
X16623127Y1123535D01*
X16729669Y1194724D01*
X16820276Y1285331D01*
X16846898Y1325175D01*
X16900509Y1369978D01*
X16969834Y1378686D01*
X17032862Y1348532D01*
X17053100Y1325176D01*
X17066910Y1304509D01*
X17079725Y1285329D01*
X17170327Y1194727D01*
X17170331Y1194724D01*
X17276866Y1123539D01*
X17276872Y1123536D01*
X17276873Y1123535D01*
X17395256Y1074499D01*
X17395260Y1074499D01*
X17395261Y1074498D01*
X17520928Y1049500D01*
X17520931Y1049500D01*
X17649071Y1049500D01*
X17733615Y1066318D01*
X17774744Y1074499D01*
X17893127Y1123535D01*
X17999669Y1194724D01*
X18004890Y1199946D01*
X18066210Y1233432D01*
X18135901Y1228451D01*
X18191837Y1186583D01*
X18207249Y1152023D01*
X18208558Y1152564D01*
X18213234Y1141276D01*
X18225088Y1123535D01*
X18246496Y1091496D01*
X18296278Y1058233D01*
X18296281Y1058233D01*
X18296282Y1058232D01*
X18340177Y1049500D01*
X18340180Y1049500D01*
X19369822Y1049500D01*
X19413717Y1058232D01*
X19413717Y1058233D01*
X19413722Y1058233D01*
X19463504Y1091496D01*
X19496767Y1141278D01*
X19496768Y1141283D01*
X19505500Y1185178D01*
X19505500Y2214823D01*
X19496768Y2258718D01*
X19496767Y2258719D01*
X19496767Y2258722D01*
X19463504Y2308504D01*
X19463503Y2308505D01*
X19413724Y2341766D01*
X19413717Y2341769D01*
X19369822Y2350500D01*
X19369820Y2350500D01*
X19273412Y2350500D01*
X19206373Y2370185D01*
X19160618Y2422989D01*
X19150674Y2492147D01*
X19179699Y2555703D01*
X19185731Y2562181D01*
X19526450Y2902900D01*
X19869976Y3246426D01*
X19900500Y3320118D01*
X19900500Y3320123D01*
X19902882Y3332095D01*
X19907051Y3331266D01*
X19920185Y3375994D01*
X19972989Y3421749D01*
X19974281Y3422331D01*
X20049141Y3455384D01*
X20124616Y3530859D01*
X20167730Y3628502D01*
X20170500Y3652377D01*
X20170499Y3956590D01*
X20176737Y3977836D01*
X20178317Y3999923D01*
X20186388Y4010706D01*
X20190183Y4023628D01*
X20206919Y4038130D01*
X20220189Y4055856D01*
X20232807Y4060563D01*
X20242987Y4069383D01*
X20264905Y4072535D01*
X20285653Y4080273D01*
X20298813Y4077411D01*
X20312146Y4079327D01*
X20332288Y4070128D01*
X20353926Y4065421D01*
X20371652Y4052151D01*
X20375701Y4050302D01*
X20382180Y4044270D01*
X20493181Y3933269D01*
X20526666Y3871946D01*
X20529500Y3845588D01*
X20529500Y2760117D01*
X20560024Y2686426D01*
X20570044Y2676406D01*
X20596163Y2637974D01*
X20597966Y2633808D01*
X20680278Y2494626D01*
X20680285Y2494617D01*
X20794616Y2380286D01*
X20794625Y2380279D01*
X20933800Y2297971D01*
X20937967Y2296168D01*
X20957639Y2285450D01*
X20967778Y2278672D01*
X21016426Y2230024D01*
X21068533Y2208441D01*
X21090117Y2199500D01*
X23029880Y2199500D01*
X23029882Y2199500D01*
X23103574Y2230024D01*
X23469976Y2596426D01*
X23488199Y2640423D01*
X23532038Y2694823D01*
X23598331Y2716889D01*
X23626950Y2714585D01*
X23637013Y2712584D01*
X23637014Y2712583D01*
X23702789Y2699500D01*
X23897210Y2699501D01*
X23962986Y2712583D01*
X23981108Y2724693D01*
X24047782Y2745571D01*
X24115163Y2727088D01*
X24118891Y2724692D01*
X24137011Y2712584D01*
X24137013Y2712584D01*
X24137014Y2712583D01*
X24202789Y2699500D01*
X24397210Y2699501D01*
X24462986Y2712583D01*
X24481108Y2724693D01*
X24547782Y2745571D01*
X24615163Y2727088D01*
X24618891Y2724692D01*
X24637011Y2712584D01*
X24637013Y2712584D01*
X24637014Y2712583D01*
X24702789Y2699500D01*
X24897210Y2699501D01*
X24962986Y2712583D01*
X24981108Y2724693D01*
X25047782Y2745571D01*
X25115163Y2727088D01*
X25118891Y2724692D01*
X25137011Y2712584D01*
X25137013Y2712584D01*
X25137014Y2712583D01*
X25202789Y2699500D01*
X25397210Y2699501D01*
X25462986Y2712583D01*
X25481108Y2724693D01*
X25547782Y2745571D01*
X25615163Y2727088D01*
X25618891Y2724692D01*
X25637011Y2712584D01*
X25637013Y2712584D01*
X25637014Y2712583D01*
X25702789Y2699500D01*
X25897210Y2699501D01*
X25962986Y2712583D01*
X25981108Y2724693D01*
X26047782Y2745571D01*
X26115163Y2727088D01*
X26118891Y2724692D01*
X26137011Y2712584D01*
X26137013Y2712584D01*
X26137014Y2712583D01*
X26202789Y2699500D01*
X26397210Y2699501D01*
X26462986Y2712583D01*
X26481108Y2724693D01*
X26496155Y2729404D01*
X26508964Y2738604D01*
X26528815Y2739632D01*
X26547785Y2745571D01*
X26563886Y2741446D01*
X26578741Y2742214D01*
X26604127Y2731136D01*
X26611560Y2729231D01*
X26615297Y2727094D01*
X26637014Y2712583D01*
X26642618Y2711469D01*
X26657106Y2703183D01*
X26663840Y2696178D01*
X26683227Y2683224D01*
X27780025Y1586426D01*
X27836427Y1530024D01*
X27910119Y1499500D01*
X27910121Y1499500D01*
X31509880Y1499500D01*
X31509882Y1499500D01*
X31583574Y1530024D01*
X31946732Y1893184D01*
X32008053Y1926667D01*
X32034402Y1929501D01*
X32347622Y1929501D01*
X32363539Y1931347D01*
X32371490Y1932269D01*
X32371490Y1932270D01*
X32371498Y1932270D01*
X32371504Y1932274D01*
X32377626Y1933938D01*
X32447482Y1932545D01*
X32505496Y1893607D01*
X32516915Y1877410D01*
X32549264Y1822712D01*
X32549268Y1822706D01*
X32662705Y1709269D01*
X32662714Y1709262D01*
X32800805Y1627596D01*
X32940000Y1587156D01*
X32940000Y4510000D01*
X32926319Y4523681D01*
X32892834Y4585004D01*
X32890000Y4611362D01*
X32890000Y5326000D01*
X32909685Y5393039D01*
X32962489Y5438794D01*
X33014000Y5450000D01*
X33288638Y5450000D01*
X33318078Y5441356D01*
X33348065Y5434832D01*
X33353080Y5431078D01*
X33355677Y5430315D01*
X33376319Y5413681D01*
X33403681Y5386319D01*
X33437166Y5324996D01*
X33440000Y5298638D01*
X33440000Y1587157D01*
X33579194Y1627596D01*
X33717285Y1709262D01*
X33717294Y1709269D01*
X33830731Y1822706D01*
X33830738Y1822715D01*
X33912405Y1960807D01*
X33935635Y2040764D01*
X33973242Y2099649D01*
X34036714Y2128856D01*
X34105901Y2119110D01*
X34142393Y2093850D01*
X34210859Y2025384D01*
X34210862Y2025383D01*
X34210863Y2025382D01*
X34308499Y1982271D01*
X34308500Y1982271D01*
X34308502Y1982270D01*
X34332377Y1979500D01*
X34687622Y1979501D01*
X34711498Y1982270D01*
X34809135Y2025381D01*
X34809136Y2025382D01*
X34809141Y2025384D01*
X34884616Y2100859D01*
X34906566Y2150570D01*
X34951651Y2203946D01*
X35018438Y2224474D01*
X35085720Y2205636D01*
X35132136Y2153413D01*
X35133434Y2150570D01*
X35152514Y2107357D01*
X35155384Y2100859D01*
X35230859Y2025384D01*
X35230862Y2025383D01*
X35230863Y2025382D01*
X35328499Y1982271D01*
X35328500Y1982271D01*
X35328502Y1982270D01*
X35352377Y1979500D01*
X35707622Y1979501D01*
X35731498Y1982270D01*
X35829135Y2025381D01*
X35829136Y2025382D01*
X35829141Y2025384D01*
X35904616Y2100859D01*
X35947730Y2198502D01*
X35950500Y2222377D01*
X35950499Y2535590D01*
X35970183Y2602628D01*
X35986813Y2623265D01*
X36806731Y3443181D01*
X36868054Y3476666D01*
X36894412Y3479500D01*
X37236027Y3479500D01*
X37303066Y3459815D01*
X37348821Y3407011D01*
X37358765Y3337853D01*
X37329740Y3274297D01*
X37304918Y3252398D01*
X37222218Y3197140D01*
X37222214Y3197137D01*
X37082863Y3057786D01*
X37082860Y3057782D01*
X36973371Y2893921D01*
X36973364Y2893908D01*
X36897950Y2711840D01*
X36897947Y2711830D01*
X36859500Y2518544D01*
X36859500Y2518541D01*
X36859500Y2321459D01*
X36859500Y2321457D01*
X36859499Y2321457D01*
X36897947Y2128171D01*
X36897950Y2128161D01*
X36973364Y1946093D01*
X36973371Y1946080D01*
X37082860Y1782219D01*
X37082863Y1782215D01*
X37222214Y1642864D01*
X37222218Y1642861D01*
X37386079Y1533372D01*
X37386092Y1533365D01*
X37568160Y1457951D01*
X37568165Y1457949D01*
X37568169Y1457949D01*
X37568170Y1457948D01*
X37761456Y1419500D01*
X37761459Y1419500D01*
X37958543Y1419500D01*
X38088582Y1445368D01*
X38151835Y1457949D01*
X38333914Y1533368D01*
X38497782Y1642861D01*
X38637139Y1782218D01*
X38746632Y1946086D01*
X38761163Y1981166D01*
X38781399Y2030022D01*
X38822051Y2128165D01*
X38839289Y2214823D01*
X38860500Y2321457D01*
X39399499Y2321457D01*
X39437947Y2128171D01*
X39437950Y2128161D01*
X39513364Y1946093D01*
X39513371Y1946080D01*
X39622860Y1782219D01*
X39622863Y1782215D01*
X39762214Y1642864D01*
X39762218Y1642861D01*
X39926079Y1533372D01*
X39926092Y1533365D01*
X40108160Y1457951D01*
X40108165Y1457949D01*
X40108169Y1457949D01*
X40108170Y1457948D01*
X40301456Y1419500D01*
X40301459Y1419500D01*
X40498543Y1419500D01*
X40628582Y1445368D01*
X40691835Y1457949D01*
X40873914Y1533368D01*
X41037782Y1642861D01*
X41177139Y1782218D01*
X41286632Y1946086D01*
X41301163Y1981166D01*
X41321399Y2030022D01*
X41362051Y2128165D01*
X41379289Y2214823D01*
X41400500Y2321457D01*
X41400500Y2518544D01*
X41362052Y2711830D01*
X41362051Y2711831D01*
X41362051Y2711835D01*
X41360800Y2714856D01*
X41286635Y2893908D01*
X41286628Y2893921D01*
X41177139Y3057782D01*
X41177136Y3057786D01*
X41037785Y3197137D01*
X41037781Y3197140D01*
X40873920Y3306629D01*
X40873907Y3306636D01*
X40691839Y3382050D01*
X40691829Y3382053D01*
X40498543Y3420500D01*
X40498541Y3420500D01*
X40301459Y3420500D01*
X40301457Y3420500D01*
X40108170Y3382053D01*
X40108160Y3382050D01*
X39926092Y3306636D01*
X39926079Y3306629D01*
X39762218Y3197140D01*
X39762214Y3197137D01*
X39622863Y3057786D01*
X39622860Y3057782D01*
X39513371Y2893921D01*
X39513364Y2893908D01*
X39437950Y2711840D01*
X39437947Y2711830D01*
X39399500Y2518544D01*
X39399500Y2518541D01*
X39399500Y2321459D01*
X39399500Y2321457D01*
X39399499Y2321457D01*
X38860500Y2321457D01*
X38860500Y2518544D01*
X38822052Y2711830D01*
X38822051Y2711831D01*
X38822051Y2711835D01*
X38820800Y2714856D01*
X38746635Y2893908D01*
X38746628Y2893921D01*
X38637139Y3057782D01*
X38637136Y3057786D01*
X38497785Y3197137D01*
X38497781Y3197140D01*
X38415082Y3252398D01*
X38370277Y3306010D01*
X38361570Y3375335D01*
X38391725Y3438363D01*
X38451168Y3475082D01*
X38483973Y3479500D01*
X39159880Y3479500D01*
X39159882Y3479500D01*
X39233574Y3510024D01*
X39776882Y4053334D01*
X39838203Y4086817D01*
X39907894Y4081833D01*
X39923010Y4075011D01*
X39926082Y4073369D01*
X40099162Y4001678D01*
X40108165Y3997949D01*
X40108169Y3997949D01*
X40108170Y3997948D01*
X40301456Y3959500D01*
X40301459Y3959500D01*
X40498543Y3959500D01*
X40655196Y3990661D01*
X40691835Y3997949D01*
X40873914Y4073368D01*
X41037782Y4182861D01*
X41177139Y4322218D01*
X41286632Y4486086D01*
X41287159Y4487357D01*
X41324521Y4577559D01*
X41362051Y4668165D01*
X41380800Y4762423D01*
X41400500Y4861457D01*
X41400500Y5058544D01*
X41362052Y5251830D01*
X41362051Y5251831D01*
X41362051Y5251835D01*
X41360908Y5254595D01*
X41286635Y5433908D01*
X41286628Y5433921D01*
X41177139Y5597782D01*
X41177136Y5597786D01*
X41037785Y5737137D01*
X41037781Y5737140D01*
X40873920Y5846629D01*
X40873907Y5846636D01*
X40691839Y5922050D01*
X40691829Y5922053D01*
X40498543Y5960500D01*
X40498541Y5960500D01*
X40301459Y5960500D01*
X40301457Y5960500D01*
X40108170Y5922053D01*
X40108160Y5922050D01*
X39926092Y5846636D01*
X39926079Y5846629D01*
X39762218Y5737140D01*
X39762214Y5737137D01*
X39622863Y5597786D01*
X39622860Y5597782D01*
X39513371Y5433921D01*
X39513364Y5433908D01*
X39437950Y5251840D01*
X39437947Y5251830D01*
X39399500Y5058544D01*
X39399500Y5058541D01*
X39399500Y4861459D01*
X39399500Y4861457D01*
X39399499Y4861457D01*
X39437947Y4668171D01*
X39437950Y4668161D01*
X39513366Y4486088D01*
X39515007Y4483019D01*
X39515380Y4481227D01*
X39515699Y4480457D01*
X39515553Y4480397D01*
X39529250Y4414617D01*
X39504251Y4349372D01*
X39493331Y4336883D01*
X39073269Y3916819D01*
X39011946Y3883334D01*
X38985588Y3880500D01*
X38454041Y3880500D01*
X38387002Y3900185D01*
X38341247Y3952989D01*
X38331303Y4022147D01*
X38360328Y4085703D01*
X38385150Y4107602D01*
X38483242Y4173146D01*
X38497782Y4182861D01*
X38637139Y4322218D01*
X38746632Y4486086D01*
X38747159Y4487357D01*
X38784521Y4577559D01*
X38822051Y4668165D01*
X38840800Y4762423D01*
X38860500Y4861457D01*
X38860500Y5058544D01*
X38822052Y5251830D01*
X38822051Y5251831D01*
X38822051Y5251835D01*
X38820908Y5254595D01*
X38746635Y5433908D01*
X38746628Y5433921D01*
X38637139Y5597782D01*
X38637136Y5597786D01*
X38497785Y5737137D01*
X38497781Y5737140D01*
X38370184Y5822398D01*
X38325379Y5876010D01*
X38316672Y5945335D01*
X38346827Y6008363D01*
X38406270Y6045082D01*
X38439075Y6049500D01*
X39189880Y6049500D01*
X39189882Y6049500D01*
X39263574Y6080024D01*
X39776882Y6593334D01*
X39838203Y6626817D01*
X39907894Y6621833D01*
X39923010Y6615011D01*
X39926082Y6613369D01*
X40108160Y6537951D01*
X40108165Y6537949D01*
X40108169Y6537949D01*
X40108170Y6537948D01*
X40301456Y6499500D01*
X40301459Y6499500D01*
X40498543Y6499500D01*
X40656302Y6530881D01*
X40691835Y6537949D01*
X40841826Y6600077D01*
X40873907Y6613365D01*
X40873907Y6613366D01*
X40873914Y6613368D01*
X41037782Y6722861D01*
X41177139Y6862218D01*
X41286632Y7026086D01*
X41362051Y7208165D01*
X41380219Y7299500D01*
X41400500Y7401457D01*
X41400500Y7598544D01*
X41362052Y7791830D01*
X41362051Y7791831D01*
X41362051Y7791835D01*
X41362049Y7791840D01*
X41286635Y7973908D01*
X41286628Y7973921D01*
X41177139Y8137782D01*
X41177136Y8137786D01*
X41037785Y8277137D01*
X41037781Y8277140D01*
X40873920Y8386629D01*
X40873907Y8386636D01*
X40691839Y8462050D01*
X40691830Y8462053D01*
X40652616Y8469853D01*
X40590705Y8502239D01*
X40556132Y8562955D01*
X40559873Y8632725D01*
X40600740Y8689396D01*
X40657412Y8713944D01*
X40716134Y8723245D01*
X40918217Y8788905D01*
X41107554Y8885378D01*
X41161716Y8924730D01*
X41161717Y8924730D01*
X40529408Y9557038D01*
X40592993Y9574075D01*
X40707007Y9639901D01*
X40800099Y9732993D01*
X40865925Y9847007D01*
X40882962Y9910592D01*
X41515270Y9278283D01*
X41515270Y9278284D01*
X41554622Y9332446D01*
X41651095Y9521783D01*
X41716757Y9723870D01*
X41716757Y9723873D01*
X41750000Y9933754D01*
X41750000Y10146247D01*
X41716757Y10356128D01*
X41716757Y10356131D01*
X41651095Y10558218D01*
X41554624Y10747551D01*
X41515270Y10801718D01*
X41515269Y10801718D01*
X40882962Y10169410D01*
X40865925Y10232993D01*
X40800099Y10347007D01*
X40707007Y10440099D01*
X40592993Y10505925D01*
X40529409Y10522963D01*
X41161716Y11155272D01*
X41107550Y11194625D01*
X40918217Y11291096D01*
X40716128Y11356758D01*
X40657411Y11366058D01*
X40594276Y11395988D01*
X40557345Y11455299D01*
X40558343Y11525162D01*
X40596953Y11583394D01*
X40652615Y11610148D01*
X40691835Y11617949D01*
X40864578Y11689501D01*
X40873907Y11693365D01*
X40873907Y11693366D01*
X40873914Y11693368D01*
X41037782Y11802861D01*
X41177139Y11942218D01*
X41286632Y12106086D01*
X41287403Y12107946D01*
X41325890Y12200865D01*
X41362051Y12288165D01*
X41381032Y12383587D01*
X41400500Y12481457D01*
X41400500Y12678544D01*
X41362052Y12871830D01*
X41362051Y12871831D01*
X41362051Y12871835D01*
X41358313Y12880859D01*
X41286635Y13053908D01*
X41286628Y13053921D01*
X41177139Y13217782D01*
X41177136Y13217786D01*
X41037785Y13357137D01*
X41037781Y13357140D01*
X40873920Y13466629D01*
X40873907Y13466636D01*
X40691839Y13542050D01*
X40691829Y13542053D01*
X40498543Y13580500D01*
X40498541Y13580500D01*
X40301459Y13580500D01*
X40301457Y13580500D01*
X40108170Y13542053D01*
X40108160Y13542050D01*
X39926092Y13466636D01*
X39926079Y13466629D01*
X39762218Y13357140D01*
X39762214Y13357137D01*
X39622863Y13217786D01*
X39622860Y13217782D01*
X39513371Y13053921D01*
X39513364Y13053908D01*
X39437950Y12871840D01*
X39437947Y12871830D01*
X39399500Y12678544D01*
X39399500Y12678541D01*
X39399500Y12481459D01*
X39399500Y12481457D01*
X39399499Y12481457D01*
X39437947Y12288171D01*
X39437950Y12288161D01*
X39513364Y12106093D01*
X39513371Y12106080D01*
X39622860Y11942219D01*
X39622863Y11942215D01*
X39762214Y11802864D01*
X39762218Y11802861D01*
X39926079Y11693372D01*
X39926092Y11693365D01*
X40108160Y11617951D01*
X40108165Y11617949D01*
X40128491Y11613906D01*
X40147381Y11610148D01*
X40209292Y11577763D01*
X40243866Y11517048D01*
X40240127Y11447278D01*
X40199261Y11390606D01*
X40142589Y11366058D01*
X40083870Y11356758D01*
X40083869Y11356758D01*
X39881782Y11291096D01*
X39692439Y11194620D01*
X39638282Y11155273D01*
X39638282Y11155272D01*
X40270591Y10522963D01*
X40207007Y10505925D01*
X40092993Y10440099D01*
X39999901Y10347007D01*
X39934075Y10232993D01*
X39917037Y10169409D01*
X39284728Y10801718D01*
X39284727Y10801718D01*
X39245380Y10747560D01*
X39240483Y10737949D01*
X39192506Y10687155D01*
X39124684Y10670362D01*
X39058550Y10692902D01*
X39019516Y10737952D01*
X39014626Y10747548D01*
X38975270Y10801718D01*
X38975269Y10801718D01*
X38342962Y10169410D01*
X38325925Y10232993D01*
X38260099Y10347007D01*
X38167007Y10440099D01*
X38052993Y10505925D01*
X37989409Y10522963D01*
X38621716Y11155272D01*
X38567550Y11194625D01*
X38378217Y11291096D01*
X38235186Y11337569D01*
X38177511Y11377006D01*
X38150312Y11441365D01*
X38162227Y11510211D01*
X38209471Y11561687D01*
X38273504Y11579500D01*
X38724822Y11579500D01*
X38768717Y11588232D01*
X38768717Y11588233D01*
X38768722Y11588233D01*
X38818504Y11621496D01*
X38851767Y11671278D01*
X38855952Y11692318D01*
X38860500Y11715178D01*
X38860500Y13444823D01*
X38851768Y13488718D01*
X38851767Y13488719D01*
X38851767Y13488722D01*
X38818504Y13538504D01*
X38813197Y13542050D01*
X38768724Y13571766D01*
X38768717Y13571769D01*
X38724822Y13580500D01*
X38724820Y13580500D01*
X36995180Y13580500D01*
X36995178Y13580500D01*
X36951282Y13571769D01*
X36951275Y13571766D01*
X36901496Y13538505D01*
X36901495Y13538504D01*
X36868234Y13488725D01*
X36868231Y13488718D01*
X36859500Y13444823D01*
X36859500Y13444820D01*
X36859500Y11715180D01*
X36859500Y11715178D01*
X36859499Y11715178D01*
X36868231Y11671283D01*
X36868234Y11671276D01*
X36897844Y11626961D01*
X36901496Y11621496D01*
X36951278Y11588233D01*
X36951281Y11588233D01*
X36951282Y11588232D01*
X36995177Y11579500D01*
X37446496Y11579500D01*
X37513535Y11559815D01*
X37559290Y11507011D01*
X37569234Y11437853D01*
X37540209Y11374297D01*
X37484814Y11337569D01*
X37341782Y11291096D01*
X37152439Y11194620D01*
X37098282Y11155273D01*
X37098282Y11155272D01*
X37730591Y10522963D01*
X37667007Y10505925D01*
X37552993Y10440099D01*
X37459901Y10347007D01*
X37394075Y10232993D01*
X37377037Y10169410D01*
X36744728Y10801718D01*
X36744727Y10801718D01*
X36705380Y10747561D01*
X36608904Y10558218D01*
X36543243Y10356132D01*
X36539995Y10335628D01*
X36510000Y10131409D01*
X36510000Y9933754D01*
X36543242Y9723873D01*
X36543242Y9723870D01*
X36608904Y9521783D01*
X36705375Y9332450D01*
X36744728Y9278284D01*
X37377037Y9910592D01*
X37394075Y9847007D01*
X37459901Y9732993D01*
X37552993Y9639901D01*
X37667007Y9574075D01*
X37730590Y9557038D01*
X37098282Y8924731D01*
X37098282Y8924730D01*
X37152449Y8885376D01*
X37341782Y8788905D01*
X37543865Y8723245D01*
X37602587Y8713944D01*
X37665722Y8684015D01*
X37702654Y8624703D01*
X37701656Y8554841D01*
X37663047Y8496608D01*
X37607384Y8469853D01*
X37568167Y8462052D01*
X37568160Y8462050D01*
X37386092Y8386636D01*
X37386079Y8386629D01*
X37222218Y8277140D01*
X37222214Y8277137D01*
X37082863Y8137786D01*
X37082860Y8137782D01*
X36973371Y7973921D01*
X36973364Y7973908D01*
X36897950Y7791840D01*
X36897947Y7791830D01*
X36859500Y7598544D01*
X36859500Y7598541D01*
X36859500Y7401459D01*
X36859500Y7401457D01*
X36859499Y7401457D01*
X36897947Y7208171D01*
X36897950Y7208161D01*
X36973366Y7026088D01*
X36975007Y7023019D01*
X36975380Y7021227D01*
X36975699Y7020457D01*
X36975553Y7020397D01*
X36989250Y6954617D01*
X36964251Y6889372D01*
X36953331Y6876883D01*
X35973782Y5897334D01*
X35912459Y5863849D01*
X35842767Y5868833D01*
X35836014Y5871581D01*
X35827401Y5875384D01*
X35790912Y5891496D01*
X35731499Y5917730D01*
X35731495Y5917731D01*
X35724912Y5918495D01*
X35660589Y5945776D01*
X35621226Y6003503D01*
X35619322Y6073347D01*
X35655480Y6133133D01*
X35700206Y6159375D01*
X35719120Y6165643D01*
X35719124Y6165644D01*
X35868345Y6257685D01*
X35992315Y6381655D01*
X36084357Y6530877D01*
X36084358Y6530881D01*
X36139505Y6697303D01*
X36139506Y6697310D01*
X36149999Y6800014D01*
X36150000Y6800027D01*
X36150000Y6950000D01*
X35200000Y6950000D01*
X35200000Y6100001D01*
X35216857Y6083144D01*
X35226486Y6080316D01*
X35272241Y6027512D01*
X35282185Y5958354D01*
X35256741Y5899125D01*
X35240866Y5879035D01*
X35230859Y5874616D01*
X35155384Y5799141D01*
X35127068Y5735013D01*
X35117293Y5722641D01*
X35101128Y5711187D01*
X35088345Y5696053D01*
X35073206Y5691401D01*
X35060285Y5682244D01*
X35040495Y5681347D01*
X35021559Y5675527D01*
X35006308Y5679798D01*
X34990487Y5679080D01*
X34973354Y5689025D01*
X34954277Y5694366D01*
X34943756Y5706204D01*
X34930059Y5714154D01*
X34921021Y5731785D01*
X34907862Y5746591D01*
X34906590Y5749376D01*
X34885590Y5796936D01*
X34884617Y5799139D01*
X34884616Y5799140D01*
X34884616Y5799141D01*
X34809833Y5873924D01*
X34776350Y5935247D01*
X34781334Y6004938D01*
X34782947Y6009037D01*
X34785500Y6015200D01*
X34785500Y6124800D01*
X34743557Y6226058D01*
X34736319Y6233296D01*
X34702834Y6294619D01*
X34700000Y6320977D01*
X34700000Y7076000D01*
X34719685Y7143039D01*
X34772489Y7188794D01*
X34824000Y7200000D01*
X34950000Y7200000D01*
X34950000Y7326000D01*
X34969685Y7393039D01*
X35022489Y7438794D01*
X35074000Y7450000D01*
X36149999Y7450000D01*
X36149999Y7599972D01*
X36149998Y7599987D01*
X36139505Y7702698D01*
X36084358Y7869120D01*
X36084356Y7869125D01*
X35992315Y8018346D01*
X35868345Y8142316D01*
X35793221Y8188653D01*
X35746496Y8240601D01*
X35735275Y8309564D01*
X35747832Y8350484D01*
X35785646Y8424696D01*
X35785646Y8424698D01*
X35785647Y8424699D01*
X35797652Y8500500D01*
X35800500Y8518481D01*
X35800499Y9281518D01*
X35785646Y9375304D01*
X35728050Y9488342D01*
X35728046Y9488346D01*
X35728045Y9488348D01*
X35684699Y9531694D01*
X35651214Y9593017D01*
X35656198Y9662709D01*
X35698070Y9718642D01*
X35754975Y9740091D01*
X35754679Y9741716D01*
X35760903Y9742853D01*
X35916196Y9787970D01*
X36055374Y9870279D01*
X36055383Y9870286D01*
X36169714Y9984617D01*
X36169721Y9984626D01*
X36252030Y10123804D01*
X36264551Y10166902D01*
X36284101Y10300000D01*
X35644000Y10300000D01*
X35576961Y10319685D01*
X35531206Y10372489D01*
X35520000Y10424000D01*
X35520000Y10550000D01*
X35394000Y10550000D01*
X35326961Y10569685D01*
X35281206Y10622489D01*
X35270000Y10674000D01*
X35270000Y10800000D01*
X35770000Y10800000D01*
X36298790Y10800000D01*
X36297145Y10820911D01*
X36252032Y10976195D01*
X36245715Y10986875D01*
X36228530Y11054598D01*
X36245715Y11113125D01*
X36252031Y11123805D01*
X36297145Y11279090D01*
X36298790Y11300000D01*
X35770000Y11300000D01*
X35770000Y10800000D01*
X35270000Y10800000D01*
X35270000Y11426000D01*
X35289685Y11493039D01*
X35342489Y11538794D01*
X35394000Y11550000D01*
X35520000Y11550000D01*
X35520000Y11676000D01*
X35539685Y11743039D01*
X35592489Y11788794D01*
X35644000Y11800000D01*
X36298790Y11800000D01*
X36297145Y11820911D01*
X36252031Y11976196D01*
X36169721Y12115375D01*
X36169714Y12115384D01*
X36055378Y12229720D01*
X36011377Y12255742D01*
X35963694Y12306811D01*
X35950499Y12362470D01*
X35950499Y12777622D01*
X35947730Y12801498D01*
X35947729Y12801501D01*
X35904619Y12899136D01*
X35904617Y12899139D01*
X35904616Y12899141D01*
X35829141Y12974616D01*
X35829139Y12974617D01*
X35829138Y12974618D01*
X35799412Y12987743D01*
X35785208Y12999741D01*
X35768297Y13007464D01*
X35759072Y13021819D01*
X35746036Y13032830D01*
X35740573Y13050603D01*
X35730523Y13066242D01*
X35725912Y13098307D01*
X35725510Y13099617D01*
X35725500Y13101177D01*
X35725500Y13199827D01*
X35734940Y13247281D01*
X35738576Y13256058D01*
X35775500Y13345200D01*
X35775500Y13454800D01*
X35733557Y13556058D01*
X35656058Y13633557D01*
X35554800Y13675500D01*
X35445200Y13675500D01*
X35445199Y13675500D01*
X35343940Y13633556D01*
X35266444Y13556060D01*
X35224500Y13454801D01*
X35224500Y13345202D01*
X35224501Y13345196D01*
X35253784Y13274503D01*
X35261423Y13256060D01*
X35265060Y13247281D01*
X35266686Y13239104D01*
X35269477Y13234762D01*
X35274500Y13199827D01*
X35274500Y13069620D01*
X35254815Y13002581D01*
X35238182Y12981939D01*
X35155384Y12899141D01*
X35155380Y12899134D01*
X35133432Y12849429D01*
X35088345Y12796053D01*
X35021559Y12775527D01*
X34954277Y12794366D01*
X34907862Y12846591D01*
X34906590Y12849376D01*
X34884616Y12899141D01*
X34809141Y12974616D01*
X34809138Y12974617D01*
X34809136Y12974619D01*
X34711500Y13017730D01*
X34711501Y13017730D01*
X34687623Y13020500D01*
X34332384Y13020500D01*
X34332361Y13020498D01*
X34308504Y13017731D01*
X34308501Y13017731D01*
X34210864Y12974620D01*
X34210856Y12974614D01*
X34135386Y12899144D01*
X34135381Y12899137D01*
X34092270Y12801501D01*
X34089500Y12777625D01*
X34089500Y12322385D01*
X34089502Y12322362D01*
X34092269Y12298505D01*
X34092269Y12298502D01*
X34135380Y12200865D01*
X34135386Y12200857D01*
X34218984Y12117259D01*
X34217602Y12115878D01*
X34217829Y12115599D01*
X34230345Y12107946D01*
X34239477Y12089077D01*
X34252735Y12072835D01*
X34254394Y12058259D01*
X34260785Y12045055D01*
X34258266Y12024244D01*
X34260638Y12003414D01*
X34254005Y11989025D01*
X34252392Y11975692D01*
X34238226Y11954794D01*
X34233980Y11945581D01*
X34230262Y11941092D01*
X34176187Y11887016D01*
X34165565Y11862961D01*
X34154589Y11849705D01*
X34139316Y11839400D01*
X34127427Y11825325D01*
X34110956Y11820264D01*
X34096671Y11810624D01*
X34078249Y11810212D01*
X34060640Y11804800D01*
X34044047Y11809447D01*
X34026818Y11809061D01*
X34011098Y11818674D01*
X33993358Y11823641D01*
X33981911Y11836521D01*
X33967210Y11845510D01*
X33959182Y11862096D01*
X33946944Y11875866D01*
X33940006Y11894195D01*
X33912407Y11989189D01*
X33912406Y11989192D01*
X33830738Y12127286D01*
X33830731Y12127295D01*
X33717294Y12240732D01*
X33717285Y12240739D01*
X33671378Y12267888D01*
X33623694Y12318957D01*
X33610499Y12374617D01*
X33610499Y12777622D01*
X33607730Y12801498D01*
X33607729Y12801501D01*
X33564619Y12899136D01*
X33564617Y12899139D01*
X33564616Y12899141D01*
X33489141Y12974616D01*
X33489140Y12974617D01*
X33489139Y12974618D01*
X33479663Y12981109D01*
X33481490Y12983777D01*
X33468297Y12989802D01*
X33459017Y13004241D01*
X33445925Y13015337D01*
X33440520Y13033024D01*
X33430523Y13048580D01*
X33425862Y13080994D01*
X33425507Y13082157D01*
X33425500Y13083515D01*
X33425500Y13199827D01*
X33434940Y13247281D01*
X33438576Y13256058D01*
X33475500Y13345200D01*
X33475500Y13454800D01*
X33433557Y13556058D01*
X33356058Y13633557D01*
X33254800Y13675500D01*
X33145200Y13675500D01*
X33145199Y13675500D01*
X33043940Y13633556D01*
X32966444Y13556060D01*
X32924500Y13454801D01*
X32924500Y13345202D01*
X32924501Y13345196D01*
X32953784Y13274503D01*
X32961423Y13256060D01*
X32965060Y13247281D01*
X32966686Y13239104D01*
X32969477Y13234762D01*
X32974500Y13199827D01*
X32974500Y13092346D01*
X32954815Y13025307D01*
X32902011Y12979552D01*
X32900589Y12978913D01*
X32890860Y12974617D01*
X32815384Y12899141D01*
X32815380Y12899134D01*
X32793432Y12849429D01*
X32748345Y12796053D01*
X32681559Y12775527D01*
X32614277Y12794366D01*
X32567862Y12846591D01*
X32566590Y12849376D01*
X32544616Y12899141D01*
X32469141Y12974616D01*
X32469138Y12974617D01*
X32469136Y12974619D01*
X32371500Y13017730D01*
X32371501Y13017730D01*
X32347623Y13020500D01*
X31992384Y13020500D01*
X31992361Y13020498D01*
X31968504Y13017731D01*
X31968501Y13017731D01*
X31870864Y12974620D01*
X31870856Y12974614D01*
X31795386Y12899144D01*
X31795381Y12899137D01*
X31752270Y12801501D01*
X31749500Y12777625D01*
X31749500Y12322385D01*
X31749502Y12322362D01*
X31752269Y12298505D01*
X31752269Y12298502D01*
X31795380Y12200865D01*
X31795386Y12200857D01*
X31858562Y12137681D01*
X31892047Y12076358D01*
X31887063Y12006666D01*
X31858562Y11962319D01*
X31795386Y11899144D01*
X31795381Y11899137D01*
X31752270Y11801501D01*
X31749822Y11792501D01*
X31748102Y11792969D01*
X31725189Y11738954D01*
X31714455Y11729219D01*
X31715062Y11728612D01*
X31010025Y11023576D01*
X31010024Y11023575D01*
X30979500Y10949884D01*
X30979500Y10924500D01*
X30959815Y10857461D01*
X30907011Y10811706D01*
X30855500Y10800500D01*
X30537000Y10800500D01*
X30528314Y10803051D01*
X30519353Y10801762D01*
X30495312Y10812741D01*
X30469961Y10820185D01*
X30464033Y10827026D01*
X30455797Y10830787D01*
X30441507Y10853022D01*
X30424206Y10872989D01*
X30421918Y10883504D01*
X30418023Y10889565D01*
X30413000Y10924500D01*
X30413000Y11024332D01*
X30432685Y11091371D01*
X30485489Y11137126D01*
X30489520Y11138882D01*
X30556058Y11166443D01*
X30633557Y11243942D01*
X30675500Y11345200D01*
X30675500Y11454800D01*
X30633557Y11556058D01*
X30556058Y11633557D01*
X30454800Y11675500D01*
X30345200Y11675500D01*
X30345199Y11675500D01*
X30243940Y11633556D01*
X30166444Y11556060D01*
X30166443Y11556059D01*
X30166443Y11556058D01*
X30159975Y11540444D01*
X30124500Y11454801D01*
X30122118Y11442823D01*
X30119766Y11443291D01*
X30104815Y11392373D01*
X30088181Y11371731D01*
X30042525Y11326076D01*
X30042524Y11326075D01*
X30012000Y11252384D01*
X30012000Y10924500D01*
X29992315Y10857461D01*
X29939511Y10811706D01*
X29888000Y10800500D01*
X29527791Y10800500D01*
X29462013Y10787417D01*
X29462011Y10787416D01*
X29396432Y10743597D01*
X29396431Y10743597D01*
X29387423Y10737577D01*
X29337583Y10662986D01*
X29325345Y10601461D01*
X29325344Y10601458D01*
X29324500Y10597212D01*
X29324500Y10402793D01*
X29337583Y10337014D01*
X29337584Y10337012D01*
X29344043Y10327346D01*
X29346317Y10323942D01*
X29349692Y10318892D01*
X29370570Y10252215D01*
X29352086Y10184835D01*
X29349693Y10181111D01*
X29337583Y10162988D01*
X29324500Y10097210D01*
X29324500Y9902793D01*
X29337583Y9837014D01*
X29337584Y9837012D01*
X29349692Y9818892D01*
X29370570Y9752215D01*
X29352086Y9684835D01*
X29349693Y9681111D01*
X29337583Y9662988D01*
X29324500Y9597210D01*
X29324500Y9402793D01*
X29337583Y9337014D01*
X29337584Y9337013D01*
X29349693Y9318890D01*
X29353692Y9306116D01*
X29361918Y9295557D01*
X29363929Y9273423D01*
X29370570Y9252212D01*
X29367168Y9237772D01*
X29368240Y9225974D01*
X29359286Y9204316D01*
X29356544Y9192674D01*
X29353433Y9186709D01*
X29337583Y9162986D01*
X29335434Y9152186D01*
X29327231Y9136450D01*
X29314802Y9123535D01*
X29306493Y9107657D01*
X29286264Y9093880D01*
X29278783Y9086105D01*
X29272741Y9084669D01*
X29264740Y9079219D01*
X29260025Y9077266D01*
X29260022Y9077265D01*
X29139905Y8985095D01*
X29047736Y8864979D01*
X28989801Y8725109D01*
X28989800Y8725104D01*
X28979911Y8650001D01*
X28979912Y8650000D01*
X30088500Y8650000D01*
X30097185Y8647450D01*
X30106147Y8648738D01*
X30130187Y8637760D01*
X30155539Y8630315D01*
X30161466Y8623475D01*
X30169703Y8619713D01*
X30183992Y8597479D01*
X30201294Y8577511D01*
X30203581Y8566997D01*
X30207477Y8560935D01*
X30212500Y8526000D01*
X30212500Y8474000D01*
X30192815Y8406961D01*
X30140011Y8361206D01*
X30088500Y8350000D01*
X28979912Y8350000D01*
X28989800Y8274897D01*
X28989801Y8274892D01*
X29047736Y8135022D01*
X29139905Y8014906D01*
X29260021Y7922738D01*
X29264725Y7920789D01*
X29319131Y7876951D01*
X29327233Y7863549D01*
X29335434Y7847818D01*
X29337583Y7837014D01*
X29353434Y7813291D01*
X29356545Y7807324D01*
X29362061Y7779388D01*
X29370570Y7752215D01*
X29368742Y7745555D01*
X29370081Y7738778D01*
X29359618Y7712296D01*
X29352086Y7684835D01*
X29349693Y7681111D01*
X29337583Y7662988D01*
X29324500Y7597210D01*
X29324500Y7402793D01*
X29337583Y7337014D01*
X29337584Y7337012D01*
X29349692Y7318892D01*
X29370570Y7252215D01*
X29352086Y7184835D01*
X29349693Y7181111D01*
X29337583Y7162988D01*
X29330684Y7128303D01*
X29325214Y7100798D01*
X29324500Y7097210D01*
X29324500Y6902793D01*
X29337451Y6837678D01*
X29337583Y6837014D01*
X29349690Y6818894D01*
X29349692Y6818892D01*
X29370570Y6752215D01*
X29352086Y6684835D01*
X29349693Y6681111D01*
X29337583Y6662988D01*
X29324500Y6597210D01*
X29324500Y6402793D01*
X29337583Y6337014D01*
X29337584Y6337012D01*
X29342268Y6330002D01*
X29349690Y6318894D01*
X29349692Y6318892D01*
X29370570Y6252215D01*
X29352086Y6184835D01*
X29349693Y6181111D01*
X29337583Y6162988D01*
X29324500Y6097210D01*
X29324500Y5902793D01*
X29331320Y5868504D01*
X29337583Y5837014D01*
X29349364Y5819382D01*
X29349692Y5818892D01*
X29370570Y5752215D01*
X29352086Y5684835D01*
X29349693Y5681111D01*
X29337583Y5662988D01*
X29333688Y5643406D01*
X29324615Y5597786D01*
X29324500Y5597210D01*
X29324500Y5402793D01*
X29337583Y5337014D01*
X29337584Y5337012D01*
X29349692Y5318892D01*
X29370570Y5252215D01*
X29352086Y5184835D01*
X29349693Y5181111D01*
X29337583Y5162988D01*
X29335679Y5153413D01*
X29324615Y5097786D01*
X29324500Y5097210D01*
X29324500Y4902793D01*
X29335100Y4849500D01*
X29337583Y4837014D01*
X29387423Y4762423D01*
X29435548Y4730267D01*
X29462012Y4712584D01*
X29462014Y4712583D01*
X29527789Y4699500D01*
X30142732Y4699501D01*
X30209771Y4679817D01*
X30230413Y4663182D01*
X30508181Y4385414D01*
X30541666Y4324091D01*
X30544500Y4297733D01*
X30544500Y3838380D01*
X30524815Y3771341D01*
X30472011Y3725586D01*
X30402853Y3715642D01*
X30352769Y3736892D01*
X30352093Y3735748D01*
X30206193Y3822033D01*
X30206190Y3822035D01*
X30060001Y3864507D01*
X30060000Y3864506D01*
X30060000Y3184000D01*
X30040315Y3116961D01*
X29987511Y3071206D01*
X29936000Y3060000D01*
X29684000Y3060000D01*
X29616961Y3079685D01*
X29571206Y3132489D01*
X29560000Y3184000D01*
X29560000Y3864506D01*
X29559998Y3864507D01*
X29413809Y3822035D01*
X29413806Y3822033D01*
X29287620Y3747407D01*
X29219896Y3730224D01*
X29153633Y3752384D01*
X29109870Y3806850D01*
X29100499Y3854139D01*
X29100499Y4272209D01*
X29100499Y4272211D01*
X29087417Y4337986D01*
X29037577Y4412577D01*
X28962986Y4462417D01*
X28962985Y4462418D01*
X28962984Y4462418D01*
X28951700Y4467092D01*
X28952845Y4469859D01*
X28907661Y4493501D01*
X28879212Y4535272D01*
X28877261Y4539981D01*
X28785094Y4660095D01*
X28664978Y4752264D01*
X28525108Y4810199D01*
X28525103Y4810200D01*
X28450000Y4820089D01*
X28450000Y2354914D01*
X28450001Y2354913D01*
X28525096Y2364798D01*
X28532951Y2366903D01*
X28533679Y2364187D01*
X28539971Y2364864D01*
X28558711Y2371854D01*
X28574002Y2368529D01*
X28589557Y2370203D01*
X28607440Y2361256D01*
X28626985Y2357004D01*
X28649256Y2340333D01*
X28652042Y2338939D01*
X28655240Y2335854D01*
X28672264Y2318830D01*
X28672265Y2318830D01*
X28689705Y2301390D01*
X28689706Y2301389D01*
X28878913Y2112181D01*
X28912398Y2050858D01*
X28907414Y1981166D01*
X28865542Y1925233D01*
X28800078Y1900816D01*
X28791232Y1900500D01*
X28084413Y1900500D01*
X28017374Y1920185D01*
X27996732Y1936819D01*
X27423077Y2510474D01*
X27389592Y2571797D01*
X27394576Y2641489D01*
X27436448Y2697422D01*
X27447178Y2704615D01*
X27459288Y2711848D01*
X27462986Y2712583D01*
X27483741Y2726452D01*
X27486420Y2728051D01*
X27517333Y2736036D01*
X27547785Y2745571D01*
X27550921Y2744711D01*
X27554070Y2745524D01*
X27584388Y2735530D01*
X27615165Y2727087D01*
X27618880Y2724700D01*
X27619179Y2724500D01*
X27637014Y2712583D01*
X27648296Y2707910D01*
X27647148Y2705141D01*
X27692312Y2681526D01*
X27720786Y2639731D01*
X27722736Y2635022D01*
X27814905Y2514906D01*
X27935021Y2422737D01*
X28074896Y2364800D01*
X28074901Y2364799D01*
X28149998Y2354913D01*
X28150000Y2354914D01*
X28150000Y4820089D01*
X28149999Y4820089D01*
X28074896Y4810200D01*
X28074891Y4810199D01*
X27935021Y4752264D01*
X27814905Y4660095D01*
X27722737Y4539979D01*
X27720782Y4535260D01*
X27676936Y4480860D01*
X27663550Y4472769D01*
X27647813Y4464565D01*
X27637014Y4462417D01*
X27613294Y4446569D01*
X27607325Y4443456D01*
X27579388Y4437939D01*
X27552214Y4429430D01*
X27545554Y4431257D01*
X27538779Y4429919D01*
X27512295Y4440381D01*
X27484834Y4447914D01*
X27481109Y4450308D01*
X27462987Y4462417D01*
X27425571Y4469859D01*
X27397211Y4475500D01*
X27397209Y4475500D01*
X27202792Y4475500D01*
X27137013Y4462417D01*
X27137012Y4462416D01*
X27118890Y4450307D01*
X27052212Y4429430D01*
X26984832Y4447915D01*
X26981109Y4450308D01*
X26962987Y4462417D01*
X26925571Y4469859D01*
X26897211Y4475500D01*
X26897209Y4475500D01*
X26702792Y4475500D01*
X26637013Y4462417D01*
X26637012Y4462416D01*
X26618890Y4450307D01*
X26552212Y4429430D01*
X26484832Y4447915D01*
X26481109Y4450308D01*
X26462987Y4462417D01*
X26425571Y4469859D01*
X26397211Y4475500D01*
X26397209Y4475500D01*
X26202792Y4475500D01*
X26137013Y4462417D01*
X26137012Y4462416D01*
X26118890Y4450307D01*
X26052212Y4429430D01*
X25984832Y4447915D01*
X25981109Y4450308D01*
X25962987Y4462417D01*
X25925571Y4469859D01*
X25897211Y4475500D01*
X25897209Y4475500D01*
X25702792Y4475500D01*
X25637013Y4462417D01*
X25637012Y4462416D01*
X25618890Y4450307D01*
X25552212Y4429430D01*
X25484832Y4447915D01*
X25481109Y4450308D01*
X25462987Y4462417D01*
X25425571Y4469859D01*
X25397211Y4475500D01*
X25397209Y4475500D01*
X25202792Y4475500D01*
X25137013Y4462417D01*
X25137012Y4462416D01*
X25118890Y4450307D01*
X25052212Y4429430D01*
X24984832Y4447915D01*
X24981109Y4450308D01*
X24962987Y4462417D01*
X24925571Y4469859D01*
X24897211Y4475500D01*
X24897209Y4475500D01*
X24702792Y4475500D01*
X24637013Y4462417D01*
X24637012Y4462416D01*
X24618890Y4450307D01*
X24552212Y4429430D01*
X24484832Y4447915D01*
X24481109Y4450308D01*
X24462987Y4462417D01*
X24425571Y4469859D01*
X24397211Y4475500D01*
X24397209Y4475500D01*
X24202791Y4475500D01*
X24202790Y4475499D01*
X24192376Y4473428D01*
X24122785Y4479660D01*
X24067610Y4522526D01*
X24053632Y4547593D01*
X24033557Y4596058D01*
X23956058Y4673557D01*
X23854800Y4715500D01*
X23745200Y4715500D01*
X23745199Y4715500D01*
X23679672Y4688357D01*
X23646224Y4674502D01*
X23643940Y4673556D01*
X23566444Y4596060D01*
X23566442Y4596057D01*
X23546367Y4547593D01*
X23502525Y4493190D01*
X23436230Y4471127D01*
X23407618Y4473430D01*
X23397211Y4475500D01*
X23397209Y4475500D01*
X23202792Y4475500D01*
X23137013Y4462417D01*
X23137011Y4462416D01*
X23062423Y4412577D01*
X23012583Y4337988D01*
X23009446Y4322215D01*
X23000266Y4276059D01*
X22999500Y4272210D01*
X22999500Y2902792D01*
X23012583Y2837014D01*
X23017258Y2825728D01*
X23014313Y2824509D01*
X23017954Y2812877D01*
X23029050Y2783130D01*
X23028318Y2779768D01*
X23029346Y2776486D01*
X23020946Y2745876D01*
X23014199Y2714856D01*
X23011413Y2711135D01*
X23010857Y2709107D01*
X22993049Y2686602D01*
X22943270Y2636821D01*
X22881948Y2603334D01*
X22855587Y2600500D01*
X22277508Y2600500D01*
X22210469Y2620185D01*
X22164714Y2672989D01*
X22154770Y2742147D01*
X22158431Y2759094D01*
X22164505Y2780000D01*
X21610000Y2780000D01*
X21610000Y2724500D01*
X21607449Y2715815D01*
X21608738Y2706853D01*
X21597759Y2682813D01*
X21590315Y2657461D01*
X21583474Y2651534D01*
X21579713Y2643297D01*
X21557478Y2629008D01*
X21537511Y2611706D01*
X21526996Y2609419D01*
X21520935Y2605523D01*
X21486000Y2600500D01*
X21264412Y2600500D01*
X21197373Y2620185D01*
X21176729Y2636820D01*
X21146317Y2667233D01*
X21112833Y2728557D01*
X21110000Y2754913D01*
X21110000Y2780000D01*
X21084912Y2780000D01*
X21055471Y2788645D01*
X21025485Y2795168D01*
X21020469Y2798923D01*
X21017873Y2799685D01*
X20997231Y2816319D01*
X20966819Y2846731D01*
X20933334Y2908054D01*
X20930500Y2934412D01*
X20930500Y3156000D01*
X20950185Y3223039D01*
X21002989Y3268794D01*
X21054500Y3280000D01*
X22164504Y3280000D01*
X22122031Y3426196D01*
X22039839Y3565176D01*
X22022656Y3632900D01*
X22044816Y3699163D01*
X22099116Y3742857D01*
X22156058Y3766443D01*
X22233557Y3843942D01*
X22275500Y3945200D01*
X22275500Y4054800D01*
X22233557Y4156058D01*
X22156058Y4233557D01*
X22054800Y4275500D01*
X21945200Y4275500D01*
X21945197Y4275500D01*
X21915772Y4263311D01*
X21895894Y4261174D01*
X21877165Y4254188D01*
X21861868Y4257516D01*
X21846302Y4255842D01*
X21828424Y4264791D01*
X21808892Y4269040D01*
X21786603Y4285726D01*
X21783823Y4287117D01*
X21780638Y4290191D01*
X21726297Y4344532D01*
X21692812Y4405855D01*
X21697796Y4475547D01*
X21726293Y4519890D01*
X21869588Y4663185D01*
X21930909Y4696667D01*
X21957267Y4699501D01*
X22572208Y4699501D01*
X22572210Y4699501D01*
X22637986Y4712583D01*
X22712577Y4762423D01*
X22762417Y4837014D01*
X22762417Y4837016D01*
X22767090Y4848296D01*
X22769857Y4847150D01*
X22793487Y4892326D01*
X22835271Y4920788D01*
X22839981Y4922740D01*
X22960094Y5014906D01*
X23052263Y5135022D01*
X23110198Y5274892D01*
X23110199Y5274897D01*
X23120088Y5350000D01*
X22011500Y5350000D01*
X22002814Y5352551D01*
X21993853Y5351262D01*
X21969812Y5362241D01*
X21944461Y5369685D01*
X21938533Y5376526D01*
X21930297Y5380287D01*
X21916007Y5402522D01*
X21898706Y5422489D01*
X21896418Y5433004D01*
X21892523Y5439065D01*
X21887500Y5474000D01*
X21887500Y5526000D01*
X21907185Y5593039D01*
X21959989Y5638794D01*
X22011500Y5650000D01*
X23120088Y5650000D01*
X23120088Y5650001D01*
X23110199Y5725104D01*
X23110198Y5725109D01*
X23052263Y5864979D01*
X22960094Y5985095D01*
X22839976Y6077265D01*
X22835270Y6079214D01*
X22780866Y6123054D01*
X22772768Y6136450D01*
X22764565Y6152183D01*
X22762417Y6162986D01*
X22746563Y6186713D01*
X22743455Y6192675D01*
X22737937Y6220613D01*
X22729429Y6247785D01*
X22731256Y6254446D01*
X22729918Y6261221D01*
X22740380Y6287707D01*
X22747913Y6315165D01*
X22750308Y6318892D01*
X22762417Y6337014D01*
X22775500Y6402789D01*
X22775499Y6597210D01*
X22762417Y6662986D01*
X22762415Y6662988D01*
X22762415Y6662990D01*
X22750308Y6681108D01*
X22729429Y6747785D01*
X22747913Y6815165D01*
X22750308Y6818892D01*
X22762417Y6837014D01*
X22775500Y6902789D01*
X22775499Y7097210D01*
X22775499Y7097211D01*
X22775499Y7100499D01*
X22795183Y7167539D01*
X22847987Y7213294D01*
X22899499Y7224500D01*
X22904799Y7224500D01*
X22904800Y7224500D01*
X23006058Y7266443D01*
X23083557Y7343942D01*
X23125500Y7445200D01*
X23125500Y7554800D01*
X23083557Y7656058D01*
X23006058Y7733557D01*
X22904800Y7775500D01*
X22899500Y7775500D01*
X22832461Y7795185D01*
X22786706Y7847989D01*
X22775500Y7899499D01*
X22775499Y8097208D01*
X22775499Y8097210D01*
X22762417Y8162986D01*
X22762415Y8162988D01*
X22762415Y8162990D01*
X22750308Y8181108D01*
X22729429Y8247785D01*
X22747913Y8315165D01*
X22750293Y8318870D01*
X22762417Y8337014D01*
X22775500Y8402789D01*
X22775499Y8597210D01*
X22762417Y8662986D01*
X22762415Y8662988D01*
X22762415Y8662990D01*
X22750308Y8681108D01*
X22729429Y8747785D01*
X22747913Y8815165D01*
X22750308Y8818892D01*
X22762417Y8837014D01*
X22775500Y8902789D01*
X22775499Y9097210D01*
X22775499Y9097211D01*
X22775499Y9100499D01*
X22795183Y9167539D01*
X22847987Y9213294D01*
X22899499Y9224500D01*
X22914799Y9224500D01*
X22914800Y9224500D01*
X23016058Y9266443D01*
X23093557Y9343942D01*
X23135500Y9445200D01*
X23135500Y9554800D01*
X23093557Y9656058D01*
X23087296Y9662319D01*
X23053811Y9723642D01*
X23058795Y9793334D01*
X23087296Y9837681D01*
X23093557Y9843942D01*
X23135500Y9945200D01*
X23135500Y10054800D01*
X23093557Y10156058D01*
X23016058Y10233557D01*
X22914800Y10275500D01*
X22899500Y10275500D01*
X22832461Y10295185D01*
X22786706Y10347989D01*
X22775500Y10399499D01*
X22775499Y10498738D01*
X22775499Y10597210D01*
X22762417Y10662986D01*
X22712577Y10737577D01*
X22673972Y10763372D01*
X22637987Y10787417D01*
X22604985Y10793981D01*
X22572211Y10800500D01*
X22572209Y10800500D01*
X21202791Y10800500D01*
X21202785Y10800499D01*
X21138686Y10787751D01*
X21069095Y10793981D01*
X21013919Y10836846D01*
X20990677Y10902737D01*
X20990500Y10909369D01*
X20990500Y11506338D01*
X21010185Y11573377D01*
X21040048Y11605499D01*
X21080000Y11635496D01*
X21080000Y13244506D01*
X21580000Y13244506D01*
X21580000Y11635497D01*
X21726195Y11677969D01*
X21865374Y11760279D01*
X21865383Y11760286D01*
X21979714Y11874617D01*
X21979719Y11874623D01*
X22005737Y11918619D01*
X22056805Y11966304D01*
X22112466Y11979501D01*
X22473372Y11979501D01*
X22497662Y11982318D01*
X22597016Y12026187D01*
X22644531Y12073702D01*
X22652476Y12078041D01*
X22657902Y12085288D01*
X22682661Y12094523D01*
X22705854Y12107187D01*
X22714883Y12106542D01*
X22723366Y12109705D01*
X22749186Y12104089D01*
X22775546Y12102203D01*
X22784599Y12096385D01*
X22791639Y12094853D01*
X22819893Y12073702D01*
X22963181Y11930414D01*
X22996666Y11869091D01*
X22999500Y11842733D01*
X22999500Y11227792D01*
X23012583Y11162014D01*
X23012584Y11162012D01*
X23028032Y11138893D01*
X23062423Y11087423D01*
X23133573Y11039882D01*
X23137014Y11037583D01*
X23148296Y11032910D01*
X23147148Y11030141D01*
X23192312Y11006526D01*
X23220786Y10964731D01*
X23222736Y10960022D01*
X23314905Y10839906D01*
X23435021Y10747737D01*
X23574896Y10689800D01*
X23574901Y10689799D01*
X23649998Y10679913D01*
X23650000Y10679914D01*
X23650000Y13145089D01*
X23950000Y13145089D01*
X23950000Y10679914D01*
X23950001Y10679913D01*
X24025098Y10689799D01*
X24025103Y10689800D01*
X24164978Y10747737D01*
X24285094Y10839906D01*
X24377262Y10960021D01*
X24379211Y10964725D01*
X24423049Y11019131D01*
X24436449Y11027232D01*
X24452181Y11035435D01*
X24462986Y11037583D01*
X24486715Y11053439D01*
X24492674Y11056545D01*
X24520609Y11062062D01*
X24547782Y11070571D01*
X24554443Y11068744D01*
X24561220Y11070082D01*
X24587703Y11059621D01*
X24615163Y11052088D01*
X24618891Y11049692D01*
X24637011Y11037584D01*
X24637013Y11037584D01*
X24637014Y11037583D01*
X24702789Y11024500D01*
X24897210Y11024501D01*
X24962986Y11037583D01*
X24981108Y11049693D01*
X25047782Y11070571D01*
X25115163Y11052088D01*
X25118891Y11049692D01*
X25137011Y11037584D01*
X25137013Y11037584D01*
X25137014Y11037583D01*
X25202789Y11024500D01*
X25397210Y11024501D01*
X25462986Y11037583D01*
X25481108Y11049693D01*
X25547782Y11070571D01*
X25615163Y11052088D01*
X25618891Y11049692D01*
X25637011Y11037584D01*
X25637013Y11037584D01*
X25637014Y11037583D01*
X25702789Y11024500D01*
X25897210Y11024501D01*
X25951314Y11035262D01*
X26020902Y11029033D01*
X26076079Y10986169D01*
X26099322Y10920279D01*
X26099500Y10913644D01*
X26099500Y10620117D01*
X26112143Y10589593D01*
X26130024Y10546426D01*
X26130025Y10546425D01*
X26130025Y10546424D01*
X26168180Y10508270D01*
X26201666Y10446947D01*
X26203420Y10430629D01*
X26204500Y10425202D01*
X26204500Y10425200D01*
X26246443Y10323942D01*
X26323942Y10246443D01*
X26425200Y10204500D01*
X26425201Y10204500D01*
X26534799Y10204500D01*
X26534800Y10204500D01*
X26636058Y10246443D01*
X26713557Y10323942D01*
X26755500Y10425200D01*
X26755500Y10534800D01*
X26713557Y10636058D01*
X26636058Y10713557D01*
X26631457Y10715463D01*
X26577045Y10738002D01*
X26561481Y10750545D01*
X26543297Y10758849D01*
X26534831Y10772022D01*
X26522643Y10781844D01*
X26516330Y10800810D01*
X26505523Y10817627D01*
X26501559Y10845192D01*
X26500579Y10848138D01*
X26500500Y10852562D01*
X26500500Y10913643D01*
X26520185Y10980682D01*
X26572989Y11026437D01*
X26642147Y11036381D01*
X26648691Y11035260D01*
X26674429Y11030141D01*
X26702789Y11024500D01*
X26897210Y11024501D01*
X26962986Y11037583D01*
X26981108Y11049693D01*
X27047782Y11070571D01*
X27115163Y11052088D01*
X27118891Y11049692D01*
X27137011Y11037584D01*
X27137013Y11037584D01*
X27137014Y11037583D01*
X27202789Y11024500D01*
X27397210Y11024501D01*
X27451314Y11035262D01*
X27520902Y11029033D01*
X27576079Y10986169D01*
X27599322Y10920279D01*
X27599500Y10913644D01*
X27599500Y10150117D01*
X27630024Y10076426D01*
X27678181Y10028269D01*
X27711666Y9966946D01*
X27713420Y9950629D01*
X27714500Y9945202D01*
X27714500Y9945200D01*
X27756443Y9843942D01*
X27833942Y9766443D01*
X27935200Y9724500D01*
X27935201Y9724500D01*
X28044799Y9724500D01*
X28044800Y9724500D01*
X28146058Y9766443D01*
X28223557Y9843942D01*
X28265500Y9945200D01*
X28265500Y10054800D01*
X28223557Y10156058D01*
X28146058Y10233557D01*
X28146057Y10233558D01*
X28146055Y10233559D01*
X28077046Y10262144D01*
X28022643Y10305985D01*
X28000579Y10372280D01*
X28000500Y10376704D01*
X28000500Y10913643D01*
X28020185Y10980682D01*
X28072989Y11026437D01*
X28142147Y11036381D01*
X28148691Y11035260D01*
X28174429Y11030141D01*
X28202789Y11024500D01*
X28397210Y11024501D01*
X28459660Y11036922D01*
X28491284Y11034091D01*
X28523001Y11032959D01*
X28525823Y11031000D01*
X28529247Y11030693D01*
X28554321Y11011214D01*
X28580395Y10993112D01*
X28582764Y10989119D01*
X28584423Y10987830D01*
X28598405Y10962759D01*
X28615060Y10922553D01*
X28624500Y10875098D01*
X28624500Y10845200D01*
X28666443Y10743942D01*
X28743942Y10666443D01*
X28845200Y10624500D01*
X28845201Y10624500D01*
X28954799Y10624500D01*
X28954800Y10624500D01*
X29056058Y10666443D01*
X29133557Y10743942D01*
X29175500Y10845200D01*
X29175500Y10954800D01*
X29133557Y11056058D01*
X29124359Y11065256D01*
X29090874Y11126579D01*
X29090423Y11177129D01*
X29091087Y11180467D01*
X29100500Y11227789D01*
X29100499Y12597210D01*
X29087417Y12662986D01*
X29037577Y12737577D01*
X28996643Y12764928D01*
X28962987Y12787417D01*
X28940000Y12791989D01*
X28897211Y12800500D01*
X28897209Y12800500D01*
X28702792Y12800500D01*
X28637013Y12787417D01*
X28637012Y12787416D01*
X28618890Y12775307D01*
X28552212Y12754430D01*
X28484832Y12772915D01*
X28481109Y12775308D01*
X28462987Y12787417D01*
X28440000Y12791989D01*
X28397211Y12800500D01*
X28397209Y12800500D01*
X28202792Y12800500D01*
X28137013Y12787417D01*
X28137012Y12787416D01*
X28118890Y12775307D01*
X28052212Y12754430D01*
X27984832Y12772915D01*
X27981109Y12775308D01*
X27962987Y12787417D01*
X27940000Y12791989D01*
X27897211Y12800500D01*
X27897209Y12800500D01*
X27702792Y12800500D01*
X27637013Y12787417D01*
X27637012Y12787416D01*
X27618890Y12775307D01*
X27552212Y12754430D01*
X27484832Y12772915D01*
X27481109Y12775308D01*
X27462987Y12787417D01*
X27440000Y12791989D01*
X27397211Y12800500D01*
X27397209Y12800500D01*
X27202792Y12800500D01*
X27137013Y12787417D01*
X27137012Y12787416D01*
X27118890Y12775307D01*
X27052212Y12754430D01*
X26984832Y12772915D01*
X26981109Y12775308D01*
X26962987Y12787417D01*
X26940000Y12791989D01*
X26897211Y12800500D01*
X26897209Y12800500D01*
X26702792Y12800500D01*
X26637013Y12787417D01*
X26637012Y12787416D01*
X26618890Y12775307D01*
X26552212Y12754430D01*
X26484832Y12772915D01*
X26481109Y12775308D01*
X26462987Y12787417D01*
X26440000Y12791989D01*
X26397211Y12800500D01*
X26397209Y12800500D01*
X26202792Y12800500D01*
X26137013Y12787417D01*
X26137012Y12787416D01*
X26118890Y12775307D01*
X26052212Y12754430D01*
X25984832Y12772915D01*
X25981109Y12775308D01*
X25962987Y12787417D01*
X25940000Y12791989D01*
X25897211Y12800500D01*
X25897209Y12800500D01*
X25702791Y12800500D01*
X25702789Y12800499D01*
X25648688Y12789739D01*
X25627705Y12791618D01*
X25606853Y12788619D01*
X25593602Y12794671D01*
X25579096Y12795969D01*
X25562460Y12808893D01*
X25543297Y12817644D01*
X25535422Y12829898D01*
X25523920Y12838833D01*
X25516912Y12858700D01*
X25505523Y12876422D01*
X25501987Y12901012D01*
X25500678Y12904724D01*
X25500500Y12911357D01*
X25500500Y12989523D01*
X25520185Y13056562D01*
X25530480Y13069339D01*
X25533552Y13073938D01*
X25533557Y13073942D01*
X25575500Y13175200D01*
X25575500Y13284800D01*
X25533557Y13386058D01*
X25456058Y13463557D01*
X25354800Y13505500D01*
X25245200Y13505500D01*
X25245199Y13505500D01*
X25181555Y13479137D01*
X25151359Y13466629D01*
X25143940Y13463556D01*
X25066444Y13386060D01*
X25066443Y13386059D01*
X25066443Y13386058D01*
X25064554Y13381498D01*
X25031497Y13301691D01*
X25024500Y13284800D01*
X25024500Y13175200D01*
X25066443Y13073942D01*
X25066444Y13073941D01*
X25073228Y13063788D01*
X25071234Y13062456D01*
X25077884Y13050277D01*
X25094477Y13024458D01*
X25095368Y13018258D01*
X25096666Y13015881D01*
X25099500Y12989523D01*
X25099500Y12911358D01*
X25079815Y12844319D01*
X25027011Y12798564D01*
X24957853Y12788620D01*
X24951311Y12789740D01*
X24897211Y12800500D01*
X24702792Y12800500D01*
X24637013Y12787417D01*
X24637009Y12787415D01*
X24618887Y12775306D01*
X24606115Y12771308D01*
X24595557Y12763082D01*
X24573419Y12761071D01*
X24552209Y12754430D01*
X24537769Y12757832D01*
X24525974Y12756760D01*
X24504319Y12765713D01*
X24492674Y12768456D01*
X24486708Y12771566D01*
X24462986Y12787417D01*
X24452183Y12789566D01*
X24436449Y12797769D01*
X24423537Y12810194D01*
X24407661Y12818501D01*
X24393884Y12838730D01*
X24386104Y12846216D01*
X24384666Y12852264D01*
X24379212Y12860272D01*
X24377261Y12864981D01*
X24285094Y12985095D01*
X24164978Y13077264D01*
X24025108Y13135199D01*
X24025103Y13135200D01*
X23950000Y13145089D01*
X23650000Y13145089D01*
X23649999Y13145089D01*
X23574896Y13135200D01*
X23574891Y13135199D01*
X23435021Y13077264D01*
X23314905Y12985095D01*
X23222737Y12864979D01*
X23220782Y12860260D01*
X23182854Y12810235D01*
X23159519Y12791893D01*
X23137014Y12787417D01*
X23062423Y12737577D01*
X23031455Y12691231D01*
X23031452Y12691228D01*
X23028114Y12686232D01*
X22974501Y12641427D01*
X22929898Y12635826D01*
X22928307Y12635189D01*
X22926935Y12635454D01*
X22905176Y12632721D01*
X22877564Y12640561D01*
X22875473Y12641427D01*
X22869097Y12644068D01*
X22869095Y12644070D01*
X22869095Y12644069D01*
X22817355Y12665501D01*
X22803850Y12665501D01*
X22786012Y12670739D01*
X22767419Y12670973D01*
X22753180Y12680380D01*
X22736811Y12685186D01*
X22724636Y12699236D01*
X22709122Y12709485D01*
X22691953Y12736955D01*
X22691056Y12737990D01*
X22690416Y12739414D01*
X22675293Y12773664D01*
X22666221Y12842943D01*
X22696044Y12906128D01*
X22701030Y12911416D01*
X22733557Y12943942D01*
X22775500Y13045200D01*
X22775500Y13154800D01*
X22733557Y13256058D01*
X22656058Y13333557D01*
X22554800Y13375500D01*
X22445200Y13375500D01*
X22445199Y13375500D01*
X22400873Y13357139D01*
X22349191Y13335731D01*
X22343940Y13333556D01*
X22266444Y13256060D01*
X22266441Y13256056D01*
X22225880Y13158135D01*
X22221249Y13151205D01*
X22220153Y13146164D01*
X22199004Y13117913D01*
X22199002Y13117909D01*
X22162265Y13081171D01*
X22120777Y13039683D01*
X22059454Y13006198D01*
X21989762Y13011182D01*
X21945415Y13039683D01*
X21865383Y13119715D01*
X21865374Y13119722D01*
X21726193Y13202033D01*
X21726190Y13202035D01*
X21580001Y13244507D01*
X21580000Y13244506D01*
X21080000Y13244506D01*
X21040048Y13274503D01*
X20998256Y13330497D01*
X20990500Y13373664D01*
X20990500Y13599881D01*
X20990499Y13599884D01*
X20976551Y13633557D01*
X20959976Y13673574D01*
X20903574Y13729976D01*
X20263574Y14369976D01*
X20245115Y14377622D01*
X20189883Y14400500D01*
X20177905Y14402882D01*
X20178619Y14406476D01*
X20131930Y14420185D01*
X20086175Y14472989D01*
X20085535Y14474413D01*
X20074618Y14499137D01*
X20074616Y14499140D01*
X20074616Y14499141D01*
X19999141Y14574616D01*
X19999138Y14574617D01*
X19999136Y14574619D01*
X19901500Y14617730D01*
X19901501Y14617730D01*
X19877623Y14620500D01*
X19422384Y14620500D01*
X19422361Y14620498D01*
X19398504Y14617731D01*
X19398501Y14617731D01*
X19300864Y14574620D01*
X19300856Y14574614D01*
X19217259Y14491016D01*
X19215759Y14492516D01*
X19173165Y14457752D01*
X19103744Y14449850D01*
X19041071Y14480736D01*
X19028411Y14495346D01*
X18949143Y14574614D01*
X18949141Y14574616D01*
X18949138Y14574617D01*
X18949136Y14574619D01*
X18851500Y14617730D01*
X18851501Y14617730D01*
X18827623Y14620500D01*
X18372384Y14620500D01*
X18372361Y14620498D01*
X18348504Y14617731D01*
X18348501Y14617731D01*
X18250864Y14574620D01*
X18250856Y14574614D01*
X18167259Y14491016D01*
X18165759Y14492516D01*
X18123165Y14457752D01*
X18053744Y14449850D01*
X17991071Y14480736D01*
X17978411Y14495346D01*
X17899143Y14574614D01*
X17899141Y14574616D01*
X17899138Y14574617D01*
X17899136Y14574619D01*
X17801500Y14617730D01*
X17801501Y14617730D01*
X17777623Y14620500D01*
X17322384Y14620500D01*
X17322361Y14620498D01*
X17298504Y14617731D01*
X17298501Y14617731D01*
X17200864Y14574620D01*
X17200856Y14574614D01*
X17125382Y14499140D01*
X17124471Y14497809D01*
X17122191Y14495949D01*
X17117259Y14491016D01*
X17116759Y14491516D01*
X17070342Y14453630D01*
X17000920Y14445728D01*
X16938247Y14476613D01*
X16928019Y14488417D01*
X16843829Y14572607D01*
X16843828Y14572608D01*
X16843825Y14572610D01*
X16843824Y14572610D01*
X16741910Y14617609D01*
X16716991Y14620500D01*
X16283016Y14620500D01*
X16279433Y14620292D01*
X16279369Y14621393D01*
X16215078Y14632450D01*
X16163553Y14679640D01*
X16162941Y14680662D01*
X16144184Y14712378D01*
X16127001Y14780102D01*
X16149161Y14846365D01*
X16203626Y14890128D01*
X16250916Y14899500D01*
X43973071Y14899500D01*
X43993907Y14899500D01*
X44006061Y14898903D01*
X44163335Y14883413D01*
X44187163Y14878674D01*
X44332544Y14834573D01*
X44354989Y14825276D01*
X44488967Y14753663D01*
X44509174Y14740161D01*
X44582919Y14679640D01*
X44626601Y14643792D01*
X44643791Y14626602D01*
X44740159Y14509176D01*
X44753663Y14488966D01*
X44772551Y14453630D01*
X44818861Y14366990D01*
X44825272Y14354997D01*
X44834575Y14332538D01*
X44878671Y14187170D01*
X44883413Y14163330D01*
X44897297Y14022362D01*
X44898903Y14006063D01*
X44899500Y13993908D01*
X44899500Y1006093D01*
X44898903Y993939D01*
X44898903Y993938D01*
X44883413Y836671D01*
X44878671Y812831D01*
X44834575Y667463D01*
X44825272Y645004D01*
X44753663Y511035D01*
X44740159Y490825D01*
X44643791Y373399D01*
X44626601Y356209D01*
X44509175Y259841D01*
X44488965Y246337D01*
X44354996Y174728D01*
X44332537Y165425D01*
X44187169Y121329D01*
X44163329Y116587D01*
X44047425Y105172D01*
X44006060Y101097D01*
X43993907Y100500D01*
X1006093Y100500D01*
X993939Y101097D01*
X836671Y116587D01*
X812830Y121329D01*
X667462Y165425D01*
X645005Y174727D01*
X511034Y246337D01*
X490824Y259841D01*
X373398Y356209D01*
X356208Y373399D01*
X259840Y490825D01*
X246336Y511035D01*
X234525Y533132D01*
X174724Y645011D01*
X165427Y667456D01*
X121326Y812837D01*
X116587Y836665D01*
X101097Y993939D01*
X100500Y1006093D01*
X100500Y3430001D01*
X1156115Y3430001D01*
X1156116Y3430000D01*
X1908012Y3430000D01*
X1890795Y3420060D01*
X1834940Y3364205D01*
X1795444Y3295796D01*
X1775000Y3219496D01*
X1775000Y3140504D01*
X1795444Y3064204D01*
X1834940Y2995795D01*
X1890795Y2939940D01*
X1908012Y2930000D01*
X1156116Y2930000D01*
X1161506Y2902900D01*
X1161507Y2902897D01*
X1233119Y2730009D01*
X1233124Y2730000D01*
X1337086Y2574411D01*
X1337089Y2574407D01*
X1469406Y2442090D01*
X1469410Y2442087D01*
X1624999Y2338125D01*
X1625008Y2338120D01*
X1797894Y2266509D01*
X1797902Y2266507D01*
X1981428Y2230001D01*
X1981431Y2230000D01*
X2475000Y2230000D01*
X2475000Y2880000D01*
X2975000Y2880000D01*
X2975000Y2230000D01*
X3468569Y2230000D01*
X3468571Y2230001D01*
X3652097Y2266507D01*
X3652105Y2266509D01*
X3824991Y2338120D01*
X3825000Y2338125D01*
X3980589Y2442087D01*
X3980593Y2442090D01*
X4112910Y2574407D01*
X4112913Y2574411D01*
X4216875Y2730000D01*
X4216880Y2730009D01*
X4288492Y2902897D01*
X4288493Y2902900D01*
X4293884Y2930000D01*
X5856116Y2930000D01*
X5861506Y2902900D01*
X5861507Y2902897D01*
X5933119Y2730009D01*
X5933124Y2730000D01*
X6037086Y2574411D01*
X6037089Y2574407D01*
X6169406Y2442090D01*
X6169410Y2442087D01*
X6324999Y2338125D01*
X6325012Y2338118D01*
X6497889Y2266511D01*
X6497896Y2266509D01*
X6525000Y2261118D01*
X6525000Y2930000D01*
X5856116Y2930000D01*
X4293884Y2930000D01*
X3541988Y2930000D01*
X3559205Y2939940D01*
X3615060Y2995795D01*
X3654556Y3064204D01*
X3675000Y3140504D01*
X3675000Y3219496D01*
X3654556Y3295796D01*
X3615060Y3364205D01*
X3559205Y3420060D01*
X3541988Y3430000D01*
X4293884Y3430000D01*
X4293884Y3430001D01*
X4288493Y3457101D01*
X4288492Y3457104D01*
X4216880Y3629992D01*
X4216875Y3630001D01*
X4112913Y3785590D01*
X4112910Y3785594D01*
X3980593Y3917911D01*
X3980589Y3917914D01*
X3825000Y4021876D01*
X3824991Y4021881D01*
X3652105Y4093492D01*
X3652097Y4093494D01*
X3468570Y4130000D01*
X2975000Y4130000D01*
X2975000Y3480000D01*
X2475000Y3480000D01*
X2475000Y4130000D01*
X1981430Y4130000D01*
X1797902Y4093494D01*
X1797894Y4093492D01*
X1625008Y4021881D01*
X1624999Y4021876D01*
X1469410Y3917914D01*
X1469406Y3917911D01*
X1337089Y3785594D01*
X1337086Y3785590D01*
X1233124Y3630001D01*
X1233119Y3629992D01*
X1161507Y3457104D01*
X1161506Y3457101D01*
X1156115Y3430001D01*
X100500Y3430001D01*
X100500Y12070001D01*
X1156115Y12070001D01*
X1156116Y12070000D01*
X1908012Y12070000D01*
X1890795Y12060060D01*
X1834940Y12004205D01*
X1795444Y11935796D01*
X1775000Y11859496D01*
X1775000Y11780504D01*
X1795444Y11704204D01*
X1834940Y11635795D01*
X1890795Y11579940D01*
X1908012Y11570000D01*
X1156116Y11570000D01*
X1161506Y11542900D01*
X1161507Y11542897D01*
X1233119Y11370009D01*
X1233124Y11370000D01*
X1337086Y11214411D01*
X1337089Y11214407D01*
X1469406Y11082090D01*
X1469410Y11082087D01*
X1624999Y10978125D01*
X1625008Y10978120D01*
X1797894Y10906509D01*
X1797902Y10906507D01*
X1981428Y10870001D01*
X1981431Y10870000D01*
X2475000Y10870000D01*
X2475000Y11520000D01*
X2975000Y11520000D01*
X2975000Y10870000D01*
X3468569Y10870000D01*
X3468571Y10870001D01*
X3652097Y10906507D01*
X3652105Y10906509D01*
X3824991Y10978120D01*
X3825000Y10978125D01*
X3980589Y11082087D01*
X3980593Y11082090D01*
X4112910Y11214407D01*
X4112913Y11214411D01*
X4216875Y11370000D01*
X4216880Y11370009D01*
X4288492Y11542897D01*
X4288493Y11542900D01*
X4293884Y11570000D01*
X3541988Y11570000D01*
X3559205Y11579940D01*
X3615060Y11635795D01*
X3654556Y11704204D01*
X3675000Y11780504D01*
X3675000Y11859496D01*
X3654556Y11935796D01*
X3615060Y12004205D01*
X3559205Y12060060D01*
X3541988Y12070000D01*
X4293884Y12070000D01*
X4293884Y12070001D01*
X5856115Y12070001D01*
X5856116Y12070000D01*
X6525000Y12070000D01*
X6525000Y12738884D01*
X6524999Y12738885D01*
X6497899Y12733494D01*
X6497896Y12733493D01*
X6325008Y12661881D01*
X6324999Y12661876D01*
X6169410Y12557914D01*
X6169406Y12557911D01*
X6037089Y12425594D01*
X6037086Y12425590D01*
X5933124Y12270001D01*
X5933119Y12269992D01*
X5861507Y12097104D01*
X5861506Y12097101D01*
X5856115Y12070001D01*
X4293884Y12070001D01*
X4288493Y12097101D01*
X4288492Y12097104D01*
X4216880Y12269992D01*
X4216875Y12270001D01*
X4112913Y12425590D01*
X4112910Y12425594D01*
X3980593Y12557911D01*
X3980589Y12557914D01*
X3825000Y12661876D01*
X3824991Y12661881D01*
X3652105Y12733492D01*
X3652097Y12733494D01*
X3468570Y12770000D01*
X2975000Y12770000D01*
X2975000Y12120000D01*
X2475000Y12120000D01*
X2475000Y12770000D01*
X1981430Y12770000D01*
X1797902Y12733494D01*
X1797894Y12733492D01*
X1625008Y12661881D01*
X1624999Y12661876D01*
X1469410Y12557914D01*
X1469406Y12557911D01*
X1337089Y12425594D01*
X1337086Y12425590D01*
X1233124Y12270001D01*
X1233119Y12269992D01*
X1161507Y12097104D01*
X1161506Y12097101D01*
X1156115Y12070001D01*
X100500Y12070001D01*
X100500Y13993908D01*
X101097Y14006062D01*
X102469Y14019991D01*
X116587Y14163340D01*
X121326Y14187162D01*
X165428Y14332549D01*
X174722Y14354986D01*
X246340Y14488973D01*
X259835Y14509170D01*
X356213Y14626608D01*
X373392Y14643787D01*
X490830Y14740165D01*
X511027Y14753660D01*
X645014Y14825278D01*
X667451Y14834572D01*
X812838Y14878674D01*
X836662Y14883413D01*
X993939Y14898903D01*
X1006093Y14899500D01*
X1026929Y14899500D01*
X14649084Y14899500D01*
X14716123Y14879815D01*
G37*
%TD.AperFunction*%
%TA.AperFunction,Conductor*%
G36*
X17692539Y8754815D02*
G01*
X17738294Y8702011D01*
X17749500Y8650500D01*
X17749500Y8583856D01*
X17753875Y8547426D01*
X17759640Y8499412D01*
X17812636Y8365024D01*
X17899921Y8249922D01*
X17988208Y8182972D01*
X18015025Y8162636D01*
X18039878Y8152835D01*
X18044286Y8151097D01*
X18099431Y8108192D01*
X18122625Y8042285D01*
X18106505Y7974300D01*
X18056189Y7925823D01*
X18028726Y7915408D01*
X17971483Y7901172D01*
X17971476Y7901169D01*
X17800977Y7816610D01*
X17800974Y7816608D01*
X17652633Y7697368D01*
X17652632Y7697367D01*
X17533392Y7549026D01*
X17533390Y7549023D01*
X17448831Y7378524D01*
X17402897Y7193825D01*
X17400000Y7151097D01*
X17400000Y6950000D01*
X18776000Y6950000D01*
X18843039Y6930315D01*
X18888794Y6877511D01*
X18900000Y6826000D01*
X18900000Y6574000D01*
X18880315Y6506961D01*
X18827511Y6461206D01*
X18776000Y6450000D01*
X17400000Y6450000D01*
X17400000Y6248904D01*
X17402897Y6206176D01*
X17448831Y6021477D01*
X17533390Y5850978D01*
X17533392Y5850975D01*
X17570654Y5804619D01*
X17597313Y5740035D01*
X17584822Y5671291D01*
X17537149Y5620212D01*
X17469428Y5603017D01*
X17458855Y5603861D01*
X17442126Y5605921D01*
X17394855Y5625501D01*
X17305145Y5625501D01*
X17305143Y5625500D01*
X16849500Y5625500D01*
X16782461Y5645185D01*
X16736706Y5697989D01*
X16725500Y5749500D01*
X16725500Y5799827D01*
X16734940Y5847281D01*
X16743867Y5868833D01*
X16775500Y5945200D01*
X16775500Y6054800D01*
X16733557Y6156058D01*
X16719701Y6169914D01*
X16686216Y6231237D01*
X16691200Y6300929D01*
X16712098Y6333444D01*
X16711583Y6333788D01*
X16718363Y6343938D01*
X16718368Y6343942D01*
X16760311Y6445200D01*
X16760311Y6554800D01*
X16718368Y6656058D01*
X16718366Y6656060D01*
X16711583Y6666212D01*
X16712935Y6667116D01*
X16686216Y6716048D01*
X16691200Y6785740D01*
X16719701Y6830087D01*
X16733557Y6843942D01*
X16775500Y6945200D01*
X16775500Y7054800D01*
X16733557Y7156058D01*
X16727296Y7162319D01*
X16693811Y7223642D01*
X16698795Y7293334D01*
X16727296Y7337681D01*
X16729222Y7339607D01*
X16733557Y7343942D01*
X16775500Y7445200D01*
X16775500Y7554800D01*
X16733557Y7656058D01*
X16727296Y7662319D01*
X16693811Y7723642D01*
X16698795Y7793334D01*
X16727296Y7837681D01*
X16733557Y7843942D01*
X16775500Y7945200D01*
X16775500Y8054800D01*
X16733557Y8156058D01*
X16656058Y8233557D01*
X16554800Y8275500D01*
X16445200Y8275500D01*
X16445199Y8275500D01*
X16389814Y8252558D01*
X16360948Y8240601D01*
X16343940Y8233556D01*
X16337678Y8227294D01*
X16276354Y8193811D01*
X16206663Y8198798D01*
X16162322Y8227294D01*
X16156060Y8233555D01*
X16156059Y8233556D01*
X16156058Y8233557D01*
X16054800Y8275500D01*
X15945200Y8275500D01*
X15945199Y8275500D01*
X15889814Y8252558D01*
X15860948Y8240601D01*
X15843940Y8233556D01*
X15837678Y8227294D01*
X15776354Y8193811D01*
X15706663Y8198798D01*
X15662322Y8227294D01*
X15656060Y8233555D01*
X15656059Y8233556D01*
X15656058Y8233557D01*
X15554800Y8275500D01*
X15445200Y8275500D01*
X15445199Y8275500D01*
X15389814Y8252558D01*
X15360948Y8240601D01*
X15343940Y8233556D01*
X15337678Y8227294D01*
X15276354Y8193811D01*
X15206663Y8198798D01*
X15162322Y8227294D01*
X15156060Y8233555D01*
X15156059Y8233556D01*
X15156058Y8233557D01*
X15054800Y8275500D01*
X14945200Y8275500D01*
X14945199Y8275500D01*
X14889814Y8252558D01*
X14860948Y8240601D01*
X14843940Y8233556D01*
X14837678Y8227294D01*
X14776354Y8193811D01*
X14706663Y8198798D01*
X14662322Y8227294D01*
X14656060Y8233555D01*
X14656059Y8233556D01*
X14656058Y8233557D01*
X14554800Y8275500D01*
X14445200Y8275500D01*
X14445199Y8275500D01*
X14389814Y8252558D01*
X14360948Y8240601D01*
X14343940Y8233556D01*
X14266444Y8156060D01*
X14266443Y8156059D01*
X14266443Y8156058D01*
X14254159Y8126404D01*
X14243016Y8099500D01*
X14224500Y8054800D01*
X14224500Y7945200D01*
X14266443Y7843942D01*
X14266444Y7843941D01*
X14266445Y7843940D01*
X14272706Y7837678D01*
X14306189Y7776354D01*
X14301202Y7706663D01*
X14272706Y7662322D01*
X14266444Y7656060D01*
X14226125Y7558722D01*
X14224500Y7554800D01*
X14224500Y7445200D01*
X14266443Y7343942D01*
X14266444Y7343941D01*
X14266445Y7343940D01*
X14272706Y7337678D01*
X14306189Y7276354D01*
X14301202Y7206663D01*
X14272706Y7162322D01*
X14266444Y7156060D01*
X14266443Y7156059D01*
X14266443Y7156058D01*
X14264388Y7151097D01*
X14230955Y7070383D01*
X14224500Y7054800D01*
X14224500Y6945200D01*
X14266443Y6843942D01*
X14266444Y6843941D01*
X14266445Y6843940D01*
X14272706Y6837678D01*
X14306189Y6776354D01*
X14301202Y6706663D01*
X14272706Y6662322D01*
X14266444Y6656060D01*
X14225962Y6558329D01*
X14224500Y6554800D01*
X14224500Y6445200D01*
X14266443Y6343942D01*
X14266444Y6343941D01*
X14266445Y6343940D01*
X14272706Y6337678D01*
X14306189Y6276354D01*
X14301202Y6206663D01*
X14272706Y6162322D01*
X14266444Y6156060D01*
X14266443Y6156059D01*
X14266443Y6156058D01*
X14258321Y6136450D01*
X14226125Y6058722D01*
X14224500Y6054800D01*
X14224500Y5945200D01*
X14266443Y5843942D01*
X14343942Y5766443D01*
X14445200Y5724500D01*
X14445201Y5724500D01*
X14554799Y5724500D01*
X14554800Y5724500D01*
X14656058Y5766443D01*
X14662319Y5772704D01*
X14723642Y5806189D01*
X14793334Y5801205D01*
X14837681Y5772704D01*
X14843942Y5766443D01*
X14945200Y5724500D01*
X14945201Y5724500D01*
X15054799Y5724500D01*
X15054800Y5724500D01*
X15156058Y5766443D01*
X15162319Y5772704D01*
X15177630Y5781065D01*
X15189892Y5793481D01*
X15207662Y5797464D01*
X15223642Y5806189D01*
X15241044Y5804945D01*
X15258071Y5808760D01*
X15275170Y5802504D01*
X15293334Y5801205D01*
X15307482Y5790683D01*
X15323687Y5784754D01*
X15337681Y5772704D01*
X15343942Y5766443D01*
X15445200Y5724500D01*
X15445201Y5724500D01*
X15554799Y5724500D01*
X15554800Y5724500D01*
X15656058Y5766443D01*
X15662319Y5772704D01*
X15723642Y5806189D01*
X15793334Y5801205D01*
X15837681Y5772704D01*
X15843942Y5766443D01*
X15945200Y5724500D01*
X15945201Y5724500D01*
X16054799Y5724500D01*
X16054800Y5724500D01*
X16103045Y5744485D01*
X16128475Y5747219D01*
X16153165Y5753895D01*
X16162634Y5750892D01*
X16172513Y5751954D01*
X16195384Y5740506D01*
X16219765Y5732774D01*
X16226108Y5725127D01*
X16234993Y5720680D01*
X16248043Y5698686D01*
X16264375Y5678999D01*
X16266853Y5666986D01*
X16270647Y5660592D01*
X16273588Y5644928D01*
X16274499Y5637455D01*
X16274499Y5555145D01*
X16282237Y5536465D01*
X16288715Y5520824D01*
X16288716Y5520823D01*
X16308830Y5472264D01*
X16389700Y5391394D01*
X16389706Y5391389D01*
X16501759Y5279336D01*
X16501762Y5279332D01*
X16508830Y5272264D01*
X16572264Y5208830D01*
X16606003Y5194855D01*
X16655146Y5174499D01*
X16655147Y5174499D01*
X16759293Y5174499D01*
X16759297Y5174500D01*
X16926232Y5174500D01*
X16993271Y5154815D01*
X17039026Y5102011D01*
X17048970Y5032853D01*
X17019945Y4969297D01*
X17013913Y4962819D01*
X16978830Y4927736D01*
X16978829Y4927735D01*
X16943420Y4892326D01*
X16916246Y4865152D01*
X16899229Y4855861D01*
X16885175Y4842511D01*
X16869198Y4839464D01*
X16854922Y4831668D01*
X16835586Y4833052D01*
X16816543Y4829418D01*
X16801452Y4835493D01*
X16785231Y4836653D01*
X16762883Y4851019D01*
X16754856Y4854250D01*
X16754575Y4853855D01*
X16752943Y4855020D01*
X16751728Y4855509D01*
X16750610Y4856686D01*
X16746210Y4859828D01*
X16633628Y4914865D01*
X16633626Y4914866D01*
X16633625Y4914866D01*
X16560636Y4925500D01*
X16044767Y4925500D01*
X15977728Y4945185D01*
X15957086Y4961819D01*
X15664310Y5254595D01*
X15641170Y5277735D01*
X15641170Y5277736D01*
X15577736Y5341170D01*
X15536542Y5358233D01*
X15521395Y5364508D01*
X15521393Y5364509D01*
X15494856Y5375501D01*
X15494855Y5375501D01*
X15405145Y5375501D01*
X15390711Y5375501D01*
X15390703Y5375500D01*
X13144768Y5375500D01*
X13077729Y5395185D01*
X13057087Y5411819D01*
X12861819Y5607087D01*
X12828334Y5668410D01*
X12825500Y5694768D01*
X12825500Y6825500D01*
X12845185Y6892539D01*
X12897989Y6938294D01*
X12949500Y6949500D01*
X13165686Y6949500D01*
X13165694Y6949500D01*
X13202569Y6952402D01*
X13202571Y6952403D01*
X13202573Y6952403D01*
X13276086Y6973761D01*
X13360398Y6998256D01*
X13501865Y7081919D01*
X13618081Y7198135D01*
X13701744Y7339602D01*
X13747598Y7497431D01*
X13750500Y7534306D01*
X13750500Y8650500D01*
X13770185Y8717539D01*
X13822989Y8763294D01*
X13874500Y8774500D01*
X14455145Y8774500D01*
X16775145Y8774500D01*
X17625500Y8774500D01*
X17692539Y8754815D01*
G37*
%TD.AperFunction*%
%TA.AperFunction,Conductor*%
G36*
X39934075Y9847007D02*
G01*
X39999901Y9732993D01*
X40092993Y9639901D01*
X40207007Y9574075D01*
X40270590Y9557038D01*
X39638282Y8924731D01*
X39638282Y8924730D01*
X39692449Y8885376D01*
X39881782Y8788905D01*
X40083865Y8723245D01*
X40142587Y8713944D01*
X40205722Y8684015D01*
X40242654Y8624703D01*
X40241656Y8554841D01*
X40203047Y8496608D01*
X40147384Y8469853D01*
X40108167Y8462052D01*
X40108160Y8462050D01*
X39926092Y8386636D01*
X39926079Y8386629D01*
X39762218Y8277140D01*
X39762214Y8277137D01*
X39622863Y8137786D01*
X39622860Y8137782D01*
X39513371Y7973921D01*
X39513364Y7973908D01*
X39437950Y7791840D01*
X39437947Y7791830D01*
X39399500Y7598544D01*
X39399500Y7598541D01*
X39399500Y7401459D01*
X39399500Y7401457D01*
X39399499Y7401457D01*
X39437947Y7208171D01*
X39437950Y7208161D01*
X39513366Y7026088D01*
X39515007Y7023019D01*
X39515380Y7021227D01*
X39515699Y7020457D01*
X39515553Y7020397D01*
X39529250Y6954617D01*
X39504251Y6889372D01*
X39493331Y6876883D01*
X39103269Y6486819D01*
X39041946Y6453334D01*
X39015588Y6450500D01*
X38498939Y6450500D01*
X38431900Y6470185D01*
X38386145Y6522989D01*
X38376201Y6592147D01*
X38405226Y6655703D01*
X38430048Y6677602D01*
X38473540Y6706663D01*
X38497782Y6722861D01*
X38637139Y6862218D01*
X38746632Y7026086D01*
X38822051Y7208165D01*
X38840219Y7299500D01*
X38860500Y7401457D01*
X38860500Y7598544D01*
X38822052Y7791830D01*
X38822051Y7791831D01*
X38822051Y7791835D01*
X38822049Y7791840D01*
X38746635Y7973908D01*
X38746628Y7973921D01*
X38637139Y8137782D01*
X38637136Y8137786D01*
X38497785Y8277137D01*
X38497781Y8277140D01*
X38333920Y8386629D01*
X38333907Y8386636D01*
X38151839Y8462050D01*
X38151830Y8462053D01*
X38112616Y8469853D01*
X38050705Y8502239D01*
X38016132Y8562955D01*
X38019873Y8632725D01*
X38060740Y8689396D01*
X38117412Y8713944D01*
X38176134Y8723245D01*
X38378217Y8788905D01*
X38567554Y8885378D01*
X38621716Y8924730D01*
X38621717Y8924730D01*
X37989408Y9557038D01*
X38052993Y9574075D01*
X38167007Y9639901D01*
X38260099Y9732993D01*
X38325925Y9847007D01*
X38342962Y9910592D01*
X38975270Y9278283D01*
X38975270Y9278284D01*
X39014622Y9332446D01*
X39019514Y9342046D01*
X39067488Y9392843D01*
X39135308Y9409639D01*
X39201444Y9387103D01*
X39240486Y9342046D01*
X39245375Y9332450D01*
X39284728Y9278284D01*
X39917037Y9910592D01*
X39934075Y9847007D01*
G37*
%TD.AperFunction*%
%TA.AperFunction,Conductor*%
G36*
X33383039Y11530315D02*
G01*
X33428794Y11477511D01*
X33440000Y11426000D01*
X33440000Y10701362D01*
X33431355Y10671922D01*
X33424832Y10641935D01*
X33421077Y10636920D01*
X33420315Y10634323D01*
X33403681Y10613681D01*
X33376319Y10586319D01*
X33314996Y10552834D01*
X33288638Y10550000D01*
X33014000Y10550000D01*
X32946961Y10569685D01*
X32901206Y10622489D01*
X32890000Y10674000D01*
X32890000Y11388638D01*
X32909685Y11455677D01*
X32926319Y11476319D01*
X32963681Y11513681D01*
X33025004Y11547166D01*
X33051362Y11550000D01*
X33316000Y11550000D01*
X33383039Y11530315D01*
G37*
%TD.AperFunction*%
%TA.AperFunction,Conductor*%
G36*
X10734685Y11286950D02*
G01*
X10743647Y11288238D01*
X10767687Y11277260D01*
X10793039Y11269815D01*
X10798966Y11262975D01*
X10807203Y11259213D01*
X10821492Y11236979D01*
X10838794Y11217011D01*
X10841081Y11206497D01*
X10844977Y11200435D01*
X10850000Y11165500D01*
X10850000Y11070667D01*
X10830315Y11003628D01*
X10777511Y10957873D01*
X10726000Y10946667D01*
X10474000Y10946667D01*
X10406961Y10966352D01*
X10361206Y11019156D01*
X10350000Y11070667D01*
X10350000Y11165500D01*
X10369685Y11232539D01*
X10422489Y11278294D01*
X10474000Y11289500D01*
X10726000Y11289500D01*
X10734685Y11286950D01*
G37*
%TD.AperFunction*%
%TA.AperFunction,Conductor*%
G36*
X10743039Y12130315D02*
G01*
X10788794Y12077511D01*
X10800000Y12026000D01*
X10800000Y11914500D01*
X10780315Y11847461D01*
X10727511Y11801706D01*
X10676000Y11790500D01*
X10424000Y11790500D01*
X10356961Y11810185D01*
X10311206Y11862989D01*
X10300000Y11914500D01*
X10300000Y12026000D01*
X10319685Y12093039D01*
X10372489Y12138794D01*
X10424000Y12150000D01*
X10676000Y12150000D01*
X10743039Y12130315D01*
G37*
%TD.AperFunction*%
%TD*%
M02*
