%TF.GenerationSoftware,KiCad,Pcbnew,9.0.6-9.0.6~ubuntu24.04.1*%
%TF.CreationDate,2025-12-14T03:47:06+08:00*%
%TF.ProjectId,demo,64656d6f-2e6b-4696-9361-645f70636258,V1.0.1*%
%TF.SameCoordinates,PX632ea00PY5f5e100*%
%TF.FileFunction,Legend,Bot*%
%TF.FilePolarity,Positive*%
%FSLAX46Y46*%
G04 Gerber Fmt 4.6, Leading zero omitted, Abs format (unit mm)*
G04 Created by KiCad (PCBNEW 9.0.6-9.0.6~ubuntu24.04.1) date 2025-12-14 03:47:06*
%MOMM*%
%LPD*%
G01*
G04 APERTURE LIST*
%ADD10C,0.150000*%
%ADD11C,0.100000*%
%ADD12R,3.400000X1.270000*%
%ADD13R,1.000000X1.000000*%
%ADD14C,1.000000*%
%ADD15C,0.650000*%
%ADD16O,2.100000X1.000000*%
%ADD17O,1.800000X1.000000*%
G04 APERTURE END LIST*
D10*
X446496Y214943D02*
X407792Y262562D01*
X407792Y262562D02*
X330382Y310181D01*
X330382Y310181D02*
X136858Y310181D01*
X136858Y310181D02*
X59449Y262562D01*
X59449Y262562D02*
X20744Y214943D01*
X20744Y214943D02*
X-17961Y119705D01*
X-17961Y119705D02*
X-17961Y24467D01*
X-17961Y24467D02*
X20744Y-118390D01*
X20744Y-118390D02*
X485201Y-689819D01*
X485201Y-689819D02*
X-17961Y-689819D01*
X-521122Y310181D02*
X-598532Y310181D01*
X-598532Y310181D02*
X-675941Y262562D01*
X-675941Y262562D02*
X-714646Y214943D01*
X-714646Y214943D02*
X-753351Y119705D01*
X-753351Y119705D02*
X-792056Y-70771D01*
X-792056Y-70771D02*
X-792056Y-308866D01*
X-792056Y-308866D02*
X-753351Y-499342D01*
X-753351Y-499342D02*
X-714646Y-594580D01*
X-714646Y-594580D02*
X-675941Y-642200D01*
X-675941Y-642200D02*
X-598532Y-689819D01*
X-598532Y-689819D02*
X-521122Y-689819D01*
X-521122Y-689819D02*
X-443713Y-642200D01*
X-443713Y-642200D02*
X-405008Y-594580D01*
X-405008Y-594580D02*
X-366303Y-499342D01*
X-366303Y-499342D02*
X-327599Y-308866D01*
X-327599Y-308866D02*
X-327599Y-70771D01*
X-327599Y-70771D02*
X-366303Y119705D01*
X-366303Y119705D02*
X-405008Y214943D01*
X-405008Y214943D02*
X-443713Y262562D01*
X-443713Y262562D02*
X-521122Y310181D01*
X-1101694Y214943D02*
X-1140398Y262562D01*
X-1140398Y262562D02*
X-1217808Y310181D01*
X-1217808Y310181D02*
X-1411332Y310181D01*
X-1411332Y310181D02*
X-1488741Y262562D01*
X-1488741Y262562D02*
X-1527446Y214943D01*
X-1527446Y214943D02*
X-1566151Y119705D01*
X-1566151Y119705D02*
X-1566151Y24467D01*
X-1566151Y24467D02*
X-1527446Y-118390D01*
X-1527446Y-118390D02*
X-1062989Y-689819D01*
X-1062989Y-689819D02*
X-1566151Y-689819D01*
X-2301541Y310181D02*
X-1914493Y310181D01*
X-1914493Y310181D02*
X-1875789Y-166009D01*
X-1875789Y-166009D02*
X-1914493Y-118390D01*
X-1914493Y-118390D02*
X-1991903Y-70771D01*
X-1991903Y-70771D02*
X-2185427Y-70771D01*
X-2185427Y-70771D02*
X-2262836Y-118390D01*
X-2262836Y-118390D02*
X-2301541Y-166009D01*
X-2301541Y-166009D02*
X-2340246Y-261247D01*
X-2340246Y-261247D02*
X-2340246Y-499342D01*
X-2340246Y-499342D02*
X-2301541Y-594580D01*
X-2301541Y-594580D02*
X-2262836Y-642200D01*
X-2262836Y-642200D02*
X-2185427Y-689819D01*
X-2185427Y-689819D02*
X-1991903Y-689819D01*
X-1991903Y-689819D02*
X-1914493Y-642200D01*
X-1914493Y-642200D02*
X-1875789Y-594580D01*
X-2688588Y-308866D02*
X-3307864Y-308866D01*
X-4120665Y-689819D02*
X-3656208Y-689819D01*
X-3888436Y-689819D02*
X-3888436Y310181D01*
X-3888436Y310181D02*
X-3811027Y167324D01*
X-3811027Y167324D02*
X-3733617Y72086D01*
X-3733617Y72086D02*
X-3656208Y24467D01*
X-4430303Y214943D02*
X-4469007Y262562D01*
X-4469007Y262562D02*
X-4546417Y310181D01*
X-4546417Y310181D02*
X-4739941Y310181D01*
X-4739941Y310181D02*
X-4817350Y262562D01*
X-4817350Y262562D02*
X-4856055Y214943D01*
X-4856055Y214943D02*
X-4894760Y119705D01*
X-4894760Y119705D02*
X-4894760Y24467D01*
X-4894760Y24467D02*
X-4856055Y-118390D01*
X-4856055Y-118390D02*
X-4391598Y-689819D01*
X-4391598Y-689819D02*
X-4894760Y-689819D01*
X-5243102Y-308866D02*
X-5862378Y-308866D01*
X-6675179Y-689819D02*
X-6210722Y-689819D01*
X-6442950Y-689819D02*
X-6442950Y310181D01*
X-6442950Y310181D02*
X-6365541Y167324D01*
X-6365541Y167324D02*
X-6288131Y72086D01*
X-6288131Y72086D02*
X-6210722Y24467D01*
X-6946112Y310181D02*
X-7449274Y310181D01*
X-7449274Y310181D02*
X-7178340Y-70771D01*
X-7178340Y-70771D02*
X-7294455Y-70771D01*
X-7294455Y-70771D02*
X-7371864Y-118390D01*
X-7371864Y-118390D02*
X-7410569Y-166009D01*
X-7410569Y-166009D02*
X-7449274Y-261247D01*
X-7449274Y-261247D02*
X-7449274Y-499342D01*
X-7449274Y-499342D02*
X-7410569Y-594580D01*
X-7410569Y-594580D02*
X-7371864Y-642200D01*
X-7371864Y-642200D02*
X-7294455Y-689819D01*
X-7294455Y-689819D02*
X-7062226Y-689819D01*
X-7062226Y-689819D02*
X-6984817Y-642200D01*
X-6984817Y-642200D02*
X-6946112Y-594580D01*
X10587030Y4826800D02*
X10501316Y4793467D01*
X10501316Y4793467D02*
X10358458Y4793467D01*
X10358458Y4793467D02*
X10301316Y4826800D01*
X10301316Y4826800D02*
X10272744Y4860134D01*
X10272744Y4860134D02*
X10244173Y4926800D01*
X10244173Y4926800D02*
X10244173Y4993467D01*
X10244173Y4993467D02*
X10272744Y5060134D01*
X10272744Y5060134D02*
X10301316Y5093467D01*
X10301316Y5093467D02*
X10358458Y5126800D01*
X10358458Y5126800D02*
X10472744Y5160134D01*
X10472744Y5160134D02*
X10529887Y5193467D01*
X10529887Y5193467D02*
X10558458Y5226800D01*
X10558458Y5226800D02*
X10587030Y5293467D01*
X10587030Y5293467D02*
X10587030Y5360134D01*
X10587030Y5360134D02*
X10558458Y5426800D01*
X10558458Y5426800D02*
X10529887Y5460134D01*
X10529887Y5460134D02*
X10472744Y5493467D01*
X10472744Y5493467D02*
X10329887Y5493467D01*
X10329887Y5493467D02*
X10244173Y5460134D01*
X10044172Y5493467D02*
X9901315Y4793467D01*
X9901315Y4793467D02*
X9787029Y5293467D01*
X9787029Y5293467D02*
X9672744Y4793467D01*
X9672744Y4793467D02*
X9529887Y5493467D01*
X9301315Y4793467D02*
X9301315Y5493467D01*
X9301315Y5493467D02*
X9158458Y5493467D01*
X9158458Y5493467D02*
X9072744Y5460134D01*
X9072744Y5460134D02*
X9015601Y5393467D01*
X9015601Y5393467D02*
X8987030Y5326800D01*
X8987030Y5326800D02*
X8958458Y5193467D01*
X8958458Y5193467D02*
X8958458Y5093467D01*
X8958458Y5093467D02*
X8987030Y4960134D01*
X8987030Y4960134D02*
X9015601Y4893467D01*
X9015601Y4893467D02*
X9072744Y4826800D01*
X9072744Y4826800D02*
X9158458Y4793467D01*
X9158458Y4793467D02*
X9301315Y4793467D01*
X8701315Y4793467D02*
X8701315Y5493467D01*
X8301316Y5493467D02*
X8187030Y5493467D01*
X8187030Y5493467D02*
X8129887Y5460134D01*
X8129887Y5460134D02*
X8072744Y5393467D01*
X8072744Y5393467D02*
X8044173Y5260134D01*
X8044173Y5260134D02*
X8044173Y5026800D01*
X8044173Y5026800D02*
X8072744Y4893467D01*
X8072744Y4893467D02*
X8129887Y4826800D01*
X8129887Y4826800D02*
X8187030Y4793467D01*
X8187030Y4793467D02*
X8301316Y4793467D01*
X8301316Y4793467D02*
X8358459Y4826800D01*
X8358459Y4826800D02*
X8415601Y4893467D01*
X8415601Y4893467D02*
X8444173Y5026800D01*
X8444173Y5026800D02*
X8444173Y5260134D01*
X8444173Y5260134D02*
X8415601Y5393467D01*
X8415601Y5393467D02*
X8358459Y5460134D01*
X8358459Y5460134D02*
X8301316Y5493467D01*
X10358458Y-5306533D02*
X10358458Y-4606533D01*
X10358458Y-4606533D02*
X10015601Y-5306533D01*
X10015601Y-5306533D02*
X10015601Y-4606533D01*
X9387030Y-5306533D02*
X9587030Y-4973200D01*
X9729887Y-5306533D02*
X9729887Y-4606533D01*
X9729887Y-4606533D02*
X9501316Y-4606533D01*
X9501316Y-4606533D02*
X9444173Y-4639866D01*
X9444173Y-4639866D02*
X9415602Y-4673200D01*
X9415602Y-4673200D02*
X9387030Y-4739866D01*
X9387030Y-4739866D02*
X9387030Y-4839866D01*
X9387030Y-4839866D02*
X9415602Y-4906533D01*
X9415602Y-4906533D02*
X9444173Y-4939866D01*
X9444173Y-4939866D02*
X9501316Y-4973200D01*
X9501316Y-4973200D02*
X9729887Y-4973200D01*
X9158459Y-5273200D02*
X9072745Y-5306533D01*
X9072745Y-5306533D02*
X8929887Y-5306533D01*
X8929887Y-5306533D02*
X8872745Y-5273200D01*
X8872745Y-5273200D02*
X8844173Y-5239866D01*
X8844173Y-5239866D02*
X8815602Y-5173200D01*
X8815602Y-5173200D02*
X8815602Y-5106533D01*
X8815602Y-5106533D02*
X8844173Y-5039866D01*
X8844173Y-5039866D02*
X8872745Y-5006533D01*
X8872745Y-5006533D02*
X8929887Y-4973200D01*
X8929887Y-4973200D02*
X9044173Y-4939866D01*
X9044173Y-4939866D02*
X9101316Y-4906533D01*
X9101316Y-4906533D02*
X9129887Y-4873200D01*
X9129887Y-4873200D02*
X9158459Y-4806533D01*
X9158459Y-4806533D02*
X9158459Y-4739866D01*
X9158459Y-4739866D02*
X9129887Y-4673200D01*
X9129887Y-4673200D02*
X9101316Y-4639866D01*
X9101316Y-4639866D02*
X9044173Y-4606533D01*
X9044173Y-4606533D02*
X8901316Y-4606533D01*
X8901316Y-4606533D02*
X8815602Y-4639866D01*
X8644173Y-4606533D02*
X8301316Y-4606533D01*
X8472744Y-5306533D02*
X8472744Y-4606533D01*
X10387030Y-273200D02*
X10301316Y-306533D01*
X10301316Y-306533D02*
X10158458Y-306533D01*
X10158458Y-306533D02*
X10101316Y-273200D01*
X10101316Y-273200D02*
X10072744Y-239866D01*
X10072744Y-239866D02*
X10044173Y-173200D01*
X10044173Y-173200D02*
X10044173Y-106533D01*
X10044173Y-106533D02*
X10072744Y-39866D01*
X10072744Y-39866D02*
X10101316Y-6533D01*
X10101316Y-6533D02*
X10158458Y26800D01*
X10158458Y26800D02*
X10272744Y60134D01*
X10272744Y60134D02*
X10329887Y93467D01*
X10329887Y93467D02*
X10358458Y126800D01*
X10358458Y126800D02*
X10387030Y193467D01*
X10387030Y193467D02*
X10387030Y260134D01*
X10387030Y260134D02*
X10358458Y326800D01*
X10358458Y326800D02*
X10329887Y360134D01*
X10329887Y360134D02*
X10272744Y393467D01*
X10272744Y393467D02*
X10129887Y393467D01*
X10129887Y393467D02*
X10044173Y360134D01*
X9844172Y393467D02*
X9701315Y-306533D01*
X9701315Y-306533D02*
X9587029Y193467D01*
X9587029Y193467D02*
X9472744Y-306533D01*
X9472744Y-306533D02*
X9329887Y393467D01*
X8987030Y393467D02*
X8872744Y393467D01*
X8872744Y393467D02*
X8815601Y360134D01*
X8815601Y360134D02*
X8758458Y293467D01*
X8758458Y293467D02*
X8729887Y160134D01*
X8729887Y160134D02*
X8729887Y-73200D01*
X8729887Y-73200D02*
X8758458Y-206533D01*
X8758458Y-206533D02*
X8815601Y-273200D01*
X8815601Y-273200D02*
X8872744Y-306533D01*
X8872744Y-306533D02*
X8987030Y-306533D01*
X8987030Y-306533D02*
X9044173Y-273200D01*
X9044173Y-273200D02*
X9101315Y-206533D01*
X9101315Y-206533D02*
X9129887Y-73200D01*
X9129887Y-73200D02*
X9129887Y160134D01*
X9129887Y160134D02*
X9101315Y293467D01*
X9101315Y293467D02*
X9044173Y360134D01*
X9044173Y360134D02*
X8987030Y393467D01*
X2996496Y2327800D02*
X2880382Y2280181D01*
X2880382Y2280181D02*
X2686858Y2280181D01*
X2686858Y2280181D02*
X2609449Y2327800D01*
X2609449Y2327800D02*
X2570744Y2375420D01*
X2570744Y2375420D02*
X2532039Y2470658D01*
X2532039Y2470658D02*
X2532039Y2565896D01*
X2532039Y2565896D02*
X2570744Y2661134D01*
X2570744Y2661134D02*
X2609449Y2708753D01*
X2609449Y2708753D02*
X2686858Y2756372D01*
X2686858Y2756372D02*
X2841677Y2803991D01*
X2841677Y2803991D02*
X2919087Y2851610D01*
X2919087Y2851610D02*
X2957792Y2899229D01*
X2957792Y2899229D02*
X2996496Y2994467D01*
X2996496Y2994467D02*
X2996496Y3089705D01*
X2996496Y3089705D02*
X2957792Y3184943D01*
X2957792Y3184943D02*
X2919087Y3232562D01*
X2919087Y3232562D02*
X2841677Y3280181D01*
X2841677Y3280181D02*
X2648154Y3280181D01*
X2648154Y3280181D02*
X2532039Y3232562D01*
X2299811Y3280181D02*
X1835354Y3280181D01*
X2067582Y2280181D02*
X2067582Y3280181D01*
X1177373Y2280181D02*
X1564421Y2280181D01*
X1564421Y2280181D02*
X1564421Y3280181D01*
X519392Y2280181D02*
X906440Y2280181D01*
X906440Y2280181D02*
X906440Y3280181D01*
X248459Y2280181D02*
X248459Y3280181D01*
X-138589Y2280181D02*
X-138589Y3280181D01*
X-138589Y3280181D02*
X-603046Y2280181D01*
X-603046Y2280181D02*
X-603046Y3280181D01*
X-990094Y2280181D02*
X-990094Y3280181D01*
X-1454551Y2280181D02*
X-1106209Y2851610D01*
X-1454551Y3280181D02*
X-990094Y2708753D01*
X-2306056Y3280181D02*
X-2576989Y2280181D01*
X-2576989Y2280181D02*
X-2847923Y3280181D01*
X-3080152Y3184943D02*
X-3118856Y3232562D01*
X-3118856Y3232562D02*
X-3196266Y3280181D01*
X-3196266Y3280181D02*
X-3389790Y3280181D01*
X-3389790Y3280181D02*
X-3467199Y3232562D01*
X-3467199Y3232562D02*
X-3505904Y3184943D01*
X-3505904Y3184943D02*
X-3544609Y3089705D01*
X-3544609Y3089705D02*
X-3544609Y2994467D01*
X-3544609Y2994467D02*
X-3505904Y2851610D01*
X-3505904Y2851610D02*
X-3041447Y2280181D01*
X-3041447Y2280181D02*
X-3544609Y2280181D01*
X-3892951Y2375420D02*
X-3931656Y2327800D01*
X-3931656Y2327800D02*
X-3892951Y2280181D01*
X-3892951Y2280181D02*
X-3854247Y2327800D01*
X-3854247Y2327800D02*
X-3892951Y2375420D01*
X-3892951Y2375420D02*
X-3892951Y2280181D01*
X-4705752Y2280181D02*
X-4241295Y2280181D01*
X-4473523Y2280181D02*
X-4473523Y3280181D01*
X-4473523Y3280181D02*
X-4396114Y3137324D01*
X-4396114Y3137324D02*
X-4318704Y3042086D01*
X-4318704Y3042086D02*
X-4241295Y2994467D01*
X-5905599Y1899229D02*
X-5866894Y1946848D01*
X-5866894Y1946848D02*
X-5789485Y2089705D01*
X-5789485Y2089705D02*
X-5750780Y2184943D01*
X-5750780Y2184943D02*
X-5712075Y2327800D01*
X-5712075Y2327800D02*
X-5673370Y2565896D01*
X-5673370Y2565896D02*
X-5673370Y2756372D01*
X-5673370Y2756372D02*
X-5712075Y2994467D01*
X-5712075Y2994467D02*
X-5750780Y3137324D01*
X-5750780Y3137324D02*
X-5789485Y3232562D01*
X-5789485Y3232562D02*
X-5866894Y3375420D01*
X-5866894Y3375420D02*
X-5905599Y3423039D01*
X-6099123Y2946848D02*
X-6408761Y2946848D01*
X-6215237Y3280181D02*
X-6215237Y2423039D01*
X-6215237Y2423039D02*
X-6253942Y2327800D01*
X-6253942Y2327800D02*
X-6331352Y2280181D01*
X-6331352Y2280181D02*
X-6408761Y2280181D01*
X-6602285Y2946848D02*
X-6795809Y2280181D01*
X-6989332Y2946848D02*
X-6795809Y2280181D01*
X-6795809Y2280181D02*
X-6718399Y2042086D01*
X-6718399Y2042086D02*
X-6679694Y1994467D01*
X-6679694Y1994467D02*
X-6602285Y1946848D01*
X-7298970Y2946848D02*
X-7298970Y1946848D01*
X-7298970Y2899229D02*
X-7376380Y2946848D01*
X-7376380Y2946848D02*
X-7531199Y2946848D01*
X-7531199Y2946848D02*
X-7608608Y2899229D01*
X-7608608Y2899229D02*
X-7647313Y2851610D01*
X-7647313Y2851610D02*
X-7686018Y2756372D01*
X-7686018Y2756372D02*
X-7686018Y2470658D01*
X-7686018Y2470658D02*
X-7647313Y2375420D01*
X-7647313Y2375420D02*
X-7608608Y2327800D01*
X-7608608Y2327800D02*
X-7531199Y2280181D01*
X-7531199Y2280181D02*
X-7376380Y2280181D01*
X-7376380Y2280181D02*
X-7298970Y2327800D01*
X-8343998Y2327800D02*
X-8266589Y2280181D01*
X-8266589Y2280181D02*
X-8111770Y2280181D01*
X-8111770Y2280181D02*
X-8034360Y2327800D01*
X-8034360Y2327800D02*
X-7995656Y2423039D01*
X-7995656Y2423039D02*
X-7995656Y2803991D01*
X-7995656Y2803991D02*
X-8034360Y2899229D01*
X-8034360Y2899229D02*
X-8111770Y2946848D01*
X-8111770Y2946848D02*
X-8266589Y2946848D01*
X-8266589Y2946848D02*
X-8343998Y2899229D01*
X-8343998Y2899229D02*
X-8382703Y2803991D01*
X-8382703Y2803991D02*
X-8382703Y2708753D01*
X-8382703Y2708753D02*
X-7995656Y2613515D01*
X-8731046Y2661134D02*
X-9350322Y2661134D01*
X-10085713Y2327800D02*
X-10008304Y2280181D01*
X-10008304Y2280181D02*
X-9853485Y2280181D01*
X-9853485Y2280181D02*
X-9776075Y2327800D01*
X-9776075Y2327800D02*
X-9737370Y2375420D01*
X-9737370Y2375420D02*
X-9698666Y2470658D01*
X-9698666Y2470658D02*
X-9698666Y2756372D01*
X-9698666Y2756372D02*
X-9737370Y2851610D01*
X-9737370Y2851610D02*
X-9776075Y2899229D01*
X-9776075Y2899229D02*
X-9853485Y2946848D01*
X-9853485Y2946848D02*
X-10008304Y2946848D01*
X-10008304Y2946848D02*
X-10085713Y2899229D01*
X-10356647Y1899229D02*
X-10395352Y1946848D01*
X-10395352Y1946848D02*
X-10472761Y2089705D01*
X-10472761Y2089705D02*
X-10511466Y2184943D01*
X-10511466Y2184943D02*
X-10550171Y2327800D01*
X-10550171Y2327800D02*
X-10588875Y2565896D01*
X-10588875Y2565896D02*
X-10588875Y2756372D01*
X-10588875Y2756372D02*
X-10550171Y2994467D01*
X-10550171Y2994467D02*
X-10511466Y3137324D01*
X-10511466Y3137324D02*
X-10472761Y3232562D01*
X-10472761Y3232562D02*
X-10395352Y3375420D01*
X-10395352Y3375420D02*
X-10356647Y3423039D01*
X10544173Y-2106533D02*
X10201316Y-2106533D01*
X10372744Y-2806533D02*
X10372744Y-2106533D01*
X10058458Y-2106533D02*
X9658458Y-2806533D01*
X9658458Y-2106533D02*
X10058458Y-2806533D01*
X-1414799Y-2743152D02*
X-1608323Y-3409819D01*
X-1608323Y-3409819D02*
X-1801846Y-2743152D01*
X-2537237Y-3409819D02*
X-2072780Y-3409819D01*
X-2305008Y-3409819D02*
X-2305008Y-2409819D01*
X-2305008Y-2409819D02*
X-2227599Y-2552676D01*
X-2227599Y-2552676D02*
X-2150189Y-2647914D01*
X-2150189Y-2647914D02*
X-2072780Y-2695533D01*
X-2885579Y-3314580D02*
X-2924284Y-3362200D01*
X-2924284Y-3362200D02*
X-2885579Y-3409819D01*
X-2885579Y-3409819D02*
X-2846875Y-3362200D01*
X-2846875Y-3362200D02*
X-2885579Y-3314580D01*
X-2885579Y-3314580D02*
X-2885579Y-3409819D01*
X-3427446Y-2409819D02*
X-3504856Y-2409819D01*
X-3504856Y-2409819D02*
X-3582265Y-2457438D01*
X-3582265Y-2457438D02*
X-3620970Y-2505057D01*
X-3620970Y-2505057D02*
X-3659675Y-2600295D01*
X-3659675Y-2600295D02*
X-3698380Y-2790771D01*
X-3698380Y-2790771D02*
X-3698380Y-3028866D01*
X-3698380Y-3028866D02*
X-3659675Y-3219342D01*
X-3659675Y-3219342D02*
X-3620970Y-3314580D01*
X-3620970Y-3314580D02*
X-3582265Y-3362200D01*
X-3582265Y-3362200D02*
X-3504856Y-3409819D01*
X-3504856Y-3409819D02*
X-3427446Y-3409819D01*
X-3427446Y-3409819D02*
X-3350037Y-3362200D01*
X-3350037Y-3362200D02*
X-3311332Y-3314580D01*
X-3311332Y-3314580D02*
X-3272627Y-3219342D01*
X-3272627Y-3219342D02*
X-3233923Y-3028866D01*
X-3233923Y-3028866D02*
X-3233923Y-2790771D01*
X-3233923Y-2790771D02*
X-3272627Y-2600295D01*
X-3272627Y-2600295D02*
X-3311332Y-2505057D01*
X-3311332Y-2505057D02*
X-3350037Y-2457438D01*
X-3350037Y-2457438D02*
X-3427446Y-2409819D01*
X-4046722Y-3314580D02*
X-4085427Y-3362200D01*
X-4085427Y-3362200D02*
X-4046722Y-3409819D01*
X-4046722Y-3409819D02*
X-4008018Y-3362200D01*
X-4008018Y-3362200D02*
X-4046722Y-3314580D01*
X-4046722Y-3314580D02*
X-4046722Y-3409819D01*
X-4356361Y-2409819D02*
X-4859523Y-2409819D01*
X-4859523Y-2409819D02*
X-4588589Y-2790771D01*
X-4588589Y-2790771D02*
X-4704704Y-2790771D01*
X-4704704Y-2790771D02*
X-4782113Y-2838390D01*
X-4782113Y-2838390D02*
X-4820818Y-2886009D01*
X-4820818Y-2886009D02*
X-4859523Y-2981247D01*
X-4859523Y-2981247D02*
X-4859523Y-3219342D01*
X-4859523Y-3219342D02*
X-4820818Y-3314580D01*
X-4820818Y-3314580D02*
X-4782113Y-3362200D01*
X-4782113Y-3362200D02*
X-4704704Y-3409819D01*
X-4704704Y-3409819D02*
X-4472475Y-3409819D01*
X-4472475Y-3409819D02*
X-4395066Y-3362200D01*
X-4395066Y-3362200D02*
X-4356361Y-3314580D01*
X10687030Y2226800D02*
X10601316Y2193467D01*
X10601316Y2193467D02*
X10458458Y2193467D01*
X10458458Y2193467D02*
X10401316Y2226800D01*
X10401316Y2226800D02*
X10372744Y2260134D01*
X10372744Y2260134D02*
X10344173Y2326800D01*
X10344173Y2326800D02*
X10344173Y2393467D01*
X10344173Y2393467D02*
X10372744Y2460134D01*
X10372744Y2460134D02*
X10401316Y2493467D01*
X10401316Y2493467D02*
X10458458Y2526800D01*
X10458458Y2526800D02*
X10572744Y2560134D01*
X10572744Y2560134D02*
X10629887Y2593467D01*
X10629887Y2593467D02*
X10658458Y2626800D01*
X10658458Y2626800D02*
X10687030Y2693467D01*
X10687030Y2693467D02*
X10687030Y2760134D01*
X10687030Y2760134D02*
X10658458Y2826800D01*
X10658458Y2826800D02*
X10629887Y2860134D01*
X10629887Y2860134D02*
X10572744Y2893467D01*
X10572744Y2893467D02*
X10429887Y2893467D01*
X10429887Y2893467D02*
X10344173Y2860134D01*
X10144172Y2893467D02*
X10001315Y2193467D01*
X10001315Y2193467D02*
X9887029Y2693467D01*
X9887029Y2693467D02*
X9772744Y2193467D01*
X9772744Y2193467D02*
X9629887Y2893467D01*
X9058458Y2260134D02*
X9087030Y2226800D01*
X9087030Y2226800D02*
X9172744Y2193467D01*
X9172744Y2193467D02*
X9229887Y2193467D01*
X9229887Y2193467D02*
X9315601Y2226800D01*
X9315601Y2226800D02*
X9372744Y2293467D01*
X9372744Y2293467D02*
X9401315Y2360134D01*
X9401315Y2360134D02*
X9429887Y2493467D01*
X9429887Y2493467D02*
X9429887Y2593467D01*
X9429887Y2593467D02*
X9401315Y2726800D01*
X9401315Y2726800D02*
X9372744Y2793467D01*
X9372744Y2793467D02*
X9315601Y2860134D01*
X9315601Y2860134D02*
X9229887Y2893467D01*
X9229887Y2893467D02*
X9172744Y2893467D01*
X9172744Y2893467D02*
X9087030Y2860134D01*
X9087030Y2860134D02*
X9058458Y2826800D01*
X8515601Y2193467D02*
X8801315Y2193467D01*
X8801315Y2193467D02*
X8801315Y2893467D01*
X8315601Y2193467D02*
X8315601Y2893467D01*
X7972744Y2193467D02*
X8229887Y2593467D01*
X7972744Y2893467D02*
X8315601Y2493467D01*
D11*
%TO.C,J2*%
X15005000Y6350000D02*
X15005000Y-6350000D01*
X15005000Y6350000D02*
X17545000Y6350000D01*
X15005000Y3810000D02*
X17545000Y3810000D01*
X15005000Y1270000D02*
X17545000Y1270000D01*
X15005000Y-1270000D02*
X17545000Y-1270000D01*
X15005000Y-3810000D02*
X17545000Y-3810000D01*
X17545000Y-6350000D02*
X15005000Y-6350000D01*
X17545000Y-6350000D02*
X17545000Y6350000D01*
X17570400Y4775200D02*
X23260000Y4775200D01*
X17570400Y-279400D02*
X23260000Y-279400D01*
X17570400Y-2841663D02*
X23260000Y-2841663D01*
X17595800Y2209800D02*
X23285400Y2209800D01*
X17595800Y-5384800D02*
X23285400Y-5384800D01*
X23260000Y5384800D02*
X17570400Y5384800D01*
X23260000Y5384800D02*
X23437800Y5207000D01*
X23260000Y4775200D02*
X23260000Y5384800D01*
X23260000Y4775200D02*
X23437800Y4953000D01*
X23260000Y330200D02*
X17570400Y330200D01*
X23260000Y330200D02*
X23437800Y152400D01*
X23260000Y-279400D02*
X23260000Y330200D01*
X23260000Y-279400D02*
X23437800Y-101600D01*
X23260000Y-2232063D02*
X17570400Y-2232063D01*
X23260000Y-2232063D02*
X23437800Y-2409863D01*
X23260000Y-2841663D02*
X23260000Y-2232063D01*
X23260000Y-2841663D02*
X23437800Y-2663863D01*
X23285400Y2819400D02*
X17595800Y2819400D01*
X23285400Y2819400D02*
X23463200Y2641600D01*
X23285400Y2209800D02*
X23285400Y2819400D01*
X23285400Y2209800D02*
X23463200Y2387600D01*
X23285400Y-4775200D02*
X17595800Y-4775200D01*
X23285400Y-4775200D02*
X23463200Y-4953000D01*
X23285400Y-5384800D02*
X23285400Y-4775200D01*
X23285400Y-5384800D02*
X23463200Y-5207000D01*
X23437800Y4953000D02*
X23437800Y5207000D01*
X23437800Y-101600D02*
X23437800Y152400D01*
X23437800Y-2663863D02*
X23437800Y-2409863D01*
X23463200Y2387600D02*
X23463200Y2641600D01*
X23463200Y-5207000D02*
X23463200Y-4953000D01*
%TD*%
%LPC*%
D12*
%TO.C,J2*%
X12900000Y5080000D03*
X12900000Y2540000D03*
X12900000Y0D03*
X12900000Y-2540000D03*
X12900000Y-5080000D03*
%TD*%
D13*
%TO.C,J3*%
X-9520000Y-5300000D03*
D14*
X-8250000Y-5300000D03*
X-6980000Y-5300000D03*
X-5710000Y-5300000D03*
%TD*%
D15*
%TO.C,J1*%
X-12895000Y2890000D03*
X-12895000Y-2890000D03*
D16*
X-12395000Y4320000D03*
D17*
X-16575000Y4320000D03*
D16*
X-12395000Y-4320000D03*
D17*
X-16575000Y-4320000D03*
%TD*%
%LPD*%
M02*
