%TF.GenerationSoftware,KiCad,Pcbnew,9.0.6-9.0.6~ubuntu24.04.1*%
%TF.CreationDate,2025-11-26T01:33:41+08:00*%
%TF.ProjectId,demo,64656d6f-2e6b-4696-9361-645f70636258,V1.0.1*%
%TF.SameCoordinates,PX5f5e100PY5f5e100*%
%TF.FileFunction,Soldermask,Top*%
%TF.FilePolarity,Negative*%
%FSLAX46Y46*%
G04 Gerber Fmt 4.6, Leading zero omitted, Abs format (unit mm)*
G04 Created by KiCad (PCBNEW 9.0.6-9.0.6~ubuntu24.04.1) date 2025-11-26 01:33:41*
%MOMM*%
%LPD*%
G01*
G04 APERTURE LIST*
G04 Aperture macros list*
%AMRoundRect*
0 Rectangle with rounded corners*
0 $1 Rounding radius*
0 $2 $3 $4 $5 $6 $7 $8 $9 X,Y pos of 4 corners*
0 Add a 4 corners polygon primitive as box body*
4,1,4,$2,$3,$4,$5,$6,$7,$8,$9,$2,$3,0*
0 Add four circle primitives for the rounded corners*
1,1,$1+$1,$2,$3*
1,1,$1+$1,$4,$5*
1,1,$1+$1,$6,$7*
1,1,$1+$1,$8,$9*
0 Add four rect primitives between the rounded corners*
20,1,$1+$1,$2,$3,$4,$5,0*
20,1,$1+$1,$4,$5,$6,$7,0*
20,1,$1+$1,$6,$7,$8,$9,0*
20,1,$1+$1,$8,$9,$2,$3,0*%
G04 Aperture macros list end*
%ADD10RoundRect,0.135000X-0.135000X-0.185000X0.135000X-0.185000X0.135000X0.185000X-0.135000X0.185000X0*%
%ADD11RoundRect,0.147500X0.147500X0.172500X-0.147500X0.172500X-0.147500X-0.172500X0.147500X-0.172500X0*%
%ADD12RoundRect,0.140000X-0.170000X0.140000X-0.170000X-0.140000X0.170000X-0.140000X0.170000X0.140000X0*%
%ADD13O,2.200000X0.900000*%
%ADD14O,1.900000X0.900000*%
%ADD15O,0.900000X1.500000*%
%ADD16R,0.950000X0.260000*%
%ADD17C,0.500000*%
%ADD18RoundRect,0.250000X0.350000X-0.450000X0.350000X0.450000X-0.350000X0.450000X-0.350000X-0.450000X0*%
%ADD19RoundRect,0.075000X-0.662500X-0.075000X0.662500X-0.075000X0.662500X0.075000X-0.662500X0.075000X0*%
%ADD20RoundRect,0.075000X-0.075000X-0.662500X0.075000X-0.662500X0.075000X0.662500X-0.075000X0.662500X0*%
%ADD21RoundRect,0.375000X-0.375000X0.625000X-0.375000X-0.625000X0.375000X-0.625000X0.375000X0.625000X0*%
%ADD22RoundRect,0.500000X-1.400000X0.500000X-1.400000X-0.500000X1.400000X-0.500000X1.400000X0.500000X0*%
%ADD23RoundRect,0.135000X0.135000X0.185000X-0.135000X0.185000X-0.135000X-0.185000X0.135000X-0.185000X0*%
%ADD24RoundRect,0.150000X-0.587500X-0.150000X0.587500X-0.150000X0.587500X0.150000X-0.587500X0.150000X0*%
%ADD25R,1.000000X1.000000*%
%ADD26C,1.000000*%
%ADD27R,1.700000X1.700000*%
%ADD28C,1.700000*%
%ADD29RoundRect,0.147500X-0.147500X-0.172500X0.147500X-0.172500X0.147500X0.172500X-0.147500X0.172500X0*%
%ADD30RoundRect,0.140000X0.170000X-0.140000X0.170000X0.140000X-0.170000X0.140000X-0.170000X-0.140000X0*%
%ADD31RoundRect,0.140000X-0.140000X-0.170000X0.140000X-0.170000X0.140000X0.170000X-0.140000X0.170000X0*%
%ADD32RoundRect,0.140000X0.140000X0.170000X-0.140000X0.170000X-0.140000X-0.170000X0.140000X-0.170000X0*%
%ADD33RoundRect,0.225000X0.250000X-0.225000X0.250000X0.225000X-0.250000X0.225000X-0.250000X-0.225000X0*%
%ADD34RoundRect,0.225000X0.225000X0.250000X-0.225000X0.250000X-0.225000X-0.250000X0.225000X-0.250000X0*%
G04 APERTURE END LIST*
D10*
%TO.C,R9*%
X19720000Y1600000D03*
X18700000Y1600000D03*
%TD*%
D11*
%TO.C,D2*%
X16535000Y1600000D03*
X17505000Y1600000D03*
%TD*%
D10*
%TO.C,R8*%
X19720000Y2700000D03*
X18700000Y2700000D03*
%TD*%
D12*
%TO.C,C11*%
X21300000Y7000000D03*
X21300000Y7960000D03*
%TD*%
D13*
%TO.C,J1*%
X2700000Y3180000D03*
D14*
X7250000Y3180000D03*
D15*
X6750000Y3480000D03*
X6750000Y11520000D03*
D13*
X2700000Y11820000D03*
D14*
X7250000Y11820000D03*
D16*
X6575000Y10370000D03*
X6575000Y9870000D03*
X6575000Y9370000D03*
X6575000Y8870000D03*
X6575000Y8370000D03*
X6575000Y7870000D03*
X6575000Y7370000D03*
X6575000Y6870000D03*
X6575000Y6370000D03*
X6575000Y5870000D03*
X6575000Y5370000D03*
X6575000Y4870000D03*
X7875000Y4630000D03*
X7875000Y5130000D03*
X7875000Y5630000D03*
X7875000Y6130000D03*
X7875000Y6630000D03*
X7875000Y7130000D03*
X7875000Y7630000D03*
X7875000Y8130000D03*
X7875000Y8630000D03*
X7875000Y9130000D03*
X7875000Y9630000D03*
X7875000Y10130000D03*
D17*
X5900000Y4100000D03*
X5900000Y10900000D03*
%TD*%
D18*
%TO.C,Y1*%
X24500000Y7200000D03*
X24500000Y9400000D03*
X22800000Y9400000D03*
X22800000Y7200000D03*
%TD*%
D19*
%TO.C,U2*%
X26887500Y11412500D03*
X26887500Y10912500D03*
X26887500Y10412500D03*
X26887500Y9912500D03*
X26887500Y9412500D03*
X26887500Y8912500D03*
X26887500Y8412500D03*
X26887500Y7912500D03*
X26887500Y7412500D03*
X26887500Y6912500D03*
X26887500Y6412500D03*
X26887500Y5912500D03*
D20*
X28300000Y4500000D03*
X28800000Y4500000D03*
X29300000Y4500000D03*
X29800000Y4500000D03*
X30300000Y4500000D03*
X30800000Y4500000D03*
X31300000Y4500000D03*
X31800000Y4500000D03*
X32300000Y4500000D03*
X32800000Y4500000D03*
X33300000Y4500000D03*
X33800000Y4500000D03*
D19*
X35212500Y5912500D03*
X35212500Y6412500D03*
X35212500Y6912500D03*
X35212500Y7412500D03*
X35212500Y7912500D03*
X35212500Y8412500D03*
X35212500Y8912500D03*
X35212500Y9412500D03*
X35212500Y9912500D03*
X35212500Y10412500D03*
X35212500Y10912500D03*
X35212500Y11412500D03*
D20*
X33800000Y12825000D03*
X33300000Y12825000D03*
X32800000Y12825000D03*
X32300000Y12825000D03*
X31800000Y12825000D03*
X31300000Y12825000D03*
X30800000Y12825000D03*
X30300000Y12825000D03*
X29800000Y12825000D03*
X29300000Y12825000D03*
X28800000Y12825000D03*
X28300000Y12825000D03*
%TD*%
D21*
%TO.C,U1*%
X18437500Y12200000D03*
X16137500Y12200000D03*
D22*
X16137500Y5900000D03*
D21*
X13837500Y12200000D03*
%TD*%
D10*
%TO.C,R23*%
X23080000Y1600000D03*
X24100000Y1600000D03*
%TD*%
D23*
%TO.C,R22*%
X24090000Y2700000D03*
X23070000Y2700000D03*
%TD*%
D10*
%TO.C,R21*%
X25490000Y1600000D03*
X26510000Y1600000D03*
%TD*%
%TO.C,R20*%
X22290000Y11000000D03*
X23310000Y11000000D03*
%TD*%
%TO.C,R19*%
X22290000Y12000000D03*
X23310000Y12000000D03*
%TD*%
%TO.C,R18*%
X37180000Y5900000D03*
X38200000Y5900000D03*
%TD*%
%TO.C,R17*%
X22290000Y13000000D03*
X23310000Y13000000D03*
%TD*%
D23*
%TO.C,R16*%
X21920000Y2700000D03*
X20900000Y2700000D03*
%TD*%
%TO.C,R15*%
X35900000Y1500000D03*
X34880000Y1500000D03*
%TD*%
%TO.C,R14*%
X35880000Y2900000D03*
X34860000Y2900000D03*
%TD*%
D10*
%TO.C,R13*%
X37190000Y7000000D03*
X38210000Y7000000D03*
%TD*%
%TO.C,R12*%
X37180000Y9200000D03*
X38200000Y9200000D03*
%TD*%
D23*
%TO.C,R11*%
X38210000Y4800000D03*
X37190000Y4800000D03*
%TD*%
%TO.C,R10*%
X38210000Y8100000D03*
X37190000Y8100000D03*
%TD*%
D10*
%TO.C,R7*%
X14390000Y1600000D03*
X15410000Y1600000D03*
%TD*%
%TO.C,R6*%
X14390000Y2700000D03*
X15410000Y2700000D03*
%TD*%
D23*
%TO.C,R5*%
X11710000Y10600000D03*
X10690000Y10600000D03*
%TD*%
D10*
%TO.C,R4*%
X10690000Y6100000D03*
X11710000Y6100000D03*
%TD*%
D23*
%TO.C,R3*%
X11710000Y8400000D03*
X10690000Y8400000D03*
%TD*%
%TO.C,R2*%
X11710000Y7300000D03*
X10690000Y7300000D03*
%TD*%
%TO.C,R1*%
X11710000Y9500000D03*
X10690000Y9500000D03*
%TD*%
D24*
%TO.C,Q1*%
X10262500Y3350000D03*
X10262500Y1450000D03*
X12137500Y2400000D03*
%TD*%
D25*
%TO.C,J3*%
X32840000Y1800000D03*
D26*
X31570000Y1800000D03*
X30300000Y1800000D03*
X29030000Y1800000D03*
%TD*%
D27*
%TO.C,J2*%
X40460000Y12620000D03*
D28*
X43000000Y12620000D03*
X40460000Y10080000D03*
X43000000Y10080000D03*
X40460000Y7540000D03*
X43000000Y7540000D03*
X40460000Y5000000D03*
X43000000Y5000000D03*
X40460000Y2460000D03*
X43000000Y2460000D03*
%TD*%
D29*
%TO.C,D1*%
X16535000Y2700000D03*
X17505000Y2700000D03*
%TD*%
D30*
%TO.C,C10*%
X21300000Y9020000D03*
X21300000Y9980000D03*
%TD*%
D31*
%TO.C,C9*%
X20930000Y1600000D03*
X21890000Y1600000D03*
%TD*%
D32*
%TO.C,C8*%
X27310000Y13362500D03*
X26350000Y13362500D03*
%TD*%
D30*
%TO.C,C7*%
X35750000Y12462500D03*
X35750000Y13422500D03*
%TD*%
D31*
%TO.C,C6*%
X34860000Y4100000D03*
X35820000Y4100000D03*
%TD*%
D30*
%TO.C,C5*%
X26450000Y3682500D03*
X26450000Y4642500D03*
%TD*%
D12*
%TO.C,C4*%
X20300000Y9020000D03*
X20300000Y9980000D03*
%TD*%
D33*
%TO.C,C3*%
X20600000Y11190000D03*
X20600000Y12740000D03*
%TD*%
D32*
%TO.C,C2*%
X11630000Y11900000D03*
X10670000Y11900000D03*
%TD*%
D34*
%TO.C,C1*%
X11375000Y13225000D03*
X9825000Y13225000D03*
%TD*%
M02*
