%TF.GenerationSoftware,KiCad,Pcbnew,9.0.6-9.0.6~ubuntu24.04.1*%
%TF.CreationDate,2025-12-13T19:22:48+08:00*%
%TF.ProjectId,demo,64656d6f-2e6b-4696-9361-645f70636258,V1.0.1*%
%TF.SameCoordinates,PX632ea00PY5f5e100*%
%TF.FileFunction,Other,User*%
%FSLAX46Y46*%
G04 Gerber Fmt 4.6, Leading zero omitted, Abs format (unit mm)*
G04 Created by KiCad (PCBNEW 9.0.6-9.0.6~ubuntu24.04.1) date 2025-12-13 19:22:48*
%MOMM*%
%LPD*%
G01*
G04 APERTURE LIST*
%ADD10C,0.050000*%
G04 APERTURE END LIST*
D10*
%TO.C,D1*%
X-10657500Y2740000D02*
X-8797500Y2740000D01*
X-10657500Y1800000D02*
X-10657500Y2740000D01*
X-8797500Y2740000D02*
X-8797500Y1800000D01*
X-8797500Y1800000D02*
X-10657500Y1800000D01*
%TO.C,J3*%
X-10660000Y-3750000D02*
X-10660000Y-6850000D01*
X-10660000Y-6850000D02*
X-4570000Y-6850000D01*
X-4570000Y-3750000D02*
X-10660000Y-3750000D01*
X-4570000Y-6850000D02*
X-4570000Y-3750000D01*
%TO.C,R16*%
X-6880000Y1800000D02*
X-5020000Y1800000D01*
X-6880000Y860000D02*
X-6880000Y1800000D01*
X-5020000Y1800000D02*
X-5020000Y860000D01*
X-5020000Y860000D02*
X-6880000Y860000D01*
%TO.C,C8*%
X8610000Y-1940000D02*
X10430000Y-1940000D01*
X8610000Y-2860000D02*
X8610000Y-1940000D01*
X10430000Y-1940000D02*
X10430000Y-2860000D01*
X10430000Y-2860000D02*
X8610000Y-2860000D01*
%TO.C,U2*%
X-4620000Y3839999D02*
X-3220000Y3840000D01*
X-4620000Y-2459999D02*
X-4620000Y3839999D01*
X-3220000Y4440000D02*
X-2620000Y4440000D01*
X-3220000Y3840000D02*
X-3220000Y4440000D01*
X-3220000Y-2460000D02*
X-4620000Y-2459999D01*
X-3220000Y-3060000D02*
X-3220000Y-2460000D01*
X-2620000Y4440000D02*
X-2619999Y5840000D01*
X-2620000Y-3060000D02*
X-3220000Y-3060000D01*
X-2619999Y5840000D02*
X3679999Y5840000D01*
X-2619999Y-4460000D02*
X-2620000Y-3060000D01*
X3679999Y5840000D02*
X3680000Y4440000D01*
X3679999Y-4460000D02*
X-2619999Y-4460000D01*
X3680000Y4440000D02*
X4280000Y4440000D01*
X3680000Y-3060000D02*
X3679999Y-4460000D01*
X4280000Y4440000D02*
X4280000Y3840000D01*
X4280000Y3840000D02*
X5680000Y3839999D01*
X4280000Y-2460000D02*
X4280000Y-3060000D01*
X4280000Y-3060000D02*
X3680000Y-3060000D01*
X5680000Y3839999D02*
X5680000Y-2459999D01*
X5680000Y-2459999D02*
X4280000Y-2460000D01*
%TO.C,D2*%
X-10657500Y1780000D02*
X-8797500Y1780000D01*
X-10657500Y840000D02*
X-10657500Y1780000D01*
X-8797500Y1780000D02*
X-8797500Y840000D01*
X-8797500Y840000D02*
X-10657500Y840000D01*
%TO.C,R14*%
X6210000Y3490000D02*
X8070000Y3490000D01*
X6210000Y2550000D02*
X6210000Y3490000D01*
X8070000Y3490000D02*
X8070000Y2550000D01*
X8070000Y2550000D02*
X6210000Y2550000D01*
%TO.C,Q1*%
X-8770000Y-1080000D02*
X-7740000Y-1080000D01*
X-8770000Y-2180000D02*
X-8770000Y-1080000D01*
X-7740000Y70000D02*
X-5940000Y70000D01*
X-7740000Y-1080000D02*
X-7740000Y70000D01*
X-7740000Y-2180000D02*
X-8770000Y-2180000D01*
X-7740000Y-3330000D02*
X-7740000Y-2180000D01*
X-5940000Y70000D02*
X-5940000Y-130000D01*
X-5940000Y-130000D02*
X-4910000Y-130000D01*
X-5940000Y-3130000D02*
X-5940000Y-3330000D01*
X-5940000Y-3330000D02*
X-7740000Y-3330000D01*
X-4910000Y-130000D02*
X-4910000Y-3130000D01*
X-4910000Y-3130000D02*
X-5940000Y-3130000D01*
%TO.C,C9*%
X8610000Y2520000D02*
X10430000Y2520000D01*
X8610000Y1600000D02*
X8610000Y2520000D01*
X10430000Y2520000D02*
X10430000Y1600000D01*
X10430000Y1600000D02*
X8610000Y1600000D01*
%TO.C,R3*%
X-10652500Y-140000D02*
X-8792500Y-140000D01*
X-10652500Y-1080000D02*
X-10652500Y-140000D01*
X-8792500Y-140000D02*
X-8792500Y-1080000D01*
X-8792500Y-1080000D02*
X-10652500Y-1080000D01*
%TO.C,R1*%
X-10652500Y-2040000D02*
X-8792500Y-2040000D01*
X-10652500Y-2980000D02*
X-10652500Y-2040000D01*
X-8792500Y-2040000D02*
X-8792500Y-2980000D01*
X-8792500Y-2980000D02*
X-10652500Y-2980000D01*
%TO.C,C2*%
X-10480000Y5890000D02*
X-9560000Y5890000D01*
X-10480000Y4070000D02*
X-10480000Y5890000D01*
X-9560000Y5890000D02*
X-9560000Y4070000D01*
X-9560000Y4070000D02*
X-10480000Y4070000D01*
%TO.C,R15*%
X-790000Y-4810000D02*
X1070000Y-4810000D01*
X-790000Y-5750000D02*
X-790000Y-4810000D01*
X1070000Y-4810000D02*
X1070000Y-5750000D01*
X1070000Y-5750000D02*
X-790000Y-5750000D01*
%TO.C,R17*%
X6250000Y-2870000D02*
X8110000Y-2870000D01*
X6250000Y-3810000D02*
X6250000Y-2870000D01*
X8110000Y-2870000D02*
X8110000Y-3810000D01*
X8110000Y-3810000D02*
X6250000Y-3810000D01*
%TO.C,R5*%
X-6890000Y2760000D02*
X-5030000Y2760000D01*
X-6890000Y1820000D02*
X-6890000Y2760000D01*
X-5030000Y2760000D02*
X-5030000Y1820000D01*
X-5030000Y1820000D02*
X-6890000Y1820000D01*
%TO.C,R4*%
X-10652500Y-1100000D02*
X-8792500Y-1100000D01*
X-10652500Y-2040000D02*
X-10652500Y-1100000D01*
X-8792500Y-1100000D02*
X-8792500Y-2040000D01*
X-8792500Y-2040000D02*
X-10652500Y-2040000D01*
%TO.C,R2*%
X-10652500Y820000D02*
X-8792500Y820000D01*
X-10652500Y-120000D02*
X-10652500Y820000D01*
X-8792500Y820000D02*
X-8792500Y-120000D01*
X-8792500Y-120000D02*
X-10652500Y-120000D01*
%TO.C,R21*%
X6210000Y5410000D02*
X8070000Y5410000D01*
X6210000Y4470000D02*
X6210000Y5410000D01*
X8070000Y5410000D02*
X8070000Y4470000D01*
X8070000Y4470000D02*
X6210000Y4470000D01*
%TO.C,R10*%
X8630000Y5470000D02*
X10490000Y5470000D01*
X8630000Y4530000D02*
X8630000Y5470000D01*
X10490000Y5470000D02*
X10490000Y4530000D01*
X10490000Y4530000D02*
X8630000Y4530000D01*
%TO.C,J2*%
X10510000Y6930000D02*
X10510000Y-6770000D01*
X10510000Y-6770000D02*
X25370000Y-6770000D01*
X25370000Y6930000D02*
X10510000Y6930000D01*
X25370000Y-6770000D02*
X25370000Y6930000D01*
%TO.C,R7*%
X-2680000Y-4800000D02*
X-820000Y-4800000D01*
X-2680000Y-5740000D02*
X-2680000Y-4800000D01*
X-820000Y-4800000D02*
X-820000Y-5740000D01*
X-820000Y-5740000D02*
X-2680000Y-5740000D01*
%TO.C,R18*%
X6250000Y-1930000D02*
X8110000Y-1930000D01*
X6250000Y-2870000D02*
X6250000Y-1930000D01*
X8110000Y-1930000D02*
X8110000Y-2870000D01*
X8110000Y-2870000D02*
X6250000Y-2870000D01*
%TO.C,R6*%
X-4550000Y-4800000D02*
X-2690000Y-4800000D01*
X-4550000Y-5740000D02*
X-4550000Y-4800000D01*
X-2690000Y-4800000D02*
X-2690000Y-5740000D01*
X-2690000Y-5740000D02*
X-4550000Y-5740000D01*
%TO.C,R19*%
X8630000Y3560000D02*
X10490000Y3560000D01*
X8630000Y2620000D02*
X8630000Y3560000D01*
X10490000Y3560000D02*
X10490000Y2620000D01*
X10490000Y2620000D02*
X8630000Y2620000D01*
%TO.C,C1*%
X-10390000Y3950000D02*
X-8570000Y3950000D01*
X-10390000Y3030000D02*
X-10390000Y3950000D01*
X-8570000Y3950000D02*
X-8570000Y3030000D01*
X-8570000Y3030000D02*
X-10390000Y3030000D01*
%TO.C,U1*%
X-9550000Y5050000D02*
X-8550000Y5050000D01*
X-9550000Y3950000D02*
X-9550000Y5050000D01*
X-8550000Y6200000D02*
X-6450000Y6200000D01*
X-8550000Y5050000D02*
X-8550000Y6200000D01*
X-8550000Y3950000D02*
X-9550000Y3950000D01*
X-8550000Y2800000D02*
X-8550000Y3950000D01*
X-6450000Y6200000D02*
X-6450000Y6000000D01*
X-6450000Y6000000D02*
X-5450000Y6000000D01*
X-6450000Y3000000D02*
X-6450000Y2800000D01*
X-6450000Y2800000D02*
X-8550000Y2800000D01*
X-5450000Y6000000D02*
X-5450000Y3000000D01*
X-5450000Y3000000D02*
X-6450000Y3000000D01*
%TO.C,R13*%
X8590000Y-2870000D02*
X10450000Y-2870000D01*
X8590000Y-3810000D02*
X8590000Y-2870000D01*
X10450000Y-2870000D02*
X10450000Y-3810000D01*
X10450000Y-3810000D02*
X8590000Y-3810000D01*
%TO.C,C7*%
X6230000Y2540000D02*
X8050000Y2540000D01*
X6230000Y1620000D02*
X6230000Y2540000D01*
X8050000Y2540000D02*
X8050000Y1620000D01*
X8050000Y1620000D02*
X6230000Y1620000D01*
%TO.C,C5*%
X-4440000Y-3550000D02*
X-2620000Y-3550000D01*
X-4440000Y-4470000D02*
X-4440000Y-3550000D01*
X-2620000Y-3550000D02*
X-2620000Y-4470000D01*
X-2620000Y-4470000D02*
X-4440000Y-4470000D01*
%TO.C,R12*%
X8650000Y4520000D02*
X10510000Y4520000D01*
X8650000Y3580000D02*
X8650000Y4520000D01*
X10510000Y4520000D02*
X10510000Y3580000D01*
X10510000Y3580000D02*
X8650000Y3580000D01*
%TO.C,R20*%
X6210000Y4450000D02*
X8070000Y4450000D01*
X6210000Y3510000D02*
X6210000Y4450000D01*
X8070000Y4450000D02*
X8070000Y3510000D01*
X8070000Y3510000D02*
X6210000Y3510000D01*
%TO.C,R9*%
X-8777500Y1790000D02*
X-6917500Y1790000D01*
X-8777500Y850000D02*
X-8777500Y1790000D01*
X-6917500Y1790000D02*
X-6917500Y850000D01*
X-6917500Y850000D02*
X-8777500Y850000D01*
%TO.C,R8*%
X-8777500Y2750000D02*
X-6917500Y2750000D01*
X-8777500Y1810000D02*
X-8777500Y2750000D01*
X-6917500Y2750000D02*
X-6917500Y1810000D01*
X-6917500Y1810000D02*
X-8777500Y1810000D01*
%TO.C,C4*%
X3680000Y-3540000D02*
X5500000Y-3540000D01*
X3680000Y-4460000D02*
X3680000Y-3540000D01*
X5500000Y-3540000D02*
X5500000Y-4460000D01*
X5500000Y-4460000D02*
X3680000Y-4460000D01*
%TO.C,J1*%
X-10740000Y5320000D02*
X-19680000Y5320000D01*
X-19680000Y-5320000D01*
X-10740000Y-5320000D01*
X-10740000Y5320000D01*
%TO.C,Y1*%
X10440000Y-1910000D02*
X6240000Y-1910000D01*
X6240000Y1590000D01*
X10440000Y1590000D01*
X10440000Y-1910000D01*
%TO.C,C6*%
X-4440000Y5840000D02*
X-2620000Y5840000D01*
X-4440000Y4920000D02*
X-4440000Y5840000D01*
X-2620000Y5840000D02*
X-2620000Y4920000D01*
X-2620000Y4920000D02*
X-4440000Y4920000D01*
%TO.C,C3*%
X3680000Y5840000D02*
X5500000Y5840000D01*
X3680000Y4920000D02*
X3680000Y5840000D01*
X5500000Y5840000D02*
X5500000Y4920000D01*
X5500000Y4920000D02*
X3680000Y4920000D01*
%TO.C,R11*%
X8620000Y-4540000D02*
X10480000Y-4540000D01*
X8620000Y-5480000D02*
X8620000Y-4540000D01*
X10480000Y-4540000D02*
X10480000Y-5480000D01*
X10480000Y-5480000D02*
X8620000Y-5480000D01*
%TD*%
M02*
