%TF.GenerationSoftware,KiCad,Pcbnew,9.0.6-9.0.6~ubuntu24.04.1*%
%TF.CreationDate,2025-11-26T01:33:41+08:00*%
%TF.ProjectId,demo,64656d6f-2e6b-4696-9361-645f70636258,V1.0.1*%
%TF.SameCoordinates,PX5f5e100PY5f5e100*%
%TF.FileFunction,AssemblyDrawing,Top*%
%FSLAX46Y46*%
G04 Gerber Fmt 4.6, Leading zero omitted, Abs format (unit mm)*
G04 Created by KiCad (PCBNEW 9.0.6-9.0.6~ubuntu24.04.1) date 2025-11-26 01:33:41*
%MOMM*%
%LPD*%
G01*
G04 APERTURE LIST*
%ADD10C,0.040000*%
%ADD11C,0.150000*%
%ADD12C,0.120000*%
%ADD13C,0.110000*%
%ADD14C,0.060000*%
%ADD15C,0.100000*%
%ADD16C,0.100000*%
%TD*%
G04 APERTURE END LIST*
D10*
X19166667Y1481800D02*
X19080000Y1605609D01*
X19018095Y1481800D02*
X19018095Y1741800D01*
X19018095Y1741800D02*
X19117143Y1741800D01*
X19117143Y1741800D02*
X19141905Y1729419D01*
X19141905Y1729419D02*
X19154286Y1717038D01*
X19154286Y1717038D02*
X19166667Y1692276D01*
X19166667Y1692276D02*
X19166667Y1655133D01*
X19166667Y1655133D02*
X19154286Y1630371D01*
X19154286Y1630371D02*
X19141905Y1617990D01*
X19141905Y1617990D02*
X19117143Y1605609D01*
X19117143Y1605609D02*
X19018095Y1605609D01*
X19290476Y1481800D02*
X19340000Y1481800D01*
X19340000Y1481800D02*
X19364762Y1494180D01*
X19364762Y1494180D02*
X19377143Y1506561D01*
X19377143Y1506561D02*
X19401905Y1543704D01*
X19401905Y1543704D02*
X19414286Y1593228D01*
X19414286Y1593228D02*
X19414286Y1692276D01*
X19414286Y1692276D02*
X19401905Y1717038D01*
X19401905Y1717038D02*
X19389524Y1729419D01*
X19389524Y1729419D02*
X19364762Y1741800D01*
X19364762Y1741800D02*
X19315238Y1741800D01*
X19315238Y1741800D02*
X19290476Y1729419D01*
X19290476Y1729419D02*
X19278095Y1717038D01*
X19278095Y1717038D02*
X19265714Y1692276D01*
X19265714Y1692276D02*
X19265714Y1630371D01*
X19265714Y1630371D02*
X19278095Y1605609D01*
X19278095Y1605609D02*
X19290476Y1593228D01*
X19290476Y1593228D02*
X19315238Y1580847D01*
X19315238Y1580847D02*
X19364762Y1580847D01*
X19364762Y1580847D02*
X19389524Y1593228D01*
X19389524Y1593228D02*
X19401905Y1605609D01*
X19401905Y1605609D02*
X19414286Y1630371D01*
X16835476Y1486426D02*
X16835476Y1736426D01*
X16835476Y1736426D02*
X16895000Y1736426D01*
X16895000Y1736426D02*
X16930714Y1724521D01*
X16930714Y1724521D02*
X16954524Y1700711D01*
X16954524Y1700711D02*
X16966429Y1676902D01*
X16966429Y1676902D02*
X16978333Y1629283D01*
X16978333Y1629283D02*
X16978333Y1593569D01*
X16978333Y1593569D02*
X16966429Y1545950D01*
X16966429Y1545950D02*
X16954524Y1522140D01*
X16954524Y1522140D02*
X16930714Y1498330D01*
X16930714Y1498330D02*
X16895000Y1486426D01*
X16895000Y1486426D02*
X16835476Y1486426D01*
X17073572Y1712616D02*
X17085476Y1724521D01*
X17085476Y1724521D02*
X17109286Y1736426D01*
X17109286Y1736426D02*
X17168810Y1736426D01*
X17168810Y1736426D02*
X17192619Y1724521D01*
X17192619Y1724521D02*
X17204524Y1712616D01*
X17204524Y1712616D02*
X17216429Y1688807D01*
X17216429Y1688807D02*
X17216429Y1664997D01*
X17216429Y1664997D02*
X17204524Y1629283D01*
X17204524Y1629283D02*
X17061667Y1486426D01*
X17061667Y1486426D02*
X17216429Y1486426D01*
X19166667Y2581800D02*
X19080000Y2705609D01*
X19018095Y2581800D02*
X19018095Y2841800D01*
X19018095Y2841800D02*
X19117143Y2841800D01*
X19117143Y2841800D02*
X19141905Y2829419D01*
X19141905Y2829419D02*
X19154286Y2817038D01*
X19154286Y2817038D02*
X19166667Y2792276D01*
X19166667Y2792276D02*
X19166667Y2755133D01*
X19166667Y2755133D02*
X19154286Y2730371D01*
X19154286Y2730371D02*
X19141905Y2717990D01*
X19141905Y2717990D02*
X19117143Y2705609D01*
X19117143Y2705609D02*
X19018095Y2705609D01*
X19315238Y2730371D02*
X19290476Y2742752D01*
X19290476Y2742752D02*
X19278095Y2755133D01*
X19278095Y2755133D02*
X19265714Y2779895D01*
X19265714Y2779895D02*
X19265714Y2792276D01*
X19265714Y2792276D02*
X19278095Y2817038D01*
X19278095Y2817038D02*
X19290476Y2829419D01*
X19290476Y2829419D02*
X19315238Y2841800D01*
X19315238Y2841800D02*
X19364762Y2841800D01*
X19364762Y2841800D02*
X19389524Y2829419D01*
X19389524Y2829419D02*
X19401905Y2817038D01*
X19401905Y2817038D02*
X19414286Y2792276D01*
X19414286Y2792276D02*
X19414286Y2779895D01*
X19414286Y2779895D02*
X19401905Y2755133D01*
X19401905Y2755133D02*
X19389524Y2742752D01*
X19389524Y2742752D02*
X19364762Y2730371D01*
X19364762Y2730371D02*
X19315238Y2730371D01*
X19315238Y2730371D02*
X19290476Y2717990D01*
X19290476Y2717990D02*
X19278095Y2705609D01*
X19278095Y2705609D02*
X19265714Y2680847D01*
X19265714Y2680847D02*
X19265714Y2631323D01*
X19265714Y2631323D02*
X19278095Y2606561D01*
X19278095Y2606561D02*
X19290476Y2594180D01*
X19290476Y2594180D02*
X19315238Y2581800D01*
X19315238Y2581800D02*
X19364762Y2581800D01*
X19364762Y2581800D02*
X19389524Y2594180D01*
X19389524Y2594180D02*
X19401905Y2606561D01*
X19401905Y2606561D02*
X19414286Y2631323D01*
X19414286Y2631323D02*
X19414286Y2680847D01*
X19414286Y2680847D02*
X19401905Y2705609D01*
X19401905Y2705609D02*
X19389524Y2717990D01*
X19389524Y2717990D02*
X19364762Y2730371D01*
D11*
X2095180Y7803334D02*
X1380895Y7803334D01*
X1380895Y7803334D02*
X1238038Y7850953D01*
X1238038Y7850953D02*
X1142800Y7946191D01*
X1142800Y7946191D02*
X1095180Y8089048D01*
X1095180Y8089048D02*
X1095180Y8184286D01*
X1095180Y6803334D02*
X1095180Y7374762D01*
X1095180Y7089048D02*
X2095180Y7089048D01*
X2095180Y7089048D02*
X1952323Y7184286D01*
X1952323Y7184286D02*
X1857085Y7279524D01*
X1857085Y7279524D02*
X1809466Y7374762D01*
D12*
X23632902Y7919049D02*
X24013855Y7919049D01*
X23213855Y7652382D02*
X23632902Y7919049D01*
X23632902Y7919049D02*
X23213855Y8185715D01*
X24013855Y8871429D02*
X24013855Y8414286D01*
X24013855Y8642858D02*
X23213855Y8642858D01*
X23213855Y8642858D02*
X23328140Y8566667D01*
X23328140Y8566667D02*
X23404331Y8490477D01*
X23404331Y8490477D02*
X23442426Y8414286D01*
D11*
X30288095Y9207681D02*
X30288095Y8398158D01*
X30288095Y8398158D02*
X30335714Y8302920D01*
X30335714Y8302920D02*
X30383333Y8255300D01*
X30383333Y8255300D02*
X30478571Y8207681D01*
X30478571Y8207681D02*
X30669047Y8207681D01*
X30669047Y8207681D02*
X30764285Y8255300D01*
X30764285Y8255300D02*
X30811904Y8302920D01*
X30811904Y8302920D02*
X30859523Y8398158D01*
X30859523Y8398158D02*
X30859523Y9207681D01*
X31288095Y9112443D02*
X31335714Y9160062D01*
X31335714Y9160062D02*
X31430952Y9207681D01*
X31430952Y9207681D02*
X31669047Y9207681D01*
X31669047Y9207681D02*
X31764285Y9160062D01*
X31764285Y9160062D02*
X31811904Y9112443D01*
X31811904Y9112443D02*
X31859523Y9017205D01*
X31859523Y9017205D02*
X31859523Y8921967D01*
X31859523Y8921967D02*
X31811904Y8779110D01*
X31811904Y8779110D02*
X31240476Y8207681D01*
X31240476Y8207681D02*
X31859523Y8207681D01*
D12*
X15527976Y9486145D02*
X15527976Y8838526D01*
X15527976Y8838526D02*
X15566071Y8762336D01*
X15566071Y8762336D02*
X15604166Y8724240D01*
X15604166Y8724240D02*
X15680357Y8686145D01*
X15680357Y8686145D02*
X15832738Y8686145D01*
X15832738Y8686145D02*
X15908928Y8724240D01*
X15908928Y8724240D02*
X15947023Y8762336D01*
X15947023Y8762336D02*
X15985119Y8838526D01*
X15985119Y8838526D02*
X15985119Y9486145D01*
X16785118Y8686145D02*
X16327975Y8686145D01*
X16556547Y8686145D02*
X16556547Y9486145D01*
X16556547Y9486145D02*
X16480356Y9371860D01*
X16480356Y9371860D02*
X16404166Y9295669D01*
X16404166Y9295669D02*
X16327975Y9257574D01*
D10*
X23422857Y1481800D02*
X23336190Y1605609D01*
X23274285Y1481800D02*
X23274285Y1741800D01*
X23274285Y1741800D02*
X23373333Y1741800D01*
X23373333Y1741800D02*
X23398095Y1729419D01*
X23398095Y1729419D02*
X23410476Y1717038D01*
X23410476Y1717038D02*
X23422857Y1692276D01*
X23422857Y1692276D02*
X23422857Y1655133D01*
X23422857Y1655133D02*
X23410476Y1630371D01*
X23410476Y1630371D02*
X23398095Y1617990D01*
X23398095Y1617990D02*
X23373333Y1605609D01*
X23373333Y1605609D02*
X23274285Y1605609D01*
X23521904Y1717038D02*
X23534285Y1729419D01*
X23534285Y1729419D02*
X23559047Y1741800D01*
X23559047Y1741800D02*
X23620952Y1741800D01*
X23620952Y1741800D02*
X23645714Y1729419D01*
X23645714Y1729419D02*
X23658095Y1717038D01*
X23658095Y1717038D02*
X23670476Y1692276D01*
X23670476Y1692276D02*
X23670476Y1667514D01*
X23670476Y1667514D02*
X23658095Y1630371D01*
X23658095Y1630371D02*
X23509523Y1481800D01*
X23509523Y1481800D02*
X23670476Y1481800D01*
X23757142Y1741800D02*
X23918095Y1741800D01*
X23918095Y1741800D02*
X23831428Y1642752D01*
X23831428Y1642752D02*
X23868571Y1642752D01*
X23868571Y1642752D02*
X23893333Y1630371D01*
X23893333Y1630371D02*
X23905714Y1617990D01*
X23905714Y1617990D02*
X23918095Y1593228D01*
X23918095Y1593228D02*
X23918095Y1531323D01*
X23918095Y1531323D02*
X23905714Y1506561D01*
X23905714Y1506561D02*
X23893333Y1494180D01*
X23893333Y1494180D02*
X23868571Y1481800D01*
X23868571Y1481800D02*
X23794285Y1481800D01*
X23794285Y1481800D02*
X23769523Y1494180D01*
X23769523Y1494180D02*
X23757142Y1506561D01*
X23412857Y2581800D02*
X23326190Y2705609D01*
X23264285Y2581800D02*
X23264285Y2841800D01*
X23264285Y2841800D02*
X23363333Y2841800D01*
X23363333Y2841800D02*
X23388095Y2829419D01*
X23388095Y2829419D02*
X23400476Y2817038D01*
X23400476Y2817038D02*
X23412857Y2792276D01*
X23412857Y2792276D02*
X23412857Y2755133D01*
X23412857Y2755133D02*
X23400476Y2730371D01*
X23400476Y2730371D02*
X23388095Y2717990D01*
X23388095Y2717990D02*
X23363333Y2705609D01*
X23363333Y2705609D02*
X23264285Y2705609D01*
X23511904Y2817038D02*
X23524285Y2829419D01*
X23524285Y2829419D02*
X23549047Y2841800D01*
X23549047Y2841800D02*
X23610952Y2841800D01*
X23610952Y2841800D02*
X23635714Y2829419D01*
X23635714Y2829419D02*
X23648095Y2817038D01*
X23648095Y2817038D02*
X23660476Y2792276D01*
X23660476Y2792276D02*
X23660476Y2767514D01*
X23660476Y2767514D02*
X23648095Y2730371D01*
X23648095Y2730371D02*
X23499523Y2581800D01*
X23499523Y2581800D02*
X23660476Y2581800D01*
X23759523Y2817038D02*
X23771904Y2829419D01*
X23771904Y2829419D02*
X23796666Y2841800D01*
X23796666Y2841800D02*
X23858571Y2841800D01*
X23858571Y2841800D02*
X23883333Y2829419D01*
X23883333Y2829419D02*
X23895714Y2817038D01*
X23895714Y2817038D02*
X23908095Y2792276D01*
X23908095Y2792276D02*
X23908095Y2767514D01*
X23908095Y2767514D02*
X23895714Y2730371D01*
X23895714Y2730371D02*
X23747142Y2581800D01*
X23747142Y2581800D02*
X23908095Y2581800D01*
X25832857Y1481800D02*
X25746190Y1605609D01*
X25684285Y1481800D02*
X25684285Y1741800D01*
X25684285Y1741800D02*
X25783333Y1741800D01*
X25783333Y1741800D02*
X25808095Y1729419D01*
X25808095Y1729419D02*
X25820476Y1717038D01*
X25820476Y1717038D02*
X25832857Y1692276D01*
X25832857Y1692276D02*
X25832857Y1655133D01*
X25832857Y1655133D02*
X25820476Y1630371D01*
X25820476Y1630371D02*
X25808095Y1617990D01*
X25808095Y1617990D02*
X25783333Y1605609D01*
X25783333Y1605609D02*
X25684285Y1605609D01*
X25931904Y1717038D02*
X25944285Y1729419D01*
X25944285Y1729419D02*
X25969047Y1741800D01*
X25969047Y1741800D02*
X26030952Y1741800D01*
X26030952Y1741800D02*
X26055714Y1729419D01*
X26055714Y1729419D02*
X26068095Y1717038D01*
X26068095Y1717038D02*
X26080476Y1692276D01*
X26080476Y1692276D02*
X26080476Y1667514D01*
X26080476Y1667514D02*
X26068095Y1630371D01*
X26068095Y1630371D02*
X25919523Y1481800D01*
X25919523Y1481800D02*
X26080476Y1481800D01*
X26328095Y1481800D02*
X26179523Y1481800D01*
X26253809Y1481800D02*
X26253809Y1741800D01*
X26253809Y1741800D02*
X26229047Y1704657D01*
X26229047Y1704657D02*
X26204285Y1679895D01*
X26204285Y1679895D02*
X26179523Y1667514D01*
X22632857Y10881800D02*
X22546190Y11005609D01*
X22484285Y10881800D02*
X22484285Y11141800D01*
X22484285Y11141800D02*
X22583333Y11141800D01*
X22583333Y11141800D02*
X22608095Y11129419D01*
X22608095Y11129419D02*
X22620476Y11117038D01*
X22620476Y11117038D02*
X22632857Y11092276D01*
X22632857Y11092276D02*
X22632857Y11055133D01*
X22632857Y11055133D02*
X22620476Y11030371D01*
X22620476Y11030371D02*
X22608095Y11017990D01*
X22608095Y11017990D02*
X22583333Y11005609D01*
X22583333Y11005609D02*
X22484285Y11005609D01*
X22731904Y11117038D02*
X22744285Y11129419D01*
X22744285Y11129419D02*
X22769047Y11141800D01*
X22769047Y11141800D02*
X22830952Y11141800D01*
X22830952Y11141800D02*
X22855714Y11129419D01*
X22855714Y11129419D02*
X22868095Y11117038D01*
X22868095Y11117038D02*
X22880476Y11092276D01*
X22880476Y11092276D02*
X22880476Y11067514D01*
X22880476Y11067514D02*
X22868095Y11030371D01*
X22868095Y11030371D02*
X22719523Y10881800D01*
X22719523Y10881800D02*
X22880476Y10881800D01*
X23041428Y11141800D02*
X23066190Y11141800D01*
X23066190Y11141800D02*
X23090952Y11129419D01*
X23090952Y11129419D02*
X23103333Y11117038D01*
X23103333Y11117038D02*
X23115714Y11092276D01*
X23115714Y11092276D02*
X23128095Y11042752D01*
X23128095Y11042752D02*
X23128095Y10980847D01*
X23128095Y10980847D02*
X23115714Y10931323D01*
X23115714Y10931323D02*
X23103333Y10906561D01*
X23103333Y10906561D02*
X23090952Y10894180D01*
X23090952Y10894180D02*
X23066190Y10881800D01*
X23066190Y10881800D02*
X23041428Y10881800D01*
X23041428Y10881800D02*
X23016666Y10894180D01*
X23016666Y10894180D02*
X23004285Y10906561D01*
X23004285Y10906561D02*
X22991904Y10931323D01*
X22991904Y10931323D02*
X22979523Y10980847D01*
X22979523Y10980847D02*
X22979523Y11042752D01*
X22979523Y11042752D02*
X22991904Y11092276D01*
X22991904Y11092276D02*
X23004285Y11117038D01*
X23004285Y11117038D02*
X23016666Y11129419D01*
X23016666Y11129419D02*
X23041428Y11141800D01*
X22632857Y11881800D02*
X22546190Y12005609D01*
X22484285Y11881800D02*
X22484285Y12141800D01*
X22484285Y12141800D02*
X22583333Y12141800D01*
X22583333Y12141800D02*
X22608095Y12129419D01*
X22608095Y12129419D02*
X22620476Y12117038D01*
X22620476Y12117038D02*
X22632857Y12092276D01*
X22632857Y12092276D02*
X22632857Y12055133D01*
X22632857Y12055133D02*
X22620476Y12030371D01*
X22620476Y12030371D02*
X22608095Y12017990D01*
X22608095Y12017990D02*
X22583333Y12005609D01*
X22583333Y12005609D02*
X22484285Y12005609D01*
X22880476Y11881800D02*
X22731904Y11881800D01*
X22806190Y11881800D02*
X22806190Y12141800D01*
X22806190Y12141800D02*
X22781428Y12104657D01*
X22781428Y12104657D02*
X22756666Y12079895D01*
X22756666Y12079895D02*
X22731904Y12067514D01*
X23004285Y11881800D02*
X23053809Y11881800D01*
X23053809Y11881800D02*
X23078571Y11894180D01*
X23078571Y11894180D02*
X23090952Y11906561D01*
X23090952Y11906561D02*
X23115714Y11943704D01*
X23115714Y11943704D02*
X23128095Y11993228D01*
X23128095Y11993228D02*
X23128095Y12092276D01*
X23128095Y12092276D02*
X23115714Y12117038D01*
X23115714Y12117038D02*
X23103333Y12129419D01*
X23103333Y12129419D02*
X23078571Y12141800D01*
X23078571Y12141800D02*
X23029047Y12141800D01*
X23029047Y12141800D02*
X23004285Y12129419D01*
X23004285Y12129419D02*
X22991904Y12117038D01*
X22991904Y12117038D02*
X22979523Y12092276D01*
X22979523Y12092276D02*
X22979523Y12030371D01*
X22979523Y12030371D02*
X22991904Y12005609D01*
X22991904Y12005609D02*
X23004285Y11993228D01*
X23004285Y11993228D02*
X23029047Y11980847D01*
X23029047Y11980847D02*
X23078571Y11980847D01*
X23078571Y11980847D02*
X23103333Y11993228D01*
X23103333Y11993228D02*
X23115714Y12005609D01*
X23115714Y12005609D02*
X23128095Y12030371D01*
X37522857Y5781800D02*
X37436190Y5905609D01*
X37374285Y5781800D02*
X37374285Y6041800D01*
X37374285Y6041800D02*
X37473333Y6041800D01*
X37473333Y6041800D02*
X37498095Y6029419D01*
X37498095Y6029419D02*
X37510476Y6017038D01*
X37510476Y6017038D02*
X37522857Y5992276D01*
X37522857Y5992276D02*
X37522857Y5955133D01*
X37522857Y5955133D02*
X37510476Y5930371D01*
X37510476Y5930371D02*
X37498095Y5917990D01*
X37498095Y5917990D02*
X37473333Y5905609D01*
X37473333Y5905609D02*
X37374285Y5905609D01*
X37770476Y5781800D02*
X37621904Y5781800D01*
X37696190Y5781800D02*
X37696190Y6041800D01*
X37696190Y6041800D02*
X37671428Y6004657D01*
X37671428Y6004657D02*
X37646666Y5979895D01*
X37646666Y5979895D02*
X37621904Y5967514D01*
X37919047Y5930371D02*
X37894285Y5942752D01*
X37894285Y5942752D02*
X37881904Y5955133D01*
X37881904Y5955133D02*
X37869523Y5979895D01*
X37869523Y5979895D02*
X37869523Y5992276D01*
X37869523Y5992276D02*
X37881904Y6017038D01*
X37881904Y6017038D02*
X37894285Y6029419D01*
X37894285Y6029419D02*
X37919047Y6041800D01*
X37919047Y6041800D02*
X37968571Y6041800D01*
X37968571Y6041800D02*
X37993333Y6029419D01*
X37993333Y6029419D02*
X38005714Y6017038D01*
X38005714Y6017038D02*
X38018095Y5992276D01*
X38018095Y5992276D02*
X38018095Y5979895D01*
X38018095Y5979895D02*
X38005714Y5955133D01*
X38005714Y5955133D02*
X37993333Y5942752D01*
X37993333Y5942752D02*
X37968571Y5930371D01*
X37968571Y5930371D02*
X37919047Y5930371D01*
X37919047Y5930371D02*
X37894285Y5917990D01*
X37894285Y5917990D02*
X37881904Y5905609D01*
X37881904Y5905609D02*
X37869523Y5880847D01*
X37869523Y5880847D02*
X37869523Y5831323D01*
X37869523Y5831323D02*
X37881904Y5806561D01*
X37881904Y5806561D02*
X37894285Y5794180D01*
X37894285Y5794180D02*
X37919047Y5781800D01*
X37919047Y5781800D02*
X37968571Y5781800D01*
X37968571Y5781800D02*
X37993333Y5794180D01*
X37993333Y5794180D02*
X38005714Y5806561D01*
X38005714Y5806561D02*
X38018095Y5831323D01*
X38018095Y5831323D02*
X38018095Y5880847D01*
X38018095Y5880847D02*
X38005714Y5905609D01*
X38005714Y5905609D02*
X37993333Y5917990D01*
X37993333Y5917990D02*
X37968571Y5930371D01*
X22632857Y12881800D02*
X22546190Y13005609D01*
X22484285Y12881800D02*
X22484285Y13141800D01*
X22484285Y13141800D02*
X22583333Y13141800D01*
X22583333Y13141800D02*
X22608095Y13129419D01*
X22608095Y13129419D02*
X22620476Y13117038D01*
X22620476Y13117038D02*
X22632857Y13092276D01*
X22632857Y13092276D02*
X22632857Y13055133D01*
X22632857Y13055133D02*
X22620476Y13030371D01*
X22620476Y13030371D02*
X22608095Y13017990D01*
X22608095Y13017990D02*
X22583333Y13005609D01*
X22583333Y13005609D02*
X22484285Y13005609D01*
X22880476Y12881800D02*
X22731904Y12881800D01*
X22806190Y12881800D02*
X22806190Y13141800D01*
X22806190Y13141800D02*
X22781428Y13104657D01*
X22781428Y13104657D02*
X22756666Y13079895D01*
X22756666Y13079895D02*
X22731904Y13067514D01*
X22967142Y13141800D02*
X23140476Y13141800D01*
X23140476Y13141800D02*
X23029047Y12881800D01*
X21242857Y2581800D02*
X21156190Y2705609D01*
X21094285Y2581800D02*
X21094285Y2841800D01*
X21094285Y2841800D02*
X21193333Y2841800D01*
X21193333Y2841800D02*
X21218095Y2829419D01*
X21218095Y2829419D02*
X21230476Y2817038D01*
X21230476Y2817038D02*
X21242857Y2792276D01*
X21242857Y2792276D02*
X21242857Y2755133D01*
X21242857Y2755133D02*
X21230476Y2730371D01*
X21230476Y2730371D02*
X21218095Y2717990D01*
X21218095Y2717990D02*
X21193333Y2705609D01*
X21193333Y2705609D02*
X21094285Y2705609D01*
X21490476Y2581800D02*
X21341904Y2581800D01*
X21416190Y2581800D02*
X21416190Y2841800D01*
X21416190Y2841800D02*
X21391428Y2804657D01*
X21391428Y2804657D02*
X21366666Y2779895D01*
X21366666Y2779895D02*
X21341904Y2767514D01*
X21713333Y2841800D02*
X21663809Y2841800D01*
X21663809Y2841800D02*
X21639047Y2829419D01*
X21639047Y2829419D02*
X21626666Y2817038D01*
X21626666Y2817038D02*
X21601904Y2779895D01*
X21601904Y2779895D02*
X21589523Y2730371D01*
X21589523Y2730371D02*
X21589523Y2631323D01*
X21589523Y2631323D02*
X21601904Y2606561D01*
X21601904Y2606561D02*
X21614285Y2594180D01*
X21614285Y2594180D02*
X21639047Y2581800D01*
X21639047Y2581800D02*
X21688571Y2581800D01*
X21688571Y2581800D02*
X21713333Y2594180D01*
X21713333Y2594180D02*
X21725714Y2606561D01*
X21725714Y2606561D02*
X21738095Y2631323D01*
X21738095Y2631323D02*
X21738095Y2693228D01*
X21738095Y2693228D02*
X21725714Y2717990D01*
X21725714Y2717990D02*
X21713333Y2730371D01*
X21713333Y2730371D02*
X21688571Y2742752D01*
X21688571Y2742752D02*
X21639047Y2742752D01*
X21639047Y2742752D02*
X21614285Y2730371D01*
X21614285Y2730371D02*
X21601904Y2717990D01*
X21601904Y2717990D02*
X21589523Y2693228D01*
X35222857Y1381800D02*
X35136190Y1505609D01*
X35074285Y1381800D02*
X35074285Y1641800D01*
X35074285Y1641800D02*
X35173333Y1641800D01*
X35173333Y1641800D02*
X35198095Y1629419D01*
X35198095Y1629419D02*
X35210476Y1617038D01*
X35210476Y1617038D02*
X35222857Y1592276D01*
X35222857Y1592276D02*
X35222857Y1555133D01*
X35222857Y1555133D02*
X35210476Y1530371D01*
X35210476Y1530371D02*
X35198095Y1517990D01*
X35198095Y1517990D02*
X35173333Y1505609D01*
X35173333Y1505609D02*
X35074285Y1505609D01*
X35470476Y1381800D02*
X35321904Y1381800D01*
X35396190Y1381800D02*
X35396190Y1641800D01*
X35396190Y1641800D02*
X35371428Y1604657D01*
X35371428Y1604657D02*
X35346666Y1579895D01*
X35346666Y1579895D02*
X35321904Y1567514D01*
X35705714Y1641800D02*
X35581904Y1641800D01*
X35581904Y1641800D02*
X35569523Y1517990D01*
X35569523Y1517990D02*
X35581904Y1530371D01*
X35581904Y1530371D02*
X35606666Y1542752D01*
X35606666Y1542752D02*
X35668571Y1542752D01*
X35668571Y1542752D02*
X35693333Y1530371D01*
X35693333Y1530371D02*
X35705714Y1517990D01*
X35705714Y1517990D02*
X35718095Y1493228D01*
X35718095Y1493228D02*
X35718095Y1431323D01*
X35718095Y1431323D02*
X35705714Y1406561D01*
X35705714Y1406561D02*
X35693333Y1394180D01*
X35693333Y1394180D02*
X35668571Y1381800D01*
X35668571Y1381800D02*
X35606666Y1381800D01*
X35606666Y1381800D02*
X35581904Y1394180D01*
X35581904Y1394180D02*
X35569523Y1406561D01*
X35202857Y2781800D02*
X35116190Y2905609D01*
X35054285Y2781800D02*
X35054285Y3041800D01*
X35054285Y3041800D02*
X35153333Y3041800D01*
X35153333Y3041800D02*
X35178095Y3029419D01*
X35178095Y3029419D02*
X35190476Y3017038D01*
X35190476Y3017038D02*
X35202857Y2992276D01*
X35202857Y2992276D02*
X35202857Y2955133D01*
X35202857Y2955133D02*
X35190476Y2930371D01*
X35190476Y2930371D02*
X35178095Y2917990D01*
X35178095Y2917990D02*
X35153333Y2905609D01*
X35153333Y2905609D02*
X35054285Y2905609D01*
X35450476Y2781800D02*
X35301904Y2781800D01*
X35376190Y2781800D02*
X35376190Y3041800D01*
X35376190Y3041800D02*
X35351428Y3004657D01*
X35351428Y3004657D02*
X35326666Y2979895D01*
X35326666Y2979895D02*
X35301904Y2967514D01*
X35673333Y2955133D02*
X35673333Y2781800D01*
X35611428Y3054180D02*
X35549523Y2868466D01*
X35549523Y2868466D02*
X35710476Y2868466D01*
X37532857Y6881800D02*
X37446190Y7005609D01*
X37384285Y6881800D02*
X37384285Y7141800D01*
X37384285Y7141800D02*
X37483333Y7141800D01*
X37483333Y7141800D02*
X37508095Y7129419D01*
X37508095Y7129419D02*
X37520476Y7117038D01*
X37520476Y7117038D02*
X37532857Y7092276D01*
X37532857Y7092276D02*
X37532857Y7055133D01*
X37532857Y7055133D02*
X37520476Y7030371D01*
X37520476Y7030371D02*
X37508095Y7017990D01*
X37508095Y7017990D02*
X37483333Y7005609D01*
X37483333Y7005609D02*
X37384285Y7005609D01*
X37780476Y6881800D02*
X37631904Y6881800D01*
X37706190Y6881800D02*
X37706190Y7141800D01*
X37706190Y7141800D02*
X37681428Y7104657D01*
X37681428Y7104657D02*
X37656666Y7079895D01*
X37656666Y7079895D02*
X37631904Y7067514D01*
X37867142Y7141800D02*
X38028095Y7141800D01*
X38028095Y7141800D02*
X37941428Y7042752D01*
X37941428Y7042752D02*
X37978571Y7042752D01*
X37978571Y7042752D02*
X38003333Y7030371D01*
X38003333Y7030371D02*
X38015714Y7017990D01*
X38015714Y7017990D02*
X38028095Y6993228D01*
X38028095Y6993228D02*
X38028095Y6931323D01*
X38028095Y6931323D02*
X38015714Y6906561D01*
X38015714Y6906561D02*
X38003333Y6894180D01*
X38003333Y6894180D02*
X37978571Y6881800D01*
X37978571Y6881800D02*
X37904285Y6881800D01*
X37904285Y6881800D02*
X37879523Y6894180D01*
X37879523Y6894180D02*
X37867142Y6906561D01*
X37522857Y9081800D02*
X37436190Y9205609D01*
X37374285Y9081800D02*
X37374285Y9341800D01*
X37374285Y9341800D02*
X37473333Y9341800D01*
X37473333Y9341800D02*
X37498095Y9329419D01*
X37498095Y9329419D02*
X37510476Y9317038D01*
X37510476Y9317038D02*
X37522857Y9292276D01*
X37522857Y9292276D02*
X37522857Y9255133D01*
X37522857Y9255133D02*
X37510476Y9230371D01*
X37510476Y9230371D02*
X37498095Y9217990D01*
X37498095Y9217990D02*
X37473333Y9205609D01*
X37473333Y9205609D02*
X37374285Y9205609D01*
X37770476Y9081800D02*
X37621904Y9081800D01*
X37696190Y9081800D02*
X37696190Y9341800D01*
X37696190Y9341800D02*
X37671428Y9304657D01*
X37671428Y9304657D02*
X37646666Y9279895D01*
X37646666Y9279895D02*
X37621904Y9267514D01*
X37869523Y9317038D02*
X37881904Y9329419D01*
X37881904Y9329419D02*
X37906666Y9341800D01*
X37906666Y9341800D02*
X37968571Y9341800D01*
X37968571Y9341800D02*
X37993333Y9329419D01*
X37993333Y9329419D02*
X38005714Y9317038D01*
X38005714Y9317038D02*
X38018095Y9292276D01*
X38018095Y9292276D02*
X38018095Y9267514D01*
X38018095Y9267514D02*
X38005714Y9230371D01*
X38005714Y9230371D02*
X37857142Y9081800D01*
X37857142Y9081800D02*
X38018095Y9081800D01*
X37532857Y4681800D02*
X37446190Y4805609D01*
X37384285Y4681800D02*
X37384285Y4941800D01*
X37384285Y4941800D02*
X37483333Y4941800D01*
X37483333Y4941800D02*
X37508095Y4929419D01*
X37508095Y4929419D02*
X37520476Y4917038D01*
X37520476Y4917038D02*
X37532857Y4892276D01*
X37532857Y4892276D02*
X37532857Y4855133D01*
X37532857Y4855133D02*
X37520476Y4830371D01*
X37520476Y4830371D02*
X37508095Y4817990D01*
X37508095Y4817990D02*
X37483333Y4805609D01*
X37483333Y4805609D02*
X37384285Y4805609D01*
X37780476Y4681800D02*
X37631904Y4681800D01*
X37706190Y4681800D02*
X37706190Y4941800D01*
X37706190Y4941800D02*
X37681428Y4904657D01*
X37681428Y4904657D02*
X37656666Y4879895D01*
X37656666Y4879895D02*
X37631904Y4867514D01*
X38028095Y4681800D02*
X37879523Y4681800D01*
X37953809Y4681800D02*
X37953809Y4941800D01*
X37953809Y4941800D02*
X37929047Y4904657D01*
X37929047Y4904657D02*
X37904285Y4879895D01*
X37904285Y4879895D02*
X37879523Y4867514D01*
X37532857Y7981800D02*
X37446190Y8105609D01*
X37384285Y7981800D02*
X37384285Y8241800D01*
X37384285Y8241800D02*
X37483333Y8241800D01*
X37483333Y8241800D02*
X37508095Y8229419D01*
X37508095Y8229419D02*
X37520476Y8217038D01*
X37520476Y8217038D02*
X37532857Y8192276D01*
X37532857Y8192276D02*
X37532857Y8155133D01*
X37532857Y8155133D02*
X37520476Y8130371D01*
X37520476Y8130371D02*
X37508095Y8117990D01*
X37508095Y8117990D02*
X37483333Y8105609D01*
X37483333Y8105609D02*
X37384285Y8105609D01*
X37780476Y7981800D02*
X37631904Y7981800D01*
X37706190Y7981800D02*
X37706190Y8241800D01*
X37706190Y8241800D02*
X37681428Y8204657D01*
X37681428Y8204657D02*
X37656666Y8179895D01*
X37656666Y8179895D02*
X37631904Y8167514D01*
X37941428Y8241800D02*
X37966190Y8241800D01*
X37966190Y8241800D02*
X37990952Y8229419D01*
X37990952Y8229419D02*
X38003333Y8217038D01*
X38003333Y8217038D02*
X38015714Y8192276D01*
X38015714Y8192276D02*
X38028095Y8142752D01*
X38028095Y8142752D02*
X38028095Y8080847D01*
X38028095Y8080847D02*
X38015714Y8031323D01*
X38015714Y8031323D02*
X38003333Y8006561D01*
X38003333Y8006561D02*
X37990952Y7994180D01*
X37990952Y7994180D02*
X37966190Y7981800D01*
X37966190Y7981800D02*
X37941428Y7981800D01*
X37941428Y7981800D02*
X37916666Y7994180D01*
X37916666Y7994180D02*
X37904285Y8006561D01*
X37904285Y8006561D02*
X37891904Y8031323D01*
X37891904Y8031323D02*
X37879523Y8080847D01*
X37879523Y8080847D02*
X37879523Y8142752D01*
X37879523Y8142752D02*
X37891904Y8192276D01*
X37891904Y8192276D02*
X37904285Y8217038D01*
X37904285Y8217038D02*
X37916666Y8229419D01*
X37916666Y8229419D02*
X37941428Y8241800D01*
X14856667Y1481800D02*
X14770000Y1605609D01*
X14708095Y1481800D02*
X14708095Y1741800D01*
X14708095Y1741800D02*
X14807143Y1741800D01*
X14807143Y1741800D02*
X14831905Y1729419D01*
X14831905Y1729419D02*
X14844286Y1717038D01*
X14844286Y1717038D02*
X14856667Y1692276D01*
X14856667Y1692276D02*
X14856667Y1655133D01*
X14856667Y1655133D02*
X14844286Y1630371D01*
X14844286Y1630371D02*
X14831905Y1617990D01*
X14831905Y1617990D02*
X14807143Y1605609D01*
X14807143Y1605609D02*
X14708095Y1605609D01*
X14943333Y1741800D02*
X15116667Y1741800D01*
X15116667Y1741800D02*
X15005238Y1481800D01*
X14856667Y2581800D02*
X14770000Y2705609D01*
X14708095Y2581800D02*
X14708095Y2841800D01*
X14708095Y2841800D02*
X14807143Y2841800D01*
X14807143Y2841800D02*
X14831905Y2829419D01*
X14831905Y2829419D02*
X14844286Y2817038D01*
X14844286Y2817038D02*
X14856667Y2792276D01*
X14856667Y2792276D02*
X14856667Y2755133D01*
X14856667Y2755133D02*
X14844286Y2730371D01*
X14844286Y2730371D02*
X14831905Y2717990D01*
X14831905Y2717990D02*
X14807143Y2705609D01*
X14807143Y2705609D02*
X14708095Y2705609D01*
X15079524Y2841800D02*
X15030000Y2841800D01*
X15030000Y2841800D02*
X15005238Y2829419D01*
X15005238Y2829419D02*
X14992857Y2817038D01*
X14992857Y2817038D02*
X14968095Y2779895D01*
X14968095Y2779895D02*
X14955714Y2730371D01*
X14955714Y2730371D02*
X14955714Y2631323D01*
X14955714Y2631323D02*
X14968095Y2606561D01*
X14968095Y2606561D02*
X14980476Y2594180D01*
X14980476Y2594180D02*
X15005238Y2581800D01*
X15005238Y2581800D02*
X15054762Y2581800D01*
X15054762Y2581800D02*
X15079524Y2594180D01*
X15079524Y2594180D02*
X15091905Y2606561D01*
X15091905Y2606561D02*
X15104286Y2631323D01*
X15104286Y2631323D02*
X15104286Y2693228D01*
X15104286Y2693228D02*
X15091905Y2717990D01*
X15091905Y2717990D02*
X15079524Y2730371D01*
X15079524Y2730371D02*
X15054762Y2742752D01*
X15054762Y2742752D02*
X15005238Y2742752D01*
X15005238Y2742752D02*
X14980476Y2730371D01*
X14980476Y2730371D02*
X14968095Y2717990D01*
X14968095Y2717990D02*
X14955714Y2693228D01*
X11156667Y10481800D02*
X11070000Y10605609D01*
X11008095Y10481800D02*
X11008095Y10741800D01*
X11008095Y10741800D02*
X11107143Y10741800D01*
X11107143Y10741800D02*
X11131905Y10729419D01*
X11131905Y10729419D02*
X11144286Y10717038D01*
X11144286Y10717038D02*
X11156667Y10692276D01*
X11156667Y10692276D02*
X11156667Y10655133D01*
X11156667Y10655133D02*
X11144286Y10630371D01*
X11144286Y10630371D02*
X11131905Y10617990D01*
X11131905Y10617990D02*
X11107143Y10605609D01*
X11107143Y10605609D02*
X11008095Y10605609D01*
X11391905Y10741800D02*
X11268095Y10741800D01*
X11268095Y10741800D02*
X11255714Y10617990D01*
X11255714Y10617990D02*
X11268095Y10630371D01*
X11268095Y10630371D02*
X11292857Y10642752D01*
X11292857Y10642752D02*
X11354762Y10642752D01*
X11354762Y10642752D02*
X11379524Y10630371D01*
X11379524Y10630371D02*
X11391905Y10617990D01*
X11391905Y10617990D02*
X11404286Y10593228D01*
X11404286Y10593228D02*
X11404286Y10531323D01*
X11404286Y10531323D02*
X11391905Y10506561D01*
X11391905Y10506561D02*
X11379524Y10494180D01*
X11379524Y10494180D02*
X11354762Y10481800D01*
X11354762Y10481800D02*
X11292857Y10481800D01*
X11292857Y10481800D02*
X11268095Y10494180D01*
X11268095Y10494180D02*
X11255714Y10506561D01*
X11156667Y5981800D02*
X11070000Y6105609D01*
X11008095Y5981800D02*
X11008095Y6241800D01*
X11008095Y6241800D02*
X11107143Y6241800D01*
X11107143Y6241800D02*
X11131905Y6229419D01*
X11131905Y6229419D02*
X11144286Y6217038D01*
X11144286Y6217038D02*
X11156667Y6192276D01*
X11156667Y6192276D02*
X11156667Y6155133D01*
X11156667Y6155133D02*
X11144286Y6130371D01*
X11144286Y6130371D02*
X11131905Y6117990D01*
X11131905Y6117990D02*
X11107143Y6105609D01*
X11107143Y6105609D02*
X11008095Y6105609D01*
X11379524Y6155133D02*
X11379524Y5981800D01*
X11317619Y6254180D02*
X11255714Y6068466D01*
X11255714Y6068466D02*
X11416667Y6068466D01*
X11156667Y8281800D02*
X11070000Y8405609D01*
X11008095Y8281800D02*
X11008095Y8541800D01*
X11008095Y8541800D02*
X11107143Y8541800D01*
X11107143Y8541800D02*
X11131905Y8529419D01*
X11131905Y8529419D02*
X11144286Y8517038D01*
X11144286Y8517038D02*
X11156667Y8492276D01*
X11156667Y8492276D02*
X11156667Y8455133D01*
X11156667Y8455133D02*
X11144286Y8430371D01*
X11144286Y8430371D02*
X11131905Y8417990D01*
X11131905Y8417990D02*
X11107143Y8405609D01*
X11107143Y8405609D02*
X11008095Y8405609D01*
X11243333Y8541800D02*
X11404286Y8541800D01*
X11404286Y8541800D02*
X11317619Y8442752D01*
X11317619Y8442752D02*
X11354762Y8442752D01*
X11354762Y8442752D02*
X11379524Y8430371D01*
X11379524Y8430371D02*
X11391905Y8417990D01*
X11391905Y8417990D02*
X11404286Y8393228D01*
X11404286Y8393228D02*
X11404286Y8331323D01*
X11404286Y8331323D02*
X11391905Y8306561D01*
X11391905Y8306561D02*
X11379524Y8294180D01*
X11379524Y8294180D02*
X11354762Y8281800D01*
X11354762Y8281800D02*
X11280476Y8281800D01*
X11280476Y8281800D02*
X11255714Y8294180D01*
X11255714Y8294180D02*
X11243333Y8306561D01*
X11156667Y7181800D02*
X11070000Y7305609D01*
X11008095Y7181800D02*
X11008095Y7441800D01*
X11008095Y7441800D02*
X11107143Y7441800D01*
X11107143Y7441800D02*
X11131905Y7429419D01*
X11131905Y7429419D02*
X11144286Y7417038D01*
X11144286Y7417038D02*
X11156667Y7392276D01*
X11156667Y7392276D02*
X11156667Y7355133D01*
X11156667Y7355133D02*
X11144286Y7330371D01*
X11144286Y7330371D02*
X11131905Y7317990D01*
X11131905Y7317990D02*
X11107143Y7305609D01*
X11107143Y7305609D02*
X11008095Y7305609D01*
X11255714Y7417038D02*
X11268095Y7429419D01*
X11268095Y7429419D02*
X11292857Y7441800D01*
X11292857Y7441800D02*
X11354762Y7441800D01*
X11354762Y7441800D02*
X11379524Y7429419D01*
X11379524Y7429419D02*
X11391905Y7417038D01*
X11391905Y7417038D02*
X11404286Y7392276D01*
X11404286Y7392276D02*
X11404286Y7367514D01*
X11404286Y7367514D02*
X11391905Y7330371D01*
X11391905Y7330371D02*
X11243333Y7181800D01*
X11243333Y7181800D02*
X11404286Y7181800D01*
X11156667Y9381800D02*
X11070000Y9505609D01*
X11008095Y9381800D02*
X11008095Y9641800D01*
X11008095Y9641800D02*
X11107143Y9641800D01*
X11107143Y9641800D02*
X11131905Y9629419D01*
X11131905Y9629419D02*
X11144286Y9617038D01*
X11144286Y9617038D02*
X11156667Y9592276D01*
X11156667Y9592276D02*
X11156667Y9555133D01*
X11156667Y9555133D02*
X11144286Y9530371D01*
X11144286Y9530371D02*
X11131905Y9517990D01*
X11131905Y9517990D02*
X11107143Y9505609D01*
X11107143Y9505609D02*
X11008095Y9505609D01*
X11404286Y9381800D02*
X11255714Y9381800D01*
X11330000Y9381800D02*
X11330000Y9641800D01*
X11330000Y9641800D02*
X11305238Y9604657D01*
X11305238Y9604657D02*
X11280476Y9579895D01*
X11280476Y9579895D02*
X11255714Y9567514D01*
D13*
X11595937Y2331429D02*
X11561651Y2262858D01*
X11561651Y2262858D02*
X11493080Y2194286D01*
X11493080Y2194286D02*
X11390222Y2091429D01*
X11390222Y2091429D02*
X11355937Y2022858D01*
X11355937Y2022858D02*
X11355937Y1954286D01*
X11527365Y1988572D02*
X11493080Y1920000D01*
X11493080Y1920000D02*
X11424508Y1851429D01*
X11424508Y1851429D02*
X11287365Y1817143D01*
X11287365Y1817143D02*
X11047365Y1817143D01*
X11047365Y1817143D02*
X10910222Y1851429D01*
X10910222Y1851429D02*
X10841651Y1920000D01*
X10841651Y1920000D02*
X10807365Y1988572D01*
X10807365Y1988572D02*
X10807365Y2125715D01*
X10807365Y2125715D02*
X10841651Y2194286D01*
X10841651Y2194286D02*
X10910222Y2262858D01*
X10910222Y2262858D02*
X11047365Y2297143D01*
X11047365Y2297143D02*
X11287365Y2297143D01*
X11287365Y2297143D02*
X11424508Y2262858D01*
X11424508Y2262858D02*
X11493080Y2194286D01*
X11493080Y2194286D02*
X11527365Y2125715D01*
X11527365Y2125715D02*
X11527365Y1988572D01*
X11527365Y2982858D02*
X11527365Y2571429D01*
X11527365Y2777144D02*
X10807365Y2777144D01*
X10807365Y2777144D02*
X10910222Y2708572D01*
X10910222Y2708572D02*
X10978794Y2640001D01*
X10978794Y2640001D02*
X11013080Y2571429D01*
D11*
X30601666Y2345181D02*
X30601666Y1630896D01*
X30601666Y1630896D02*
X30554047Y1488039D01*
X30554047Y1488039D02*
X30458809Y1392800D01*
X30458809Y1392800D02*
X30315952Y1345181D01*
X30315952Y1345181D02*
X30220714Y1345181D01*
X30982619Y2345181D02*
X31601666Y2345181D01*
X31601666Y2345181D02*
X31268333Y1964229D01*
X31268333Y1964229D02*
X31411190Y1964229D01*
X31411190Y1964229D02*
X31506428Y1916610D01*
X31506428Y1916610D02*
X31554047Y1868991D01*
X31554047Y1868991D02*
X31601666Y1773753D01*
X31601666Y1773753D02*
X31601666Y1535658D01*
X31601666Y1535658D02*
X31554047Y1440420D01*
X31554047Y1440420D02*
X31506428Y1392800D01*
X31506428Y1392800D02*
X31411190Y1345181D01*
X31411190Y1345181D02*
X31125476Y1345181D01*
X31125476Y1345181D02*
X31030238Y1392800D01*
X31030238Y1392800D02*
X30982619Y1440420D01*
X45224819Y7206667D02*
X45939104Y7206667D01*
X45939104Y7206667D02*
X46081961Y7159048D01*
X46081961Y7159048D02*
X46177200Y7063810D01*
X46177200Y7063810D02*
X46224819Y6920953D01*
X46224819Y6920953D02*
X46224819Y6825715D01*
X45320057Y7635239D02*
X45272438Y7682858D01*
X45272438Y7682858D02*
X45224819Y7778096D01*
X45224819Y7778096D02*
X45224819Y8016191D01*
X45224819Y8016191D02*
X45272438Y8111429D01*
X45272438Y8111429D02*
X45320057Y8159048D01*
X45320057Y8159048D02*
X45415295Y8206667D01*
X45415295Y8206667D02*
X45510533Y8206667D01*
X45510533Y8206667D02*
X45653390Y8159048D01*
X45653390Y8159048D02*
X46224819Y7587620D01*
X46224819Y7587620D02*
X46224819Y8206667D01*
D10*
X16835476Y2586426D02*
X16835476Y2836426D01*
X16835476Y2836426D02*
X16895000Y2836426D01*
X16895000Y2836426D02*
X16930714Y2824521D01*
X16930714Y2824521D02*
X16954524Y2800711D01*
X16954524Y2800711D02*
X16966429Y2776902D01*
X16966429Y2776902D02*
X16978333Y2729283D01*
X16978333Y2729283D02*
X16978333Y2693569D01*
X16978333Y2693569D02*
X16966429Y2645950D01*
X16966429Y2645950D02*
X16954524Y2622140D01*
X16954524Y2622140D02*
X16930714Y2598330D01*
X16930714Y2598330D02*
X16895000Y2586426D01*
X16895000Y2586426D02*
X16835476Y2586426D01*
X17216429Y2586426D02*
X17073572Y2586426D01*
X17145000Y2586426D02*
X17145000Y2836426D01*
X17145000Y2836426D02*
X17121191Y2800711D01*
X17121191Y2800711D02*
X17097381Y2776902D01*
X17097381Y2776902D02*
X17073572Y2764997D01*
X21389765Y9339286D02*
X21401670Y9327382D01*
X21401670Y9327382D02*
X21413574Y9291667D01*
X21413574Y9291667D02*
X21413574Y9267858D01*
X21413574Y9267858D02*
X21401670Y9232144D01*
X21401670Y9232144D02*
X21377860Y9208334D01*
X21377860Y9208334D02*
X21354050Y9196429D01*
X21354050Y9196429D02*
X21306431Y9184525D01*
X21306431Y9184525D02*
X21270717Y9184525D01*
X21270717Y9184525D02*
X21223098Y9196429D01*
X21223098Y9196429D02*
X21199289Y9208334D01*
X21199289Y9208334D02*
X21175479Y9232144D01*
X21175479Y9232144D02*
X21163574Y9267858D01*
X21163574Y9267858D02*
X21163574Y9291667D01*
X21163574Y9291667D02*
X21175479Y9327382D01*
X21175479Y9327382D02*
X21187384Y9339286D01*
X21413574Y9577382D02*
X21413574Y9434525D01*
X21413574Y9505953D02*
X21163574Y9505953D01*
X21163574Y9505953D02*
X21199289Y9482144D01*
X21199289Y9482144D02*
X21223098Y9458334D01*
X21223098Y9458334D02*
X21235003Y9434525D01*
X21163574Y9732143D02*
X21163574Y9755953D01*
X21163574Y9755953D02*
X21175479Y9779762D01*
X21175479Y9779762D02*
X21187384Y9791667D01*
X21187384Y9791667D02*
X21211193Y9803572D01*
X21211193Y9803572D02*
X21258812Y9815477D01*
X21258812Y9815477D02*
X21318336Y9815477D01*
X21318336Y9815477D02*
X21365955Y9803572D01*
X21365955Y9803572D02*
X21389765Y9791667D01*
X21389765Y9791667D02*
X21401670Y9779762D01*
X21401670Y9779762D02*
X21413574Y9755953D01*
X21413574Y9755953D02*
X21413574Y9732143D01*
X21413574Y9732143D02*
X21401670Y9708334D01*
X21401670Y9708334D02*
X21389765Y9696429D01*
X21389765Y9696429D02*
X21365955Y9684524D01*
X21365955Y9684524D02*
X21318336Y9672620D01*
X21318336Y9672620D02*
X21258812Y9672620D01*
X21258812Y9672620D02*
X21211193Y9684524D01*
X21211193Y9684524D02*
X21187384Y9696429D01*
X21187384Y9696429D02*
X21175479Y9708334D01*
X21175479Y9708334D02*
X21163574Y9732143D01*
X21368333Y1510235D02*
X21356429Y1498330D01*
X21356429Y1498330D02*
X21320714Y1486426D01*
X21320714Y1486426D02*
X21296905Y1486426D01*
X21296905Y1486426D02*
X21261191Y1498330D01*
X21261191Y1498330D02*
X21237381Y1522140D01*
X21237381Y1522140D02*
X21225476Y1545950D01*
X21225476Y1545950D02*
X21213572Y1593569D01*
X21213572Y1593569D02*
X21213572Y1629283D01*
X21213572Y1629283D02*
X21225476Y1676902D01*
X21225476Y1676902D02*
X21237381Y1700711D01*
X21237381Y1700711D02*
X21261191Y1724521D01*
X21261191Y1724521D02*
X21296905Y1736426D01*
X21296905Y1736426D02*
X21320714Y1736426D01*
X21320714Y1736426D02*
X21356429Y1724521D01*
X21356429Y1724521D02*
X21368333Y1712616D01*
X21487381Y1486426D02*
X21535000Y1486426D01*
X21535000Y1486426D02*
X21558810Y1498330D01*
X21558810Y1498330D02*
X21570714Y1510235D01*
X21570714Y1510235D02*
X21594524Y1545950D01*
X21594524Y1545950D02*
X21606429Y1593569D01*
X21606429Y1593569D02*
X21606429Y1688807D01*
X21606429Y1688807D02*
X21594524Y1712616D01*
X21594524Y1712616D02*
X21582619Y1724521D01*
X21582619Y1724521D02*
X21558810Y1736426D01*
X21558810Y1736426D02*
X21511191Y1736426D01*
X21511191Y1736426D02*
X21487381Y1724521D01*
X21487381Y1724521D02*
X21475476Y1712616D01*
X21475476Y1712616D02*
X21463572Y1688807D01*
X21463572Y1688807D02*
X21463572Y1629283D01*
X21463572Y1629283D02*
X21475476Y1605473D01*
X21475476Y1605473D02*
X21487381Y1593569D01*
X21487381Y1593569D02*
X21511191Y1581664D01*
X21511191Y1581664D02*
X21558810Y1581664D01*
X21558810Y1581664D02*
X21582619Y1593569D01*
X21582619Y1593569D02*
X21594524Y1605473D01*
X21594524Y1605473D02*
X21606429Y1629283D01*
X26788333Y13272735D02*
X26776429Y13260830D01*
X26776429Y13260830D02*
X26740714Y13248926D01*
X26740714Y13248926D02*
X26716905Y13248926D01*
X26716905Y13248926D02*
X26681191Y13260830D01*
X26681191Y13260830D02*
X26657381Y13284640D01*
X26657381Y13284640D02*
X26645476Y13308450D01*
X26645476Y13308450D02*
X26633572Y13356069D01*
X26633572Y13356069D02*
X26633572Y13391783D01*
X26633572Y13391783D02*
X26645476Y13439402D01*
X26645476Y13439402D02*
X26657381Y13463211D01*
X26657381Y13463211D02*
X26681191Y13487021D01*
X26681191Y13487021D02*
X26716905Y13498926D01*
X26716905Y13498926D02*
X26740714Y13498926D01*
X26740714Y13498926D02*
X26776429Y13487021D01*
X26776429Y13487021D02*
X26788333Y13475116D01*
X26931191Y13391783D02*
X26907381Y13403688D01*
X26907381Y13403688D02*
X26895476Y13415592D01*
X26895476Y13415592D02*
X26883572Y13439402D01*
X26883572Y13439402D02*
X26883572Y13451307D01*
X26883572Y13451307D02*
X26895476Y13475116D01*
X26895476Y13475116D02*
X26907381Y13487021D01*
X26907381Y13487021D02*
X26931191Y13498926D01*
X26931191Y13498926D02*
X26978810Y13498926D01*
X26978810Y13498926D02*
X27002619Y13487021D01*
X27002619Y13487021D02*
X27014524Y13475116D01*
X27014524Y13475116D02*
X27026429Y13451307D01*
X27026429Y13451307D02*
X27026429Y13439402D01*
X27026429Y13439402D02*
X27014524Y13415592D01*
X27014524Y13415592D02*
X27002619Y13403688D01*
X27002619Y13403688D02*
X26978810Y13391783D01*
X26978810Y13391783D02*
X26931191Y13391783D01*
X26931191Y13391783D02*
X26907381Y13379878D01*
X26907381Y13379878D02*
X26895476Y13367973D01*
X26895476Y13367973D02*
X26883572Y13344164D01*
X26883572Y13344164D02*
X26883572Y13296545D01*
X26883572Y13296545D02*
X26895476Y13272735D01*
X26895476Y13272735D02*
X26907381Y13260830D01*
X26907381Y13260830D02*
X26931191Y13248926D01*
X26931191Y13248926D02*
X26978810Y13248926D01*
X26978810Y13248926D02*
X27002619Y13260830D01*
X27002619Y13260830D02*
X27014524Y13272735D01*
X27014524Y13272735D02*
X27026429Y13296545D01*
X27026429Y13296545D02*
X27026429Y13344164D01*
X27026429Y13344164D02*
X27014524Y13367973D01*
X27014524Y13367973D02*
X27002619Y13379878D01*
X27002619Y13379878D02*
X26978810Y13391783D01*
X35839765Y12900834D02*
X35851670Y12888930D01*
X35851670Y12888930D02*
X35863574Y12853215D01*
X35863574Y12853215D02*
X35863574Y12829406D01*
X35863574Y12829406D02*
X35851670Y12793692D01*
X35851670Y12793692D02*
X35827860Y12769882D01*
X35827860Y12769882D02*
X35804050Y12757977D01*
X35804050Y12757977D02*
X35756431Y12746073D01*
X35756431Y12746073D02*
X35720717Y12746073D01*
X35720717Y12746073D02*
X35673098Y12757977D01*
X35673098Y12757977D02*
X35649289Y12769882D01*
X35649289Y12769882D02*
X35625479Y12793692D01*
X35625479Y12793692D02*
X35613574Y12829406D01*
X35613574Y12829406D02*
X35613574Y12853215D01*
X35613574Y12853215D02*
X35625479Y12888930D01*
X35625479Y12888930D02*
X35637384Y12900834D01*
X35613574Y12984168D02*
X35613574Y13150834D01*
X35613574Y13150834D02*
X35863574Y13043692D01*
X35298333Y4010235D02*
X35286429Y3998330D01*
X35286429Y3998330D02*
X35250714Y3986426D01*
X35250714Y3986426D02*
X35226905Y3986426D01*
X35226905Y3986426D02*
X35191191Y3998330D01*
X35191191Y3998330D02*
X35167381Y4022140D01*
X35167381Y4022140D02*
X35155476Y4045950D01*
X35155476Y4045950D02*
X35143572Y4093569D01*
X35143572Y4093569D02*
X35143572Y4129283D01*
X35143572Y4129283D02*
X35155476Y4176902D01*
X35155476Y4176902D02*
X35167381Y4200711D01*
X35167381Y4200711D02*
X35191191Y4224521D01*
X35191191Y4224521D02*
X35226905Y4236426D01*
X35226905Y4236426D02*
X35250714Y4236426D01*
X35250714Y4236426D02*
X35286429Y4224521D01*
X35286429Y4224521D02*
X35298333Y4212616D01*
X35512619Y4236426D02*
X35465000Y4236426D01*
X35465000Y4236426D02*
X35441191Y4224521D01*
X35441191Y4224521D02*
X35429286Y4212616D01*
X35429286Y4212616D02*
X35405476Y4176902D01*
X35405476Y4176902D02*
X35393572Y4129283D01*
X35393572Y4129283D02*
X35393572Y4034045D01*
X35393572Y4034045D02*
X35405476Y4010235D01*
X35405476Y4010235D02*
X35417381Y3998330D01*
X35417381Y3998330D02*
X35441191Y3986426D01*
X35441191Y3986426D02*
X35488810Y3986426D01*
X35488810Y3986426D02*
X35512619Y3998330D01*
X35512619Y3998330D02*
X35524524Y4010235D01*
X35524524Y4010235D02*
X35536429Y4034045D01*
X35536429Y4034045D02*
X35536429Y4093569D01*
X35536429Y4093569D02*
X35524524Y4117378D01*
X35524524Y4117378D02*
X35512619Y4129283D01*
X35512619Y4129283D02*
X35488810Y4141188D01*
X35488810Y4141188D02*
X35441191Y4141188D01*
X35441191Y4141188D02*
X35417381Y4129283D01*
X35417381Y4129283D02*
X35405476Y4117378D01*
X35405476Y4117378D02*
X35393572Y4093569D01*
X26539765Y4120834D02*
X26551670Y4108930D01*
X26551670Y4108930D02*
X26563574Y4073215D01*
X26563574Y4073215D02*
X26563574Y4049406D01*
X26563574Y4049406D02*
X26551670Y4013692D01*
X26551670Y4013692D02*
X26527860Y3989882D01*
X26527860Y3989882D02*
X26504050Y3977977D01*
X26504050Y3977977D02*
X26456431Y3966073D01*
X26456431Y3966073D02*
X26420717Y3966073D01*
X26420717Y3966073D02*
X26373098Y3977977D01*
X26373098Y3977977D02*
X26349289Y3989882D01*
X26349289Y3989882D02*
X26325479Y4013692D01*
X26325479Y4013692D02*
X26313574Y4049406D01*
X26313574Y4049406D02*
X26313574Y4073215D01*
X26313574Y4073215D02*
X26325479Y4108930D01*
X26325479Y4108930D02*
X26337384Y4120834D01*
X26313574Y4347025D02*
X26313574Y4227977D01*
X26313574Y4227977D02*
X26432622Y4216073D01*
X26432622Y4216073D02*
X26420717Y4227977D01*
X26420717Y4227977D02*
X26408812Y4251787D01*
X26408812Y4251787D02*
X26408812Y4311311D01*
X26408812Y4311311D02*
X26420717Y4335120D01*
X26420717Y4335120D02*
X26432622Y4347025D01*
X26432622Y4347025D02*
X26456431Y4358930D01*
X26456431Y4358930D02*
X26515955Y4358930D01*
X26515955Y4358930D02*
X26539765Y4347025D01*
X26539765Y4347025D02*
X26551670Y4335120D01*
X26551670Y4335120D02*
X26563574Y4311311D01*
X26563574Y4311311D02*
X26563574Y4251787D01*
X26563574Y4251787D02*
X26551670Y4227977D01*
X26551670Y4227977D02*
X26539765Y4216073D01*
X20389765Y9458334D02*
X20401670Y9446430D01*
X20401670Y9446430D02*
X20413574Y9410715D01*
X20413574Y9410715D02*
X20413574Y9386906D01*
X20413574Y9386906D02*
X20401670Y9351192D01*
X20401670Y9351192D02*
X20377860Y9327382D01*
X20377860Y9327382D02*
X20354050Y9315477D01*
X20354050Y9315477D02*
X20306431Y9303573D01*
X20306431Y9303573D02*
X20270717Y9303573D01*
X20270717Y9303573D02*
X20223098Y9315477D01*
X20223098Y9315477D02*
X20199289Y9327382D01*
X20199289Y9327382D02*
X20175479Y9351192D01*
X20175479Y9351192D02*
X20163574Y9386906D01*
X20163574Y9386906D02*
X20163574Y9410715D01*
X20163574Y9410715D02*
X20175479Y9446430D01*
X20175479Y9446430D02*
X20187384Y9458334D01*
X20246908Y9672620D02*
X20413574Y9672620D01*
X20151670Y9613096D02*
X20330241Y9553573D01*
X20330241Y9553573D02*
X20330241Y9708334D01*
D14*
X20743832Y11898334D02*
X20762880Y11879286D01*
X20762880Y11879286D02*
X20781927Y11822144D01*
X20781927Y11822144D02*
X20781927Y11784048D01*
X20781927Y11784048D02*
X20762880Y11726905D01*
X20762880Y11726905D02*
X20724784Y11688810D01*
X20724784Y11688810D02*
X20686689Y11669763D01*
X20686689Y11669763D02*
X20610499Y11650715D01*
X20610499Y11650715D02*
X20553356Y11650715D01*
X20553356Y11650715D02*
X20477165Y11669763D01*
X20477165Y11669763D02*
X20439070Y11688810D01*
X20439070Y11688810D02*
X20400975Y11726905D01*
X20400975Y11726905D02*
X20381927Y11784048D01*
X20381927Y11784048D02*
X20381927Y11822144D01*
X20381927Y11822144D02*
X20400975Y11879286D01*
X20400975Y11879286D02*
X20420022Y11898334D01*
X20381927Y12031667D02*
X20381927Y12279286D01*
X20381927Y12279286D02*
X20534308Y12145953D01*
X20534308Y12145953D02*
X20534308Y12203096D01*
X20534308Y12203096D02*
X20553356Y12241191D01*
X20553356Y12241191D02*
X20572403Y12260239D01*
X20572403Y12260239D02*
X20610499Y12279286D01*
X20610499Y12279286D02*
X20705737Y12279286D01*
X20705737Y12279286D02*
X20743832Y12260239D01*
X20743832Y12260239D02*
X20762880Y12241191D01*
X20762880Y12241191D02*
X20781927Y12203096D01*
X20781927Y12203096D02*
X20781927Y12088810D01*
X20781927Y12088810D02*
X20762880Y12050715D01*
X20762880Y12050715D02*
X20743832Y12031667D01*
D10*
X11108333Y11810235D02*
X11096429Y11798330D01*
X11096429Y11798330D02*
X11060714Y11786426D01*
X11060714Y11786426D02*
X11036905Y11786426D01*
X11036905Y11786426D02*
X11001191Y11798330D01*
X11001191Y11798330D02*
X10977381Y11822140D01*
X10977381Y11822140D02*
X10965476Y11845950D01*
X10965476Y11845950D02*
X10953572Y11893569D01*
X10953572Y11893569D02*
X10953572Y11929283D01*
X10953572Y11929283D02*
X10965476Y11976902D01*
X10965476Y11976902D02*
X10977381Y12000711D01*
X10977381Y12000711D02*
X11001191Y12024521D01*
X11001191Y12024521D02*
X11036905Y12036426D01*
X11036905Y12036426D02*
X11060714Y12036426D01*
X11060714Y12036426D02*
X11096429Y12024521D01*
X11096429Y12024521D02*
X11108333Y12012616D01*
X11203572Y12012616D02*
X11215476Y12024521D01*
X11215476Y12024521D02*
X11239286Y12036426D01*
X11239286Y12036426D02*
X11298810Y12036426D01*
X11298810Y12036426D02*
X11322619Y12024521D01*
X11322619Y12024521D02*
X11334524Y12012616D01*
X11334524Y12012616D02*
X11346429Y11988807D01*
X11346429Y11988807D02*
X11346429Y11964997D01*
X11346429Y11964997D02*
X11334524Y11929283D01*
X11334524Y11929283D02*
X11191667Y11786426D01*
X11191667Y11786426D02*
X11346429Y11786426D01*
D14*
X10533333Y13081168D02*
X10514285Y13062120D01*
X10514285Y13062120D02*
X10457143Y13043073D01*
X10457143Y13043073D02*
X10419047Y13043073D01*
X10419047Y13043073D02*
X10361904Y13062120D01*
X10361904Y13062120D02*
X10323809Y13100216D01*
X10323809Y13100216D02*
X10304762Y13138311D01*
X10304762Y13138311D02*
X10285714Y13214501D01*
X10285714Y13214501D02*
X10285714Y13271644D01*
X10285714Y13271644D02*
X10304762Y13347835D01*
X10304762Y13347835D02*
X10323809Y13385930D01*
X10323809Y13385930D02*
X10361904Y13424025D01*
X10361904Y13424025D02*
X10419047Y13443073D01*
X10419047Y13443073D02*
X10457143Y13443073D01*
X10457143Y13443073D02*
X10514285Y13424025D01*
X10514285Y13424025D02*
X10533333Y13404978D01*
X10914285Y13043073D02*
X10685714Y13043073D01*
X10800000Y13043073D02*
X10800000Y13443073D01*
X10800000Y13443073D02*
X10761904Y13385930D01*
X10761904Y13385930D02*
X10723809Y13347835D01*
X10723809Y13347835D02*
X10685714Y13328787D01*
D15*
%TO.C,R9*%
X19735000Y1330000D02*
X18685000Y1330000D01*
X19735000Y1870000D02*
X19735000Y1330000D01*
X18685000Y1330000D02*
X18685000Y1870000D01*
X18685000Y1870000D02*
X19735000Y1870000D01*
%TO.C,D2*%
X16520000Y1850000D02*
X17520000Y1850000D01*
X16520000Y1350000D02*
X16520000Y1850000D01*
X17320000Y1850000D02*
X17320000Y1350000D01*
X17420000Y1850000D02*
X17420000Y1350000D01*
X17520000Y1850000D02*
X17520000Y1350000D01*
X17520000Y1350000D02*
X16520000Y1350000D01*
%TO.C,R8*%
X19735000Y2430000D02*
X18685000Y2430000D01*
X19735000Y2970000D02*
X19735000Y2430000D01*
X18685000Y2430000D02*
X18685000Y2970000D01*
X18685000Y2970000D02*
X19735000Y2970000D01*
%TO.C,C11*%
X21050000Y6980000D02*
X21050000Y7980000D01*
X21550000Y6980000D02*
X21050000Y6980000D01*
X21050000Y7980000D02*
X21550000Y7980000D01*
X21550000Y7980000D02*
X21550000Y6980000D01*
%TO.C,J1*%
X8000000Y11970000D02*
X0Y11970000D01*
X0Y3030000D01*
X8000000Y3030000D01*
X8000000Y11970000D01*
%TO.C,Y1*%
X24900000Y7325000D02*
X24275000Y6700000D01*
X22400000Y6700000D01*
X22400000Y9900000D01*
X24900000Y9900000D01*
X24900000Y7325000D01*
%TO.C,U2*%
X34550000Y5162500D02*
X27550000Y5162500D01*
X27550000Y11162500D01*
X28550000Y12162500D01*
X34550000Y12162500D01*
X34550000Y5162500D01*
%TO.C,U1*%
X18487500Y10900000D02*
X12787500Y10900000D01*
X18487500Y10900000D02*
X19487500Y9900000D01*
X12787500Y10900000D02*
X12787500Y7200000D01*
X19487500Y9900000D02*
X19487500Y7200000D01*
X19487500Y7200000D02*
X12787500Y7200000D01*
%TO.C,R23*%
X23065000Y1870000D02*
X24115000Y1870000D01*
X23065000Y1330000D02*
X23065000Y1870000D01*
X24115000Y1870000D02*
X24115000Y1330000D01*
X24115000Y1330000D02*
X23065000Y1330000D01*
%TO.C,R22*%
X24105000Y2430000D02*
X23055000Y2430000D01*
X24105000Y2970000D02*
X24105000Y2430000D01*
X23055000Y2430000D02*
X23055000Y2970000D01*
X23055000Y2970000D02*
X24105000Y2970000D01*
%TO.C,R21*%
X25475000Y1870000D02*
X26525000Y1870000D01*
X25475000Y1330000D02*
X25475000Y1870000D01*
X26525000Y1870000D02*
X26525000Y1330000D01*
X26525000Y1330000D02*
X25475000Y1330000D01*
%TO.C,R20*%
X22275000Y11270000D02*
X23325000Y11270000D01*
X22275000Y10730000D02*
X22275000Y11270000D01*
X23325000Y11270000D02*
X23325000Y10730000D01*
X23325000Y10730000D02*
X22275000Y10730000D01*
%TO.C,R19*%
X22275000Y12270000D02*
X23325000Y12270000D01*
X22275000Y11730000D02*
X22275000Y12270000D01*
X23325000Y12270000D02*
X23325000Y11730000D01*
X23325000Y11730000D02*
X22275000Y11730000D01*
%TO.C,R18*%
X37165000Y6170000D02*
X38215000Y6170000D01*
X37165000Y5630000D02*
X37165000Y6170000D01*
X38215000Y6170000D02*
X38215000Y5630000D01*
X38215000Y5630000D02*
X37165000Y5630000D01*
%TO.C,R17*%
X22275000Y13270000D02*
X23325000Y13270000D01*
X22275000Y12730000D02*
X22275000Y13270000D01*
X23325000Y13270000D02*
X23325000Y12730000D01*
X23325000Y12730000D02*
X22275000Y12730000D01*
%TO.C,R16*%
X21935000Y2430000D02*
X20885000Y2430000D01*
X21935000Y2970000D02*
X21935000Y2430000D01*
X20885000Y2430000D02*
X20885000Y2970000D01*
X20885000Y2970000D02*
X21935000Y2970000D01*
%TO.C,R15*%
X35915000Y1230000D02*
X34865000Y1230000D01*
X35915000Y1770000D02*
X35915000Y1230000D01*
X34865000Y1230000D02*
X34865000Y1770000D01*
X34865000Y1770000D02*
X35915000Y1770000D01*
%TO.C,R14*%
X35895000Y2630000D02*
X34845000Y2630000D01*
X35895000Y3170000D02*
X35895000Y2630000D01*
X34845000Y2630000D02*
X34845000Y3170000D01*
X34845000Y3170000D02*
X35895000Y3170000D01*
%TO.C,R13*%
X37175000Y7270000D02*
X38225000Y7270000D01*
X37175000Y6730000D02*
X37175000Y7270000D01*
X38225000Y7270000D02*
X38225000Y6730000D01*
X38225000Y6730000D02*
X37175000Y6730000D01*
%TO.C,R12*%
X37165000Y9470000D02*
X38215000Y9470000D01*
X37165000Y8930000D02*
X37165000Y9470000D01*
X38215000Y9470000D02*
X38215000Y8930000D01*
X38215000Y8930000D02*
X37165000Y8930000D01*
%TO.C,R11*%
X38225000Y4530000D02*
X37175000Y4530000D01*
X38225000Y5070000D02*
X38225000Y4530000D01*
X37175000Y4530000D02*
X37175000Y5070000D01*
X37175000Y5070000D02*
X38225000Y5070000D01*
%TO.C,R10*%
X38225000Y7830000D02*
X37175000Y7830000D01*
X38225000Y8370000D02*
X38225000Y7830000D01*
X37175000Y7830000D02*
X37175000Y8370000D01*
X37175000Y8370000D02*
X38225000Y8370000D01*
%TO.C,R7*%
X14375000Y1870000D02*
X15425000Y1870000D01*
X14375000Y1330000D02*
X14375000Y1870000D01*
X15425000Y1870000D02*
X15425000Y1330000D01*
X15425000Y1330000D02*
X14375000Y1330000D01*
%TO.C,R6*%
X14375000Y2970000D02*
X15425000Y2970000D01*
X14375000Y2430000D02*
X14375000Y2970000D01*
X15425000Y2970000D02*
X15425000Y2430000D01*
X15425000Y2430000D02*
X14375000Y2430000D01*
%TO.C,R5*%
X11725000Y10330000D02*
X10675000Y10330000D01*
X11725000Y10870000D02*
X11725000Y10330000D01*
X10675000Y10330000D02*
X10675000Y10870000D01*
X10675000Y10870000D02*
X11725000Y10870000D01*
%TO.C,R4*%
X10675000Y6370000D02*
X11725000Y6370000D01*
X10675000Y5830000D02*
X10675000Y6370000D01*
X11725000Y6370000D02*
X11725000Y5830000D01*
X11725000Y5830000D02*
X10675000Y5830000D01*
%TO.C,R3*%
X11725000Y8130000D02*
X10675000Y8130000D01*
X11725000Y8670000D02*
X11725000Y8130000D01*
X10675000Y8130000D02*
X10675000Y8670000D01*
X10675000Y8670000D02*
X11725000Y8670000D01*
%TO.C,R2*%
X11725000Y7030000D02*
X10675000Y7030000D01*
X11725000Y7570000D02*
X11725000Y7030000D01*
X10675000Y7030000D02*
X10675000Y7570000D01*
X10675000Y7570000D02*
X11725000Y7570000D01*
%TO.C,R1*%
X11725000Y9230000D02*
X10675000Y9230000D01*
X11725000Y9770000D02*
X11725000Y9230000D01*
X10675000Y9230000D02*
X10675000Y9770000D01*
X10675000Y9770000D02*
X11725000Y9770000D01*
%TO.C,Q1*%
X11850000Y950000D02*
X10550000Y950000D01*
X10550000Y3525000D01*
X10875000Y3850000D01*
X11850000Y3850000D01*
X11850000Y950000D01*
%TO.C,J3*%
X32950000Y2850000D02*
X33475000Y2325000D01*
X28395000Y2850000D02*
X32950000Y2850000D01*
X33475000Y2325000D02*
X33475000Y750000D01*
X33475000Y750000D02*
X28395000Y750000D01*
X28395000Y750000D02*
X28395000Y2850000D01*
%TO.C,J2*%
X40140000Y12940000D02*
X40140000Y12300000D01*
X40140000Y12940000D02*
X44500000Y12940000D01*
X40140000Y12300000D02*
X44500000Y12300000D01*
X40140000Y10400000D02*
X40140000Y9760000D01*
X40140000Y10400000D02*
X44500000Y10400000D01*
X40140000Y9760000D02*
X44500000Y9760000D01*
X40140000Y7860000D02*
X40140000Y7220000D01*
X40140000Y7860000D02*
X44500000Y7860000D01*
X40140000Y7220000D02*
X44500000Y7220000D01*
X40140000Y5320000D02*
X40140000Y4680000D01*
X40140000Y5320000D02*
X44500000Y5320000D01*
X40140000Y4680000D02*
X44500000Y4680000D01*
X40140000Y2780000D02*
X40140000Y2140000D01*
X40140000Y2780000D02*
X44500000Y2780000D01*
X40140000Y2140000D02*
X44500000Y2140000D01*
X44500000Y13255000D02*
X45135000Y13890000D01*
X44500000Y1190000D02*
X44500000Y13255000D01*
X45135000Y13890000D02*
X47040000Y13890000D01*
X47040000Y13890000D02*
X47040000Y1190000D01*
X47040000Y12940000D02*
X53040000Y12940000D01*
X47040000Y12300000D02*
X53040000Y12300000D01*
X47040000Y10400000D02*
X53040000Y10400000D01*
X47040000Y9760000D02*
X53040000Y9760000D01*
X47040000Y7860000D02*
X53040000Y7860000D01*
X47040000Y7220000D02*
X53040000Y7220000D01*
X47040000Y5320000D02*
X53040000Y5320000D01*
X47040000Y4680000D02*
X53040000Y4680000D01*
X47040000Y2780000D02*
X53040000Y2780000D01*
X47040000Y2140000D02*
X53040000Y2140000D01*
X47040000Y1190000D02*
X44500000Y1190000D01*
X53040000Y12940000D02*
X53040000Y12300000D01*
X53040000Y10400000D02*
X53040000Y9760000D01*
X53040000Y7860000D02*
X53040000Y7220000D01*
X53040000Y5320000D02*
X53040000Y4680000D01*
X53040000Y2780000D02*
X53040000Y2140000D01*
%TO.C,D1*%
X16520000Y2950000D02*
X17520000Y2950000D01*
X16520000Y2450000D02*
X16520000Y2950000D01*
X16620000Y2450000D02*
X16620000Y2950000D01*
X16720000Y2450000D02*
X16720000Y2950000D01*
X17520000Y2950000D02*
X17520000Y2450000D01*
X17520000Y2450000D02*
X16520000Y2450000D01*
%TO.C,C10*%
X21050000Y9000000D02*
X21050000Y10000000D01*
X21550000Y9000000D02*
X21050000Y9000000D01*
X21050000Y10000000D02*
X21550000Y10000000D01*
X21550000Y10000000D02*
X21550000Y9000000D01*
%TO.C,C9*%
X20910000Y1850000D02*
X21910000Y1850000D01*
X20910000Y1350000D02*
X20910000Y1850000D01*
X21910000Y1850000D02*
X21910000Y1350000D01*
X21910000Y1350000D02*
X20910000Y1350000D01*
%TO.C,C8*%
X27330000Y13112500D02*
X26330000Y13112500D01*
X27330000Y13612500D02*
X27330000Y13112500D01*
X26330000Y13112500D02*
X26330000Y13612500D01*
X26330000Y13612500D02*
X27330000Y13612500D01*
%TO.C,C7*%
X35500000Y12442500D02*
X35500000Y13442500D01*
X36000000Y12442500D02*
X35500000Y12442500D01*
X35500000Y13442500D02*
X36000000Y13442500D01*
X36000000Y13442500D02*
X36000000Y12442500D01*
%TO.C,C6*%
X34840000Y4350000D02*
X35840000Y4350000D01*
X34840000Y3850000D02*
X34840000Y4350000D01*
X35840000Y4350000D02*
X35840000Y3850000D01*
X35840000Y3850000D02*
X34840000Y3850000D01*
%TO.C,C5*%
X26200000Y3662500D02*
X26200000Y4662500D01*
X26700000Y3662500D02*
X26200000Y3662500D01*
X26200000Y4662500D02*
X26700000Y4662500D01*
X26700000Y4662500D02*
X26700000Y3662500D01*
%TO.C,C4*%
X20050000Y9000000D02*
X20050000Y10000000D01*
X20550000Y9000000D02*
X20050000Y9000000D01*
X20050000Y10000000D02*
X20550000Y10000000D01*
X20550000Y10000000D02*
X20550000Y9000000D01*
%TO.C,C3*%
X20200000Y11165000D02*
X20200000Y12765000D01*
X21000000Y11165000D02*
X20200000Y11165000D01*
X20200000Y12765000D02*
X21000000Y12765000D01*
X21000000Y12765000D02*
X21000000Y11165000D01*
%TO.C,C2*%
X11650000Y11650000D02*
X10650000Y11650000D01*
X11650000Y12150000D02*
X11650000Y11650000D01*
X10650000Y11650000D02*
X10650000Y12150000D01*
X10650000Y12150000D02*
X11650000Y12150000D01*
%TO.C,C1*%
X11400000Y12825000D02*
X9800000Y12825000D01*
X11400000Y13625000D02*
X11400000Y12825000D01*
X9800000Y12825000D02*
X9800000Y13625000D01*
X9800000Y13625000D02*
X11400000Y13625000D01*
%TD*%
D16*
%TO.C,R9*%
D15*
X19450000Y1785000D02*
X19460276Y1836662D01*
X19489541Y1880459D01*
X19533338Y1909724D01*
X19585000Y1920000D01*
X19855000Y1920000D01*
X19906662Y1909724D01*
X19950459Y1880459D01*
X19979724Y1836662D01*
X19990000Y1785000D01*
X19990000Y1415000D01*
X19979724Y1363338D01*
X19950459Y1319541D01*
X19906662Y1290276D01*
X19855000Y1280000D01*
X19585000Y1280000D01*
X19533338Y1290276D01*
X19489541Y1319541D01*
X19460276Y1363338D01*
X19450000Y1415000D01*
X19450000Y1785000D01*
D16*
D15*
X18430000Y1785000D02*
X18440276Y1836662D01*
X18469541Y1880459D01*
X18513338Y1909724D01*
X18565000Y1920000D01*
X18835000Y1920000D01*
X18886662Y1909724D01*
X18930459Y1880459D01*
X18959724Y1836662D01*
X18970000Y1785000D01*
X18970000Y1415000D01*
X18959724Y1363338D01*
X18930459Y1319541D01*
X18886662Y1290276D01*
X18835000Y1280000D01*
X18565000Y1280000D01*
X18513338Y1290276D01*
X18469541Y1319541D01*
X18440276Y1363338D01*
X18430000Y1415000D01*
X18430000Y1785000D01*
%TD*%
D16*
%TO.C,D2*%
D15*
X16830000Y1427500D02*
X16818772Y1371054D01*
X16786798Y1323202D01*
X16738946Y1291228D01*
X16682500Y1280000D01*
X16387500Y1280000D01*
X16331054Y1291228D01*
X16283202Y1323202D01*
X16251228Y1371054D01*
X16240000Y1427500D01*
X16240000Y1772500D01*
X16251228Y1828946D01*
X16283202Y1876798D01*
X16331054Y1908772D01*
X16387500Y1920000D01*
X16682500Y1920000D01*
X16738946Y1908772D01*
X16786798Y1876798D01*
X16818772Y1828946D01*
X16830000Y1772500D01*
X16830000Y1427500D01*
D16*
D15*
X17800000Y1427500D02*
X17788772Y1371054D01*
X17756798Y1323202D01*
X17708946Y1291228D01*
X17652500Y1280000D01*
X17357500Y1280000D01*
X17301054Y1291228D01*
X17253202Y1323202D01*
X17221228Y1371054D01*
X17210000Y1427500D01*
X17210000Y1772500D01*
X17221228Y1828946D01*
X17253202Y1876798D01*
X17301054Y1908772D01*
X17357500Y1920000D01*
X17652500Y1920000D01*
X17708946Y1908772D01*
X17756798Y1876798D01*
X17788772Y1828946D01*
X17800000Y1772500D01*
X17800000Y1427500D01*
%TD*%
D16*
%TO.C,R8*%
D15*
X19450000Y2885000D02*
X19460276Y2936662D01*
X19489541Y2980459D01*
X19533338Y3009724D01*
X19585000Y3020000D01*
X19855000Y3020000D01*
X19906662Y3009724D01*
X19950459Y2980459D01*
X19979724Y2936662D01*
X19990000Y2885000D01*
X19990000Y2515000D01*
X19979724Y2463338D01*
X19950459Y2419541D01*
X19906662Y2390276D01*
X19855000Y2380000D01*
X19585000Y2380000D01*
X19533338Y2390276D01*
X19489541Y2419541D01*
X19460276Y2463338D01*
X19450000Y2515000D01*
X19450000Y2885000D01*
D16*
D15*
X18430000Y2885000D02*
X18440276Y2936662D01*
X18469541Y2980459D01*
X18513338Y3009724D01*
X18565000Y3020000D01*
X18835000Y3020000D01*
X18886662Y3009724D01*
X18930459Y2980459D01*
X18959724Y2936662D01*
X18970000Y2885000D01*
X18970000Y2515000D01*
X18959724Y2463338D01*
X18930459Y2419541D01*
X18886662Y2390276D01*
X18835000Y2380000D01*
X18565000Y2380000D01*
X18513338Y2390276D01*
X18469541Y2419541D01*
X18440276Y2463338D01*
X18430000Y2515000D01*
X18430000Y2885000D01*
%TD*%
D16*
%TO.C,C11*%
D15*
X21470000Y7280000D02*
X21523576Y7269343D01*
X21568995Y7238995D01*
X21599343Y7193576D01*
X21610000Y7140000D01*
X21610000Y6860000D01*
X21599343Y6806424D01*
X21568995Y6761005D01*
X21523576Y6730657D01*
X21470000Y6720000D01*
X21130000Y6720000D01*
X21076424Y6730657D01*
X21031005Y6761005D01*
X21000657Y6806424D01*
X20990000Y6860000D01*
X20990000Y7140000D01*
X21000657Y7193576D01*
X21031005Y7238995D01*
X21076424Y7269343D01*
X21130000Y7280000D01*
X21470000Y7280000D01*
D16*
D15*
X21470000Y8240000D02*
X21523576Y8229343D01*
X21568995Y8198995D01*
X21599343Y8153576D01*
X21610000Y8100000D01*
X21610000Y7820000D01*
X21599343Y7766424D01*
X21568995Y7721005D01*
X21523576Y7690657D01*
X21470000Y7680000D01*
X21130000Y7680000D01*
X21076424Y7690657D01*
X21031005Y7721005D01*
X21000657Y7766424D01*
X20990000Y7820000D01*
X20990000Y8100000D01*
X21000657Y8153576D01*
X21031005Y8198995D01*
X21076424Y8229343D01*
X21130000Y8240000D01*
X21470000Y8240000D01*
%TD*%
X3350000Y3630000D02*
X2050000Y3630000D01*
X2050000Y2730000D02*
G75*
G02*
X2050000Y3630000I0J450000D01*
G01*
X2050000Y2730000D02*
X3350000Y2730000D01*
X3350000Y2730000D02*
G75*
G03*
X3350000Y3630000I0J450000D01*
G01*
X7750000Y3630000D02*
X6750000Y3630000D01*
X6750000Y2730000D02*
G75*
G02*
X6750000Y3630000I0J450000D01*
G01*
X6750000Y2730000D02*
X7750000Y2730000D01*
X7750000Y2730000D02*
G75*
G03*
X7750000Y3630000I0J450000D01*
G01*
X6300000Y3780000D02*
X6300000Y3180000D01*
X7200000Y3180000D02*
G75*
G02*
X6300000Y3180000I-450000J0D01*
G01*
X7200000Y3180000D02*
X7200000Y3780000D01*
X7200000Y3780000D02*
G75*
G03*
X6300000Y3780000I-450000J0D01*
G01*
X6300000Y11820000D02*
X6300000Y11220000D01*
X7200000Y11220000D02*
G75*
G02*
X6300000Y11220000I-450000J0D01*
G01*
X7200000Y11220000D02*
X7200000Y11820000D01*
X7200000Y11820000D02*
G75*
G03*
X6300000Y11820000I-450000J0D01*
G01*
X3350000Y12270000D02*
X2050000Y12270000D01*
X2050000Y11370000D02*
G75*
G02*
X2050000Y12270000I0J450000D01*
G01*
X2050000Y11370000D02*
X3350000Y11370000D01*
X3350000Y11370000D02*
G75*
G03*
X3350000Y12270000I0J450000D01*
G01*
X7750000Y12270000D02*
X6750000Y12270000D01*
X6750000Y11370000D02*
G75*
G02*
X6750000Y12270000I0J450000D01*
G01*
X6750000Y11370000D02*
X7750000Y11370000D01*
X7750000Y11370000D02*
G75*
G03*
X7750000Y12270000I0J450000D01*
G01*
%TO.C,J1*%
X6100000Y10500000D02*
X6100000Y10240000D01*
X7050000Y10240000D01*
X7050000Y10500000D01*
X6100000Y10500000D01*
X6100000Y10000000D02*
X6100000Y9740000D01*
X7050000Y9740000D01*
X7050000Y10000000D01*
X6100000Y10000000D01*
X6100000Y9500000D02*
X6100000Y9240000D01*
X7050000Y9240000D01*
X7050000Y9500000D01*
X6100000Y9500000D01*
X6100000Y9000000D02*
X6100000Y8740000D01*
X7050000Y8740000D01*
X7050000Y9000000D01*
X6100000Y9000000D01*
X6100000Y8500000D02*
X6100000Y8240000D01*
X7050000Y8240000D01*
X7050000Y8500000D01*
X6100000Y8500000D01*
X6100000Y8000000D02*
X6100000Y7740000D01*
X7050000Y7740000D01*
X7050000Y8000000D01*
X6100000Y8000000D01*
X6100000Y7500000D02*
X6100000Y7240000D01*
X7050000Y7240000D01*
X7050000Y7500000D01*
X6100000Y7500000D01*
X6100000Y7000000D02*
X6100000Y6740000D01*
X7050000Y6740000D01*
X7050000Y7000000D01*
X6100000Y7000000D01*
X6100000Y6500000D02*
X6100000Y6240000D01*
X7050000Y6240000D01*
X7050000Y6500000D01*
X6100000Y6500000D01*
X6100000Y6000000D02*
X6100000Y5740000D01*
X7050000Y5740000D01*
X7050000Y6000000D01*
X6100000Y6000000D01*
X6100000Y5500000D02*
X6100000Y5240000D01*
X7050000Y5240000D01*
X7050000Y5500000D01*
X6100000Y5500000D01*
X6100000Y5000000D02*
X6100000Y4740000D01*
X7050000Y4740000D01*
X7050000Y5000000D01*
X6100000Y5000000D01*
X7400000Y4760000D02*
X7400000Y4500000D01*
X8350000Y4500000D01*
X8350000Y4760000D01*
X7400000Y4760000D01*
X7400000Y5260000D02*
X7400000Y5000000D01*
X8350000Y5000000D01*
X8350000Y5260000D01*
X7400000Y5260000D01*
X7400000Y5760000D02*
X7400000Y5500000D01*
X8350000Y5500000D01*
X8350000Y5760000D01*
X7400000Y5760000D01*
X7400000Y6260000D02*
X7400000Y6000000D01*
X8350000Y6000000D01*
X8350000Y6260000D01*
X7400000Y6260000D01*
X7400000Y6760000D02*
X7400000Y6500000D01*
X8350000Y6500000D01*
X8350000Y6760000D01*
X7400000Y6760000D01*
X7400000Y7260000D02*
X7400000Y7000000D01*
X8350000Y7000000D01*
X8350000Y7260000D01*
X7400000Y7260000D01*
X7400000Y7760000D02*
X7400000Y7500000D01*
X8350000Y7500000D01*
X8350000Y7760000D01*
X7400000Y7760000D01*
X7400000Y8260000D02*
X7400000Y8000000D01*
X8350000Y8000000D01*
X8350000Y8260000D01*
X7400000Y8260000D01*
X7400000Y8760000D02*
X7400000Y8500000D01*
X8350000Y8500000D01*
X8350000Y8760000D01*
X7400000Y8760000D01*
X7400000Y9260000D02*
X7400000Y9000000D01*
X8350000Y9000000D01*
X8350000Y9260000D01*
X7400000Y9260000D01*
X7400000Y9760000D02*
X7400000Y9500000D01*
X8350000Y9500000D01*
X8350000Y9760000D01*
X7400000Y9760000D01*
X7400000Y10260000D02*
X7400000Y10000000D01*
X8350000Y10000000D01*
X8350000Y10260000D01*
X7400000Y10260000D01*
X6150000Y4100000D02*
G75*
G02*
X5650000Y4100000I-250000J0D01*
G01*
X5650000Y4100000D02*
G75*
G02*
X6150000Y4100000I250000J0D01*
G01*
X6150000Y10900000D02*
G75*
G02*
X5650000Y10900000I-250000J0D01*
G01*
X5650000Y10900000D02*
G75*
G02*
X6150000Y10900000I250000J0D01*
G01*
%TD*%
D16*
%TO.C,Y1*%
D15*
X24150000Y6500000D02*
X24054329Y6519030D01*
X23973223Y6573223D01*
X23919030Y6654329D01*
X23900000Y6750000D01*
X23900000Y7650000D01*
X23919030Y7745671D01*
X23973223Y7826777D01*
X24054329Y7880970D01*
X24150000Y7900000D01*
X24850000Y7900000D01*
X24945671Y7880970D01*
X25026777Y7826777D01*
X25080970Y7745671D01*
X25100000Y7650000D01*
X25100000Y6750000D01*
X25080970Y6654329D01*
X25026777Y6573223D01*
X24945671Y6519030D01*
X24850000Y6500000D01*
X24150000Y6500000D01*
D16*
D15*
X24150000Y8700000D02*
X24054329Y8719030D01*
X23973223Y8773223D01*
X23919030Y8854329D01*
X23900000Y8950000D01*
X23900000Y9850000D01*
X23919030Y9945671D01*
X23973223Y10026777D01*
X24054329Y10080970D01*
X24150000Y10100000D01*
X24850000Y10100000D01*
X24945671Y10080970D01*
X25026777Y10026777D01*
X25080970Y9945671D01*
X25100000Y9850000D01*
X25100000Y8950000D01*
X25080970Y8854329D01*
X25026777Y8773223D01*
X24945671Y8719030D01*
X24850000Y8700000D01*
X24150000Y8700000D01*
D16*
D15*
X22450000Y8700000D02*
X22354329Y8719030D01*
X22273223Y8773223D01*
X22219030Y8854329D01*
X22200000Y8950000D01*
X22200000Y9850000D01*
X22219030Y9945671D01*
X22273223Y10026777D01*
X22354329Y10080970D01*
X22450000Y10100000D01*
X23150000Y10100000D01*
X23245671Y10080970D01*
X23326777Y10026777D01*
X23380970Y9945671D01*
X23400000Y9850000D01*
X23400000Y8950000D01*
X23380970Y8854329D01*
X23326777Y8773223D01*
X23245671Y8719030D01*
X23150000Y8700000D01*
X22450000Y8700000D01*
D16*
D15*
X22450000Y6500000D02*
X22354329Y6519030D01*
X22273223Y6573223D01*
X22219030Y6654329D01*
X22200000Y6750000D01*
X22200000Y7650000D01*
X22219030Y7745671D01*
X22273223Y7826777D01*
X22354329Y7880970D01*
X22450000Y7900000D01*
X23150000Y7900000D01*
X23245671Y7880970D01*
X23326777Y7826777D01*
X23380970Y7745671D01*
X23400000Y7650000D01*
X23400000Y6750000D01*
X23380970Y6654329D01*
X23326777Y6573223D01*
X23245671Y6519030D01*
X23150000Y6500000D01*
X22450000Y6500000D01*
%TD*%
D16*
%TO.C,U2*%
D15*
X26150000Y11487500D02*
X26155709Y11516201D01*
X26171967Y11540533D01*
X26196299Y11556791D01*
X26225000Y11562500D01*
X27550000Y11562500D01*
X27578701Y11556791D01*
X27603033Y11540533D01*
X27619291Y11516201D01*
X27625000Y11487500D01*
X27625000Y11337500D01*
X27619291Y11308799D01*
X27603033Y11284467D01*
X27578701Y11268209D01*
X27550000Y11262500D01*
X26225000Y11262500D01*
X26196299Y11268209D01*
X26171967Y11284467D01*
X26155709Y11308799D01*
X26150000Y11337500D01*
X26150000Y11487500D01*
D16*
D15*
X26150000Y10987500D02*
X26155709Y11016201D01*
X26171967Y11040533D01*
X26196299Y11056791D01*
X26225000Y11062500D01*
X27550000Y11062500D01*
X27578701Y11056791D01*
X27603033Y11040533D01*
X27619291Y11016201D01*
X27625000Y10987500D01*
X27625000Y10837500D01*
X27619291Y10808799D01*
X27603033Y10784467D01*
X27578701Y10768209D01*
X27550000Y10762500D01*
X26225000Y10762500D01*
X26196299Y10768209D01*
X26171967Y10784467D01*
X26155709Y10808799D01*
X26150000Y10837500D01*
X26150000Y10987500D01*
D16*
D15*
X26150000Y10487500D02*
X26155709Y10516201D01*
X26171967Y10540533D01*
X26196299Y10556791D01*
X26225000Y10562500D01*
X27550000Y10562500D01*
X27578701Y10556791D01*
X27603033Y10540533D01*
X27619291Y10516201D01*
X27625000Y10487500D01*
X27625000Y10337500D01*
X27619291Y10308799D01*
X27603033Y10284467D01*
X27578701Y10268209D01*
X27550000Y10262500D01*
X26225000Y10262500D01*
X26196299Y10268209D01*
X26171967Y10284467D01*
X26155709Y10308799D01*
X26150000Y10337500D01*
X26150000Y10487500D01*
D16*
D15*
X26150000Y9987500D02*
X26155709Y10016201D01*
X26171967Y10040533D01*
X26196299Y10056791D01*
X26225000Y10062500D01*
X27550000Y10062500D01*
X27578701Y10056791D01*
X27603033Y10040533D01*
X27619291Y10016201D01*
X27625000Y9987500D01*
X27625000Y9837500D01*
X27619291Y9808799D01*
X27603033Y9784467D01*
X27578701Y9768209D01*
X27550000Y9762500D01*
X26225000Y9762500D01*
X26196299Y9768209D01*
X26171967Y9784467D01*
X26155709Y9808799D01*
X26150000Y9837500D01*
X26150000Y9987500D01*
D16*
D15*
X26150000Y9487500D02*
X26155709Y9516201D01*
X26171967Y9540533D01*
X26196299Y9556791D01*
X26225000Y9562500D01*
X27550000Y9562500D01*
X27578701Y9556791D01*
X27603033Y9540533D01*
X27619291Y9516201D01*
X27625000Y9487500D01*
X27625000Y9337500D01*
X27619291Y9308799D01*
X27603033Y9284467D01*
X27578701Y9268209D01*
X27550000Y9262500D01*
X26225000Y9262500D01*
X26196299Y9268209D01*
X26171967Y9284467D01*
X26155709Y9308799D01*
X26150000Y9337500D01*
X26150000Y9487500D01*
D16*
D15*
X26150000Y8987500D02*
X26155709Y9016201D01*
X26171967Y9040533D01*
X26196299Y9056791D01*
X26225000Y9062500D01*
X27550000Y9062500D01*
X27578701Y9056791D01*
X27603033Y9040533D01*
X27619291Y9016201D01*
X27625000Y8987500D01*
X27625000Y8837500D01*
X27619291Y8808799D01*
X27603033Y8784467D01*
X27578701Y8768209D01*
X27550000Y8762500D01*
X26225000Y8762500D01*
X26196299Y8768209D01*
X26171967Y8784467D01*
X26155709Y8808799D01*
X26150000Y8837500D01*
X26150000Y8987500D01*
D16*
D15*
X26150000Y8487500D02*
X26155709Y8516201D01*
X26171967Y8540533D01*
X26196299Y8556791D01*
X26225000Y8562500D01*
X27550000Y8562500D01*
X27578701Y8556791D01*
X27603033Y8540533D01*
X27619291Y8516201D01*
X27625000Y8487500D01*
X27625000Y8337500D01*
X27619291Y8308799D01*
X27603033Y8284467D01*
X27578701Y8268209D01*
X27550000Y8262500D01*
X26225000Y8262500D01*
X26196299Y8268209D01*
X26171967Y8284467D01*
X26155709Y8308799D01*
X26150000Y8337500D01*
X26150000Y8487500D01*
D16*
D15*
X26150000Y7987500D02*
X26155709Y8016201D01*
X26171967Y8040533D01*
X26196299Y8056791D01*
X26225000Y8062500D01*
X27550000Y8062500D01*
X27578701Y8056791D01*
X27603033Y8040533D01*
X27619291Y8016201D01*
X27625000Y7987500D01*
X27625000Y7837500D01*
X27619291Y7808799D01*
X27603033Y7784467D01*
X27578701Y7768209D01*
X27550000Y7762500D01*
X26225000Y7762500D01*
X26196299Y7768209D01*
X26171967Y7784467D01*
X26155709Y7808799D01*
X26150000Y7837500D01*
X26150000Y7987500D01*
D16*
D15*
X26150000Y7487500D02*
X26155709Y7516201D01*
X26171967Y7540533D01*
X26196299Y7556791D01*
X26225000Y7562500D01*
X27550000Y7562500D01*
X27578701Y7556791D01*
X27603033Y7540533D01*
X27619291Y7516201D01*
X27625000Y7487500D01*
X27625000Y7337500D01*
X27619291Y7308799D01*
X27603033Y7284467D01*
X27578701Y7268209D01*
X27550000Y7262500D01*
X26225000Y7262500D01*
X26196299Y7268209D01*
X26171967Y7284467D01*
X26155709Y7308799D01*
X26150000Y7337500D01*
X26150000Y7487500D01*
D16*
D15*
X26150000Y6987500D02*
X26155709Y7016201D01*
X26171967Y7040533D01*
X26196299Y7056791D01*
X26225000Y7062500D01*
X27550000Y7062500D01*
X27578701Y7056791D01*
X27603033Y7040533D01*
X27619291Y7016201D01*
X27625000Y6987500D01*
X27625000Y6837500D01*
X27619291Y6808799D01*
X27603033Y6784467D01*
X27578701Y6768209D01*
X27550000Y6762500D01*
X26225000Y6762500D01*
X26196299Y6768209D01*
X26171967Y6784467D01*
X26155709Y6808799D01*
X26150000Y6837500D01*
X26150000Y6987500D01*
D16*
D15*
X26150000Y6487500D02*
X26155709Y6516201D01*
X26171967Y6540533D01*
X26196299Y6556791D01*
X26225000Y6562500D01*
X27550000Y6562500D01*
X27578701Y6556791D01*
X27603033Y6540533D01*
X27619291Y6516201D01*
X27625000Y6487500D01*
X27625000Y6337500D01*
X27619291Y6308799D01*
X27603033Y6284467D01*
X27578701Y6268209D01*
X27550000Y6262500D01*
X26225000Y6262500D01*
X26196299Y6268209D01*
X26171967Y6284467D01*
X26155709Y6308799D01*
X26150000Y6337500D01*
X26150000Y6487500D01*
D16*
D15*
X26150000Y5987500D02*
X26155709Y6016201D01*
X26171967Y6040533D01*
X26196299Y6056791D01*
X26225000Y6062500D01*
X27550000Y6062500D01*
X27578701Y6056791D01*
X27603033Y6040533D01*
X27619291Y6016201D01*
X27625000Y5987500D01*
X27625000Y5837500D01*
X27619291Y5808799D01*
X27603033Y5784467D01*
X27578701Y5768209D01*
X27550000Y5762500D01*
X26225000Y5762500D01*
X26196299Y5768209D01*
X26171967Y5784467D01*
X26155709Y5808799D01*
X26150000Y5837500D01*
X26150000Y5987500D01*
D16*
D15*
X28150000Y5162500D02*
X28155709Y5191201D01*
X28171967Y5215533D01*
X28196299Y5231791D01*
X28225000Y5237500D01*
X28375000Y5237500D01*
X28403701Y5231791D01*
X28428033Y5215533D01*
X28444291Y5191201D01*
X28450000Y5162500D01*
X28450000Y3837500D01*
X28444291Y3808799D01*
X28428033Y3784467D01*
X28403701Y3768209D01*
X28375000Y3762500D01*
X28225000Y3762500D01*
X28196299Y3768209D01*
X28171967Y3784467D01*
X28155709Y3808799D01*
X28150000Y3837500D01*
X28150000Y5162500D01*
D16*
D15*
X28650000Y5162500D02*
X28655709Y5191201D01*
X28671967Y5215533D01*
X28696299Y5231791D01*
X28725000Y5237500D01*
X28875000Y5237500D01*
X28903701Y5231791D01*
X28928033Y5215533D01*
X28944291Y5191201D01*
X28950000Y5162500D01*
X28950000Y3837500D01*
X28944291Y3808799D01*
X28928033Y3784467D01*
X28903701Y3768209D01*
X28875000Y3762500D01*
X28725000Y3762500D01*
X28696299Y3768209D01*
X28671967Y3784467D01*
X28655709Y3808799D01*
X28650000Y3837500D01*
X28650000Y5162500D01*
D16*
D15*
X29150000Y5162500D02*
X29155709Y5191201D01*
X29171967Y5215533D01*
X29196299Y5231791D01*
X29225000Y5237500D01*
X29375000Y5237500D01*
X29403701Y5231791D01*
X29428033Y5215533D01*
X29444291Y5191201D01*
X29450000Y5162500D01*
X29450000Y3837500D01*
X29444291Y3808799D01*
X29428033Y3784467D01*
X29403701Y3768209D01*
X29375000Y3762500D01*
X29225000Y3762500D01*
X29196299Y3768209D01*
X29171967Y3784467D01*
X29155709Y3808799D01*
X29150000Y3837500D01*
X29150000Y5162500D01*
D16*
D15*
X29650000Y5162500D02*
X29655709Y5191201D01*
X29671967Y5215533D01*
X29696299Y5231791D01*
X29725000Y5237500D01*
X29875000Y5237500D01*
X29903701Y5231791D01*
X29928033Y5215533D01*
X29944291Y5191201D01*
X29950000Y5162500D01*
X29950000Y3837500D01*
X29944291Y3808799D01*
X29928033Y3784467D01*
X29903701Y3768209D01*
X29875000Y3762500D01*
X29725000Y3762500D01*
X29696299Y3768209D01*
X29671967Y3784467D01*
X29655709Y3808799D01*
X29650000Y3837500D01*
X29650000Y5162500D01*
D16*
D15*
X30150000Y5162500D02*
X30155709Y5191201D01*
X30171967Y5215533D01*
X30196299Y5231791D01*
X30225000Y5237500D01*
X30375000Y5237500D01*
X30403701Y5231791D01*
X30428033Y5215533D01*
X30444291Y5191201D01*
X30450000Y5162500D01*
X30450000Y3837500D01*
X30444291Y3808799D01*
X30428033Y3784467D01*
X30403701Y3768209D01*
X30375000Y3762500D01*
X30225000Y3762500D01*
X30196299Y3768209D01*
X30171967Y3784467D01*
X30155709Y3808799D01*
X30150000Y3837500D01*
X30150000Y5162500D01*
D16*
D15*
X30650000Y5162500D02*
X30655709Y5191201D01*
X30671967Y5215533D01*
X30696299Y5231791D01*
X30725000Y5237500D01*
X30875000Y5237500D01*
X30903701Y5231791D01*
X30928033Y5215533D01*
X30944291Y5191201D01*
X30950000Y5162500D01*
X30950000Y3837500D01*
X30944291Y3808799D01*
X30928033Y3784467D01*
X30903701Y3768209D01*
X30875000Y3762500D01*
X30725000Y3762500D01*
X30696299Y3768209D01*
X30671967Y3784467D01*
X30655709Y3808799D01*
X30650000Y3837500D01*
X30650000Y5162500D01*
D16*
D15*
X31150000Y5162500D02*
X31155709Y5191201D01*
X31171967Y5215533D01*
X31196299Y5231791D01*
X31225000Y5237500D01*
X31375000Y5237500D01*
X31403701Y5231791D01*
X31428033Y5215533D01*
X31444291Y5191201D01*
X31450000Y5162500D01*
X31450000Y3837500D01*
X31444291Y3808799D01*
X31428033Y3784467D01*
X31403701Y3768209D01*
X31375000Y3762500D01*
X31225000Y3762500D01*
X31196299Y3768209D01*
X31171967Y3784467D01*
X31155709Y3808799D01*
X31150000Y3837500D01*
X31150000Y5162500D01*
D16*
D15*
X31650000Y5162500D02*
X31655709Y5191201D01*
X31671967Y5215533D01*
X31696299Y5231791D01*
X31725000Y5237500D01*
X31875000Y5237500D01*
X31903701Y5231791D01*
X31928033Y5215533D01*
X31944291Y5191201D01*
X31950000Y5162500D01*
X31950000Y3837500D01*
X31944291Y3808799D01*
X31928033Y3784467D01*
X31903701Y3768209D01*
X31875000Y3762500D01*
X31725000Y3762500D01*
X31696299Y3768209D01*
X31671967Y3784467D01*
X31655709Y3808799D01*
X31650000Y3837500D01*
X31650000Y5162500D01*
D16*
D15*
X32150000Y5162500D02*
X32155709Y5191201D01*
X32171967Y5215533D01*
X32196299Y5231791D01*
X32225000Y5237500D01*
X32375000Y5237500D01*
X32403701Y5231791D01*
X32428033Y5215533D01*
X32444291Y5191201D01*
X32450000Y5162500D01*
X32450000Y3837500D01*
X32444291Y3808799D01*
X32428033Y3784467D01*
X32403701Y3768209D01*
X32375000Y3762500D01*
X32225000Y3762500D01*
X32196299Y3768209D01*
X32171967Y3784467D01*
X32155709Y3808799D01*
X32150000Y3837500D01*
X32150000Y5162500D01*
D16*
D15*
X32650000Y5162500D02*
X32655709Y5191201D01*
X32671967Y5215533D01*
X32696299Y5231791D01*
X32725000Y5237500D01*
X32875000Y5237500D01*
X32903701Y5231791D01*
X32928033Y5215533D01*
X32944291Y5191201D01*
X32950000Y5162500D01*
X32950000Y3837500D01*
X32944291Y3808799D01*
X32928033Y3784467D01*
X32903701Y3768209D01*
X32875000Y3762500D01*
X32725000Y3762500D01*
X32696299Y3768209D01*
X32671967Y3784467D01*
X32655709Y3808799D01*
X32650000Y3837500D01*
X32650000Y5162500D01*
D16*
D15*
X33150000Y5162500D02*
X33155709Y5191201D01*
X33171967Y5215533D01*
X33196299Y5231791D01*
X33225000Y5237500D01*
X33375000Y5237500D01*
X33403701Y5231791D01*
X33428033Y5215533D01*
X33444291Y5191201D01*
X33450000Y5162500D01*
X33450000Y3837500D01*
X33444291Y3808799D01*
X33428033Y3784467D01*
X33403701Y3768209D01*
X33375000Y3762500D01*
X33225000Y3762500D01*
X33196299Y3768209D01*
X33171967Y3784467D01*
X33155709Y3808799D01*
X33150000Y3837500D01*
X33150000Y5162500D01*
D16*
D15*
X33650000Y5162500D02*
X33655709Y5191201D01*
X33671967Y5215533D01*
X33696299Y5231791D01*
X33725000Y5237500D01*
X33875000Y5237500D01*
X33903701Y5231791D01*
X33928033Y5215533D01*
X33944291Y5191201D01*
X33950000Y5162500D01*
X33950000Y3837500D01*
X33944291Y3808799D01*
X33928033Y3784467D01*
X33903701Y3768209D01*
X33875000Y3762500D01*
X33725000Y3762500D01*
X33696299Y3768209D01*
X33671967Y3784467D01*
X33655709Y3808799D01*
X33650000Y3837500D01*
X33650000Y5162500D01*
D16*
D15*
X34475000Y5987500D02*
X34480709Y6016201D01*
X34496967Y6040533D01*
X34521299Y6056791D01*
X34550000Y6062500D01*
X35875000Y6062500D01*
X35903701Y6056791D01*
X35928033Y6040533D01*
X35944291Y6016201D01*
X35950000Y5987500D01*
X35950000Y5837500D01*
X35944291Y5808799D01*
X35928033Y5784467D01*
X35903701Y5768209D01*
X35875000Y5762500D01*
X34550000Y5762500D01*
X34521299Y5768209D01*
X34496967Y5784467D01*
X34480709Y5808799D01*
X34475000Y5837500D01*
X34475000Y5987500D01*
D16*
D15*
X34475000Y6487500D02*
X34480709Y6516201D01*
X34496967Y6540533D01*
X34521299Y6556791D01*
X34550000Y6562500D01*
X35875000Y6562500D01*
X35903701Y6556791D01*
X35928033Y6540533D01*
X35944291Y6516201D01*
X35950000Y6487500D01*
X35950000Y6337500D01*
X35944291Y6308799D01*
X35928033Y6284467D01*
X35903701Y6268209D01*
X35875000Y6262500D01*
X34550000Y6262500D01*
X34521299Y6268209D01*
X34496967Y6284467D01*
X34480709Y6308799D01*
X34475000Y6337500D01*
X34475000Y6487500D01*
D16*
D15*
X34475000Y6987500D02*
X34480709Y7016201D01*
X34496967Y7040533D01*
X34521299Y7056791D01*
X34550000Y7062500D01*
X35875000Y7062500D01*
X35903701Y7056791D01*
X35928033Y7040533D01*
X35944291Y7016201D01*
X35950000Y6987500D01*
X35950000Y6837500D01*
X35944291Y6808799D01*
X35928033Y6784467D01*
X35903701Y6768209D01*
X35875000Y6762500D01*
X34550000Y6762500D01*
X34521299Y6768209D01*
X34496967Y6784467D01*
X34480709Y6808799D01*
X34475000Y6837500D01*
X34475000Y6987500D01*
D16*
D15*
X34475000Y7487500D02*
X34480709Y7516201D01*
X34496967Y7540533D01*
X34521299Y7556791D01*
X34550000Y7562500D01*
X35875000Y7562500D01*
X35903701Y7556791D01*
X35928033Y7540533D01*
X35944291Y7516201D01*
X35950000Y7487500D01*
X35950000Y7337500D01*
X35944291Y7308799D01*
X35928033Y7284467D01*
X35903701Y7268209D01*
X35875000Y7262500D01*
X34550000Y7262500D01*
X34521299Y7268209D01*
X34496967Y7284467D01*
X34480709Y7308799D01*
X34475000Y7337500D01*
X34475000Y7487500D01*
D16*
D15*
X34475000Y7987500D02*
X34480709Y8016201D01*
X34496967Y8040533D01*
X34521299Y8056791D01*
X34550000Y8062500D01*
X35875000Y8062500D01*
X35903701Y8056791D01*
X35928033Y8040533D01*
X35944291Y8016201D01*
X35950000Y7987500D01*
X35950000Y7837500D01*
X35944291Y7808799D01*
X35928033Y7784467D01*
X35903701Y7768209D01*
X35875000Y7762500D01*
X34550000Y7762500D01*
X34521299Y7768209D01*
X34496967Y7784467D01*
X34480709Y7808799D01*
X34475000Y7837500D01*
X34475000Y7987500D01*
D16*
D15*
X34475000Y8487500D02*
X34480709Y8516201D01*
X34496967Y8540533D01*
X34521299Y8556791D01*
X34550000Y8562500D01*
X35875000Y8562500D01*
X35903701Y8556791D01*
X35928033Y8540533D01*
X35944291Y8516201D01*
X35950000Y8487500D01*
X35950000Y8337500D01*
X35944291Y8308799D01*
X35928033Y8284467D01*
X35903701Y8268209D01*
X35875000Y8262500D01*
X34550000Y8262500D01*
X34521299Y8268209D01*
X34496967Y8284467D01*
X34480709Y8308799D01*
X34475000Y8337500D01*
X34475000Y8487500D01*
D16*
D15*
X34475000Y8987500D02*
X34480709Y9016201D01*
X34496967Y9040533D01*
X34521299Y9056791D01*
X34550000Y9062500D01*
X35875000Y9062500D01*
X35903701Y9056791D01*
X35928033Y9040533D01*
X35944291Y9016201D01*
X35950000Y8987500D01*
X35950000Y8837500D01*
X35944291Y8808799D01*
X35928033Y8784467D01*
X35903701Y8768209D01*
X35875000Y8762500D01*
X34550000Y8762500D01*
X34521299Y8768209D01*
X34496967Y8784467D01*
X34480709Y8808799D01*
X34475000Y8837500D01*
X34475000Y8987500D01*
D16*
D15*
X34475000Y9487500D02*
X34480709Y9516201D01*
X34496967Y9540533D01*
X34521299Y9556791D01*
X34550000Y9562500D01*
X35875000Y9562500D01*
X35903701Y9556791D01*
X35928033Y9540533D01*
X35944291Y9516201D01*
X35950000Y9487500D01*
X35950000Y9337500D01*
X35944291Y9308799D01*
X35928033Y9284467D01*
X35903701Y9268209D01*
X35875000Y9262500D01*
X34550000Y9262500D01*
X34521299Y9268209D01*
X34496967Y9284467D01*
X34480709Y9308799D01*
X34475000Y9337500D01*
X34475000Y9487500D01*
D16*
D15*
X34475000Y9987500D02*
X34480709Y10016201D01*
X34496967Y10040533D01*
X34521299Y10056791D01*
X34550000Y10062500D01*
X35875000Y10062500D01*
X35903701Y10056791D01*
X35928033Y10040533D01*
X35944291Y10016201D01*
X35950000Y9987500D01*
X35950000Y9837500D01*
X35944291Y9808799D01*
X35928033Y9784467D01*
X35903701Y9768209D01*
X35875000Y9762500D01*
X34550000Y9762500D01*
X34521299Y9768209D01*
X34496967Y9784467D01*
X34480709Y9808799D01*
X34475000Y9837500D01*
X34475000Y9987500D01*
D16*
D15*
X34475000Y10487500D02*
X34480709Y10516201D01*
X34496967Y10540533D01*
X34521299Y10556791D01*
X34550000Y10562500D01*
X35875000Y10562500D01*
X35903701Y10556791D01*
X35928033Y10540533D01*
X35944291Y10516201D01*
X35950000Y10487500D01*
X35950000Y10337500D01*
X35944291Y10308799D01*
X35928033Y10284467D01*
X35903701Y10268209D01*
X35875000Y10262500D01*
X34550000Y10262500D01*
X34521299Y10268209D01*
X34496967Y10284467D01*
X34480709Y10308799D01*
X34475000Y10337500D01*
X34475000Y10487500D01*
D16*
D15*
X34475000Y10987500D02*
X34480709Y11016201D01*
X34496967Y11040533D01*
X34521299Y11056791D01*
X34550000Y11062500D01*
X35875000Y11062500D01*
X35903701Y11056791D01*
X35928033Y11040533D01*
X35944291Y11016201D01*
X35950000Y10987500D01*
X35950000Y10837500D01*
X35944291Y10808799D01*
X35928033Y10784467D01*
X35903701Y10768209D01*
X35875000Y10762500D01*
X34550000Y10762500D01*
X34521299Y10768209D01*
X34496967Y10784467D01*
X34480709Y10808799D01*
X34475000Y10837500D01*
X34475000Y10987500D01*
D16*
D15*
X34475000Y11487500D02*
X34480709Y11516201D01*
X34496967Y11540533D01*
X34521299Y11556791D01*
X34550000Y11562500D01*
X35875000Y11562500D01*
X35903701Y11556791D01*
X35928033Y11540533D01*
X35944291Y11516201D01*
X35950000Y11487500D01*
X35950000Y11337500D01*
X35944291Y11308799D01*
X35928033Y11284467D01*
X35903701Y11268209D01*
X35875000Y11262500D01*
X34550000Y11262500D01*
X34521299Y11268209D01*
X34496967Y11284467D01*
X34480709Y11308799D01*
X34475000Y11337500D01*
X34475000Y11487500D01*
D16*
D15*
X33650000Y13487500D02*
X33655709Y13516201D01*
X33671967Y13540533D01*
X33696299Y13556791D01*
X33725000Y13562500D01*
X33875000Y13562500D01*
X33903701Y13556791D01*
X33928033Y13540533D01*
X33944291Y13516201D01*
X33950000Y13487500D01*
X33950000Y12162500D01*
X33944291Y12133799D01*
X33928033Y12109467D01*
X33903701Y12093209D01*
X33875000Y12087500D01*
X33725000Y12087500D01*
X33696299Y12093209D01*
X33671967Y12109467D01*
X33655709Y12133799D01*
X33650000Y12162500D01*
X33650000Y13487500D01*
D16*
D15*
X33150000Y13487500D02*
X33155709Y13516201D01*
X33171967Y13540533D01*
X33196299Y13556791D01*
X33225000Y13562500D01*
X33375000Y13562500D01*
X33403701Y13556791D01*
X33428033Y13540533D01*
X33444291Y13516201D01*
X33450000Y13487500D01*
X33450000Y12162500D01*
X33444291Y12133799D01*
X33428033Y12109467D01*
X33403701Y12093209D01*
X33375000Y12087500D01*
X33225000Y12087500D01*
X33196299Y12093209D01*
X33171967Y12109467D01*
X33155709Y12133799D01*
X33150000Y12162500D01*
X33150000Y13487500D01*
D16*
D15*
X32650000Y13487500D02*
X32655709Y13516201D01*
X32671967Y13540533D01*
X32696299Y13556791D01*
X32725000Y13562500D01*
X32875000Y13562500D01*
X32903701Y13556791D01*
X32928033Y13540533D01*
X32944291Y13516201D01*
X32950000Y13487500D01*
X32950000Y12162500D01*
X32944291Y12133799D01*
X32928033Y12109467D01*
X32903701Y12093209D01*
X32875000Y12087500D01*
X32725000Y12087500D01*
X32696299Y12093209D01*
X32671967Y12109467D01*
X32655709Y12133799D01*
X32650000Y12162500D01*
X32650000Y13487500D01*
D16*
D15*
X32150000Y13487500D02*
X32155709Y13516201D01*
X32171967Y13540533D01*
X32196299Y13556791D01*
X32225000Y13562500D01*
X32375000Y13562500D01*
X32403701Y13556791D01*
X32428033Y13540533D01*
X32444291Y13516201D01*
X32450000Y13487500D01*
X32450000Y12162500D01*
X32444291Y12133799D01*
X32428033Y12109467D01*
X32403701Y12093209D01*
X32375000Y12087500D01*
X32225000Y12087500D01*
X32196299Y12093209D01*
X32171967Y12109467D01*
X32155709Y12133799D01*
X32150000Y12162500D01*
X32150000Y13487500D01*
D16*
D15*
X31650000Y13487500D02*
X31655709Y13516201D01*
X31671967Y13540533D01*
X31696299Y13556791D01*
X31725000Y13562500D01*
X31875000Y13562500D01*
X31903701Y13556791D01*
X31928033Y13540533D01*
X31944291Y13516201D01*
X31950000Y13487500D01*
X31950000Y12162500D01*
X31944291Y12133799D01*
X31928033Y12109467D01*
X31903701Y12093209D01*
X31875000Y12087500D01*
X31725000Y12087500D01*
X31696299Y12093209D01*
X31671967Y12109467D01*
X31655709Y12133799D01*
X31650000Y12162500D01*
X31650000Y13487500D01*
D16*
D15*
X31150000Y13487500D02*
X31155709Y13516201D01*
X31171967Y13540533D01*
X31196299Y13556791D01*
X31225000Y13562500D01*
X31375000Y13562500D01*
X31403701Y13556791D01*
X31428033Y13540533D01*
X31444291Y13516201D01*
X31450000Y13487500D01*
X31450000Y12162500D01*
X31444291Y12133799D01*
X31428033Y12109467D01*
X31403701Y12093209D01*
X31375000Y12087500D01*
X31225000Y12087500D01*
X31196299Y12093209D01*
X31171967Y12109467D01*
X31155709Y12133799D01*
X31150000Y12162500D01*
X31150000Y13487500D01*
D16*
D15*
X30650000Y13487500D02*
X30655709Y13516201D01*
X30671967Y13540533D01*
X30696299Y13556791D01*
X30725000Y13562500D01*
X30875000Y13562500D01*
X30903701Y13556791D01*
X30928033Y13540533D01*
X30944291Y13516201D01*
X30950000Y13487500D01*
X30950000Y12162500D01*
X30944291Y12133799D01*
X30928033Y12109467D01*
X30903701Y12093209D01*
X30875000Y12087500D01*
X30725000Y12087500D01*
X30696299Y12093209D01*
X30671967Y12109467D01*
X30655709Y12133799D01*
X30650000Y12162500D01*
X30650000Y13487500D01*
D16*
D15*
X30150000Y13487500D02*
X30155709Y13516201D01*
X30171967Y13540533D01*
X30196299Y13556791D01*
X30225000Y13562500D01*
X30375000Y13562500D01*
X30403701Y13556791D01*
X30428033Y13540533D01*
X30444291Y13516201D01*
X30450000Y13487500D01*
X30450000Y12162500D01*
X30444291Y12133799D01*
X30428033Y12109467D01*
X30403701Y12093209D01*
X30375000Y12087500D01*
X30225000Y12087500D01*
X30196299Y12093209D01*
X30171967Y12109467D01*
X30155709Y12133799D01*
X30150000Y12162500D01*
X30150000Y13487500D01*
D16*
D15*
X29650000Y13487500D02*
X29655709Y13516201D01*
X29671967Y13540533D01*
X29696299Y13556791D01*
X29725000Y13562500D01*
X29875000Y13562500D01*
X29903701Y13556791D01*
X29928033Y13540533D01*
X29944291Y13516201D01*
X29950000Y13487500D01*
X29950000Y12162500D01*
X29944291Y12133799D01*
X29928033Y12109467D01*
X29903701Y12093209D01*
X29875000Y12087500D01*
X29725000Y12087500D01*
X29696299Y12093209D01*
X29671967Y12109467D01*
X29655709Y12133799D01*
X29650000Y12162500D01*
X29650000Y13487500D01*
D16*
D15*
X29150000Y13487500D02*
X29155709Y13516201D01*
X29171967Y13540533D01*
X29196299Y13556791D01*
X29225000Y13562500D01*
X29375000Y13562500D01*
X29403701Y13556791D01*
X29428033Y13540533D01*
X29444291Y13516201D01*
X29450000Y13487500D01*
X29450000Y12162500D01*
X29444291Y12133799D01*
X29428033Y12109467D01*
X29403701Y12093209D01*
X29375000Y12087500D01*
X29225000Y12087500D01*
X29196299Y12093209D01*
X29171967Y12109467D01*
X29155709Y12133799D01*
X29150000Y12162500D01*
X29150000Y13487500D01*
D16*
D15*
X28650000Y13487500D02*
X28655709Y13516201D01*
X28671967Y13540533D01*
X28696299Y13556791D01*
X28725000Y13562500D01*
X28875000Y13562500D01*
X28903701Y13556791D01*
X28928033Y13540533D01*
X28944291Y13516201D01*
X28950000Y13487500D01*
X28950000Y12162500D01*
X28944291Y12133799D01*
X28928033Y12109467D01*
X28903701Y12093209D01*
X28875000Y12087500D01*
X28725000Y12087500D01*
X28696299Y12093209D01*
X28671967Y12109467D01*
X28655709Y12133799D01*
X28650000Y12162500D01*
X28650000Y13487500D01*
D16*
D15*
X28150000Y13487500D02*
X28155709Y13516201D01*
X28171967Y13540533D01*
X28196299Y13556791D01*
X28225000Y13562500D01*
X28375000Y13562500D01*
X28403701Y13556791D01*
X28428033Y13540533D01*
X28444291Y13516201D01*
X28450000Y13487500D01*
X28450000Y12162500D01*
X28444291Y12133799D01*
X28428033Y12109467D01*
X28403701Y12093209D01*
X28375000Y12087500D01*
X28225000Y12087500D01*
X28196299Y12093209D01*
X28171967Y12109467D01*
X28155709Y12133799D01*
X28150000Y12162500D01*
X28150000Y13487500D01*
%TD*%
D16*
%TO.C,U1*%
D15*
X18812500Y13200000D02*
X18919501Y13184410D01*
X19030404Y13130193D01*
X19117693Y13042904D01*
X19171910Y12932001D01*
X19187500Y12825000D01*
X19187500Y11575000D01*
X19171910Y11467999D01*
X19117693Y11357096D01*
X19030404Y11269807D01*
X18919501Y11215590D01*
X18812500Y11200000D01*
X18062500Y11200000D01*
X17955499Y11215590D01*
X17844596Y11269807D01*
X17757307Y11357096D01*
X17703090Y11467999D01*
X17687500Y11575000D01*
X17687500Y12825000D01*
X17703090Y12932001D01*
X17757307Y13042904D01*
X17844596Y13130193D01*
X17955499Y13184410D01*
X18062500Y13200000D01*
X18812500Y13200000D01*
D16*
D15*
X16512500Y13200000D02*
X16619501Y13184410D01*
X16730404Y13130193D01*
X16817693Y13042904D01*
X16871910Y12932001D01*
X16887500Y12825000D01*
X16887500Y11575000D01*
X16871910Y11467999D01*
X16817693Y11357096D01*
X16730404Y11269807D01*
X16619501Y11215590D01*
X16512500Y11200000D01*
X15762500Y11200000D01*
X15655499Y11215590D01*
X15544596Y11269807D01*
X15457307Y11357096D01*
X15403090Y11467999D01*
X15387500Y11575000D01*
X15387500Y12825000D01*
X15403090Y12932001D01*
X15457307Y13042904D01*
X15544596Y13130193D01*
X15655499Y13184410D01*
X15762500Y13200000D01*
X16512500Y13200000D01*
D16*
D15*
X17537500Y6900000D02*
X17643783Y6888573D01*
X17777124Y6838839D01*
X17891053Y6753553D01*
X17976339Y6639624D01*
X18026073Y6506283D01*
X18037500Y6400000D01*
X18037500Y5400000D01*
X18026073Y5293717D01*
X17976339Y5160376D01*
X17891053Y5046447D01*
X17777124Y4961161D01*
X17643783Y4911427D01*
X17537500Y4900000D01*
X14737500Y4900000D01*
X14631217Y4911427D01*
X14497876Y4961161D01*
X14383947Y5046447D01*
X14298661Y5160376D01*
X14248927Y5293717D01*
X14237500Y5400000D01*
X14237500Y6400000D01*
X14248927Y6506283D01*
X14298661Y6639624D01*
X14383947Y6753553D01*
X14497876Y6838839D01*
X14631217Y6888573D01*
X14737500Y6900000D01*
X17537500Y6900000D01*
D16*
D15*
X14212500Y13200000D02*
X14319501Y13184410D01*
X14430404Y13130193D01*
X14517693Y13042904D01*
X14571910Y12932001D01*
X14587500Y12825000D01*
X14587500Y11575000D01*
X14571910Y11467999D01*
X14517693Y11357096D01*
X14430404Y11269807D01*
X14319501Y11215590D01*
X14212500Y11200000D01*
X13462500Y11200000D01*
X13355499Y11215590D01*
X13244596Y11269807D01*
X13157307Y11357096D01*
X13103090Y11467999D01*
X13087500Y11575000D01*
X13087500Y12825000D01*
X13103090Y12932001D01*
X13157307Y13042904D01*
X13244596Y13130193D01*
X13355499Y13184410D01*
X13462500Y13200000D01*
X14212500Y13200000D01*
%TD*%
D16*
%TO.C,R23*%
D15*
X22810000Y1785000D02*
X22820276Y1836662D01*
X22849541Y1880459D01*
X22893338Y1909724D01*
X22945000Y1920000D01*
X23215000Y1920000D01*
X23266662Y1909724D01*
X23310459Y1880459D01*
X23339724Y1836662D01*
X23350000Y1785000D01*
X23350000Y1415000D01*
X23339724Y1363338D01*
X23310459Y1319541D01*
X23266662Y1290276D01*
X23215000Y1280000D01*
X22945000Y1280000D01*
X22893338Y1290276D01*
X22849541Y1319541D01*
X22820276Y1363338D01*
X22810000Y1415000D01*
X22810000Y1785000D01*
D16*
D15*
X23830000Y1785000D02*
X23840276Y1836662D01*
X23869541Y1880459D01*
X23913338Y1909724D01*
X23965000Y1920000D01*
X24235000Y1920000D01*
X24286662Y1909724D01*
X24330459Y1880459D01*
X24359724Y1836662D01*
X24370000Y1785000D01*
X24370000Y1415000D01*
X24359724Y1363338D01*
X24330459Y1319541D01*
X24286662Y1290276D01*
X24235000Y1280000D01*
X23965000Y1280000D01*
X23913338Y1290276D01*
X23869541Y1319541D01*
X23840276Y1363338D01*
X23830000Y1415000D01*
X23830000Y1785000D01*
%TD*%
D16*
%TO.C,R22*%
D15*
X24360000Y2515000D02*
X24349724Y2463338D01*
X24320459Y2419541D01*
X24276662Y2390276D01*
X24225000Y2380000D01*
X23955000Y2380000D01*
X23903338Y2390276D01*
X23859541Y2419541D01*
X23830276Y2463338D01*
X23820000Y2515000D01*
X23820000Y2885000D01*
X23830276Y2936662D01*
X23859541Y2980459D01*
X23903338Y3009724D01*
X23955000Y3020000D01*
X24225000Y3020000D01*
X24276662Y3009724D01*
X24320459Y2980459D01*
X24349724Y2936662D01*
X24360000Y2885000D01*
X24360000Y2515000D01*
D16*
D15*
X23340000Y2515000D02*
X23329724Y2463338D01*
X23300459Y2419541D01*
X23256662Y2390276D01*
X23205000Y2380000D01*
X22935000Y2380000D01*
X22883338Y2390276D01*
X22839541Y2419541D01*
X22810276Y2463338D01*
X22800000Y2515000D01*
X22800000Y2885000D01*
X22810276Y2936662D01*
X22839541Y2980459D01*
X22883338Y3009724D01*
X22935000Y3020000D01*
X23205000Y3020000D01*
X23256662Y3009724D01*
X23300459Y2980459D01*
X23329724Y2936662D01*
X23340000Y2885000D01*
X23340000Y2515000D01*
%TD*%
D16*
%TO.C,R21*%
D15*
X25220000Y1785000D02*
X25230276Y1836662D01*
X25259541Y1880459D01*
X25303338Y1909724D01*
X25355000Y1920000D01*
X25625000Y1920000D01*
X25676662Y1909724D01*
X25720459Y1880459D01*
X25749724Y1836662D01*
X25760000Y1785000D01*
X25760000Y1415000D01*
X25749724Y1363338D01*
X25720459Y1319541D01*
X25676662Y1290276D01*
X25625000Y1280000D01*
X25355000Y1280000D01*
X25303338Y1290276D01*
X25259541Y1319541D01*
X25230276Y1363338D01*
X25220000Y1415000D01*
X25220000Y1785000D01*
D16*
D15*
X26240000Y1785000D02*
X26250276Y1836662D01*
X26279541Y1880459D01*
X26323338Y1909724D01*
X26375000Y1920000D01*
X26645000Y1920000D01*
X26696662Y1909724D01*
X26740459Y1880459D01*
X26769724Y1836662D01*
X26780000Y1785000D01*
X26780000Y1415000D01*
X26769724Y1363338D01*
X26740459Y1319541D01*
X26696662Y1290276D01*
X26645000Y1280000D01*
X26375000Y1280000D01*
X26323338Y1290276D01*
X26279541Y1319541D01*
X26250276Y1363338D01*
X26240000Y1415000D01*
X26240000Y1785000D01*
%TD*%
D16*
%TO.C,R20*%
D15*
X22020000Y11185000D02*
X22030276Y11236662D01*
X22059541Y11280459D01*
X22103338Y11309724D01*
X22155000Y11320000D01*
X22425000Y11320000D01*
X22476662Y11309724D01*
X22520459Y11280459D01*
X22549724Y11236662D01*
X22560000Y11185000D01*
X22560000Y10815000D01*
X22549724Y10763338D01*
X22520459Y10719541D01*
X22476662Y10690276D01*
X22425000Y10680000D01*
X22155000Y10680000D01*
X22103338Y10690276D01*
X22059541Y10719541D01*
X22030276Y10763338D01*
X22020000Y10815000D01*
X22020000Y11185000D01*
D16*
D15*
X23040000Y11185000D02*
X23050276Y11236662D01*
X23079541Y11280459D01*
X23123338Y11309724D01*
X23175000Y11320000D01*
X23445000Y11320000D01*
X23496662Y11309724D01*
X23540459Y11280459D01*
X23569724Y11236662D01*
X23580000Y11185000D01*
X23580000Y10815000D01*
X23569724Y10763338D01*
X23540459Y10719541D01*
X23496662Y10690276D01*
X23445000Y10680000D01*
X23175000Y10680000D01*
X23123338Y10690276D01*
X23079541Y10719541D01*
X23050276Y10763338D01*
X23040000Y10815000D01*
X23040000Y11185000D01*
%TD*%
D16*
%TO.C,R19*%
D15*
X22020000Y12185000D02*
X22030276Y12236662D01*
X22059541Y12280459D01*
X22103338Y12309724D01*
X22155000Y12320000D01*
X22425000Y12320000D01*
X22476662Y12309724D01*
X22520459Y12280459D01*
X22549724Y12236662D01*
X22560000Y12185000D01*
X22560000Y11815000D01*
X22549724Y11763338D01*
X22520459Y11719541D01*
X22476662Y11690276D01*
X22425000Y11680000D01*
X22155000Y11680000D01*
X22103338Y11690276D01*
X22059541Y11719541D01*
X22030276Y11763338D01*
X22020000Y11815000D01*
X22020000Y12185000D01*
D16*
D15*
X23040000Y12185000D02*
X23050276Y12236662D01*
X23079541Y12280459D01*
X23123338Y12309724D01*
X23175000Y12320000D01*
X23445000Y12320000D01*
X23496662Y12309724D01*
X23540459Y12280459D01*
X23569724Y12236662D01*
X23580000Y12185000D01*
X23580000Y11815000D01*
X23569724Y11763338D01*
X23540459Y11719541D01*
X23496662Y11690276D01*
X23445000Y11680000D01*
X23175000Y11680000D01*
X23123338Y11690276D01*
X23079541Y11719541D01*
X23050276Y11763338D01*
X23040000Y11815000D01*
X23040000Y12185000D01*
%TD*%
D16*
%TO.C,R18*%
D15*
X36910000Y6085000D02*
X36920276Y6136662D01*
X36949541Y6180459D01*
X36993338Y6209724D01*
X37045000Y6220000D01*
X37315000Y6220000D01*
X37366662Y6209724D01*
X37410459Y6180459D01*
X37439724Y6136662D01*
X37450000Y6085000D01*
X37450000Y5715000D01*
X37439724Y5663338D01*
X37410459Y5619541D01*
X37366662Y5590276D01*
X37315000Y5580000D01*
X37045000Y5580000D01*
X36993338Y5590276D01*
X36949541Y5619541D01*
X36920276Y5663338D01*
X36910000Y5715000D01*
X36910000Y6085000D01*
D16*
D15*
X37930000Y6085000D02*
X37940276Y6136662D01*
X37969541Y6180459D01*
X38013338Y6209724D01*
X38065000Y6220000D01*
X38335000Y6220000D01*
X38386662Y6209724D01*
X38430459Y6180459D01*
X38459724Y6136662D01*
X38470000Y6085000D01*
X38470000Y5715000D01*
X38459724Y5663338D01*
X38430459Y5619541D01*
X38386662Y5590276D01*
X38335000Y5580000D01*
X38065000Y5580000D01*
X38013338Y5590276D01*
X37969541Y5619541D01*
X37940276Y5663338D01*
X37930000Y5715000D01*
X37930000Y6085000D01*
%TD*%
D16*
%TO.C,R17*%
D15*
X22020000Y13185000D02*
X22030276Y13236662D01*
X22059541Y13280459D01*
X22103338Y13309724D01*
X22155000Y13320000D01*
X22425000Y13320000D01*
X22476662Y13309724D01*
X22520459Y13280459D01*
X22549724Y13236662D01*
X22560000Y13185000D01*
X22560000Y12815000D01*
X22549724Y12763338D01*
X22520459Y12719541D01*
X22476662Y12690276D01*
X22425000Y12680000D01*
X22155000Y12680000D01*
X22103338Y12690276D01*
X22059541Y12719541D01*
X22030276Y12763338D01*
X22020000Y12815000D01*
X22020000Y13185000D01*
D16*
D15*
X23040000Y13185000D02*
X23050276Y13236662D01*
X23079541Y13280459D01*
X23123338Y13309724D01*
X23175000Y13320000D01*
X23445000Y13320000D01*
X23496662Y13309724D01*
X23540459Y13280459D01*
X23569724Y13236662D01*
X23580000Y13185000D01*
X23580000Y12815000D01*
X23569724Y12763338D01*
X23540459Y12719541D01*
X23496662Y12690276D01*
X23445000Y12680000D01*
X23175000Y12680000D01*
X23123338Y12690276D01*
X23079541Y12719541D01*
X23050276Y12763338D01*
X23040000Y12815000D01*
X23040000Y13185000D01*
%TD*%
D16*
%TO.C,R16*%
D15*
X22190000Y2515000D02*
X22179724Y2463338D01*
X22150459Y2419541D01*
X22106662Y2390276D01*
X22055000Y2380000D01*
X21785000Y2380000D01*
X21733338Y2390276D01*
X21689541Y2419541D01*
X21660276Y2463338D01*
X21650000Y2515000D01*
X21650000Y2885000D01*
X21660276Y2936662D01*
X21689541Y2980459D01*
X21733338Y3009724D01*
X21785000Y3020000D01*
X22055000Y3020000D01*
X22106662Y3009724D01*
X22150459Y2980459D01*
X22179724Y2936662D01*
X22190000Y2885000D01*
X22190000Y2515000D01*
D16*
D15*
X21170000Y2515000D02*
X21159724Y2463338D01*
X21130459Y2419541D01*
X21086662Y2390276D01*
X21035000Y2380000D01*
X20765000Y2380000D01*
X20713338Y2390276D01*
X20669541Y2419541D01*
X20640276Y2463338D01*
X20630000Y2515000D01*
X20630000Y2885000D01*
X20640276Y2936662D01*
X20669541Y2980459D01*
X20713338Y3009724D01*
X20765000Y3020000D01*
X21035000Y3020000D01*
X21086662Y3009724D01*
X21130459Y2980459D01*
X21159724Y2936662D01*
X21170000Y2885000D01*
X21170000Y2515000D01*
%TD*%
D16*
%TO.C,R15*%
D15*
X36170000Y1315000D02*
X36159724Y1263338D01*
X36130459Y1219541D01*
X36086662Y1190276D01*
X36035000Y1180000D01*
X35765000Y1180000D01*
X35713338Y1190276D01*
X35669541Y1219541D01*
X35640276Y1263338D01*
X35630000Y1315000D01*
X35630000Y1685000D01*
X35640276Y1736662D01*
X35669541Y1780459D01*
X35713338Y1809724D01*
X35765000Y1820000D01*
X36035000Y1820000D01*
X36086662Y1809724D01*
X36130459Y1780459D01*
X36159724Y1736662D01*
X36170000Y1685000D01*
X36170000Y1315000D01*
D16*
D15*
X35150000Y1315000D02*
X35139724Y1263338D01*
X35110459Y1219541D01*
X35066662Y1190276D01*
X35015000Y1180000D01*
X34745000Y1180000D01*
X34693338Y1190276D01*
X34649541Y1219541D01*
X34620276Y1263338D01*
X34610000Y1315000D01*
X34610000Y1685000D01*
X34620276Y1736662D01*
X34649541Y1780459D01*
X34693338Y1809724D01*
X34745000Y1820000D01*
X35015000Y1820000D01*
X35066662Y1809724D01*
X35110459Y1780459D01*
X35139724Y1736662D01*
X35150000Y1685000D01*
X35150000Y1315000D01*
%TD*%
D16*
%TO.C,R14*%
D15*
X36150000Y2715000D02*
X36139724Y2663338D01*
X36110459Y2619541D01*
X36066662Y2590276D01*
X36015000Y2580000D01*
X35745000Y2580000D01*
X35693338Y2590276D01*
X35649541Y2619541D01*
X35620276Y2663338D01*
X35610000Y2715000D01*
X35610000Y3085000D01*
X35620276Y3136662D01*
X35649541Y3180459D01*
X35693338Y3209724D01*
X35745000Y3220000D01*
X36015000Y3220000D01*
X36066662Y3209724D01*
X36110459Y3180459D01*
X36139724Y3136662D01*
X36150000Y3085000D01*
X36150000Y2715000D01*
D16*
D15*
X35130000Y2715000D02*
X35119724Y2663338D01*
X35090459Y2619541D01*
X35046662Y2590276D01*
X34995000Y2580000D01*
X34725000Y2580000D01*
X34673338Y2590276D01*
X34629541Y2619541D01*
X34600276Y2663338D01*
X34590000Y2715000D01*
X34590000Y3085000D01*
X34600276Y3136662D01*
X34629541Y3180459D01*
X34673338Y3209724D01*
X34725000Y3220000D01*
X34995000Y3220000D01*
X35046662Y3209724D01*
X35090459Y3180459D01*
X35119724Y3136662D01*
X35130000Y3085000D01*
X35130000Y2715000D01*
%TD*%
D16*
%TO.C,R13*%
D15*
X36920000Y7185000D02*
X36930276Y7236662D01*
X36959541Y7280459D01*
X37003338Y7309724D01*
X37055000Y7320000D01*
X37325000Y7320000D01*
X37376662Y7309724D01*
X37420459Y7280459D01*
X37449724Y7236662D01*
X37460000Y7185000D01*
X37460000Y6815000D01*
X37449724Y6763338D01*
X37420459Y6719541D01*
X37376662Y6690276D01*
X37325000Y6680000D01*
X37055000Y6680000D01*
X37003338Y6690276D01*
X36959541Y6719541D01*
X36930276Y6763338D01*
X36920000Y6815000D01*
X36920000Y7185000D01*
D16*
D15*
X37940000Y7185000D02*
X37950276Y7236662D01*
X37979541Y7280459D01*
X38023338Y7309724D01*
X38075000Y7320000D01*
X38345000Y7320000D01*
X38396662Y7309724D01*
X38440459Y7280459D01*
X38469724Y7236662D01*
X38480000Y7185000D01*
X38480000Y6815000D01*
X38469724Y6763338D01*
X38440459Y6719541D01*
X38396662Y6690276D01*
X38345000Y6680000D01*
X38075000Y6680000D01*
X38023338Y6690276D01*
X37979541Y6719541D01*
X37950276Y6763338D01*
X37940000Y6815000D01*
X37940000Y7185000D01*
%TD*%
D16*
%TO.C,R12*%
D15*
X36910000Y9385000D02*
X36920276Y9436662D01*
X36949541Y9480459D01*
X36993338Y9509724D01*
X37045000Y9520000D01*
X37315000Y9520000D01*
X37366662Y9509724D01*
X37410459Y9480459D01*
X37439724Y9436662D01*
X37450000Y9385000D01*
X37450000Y9015000D01*
X37439724Y8963338D01*
X37410459Y8919541D01*
X37366662Y8890276D01*
X37315000Y8880000D01*
X37045000Y8880000D01*
X36993338Y8890276D01*
X36949541Y8919541D01*
X36920276Y8963338D01*
X36910000Y9015000D01*
X36910000Y9385000D01*
D16*
D15*
X37930000Y9385000D02*
X37940276Y9436662D01*
X37969541Y9480459D01*
X38013338Y9509724D01*
X38065000Y9520000D01*
X38335000Y9520000D01*
X38386662Y9509724D01*
X38430459Y9480459D01*
X38459724Y9436662D01*
X38470000Y9385000D01*
X38470000Y9015000D01*
X38459724Y8963338D01*
X38430459Y8919541D01*
X38386662Y8890276D01*
X38335000Y8880000D01*
X38065000Y8880000D01*
X38013338Y8890276D01*
X37969541Y8919541D01*
X37940276Y8963338D01*
X37930000Y9015000D01*
X37930000Y9385000D01*
%TD*%
D16*
%TO.C,R11*%
D15*
X38480000Y4615000D02*
X38469724Y4563338D01*
X38440459Y4519541D01*
X38396662Y4490276D01*
X38345000Y4480000D01*
X38075000Y4480000D01*
X38023338Y4490276D01*
X37979541Y4519541D01*
X37950276Y4563338D01*
X37940000Y4615000D01*
X37940000Y4985000D01*
X37950276Y5036662D01*
X37979541Y5080459D01*
X38023338Y5109724D01*
X38075000Y5120000D01*
X38345000Y5120000D01*
X38396662Y5109724D01*
X38440459Y5080459D01*
X38469724Y5036662D01*
X38480000Y4985000D01*
X38480000Y4615000D01*
D16*
D15*
X37460000Y4615000D02*
X37449724Y4563338D01*
X37420459Y4519541D01*
X37376662Y4490276D01*
X37325000Y4480000D01*
X37055000Y4480000D01*
X37003338Y4490276D01*
X36959541Y4519541D01*
X36930276Y4563338D01*
X36920000Y4615000D01*
X36920000Y4985000D01*
X36930276Y5036662D01*
X36959541Y5080459D01*
X37003338Y5109724D01*
X37055000Y5120000D01*
X37325000Y5120000D01*
X37376662Y5109724D01*
X37420459Y5080459D01*
X37449724Y5036662D01*
X37460000Y4985000D01*
X37460000Y4615000D01*
%TD*%
D16*
%TO.C,R10*%
D15*
X38480000Y7915000D02*
X38469724Y7863338D01*
X38440459Y7819541D01*
X38396662Y7790276D01*
X38345000Y7780000D01*
X38075000Y7780000D01*
X38023338Y7790276D01*
X37979541Y7819541D01*
X37950276Y7863338D01*
X37940000Y7915000D01*
X37940000Y8285000D01*
X37950276Y8336662D01*
X37979541Y8380459D01*
X38023338Y8409724D01*
X38075000Y8420000D01*
X38345000Y8420000D01*
X38396662Y8409724D01*
X38440459Y8380459D01*
X38469724Y8336662D01*
X38480000Y8285000D01*
X38480000Y7915000D01*
D16*
D15*
X37460000Y7915000D02*
X37449724Y7863338D01*
X37420459Y7819541D01*
X37376662Y7790276D01*
X37325000Y7780000D01*
X37055000Y7780000D01*
X37003338Y7790276D01*
X36959541Y7819541D01*
X36930276Y7863338D01*
X36920000Y7915000D01*
X36920000Y8285000D01*
X36930276Y8336662D01*
X36959541Y8380459D01*
X37003338Y8409724D01*
X37055000Y8420000D01*
X37325000Y8420000D01*
X37376662Y8409724D01*
X37420459Y8380459D01*
X37449724Y8336662D01*
X37460000Y8285000D01*
X37460000Y7915000D01*
%TD*%
D16*
%TO.C,R7*%
D15*
X14120000Y1785000D02*
X14130276Y1836662D01*
X14159541Y1880459D01*
X14203338Y1909724D01*
X14255000Y1920000D01*
X14525000Y1920000D01*
X14576662Y1909724D01*
X14620459Y1880459D01*
X14649724Y1836662D01*
X14660000Y1785000D01*
X14660000Y1415000D01*
X14649724Y1363338D01*
X14620459Y1319541D01*
X14576662Y1290276D01*
X14525000Y1280000D01*
X14255000Y1280000D01*
X14203338Y1290276D01*
X14159541Y1319541D01*
X14130276Y1363338D01*
X14120000Y1415000D01*
X14120000Y1785000D01*
D16*
D15*
X15140000Y1785000D02*
X15150276Y1836662D01*
X15179541Y1880459D01*
X15223338Y1909724D01*
X15275000Y1920000D01*
X15545000Y1920000D01*
X15596662Y1909724D01*
X15640459Y1880459D01*
X15669724Y1836662D01*
X15680000Y1785000D01*
X15680000Y1415000D01*
X15669724Y1363338D01*
X15640459Y1319541D01*
X15596662Y1290276D01*
X15545000Y1280000D01*
X15275000Y1280000D01*
X15223338Y1290276D01*
X15179541Y1319541D01*
X15150276Y1363338D01*
X15140000Y1415000D01*
X15140000Y1785000D01*
%TD*%
D16*
%TO.C,R6*%
D15*
X14120000Y2885000D02*
X14130276Y2936662D01*
X14159541Y2980459D01*
X14203338Y3009724D01*
X14255000Y3020000D01*
X14525000Y3020000D01*
X14576662Y3009724D01*
X14620459Y2980459D01*
X14649724Y2936662D01*
X14660000Y2885000D01*
X14660000Y2515000D01*
X14649724Y2463338D01*
X14620459Y2419541D01*
X14576662Y2390276D01*
X14525000Y2380000D01*
X14255000Y2380000D01*
X14203338Y2390276D01*
X14159541Y2419541D01*
X14130276Y2463338D01*
X14120000Y2515000D01*
X14120000Y2885000D01*
D16*
D15*
X15140000Y2885000D02*
X15150276Y2936662D01*
X15179541Y2980459D01*
X15223338Y3009724D01*
X15275000Y3020000D01*
X15545000Y3020000D01*
X15596662Y3009724D01*
X15640459Y2980459D01*
X15669724Y2936662D01*
X15680000Y2885000D01*
X15680000Y2515000D01*
X15669724Y2463338D01*
X15640459Y2419541D01*
X15596662Y2390276D01*
X15545000Y2380000D01*
X15275000Y2380000D01*
X15223338Y2390276D01*
X15179541Y2419541D01*
X15150276Y2463338D01*
X15140000Y2515000D01*
X15140000Y2885000D01*
%TD*%
D16*
%TO.C,R5*%
D15*
X11980000Y10415000D02*
X11969724Y10363338D01*
X11940459Y10319541D01*
X11896662Y10290276D01*
X11845000Y10280000D01*
X11575000Y10280000D01*
X11523338Y10290276D01*
X11479541Y10319541D01*
X11450276Y10363338D01*
X11440000Y10415000D01*
X11440000Y10785000D01*
X11450276Y10836662D01*
X11479541Y10880459D01*
X11523338Y10909724D01*
X11575000Y10920000D01*
X11845000Y10920000D01*
X11896662Y10909724D01*
X11940459Y10880459D01*
X11969724Y10836662D01*
X11980000Y10785000D01*
X11980000Y10415000D01*
D16*
D15*
X10960000Y10415000D02*
X10949724Y10363338D01*
X10920459Y10319541D01*
X10876662Y10290276D01*
X10825000Y10280000D01*
X10555000Y10280000D01*
X10503338Y10290276D01*
X10459541Y10319541D01*
X10430276Y10363338D01*
X10420000Y10415000D01*
X10420000Y10785000D01*
X10430276Y10836662D01*
X10459541Y10880459D01*
X10503338Y10909724D01*
X10555000Y10920000D01*
X10825000Y10920000D01*
X10876662Y10909724D01*
X10920459Y10880459D01*
X10949724Y10836662D01*
X10960000Y10785000D01*
X10960000Y10415000D01*
%TD*%
D16*
%TO.C,R4*%
D15*
X10420000Y6285000D02*
X10430276Y6336662D01*
X10459541Y6380459D01*
X10503338Y6409724D01*
X10555000Y6420000D01*
X10825000Y6420000D01*
X10876662Y6409724D01*
X10920459Y6380459D01*
X10949724Y6336662D01*
X10960000Y6285000D01*
X10960000Y5915000D01*
X10949724Y5863338D01*
X10920459Y5819541D01*
X10876662Y5790276D01*
X10825000Y5780000D01*
X10555000Y5780000D01*
X10503338Y5790276D01*
X10459541Y5819541D01*
X10430276Y5863338D01*
X10420000Y5915000D01*
X10420000Y6285000D01*
D16*
D15*
X11440000Y6285000D02*
X11450276Y6336662D01*
X11479541Y6380459D01*
X11523338Y6409724D01*
X11575000Y6420000D01*
X11845000Y6420000D01*
X11896662Y6409724D01*
X11940459Y6380459D01*
X11969724Y6336662D01*
X11980000Y6285000D01*
X11980000Y5915000D01*
X11969724Y5863338D01*
X11940459Y5819541D01*
X11896662Y5790276D01*
X11845000Y5780000D01*
X11575000Y5780000D01*
X11523338Y5790276D01*
X11479541Y5819541D01*
X11450276Y5863338D01*
X11440000Y5915000D01*
X11440000Y6285000D01*
%TD*%
D16*
%TO.C,R3*%
D15*
X11980000Y8215000D02*
X11969724Y8163338D01*
X11940459Y8119541D01*
X11896662Y8090276D01*
X11845000Y8080000D01*
X11575000Y8080000D01*
X11523338Y8090276D01*
X11479541Y8119541D01*
X11450276Y8163338D01*
X11440000Y8215000D01*
X11440000Y8585000D01*
X11450276Y8636662D01*
X11479541Y8680459D01*
X11523338Y8709724D01*
X11575000Y8720000D01*
X11845000Y8720000D01*
X11896662Y8709724D01*
X11940459Y8680459D01*
X11969724Y8636662D01*
X11980000Y8585000D01*
X11980000Y8215000D01*
D16*
D15*
X10960000Y8215000D02*
X10949724Y8163338D01*
X10920459Y8119541D01*
X10876662Y8090276D01*
X10825000Y8080000D01*
X10555000Y8080000D01*
X10503338Y8090276D01*
X10459541Y8119541D01*
X10430276Y8163338D01*
X10420000Y8215000D01*
X10420000Y8585000D01*
X10430276Y8636662D01*
X10459541Y8680459D01*
X10503338Y8709724D01*
X10555000Y8720000D01*
X10825000Y8720000D01*
X10876662Y8709724D01*
X10920459Y8680459D01*
X10949724Y8636662D01*
X10960000Y8585000D01*
X10960000Y8215000D01*
%TD*%
D16*
%TO.C,R2*%
D15*
X11980000Y7115000D02*
X11969724Y7063338D01*
X11940459Y7019541D01*
X11896662Y6990276D01*
X11845000Y6980000D01*
X11575000Y6980000D01*
X11523338Y6990276D01*
X11479541Y7019541D01*
X11450276Y7063338D01*
X11440000Y7115000D01*
X11440000Y7485000D01*
X11450276Y7536662D01*
X11479541Y7580459D01*
X11523338Y7609724D01*
X11575000Y7620000D01*
X11845000Y7620000D01*
X11896662Y7609724D01*
X11940459Y7580459D01*
X11969724Y7536662D01*
X11980000Y7485000D01*
X11980000Y7115000D01*
D16*
D15*
X10960000Y7115000D02*
X10949724Y7063338D01*
X10920459Y7019541D01*
X10876662Y6990276D01*
X10825000Y6980000D01*
X10555000Y6980000D01*
X10503338Y6990276D01*
X10459541Y7019541D01*
X10430276Y7063338D01*
X10420000Y7115000D01*
X10420000Y7485000D01*
X10430276Y7536662D01*
X10459541Y7580459D01*
X10503338Y7609724D01*
X10555000Y7620000D01*
X10825000Y7620000D01*
X10876662Y7609724D01*
X10920459Y7580459D01*
X10949724Y7536662D01*
X10960000Y7485000D01*
X10960000Y7115000D01*
%TD*%
D16*
%TO.C,R1*%
D15*
X11980000Y9315000D02*
X11969724Y9263338D01*
X11940459Y9219541D01*
X11896662Y9190276D01*
X11845000Y9180000D01*
X11575000Y9180000D01*
X11523338Y9190276D01*
X11479541Y9219541D01*
X11450276Y9263338D01*
X11440000Y9315000D01*
X11440000Y9685000D01*
X11450276Y9736662D01*
X11479541Y9780459D01*
X11523338Y9809724D01*
X11575000Y9820000D01*
X11845000Y9820000D01*
X11896662Y9809724D01*
X11940459Y9780459D01*
X11969724Y9736662D01*
X11980000Y9685000D01*
X11980000Y9315000D01*
D16*
D15*
X10960000Y9315000D02*
X10949724Y9263338D01*
X10920459Y9219541D01*
X10876662Y9190276D01*
X10825000Y9180000D01*
X10555000Y9180000D01*
X10503338Y9190276D01*
X10459541Y9219541D01*
X10430276Y9263338D01*
X10420000Y9315000D01*
X10420000Y9685000D01*
X10430276Y9736662D01*
X10459541Y9780459D01*
X10503338Y9809724D01*
X10555000Y9820000D01*
X10825000Y9820000D01*
X10876662Y9809724D01*
X10920459Y9780459D01*
X10949724Y9736662D01*
X10960000Y9685000D01*
X10960000Y9315000D01*
%TD*%
D16*
%TO.C,Q1*%
D15*
X9525000Y3500000D02*
X9536418Y3557403D01*
X9568934Y3606066D01*
X9617597Y3638582D01*
X9675000Y3650000D01*
X10850000Y3650000D01*
X10907403Y3638582D01*
X10956066Y3606066D01*
X10988582Y3557403D01*
X11000000Y3500000D01*
X11000000Y3200000D01*
X10988582Y3142597D01*
X10956066Y3093934D01*
X10907403Y3061418D01*
X10850000Y3050000D01*
X9675000Y3050000D01*
X9617597Y3061418D01*
X9568934Y3093934D01*
X9536418Y3142597D01*
X9525000Y3200000D01*
X9525000Y3500000D01*
D16*
D15*
X9525000Y1600000D02*
X9536418Y1657403D01*
X9568934Y1706066D01*
X9617597Y1738582D01*
X9675000Y1750000D01*
X10850000Y1750000D01*
X10907403Y1738582D01*
X10956066Y1706066D01*
X10988582Y1657403D01*
X11000000Y1600000D01*
X11000000Y1300000D01*
X10988582Y1242597D01*
X10956066Y1193934D01*
X10907403Y1161418D01*
X10850000Y1150000D01*
X9675000Y1150000D01*
X9617597Y1161418D01*
X9568934Y1193934D01*
X9536418Y1242597D01*
X9525000Y1300000D01*
X9525000Y1600000D01*
D16*
D15*
X11400000Y2550000D02*
X11411418Y2607403D01*
X11443934Y2656066D01*
X11492597Y2688582D01*
X11550000Y2700000D01*
X12725000Y2700000D01*
X12782403Y2688582D01*
X12831066Y2656066D01*
X12863582Y2607403D01*
X12875000Y2550000D01*
X12875000Y2250000D01*
X12863582Y2192597D01*
X12831066Y2143934D01*
X12782403Y2111418D01*
X12725000Y2100000D01*
X11550000Y2100000D01*
X11492597Y2111418D01*
X11443934Y2143934D01*
X11411418Y2192597D01*
X11400000Y2250000D01*
X11400000Y2550000D01*
%TD*%
%TO.C,J3*%
X32340000Y2300000D02*
X32340000Y1300000D01*
X33340000Y1300000D01*
X33340000Y2300000D01*
X32340000Y2300000D01*
X32070000Y1800000D02*
G75*
G02*
X31070000Y1800000I-500000J0D01*
G01*
X31070000Y1800000D02*
G75*
G02*
X32070000Y1800000I500000J0D01*
G01*
X30800000Y1800000D02*
G75*
G02*
X29800000Y1800000I-500000J0D01*
G01*
X29800000Y1800000D02*
G75*
G02*
X30800000Y1800000I500000J0D01*
G01*
X29530000Y1800000D02*
G75*
G02*
X28530000Y1800000I-500000J0D01*
G01*
X28530000Y1800000D02*
G75*
G02*
X29530000Y1800000I500000J0D01*
G01*
%TD*%
%TO.C,J2*%
X39610000Y13470000D02*
X39610000Y11770000D01*
X41310000Y11770000D01*
X41310000Y13470000D01*
X39610000Y13470000D01*
X43850000Y12620000D02*
G75*
G02*
X42150000Y12620000I-850000J0D01*
G01*
X42150000Y12620000D02*
G75*
G02*
X43850000Y12620000I850000J0D01*
G01*
X41310000Y10080000D02*
G75*
G02*
X39610000Y10080000I-850000J0D01*
G01*
X39610000Y10080000D02*
G75*
G02*
X41310000Y10080000I850000J0D01*
G01*
X43850000Y10080000D02*
G75*
G02*
X42150000Y10080000I-850000J0D01*
G01*
X42150000Y10080000D02*
G75*
G02*
X43850000Y10080000I850000J0D01*
G01*
X41310000Y7540000D02*
G75*
G02*
X39610000Y7540000I-850000J0D01*
G01*
X39610000Y7540000D02*
G75*
G02*
X41310000Y7540000I850000J0D01*
G01*
X43850000Y7540000D02*
G75*
G02*
X42150000Y7540000I-850000J0D01*
G01*
X42150000Y7540000D02*
G75*
G02*
X43850000Y7540000I850000J0D01*
G01*
X41310000Y5000000D02*
G75*
G02*
X39610000Y5000000I-850000J0D01*
G01*
X39610000Y5000000D02*
G75*
G02*
X41310000Y5000000I850000J0D01*
G01*
X43850000Y5000000D02*
G75*
G02*
X42150000Y5000000I-850000J0D01*
G01*
X42150000Y5000000D02*
G75*
G02*
X43850000Y5000000I850000J0D01*
G01*
X41310000Y2460000D02*
G75*
G02*
X39610000Y2460000I-850000J0D01*
G01*
X39610000Y2460000D02*
G75*
G02*
X41310000Y2460000I850000J0D01*
G01*
X43850000Y2460000D02*
G75*
G02*
X42150000Y2460000I-850000J0D01*
G01*
X42150000Y2460000D02*
G75*
G02*
X43850000Y2460000I850000J0D01*
G01*
%TD*%
D16*
%TO.C,D1*%
D15*
X16240000Y2872500D02*
X16251228Y2928946D01*
X16283202Y2976798D01*
X16331054Y3008772D01*
X16387500Y3020000D01*
X16682500Y3020000D01*
X16738946Y3008772D01*
X16786798Y2976798D01*
X16818772Y2928946D01*
X16830000Y2872500D01*
X16830000Y2527500D01*
X16818772Y2471054D01*
X16786798Y2423202D01*
X16738946Y2391228D01*
X16682500Y2380000D01*
X16387500Y2380000D01*
X16331054Y2391228D01*
X16283202Y2423202D01*
X16251228Y2471054D01*
X16240000Y2527500D01*
X16240000Y2872500D01*
D16*
D15*
X17210000Y2872500D02*
X17221228Y2928946D01*
X17253202Y2976798D01*
X17301054Y3008772D01*
X17357500Y3020000D01*
X17652500Y3020000D01*
X17708946Y3008772D01*
X17756798Y2976798D01*
X17788772Y2928946D01*
X17800000Y2872500D01*
X17800000Y2527500D01*
X17788772Y2471054D01*
X17756798Y2423202D01*
X17708946Y2391228D01*
X17652500Y2380000D01*
X17357500Y2380000D01*
X17301054Y2391228D01*
X17253202Y2423202D01*
X17221228Y2471054D01*
X17210000Y2527500D01*
X17210000Y2872500D01*
%TD*%
D16*
%TO.C,C10*%
D15*
X21130000Y8740000D02*
X21076424Y8750657D01*
X21031005Y8781005D01*
X21000657Y8826424D01*
X20990000Y8880000D01*
X20990000Y9160000D01*
X21000657Y9213576D01*
X21031005Y9258995D01*
X21076424Y9289343D01*
X21130000Y9300000D01*
X21470000Y9300000D01*
X21523576Y9289343D01*
X21568995Y9258995D01*
X21599343Y9213576D01*
X21610000Y9160000D01*
X21610000Y8880000D01*
X21599343Y8826424D01*
X21568995Y8781005D01*
X21523576Y8750657D01*
X21470000Y8740000D01*
X21130000Y8740000D01*
D16*
D15*
X21130000Y9700000D02*
X21076424Y9710657D01*
X21031005Y9741005D01*
X21000657Y9786424D01*
X20990000Y9840000D01*
X20990000Y10120000D01*
X21000657Y10173576D01*
X21031005Y10218995D01*
X21076424Y10249343D01*
X21130000Y10260000D01*
X21470000Y10260000D01*
X21523576Y10249343D01*
X21568995Y10218995D01*
X21599343Y10173576D01*
X21610000Y10120000D01*
X21610000Y9840000D01*
X21599343Y9786424D01*
X21568995Y9741005D01*
X21523576Y9710657D01*
X21470000Y9700000D01*
X21130000Y9700000D01*
%TD*%
D16*
%TO.C,C9*%
D15*
X20650000Y1770000D02*
X20660657Y1823576D01*
X20691005Y1868995D01*
X20736424Y1899343D01*
X20790000Y1910000D01*
X21070000Y1910000D01*
X21123576Y1899343D01*
X21168995Y1868995D01*
X21199343Y1823576D01*
X21210000Y1770000D01*
X21210000Y1430000D01*
X21199343Y1376424D01*
X21168995Y1331005D01*
X21123576Y1300657D01*
X21070000Y1290000D01*
X20790000Y1290000D01*
X20736424Y1300657D01*
X20691005Y1331005D01*
X20660657Y1376424D01*
X20650000Y1430000D01*
X20650000Y1770000D01*
D16*
D15*
X21610000Y1770000D02*
X21620657Y1823576D01*
X21651005Y1868995D01*
X21696424Y1899343D01*
X21750000Y1910000D01*
X22030000Y1910000D01*
X22083576Y1899343D01*
X22128995Y1868995D01*
X22159343Y1823576D01*
X22170000Y1770000D01*
X22170000Y1430000D01*
X22159343Y1376424D01*
X22128995Y1331005D01*
X22083576Y1300657D01*
X22030000Y1290000D01*
X21750000Y1290000D01*
X21696424Y1300657D01*
X21651005Y1331005D01*
X21620657Y1376424D01*
X21610000Y1430000D01*
X21610000Y1770000D01*
%TD*%
D16*
%TO.C,C8*%
D15*
X27590000Y13192500D02*
X27579343Y13138924D01*
X27548995Y13093505D01*
X27503576Y13063157D01*
X27450000Y13052500D01*
X27170000Y13052500D01*
X27116424Y13063157D01*
X27071005Y13093505D01*
X27040657Y13138924D01*
X27030000Y13192500D01*
X27030000Y13532500D01*
X27040657Y13586076D01*
X27071005Y13631495D01*
X27116424Y13661843D01*
X27170000Y13672500D01*
X27450000Y13672500D01*
X27503576Y13661843D01*
X27548995Y13631495D01*
X27579343Y13586076D01*
X27590000Y13532500D01*
X27590000Y13192500D01*
D16*
D15*
X26630000Y13192500D02*
X26619343Y13138924D01*
X26588995Y13093505D01*
X26543576Y13063157D01*
X26490000Y13052500D01*
X26210000Y13052500D01*
X26156424Y13063157D01*
X26111005Y13093505D01*
X26080657Y13138924D01*
X26070000Y13192500D01*
X26070000Y13532500D01*
X26080657Y13586076D01*
X26111005Y13631495D01*
X26156424Y13661843D01*
X26210000Y13672500D01*
X26490000Y13672500D01*
X26543576Y13661843D01*
X26588995Y13631495D01*
X26619343Y13586076D01*
X26630000Y13532500D01*
X26630000Y13192500D01*
%TD*%
D16*
%TO.C,C7*%
D15*
X35580000Y12182500D02*
X35526424Y12193157D01*
X35481005Y12223505D01*
X35450657Y12268924D01*
X35440000Y12322500D01*
X35440000Y12602500D01*
X35450657Y12656076D01*
X35481005Y12701495D01*
X35526424Y12731843D01*
X35580000Y12742500D01*
X35920000Y12742500D01*
X35973576Y12731843D01*
X36018995Y12701495D01*
X36049343Y12656076D01*
X36060000Y12602500D01*
X36060000Y12322500D01*
X36049343Y12268924D01*
X36018995Y12223505D01*
X35973576Y12193157D01*
X35920000Y12182500D01*
X35580000Y12182500D01*
D16*
D15*
X35580000Y13142500D02*
X35526424Y13153157D01*
X35481005Y13183505D01*
X35450657Y13228924D01*
X35440000Y13282500D01*
X35440000Y13562500D01*
X35450657Y13616076D01*
X35481005Y13661495D01*
X35526424Y13691843D01*
X35580000Y13702500D01*
X35920000Y13702500D01*
X35973576Y13691843D01*
X36018995Y13661495D01*
X36049343Y13616076D01*
X36060000Y13562500D01*
X36060000Y13282500D01*
X36049343Y13228924D01*
X36018995Y13183505D01*
X35973576Y13153157D01*
X35920000Y13142500D01*
X35580000Y13142500D01*
%TD*%
D16*
%TO.C,C6*%
D15*
X34580000Y4270000D02*
X34590657Y4323576D01*
X34621005Y4368995D01*
X34666424Y4399343D01*
X34720000Y4410000D01*
X35000000Y4410000D01*
X35053576Y4399343D01*
X35098995Y4368995D01*
X35129343Y4323576D01*
X35140000Y4270000D01*
X35140000Y3930000D01*
X35129343Y3876424D01*
X35098995Y3831005D01*
X35053576Y3800657D01*
X35000000Y3790000D01*
X34720000Y3790000D01*
X34666424Y3800657D01*
X34621005Y3831005D01*
X34590657Y3876424D01*
X34580000Y3930000D01*
X34580000Y4270000D01*
D16*
D15*
X35540000Y4270000D02*
X35550657Y4323576D01*
X35581005Y4368995D01*
X35626424Y4399343D01*
X35680000Y4410000D01*
X35960000Y4410000D01*
X36013576Y4399343D01*
X36058995Y4368995D01*
X36089343Y4323576D01*
X36100000Y4270000D01*
X36100000Y3930000D01*
X36089343Y3876424D01*
X36058995Y3831005D01*
X36013576Y3800657D01*
X35960000Y3790000D01*
X35680000Y3790000D01*
X35626424Y3800657D01*
X35581005Y3831005D01*
X35550657Y3876424D01*
X35540000Y3930000D01*
X35540000Y4270000D01*
%TD*%
D16*
%TO.C,C5*%
D15*
X26280000Y3402500D02*
X26226424Y3413157D01*
X26181005Y3443505D01*
X26150657Y3488924D01*
X26140000Y3542500D01*
X26140000Y3822500D01*
X26150657Y3876076D01*
X26181005Y3921495D01*
X26226424Y3951843D01*
X26280000Y3962500D01*
X26620000Y3962500D01*
X26673576Y3951843D01*
X26718995Y3921495D01*
X26749343Y3876076D01*
X26760000Y3822500D01*
X26760000Y3542500D01*
X26749343Y3488924D01*
X26718995Y3443505D01*
X26673576Y3413157D01*
X26620000Y3402500D01*
X26280000Y3402500D01*
D16*
D15*
X26280000Y4362500D02*
X26226424Y4373157D01*
X26181005Y4403505D01*
X26150657Y4448924D01*
X26140000Y4502500D01*
X26140000Y4782500D01*
X26150657Y4836076D01*
X26181005Y4881495D01*
X26226424Y4911843D01*
X26280000Y4922500D01*
X26620000Y4922500D01*
X26673576Y4911843D01*
X26718995Y4881495D01*
X26749343Y4836076D01*
X26760000Y4782500D01*
X26760000Y4502500D01*
X26749343Y4448924D01*
X26718995Y4403505D01*
X26673576Y4373157D01*
X26620000Y4362500D01*
X26280000Y4362500D01*
%TD*%
D16*
%TO.C,C4*%
D15*
X20470000Y9300000D02*
X20523576Y9289343D01*
X20568995Y9258995D01*
X20599343Y9213576D01*
X20610000Y9160000D01*
X20610000Y8880000D01*
X20599343Y8826424D01*
X20568995Y8781005D01*
X20523576Y8750657D01*
X20470000Y8740000D01*
X20130000Y8740000D01*
X20076424Y8750657D01*
X20031005Y8781005D01*
X20000657Y8826424D01*
X19990000Y8880000D01*
X19990000Y9160000D01*
X20000657Y9213576D01*
X20031005Y9258995D01*
X20076424Y9289343D01*
X20130000Y9300000D01*
X20470000Y9300000D01*
D16*
D15*
X20470000Y10260000D02*
X20523576Y10249343D01*
X20568995Y10218995D01*
X20599343Y10173576D01*
X20610000Y10120000D01*
X20610000Y9840000D01*
X20599343Y9786424D01*
X20568995Y9741005D01*
X20523576Y9710657D01*
X20470000Y9700000D01*
X20130000Y9700000D01*
X20076424Y9710657D01*
X20031005Y9741005D01*
X20000657Y9786424D01*
X19990000Y9840000D01*
X19990000Y10120000D01*
X20000657Y10173576D01*
X20031005Y10218995D01*
X20076424Y10249343D01*
X20130000Y10260000D01*
X20470000Y10260000D01*
%TD*%
D16*
%TO.C,C3*%
D15*
X20350000Y10740000D02*
X20263896Y10757127D01*
X20190901Y10805901D01*
X20142127Y10878896D01*
X20125000Y10965000D01*
X20125000Y11415000D01*
X20142127Y11501104D01*
X20190901Y11574099D01*
X20263896Y11622873D01*
X20350000Y11640000D01*
X20850000Y11640000D01*
X20936104Y11622873D01*
X21009099Y11574099D01*
X21057873Y11501104D01*
X21075000Y11415000D01*
X21075000Y10965000D01*
X21057873Y10878896D01*
X21009099Y10805901D01*
X20936104Y10757127D01*
X20850000Y10740000D01*
X20350000Y10740000D01*
D16*
D15*
X20350000Y12290000D02*
X20263896Y12307127D01*
X20190901Y12355901D01*
X20142127Y12428896D01*
X20125000Y12515000D01*
X20125000Y12965000D01*
X20142127Y13051104D01*
X20190901Y13124099D01*
X20263896Y13172873D01*
X20350000Y13190000D01*
X20850000Y13190000D01*
X20936104Y13172873D01*
X21009099Y13124099D01*
X21057873Y13051104D01*
X21075000Y12965000D01*
X21075000Y12515000D01*
X21057873Y12428896D01*
X21009099Y12355901D01*
X20936104Y12307127D01*
X20850000Y12290000D01*
X20350000Y12290000D01*
%TD*%
D16*
%TO.C,C2*%
D15*
X11910000Y11730000D02*
X11899343Y11676424D01*
X11868995Y11631005D01*
X11823576Y11600657D01*
X11770000Y11590000D01*
X11490000Y11590000D01*
X11436424Y11600657D01*
X11391005Y11631005D01*
X11360657Y11676424D01*
X11350000Y11730000D01*
X11350000Y12070000D01*
X11360657Y12123576D01*
X11391005Y12168995D01*
X11436424Y12199343D01*
X11490000Y12210000D01*
X11770000Y12210000D01*
X11823576Y12199343D01*
X11868995Y12168995D01*
X11899343Y12123576D01*
X11910000Y12070000D01*
X11910000Y11730000D01*
D16*
D15*
X10950000Y11730000D02*
X10939343Y11676424D01*
X10908995Y11631005D01*
X10863576Y11600657D01*
X10810000Y11590000D01*
X10530000Y11590000D01*
X10476424Y11600657D01*
X10431005Y11631005D01*
X10400657Y11676424D01*
X10390000Y11730000D01*
X10390000Y12070000D01*
X10400657Y12123576D01*
X10431005Y12168995D01*
X10476424Y12199343D01*
X10530000Y12210000D01*
X10810000Y12210000D01*
X10863576Y12199343D01*
X10908995Y12168995D01*
X10939343Y12123576D01*
X10950000Y12070000D01*
X10950000Y11730000D01*
%TD*%
D16*
%TO.C,C1*%
D15*
X11825000Y12975000D02*
X11807873Y12888896D01*
X11759099Y12815901D01*
X11686104Y12767127D01*
X11600000Y12750000D01*
X11150000Y12750000D01*
X11063896Y12767127D01*
X10990901Y12815901D01*
X10942127Y12888896D01*
X10925000Y12975000D01*
X10925000Y13475000D01*
X10942127Y13561104D01*
X10990901Y13634099D01*
X11063896Y13682873D01*
X11150000Y13700000D01*
X11600000Y13700000D01*
X11686104Y13682873D01*
X11759099Y13634099D01*
X11807873Y13561104D01*
X11825000Y13475000D01*
X11825000Y12975000D01*
D16*
D15*
X10275000Y12975000D02*
X10257873Y12888896D01*
X10209099Y12815901D01*
X10136104Y12767127D01*
X10050000Y12750000D01*
X9600000Y12750000D01*
X9513896Y12767127D01*
X9440901Y12815901D01*
X9392127Y12888896D01*
X9375000Y12975000D01*
X9375000Y13475000D01*
X9392127Y13561104D01*
X9440901Y13634099D01*
X9513896Y13682873D01*
X9600000Y13700000D01*
X10050000Y13700000D01*
X10136104Y13682873D01*
X10209099Y13634099D01*
X10257873Y13561104D01*
X10275000Y13475000D01*
X10275000Y12975000D01*
%TD*%
M02*
