%TF.GenerationSoftware,KiCad,Pcbnew,9.0.6-9.0.6~ubuntu24.04.1*%
%TF.CreationDate,2025-12-13T19:22:48+08:00*%
%TF.ProjectId,demo,64656d6f-2e6b-4696-9361-645f70636258,V1.0.1*%
%TF.SameCoordinates,PX632ea00PY5f5e100*%
%TF.FileFunction,Paste,Top*%
%TF.FilePolarity,Positive*%
%FSLAX46Y46*%
G04 Gerber Fmt 4.6, Leading zero omitted, Abs format (unit mm)*
G04 Created by KiCad (PCBNEW 9.0.6-9.0.6~ubuntu24.04.1) date 2025-12-13 19:22:48*
%MOMM*%
%LPD*%
G01*
G04 APERTURE LIST*
G04 Aperture macros list*
%AMRoundRect*
0 Rectangle with rounded corners*
0 $1 Rounding radius*
0 $2 $3 $4 $5 $6 $7 $8 $9 X,Y pos of 4 corners*
0 Add a 4 corners polygon primitive as box body*
4,1,4,$2,$3,$4,$5,$6,$7,$8,$9,$2,$3,0*
0 Add four circle primitives for the rounded corners*
1,1,$1+$1,$2,$3*
1,1,$1+$1,$4,$5*
1,1,$1+$1,$6,$7*
1,1,$1+$1,$8,$9*
0 Add four rect primitives between the rounded corners*
20,1,$1+$1,$2,$3,$4,$5,0*
20,1,$1+$1,$4,$5,$6,$7,0*
20,1,$1+$1,$6,$7,$8,$9,0*
20,1,$1+$1,$8,$9,$2,$3,0*%
G04 Aperture macros list end*
%ADD10RoundRect,0.147500X-0.147500X-0.172500X0.147500X-0.172500X0.147500X0.172500X-0.147500X0.172500X0*%
%ADD11RoundRect,0.135000X-0.135000X-0.185000X0.135000X-0.185000X0.135000X0.185000X-0.135000X0.185000X0*%
%ADD12RoundRect,0.140000X-0.140000X-0.170000X0.140000X-0.170000X0.140000X0.170000X-0.140000X0.170000X0*%
%ADD13RoundRect,0.075000X0.662500X0.075000X-0.662500X0.075000X-0.662500X-0.075000X0.662500X-0.075000X0*%
%ADD14RoundRect,0.075000X0.075000X0.662500X-0.075000X0.662500X-0.075000X-0.662500X0.075000X-0.662500X0*%
%ADD15RoundRect,0.147500X0.147500X0.172500X-0.147500X0.172500X-0.147500X-0.172500X0.147500X-0.172500X0*%
%ADD16RoundRect,0.135000X0.135000X0.185000X-0.135000X0.185000X-0.135000X-0.185000X0.135000X-0.185000X0*%
%ADD17RoundRect,0.150000X0.587500X0.150000X-0.587500X0.150000X-0.587500X-0.150000X0.587500X-0.150000X0*%
%ADD18RoundRect,0.140000X-0.170000X0.140000X-0.170000X-0.140000X0.170000X-0.140000X0.170000X0.140000X0*%
%ADD19RoundRect,0.140000X0.140000X0.170000X-0.140000X0.170000X-0.140000X-0.170000X0.140000X-0.170000X0*%
%ADD20RoundRect,0.150000X0.512500X0.150000X-0.512500X0.150000X-0.512500X-0.150000X0.512500X-0.150000X0*%
%ADD21RoundRect,0.150000X-0.425000X0.150000X-0.425000X-0.150000X0.425000X-0.150000X0.425000X0.150000X0*%
%ADD22RoundRect,0.075000X-0.500000X0.075000X-0.500000X-0.075000X0.500000X-0.075000X0.500000X0.075000X0*%
%ADD23O,2.100000X1.000000*%
%ADD24O,1.800000X1.000000*%
%ADD25RoundRect,0.250000X0.450000X0.350000X-0.450000X0.350000X-0.450000X-0.350000X0.450000X-0.350000X0*%
G04 APERTURE END LIST*
D10*
%TO.C,D1*%
X-10212500Y2270000D03*
X-9242500Y2270000D03*
%TD*%
D11*
%TO.C,R16*%
X-6460000Y1330000D03*
X-5440000Y1330000D03*
%TD*%
D12*
%TO.C,C8*%
X9040000Y-2400000D03*
X10000000Y-2400000D03*
%TD*%
D13*
%TO.C,U2*%
X4692500Y-2060000D03*
X4692500Y-1560000D03*
X4692500Y-1060000D03*
X4692500Y-559999D03*
X4692500Y-60000D03*
X4692500Y440000D03*
X4692500Y940000D03*
X4692500Y1440000D03*
X4692500Y1939999D03*
X4692500Y2440000D03*
X4692500Y2940000D03*
X4692500Y3440000D03*
D14*
X3280000Y4852500D03*
X2780000Y4852500D03*
X2280000Y4852500D03*
X1779999Y4852500D03*
X1280000Y4852500D03*
X780000Y4852500D03*
X280000Y4852500D03*
X-220000Y4852500D03*
X-719999Y4852500D03*
X-1220000Y4852500D03*
X-1720000Y4852500D03*
X-2220000Y4852500D03*
D13*
X-3632500Y3440000D03*
X-3632500Y2940000D03*
X-3632500Y2440000D03*
X-3632500Y1939999D03*
X-3632500Y1440000D03*
X-3632500Y940000D03*
X-3632500Y440000D03*
X-3632500Y-60000D03*
X-3632500Y-559999D03*
X-3632500Y-1060000D03*
X-3632500Y-1560000D03*
X-3632500Y-2060000D03*
D14*
X-2220000Y-3472500D03*
X-1720000Y-3472500D03*
X-1220000Y-3472500D03*
X-719999Y-3472500D03*
X-220000Y-3472500D03*
X280000Y-3472500D03*
X780000Y-3472500D03*
X1280000Y-3472500D03*
X1779999Y-3472500D03*
X2280000Y-3472500D03*
X2780000Y-3472500D03*
X3280000Y-3472500D03*
%TD*%
D15*
%TO.C,D2*%
X-9242500Y1310000D03*
X-10212500Y1310000D03*
%TD*%
D16*
%TO.C,R14*%
X7650000Y3020000D03*
X6630000Y3020000D03*
%TD*%
D17*
%TO.C,Q1*%
X-5902500Y-2580000D03*
X-5902500Y-750000D03*
X-7777500Y-1630000D03*
%TD*%
D12*
%TO.C,C9*%
X9040000Y2060000D03*
X10000000Y2060000D03*
%TD*%
D16*
%TO.C,R3*%
X-9212500Y-610000D03*
X-10232500Y-570000D03*
%TD*%
%TO.C,R1*%
X-9212500Y-2510000D03*
X-10232500Y-2570000D03*
%TD*%
D18*
%TO.C,C2*%
X-10020000Y5460000D03*
X-10020000Y4500000D03*
%TD*%
D11*
%TO.C,R15*%
X-370000Y-5280000D03*
X650000Y-5280000D03*
%TD*%
D16*
%TO.C,R17*%
X7690000Y-3340000D03*
X6670000Y-3340000D03*
%TD*%
D11*
%TO.C,R5*%
X-6470000Y2290000D03*
X-5470000Y2290000D03*
%TD*%
D16*
%TO.C,R4*%
X-9212500Y-1570000D03*
X-10232500Y-1570000D03*
%TD*%
%TO.C,R2*%
X-9212500Y350000D03*
X-10232500Y350000D03*
%TD*%
%TO.C,R21*%
X7650000Y4940000D03*
X6630000Y4940000D03*
%TD*%
%TO.C,R10*%
X10070000Y5000000D03*
X9050000Y5000000D03*
%TD*%
D11*
%TO.C,R7*%
X-2260000Y-5270000D03*
X-1240000Y-5270000D03*
%TD*%
D16*
%TO.C,R18*%
X7690000Y-2400000D03*
X6670000Y-2400000D03*
%TD*%
%TO.C,R6*%
X-3120000Y-5270000D03*
X-4130000Y-5270000D03*
%TD*%
%TO.C,R19*%
X10070000Y3090000D03*
X9050000Y3090000D03*
%TD*%
D19*
%TO.C,C1*%
X-9000000Y3440000D03*
X-9960000Y3440000D03*
%TD*%
D20*
%TO.C,U1*%
X-6362500Y3550000D03*
X-6362500Y5450000D03*
X-8637500Y4500000D03*
%TD*%
D11*
%TO.C,R13*%
X9010000Y-3340000D03*
X10030000Y-3340000D03*
%TD*%
D12*
%TO.C,C7*%
X6660000Y2080000D03*
X7620000Y2080000D03*
%TD*%
%TO.C,C5*%
X-4010000Y-4010000D03*
X-3050000Y-4010000D03*
%TD*%
D11*
%TO.C,R12*%
X9070000Y4050000D03*
X10090000Y4050000D03*
%TD*%
%TO.C,R20*%
X6630000Y3980000D03*
X7650000Y3980000D03*
%TD*%
%TO.C,R9*%
X-8357500Y1320000D03*
X-7337500Y1320000D03*
%TD*%
%TO.C,R8*%
X-8357500Y2280000D03*
X-7337500Y2280000D03*
%TD*%
D12*
%TO.C,C4*%
X4110000Y-4000000D03*
X5070000Y-4000000D03*
%TD*%
D21*
%TO.C,J1*%
X-11820000Y3200000D03*
X-11820000Y2400000D03*
D22*
X-11820000Y1250000D03*
X-11820000Y250000D03*
X-11820000Y-250000D03*
X-11820000Y-1250000D03*
D21*
X-11820000Y-2400000D03*
X-11820000Y-3200000D03*
X-11820000Y-3200000D03*
X-11820000Y-2400000D03*
D22*
X-11820000Y-1750000D03*
X-11820000Y-750000D03*
X-11820000Y750000D03*
X-11820000Y1750000D03*
D21*
X-11820000Y2400000D03*
X-11820000Y3200000D03*
D23*
X-12395000Y4320000D03*
D24*
X-16575000Y4320000D03*
D23*
X-12395000Y-4320000D03*
D24*
X-16575000Y-4320000D03*
%TD*%
D25*
%TO.C,Y1*%
X9440000Y690000D03*
X7240000Y690000D03*
X7240000Y-1010000D03*
X9440000Y-1010000D03*
%TD*%
D19*
%TO.C,C6*%
X-3050000Y5380000D03*
X-4010000Y5380000D03*
%TD*%
D12*
%TO.C,C3*%
X4110000Y5380000D03*
X5070000Y5380000D03*
%TD*%
D16*
%TO.C,R11*%
X10060000Y-5010000D03*
X9040000Y-5010000D03*
%TD*%
M02*
