%TF.GenerationSoftware,KiCad,Pcbnew,9.0.6-9.0.6~ubuntu24.04.1*%
%TF.CreationDate,2025-11-23T17:21:16+08:00*%
%TF.ProjectId,demo,64656d6f-2e6b-4696-9361-645f70636258,V1.0.1*%
%TF.SameCoordinates,PX5f5e100PY5f5e100*%
%TF.FileFunction,Legend,Bot*%
%TF.FilePolarity,Positive*%
%FSLAX46Y46*%
G04 Gerber Fmt 4.6, Leading zero omitted, Abs format (unit mm)*
G04 Created by KiCad (PCBNEW 9.0.6-9.0.6~ubuntu24.04.1) date 2025-11-23 17:21:16*
%MOMM*%
%LPD*%
G01*
G04 APERTURE LIST*
%ADD10C,0.162560*%
%ADD11C,0.100000*%
%ADD12R,1.700000X1.700000*%
%ADD13C,1.700000*%
%ADD14R,1.000000X1.000000*%
%ADD15C,1.000000*%
%ADD16C,0.500000*%
%ADD17O,1.900000X0.900000*%
%ADD18O,2.200000X0.900000*%
%ADD19O,0.900000X1.500000*%
G04 APERTURE END LIST*
D10*
G36*
X24201573Y7121947D02*
G01*
X24269457Y7124630D01*
X24323725Y7131923D01*
X24366594Y7142842D01*
X24425301Y7164468D01*
X24458757Y7180858D01*
X24414090Y7305430D01*
X24378868Y7288767D01*
X24329619Y7271136D01*
X24274364Y7259254D01*
X24201573Y7254807D01*
X24149186Y7258390D01*
X24113844Y7267512D01*
X24090898Y7280416D01*
X24073277Y7299421D01*
X24062725Y7322243D01*
X24059036Y7350097D01*
X24063863Y7381134D01*
X24077697Y7405733D01*
X24099703Y7426081D01*
X24133729Y7446280D01*
X24173897Y7463935D01*
X24228622Y7484099D01*
X24281857Y7505851D01*
X24332299Y7530999D01*
X24377267Y7562372D01*
X24412402Y7601424D01*
X24428871Y7631820D01*
X24439355Y7669071D01*
X24443123Y7714829D01*
X24439068Y7761550D01*
X24427441Y7802168D01*
X24408581Y7837813D01*
X24382787Y7868999D01*
X24350515Y7895309D01*
X24310859Y7916923D01*
X24267876Y7931880D01*
X24218346Y7941333D01*
X24161174Y7944666D01*
X24087533Y7940168D01*
X24027372Y7927743D01*
X23972869Y7909073D01*
X23933868Y7890619D01*
X23979677Y7767139D01*
X24014222Y7784009D01*
X24054817Y7798853D01*
X24098877Y7808583D01*
X24152936Y7812104D01*
X24196795Y7809336D01*
X24228734Y7802063D01*
X24251501Y7791458D01*
X24269378Y7775393D01*
X24280190Y7754385D01*
X24284059Y7726790D01*
X24279087Y7697303D01*
X24264753Y7674132D01*
X24242807Y7655368D01*
X24212393Y7638299D01*
X24137848Y7607876D01*
X24063766Y7577623D01*
X24007123Y7548519D01*
X23973841Y7525672D01*
X23947175Y7500108D01*
X23926374Y7471691D01*
X23911671Y7439877D01*
X23902111Y7399975D01*
X23898631Y7350097D01*
X23902661Y7302787D01*
X23914177Y7261939D01*
X23932777Y7226369D01*
X23958481Y7195644D01*
X23991847Y7169734D01*
X24034171Y7148549D01*
X24079787Y7134433D01*
X24135013Y7125257D01*
X24201573Y7121947D01*
G37*
G36*
X23608444Y7138176D02*
G01*
X23608444Y7794188D01*
X23849696Y7794188D01*
X23849696Y7926750D01*
X23212147Y7926750D01*
X23212147Y7794188D01*
X23453101Y7794188D01*
X23453101Y7138176D01*
X23608444Y7138176D01*
G37*
G36*
X23096161Y7138176D02*
G01*
X23096161Y7926750D01*
X22940819Y7926750D01*
X22940819Y7271880D01*
X22586658Y7271880D01*
X22586658Y7138176D01*
X23096161Y7138176D01*
G37*
G36*
X22470424Y7138176D02*
G01*
X22470424Y7926750D01*
X22315082Y7926750D01*
X22315082Y7138176D01*
X22470424Y7138176D01*
G37*
G36*
X22128175Y7138176D02*
G01*
X22128175Y7926750D01*
X22002164Y7926750D01*
X21929208Y7845108D01*
X21849849Y7745947D01*
X21768455Y7637257D01*
X21690536Y7526880D01*
X21621252Y7422359D01*
X21621252Y7926750D01*
X21467052Y7926750D01*
X21467052Y7138176D01*
X21597331Y7138176D01*
X21661503Y7247561D01*
X21734310Y7362505D01*
X21812825Y7477696D01*
X21894069Y7587627D01*
X21974867Y7687483D01*
X21974867Y7138176D01*
X22128175Y7138176D01*
G37*
G36*
X21279301Y7138176D02*
G01*
X21279301Y7926750D01*
X21123958Y7926750D01*
X21123958Y7613236D01*
X21048769Y7691056D01*
X20970949Y7773393D01*
X20897099Y7854042D01*
X20831835Y7926750D01*
X20647459Y7926750D01*
X20728307Y7835430D01*
X20813621Y7742424D01*
X20901665Y7650360D01*
X20990007Y7562068D01*
X20942303Y7522973D01*
X20893129Y7477150D01*
X20845404Y7427828D01*
X20797839Y7374267D01*
X20707959Y7259324D01*
X20627260Y7138176D01*
X20810494Y7138176D01*
X20873525Y7228603D01*
X20951196Y7323198D01*
X21036808Y7411837D01*
X21081263Y7451108D01*
X21123958Y7484099D01*
X21123958Y7138176D01*
X21279301Y7138176D01*
G37*
G36*
X20023460Y7138176D02*
G01*
X20109915Y7332627D01*
X20192450Y7534870D01*
X20268831Y7736121D01*
X20336378Y7926750D01*
X20164806Y7926750D01*
X20111652Y7770117D01*
X20055719Y7608273D01*
X19999687Y7454072D01*
X19946037Y7321361D01*
X19893429Y7453675D01*
X19836949Y7607827D01*
X19780520Y7769968D01*
X19727565Y7926750D01*
X19562296Y7926750D01*
X19630438Y7736121D01*
X19706422Y7535317D01*
X19788461Y7333024D01*
X19874917Y7138176D01*
X20023460Y7138176D01*
G37*
G36*
X19483881Y7138176D02*
G01*
X19485717Y7164878D01*
X19485866Y7190239D01*
X19482292Y7238390D01*
X19471955Y7281543D01*
X19455145Y7320518D01*
X19420619Y7374969D01*
X19377920Y7425237D01*
X19285013Y7517946D01*
X19217615Y7584500D01*
X19189659Y7616309D01*
X19169077Y7646687D01*
X19155486Y7678889D01*
X19151011Y7712546D01*
X19155061Y7748846D01*
X19165871Y7774657D01*
X19182626Y7792749D01*
X19204755Y7805592D01*
X19230702Y7813564D01*
X19261389Y7816372D01*
X19301661Y7812515D01*
X19337670Y7801285D01*
X19370480Y7784795D01*
X19396283Y7767288D01*
X19430379Y7738155D01*
X19504626Y7841436D01*
X19474080Y7867397D01*
X19437923Y7892207D01*
X19398329Y7913252D01*
X19353850Y7930174D01*
X19306775Y7940988D01*
X19256277Y7944666D01*
X19188468Y7940195D01*
X19135020Y7928009D01*
X19093182Y7909470D01*
X19060734Y7885209D01*
X19034127Y7853627D01*
X19014855Y7816700D01*
X19002803Y7773375D01*
X18998547Y7722224D01*
X19001706Y7684629D01*
X19011160Y7648327D01*
X19027134Y7612839D01*
X19059219Y7562799D01*
X19099545Y7514820D01*
X19188581Y7425783D01*
X19243224Y7371140D01*
X19294690Y7311832D01*
X19313180Y7283366D01*
X19320300Y7263344D01*
X18974080Y7263344D01*
X18974080Y7138176D01*
X19483881Y7138176D01*
G37*
G36*
X18769703Y7123684D02*
G01*
X18794366Y7126524D01*
X18816585Y7134881D01*
X18837001Y7148996D01*
X18852767Y7167604D01*
X18862415Y7190498D01*
X18865836Y7218974D01*
X18862415Y7247451D01*
X18852767Y7270344D01*
X18837001Y7288953D01*
X18816585Y7303068D01*
X18794366Y7311425D01*
X18769703Y7314264D01*
X18745039Y7311425D01*
X18722821Y7303068D01*
X18702404Y7288953D01*
X18686609Y7270340D01*
X18676946Y7247447D01*
X18673520Y7218974D01*
X18676946Y7190502D01*
X18686609Y7167608D01*
X18702404Y7148996D01*
X18722821Y7134881D01*
X18745039Y7126524D01*
X18769703Y7123684D01*
G37*
G36*
X18334298Y7138176D02*
G01*
X18334298Y7729917D01*
X18382786Y7699444D01*
X18439563Y7671403D01*
X18498127Y7648821D01*
X18542794Y7763467D01*
X18476025Y7793156D01*
X18407403Y7830864D01*
X18343470Y7875735D01*
X18289630Y7926750D01*
X18185804Y7926750D01*
X18185804Y7138176D01*
X18334298Y7138176D01*
G37*
D11*
X42698496Y2328629D02*
X42898496Y2614343D01*
X43041353Y2328629D02*
X43041353Y2928629D01*
X43041353Y2928629D02*
X42812782Y2928629D01*
X42812782Y2928629D02*
X42755639Y2900058D01*
X42755639Y2900058D02*
X42727068Y2871486D01*
X42727068Y2871486D02*
X42698496Y2814343D01*
X42698496Y2814343D02*
X42698496Y2728629D01*
X42698496Y2728629D02*
X42727068Y2671486D01*
X42727068Y2671486D02*
X42755639Y2642915D01*
X42755639Y2642915D02*
X42812782Y2614343D01*
X42812782Y2614343D02*
X43041353Y2614343D01*
X42498496Y2928629D02*
X42098496Y2328629D01*
X42098496Y2928629D02*
X42498496Y2328629D01*
X42755639Y12928629D02*
X43041353Y12928629D01*
X43041353Y12928629D02*
X43069925Y12642915D01*
X43069925Y12642915D02*
X43041353Y12671486D01*
X43041353Y12671486D02*
X42984211Y12700058D01*
X42984211Y12700058D02*
X42841353Y12700058D01*
X42841353Y12700058D02*
X42784211Y12671486D01*
X42784211Y12671486D02*
X42755639Y12642915D01*
X42755639Y12642915D02*
X42727068Y12585772D01*
X42727068Y12585772D02*
X42727068Y12442915D01*
X42727068Y12442915D02*
X42755639Y12385772D01*
X42755639Y12385772D02*
X42784211Y12357200D01*
X42784211Y12357200D02*
X42841353Y12328629D01*
X42841353Y12328629D02*
X42984211Y12328629D01*
X42984211Y12328629D02*
X43041353Y12357200D01*
X43041353Y12357200D02*
X43069925Y12385772D01*
X42555639Y12928629D02*
X42355639Y12328629D01*
X42355639Y12328629D02*
X42155639Y12928629D01*
X35477068Y10150058D02*
X35534211Y10178629D01*
X35534211Y10178629D02*
X35619925Y10178629D01*
X35619925Y10178629D02*
X35705639Y10150058D01*
X35705639Y10150058D02*
X35762782Y10092915D01*
X35762782Y10092915D02*
X35791353Y10035772D01*
X35791353Y10035772D02*
X35819925Y9921486D01*
X35819925Y9921486D02*
X35819925Y9835772D01*
X35819925Y9835772D02*
X35791353Y9721486D01*
X35791353Y9721486D02*
X35762782Y9664343D01*
X35762782Y9664343D02*
X35705639Y9607200D01*
X35705639Y9607200D02*
X35619925Y9578629D01*
X35619925Y9578629D02*
X35562782Y9578629D01*
X35562782Y9578629D02*
X35477068Y9607200D01*
X35477068Y9607200D02*
X35448496Y9635772D01*
X35448496Y9635772D02*
X35448496Y9835772D01*
X35448496Y9835772D02*
X35562782Y9835772D01*
X35191353Y9578629D02*
X35191353Y10178629D01*
X35191353Y10178629D02*
X34848496Y9578629D01*
X34848496Y9578629D02*
X34848496Y10178629D01*
X34562782Y9578629D02*
X34562782Y10178629D01*
X34562782Y10178629D02*
X34419925Y10178629D01*
X34419925Y10178629D02*
X34334211Y10150058D01*
X34334211Y10150058D02*
X34277068Y10092915D01*
X34277068Y10092915D02*
X34248497Y10035772D01*
X34248497Y10035772D02*
X34219925Y9921486D01*
X34219925Y9921486D02*
X34219925Y9835772D01*
X34219925Y9835772D02*
X34248497Y9721486D01*
X34248497Y9721486D02*
X34277068Y9664343D01*
X34277068Y9664343D02*
X34334211Y9607200D01*
X34334211Y9607200D02*
X34419925Y9578629D01*
X34419925Y9578629D02*
X34562782Y9578629D01*
X44319925Y7107200D02*
X44234211Y7078629D01*
X44234211Y7078629D02*
X44091353Y7078629D01*
X44091353Y7078629D02*
X44034211Y7107200D01*
X44034211Y7107200D02*
X44005639Y7135772D01*
X44005639Y7135772D02*
X43977068Y7192915D01*
X43977068Y7192915D02*
X43977068Y7250058D01*
X43977068Y7250058D02*
X44005639Y7307200D01*
X44005639Y7307200D02*
X44034211Y7335772D01*
X44034211Y7335772D02*
X44091353Y7364343D01*
X44091353Y7364343D02*
X44205639Y7392915D01*
X44205639Y7392915D02*
X44262782Y7421486D01*
X44262782Y7421486D02*
X44291353Y7450058D01*
X44291353Y7450058D02*
X44319925Y7507200D01*
X44319925Y7507200D02*
X44319925Y7564343D01*
X44319925Y7564343D02*
X44291353Y7621486D01*
X44291353Y7621486D02*
X44262782Y7650058D01*
X44262782Y7650058D02*
X44205639Y7678629D01*
X44205639Y7678629D02*
X44062782Y7678629D01*
X44062782Y7678629D02*
X43977068Y7650058D01*
X43777067Y7678629D02*
X43634210Y7078629D01*
X43634210Y7078629D02*
X43519924Y7507200D01*
X43519924Y7507200D02*
X43405639Y7078629D01*
X43405639Y7078629D02*
X43262782Y7678629D01*
X42691353Y7135772D02*
X42719925Y7107200D01*
X42719925Y7107200D02*
X42805639Y7078629D01*
X42805639Y7078629D02*
X42862782Y7078629D01*
X42862782Y7078629D02*
X42948496Y7107200D01*
X42948496Y7107200D02*
X43005639Y7164343D01*
X43005639Y7164343D02*
X43034210Y7221486D01*
X43034210Y7221486D02*
X43062782Y7335772D01*
X43062782Y7335772D02*
X43062782Y7421486D01*
X43062782Y7421486D02*
X43034210Y7535772D01*
X43034210Y7535772D02*
X43005639Y7592915D01*
X43005639Y7592915D02*
X42948496Y7650058D01*
X42948496Y7650058D02*
X42862782Y7678629D01*
X42862782Y7678629D02*
X42805639Y7678629D01*
X42805639Y7678629D02*
X42719925Y7650058D01*
X42719925Y7650058D02*
X42691353Y7621486D01*
X42148496Y7078629D02*
X42434210Y7078629D01*
X42434210Y7078629D02*
X42434210Y7678629D01*
X41948496Y7078629D02*
X41948496Y7678629D01*
X41605639Y7078629D02*
X41862782Y7421486D01*
X41605639Y7678629D02*
X41948496Y7335772D01*
X36098496Y12678629D02*
X35727068Y12678629D01*
X35727068Y12678629D02*
X35927068Y12450058D01*
X35927068Y12450058D02*
X35841353Y12450058D01*
X35841353Y12450058D02*
X35784211Y12421486D01*
X35784211Y12421486D02*
X35755639Y12392915D01*
X35755639Y12392915D02*
X35727068Y12335772D01*
X35727068Y12335772D02*
X35727068Y12192915D01*
X35727068Y12192915D02*
X35755639Y12135772D01*
X35755639Y12135772D02*
X35784211Y12107200D01*
X35784211Y12107200D02*
X35841353Y12078629D01*
X35841353Y12078629D02*
X36012782Y12078629D01*
X36012782Y12078629D02*
X36069925Y12107200D01*
X36069925Y12107200D02*
X36098496Y12135772D01*
X35469924Y12135772D02*
X35441353Y12107200D01*
X35441353Y12107200D02*
X35469924Y12078629D01*
X35469924Y12078629D02*
X35498496Y12107200D01*
X35498496Y12107200D02*
X35469924Y12135772D01*
X35469924Y12135772D02*
X35469924Y12078629D01*
X35241353Y12678629D02*
X34869925Y12678629D01*
X34869925Y12678629D02*
X35069925Y12450058D01*
X35069925Y12450058D02*
X34984210Y12450058D01*
X34984210Y12450058D02*
X34927068Y12421486D01*
X34927068Y12421486D02*
X34898496Y12392915D01*
X34898496Y12392915D02*
X34869925Y12335772D01*
X34869925Y12335772D02*
X34869925Y12192915D01*
X34869925Y12192915D02*
X34898496Y12135772D01*
X34898496Y12135772D02*
X34927068Y12107200D01*
X34927068Y12107200D02*
X34984210Y12078629D01*
X34984210Y12078629D02*
X35155639Y12078629D01*
X35155639Y12078629D02*
X35212782Y12107200D01*
X35212782Y12107200D02*
X35241353Y12135772D01*
X34698496Y12678629D02*
X34498496Y12078629D01*
X34498496Y12078629D02*
X34298496Y12678629D01*
X36319925Y7107200D02*
X36234211Y7078629D01*
X36234211Y7078629D02*
X36091353Y7078629D01*
X36091353Y7078629D02*
X36034211Y7107200D01*
X36034211Y7107200D02*
X36005639Y7135772D01*
X36005639Y7135772D02*
X35977068Y7192915D01*
X35977068Y7192915D02*
X35977068Y7250058D01*
X35977068Y7250058D02*
X36005639Y7307200D01*
X36005639Y7307200D02*
X36034211Y7335772D01*
X36034211Y7335772D02*
X36091353Y7364343D01*
X36091353Y7364343D02*
X36205639Y7392915D01*
X36205639Y7392915D02*
X36262782Y7421486D01*
X36262782Y7421486D02*
X36291353Y7450058D01*
X36291353Y7450058D02*
X36319925Y7507200D01*
X36319925Y7507200D02*
X36319925Y7564343D01*
X36319925Y7564343D02*
X36291353Y7621486D01*
X36291353Y7621486D02*
X36262782Y7650058D01*
X36262782Y7650058D02*
X36205639Y7678629D01*
X36205639Y7678629D02*
X36062782Y7678629D01*
X36062782Y7678629D02*
X35977068Y7650058D01*
X35777067Y7678629D02*
X35634210Y7078629D01*
X35634210Y7078629D02*
X35519924Y7507200D01*
X35519924Y7507200D02*
X35405639Y7078629D01*
X35405639Y7078629D02*
X35262782Y7678629D01*
X35034210Y7078629D02*
X35034210Y7678629D01*
X35034210Y7678629D02*
X34891353Y7678629D01*
X34891353Y7678629D02*
X34805639Y7650058D01*
X34805639Y7650058D02*
X34748496Y7592915D01*
X34748496Y7592915D02*
X34719925Y7535772D01*
X34719925Y7535772D02*
X34691353Y7421486D01*
X34691353Y7421486D02*
X34691353Y7335772D01*
X34691353Y7335772D02*
X34719925Y7221486D01*
X34719925Y7221486D02*
X34748496Y7164343D01*
X34748496Y7164343D02*
X34805639Y7107200D01*
X34805639Y7107200D02*
X34891353Y7078629D01*
X34891353Y7078629D02*
X35034210Y7078629D01*
X34434210Y7078629D02*
X34434210Y7678629D01*
X34034211Y7678629D02*
X33919925Y7678629D01*
X33919925Y7678629D02*
X33862782Y7650058D01*
X33862782Y7650058D02*
X33805639Y7592915D01*
X33805639Y7592915D02*
X33777068Y7478629D01*
X33777068Y7478629D02*
X33777068Y7278629D01*
X33777068Y7278629D02*
X33805639Y7164343D01*
X33805639Y7164343D02*
X33862782Y7107200D01*
X33862782Y7107200D02*
X33919925Y7078629D01*
X33919925Y7078629D02*
X34034211Y7078629D01*
X34034211Y7078629D02*
X34091354Y7107200D01*
X34091354Y7107200D02*
X34148496Y7164343D01*
X34148496Y7164343D02*
X34177068Y7278629D01*
X34177068Y7278629D02*
X34177068Y7478629D01*
X34177068Y7478629D02*
X34148496Y7592915D01*
X34148496Y7592915D02*
X34091354Y7650058D01*
X34091354Y7650058D02*
X34034211Y7678629D01*
X43227068Y10400058D02*
X43284211Y10428629D01*
X43284211Y10428629D02*
X43369925Y10428629D01*
X43369925Y10428629D02*
X43455639Y10400058D01*
X43455639Y10400058D02*
X43512782Y10342915D01*
X43512782Y10342915D02*
X43541353Y10285772D01*
X43541353Y10285772D02*
X43569925Y10171486D01*
X43569925Y10171486D02*
X43569925Y10085772D01*
X43569925Y10085772D02*
X43541353Y9971486D01*
X43541353Y9971486D02*
X43512782Y9914343D01*
X43512782Y9914343D02*
X43455639Y9857200D01*
X43455639Y9857200D02*
X43369925Y9828629D01*
X43369925Y9828629D02*
X43312782Y9828629D01*
X43312782Y9828629D02*
X43227068Y9857200D01*
X43227068Y9857200D02*
X43198496Y9885772D01*
X43198496Y9885772D02*
X43198496Y10085772D01*
X43198496Y10085772D02*
X43312782Y10085772D01*
X42941353Y9828629D02*
X42941353Y10428629D01*
X42941353Y10428629D02*
X42598496Y9828629D01*
X42598496Y9828629D02*
X42598496Y10428629D01*
X42312782Y9828629D02*
X42312782Y10428629D01*
X42312782Y10428629D02*
X42169925Y10428629D01*
X42169925Y10428629D02*
X42084211Y10400058D01*
X42084211Y10400058D02*
X42027068Y10342915D01*
X42027068Y10342915D02*
X41998497Y10285772D01*
X41998497Y10285772D02*
X41969925Y10171486D01*
X41969925Y10171486D02*
X41969925Y10085772D01*
X41969925Y10085772D02*
X41998497Y9971486D01*
X41998497Y9971486D02*
X42027068Y9914343D01*
X42027068Y9914343D02*
X42084211Y9857200D01*
X42084211Y9857200D02*
X42169925Y9828629D01*
X42169925Y9828629D02*
X42312782Y9828629D01*
X43569925Y4607200D02*
X43484211Y4578629D01*
X43484211Y4578629D02*
X43341353Y4578629D01*
X43341353Y4578629D02*
X43284211Y4607200D01*
X43284211Y4607200D02*
X43255639Y4635772D01*
X43255639Y4635772D02*
X43227068Y4692915D01*
X43227068Y4692915D02*
X43227068Y4750058D01*
X43227068Y4750058D02*
X43255639Y4807200D01*
X43255639Y4807200D02*
X43284211Y4835772D01*
X43284211Y4835772D02*
X43341353Y4864343D01*
X43341353Y4864343D02*
X43455639Y4892915D01*
X43455639Y4892915D02*
X43512782Y4921486D01*
X43512782Y4921486D02*
X43541353Y4950058D01*
X43541353Y4950058D02*
X43569925Y5007200D01*
X43569925Y5007200D02*
X43569925Y5064343D01*
X43569925Y5064343D02*
X43541353Y5121486D01*
X43541353Y5121486D02*
X43512782Y5150058D01*
X43512782Y5150058D02*
X43455639Y5178629D01*
X43455639Y5178629D02*
X43312782Y5178629D01*
X43312782Y5178629D02*
X43227068Y5150058D01*
X43027067Y5178629D02*
X42884210Y4578629D01*
X42884210Y4578629D02*
X42769924Y5007200D01*
X42769924Y5007200D02*
X42655639Y4578629D01*
X42655639Y4578629D02*
X42512782Y5178629D01*
X42169925Y5178629D02*
X42055639Y5178629D01*
X42055639Y5178629D02*
X41998496Y5150058D01*
X41998496Y5150058D02*
X41941353Y5092915D01*
X41941353Y5092915D02*
X41912782Y4978629D01*
X41912782Y4978629D02*
X41912782Y4778629D01*
X41912782Y4778629D02*
X41941353Y4664343D01*
X41941353Y4664343D02*
X41998496Y4607200D01*
X41998496Y4607200D02*
X42055639Y4578629D01*
X42055639Y4578629D02*
X42169925Y4578629D01*
X42169925Y4578629D02*
X42227068Y4607200D01*
X42227068Y4607200D02*
X42284210Y4664343D01*
X42284210Y4664343D02*
X42312782Y4778629D01*
X42312782Y4778629D02*
X42312782Y4978629D01*
X42312782Y4978629D02*
X42284210Y5092915D01*
X42284210Y5092915D02*
X42227068Y5150058D01*
X42227068Y5150058D02*
X42169925Y5178629D01*
X35877068Y2678629D02*
X35534211Y2678629D01*
X35705639Y2078629D02*
X35705639Y2678629D01*
X35391353Y2678629D02*
X34991353Y2078629D01*
X34991353Y2678629D02*
X35391353Y2078629D01*
X36041353Y4828629D02*
X36041353Y5428629D01*
X36041353Y5428629D02*
X35698496Y4828629D01*
X35698496Y4828629D02*
X35698496Y5428629D01*
X35069925Y4828629D02*
X35269925Y5114343D01*
X35412782Y4828629D02*
X35412782Y5428629D01*
X35412782Y5428629D02*
X35184211Y5428629D01*
X35184211Y5428629D02*
X35127068Y5400058D01*
X35127068Y5400058D02*
X35098497Y5371486D01*
X35098497Y5371486D02*
X35069925Y5314343D01*
X35069925Y5314343D02*
X35069925Y5228629D01*
X35069925Y5228629D02*
X35098497Y5171486D01*
X35098497Y5171486D02*
X35127068Y5142915D01*
X35127068Y5142915D02*
X35184211Y5114343D01*
X35184211Y5114343D02*
X35412782Y5114343D01*
X34841354Y4857200D02*
X34755640Y4828629D01*
X34755640Y4828629D02*
X34612782Y4828629D01*
X34612782Y4828629D02*
X34555640Y4857200D01*
X34555640Y4857200D02*
X34527068Y4885772D01*
X34527068Y4885772D02*
X34498497Y4942915D01*
X34498497Y4942915D02*
X34498497Y5000058D01*
X34498497Y5000058D02*
X34527068Y5057200D01*
X34527068Y5057200D02*
X34555640Y5085772D01*
X34555640Y5085772D02*
X34612782Y5114343D01*
X34612782Y5114343D02*
X34727068Y5142915D01*
X34727068Y5142915D02*
X34784211Y5171486D01*
X34784211Y5171486D02*
X34812782Y5200058D01*
X34812782Y5200058D02*
X34841354Y5257200D01*
X34841354Y5257200D02*
X34841354Y5314343D01*
X34841354Y5314343D02*
X34812782Y5371486D01*
X34812782Y5371486D02*
X34784211Y5400058D01*
X34784211Y5400058D02*
X34727068Y5428629D01*
X34727068Y5428629D02*
X34584211Y5428629D01*
X34584211Y5428629D02*
X34498497Y5400058D01*
X34327068Y5428629D02*
X33984211Y5428629D01*
X34155639Y4828629D02*
X34155639Y5428629D01*
%LPC*%
D12*
%TO.C,J2*%
X37860000Y12580000D03*
D13*
X40400000Y12580000D03*
X37860000Y10040000D03*
X40400000Y10040000D03*
X37860000Y7500000D03*
X40400000Y7500000D03*
X37860000Y4960000D03*
X40400000Y4960000D03*
X37860000Y2420000D03*
X40400000Y2420000D03*
%TD*%
D14*
%TO.C,J3*%
X18855000Y1700000D03*
D15*
X17585000Y1700000D03*
X16315000Y1700000D03*
X15045000Y1700000D03*
%TD*%
D16*
%TO.C,J1*%
X5925000Y10900000D03*
X5925000Y4100000D03*
D17*
X7275000Y11820000D03*
D18*
X2725000Y11820000D03*
D19*
X6775000Y11520000D03*
X6775000Y3480000D03*
D17*
X7275000Y3180000D03*
D18*
X2725000Y3180000D03*
%TD*%
%LPD*%
M02*
