%TF.GenerationSoftware,KiCad,Pcbnew,9.0.6-9.0.6~ubuntu24.04.1*%
%TF.CreationDate,2025-11-23T17:21:15+08:00*%
%TF.ProjectId,demo,64656d6f-2e6b-4696-9361-645f70636258,V1.0.1*%
%TF.SameCoordinates,PX5f5e100PY5f5e100*%
%TF.FileFunction,Copper,L2,Inr*%
%TF.FilePolarity,Positive*%
%FSLAX46Y46*%
G04 Gerber Fmt 4.6, Leading zero omitted, Abs format (unit mm)*
G04 Created by KiCad (PCBNEW 9.0.6-9.0.6~ubuntu24.04.1) date 2025-11-23 17:21:15*
%MOMM*%
%LPD*%
G01*
G04 APERTURE LIST*
%TA.AperFunction,ComponentPad*%
%ADD10R,1.700000X1.700000*%
%TD*%
%TA.AperFunction,ComponentPad*%
%ADD11C,1.700000*%
%TD*%
%TA.AperFunction,ComponentPad*%
%ADD12R,1.000000X1.000000*%
%TD*%
%TA.AperFunction,ComponentPad*%
%ADD13C,1.000000*%
%TD*%
%TA.AperFunction,ComponentPad*%
%ADD14O,1.900000X0.900000*%
%TD*%
%TA.AperFunction,ComponentPad*%
%ADD15O,2.200000X0.900000*%
%TD*%
%TA.AperFunction,ComponentPad*%
%ADD16O,0.900000X1.500000*%
%TD*%
%TA.AperFunction,ViaPad*%
%ADD17C,0.250000*%
%TD*%
G04 APERTURE END LIST*
D10*
%TO.N,+3V3*%
%TO.C,J2*%
X37860000Y12580000D03*
D11*
%TO.N,+5V*%
X40400000Y12580000D03*
%TO.N,GND*%
X37860000Y10040000D03*
X40400000Y10040000D03*
%TO.N,Net-(J2-Pin_5)*%
X37860000Y7500000D03*
%TO.N,Net-(J2-Pin_6)*%
X40400000Y7500000D03*
%TO.N,Net-(J2-Pin_7)*%
X37860000Y4960000D03*
%TO.N,Net-(J2-Pin_8)*%
X40400000Y4960000D03*
%TO.N,/T_Tx*%
X37860000Y2420000D03*
%TO.N,/T_Rx*%
X40400000Y2420000D03*
%TD*%
D12*
%TO.N,+3V3*%
%TO.C,J3*%
X18855000Y1700000D03*
D13*
%TO.N,Net-(J3-Pin_2)*%
X17585000Y1700000D03*
%TO.N,Net-(J3-Pin_3)*%
X16315000Y1700000D03*
%TO.N,GND*%
X15045000Y1700000D03*
%TD*%
D14*
%TO.N,GND*%
%TO.C,J1*%
X7275000Y11820000D03*
D15*
X2725000Y11820000D03*
D16*
X6775000Y11520000D03*
X6775000Y3480000D03*
D14*
X7275000Y3180000D03*
D15*
X2725000Y3180000D03*
%TD*%
D17*
%TO.N,+5V*%
X19160000Y12360000D03*
%TO.N,GND*%
X15450000Y13725000D03*
X33700000Y8900000D03*
X17250000Y7000000D03*
X10080000Y10950000D03*
X17250000Y6500000D03*
X17250000Y6000000D03*
X17250000Y7500000D03*
X33760000Y11980000D03*
X17250000Y8000000D03*
X34950000Y7990000D03*
X19105000Y13180000D03*
X10100000Y5130000D03*
%TO.N,+3V3*%
X15500000Y7000000D03*
X15000000Y8000000D03*
X15000000Y7500000D03*
X16484811Y6500000D03*
X16009951Y6500000D03*
X15500000Y6000000D03*
X14500000Y7000000D03*
X14500000Y6000000D03*
X16000000Y7500000D03*
X16000000Y7000000D03*
X22000000Y4000000D03*
X15000000Y7000000D03*
X16500000Y6000000D03*
X22500000Y13100000D03*
X16000000Y8000000D03*
X32635000Y10510543D03*
X16500000Y7500000D03*
X35500000Y13400000D03*
X15000000Y6500000D03*
X15500000Y7500000D03*
X31400000Y3000000D03*
X16500000Y8000000D03*
X15500000Y6500000D03*
X15500000Y8000000D03*
X16500000Y7000000D03*
X16000000Y6000000D03*
X15000000Y6000000D03*
X11250000Y2750000D03*
X33200000Y13400000D03*
X16500000Y13725000D03*
X14500000Y6500000D03*
X14500000Y7500000D03*
X14500000Y8000000D03*
%TO.N,Net-(J1-CC1)*%
X7300000Y8312916D03*
X5900000Y6870000D03*
%TO.N,Net-(J1-D--PadA7)*%
X6029677Y7870000D03*
X7300000Y7120000D03*
%TO.N,/T_Rx*%
X28900000Y10900000D03*
%TO.N,/T_Tx*%
X30400000Y11400000D03*
%TO.N,/DP+*%
X11050000Y9790000D03*
X20880000Y6630000D03*
%TO.N,/DM-*%
X20580000Y7000000D03*
X11090000Y7460000D03*
%TO.N,/T_JTMS*%
X34510000Y6070000D03*
X22860000Y9500000D03*
%TO.N,/RENUM*%
X11080000Y4120000D03*
X23800000Y4440000D03*
%TO.N,/T_JTCK*%
X34510000Y4880000D03*
X22860000Y10000000D03*
X27990000Y10000000D03*
%TO.N,/T_NRST*%
X34510000Y3905000D03*
X26480000Y10480000D03*
%TO.N,/T_SWO*%
X33980000Y2980000D03*
X22850000Y7500000D03*
%TO.N,Net-(U2-PB2)*%
X25300000Y13230000D03*
X18600000Y13740000D03*
%TD*%
%TA.AperFunction,Conductor*%
%TO.N,+3V3*%
G36*
X44006061Y14898903D02*
G01*
X44163335Y14883413D01*
X44187163Y14878674D01*
X44332544Y14834573D01*
X44354989Y14825276D01*
X44488967Y14753663D01*
X44509175Y14740160D01*
X44626601Y14643792D01*
X44643791Y14626602D01*
X44740159Y14509176D01*
X44753663Y14488966D01*
X44825272Y14354997D01*
X44834575Y14332538D01*
X44878671Y14187170D01*
X44883413Y14163330D01*
X44897973Y14015500D01*
X44898903Y14006063D01*
X44899500Y13993908D01*
X44899500Y1006093D01*
X44898902Y993939D01*
X44895355Y957914D01*
X44883413Y836671D01*
X44878671Y812831D01*
X44834575Y667463D01*
X44825272Y645004D01*
X44753663Y511035D01*
X44740159Y490825D01*
X44643791Y373399D01*
X44626601Y356209D01*
X44509175Y259841D01*
X44488965Y246337D01*
X44354996Y174728D01*
X44332537Y165425D01*
X44187169Y121329D01*
X44163329Y116587D01*
X44047425Y105172D01*
X44006060Y101097D01*
X43993907Y100500D01*
X1006093Y100500D01*
X993939Y101097D01*
X836671Y116587D01*
X812830Y121329D01*
X667462Y165425D01*
X645005Y174727D01*
X511034Y246337D01*
X490824Y259841D01*
X373398Y356209D01*
X356208Y373399D01*
X259840Y490825D01*
X246336Y511035D01*
X234525Y533132D01*
X174724Y645011D01*
X165427Y667456D01*
X121326Y812837D01*
X116587Y836665D01*
X101097Y993939D01*
X100500Y1006093D01*
X100500Y1635929D01*
X14394499Y1635929D01*
X14419497Y1510262D01*
X14419499Y1510256D01*
X14468533Y1391876D01*
X14468538Y1391867D01*
X14539723Y1285332D01*
X14539726Y1285328D01*
X14630327Y1194727D01*
X14630331Y1194724D01*
X14736866Y1123539D01*
X14736872Y1123536D01*
X14736873Y1123535D01*
X14855256Y1074499D01*
X14855260Y1074499D01*
X14855261Y1074498D01*
X14980928Y1049500D01*
X14980931Y1049500D01*
X15109071Y1049500D01*
X15193615Y1066318D01*
X15234744Y1074499D01*
X15353127Y1123535D01*
X15459669Y1194724D01*
X15550276Y1285331D01*
X15576898Y1325175D01*
X15630509Y1369978D01*
X15699834Y1378686D01*
X15762862Y1348532D01*
X15783100Y1325176D01*
X15799509Y1300618D01*
X15809725Y1285329D01*
X15900327Y1194727D01*
X15900331Y1194724D01*
X16006866Y1123539D01*
X16006872Y1123536D01*
X16006873Y1123535D01*
X16125256Y1074499D01*
X16125260Y1074499D01*
X16125261Y1074498D01*
X16250928Y1049500D01*
X16250931Y1049500D01*
X16379071Y1049500D01*
X16463615Y1066318D01*
X16504744Y1074499D01*
X16623127Y1123535D01*
X16729669Y1194724D01*
X16820276Y1285331D01*
X16846898Y1325175D01*
X16900509Y1369978D01*
X16969834Y1378686D01*
X17032862Y1348532D01*
X17053100Y1325176D01*
X17069509Y1300618D01*
X17079725Y1285329D01*
X17170327Y1194727D01*
X17170331Y1194724D01*
X17276866Y1123539D01*
X17276872Y1123536D01*
X17276873Y1123535D01*
X17395256Y1074499D01*
X17395260Y1074499D01*
X17395261Y1074498D01*
X17520928Y1049500D01*
X17520931Y1049500D01*
X17649070Y1049500D01*
X17672989Y1054259D01*
X17758213Y1071211D01*
X17827803Y1064984D01*
X17882981Y1022122D01*
X17898586Y992928D01*
X17911646Y957913D01*
X17911649Y957907D01*
X17997809Y842813D01*
X17997812Y842810D01*
X18112906Y756650D01*
X18112913Y756646D01*
X18247620Y706404D01*
X18247627Y706402D01*
X18307155Y700001D01*
X18307172Y700000D01*
X18605000Y700000D01*
X19105000Y700000D01*
X19402828Y700000D01*
X19402844Y700001D01*
X19462372Y706402D01*
X19462379Y706404D01*
X19597086Y756646D01*
X19597093Y756650D01*
X19712187Y842810D01*
X19712190Y842813D01*
X19798350Y957907D01*
X19798354Y957914D01*
X19848596Y1092621D01*
X19848598Y1092628D01*
X19854999Y1152156D01*
X19855000Y1152173D01*
X19855000Y1450000D01*
X19105000Y1450000D01*
X19105000Y700000D01*
X18605000Y700000D01*
X18605000Y1490382D01*
X18655446Y1439936D01*
X18729555Y1397149D01*
X18812213Y1375000D01*
X18897787Y1375000D01*
X18980445Y1397149D01*
X19054554Y1439936D01*
X19115064Y1500446D01*
X19157851Y1574555D01*
X19180000Y1657213D01*
X19180000Y1742787D01*
X19157851Y1825445D01*
X19115064Y1899554D01*
X19064618Y1950000D01*
X19105000Y1950000D01*
X19855000Y1950000D01*
X19855000Y2247828D01*
X19854999Y2247845D01*
X19848598Y2307373D01*
X19848596Y2307380D01*
X19843346Y2321457D01*
X36859499Y2321457D01*
X36897947Y2128171D01*
X36897950Y2128161D01*
X36973364Y1946093D01*
X36973371Y1946080D01*
X37082860Y1782219D01*
X37082863Y1782215D01*
X37222214Y1642864D01*
X37222218Y1642861D01*
X37386079Y1533372D01*
X37386092Y1533365D01*
X37465567Y1500446D01*
X37568165Y1457949D01*
X37568169Y1457949D01*
X37568170Y1457948D01*
X37761456Y1419500D01*
X37761459Y1419500D01*
X37958543Y1419500D01*
X38111873Y1450000D01*
X38151835Y1457949D01*
X38333914Y1533368D01*
X38497782Y1642861D01*
X38637139Y1782218D01*
X38746632Y1946086D01*
X38822051Y2128165D01*
X38845857Y2247845D01*
X38860500Y2321457D01*
X39399499Y2321457D01*
X39437947Y2128171D01*
X39437950Y2128161D01*
X39513364Y1946093D01*
X39513371Y1946080D01*
X39622860Y1782219D01*
X39622863Y1782215D01*
X39762214Y1642864D01*
X39762218Y1642861D01*
X39926079Y1533372D01*
X39926092Y1533365D01*
X40005567Y1500446D01*
X40108165Y1457949D01*
X40108169Y1457949D01*
X40108170Y1457948D01*
X40301456Y1419500D01*
X40301459Y1419500D01*
X40498543Y1419500D01*
X40651873Y1450000D01*
X40691835Y1457949D01*
X40873914Y1533368D01*
X41037782Y1642861D01*
X41177139Y1782218D01*
X41286632Y1946086D01*
X41362051Y2128165D01*
X41385857Y2247845D01*
X41400500Y2321457D01*
X41400500Y2518544D01*
X41362052Y2711830D01*
X41362051Y2711831D01*
X41362051Y2711835D01*
X41320859Y2811283D01*
X41286635Y2893908D01*
X41286628Y2893921D01*
X41177139Y3057782D01*
X41177136Y3057786D01*
X41037785Y3197137D01*
X41037781Y3197140D01*
X40873920Y3306629D01*
X40873907Y3306636D01*
X40691839Y3382050D01*
X40691829Y3382053D01*
X40498543Y3420500D01*
X40498541Y3420500D01*
X40301459Y3420500D01*
X40301457Y3420500D01*
X40108170Y3382053D01*
X40108160Y3382050D01*
X39926092Y3306636D01*
X39926079Y3306629D01*
X39762218Y3197140D01*
X39762214Y3197137D01*
X39622863Y3057786D01*
X39622860Y3057782D01*
X39513371Y2893921D01*
X39513364Y2893908D01*
X39437950Y2711840D01*
X39437947Y2711830D01*
X39399500Y2518544D01*
X39399500Y2518541D01*
X39399500Y2321459D01*
X39399500Y2321457D01*
X39399499Y2321457D01*
X38860500Y2321457D01*
X38860500Y2518544D01*
X38822052Y2711830D01*
X38822051Y2711831D01*
X38822051Y2711835D01*
X38780859Y2811283D01*
X38746635Y2893908D01*
X38746628Y2893921D01*
X38637139Y3057782D01*
X38637136Y3057786D01*
X38497785Y3197137D01*
X38497781Y3197140D01*
X38333920Y3306629D01*
X38333907Y3306636D01*
X38151839Y3382050D01*
X38151829Y3382053D01*
X37958543Y3420500D01*
X37958541Y3420500D01*
X37761459Y3420500D01*
X37761457Y3420500D01*
X37568170Y3382053D01*
X37568160Y3382050D01*
X37386092Y3306636D01*
X37386079Y3306629D01*
X37222218Y3197140D01*
X37222214Y3197137D01*
X37082863Y3057786D01*
X37082860Y3057782D01*
X36973371Y2893921D01*
X36973364Y2893908D01*
X36897950Y2711840D01*
X36897947Y2711830D01*
X36859500Y2518544D01*
X36859500Y2518541D01*
X36859500Y2321459D01*
X36859500Y2321457D01*
X36859499Y2321457D01*
X19843346Y2321457D01*
X19798354Y2442087D01*
X19798353Y2442089D01*
X19792189Y2450323D01*
X19792188Y2450325D01*
X19712187Y2557191D01*
X19597093Y2643351D01*
X19597086Y2643355D01*
X19462379Y2693597D01*
X19462372Y2693599D01*
X19402844Y2700000D01*
X19105000Y2700000D01*
X19105000Y1950000D01*
X19064618Y1950000D01*
X19054554Y1960064D01*
X18980445Y2002851D01*
X18897787Y2025000D01*
X18812213Y2025000D01*
X18729555Y2002851D01*
X18655446Y1960064D01*
X18605000Y1909618D01*
X18605000Y2700000D01*
X18307155Y2700000D01*
X18247627Y2693599D01*
X18247620Y2693597D01*
X18112913Y2643355D01*
X18112906Y2643351D01*
X17997812Y2557191D01*
X17997809Y2557188D01*
X17911649Y2442094D01*
X17911644Y2442084D01*
X17898585Y2407072D01*
X17856713Y2351139D01*
X17791249Y2326723D01*
X17758212Y2328790D01*
X17649071Y2350500D01*
X17649069Y2350500D01*
X17520931Y2350500D01*
X17520929Y2350500D01*
X17395261Y2325503D01*
X17395255Y2325501D01*
X17276875Y2276467D01*
X17276866Y2276462D01*
X17170331Y2205277D01*
X17170327Y2205274D01*
X17079726Y2114673D01*
X17079723Y2114669D01*
X17053102Y2074827D01*
X16999490Y2030022D01*
X16930165Y2021315D01*
X16867137Y2051470D01*
X16846898Y2074827D01*
X16820276Y2114669D01*
X16820273Y2114673D01*
X16729672Y2205274D01*
X16729668Y2205277D01*
X16623133Y2276462D01*
X16623124Y2276467D01*
X16504744Y2325501D01*
X16504738Y2325503D01*
X16379071Y2350500D01*
X16379069Y2350500D01*
X16250931Y2350500D01*
X16250929Y2350500D01*
X16125261Y2325503D01*
X16125255Y2325501D01*
X16006875Y2276467D01*
X16006866Y2276462D01*
X15900331Y2205277D01*
X15900327Y2205274D01*
X15809726Y2114673D01*
X15809723Y2114669D01*
X15783102Y2074827D01*
X15729490Y2030022D01*
X15660165Y2021315D01*
X15597137Y2051470D01*
X15576898Y2074827D01*
X15550276Y2114669D01*
X15550273Y2114673D01*
X15459672Y2205274D01*
X15459668Y2205277D01*
X15353133Y2276462D01*
X15353124Y2276467D01*
X15234744Y2325501D01*
X15234738Y2325503D01*
X15109071Y2350500D01*
X15109069Y2350500D01*
X14980931Y2350500D01*
X14980929Y2350500D01*
X14855261Y2325503D01*
X14855255Y2325501D01*
X14736875Y2276467D01*
X14736866Y2276462D01*
X14630331Y2205277D01*
X14630327Y2205274D01*
X14539726Y2114673D01*
X14539723Y2114669D01*
X14468538Y2008134D01*
X14468533Y2008125D01*
X14419499Y1889745D01*
X14419497Y1889739D01*
X14394500Y1764072D01*
X14394500Y1764069D01*
X14394500Y1635931D01*
X14394500Y1635929D01*
X14394499Y1635929D01*
X100500Y1635929D01*
X100500Y3259057D01*
X1474500Y3259057D01*
X1474500Y3100943D01*
X1474501Y3100942D01*
X1515423Y2948217D01*
X1515426Y2948210D01*
X1594475Y2811291D01*
X1594479Y2811286D01*
X1594480Y2811284D01*
X1706284Y2699480D01*
X1706286Y2699479D01*
X1706290Y2699476D01*
X1803496Y2643355D01*
X1843216Y2620423D01*
X1995943Y2579500D01*
X1995945Y2579500D01*
X3454055Y2579500D01*
X3454057Y2579500D01*
X3606784Y2620423D01*
X3743716Y2699480D01*
X3855520Y2811284D01*
X3934577Y2948216D01*
X3975500Y3100943D01*
X3975500Y3259057D01*
X3934577Y3411784D01*
X3929545Y3420500D01*
X3855524Y3548710D01*
X3855518Y3548718D01*
X3743717Y3660519D01*
X3743709Y3660525D01*
X3606790Y3739574D01*
X3606786Y3739576D01*
X3606784Y3739577D01*
X3454057Y3780500D01*
X1995943Y3780500D01*
X1843216Y3739577D01*
X1843209Y3739574D01*
X1706290Y3660525D01*
X1706282Y3660519D01*
X1594481Y3548718D01*
X1594475Y3548710D01*
X1515426Y3411791D01*
X1515423Y3411784D01*
X1474500Y3259057D01*
X100500Y3259057D01*
X100500Y4146144D01*
X5574500Y4146144D01*
X5574500Y4053856D01*
X5589480Y3997948D01*
X5598387Y3964710D01*
X5598388Y3964707D01*
X5644526Y3884795D01*
X5644529Y3884791D01*
X5644531Y3884788D01*
X5709788Y3819531D01*
X5709791Y3819530D01*
X5709794Y3819527D01*
X5789706Y3773389D01*
X5789707Y3773389D01*
X5789712Y3773386D01*
X5878856Y3749500D01*
X5878858Y3749500D01*
X5971140Y3749500D01*
X5971144Y3749500D01*
X6018410Y3762165D01*
X6088255Y3760502D01*
X6146118Y3721340D01*
X6173623Y3657112D01*
X6174500Y3642390D01*
X6174500Y3259057D01*
X6174500Y3100943D01*
X6174501Y3100942D01*
X6215423Y2948217D01*
X6215426Y2948210D01*
X6294475Y2811291D01*
X6294479Y2811286D01*
X6294480Y2811284D01*
X6406284Y2699480D01*
X6406286Y2699479D01*
X6406290Y2699476D01*
X6503496Y2643355D01*
X6543216Y2620423D01*
X6695943Y2579500D01*
X6695945Y2579500D01*
X7854055Y2579500D01*
X7854057Y2579500D01*
X8006784Y2620423D01*
X8143716Y2699480D01*
X8255520Y2811284D01*
X8334577Y2948216D01*
X8357777Y3034800D01*
X33704500Y3034800D01*
X33704500Y2925200D01*
X33746443Y2823942D01*
X33823942Y2746443D01*
X33925200Y2704500D01*
X33925201Y2704500D01*
X34034799Y2704500D01*
X34034800Y2704500D01*
X34136058Y2746443D01*
X34213557Y2823942D01*
X34255500Y2925200D01*
X34255500Y3034800D01*
X34213557Y3136058D01*
X34136058Y3213557D01*
X34034800Y3255500D01*
X33925200Y3255500D01*
X33925199Y3255500D01*
X33823940Y3213556D01*
X33746444Y3136060D01*
X33714020Y3057782D01*
X33704500Y3034800D01*
X8357777Y3034800D01*
X8375500Y3100943D01*
X8375500Y3259057D01*
X8334577Y3411784D01*
X8329545Y3420500D01*
X8255524Y3548710D01*
X8255518Y3548718D01*
X8143717Y3660519D01*
X8143709Y3660525D01*
X8006790Y3739574D01*
X8006786Y3739576D01*
X8006784Y3739577D01*
X7854057Y3780500D01*
X7854056Y3780500D01*
X7491697Y3780500D01*
X7424658Y3800185D01*
X7378903Y3852989D01*
X7371925Y3872398D01*
X7334577Y4011784D01*
X7334575Y4011788D01*
X7334574Y4011791D01*
X7269206Y4125012D01*
X7269204Y4125014D01*
X7255520Y4148716D01*
X7229436Y4174800D01*
X10804500Y4174800D01*
X10804500Y4065200D01*
X10846443Y3963942D01*
X10923942Y3886443D01*
X11025200Y3844500D01*
X11025201Y3844500D01*
X11134799Y3844500D01*
X11134800Y3844500D01*
X11236058Y3886443D01*
X11309415Y3959800D01*
X34234500Y3959800D01*
X34234500Y3850200D01*
X34276443Y3748942D01*
X34353942Y3671443D01*
X34455200Y3629500D01*
X34455201Y3629500D01*
X34564799Y3629500D01*
X34564800Y3629500D01*
X34666058Y3671443D01*
X34743557Y3748942D01*
X34785500Y3850200D01*
X34785500Y3959800D01*
X34743557Y4061058D01*
X34666058Y4138557D01*
X34564800Y4180500D01*
X34455200Y4180500D01*
X34455199Y4180500D01*
X34416573Y4164500D01*
X34372259Y4146144D01*
X34353940Y4138556D01*
X34276444Y4061060D01*
X34236216Y3963942D01*
X34234500Y3959800D01*
X11309415Y3959800D01*
X11313557Y3963942D01*
X11355500Y4065200D01*
X11355500Y4174800D01*
X11313557Y4276058D01*
X11236058Y4353557D01*
X11134800Y4395500D01*
X11025200Y4395500D01*
X11025199Y4395500D01*
X10923940Y4353556D01*
X10846444Y4276060D01*
X10846443Y4276059D01*
X10846443Y4276058D01*
X10838383Y4256600D01*
X10827949Y4231409D01*
X10804500Y4174800D01*
X7229436Y4174800D01*
X7143716Y4260520D01*
X7143714Y4260521D01*
X7143709Y4260525D01*
X7006790Y4339574D01*
X7006786Y4339576D01*
X7006784Y4339577D01*
X6854057Y4380500D01*
X6695943Y4380500D01*
X6543216Y4339577D01*
X6543209Y4339574D01*
X6406289Y4260524D01*
X6401175Y4256600D01*
X6336005Y4231409D01*
X6267560Y4245450D01*
X6218305Y4292980D01*
X6205472Y4315206D01*
X6205469Y4315212D01*
X6140212Y4380469D01*
X6140209Y4380471D01*
X6140205Y4380474D01*
X6060293Y4426612D01*
X6060290Y4426613D01*
X6060289Y4426614D01*
X6060288Y4426614D01*
X5971144Y4450500D01*
X5878856Y4450500D01*
X5789712Y4426614D01*
X5789711Y4426614D01*
X5789709Y4426613D01*
X5789706Y4426612D01*
X5709794Y4380474D01*
X5709785Y4380467D01*
X5644533Y4315215D01*
X5644526Y4315206D01*
X5598388Y4235294D01*
X5598387Y4235291D01*
X5598386Y4235289D01*
X5598386Y4235288D01*
X5574500Y4146144D01*
X100500Y4146144D01*
X100500Y4494800D01*
X23524500Y4494800D01*
X23524500Y4385200D01*
X23566443Y4283942D01*
X23643942Y4206443D01*
X23745200Y4164500D01*
X23745201Y4164500D01*
X23854799Y4164500D01*
X23854800Y4164500D01*
X23956058Y4206443D01*
X24033557Y4283942D01*
X24075500Y4385200D01*
X24075500Y4494800D01*
X24033557Y4596058D01*
X23956058Y4673557D01*
X23854800Y4715500D01*
X23745200Y4715500D01*
X23745199Y4715500D01*
X23643940Y4673556D01*
X23566444Y4596060D01*
X23566443Y4596059D01*
X23566443Y4596058D01*
X23524500Y4494800D01*
X100500Y4494800D01*
X100500Y5184800D01*
X9824500Y5184800D01*
X9824500Y5075200D01*
X9866443Y4973942D01*
X9943942Y4896443D01*
X10045200Y4854500D01*
X10045201Y4854500D01*
X10154799Y4854500D01*
X10154800Y4854500D01*
X10256058Y4896443D01*
X10294415Y4934800D01*
X34234500Y4934800D01*
X34234500Y4825200D01*
X34276443Y4723942D01*
X34353942Y4646443D01*
X34455200Y4604500D01*
X34455201Y4604500D01*
X34564799Y4604500D01*
X34564800Y4604500D01*
X34666058Y4646443D01*
X34743557Y4723942D01*
X34785500Y4825200D01*
X34785500Y4861457D01*
X36859499Y4861457D01*
X36897947Y4668171D01*
X36897950Y4668161D01*
X36973364Y4486093D01*
X36973371Y4486080D01*
X37082860Y4322219D01*
X37082863Y4322215D01*
X37222214Y4182864D01*
X37222218Y4182861D01*
X37386079Y4073372D01*
X37386092Y4073365D01*
X37534747Y4011791D01*
X37568165Y3997949D01*
X37568169Y3997949D01*
X37568170Y3997948D01*
X37761456Y3959500D01*
X37761459Y3959500D01*
X37958543Y3959500D01*
X38088582Y3985368D01*
X38151835Y3997949D01*
X38314195Y4065200D01*
X38333907Y4073365D01*
X38333907Y4073366D01*
X38333914Y4073368D01*
X38497782Y4182861D01*
X38637139Y4322218D01*
X38746632Y4486086D01*
X38750242Y4494800D01*
X38763721Y4527345D01*
X38822051Y4668165D01*
X38860500Y4861457D01*
X39399499Y4861457D01*
X39437947Y4668171D01*
X39437950Y4668161D01*
X39513364Y4486093D01*
X39513371Y4486080D01*
X39622860Y4322219D01*
X39622863Y4322215D01*
X39762214Y4182864D01*
X39762218Y4182861D01*
X39926079Y4073372D01*
X39926092Y4073365D01*
X40074747Y4011791D01*
X40108165Y3997949D01*
X40108169Y3997949D01*
X40108170Y3997948D01*
X40301456Y3959500D01*
X40301459Y3959500D01*
X40498543Y3959500D01*
X40628582Y3985368D01*
X40691835Y3997949D01*
X40854195Y4065200D01*
X40873907Y4073365D01*
X40873907Y4073366D01*
X40873914Y4073368D01*
X41037782Y4182861D01*
X41177139Y4322218D01*
X41286632Y4486086D01*
X41290242Y4494800D01*
X41303721Y4527345D01*
X41362051Y4668165D01*
X41400500Y4861459D01*
X41400500Y5058541D01*
X41400500Y5058544D01*
X41362052Y5251830D01*
X41362051Y5251831D01*
X41362051Y5251835D01*
X41362049Y5251840D01*
X41286635Y5433908D01*
X41286628Y5433921D01*
X41177139Y5597782D01*
X41177136Y5597786D01*
X41037785Y5737137D01*
X41037781Y5737140D01*
X40873920Y5846629D01*
X40873907Y5846636D01*
X40691839Y5922050D01*
X40691829Y5922053D01*
X40498543Y5960500D01*
X40498541Y5960500D01*
X40301459Y5960500D01*
X40301457Y5960500D01*
X40108170Y5922053D01*
X40108160Y5922050D01*
X39926092Y5846636D01*
X39926079Y5846629D01*
X39762218Y5737140D01*
X39762214Y5737137D01*
X39622863Y5597786D01*
X39622860Y5597782D01*
X39513371Y5433921D01*
X39513364Y5433908D01*
X39437950Y5251840D01*
X39437947Y5251830D01*
X39399500Y5058544D01*
X39399500Y5058541D01*
X39399500Y4861459D01*
X39399500Y4861457D01*
X39399499Y4861457D01*
X38860500Y4861457D01*
X38860500Y4861459D01*
X38860500Y5058541D01*
X38860500Y5058544D01*
X38822052Y5251830D01*
X38822051Y5251831D01*
X38822051Y5251835D01*
X38822049Y5251840D01*
X38746635Y5433908D01*
X38746628Y5433921D01*
X38637139Y5597782D01*
X38637136Y5597786D01*
X38497785Y5737137D01*
X38497781Y5737140D01*
X38333920Y5846629D01*
X38333907Y5846636D01*
X38151839Y5922050D01*
X38151829Y5922053D01*
X37958543Y5960500D01*
X37958541Y5960500D01*
X37761459Y5960500D01*
X37761457Y5960500D01*
X37568170Y5922053D01*
X37568160Y5922050D01*
X37386092Y5846636D01*
X37386079Y5846629D01*
X37222218Y5737140D01*
X37222214Y5737137D01*
X37082863Y5597786D01*
X37082860Y5597782D01*
X36973371Y5433921D01*
X36973364Y5433908D01*
X36897950Y5251840D01*
X36897947Y5251830D01*
X36859500Y5058544D01*
X36859500Y5058541D01*
X36859500Y4861459D01*
X36859500Y4861457D01*
X36859499Y4861457D01*
X34785500Y4861457D01*
X34785500Y4934800D01*
X34743557Y5036058D01*
X34666058Y5113557D01*
X34564800Y5155500D01*
X34455200Y5155500D01*
X34455199Y5155500D01*
X34353940Y5113556D01*
X34276444Y5036060D01*
X34276443Y5036059D01*
X34276443Y5036058D01*
X34234500Y4934800D01*
X10294415Y4934800D01*
X10333557Y4973942D01*
X10375500Y5075200D01*
X10375500Y5184800D01*
X10333557Y5286058D01*
X10256058Y5363557D01*
X10154800Y5405500D01*
X10045200Y5405500D01*
X10045199Y5405500D01*
X9943940Y5363556D01*
X9866444Y5286060D01*
X9866443Y5286059D01*
X9866443Y5286058D01*
X9824500Y5184800D01*
X100500Y5184800D01*
X100500Y6924800D01*
X5624500Y6924800D01*
X5624500Y6815200D01*
X5666443Y6713942D01*
X5743942Y6636443D01*
X5845200Y6594500D01*
X5845201Y6594500D01*
X5954799Y6594500D01*
X5954800Y6594500D01*
X6056058Y6636443D01*
X6133557Y6713942D01*
X6175500Y6815200D01*
X6175500Y6924800D01*
X6133557Y7026058D01*
X6056058Y7103557D01*
X5954800Y7145500D01*
X5845200Y7145500D01*
X5845199Y7145500D01*
X5743940Y7103556D01*
X5666444Y7026060D01*
X5666443Y7026059D01*
X5666443Y7026058D01*
X5624500Y6924800D01*
X100500Y6924800D01*
X100500Y7174800D01*
X7024500Y7174800D01*
X7024500Y7065200D01*
X7066443Y6963942D01*
X7143942Y6886443D01*
X7245200Y6844500D01*
X7245201Y6844500D01*
X7354799Y6844500D01*
X7354800Y6844500D01*
X7456058Y6886443D01*
X7533557Y6963942D01*
X7575500Y7065200D01*
X7575500Y7174800D01*
X7533557Y7276058D01*
X7456058Y7353557D01*
X7354800Y7395500D01*
X7245200Y7395500D01*
X7245199Y7395500D01*
X7143940Y7353556D01*
X7066444Y7276060D01*
X7045892Y7226443D01*
X7024500Y7174800D01*
X100500Y7174800D01*
X100500Y7514800D01*
X10814500Y7514800D01*
X10814500Y7405200D01*
X10856443Y7303942D01*
X10933942Y7226443D01*
X11035200Y7184500D01*
X11035201Y7184500D01*
X11144799Y7184500D01*
X11144800Y7184500D01*
X11246058Y7226443D01*
X11323557Y7303942D01*
X11365500Y7405200D01*
X11365500Y7514800D01*
X11323557Y7616058D01*
X11246058Y7693557D01*
X11144800Y7735500D01*
X11035200Y7735500D01*
X11035199Y7735500D01*
X10965582Y7706663D01*
X10944676Y7698003D01*
X10933940Y7693556D01*
X10856444Y7616060D01*
X10856443Y7616059D01*
X10856443Y7616058D01*
X10814500Y7514800D01*
X100500Y7514800D01*
X100500Y7924800D01*
X5754177Y7924800D01*
X5754177Y7815200D01*
X5796120Y7713942D01*
X5873619Y7636443D01*
X5974877Y7594500D01*
X5974878Y7594500D01*
X6084476Y7594500D01*
X6084477Y7594500D01*
X6185735Y7636443D01*
X6263234Y7713942D01*
X6305177Y7815200D01*
X6305177Y7924800D01*
X6263234Y8026058D01*
X6185735Y8103557D01*
X6084477Y8145500D01*
X5974877Y8145500D01*
X5974876Y8145500D01*
X5873617Y8103556D01*
X5796121Y8026060D01*
X5758486Y7935202D01*
X5754177Y7924800D01*
X100500Y7924800D01*
X100500Y8367716D01*
X7024500Y8367716D01*
X7024500Y8258116D01*
X7066443Y8156858D01*
X7143942Y8079359D01*
X7245200Y8037416D01*
X7245201Y8037416D01*
X7354799Y8037416D01*
X7354800Y8037416D01*
X7396768Y8054800D01*
X16974500Y8054800D01*
X16974500Y7945200D01*
X17016443Y7843942D01*
X17016444Y7843941D01*
X17016445Y7843940D01*
X17022706Y7837678D01*
X17056189Y7776354D01*
X17051202Y7706663D01*
X17022706Y7662322D01*
X17016444Y7656060D01*
X16992620Y7598544D01*
X16974500Y7554800D01*
X16974500Y7445200D01*
X17016443Y7343942D01*
X17016444Y7343941D01*
X17016445Y7343940D01*
X17022706Y7337678D01*
X17056189Y7276354D01*
X17051202Y7206663D01*
X17022706Y7162322D01*
X17016444Y7156060D01*
X16978809Y7065202D01*
X16974500Y7054800D01*
X16974500Y6945200D01*
X17016443Y6843942D01*
X17016444Y6843941D01*
X17016445Y6843940D01*
X17022706Y6837678D01*
X17056189Y6776354D01*
X17051202Y6706663D01*
X17022706Y6662322D01*
X17016444Y6656060D01*
X17016443Y6656059D01*
X17016443Y6656058D01*
X16974500Y6554800D01*
X16974500Y6445200D01*
X17016443Y6343942D01*
X17016444Y6343941D01*
X17016445Y6343940D01*
X17022706Y6337678D01*
X17056189Y6276354D01*
X17051202Y6206663D01*
X17022706Y6162322D01*
X17016444Y6156060D01*
X16986521Y6083820D01*
X16974500Y6054800D01*
X16974500Y5945200D01*
X17016443Y5843942D01*
X17093942Y5766443D01*
X17195200Y5724500D01*
X17195201Y5724500D01*
X17304799Y5724500D01*
X17304800Y5724500D01*
X17406058Y5766443D01*
X17483557Y5843942D01*
X17525500Y5945200D01*
X17525500Y6054800D01*
X17496505Y6124800D01*
X34234500Y6124800D01*
X34234500Y6015200D01*
X34276443Y5913942D01*
X34353942Y5836443D01*
X34455200Y5794500D01*
X34455201Y5794500D01*
X34564799Y5794500D01*
X34564800Y5794500D01*
X34666058Y5836443D01*
X34743557Y5913942D01*
X34785500Y6015200D01*
X34785500Y6124800D01*
X34743557Y6226058D01*
X34666058Y6303557D01*
X34564800Y6345500D01*
X34455200Y6345500D01*
X34455199Y6345500D01*
X34353940Y6303556D01*
X34276444Y6226060D01*
X34247448Y6156058D01*
X34234500Y6124800D01*
X17496505Y6124800D01*
X17483557Y6156058D01*
X17464379Y6175236D01*
X17455737Y6191326D01*
X17452153Y6208364D01*
X17443811Y6223642D01*
X17445112Y6241843D01*
X17441357Y6259700D01*
X17447553Y6275968D01*
X17448795Y6293334D01*
X17461983Y6313855D01*
X17466226Y6324994D01*
X17471772Y6329087D01*
X17477296Y6337681D01*
X17483557Y6343942D01*
X17525500Y6445200D01*
X17525500Y6554800D01*
X17483557Y6656058D01*
X17477296Y6662319D01*
X17443811Y6723642D01*
X17448795Y6793334D01*
X17477296Y6837681D01*
X17483557Y6843942D01*
X17525500Y6945200D01*
X17525500Y7054800D01*
X20304500Y7054800D01*
X20304500Y6945200D01*
X20346443Y6843942D01*
X20423942Y6766443D01*
X20525200Y6724500D01*
X20525201Y6724500D01*
X20527953Y6723360D01*
X20582357Y6679519D01*
X20604421Y6613224D01*
X20604500Y6608799D01*
X20604500Y6575200D01*
X20646443Y6473942D01*
X20723942Y6396443D01*
X20825200Y6354500D01*
X20825201Y6354500D01*
X20934799Y6354500D01*
X20934800Y6354500D01*
X21036058Y6396443D01*
X21113557Y6473942D01*
X21155500Y6575200D01*
X21155500Y6684800D01*
X21113557Y6786058D01*
X21036058Y6863557D01*
X21036057Y6863558D01*
X21036055Y6863559D01*
X20932046Y6906642D01*
X20877643Y6950483D01*
X20855579Y7016778D01*
X20855500Y7021202D01*
X20855500Y7054799D01*
X20855500Y7054800D01*
X20813557Y7156058D01*
X20736058Y7233557D01*
X20634800Y7275500D01*
X20525200Y7275500D01*
X20525199Y7275500D01*
X20423940Y7233556D01*
X20346444Y7156060D01*
X20308809Y7065202D01*
X20304500Y7054800D01*
X17525500Y7054800D01*
X17483557Y7156058D01*
X17461671Y7177944D01*
X17452406Y7198003D01*
X17450392Y7211589D01*
X17443811Y7223642D01*
X17445372Y7245470D01*
X17442164Y7267118D01*
X17447815Y7279635D01*
X17448795Y7293334D01*
X17466292Y7320560D01*
X17470915Y7330798D01*
X17474272Y7332977D01*
X17477296Y7337681D01*
X17483557Y7343942D01*
X17525500Y7445200D01*
X17525500Y7554800D01*
X22574500Y7554800D01*
X22574500Y7445200D01*
X22616443Y7343942D01*
X22693942Y7266443D01*
X22795200Y7224500D01*
X22795201Y7224500D01*
X22904799Y7224500D01*
X22904800Y7224500D01*
X23006058Y7266443D01*
X23083557Y7343942D01*
X23107381Y7401457D01*
X36859499Y7401457D01*
X36897947Y7208171D01*
X36897950Y7208161D01*
X36973364Y7026093D01*
X36973371Y7026080D01*
X37082860Y6862219D01*
X37082863Y6862215D01*
X37222214Y6722864D01*
X37222218Y6722861D01*
X37386079Y6613372D01*
X37386092Y6613365D01*
X37527485Y6554799D01*
X37568165Y6537949D01*
X37568169Y6537949D01*
X37568170Y6537948D01*
X37761456Y6499500D01*
X37761459Y6499500D01*
X37958543Y6499500D01*
X38088582Y6525368D01*
X38151835Y6537949D01*
X38292655Y6596279D01*
X38333907Y6613365D01*
X38333907Y6613366D01*
X38333914Y6613368D01*
X38497782Y6722861D01*
X38637139Y6862218D01*
X38746632Y7026086D01*
X38822051Y7208165D01*
X38841102Y7303941D01*
X38860500Y7401457D01*
X39399499Y7401457D01*
X39437947Y7208171D01*
X39437950Y7208161D01*
X39513364Y7026093D01*
X39513371Y7026080D01*
X39622860Y6862219D01*
X39622863Y6862215D01*
X39762214Y6722864D01*
X39762218Y6722861D01*
X39926079Y6613372D01*
X39926092Y6613365D01*
X40067485Y6554799D01*
X40108165Y6537949D01*
X40108169Y6537949D01*
X40108170Y6537948D01*
X40301456Y6499500D01*
X40301459Y6499500D01*
X40498543Y6499500D01*
X40628582Y6525368D01*
X40691835Y6537949D01*
X40832655Y6596279D01*
X40873907Y6613365D01*
X40873907Y6613366D01*
X40873914Y6613368D01*
X41037782Y6722861D01*
X41177139Y6862218D01*
X41286632Y7026086D01*
X41362051Y7208165D01*
X41381102Y7303941D01*
X41400500Y7401457D01*
X41400500Y7598544D01*
X41362052Y7791830D01*
X41362051Y7791831D01*
X41362051Y7791835D01*
X41344610Y7833942D01*
X41286635Y7973908D01*
X41286628Y7973921D01*
X41177139Y8137782D01*
X41177136Y8137786D01*
X41037785Y8277137D01*
X41037781Y8277140D01*
X40873920Y8386629D01*
X40873907Y8386636D01*
X40691839Y8462050D01*
X40691829Y8462053D01*
X40498543Y8500500D01*
X40498541Y8500500D01*
X40301459Y8500500D01*
X40301457Y8500500D01*
X40108170Y8462053D01*
X40108160Y8462050D01*
X39926092Y8386636D01*
X39926079Y8386629D01*
X39762218Y8277140D01*
X39762214Y8277137D01*
X39622863Y8137786D01*
X39622860Y8137782D01*
X39513371Y7973921D01*
X39513364Y7973908D01*
X39437950Y7791840D01*
X39437947Y7791830D01*
X39399500Y7598544D01*
X39399500Y7598541D01*
X39399500Y7401459D01*
X39399500Y7401457D01*
X39399499Y7401457D01*
X38860500Y7401457D01*
X38860500Y7598544D01*
X38822052Y7791830D01*
X38822051Y7791831D01*
X38822051Y7791835D01*
X38804610Y7833942D01*
X38746635Y7973908D01*
X38746628Y7973921D01*
X38637139Y8137782D01*
X38637136Y8137786D01*
X38497785Y8277137D01*
X38497781Y8277140D01*
X38333920Y8386629D01*
X38333907Y8386636D01*
X38151839Y8462050D01*
X38151829Y8462053D01*
X37958543Y8500500D01*
X37958541Y8500500D01*
X37761459Y8500500D01*
X37761457Y8500500D01*
X37568170Y8462053D01*
X37568160Y8462050D01*
X37386092Y8386636D01*
X37386079Y8386629D01*
X37222218Y8277140D01*
X37222214Y8277137D01*
X37082863Y8137786D01*
X37082860Y8137782D01*
X36973371Y7973921D01*
X36973364Y7973908D01*
X36897950Y7791840D01*
X36897947Y7791830D01*
X36859500Y7598544D01*
X36859500Y7598541D01*
X36859500Y7401459D01*
X36859500Y7401457D01*
X36859499Y7401457D01*
X23107381Y7401457D01*
X23125500Y7445200D01*
X23125500Y7554800D01*
X23083557Y7656058D01*
X23006058Y7733557D01*
X22904800Y7775500D01*
X22795200Y7775500D01*
X22795199Y7775500D01*
X22693940Y7733556D01*
X22616444Y7656060D01*
X22592620Y7598544D01*
X22574500Y7554800D01*
X17525500Y7554800D01*
X17483557Y7656058D01*
X17461671Y7677944D01*
X17452406Y7698003D01*
X17450392Y7711589D01*
X17443811Y7723642D01*
X17445372Y7745470D01*
X17442164Y7767118D01*
X17447815Y7779635D01*
X17448795Y7793334D01*
X17466292Y7820560D01*
X17470915Y7830798D01*
X17474272Y7832977D01*
X17477296Y7837681D01*
X17483557Y7843942D01*
X17525500Y7945200D01*
X17525500Y8044800D01*
X34674500Y8044800D01*
X34674500Y7935200D01*
X34716443Y7833942D01*
X34793942Y7756443D01*
X34895200Y7714500D01*
X34895201Y7714500D01*
X35004799Y7714500D01*
X35004800Y7714500D01*
X35106058Y7756443D01*
X35183557Y7833942D01*
X35225500Y7935200D01*
X35225500Y8044800D01*
X35183557Y8146058D01*
X35106058Y8223557D01*
X35004800Y8265500D01*
X34895200Y8265500D01*
X34895199Y8265500D01*
X34793940Y8223556D01*
X34716444Y8146060D01*
X34678642Y8054799D01*
X34674500Y8044800D01*
X17525500Y8044800D01*
X17525500Y8054800D01*
X17483557Y8156058D01*
X17406058Y8233557D01*
X17304800Y8275500D01*
X17195200Y8275500D01*
X17195199Y8275500D01*
X17093940Y8233556D01*
X17016444Y8156060D01*
X16984674Y8079361D01*
X16974500Y8054800D01*
X7396768Y8054800D01*
X7456058Y8079359D01*
X7533557Y8156858D01*
X7575500Y8258116D01*
X7575500Y8367716D01*
X7533557Y8468974D01*
X7456058Y8546473D01*
X7354800Y8588416D01*
X7245200Y8588416D01*
X7245199Y8588416D01*
X7143940Y8546472D01*
X7066444Y8468976D01*
X7066443Y8468975D01*
X7066443Y8468974D01*
X7024500Y8367716D01*
X100500Y8367716D01*
X100500Y8954800D01*
X33424500Y8954800D01*
X33424500Y8845200D01*
X33466443Y8743942D01*
X33543942Y8666443D01*
X33645200Y8624500D01*
X33645201Y8624500D01*
X33754799Y8624500D01*
X33754800Y8624500D01*
X33856058Y8666443D01*
X33933557Y8743942D01*
X33975500Y8845200D01*
X33975500Y8954800D01*
X33933557Y9056058D01*
X33856058Y9133557D01*
X33754800Y9175500D01*
X33645200Y9175500D01*
X33645199Y9175500D01*
X33543940Y9133556D01*
X33466444Y9056060D01*
X33466443Y9056059D01*
X33466443Y9056058D01*
X33424500Y8954800D01*
X100500Y8954800D01*
X100500Y9844800D01*
X10774500Y9844800D01*
X10774500Y9735200D01*
X10816443Y9633942D01*
X10893942Y9556443D01*
X10995200Y9514500D01*
X10995201Y9514500D01*
X11104799Y9514500D01*
X11104800Y9514500D01*
X11206058Y9556443D01*
X11283557Y9633942D01*
X11325500Y9735200D01*
X11325500Y9844800D01*
X11283557Y9946058D01*
X11206058Y10023557D01*
X11130632Y10054800D01*
X22584500Y10054800D01*
X22584500Y9945200D01*
X22626443Y9843942D01*
X22626444Y9843941D01*
X22626445Y9843940D01*
X22632706Y9837678D01*
X22666189Y9776354D01*
X22661202Y9706663D01*
X22632706Y9662322D01*
X22626444Y9656060D01*
X22585181Y9556443D01*
X22584500Y9554800D01*
X22584500Y9445200D01*
X22626443Y9343942D01*
X22703942Y9266443D01*
X22805200Y9224500D01*
X22805201Y9224500D01*
X22914799Y9224500D01*
X22914800Y9224500D01*
X23016058Y9266443D01*
X23093557Y9343942D01*
X23135500Y9445200D01*
X23135500Y9554800D01*
X23093557Y9656058D01*
X23087296Y9662319D01*
X23053811Y9723642D01*
X23058795Y9793334D01*
X23087296Y9837681D01*
X23093557Y9843942D01*
X23135500Y9945200D01*
X23135500Y10054800D01*
X27714500Y10054800D01*
X27714500Y9945200D01*
X27756443Y9843942D01*
X27833942Y9766443D01*
X27935200Y9724500D01*
X27935201Y9724500D01*
X28044799Y9724500D01*
X28044800Y9724500D01*
X28146058Y9766443D01*
X28223557Y9843942D01*
X28265500Y9945200D01*
X28265500Y10054800D01*
X28223557Y10156058D01*
X28146058Y10233557D01*
X28044800Y10275500D01*
X27935200Y10275500D01*
X27935199Y10275500D01*
X27833940Y10233556D01*
X27756444Y10156060D01*
X27756443Y10156059D01*
X27756443Y10156058D01*
X27714500Y10054800D01*
X23135500Y10054800D01*
X23093557Y10156058D01*
X23016058Y10233557D01*
X22914800Y10275500D01*
X22805200Y10275500D01*
X22805199Y10275500D01*
X22703940Y10233556D01*
X22626444Y10156060D01*
X22626443Y10156059D01*
X22626443Y10156058D01*
X22584500Y10054800D01*
X11130632Y10054800D01*
X11104800Y10065500D01*
X10995200Y10065500D01*
X10995199Y10065500D01*
X10893940Y10023556D01*
X10816444Y9946060D01*
X10816443Y9946059D01*
X10816443Y9946058D01*
X10774500Y9844800D01*
X100500Y9844800D01*
X100500Y10534800D01*
X26204500Y10534800D01*
X26204500Y10425200D01*
X26246443Y10323942D01*
X26323942Y10246443D01*
X26425200Y10204500D01*
X26425201Y10204500D01*
X26534799Y10204500D01*
X26534800Y10204500D01*
X26636058Y10246443D01*
X26713557Y10323942D01*
X26755500Y10425200D01*
X26755500Y10534800D01*
X26713557Y10636058D01*
X26636058Y10713557D01*
X26534800Y10755500D01*
X26425200Y10755500D01*
X26425199Y10755500D01*
X26353596Y10725841D01*
X26330910Y10716443D01*
X26323940Y10713556D01*
X26246444Y10636060D01*
X26246443Y10636059D01*
X26246443Y10636058D01*
X26204500Y10534800D01*
X100500Y10534800D01*
X100500Y10946144D01*
X5574500Y10946144D01*
X5574500Y10853856D01*
X5597381Y10768461D01*
X5598387Y10764710D01*
X5598388Y10764707D01*
X5644526Y10684795D01*
X5644529Y10684791D01*
X5644531Y10684788D01*
X5709788Y10619531D01*
X5709791Y10619530D01*
X5709794Y10619527D01*
X5789706Y10573389D01*
X5789707Y10573389D01*
X5789712Y10573386D01*
X5878856Y10549500D01*
X5878858Y10549500D01*
X5971142Y10549500D01*
X5971144Y10549500D01*
X6060288Y10573386D01*
X6140212Y10619531D01*
X6205469Y10684788D01*
X6218305Y10707022D01*
X6268870Y10755236D01*
X6337477Y10768461D01*
X6401180Y10743397D01*
X6406291Y10739475D01*
X6532785Y10666445D01*
X6543216Y10660423D01*
X6695943Y10619500D01*
X6695945Y10619500D01*
X6854055Y10619500D01*
X6854057Y10619500D01*
X7006784Y10660423D01*
X7143716Y10739480D01*
X7255520Y10851284D01*
X7334577Y10988216D01*
X7339021Y11004800D01*
X9804500Y11004800D01*
X9804500Y10895200D01*
X9846443Y10793942D01*
X9923942Y10716443D01*
X10025200Y10674500D01*
X10025201Y10674500D01*
X10134799Y10674500D01*
X10134800Y10674500D01*
X10236058Y10716443D01*
X10313557Y10793942D01*
X10355500Y10895200D01*
X10355500Y10954800D01*
X28624500Y10954800D01*
X28624500Y10845200D01*
X28666443Y10743942D01*
X28743942Y10666443D01*
X28845200Y10624500D01*
X28845201Y10624500D01*
X28954799Y10624500D01*
X28954800Y10624500D01*
X29056058Y10666443D01*
X29133557Y10743942D01*
X29175500Y10845200D01*
X29175500Y10954800D01*
X29133557Y11056058D01*
X29056058Y11133557D01*
X28954800Y11175500D01*
X28845200Y11175500D01*
X28845199Y11175500D01*
X28743940Y11133556D01*
X28666444Y11056060D01*
X28638342Y10988216D01*
X28624500Y10954800D01*
X10355500Y10954800D01*
X10355500Y11004800D01*
X10313557Y11106058D01*
X10236058Y11183557D01*
X10134800Y11225500D01*
X10025200Y11225500D01*
X10025199Y11225500D01*
X9923940Y11183556D01*
X9846444Y11106060D01*
X9817129Y11035288D01*
X9804500Y11004800D01*
X7339021Y11004800D01*
X7371923Y11127596D01*
X7408287Y11187253D01*
X7471133Y11217783D01*
X7491697Y11219500D01*
X7854055Y11219500D01*
X7854057Y11219500D01*
X8006784Y11260423D01*
X8143716Y11339480D01*
X8255520Y11451284D01*
X8257550Y11454800D01*
X30124500Y11454800D01*
X30124500Y11345200D01*
X30166443Y11243942D01*
X30243942Y11166443D01*
X30345200Y11124500D01*
X30345201Y11124500D01*
X30454799Y11124500D01*
X30454800Y11124500D01*
X30556058Y11166443D01*
X30633557Y11243942D01*
X30675500Y11345200D01*
X30675500Y11454800D01*
X30633557Y11556058D01*
X30556058Y11633557D01*
X30454800Y11675500D01*
X30345200Y11675500D01*
X30345199Y11675500D01*
X30243940Y11633556D01*
X30166444Y11556060D01*
X30138214Y11487907D01*
X30124500Y11454800D01*
X8257550Y11454800D01*
X8276668Y11487914D01*
X8300397Y11529013D01*
X8316012Y11556060D01*
X8334577Y11588216D01*
X8375500Y11740943D01*
X8375500Y11899057D01*
X8339128Y12034800D01*
X33484500Y12034800D01*
X33484500Y11925200D01*
X33526443Y11823942D01*
X33603942Y11746443D01*
X33705200Y11704500D01*
X33705201Y11704500D01*
X33814799Y11704500D01*
X33814800Y11704500D01*
X33916058Y11746443D01*
X33993557Y11823942D01*
X34035500Y11925200D01*
X34035500Y12034800D01*
X33993557Y12136058D01*
X33916058Y12213557D01*
X33814800Y12255500D01*
X33705200Y12255500D01*
X33705199Y12255500D01*
X33633596Y12225841D01*
X33607651Y12215093D01*
X33603940Y12213556D01*
X33526444Y12136060D01*
X33526443Y12136059D01*
X33526443Y12136058D01*
X33484500Y12034800D01*
X8339128Y12034800D01*
X8334577Y12051784D01*
X8315688Y12084501D01*
X8255524Y12188710D01*
X8255518Y12188718D01*
X8143717Y12300519D01*
X8143712Y12300523D01*
X8110626Y12319625D01*
X8110625Y12319625D01*
X8006784Y12379577D01*
X7875333Y12414799D01*
X7875329Y12414800D01*
X18884500Y12414800D01*
X18884500Y12305200D01*
X18926443Y12203942D01*
X19003942Y12126443D01*
X19105200Y12084500D01*
X19105201Y12084500D01*
X19214799Y12084500D01*
X19214800Y12084500D01*
X19316058Y12126443D01*
X19393557Y12203942D01*
X19435500Y12305200D01*
X19435500Y12414800D01*
X19393557Y12516058D01*
X19316058Y12593557D01*
X19214800Y12635500D01*
X19105200Y12635500D01*
X19105199Y12635500D01*
X19003940Y12593556D01*
X18926444Y12516060D01*
X18926443Y12516059D01*
X18926443Y12516058D01*
X18884500Y12414800D01*
X7875329Y12414800D01*
X7854057Y12420500D01*
X6854057Y12420500D01*
X6695943Y12420500D01*
X6543216Y12379577D01*
X6543209Y12379574D01*
X6406290Y12300525D01*
X6406282Y12300519D01*
X6294481Y12188718D01*
X6294475Y12188710D01*
X6215426Y12051791D01*
X6215423Y12051784D01*
X6174500Y11899057D01*
X6174500Y11357611D01*
X6154815Y11290572D01*
X6102011Y11244817D01*
X6032853Y11234873D01*
X6018407Y11237836D01*
X6011052Y11239807D01*
X5971144Y11250500D01*
X5878856Y11250500D01*
X5789712Y11226614D01*
X5789711Y11226614D01*
X5789709Y11226613D01*
X5789706Y11226612D01*
X5709794Y11180474D01*
X5709785Y11180467D01*
X5644533Y11115215D01*
X5644526Y11115206D01*
X5598388Y11035294D01*
X5598387Y11035291D01*
X5598386Y11035289D01*
X5598386Y11035288D01*
X5574500Y10946144D01*
X100500Y10946144D01*
X100500Y11899057D01*
X1474500Y11899057D01*
X1474500Y11740943D01*
X1507457Y11617948D01*
X1515423Y11588217D01*
X1515426Y11588210D01*
X1594475Y11451291D01*
X1594479Y11451286D01*
X1594480Y11451284D01*
X1706284Y11339480D01*
X1706286Y11339479D01*
X1706290Y11339476D01*
X1790996Y11290572D01*
X1843216Y11260423D01*
X1995943Y11219500D01*
X1995945Y11219500D01*
X3454055Y11219500D01*
X3454057Y11219500D01*
X3606784Y11260423D01*
X3743716Y11339480D01*
X3855520Y11451284D01*
X3934577Y11588216D01*
X3975500Y11740943D01*
X3975500Y11899057D01*
X3934577Y12051784D01*
X3915688Y12084501D01*
X3855524Y12188710D01*
X3855518Y12188718D01*
X3743717Y12300519D01*
X3743709Y12300525D01*
X3606790Y12379574D01*
X3606786Y12379576D01*
X3606784Y12379577D01*
X3454057Y12420500D01*
X1995943Y12420500D01*
X1843216Y12379577D01*
X1843209Y12379574D01*
X1706290Y12300525D01*
X1706282Y12300519D01*
X1594481Y12188718D01*
X1594475Y12188710D01*
X1515426Y12051791D01*
X1515423Y12051784D01*
X1474500Y11899057D01*
X100500Y11899057D01*
X100500Y13779800D01*
X15174500Y13779800D01*
X15174500Y13670200D01*
X15216443Y13568942D01*
X15293942Y13491443D01*
X15395200Y13449500D01*
X15395201Y13449500D01*
X15504799Y13449500D01*
X15504800Y13449500D01*
X15606058Y13491443D01*
X15683557Y13568942D01*
X15725500Y13670200D01*
X15725500Y13779800D01*
X15719287Y13794800D01*
X18324500Y13794800D01*
X18324500Y13685200D01*
X18366443Y13583942D01*
X18443942Y13506443D01*
X18545200Y13464500D01*
X18545201Y13464500D01*
X18654799Y13464500D01*
X18654800Y13464500D01*
X18686976Y13477828D01*
X18703956Y13484861D01*
X18773425Y13492331D01*
X18835905Y13461057D01*
X18871558Y13400969D01*
X18869065Y13331143D01*
X18865971Y13322848D01*
X18829500Y13234803D01*
X18829500Y13234800D01*
X18829500Y13125200D01*
X18871443Y13023942D01*
X18948942Y12946443D01*
X19050200Y12904500D01*
X19050201Y12904500D01*
X19159799Y12904500D01*
X19159800Y12904500D01*
X19261058Y12946443D01*
X19338557Y13023942D01*
X19380500Y13125200D01*
X19380500Y13234800D01*
X19359789Y13284800D01*
X25024500Y13284800D01*
X25024500Y13175200D01*
X25066443Y13073942D01*
X25143942Y12996443D01*
X25245200Y12954500D01*
X25245201Y12954500D01*
X25354799Y12954500D01*
X25354800Y12954500D01*
X25456058Y12996443D01*
X25533557Y13073942D01*
X25575500Y13175200D01*
X25575500Y13284800D01*
X25533557Y13386058D01*
X25456058Y13463557D01*
X25421564Y13477845D01*
X36510000Y13477845D01*
X36510000Y12830000D01*
X37426988Y12830000D01*
X37394075Y12772993D01*
X37360000Y12645826D01*
X37360000Y12514174D01*
X37394075Y12387007D01*
X37426988Y12330000D01*
X36510000Y12330000D01*
X36510000Y11682156D01*
X36516401Y11622628D01*
X36516403Y11622621D01*
X36566645Y11487914D01*
X36566649Y11487907D01*
X36652809Y11372813D01*
X36652812Y11372810D01*
X36767906Y11286650D01*
X36767913Y11286646D01*
X36902620Y11236404D01*
X36902627Y11236402D01*
X36962155Y11230001D01*
X36962172Y11230000D01*
X37495092Y11230000D01*
X37562131Y11210315D01*
X37607886Y11157511D01*
X37617830Y11088353D01*
X37588805Y11024797D01*
X37542544Y10991439D01*
X37386092Y10926636D01*
X37386079Y10926629D01*
X37222218Y10817140D01*
X37222214Y10817137D01*
X37082863Y10677786D01*
X37082860Y10677782D01*
X36973371Y10513921D01*
X36973364Y10513908D01*
X36897950Y10331840D01*
X36897947Y10331830D01*
X36859500Y10138544D01*
X36859500Y10138541D01*
X36859500Y9941459D01*
X36859500Y9941457D01*
X36859499Y9941457D01*
X36897947Y9748171D01*
X36897950Y9748161D01*
X36973364Y9566093D01*
X36973371Y9566080D01*
X37082860Y9402219D01*
X37082863Y9402215D01*
X37222214Y9262864D01*
X37222218Y9262861D01*
X37386079Y9153372D01*
X37386092Y9153365D01*
X37568160Y9077951D01*
X37568165Y9077949D01*
X37568169Y9077949D01*
X37568170Y9077948D01*
X37761456Y9039500D01*
X37761459Y9039500D01*
X37958543Y9039500D01*
X38088582Y9065368D01*
X38151835Y9077949D01*
X38333914Y9153368D01*
X38497782Y9262861D01*
X38637139Y9402218D01*
X38746632Y9566086D01*
X38822051Y9748165D01*
X38834632Y9811418D01*
X38860500Y9941457D01*
X39399499Y9941457D01*
X39437947Y9748171D01*
X39437950Y9748161D01*
X39513364Y9566093D01*
X39513371Y9566080D01*
X39622860Y9402219D01*
X39622863Y9402215D01*
X39762214Y9262864D01*
X39762218Y9262861D01*
X39926079Y9153372D01*
X39926092Y9153365D01*
X40108160Y9077951D01*
X40108165Y9077949D01*
X40108169Y9077949D01*
X40108170Y9077948D01*
X40301456Y9039500D01*
X40301459Y9039500D01*
X40498543Y9039500D01*
X40628582Y9065368D01*
X40691835Y9077949D01*
X40873914Y9153368D01*
X41037782Y9262861D01*
X41177139Y9402218D01*
X41286632Y9566086D01*
X41362051Y9748165D01*
X41374632Y9811418D01*
X41400500Y9941457D01*
X41400500Y10138544D01*
X41362052Y10331830D01*
X41362051Y10331831D01*
X41362051Y10331835D01*
X41362049Y10331840D01*
X41286635Y10513908D01*
X41286628Y10513921D01*
X41177139Y10677782D01*
X41177136Y10677786D01*
X41037785Y10817137D01*
X41037781Y10817140D01*
X40873920Y10926629D01*
X40873907Y10926636D01*
X40691839Y11002050D01*
X40691829Y11002053D01*
X40498543Y11040500D01*
X40498541Y11040500D01*
X40301459Y11040500D01*
X40301457Y11040500D01*
X40108170Y11002053D01*
X40108160Y11002050D01*
X39926092Y10926636D01*
X39926079Y10926629D01*
X39762218Y10817140D01*
X39762214Y10817137D01*
X39622863Y10677786D01*
X39622860Y10677782D01*
X39513371Y10513921D01*
X39513364Y10513908D01*
X39437950Y10331840D01*
X39437947Y10331830D01*
X39399500Y10138544D01*
X39399500Y10138541D01*
X39399500Y9941459D01*
X39399500Y9941457D01*
X39399499Y9941457D01*
X38860500Y9941457D01*
X38860500Y10138544D01*
X38822052Y10331830D01*
X38822051Y10331831D01*
X38822051Y10331835D01*
X38822049Y10331840D01*
X38746635Y10513908D01*
X38746628Y10513921D01*
X38637139Y10677782D01*
X38637136Y10677786D01*
X38497785Y10817137D01*
X38497781Y10817140D01*
X38333920Y10926629D01*
X38333907Y10926636D01*
X38177456Y10991439D01*
X38123052Y11035280D01*
X38100987Y11101574D01*
X38118266Y11169273D01*
X38169403Y11216884D01*
X38224908Y11230000D01*
X38757828Y11230000D01*
X38757844Y11230001D01*
X38817372Y11236402D01*
X38817379Y11236404D01*
X38952086Y11286646D01*
X38952093Y11286650D01*
X39067187Y11372810D01*
X39067190Y11372813D01*
X39153350Y11487907D01*
X39153354Y11487914D01*
X39203596Y11622621D01*
X39203598Y11622628D01*
X39209999Y11682156D01*
X39210000Y11682173D01*
X39210000Y12215093D01*
X39229685Y12282132D01*
X39282489Y12327887D01*
X39351647Y12337831D01*
X39415203Y12308806D01*
X39448561Y12262545D01*
X39513364Y12106093D01*
X39513371Y12106080D01*
X39622860Y11942219D01*
X39622863Y11942215D01*
X39762214Y11802864D01*
X39762218Y11802861D01*
X39926079Y11693372D01*
X39926092Y11693365D01*
X40108160Y11617951D01*
X40108165Y11617949D01*
X40108169Y11617949D01*
X40108170Y11617948D01*
X40301456Y11579500D01*
X40301459Y11579500D01*
X40498543Y11579500D01*
X40628582Y11605368D01*
X40691835Y11617949D01*
X40873914Y11693368D01*
X41037782Y11802861D01*
X41177139Y11942218D01*
X41286632Y12106086D01*
X41362051Y12288165D01*
X41381712Y12387007D01*
X41400500Y12481457D01*
X41400500Y12678544D01*
X41362052Y12871830D01*
X41362051Y12871831D01*
X41362051Y12871835D01*
X41348521Y12904500D01*
X41286635Y13053908D01*
X41286628Y13053921D01*
X41177139Y13217782D01*
X41177136Y13217786D01*
X41037785Y13357137D01*
X41037781Y13357140D01*
X40873920Y13466629D01*
X40873907Y13466636D01*
X40691839Y13542050D01*
X40691829Y13542053D01*
X40498543Y13580500D01*
X40498541Y13580500D01*
X40301459Y13580500D01*
X40301457Y13580500D01*
X40108170Y13542053D01*
X40108160Y13542050D01*
X39926092Y13466636D01*
X39926079Y13466629D01*
X39762218Y13357140D01*
X39762214Y13357137D01*
X39622863Y13217786D01*
X39622860Y13217782D01*
X39513371Y13053921D01*
X39513364Y13053908D01*
X39448561Y12897456D01*
X39404720Y12843052D01*
X39338426Y12820987D01*
X39270727Y12838266D01*
X39223116Y12889403D01*
X39210000Y12944908D01*
X39210000Y13477828D01*
X39209999Y13477845D01*
X39203598Y13537373D01*
X39203596Y13537380D01*
X39153354Y13672087D01*
X39153350Y13672094D01*
X39067190Y13787188D01*
X39067187Y13787191D01*
X38952093Y13873351D01*
X38952086Y13873355D01*
X38817379Y13923597D01*
X38817372Y13923599D01*
X38757844Y13930000D01*
X38110000Y13930000D01*
X38110000Y13013012D01*
X38052993Y13045925D01*
X37925826Y13080000D01*
X37794174Y13080000D01*
X37667007Y13045925D01*
X37610000Y13013012D01*
X37610000Y13930000D01*
X36962155Y13930000D01*
X36902627Y13923599D01*
X36902620Y13923597D01*
X36767913Y13873355D01*
X36767906Y13873351D01*
X36652812Y13787191D01*
X36652809Y13787188D01*
X36566649Y13672094D01*
X36566645Y13672087D01*
X36516403Y13537380D01*
X36516401Y13537373D01*
X36510000Y13477845D01*
X25421564Y13477845D01*
X25354800Y13505500D01*
X25245200Y13505500D01*
X25245199Y13505500D01*
X25178436Y13477845D01*
X25146224Y13464502D01*
X25143940Y13463556D01*
X25066444Y13386060D01*
X25066443Y13386059D01*
X25066443Y13386058D01*
X25024500Y13284800D01*
X19359789Y13284800D01*
X19338557Y13336058D01*
X19261058Y13413557D01*
X19159800Y13455500D01*
X19050200Y13455500D01*
X19050199Y13455500D01*
X19050194Y13455499D01*
X19001041Y13435139D01*
X18931572Y13427670D01*
X18869093Y13458946D01*
X18833441Y13519035D01*
X18835935Y13588860D01*
X18839019Y13597129D01*
X18875500Y13685200D01*
X18875500Y13794800D01*
X18833557Y13896058D01*
X18756058Y13973557D01*
X18654800Y14015500D01*
X18545200Y14015500D01*
X18545199Y14015500D01*
X18443940Y13973556D01*
X18366444Y13896060D01*
X18366443Y13896059D01*
X18366443Y13896058D01*
X18324500Y13794800D01*
X15719287Y13794800D01*
X15683557Y13881058D01*
X15606058Y13958557D01*
X15504800Y14000500D01*
X15395200Y14000500D01*
X15395199Y14000500D01*
X15293940Y13958556D01*
X15216444Y13881060D01*
X15180714Y13794801D01*
X15174500Y13779800D01*
X100500Y13779800D01*
X100500Y13993908D01*
X101097Y14006062D01*
X109983Y14096281D01*
X116587Y14163338D01*
X121326Y14187162D01*
X165428Y14332549D01*
X174722Y14354986D01*
X246340Y14488973D01*
X259835Y14509170D01*
X356213Y14626608D01*
X373392Y14643787D01*
X490830Y14740165D01*
X511027Y14753660D01*
X645014Y14825278D01*
X667451Y14834572D01*
X812838Y14878674D01*
X836662Y14883413D01*
X993939Y14898903D01*
X1006093Y14899500D01*
X1026929Y14899500D01*
X43973071Y14899500D01*
X43993907Y14899500D01*
X44006061Y14898903D01*
G37*
%TD.AperFunction*%
%TD*%
M02*
