%TF.GenerationSoftware,KiCad,Pcbnew,9.0.6-9.0.6~ubuntu24.04.1*%
%TF.CreationDate,2025-12-14T03:47:06+08:00*%
%TF.ProjectId,demo,64656d6f-2e6b-4696-9361-645f70636258,V1.0.1*%
%TF.SameCoordinates,PX632ea00PY5f5e100*%
%TF.FileFunction,Copper,L1,Top*%
%TF.FilePolarity,Positive*%
%FSLAX46Y46*%
G04 Gerber Fmt 4.6, Leading zero omitted, Abs format (unit mm)*
G04 Created by KiCad (PCBNEW 9.0.6-9.0.6~ubuntu24.04.1) date 2025-12-14 03:47:06*
%MOMM*%
%LPD*%
G01*
G04 APERTURE LIST*
G04 Aperture macros list*
%AMRoundRect*
0 Rectangle with rounded corners*
0 $1 Rounding radius*
0 $2 $3 $4 $5 $6 $7 $8 $9 X,Y pos of 4 corners*
0 Add a 4 corners polygon primitive as box body*
4,1,4,$2,$3,$4,$5,$6,$7,$8,$9,$2,$3,0*
0 Add four circle primitives for the rounded corners*
1,1,$1+$1,$2,$3*
1,1,$1+$1,$4,$5*
1,1,$1+$1,$6,$7*
1,1,$1+$1,$8,$9*
0 Add four rect primitives between the rounded corners*
20,1,$1+$1,$2,$3,$4,$5,0*
20,1,$1+$1,$4,$5,$6,$7,0*
20,1,$1+$1,$6,$7,$8,$9,0*
20,1,$1+$1,$8,$9,$2,$3,0*%
G04 Aperture macros list end*
%TA.AperFunction,SMDPad,CuDef*%
%ADD10R,3.400000X1.270000*%
%TD*%
%TA.AperFunction,SMDPad,CuDef*%
%ADD11RoundRect,0.147500X-0.147500X-0.172500X0.147500X-0.172500X0.147500X0.172500X-0.147500X0.172500X0*%
%TD*%
%TA.AperFunction,ComponentPad*%
%ADD12R,1.000000X1.000000*%
%TD*%
%TA.AperFunction,ComponentPad*%
%ADD13C,1.000000*%
%TD*%
%TA.AperFunction,SMDPad,CuDef*%
%ADD14RoundRect,0.135000X-0.135000X-0.185000X0.135000X-0.185000X0.135000X0.185000X-0.135000X0.185000X0*%
%TD*%
%TA.AperFunction,SMDPad,CuDef*%
%ADD15RoundRect,0.140000X-0.140000X-0.170000X0.140000X-0.170000X0.140000X0.170000X-0.140000X0.170000X0*%
%TD*%
%TA.AperFunction,SMDPad,CuDef*%
%ADD16RoundRect,0.075000X0.662500X0.075000X-0.662500X0.075000X-0.662500X-0.075000X0.662500X-0.075000X0*%
%TD*%
%TA.AperFunction,SMDPad,CuDef*%
%ADD17RoundRect,0.075000X0.075000X0.662500X-0.075000X0.662500X-0.075000X-0.662500X0.075000X-0.662500X0*%
%TD*%
%TA.AperFunction,SMDPad,CuDef*%
%ADD18RoundRect,0.147500X0.147500X0.172500X-0.147500X0.172500X-0.147500X-0.172500X0.147500X-0.172500X0*%
%TD*%
%TA.AperFunction,SMDPad,CuDef*%
%ADD19RoundRect,0.135000X0.135000X0.185000X-0.135000X0.185000X-0.135000X-0.185000X0.135000X-0.185000X0*%
%TD*%
%TA.AperFunction,SMDPad,CuDef*%
%ADD20RoundRect,0.150000X0.587500X0.150000X-0.587500X0.150000X-0.587500X-0.150000X0.587500X-0.150000X0*%
%TD*%
%TA.AperFunction,SMDPad,CuDef*%
%ADD21RoundRect,0.140000X-0.170000X0.140000X-0.170000X-0.140000X0.170000X-0.140000X0.170000X0.140000X0*%
%TD*%
%TA.AperFunction,SMDPad,CuDef*%
%ADD22RoundRect,0.140000X0.140000X0.170000X-0.140000X0.170000X-0.140000X-0.170000X0.140000X-0.170000X0*%
%TD*%
%TA.AperFunction,SMDPad,CuDef*%
%ADD23RoundRect,0.150000X0.512500X0.150000X-0.512500X0.150000X-0.512500X-0.150000X0.512500X-0.150000X0*%
%TD*%
%TA.AperFunction,SMDPad,CuDef*%
%ADD24RoundRect,0.150000X-0.425000X0.150000X-0.425000X-0.150000X0.425000X-0.150000X0.425000X0.150000X0*%
%TD*%
%TA.AperFunction,SMDPad,CuDef*%
%ADD25RoundRect,0.075000X-0.500000X0.075000X-0.500000X-0.075000X0.500000X-0.075000X0.500000X0.075000X0*%
%TD*%
%TA.AperFunction,HeatsinkPad*%
%ADD26O,2.100000X1.000000*%
%TD*%
%TA.AperFunction,HeatsinkPad*%
%ADD27O,1.800000X1.000000*%
%TD*%
%TA.AperFunction,SMDPad,CuDef*%
%ADD28RoundRect,0.250000X0.450000X0.350000X-0.450000X0.350000X-0.450000X-0.350000X0.450000X-0.350000X0*%
%TD*%
%TA.AperFunction,ViaPad*%
%ADD29C,0.500000*%
%TD*%
%TA.AperFunction,Conductor*%
%ADD30C,0.300000*%
%TD*%
%TA.AperFunction,Conductor*%
%ADD31C,0.100000*%
%TD*%
%TA.AperFunction,Conductor*%
%ADD32C,0.200000*%
%TD*%
G04 APERTURE END LIST*
D10*
%TO.P,J2,1,Pin_1*%
%TO.N,+3V3*%
X12900000Y5080000D03*
%TO.P,J2,3,Pin_3*%
%TO.N,GND*%
X12900000Y2540000D03*
%TO.P,J2,5,Pin_5*%
X12900000Y0D03*
%TO.P,J2,7,Pin_7*%
%TO.N,/T_Rx*%
X12900000Y-2540000D03*
%TO.P,J2,9,Pin_9*%
%TO.N,GND*%
X12900000Y-5080000D03*
%TD*%
D11*
%TO.P,D1,1,K*%
%TO.N,GND*%
X-10212500Y2270000D03*
%TO.P,D1,2,A*%
%TO.N,Net-(D1-A)*%
X-9242500Y2270000D03*
%TD*%
D12*
%TO.P,J3,1,Pin_1*%
%TO.N,+3V3*%
X-9520000Y-5300000D03*
D13*
%TO.P,J3,2,Pin_2*%
%TO.N,/STM_JTMS*%
X-8250000Y-5300000D03*
%TO.P,J3,3,Pin_3*%
%TO.N,/STM_JTCK*%
X-6980000Y-5300000D03*
%TO.P,J3,4,Pin_4*%
%TO.N,GND*%
X-5710000Y-5300000D03*
%TD*%
D14*
%TO.P,R16,1*%
%TO.N,Net-(U2-PB12)*%
X-6460000Y1330000D03*
%TO.P,R16,2*%
%TO.N,/T_JTMS*%
X-5440000Y1330000D03*
%TD*%
D15*
%TO.P,C8,1*%
%TO.N,GND*%
X9040000Y-2400000D03*
%TO.P,C8,2*%
%TO.N,Net-(U2-PD0)*%
X10000000Y-2400000D03*
%TD*%
D16*
%TO.P,U2,1,VBAT*%
%TO.N,+3V3*%
X4692500Y-2060000D03*
%TO.P,U2,2,PC13*%
%TO.N,Net-(U2-PC13)*%
X4692500Y-1560000D03*
%TO.P,U2,3,PC14*%
%TO.N,Net-(U2-PC14)*%
X4692500Y-1060000D03*
%TO.P,U2,4,PC15*%
%TO.N,unconnected-(U2-PC15-Pad4)*%
X4692500Y-559999D03*
%TO.P,U2,5,PD0*%
%TO.N,Net-(U2-PD0)*%
X4692500Y-60000D03*
%TO.P,U2,6,PD1*%
%TO.N,Net-(U2-PD1)*%
X4692500Y440000D03*
%TO.P,U2,7,NRST*%
%TO.N,/NRST*%
X4692500Y940000D03*
%TO.P,U2,8,VSSA*%
%TO.N,GND*%
X4692500Y1440000D03*
%TO.P,U2,9,VDDA*%
%TO.N,+3V3*%
X4692500Y1939999D03*
%TO.P,U2,10,PA0*%
%TO.N,Net-(U2-PA0)*%
X4692500Y2440000D03*
%TO.P,U2,11,PA1*%
%TO.N,unconnected-(U2-PA1-Pad11)*%
X4692500Y2940000D03*
%TO.P,U2,12,PA2*%
%TO.N,/T_Tx*%
X4692500Y3440000D03*
D17*
%TO.P,U2,13,PA3*%
%TO.N,/T_Rx*%
X3280000Y4852500D03*
%TO.P,U2,14,PA4*%
%TO.N,unconnected-(U2-PA4-Pad14)*%
X2780000Y4852500D03*
%TO.P,U2,15,PA5*%
%TO.N,/T_JTCK*%
X2280000Y4852500D03*
%TO.P,U2,16,PA6*%
%TO.N,unconnected-(U2-PA6-Pad16)*%
X1779999Y4852500D03*
%TO.P,U2,17,PA7*%
%TO.N,unconnected-(U2-PA7-Pad17)*%
X1280000Y4852500D03*
%TO.P,U2,18,PB0*%
%TO.N,/T_NRST*%
X780000Y4852500D03*
%TO.P,U2,19,PB1*%
%TO.N,unconnected-(U2-PB1-Pad19)*%
X280000Y4852500D03*
%TO.P,U2,20,PB2*%
%TO.N,Net-(U2-PB2)*%
X-220000Y4852500D03*
%TO.P,U2,21,PB10*%
%TO.N,unconnected-(U2-PB10-Pad21)*%
X-719999Y4852500D03*
%TO.P,U2,22,PB11*%
%TO.N,unconnected-(U2-PB11-Pad22)*%
X-1220000Y4852500D03*
%TO.P,U2,23,VSS*%
%TO.N,GND*%
X-1720000Y4852500D03*
%TO.P,U2,24,VDD*%
%TO.N,+3V3*%
X-2220000Y4852500D03*
D16*
%TO.P,U2,25,PB12*%
%TO.N,Net-(U2-PB12)*%
X-3632500Y3440000D03*
%TO.P,U2,26,PB13*%
%TO.N,/T_JTCK*%
X-3632500Y2940000D03*
%TO.P,U2,27,PB14*%
%TO.N,/T_JTMS*%
X-3632500Y2440000D03*
%TO.P,U2,28,PB15*%
%TO.N,unconnected-(U2-PB15-Pad28)*%
X-3632500Y1939999D03*
%TO.P,U2,29,PA8*%
%TO.N,unconnected-(U2-PA8-Pad29)*%
X-3632500Y1440000D03*
%TO.P,U2,30,PA9*%
%TO.N,/LED_STLINK*%
X-3632500Y940000D03*
%TO.P,U2,31,PA10*%
%TO.N,/T_SWO*%
X-3632500Y440000D03*
%TO.P,U2,32,PA11*%
%TO.N,/DM-*%
X-3632500Y-60000D03*
%TO.P,U2,33,PA12*%
%TO.N,/DP+*%
X-3632500Y-559999D03*
%TO.P,U2,34,PA13*%
%TO.N,/STM_JTMS*%
X-3632500Y-1060000D03*
%TO.P,U2,35,VSS*%
%TO.N,GND*%
X-3632500Y-1560000D03*
%TO.P,U2,36,VDD*%
%TO.N,+3V3*%
X-3632500Y-2060000D03*
D17*
%TO.P,U2,37,PA14*%
%TO.N,/STM_JTCK*%
X-2220000Y-3472500D03*
%TO.P,U2,38,PA15*%
%TO.N,/RENUM*%
X-1720000Y-3472500D03*
%TO.P,U2,39,PB3*%
%TO.N,unconnected-(U2-PB3-Pad39)*%
X-1220000Y-3472500D03*
%TO.P,U2,40,PB4*%
%TO.N,unconnected-(U2-PB4-Pad40)*%
X-719999Y-3472500D03*
%TO.P,U2,41,PB5*%
%TO.N,unconnected-(U2-PB5-Pad41)*%
X-220000Y-3472500D03*
%TO.P,U2,42,PB6*%
%TO.N,unconnected-(U2-PB6-Pad42)*%
X280000Y-3472500D03*
%TO.P,U2,43,PB7*%
%TO.N,unconnected-(U2-PB7-Pad43)*%
X780000Y-3472500D03*
%TO.P,U2,44,BOOT0*%
%TO.N,/BOOT0*%
X1280000Y-3472500D03*
%TO.P,U2,45,PB8*%
%TO.N,unconnected-(U2-PB8-Pad45)*%
X1779999Y-3472500D03*
%TO.P,U2,46,PB9*%
%TO.N,unconnected-(U2-PB9-Pad46)*%
X2280000Y-3472500D03*
%TO.P,U2,47,VSS*%
%TO.N,GND*%
X2780000Y-3472500D03*
%TO.P,U2,48,VDD*%
%TO.N,+3V3*%
X3280000Y-3472500D03*
%TD*%
D18*
%TO.P,D2,1,K*%
%TO.N,Net-(D2-K)*%
X-9242500Y1310000D03*
%TO.P,D2,2,A*%
%TO.N,+3V3*%
X-10212500Y1310000D03*
%TD*%
D19*
%TO.P,R14,1*%
%TO.N,+3V3*%
X7650000Y3020000D03*
%TO.P,R14,2*%
%TO.N,/NRST*%
X6630000Y3020000D03*
%TD*%
D20*
%TO.P,Q1,1,B*%
%TO.N,Net-(Q1-B)*%
X-5902500Y-2580000D03*
%TO.P,Q1,2,E*%
%TO.N,Net-(Q1-E)*%
X-5902500Y-750000D03*
%TO.P,Q1,3,C*%
%TO.N,+3V3*%
X-7777500Y-1630000D03*
%TD*%
D15*
%TO.P,C9,1*%
%TO.N,GND*%
X9040000Y2060000D03*
%TO.P,C9,2*%
%TO.N,Net-(U2-PD1)*%
X10000000Y2060000D03*
%TD*%
D19*
%TO.P,R3,1*%
%TO.N,/DP+*%
X-9212500Y-610000D03*
%TO.P,R3,2*%
%TO.N,Net-(J1-D+-PadA6)*%
X-10232500Y-570000D03*
%TD*%
%TO.P,R1,1*%
%TO.N,GND*%
X-9212500Y-2510000D03*
%TO.P,R1,2*%
%TO.N,Net-(J1-CC1)*%
X-10232500Y-2570000D03*
%TD*%
D21*
%TO.P,C2,1*%
%TO.N,+3V3*%
X-10020000Y5460000D03*
%TO.P,C2,2*%
%TO.N,GND*%
X-10020000Y4500000D03*
%TD*%
D14*
%TO.P,R15,1*%
%TO.N,GND*%
X-370000Y-5280000D03*
%TO.P,R15,2*%
%TO.N,/BOOT0*%
X650000Y-5280000D03*
%TD*%
D19*
%TO.P,R17,1*%
%TO.N,GND*%
X7690000Y-3340000D03*
%TO.P,R17,2*%
%TO.N,Net-(U2-PC13)*%
X6670000Y-3340000D03*
%TD*%
D14*
%TO.P,R5,1*%
%TO.N,+5V*%
X-6470000Y2290000D03*
%TO.P,R5,2*%
%TO.N,Net-(Q1-B)*%
X-5470000Y2290000D03*
%TD*%
D19*
%TO.P,R4,1*%
%TO.N,Net-(Q1-E)*%
X-9212500Y-1570000D03*
%TO.P,R4,2*%
%TO.N,/DP+*%
X-10232500Y-1570000D03*
%TD*%
%TO.P,R2,1*%
%TO.N,/DM-*%
X-9212500Y350000D03*
%TO.P,R2,2*%
%TO.N,Net-(J1-D--PadA7)*%
X-10232500Y350000D03*
%TD*%
%TO.P,R21,1*%
%TO.N,GND*%
X7650000Y4940000D03*
%TO.P,R21,2*%
%TO.N,Net-(U2-PA0)*%
X6630000Y4940000D03*
%TD*%
%TO.P,R10,1*%
%TO.N,Net-(J2-Pin_2)*%
X10070000Y5000000D03*
%TO.P,R10,2*%
%TO.N,/T_JTMS*%
X9050000Y5000000D03*
%TD*%
D14*
%TO.P,R7,1*%
%TO.N,Net-(Q1-B)*%
X-2260000Y-5270000D03*
%TO.P,R7,2*%
%TO.N,/RENUM*%
X-1240000Y-5270000D03*
%TD*%
D19*
%TO.P,R18,1*%
%TO.N,GND*%
X7690000Y-2400000D03*
%TO.P,R18,2*%
%TO.N,Net-(U2-PC14)*%
X6670000Y-2400000D03*
%TD*%
%TO.P,R6,1*%
%TO.N,Net-(Q1-B)*%
X-3120000Y-5270000D03*
%TO.P,R6,2*%
%TO.N,GND*%
X-4130000Y-5270000D03*
%TD*%
%TO.P,R19,1*%
%TO.N,GND*%
X10070000Y3090000D03*
%TO.P,R19,2*%
%TO.N,Net-(U2-PB2)*%
X9050000Y3090000D03*
%TD*%
D22*
%TO.P,C1,1*%
%TO.N,+5V*%
X-9000000Y3440000D03*
%TO.P,C1,2*%
%TO.N,GND*%
X-9960000Y3440000D03*
%TD*%
D23*
%TO.P,U1,1,GND*%
%TO.N,GND*%
X-6362500Y3550000D03*
%TO.P,U1,2,VO*%
%TO.N,+3V3*%
X-6362500Y5450000D03*
%TO.P,U1,3,VI*%
%TO.N,+5V*%
X-8637500Y4500000D03*
%TD*%
D14*
%TO.P,R13,1*%
%TO.N,/T_SWO*%
X9010000Y-3340000D03*
%TO.P,R13,2*%
%TO.N,Net-(J2-Pin_6)*%
X10030000Y-3340000D03*
%TD*%
D15*
%TO.P,C7,1*%
%TO.N,/NRST*%
X6660000Y2080000D03*
%TO.P,C7,2*%
%TO.N,GND*%
X7620000Y2080000D03*
%TD*%
%TO.P,C5,1*%
%TO.N,+3V3*%
X-4010000Y-4010000D03*
%TO.P,C5,2*%
%TO.N,GND*%
X-3050000Y-4010000D03*
%TD*%
D14*
%TO.P,R12,1*%
%TO.N,/T_JTCK*%
X9070000Y4050000D03*
%TO.P,R12,2*%
%TO.N,Net-(J2-Pin_4)*%
X10090000Y4050000D03*
%TD*%
%TO.P,R20,1*%
%TO.N,Net-(U2-PA0)*%
X6630000Y3980000D03*
%TO.P,R20,2*%
%TO.N,+3V3*%
X7650000Y3980000D03*
%TD*%
%TO.P,R9,1*%
%TO.N,Net-(D2-K)*%
X-8357500Y1320000D03*
%TO.P,R9,2*%
%TO.N,/LED_STLINK*%
X-7337500Y1320000D03*
%TD*%
%TO.P,R8,1*%
%TO.N,Net-(D1-A)*%
X-8357500Y2280000D03*
%TO.P,R8,2*%
%TO.N,/LED_STLINK*%
X-7337500Y2280000D03*
%TD*%
D15*
%TO.P,C4,1*%
%TO.N,+3V3*%
X4110000Y-4000000D03*
%TO.P,C4,2*%
%TO.N,GND*%
X5070000Y-4000000D03*
%TD*%
D24*
%TO.P,J1,A1,GND*%
%TO.N,GND*%
X-11820000Y3200000D03*
%TO.P,J1,A4,VBUS*%
%TO.N,+5V*%
X-11820000Y2400000D03*
D25*
%TO.P,J1,A5,CC1*%
%TO.N,Net-(J1-CC1)*%
X-11820000Y1250000D03*
%TO.P,J1,A6,D+*%
%TO.N,Net-(J1-D+-PadA6)*%
X-11820000Y250000D03*
%TO.P,J1,A7,D-*%
%TO.N,Net-(J1-D--PadA7)*%
X-11820000Y-250000D03*
%TO.P,J1,A8,SBU1*%
%TO.N,unconnected-(J1-SBU1-PadA8)*%
X-11820000Y-1250000D03*
D24*
%TO.P,J1,A9,VBUS*%
%TO.N,+5V*%
X-11820000Y-2400000D03*
%TO.P,J1,A12,GND*%
%TO.N,GND*%
X-11820000Y-3200000D03*
%TO.P,J1,B1,GND*%
X-11820000Y-3200000D03*
%TO.P,J1,B4,VBUS*%
%TO.N,+5V*%
X-11820000Y-2400000D03*
D25*
%TO.P,J1,B5,CC2*%
%TO.N,Net-(J1-CC1)*%
X-11820000Y-1750000D03*
%TO.P,J1,B6,D+*%
%TO.N,Net-(J1-D+-PadA6)*%
X-11820000Y-750000D03*
%TO.P,J1,B7,D-*%
%TO.N,Net-(J1-D--PadA7)*%
X-11820000Y750000D03*
%TO.P,J1,B8,SBU2*%
%TO.N,unconnected-(J1-SBU2-PadB8)*%
X-11820000Y1750000D03*
D24*
%TO.P,J1,B9,VBUS*%
%TO.N,+5V*%
X-11820000Y2400000D03*
%TO.P,J1,B12,GND*%
%TO.N,GND*%
X-11820000Y3200000D03*
D26*
%TO.P,J1,S1,SHIELD*%
X-12395000Y4320000D03*
D27*
X-16575000Y4320000D03*
D26*
X-12395000Y-4320000D03*
D27*
X-16575000Y-4320000D03*
%TD*%
D28*
%TO.P,Y1,1,1*%
%TO.N,Net-(U2-PD1)*%
X9440000Y690000D03*
%TO.P,Y1,2,2*%
%TO.N,GND*%
X7240000Y690000D03*
%TO.P,Y1,3,3*%
%TO.N,Net-(U2-PD0)*%
X7240000Y-1010000D03*
%TO.P,Y1,4,4*%
%TO.N,GND*%
X9440000Y-1010000D03*
%TD*%
D22*
%TO.P,C6,1*%
%TO.N,+3V3*%
X-3050000Y5380000D03*
%TO.P,C6,2*%
%TO.N,GND*%
X-4010000Y5380000D03*
%TD*%
D15*
%TO.P,C3,1*%
%TO.N,+3V3*%
X4110000Y5380000D03*
%TO.P,C3,2*%
%TO.N,GND*%
X5070000Y5380000D03*
%TD*%
D19*
%TO.P,R11,1*%
%TO.N,Net-(J2-Pin_10)*%
X10060000Y-5010000D03*
%TO.P,R11,2*%
%TO.N,/T_NRST*%
X9040000Y-5010000D03*
%TD*%
D29*
%TO.N,GND*%
X-17250000Y500000D03*
X2000000Y0D03*
X-16500000Y-2500000D03*
X-5200000Y4300000D03*
X-2000000Y-1000000D03*
X-15000000Y-1500000D03*
X-10800000Y2270000D03*
X-1710000Y3730000D03*
X-6400000Y4300000D03*
X-5800000Y4300000D03*
X-15000000Y1500000D03*
X-17250000Y-2500000D03*
X-15000000Y-2500000D03*
X2820000Y1440000D03*
X-370000Y-4660000D03*
X-1000000Y2000000D03*
X0Y-2000000D03*
X-17250000Y-1500000D03*
X5490000Y4670000D03*
X0Y3500000D03*
X-3030366Y-3448960D03*
X2000000Y1000000D03*
X-2070000Y-1560000D03*
X14200000Y1400000D03*
X-1000000Y-1000000D03*
X-16500000Y1500000D03*
X-5200000Y4900000D03*
X0Y-1000000D03*
X-5200000Y3600000D03*
X-15750000Y-500000D03*
X-1000000Y1000000D03*
X-1000000Y-2000000D03*
X14200000Y-1200000D03*
X-15750000Y-1500000D03*
X-1000000Y3500000D03*
X-16500000Y2500000D03*
X-1000000Y0D03*
X-17250000Y-500000D03*
X-15000000Y2500000D03*
X2780000Y-2270000D03*
X-2000000Y2000000D03*
X-15000000Y-500000D03*
X-16500000Y-1500000D03*
X-17250000Y2500000D03*
X-15750000Y2500000D03*
X-15000000Y500000D03*
X-16500000Y500000D03*
X0Y2000000D03*
X-15750000Y1500000D03*
X5070000Y-3250000D03*
X0Y0D03*
X2000000Y-1000000D03*
X-2000000Y1000000D03*
X-15750000Y500000D03*
X2000000Y2000000D03*
X14200000Y-3850000D03*
X-17250000Y1500000D03*
X0Y1000000D03*
X-16500000Y-500000D03*
X-15750000Y-2500000D03*
X2000000Y-2000000D03*
%TO.N,+3V3*%
X8126395Y3533966D03*
X-11000000Y5750000D03*
X-3630000Y-3470000D03*
X4360000Y-3390000D03*
X4580000Y4830000D03*
X-17750000Y5750000D03*
X-16250000Y5750000D03*
X-13250000Y5750000D03*
X-8060000Y-2280000D03*
X-15500000Y5750000D03*
X-14750000Y5750000D03*
X-17000000Y5750000D03*
X-3050000Y4780000D03*
X-11750000Y5750000D03*
X-12500000Y5750000D03*
X-10810000Y1310000D03*
X14200000Y3800000D03*
X-14000000Y5750000D03*
%TO.N,Net-(Q1-B)*%
X-5900000Y-2070000D03*
X-6256115Y-4540000D03*
X-6326115Y-3226115D03*
X-5290000Y2930000D03*
%TO.N,Net-(J2-Pin_6)*%
X12300000Y-1410000D03*
%TO.N,/T_Rx*%
X3280000Y3720000D03*
X3280000Y-4770000D03*
%TO.N,/T_Tx*%
X5910000Y-4800000D03*
X5300000Y4000000D03*
X12810000Y-3700000D03*
%TO.N,/T_JTMS*%
X9310000Y5640000D03*
X6642657Y-5241657D03*
X1580000Y-5240000D03*
X1200000Y2440000D03*
%TO.N,/T_NRST*%
X2630000Y-5850000D03*
X800000Y3530000D03*
%TO.N,/T_SWO*%
X8340000Y-3340000D03*
X7860000Y-4590000D03*
X-2680000Y-5850000D03*
X-2560000Y130000D03*
%TO.N,Net-(U2-PB2)*%
X8530000Y3090000D03*
X8480000Y5830000D03*
%TO.N,Net-(J2-Pin_4)*%
X12740000Y3710000D03*
%TO.N,Net-(J2-Pin_10)*%
X10770000Y-5080000D03*
%TO.N,Net-(J2-Pin_2)*%
X12190000Y4094998D03*
%TD*%
D30*
%TO.N,+5V*%
X-9000000Y4137500D02*
X-8637500Y4500000D01*
X-11820000Y2400000D02*
X-11440000Y2400000D01*
X-10999000Y2841000D02*
X-9599000Y2841000D01*
X-12460000Y-2400000D02*
X-11820000Y-2400000D01*
X-13060000Y-1800000D02*
X-12460000Y-2400000D01*
X-11820000Y2400000D02*
X-12460000Y2400000D01*
X-9599000Y2841000D02*
X-9000000Y3440000D01*
X-12460000Y2400000D02*
X-13060000Y1800000D01*
D31*
X-6890000Y2420000D02*
X-6760000Y2290000D01*
D30*
X-9000000Y3440000D02*
X-9000000Y4137500D01*
D31*
X-8700000Y3440000D02*
X-8020000Y2760000D01*
D30*
X-11440000Y2400000D02*
X-10999000Y2841000D01*
D31*
X-9000000Y3440000D02*
X-8700000Y3440000D01*
X-6760000Y2290000D02*
X-6470000Y2290000D01*
X-7040000Y2760000D02*
X-6890000Y2610000D01*
X-6890000Y2610000D02*
X-6890000Y2420000D01*
X-8020000Y2760000D02*
X-7040000Y2760000D01*
D30*
X-13060000Y1800000D02*
X-13060000Y-1800000D01*
D31*
%TO.N,GND*%
X-10212500Y2270000D02*
X-10800000Y2270000D01*
X4692500Y1440000D02*
X2820000Y1440000D01*
X-3050000Y-3468594D02*
X-3030366Y-3448960D01*
X9040000Y2060000D02*
X10070000Y3090000D01*
X-3632500Y-1560000D02*
X-2070000Y-1560000D01*
X14200000Y1505500D02*
X13165500Y2540000D01*
X7240000Y690000D02*
X7240000Y1700000D01*
X5070000Y5380000D02*
X5070000Y5090000D01*
X12550000Y3090000D02*
X13100000Y2540000D01*
X7620000Y2080000D02*
X9020000Y2080000D01*
X7690000Y-2400000D02*
X9040000Y-2400000D01*
X-370000Y-5280000D02*
X-370000Y-4660000D01*
X-1720000Y3740000D02*
X-1710000Y3730000D01*
X-10020000Y3500000D02*
X-9960000Y3440000D01*
X5070000Y5380000D02*
X5300000Y5610000D01*
X7175744Y-4000000D02*
X7690000Y-3485744D01*
X14200000Y1400000D02*
X14200000Y1505500D01*
X7240000Y1700000D02*
X7620000Y2080000D01*
X14200000Y-1200000D02*
X14200000Y-1034500D01*
X13100000Y0D02*
X10450000Y0D01*
X5070000Y5090000D02*
X5490000Y4670000D01*
X9020000Y2080000D02*
X9040000Y2060000D01*
X7425744Y5610000D02*
X7650000Y5385744D01*
X5070000Y-4000000D02*
X7175744Y-4000000D01*
X-3050000Y-4010000D02*
X-3050000Y-3468594D01*
X-1720000Y4852500D02*
X-1720000Y3740000D01*
X-4160000Y-5300000D02*
X-4130000Y-5270000D01*
X-10020000Y4500000D02*
X-10020000Y3500000D01*
X10450000Y0D02*
X9440000Y-1010000D01*
X14200000Y-1034500D02*
X13165500Y0D01*
X-5710000Y-5300000D02*
X-4160000Y-5300000D01*
X5300000Y5610000D02*
X7425744Y5610000D01*
X14200000Y-3850000D02*
X14200000Y-4045500D01*
X10070000Y3090000D02*
X12550000Y3090000D01*
X2780000Y-3472500D02*
X2780000Y-2270000D01*
X5070000Y-4000000D02*
X5070000Y-3250000D01*
X14200000Y-4045500D02*
X13165500Y-5080000D01*
X7690000Y-3485744D02*
X7690000Y-3340000D01*
X7650000Y5385744D02*
X7650000Y4940000D01*
X7690000Y-3340000D02*
X7690000Y-2400000D01*
%TO.N,+3V3*%
X4110000Y-2990000D02*
X3830000Y-3270000D01*
D32*
X14200000Y3800000D02*
X14200000Y4045500D01*
D31*
X-4010000Y-3850000D02*
X-3630000Y-3470000D01*
X-10212500Y1310000D02*
X-10810000Y1310000D01*
X4580000Y4910000D02*
X4580000Y4830000D01*
X4110000Y-4000000D02*
X3807500Y-4000000D01*
X-3050000Y5380000D02*
X-3050000Y4780000D01*
X4110000Y5380000D02*
X3700000Y4970000D01*
X-4010000Y-4010000D02*
X-4010000Y-3850000D01*
X4110000Y-3640000D02*
X4360000Y-3390000D01*
X4500000Y-2990000D02*
X4110000Y-2990000D01*
X-4010000Y-4010000D02*
X-4010000Y-2437500D01*
X3830000Y-3270000D02*
X3830000Y-3720000D01*
X4110000Y-4000000D02*
X4110000Y-3640000D01*
X4692500Y-2797500D02*
X4500000Y-2990000D01*
X3700000Y2170000D02*
X3930001Y1939999D01*
X-7777500Y-1630000D02*
X-7777500Y-1997500D01*
X7650000Y3980000D02*
X7680361Y3980000D01*
X8080000Y3487571D02*
X8080000Y3320000D01*
X7680361Y3980000D02*
X8126395Y3533966D01*
X-2747500Y5380000D02*
X-3050000Y5380000D01*
X3930001Y1939999D02*
X4692500Y1939999D01*
D32*
X14200000Y4045500D02*
X13165500Y5080000D01*
D31*
X7780000Y3020000D02*
X7650000Y3020000D01*
X8126395Y3533966D02*
X8080000Y3487571D01*
X3807500Y-4000000D02*
X3280000Y-3472500D01*
X3700000Y4970000D02*
X3700000Y2170000D01*
D30*
X-10020000Y5460000D02*
X-9940000Y5540000D01*
D31*
X-4010000Y-2437500D02*
X-3632500Y-2060000D01*
X8080000Y3320000D02*
X7780000Y3020000D01*
X-7777500Y-1997500D02*
X-8060000Y-2280000D01*
D30*
X-6452500Y5540000D02*
X-6362500Y5450000D01*
X-9940000Y5540000D02*
X-6452500Y5540000D01*
D31*
X4692500Y-2060000D02*
X4692500Y-2797500D01*
X4110000Y5380000D02*
X4580000Y4910000D01*
X-2220000Y4852500D02*
X-2747500Y5380000D01*
X3830000Y-3720000D02*
X4110000Y-4000000D01*
%TO.N,/NRST*%
X6630000Y3020000D02*
X6630000Y2110000D01*
X6630000Y2110000D02*
X6660000Y2080000D01*
X5520000Y940000D02*
X6660000Y2080000D01*
X4692500Y940000D02*
X5520000Y940000D01*
%TO.N,Net-(D1-A)*%
X-9242500Y2270000D02*
X-8367500Y2270000D01*
X-8367500Y2270000D02*
X-8357500Y2280000D01*
%TO.N,Net-(D2-K)*%
X-9242500Y1310000D02*
X-8367500Y1310000D01*
X-8367500Y1310000D02*
X-8357500Y1320000D01*
%TO.N,Net-(Q1-E)*%
X-8460000Y-1110000D02*
X-8100000Y-750000D01*
X-9212500Y-1570000D02*
X-9212500Y-1222500D01*
X-8100000Y-750000D02*
X-5902500Y-750000D01*
X-9212500Y-1222500D02*
X-9100000Y-1110000D01*
X-9100000Y-1110000D02*
X-8460000Y-1110000D01*
%TO.N,Net-(Q1-B)*%
X-6320000Y-2997500D02*
X-5902500Y-2580000D01*
X-4562172Y-4540000D02*
X-4303172Y-4799000D01*
X-5470000Y2750000D02*
X-5290000Y2930000D01*
X-3591000Y-4799000D02*
X-3120000Y-5270000D01*
X-3120000Y-5270000D02*
X-2260000Y-5270000D01*
X-5470000Y2290000D02*
X-5470000Y2750000D01*
X-6256115Y-4540000D02*
X-4562172Y-4540000D01*
X-6320000Y-3220000D02*
X-6320000Y-2997500D01*
X-6326115Y-3226115D02*
X-6320000Y-3220000D01*
X-4303172Y-4799000D02*
X-3591000Y-4799000D01*
X-5900000Y-2577500D02*
X-5902500Y-2580000D01*
X-5900000Y-2070000D02*
X-5900000Y-2577500D01*
%TO.N,/BOOT0*%
X1280000Y-3472500D02*
X1280000Y-4650000D01*
X1280000Y-4650000D02*
X650000Y-5280000D01*
%TO.N,Net-(U2-PD0)*%
X4692500Y-60000D02*
X6290000Y-60000D01*
X10000000Y-2400000D02*
X10000000Y-2080000D01*
X8170000Y-1940000D02*
X7240000Y-1010000D01*
X9860000Y-1940000D02*
X8170000Y-1940000D01*
X10000000Y-2080000D02*
X9860000Y-1940000D01*
X6290000Y-60000D02*
X7240000Y-1010000D01*
%TO.N,Net-(U2-PD1)*%
X4692500Y440000D02*
X6115972Y440000D01*
X10000000Y1250000D02*
X9440000Y690000D01*
X7871014Y-61000D02*
X8622014Y690000D01*
X8622014Y690000D02*
X9440000Y690000D01*
X6616972Y-61000D02*
X7871014Y-61000D01*
X10000000Y2060000D02*
X10000000Y1250000D01*
X6115972Y440000D02*
X6616972Y-61000D01*
%TO.N,Net-(J2-Pin_6)*%
X11360000Y-1410000D02*
X12300000Y-1410000D01*
X10030000Y-3340000D02*
X10740000Y-2630000D01*
X10740000Y-2630000D02*
X10740000Y-2030000D01*
X10740000Y-2030000D02*
X11360000Y-1410000D01*
%TO.N,Net-(J1-D--PadA7)*%
X-12422500Y-250000D02*
X-12546000Y-126500D01*
X-11820000Y-250000D02*
X-12422500Y-250000D01*
X-12546000Y-126500D02*
X-12546000Y624000D01*
X-11820000Y750000D02*
X-10632500Y750000D01*
X-12546000Y624000D02*
X-12420000Y750000D01*
X-12420000Y750000D02*
X-11820000Y750000D01*
X-10632500Y750000D02*
X-10232500Y350000D01*
%TO.N,Net-(J1-D+-PadA6)*%
X-10412500Y-750000D02*
X-10232500Y-570000D01*
X-11820000Y250000D02*
X-11220000Y250000D01*
X-11094000Y124000D02*
X-11094000Y-624000D01*
X-11820000Y-750000D02*
X-10412500Y-750000D01*
X-11220000Y-750000D02*
X-11820000Y-750000D01*
X-11094000Y-624000D02*
X-11220000Y-750000D01*
X-11220000Y250000D02*
X-11094000Y124000D01*
%TO.N,/T_Rx*%
X5680000Y-4330000D02*
X6150000Y-4330000D01*
X6861000Y-4599000D02*
X7540000Y-3920000D01*
X3280000Y4852500D02*
X3280000Y3720000D01*
X10430000Y-3920000D02*
X10830000Y-3520000D01*
X11260000Y-2540000D02*
X13165500Y-2540000D01*
X6419000Y-4599000D02*
X6861000Y-4599000D01*
X6150000Y-4330000D02*
X6419000Y-4599000D01*
X3290000Y-4780000D02*
X5230000Y-4780000D01*
X5230000Y-4780000D02*
X5680000Y-4330000D01*
X7540000Y-3920000D02*
X10430000Y-3920000D01*
X3280000Y-4770000D02*
X3290000Y-4780000D01*
X10830000Y-3520000D02*
X10830000Y-2970000D01*
X10830000Y-2970000D02*
X11260000Y-2540000D01*
%TO.N,/T_Tx*%
X7040000Y-4800000D02*
X5910000Y-4800000D01*
X7690000Y-4150000D02*
X7040000Y-4800000D01*
X4740000Y3440000D02*
X5300000Y4000000D01*
X4692500Y3440000D02*
X4740000Y3440000D01*
X10620000Y-4150000D02*
X7690000Y-4150000D01*
X12810000Y-3700000D02*
X11070000Y-3700000D01*
X11070000Y-3700000D02*
X10620000Y-4150000D01*
%TO.N,/STM_JTCK*%
X-4767916Y-4050000D02*
X-4346916Y-4471000D01*
X-2220000Y-4209999D02*
X-2220000Y-3472500D01*
X-6980000Y-5300000D02*
X-6980000Y-4370000D01*
X-6980000Y-4370000D02*
X-6660000Y-4050000D01*
X-4346916Y-4471000D02*
X-2481001Y-4471000D01*
X-6660000Y-4050000D02*
X-4767916Y-4050000D01*
X-2481001Y-4471000D02*
X-2220000Y-4209999D01*
%TO.N,/STM_JTMS*%
X-4369999Y-1060000D02*
X-3632500Y-1060000D01*
X-5000000Y-3620000D02*
X-5000000Y-1690001D01*
X-5000000Y-1690001D02*
X-4369999Y-1060000D01*
X-5230000Y-3850000D02*
X-5000000Y-3620000D01*
X-8250000Y-5300000D02*
X-8250000Y-4780000D01*
X-8250000Y-4780000D02*
X-7320000Y-3850000D01*
X-7320000Y-3850000D02*
X-5230000Y-3850000D01*
%TO.N,/LED_STLINK*%
X-7337500Y1320000D02*
X-7337500Y2280000D01*
X-7337500Y1320000D02*
X-6857500Y840000D01*
X-3732500Y840000D02*
X-3632500Y940000D01*
X-6857500Y840000D02*
X-3732500Y840000D01*
%TO.N,/DP+*%
X-9212500Y-610000D02*
X-8532500Y70000D01*
X-10232500Y-1322500D02*
X-9520000Y-610000D01*
X-4580001Y-559999D02*
X-3632500Y-559999D01*
X-9520000Y-610000D02*
X-9212500Y-610000D01*
X-10232500Y-1570000D02*
X-10232500Y-1322500D01*
X-5210000Y70000D02*
X-4580001Y-559999D01*
X-8532500Y70000D02*
X-5210000Y70000D01*
%TO.N,/DM-*%
X-4730000Y-60000D02*
X-3632500Y-60000D01*
X-9212500Y350000D02*
X-5140000Y350000D01*
X-5140000Y350000D02*
X-4730000Y-60000D01*
%TO.N,Net-(J1-CC1)*%
X-11820000Y-1750000D02*
X-11160000Y-1750000D01*
X-12750000Y-1394999D02*
X-12750000Y894999D01*
X-10570000Y-2570000D02*
X-10232500Y-2570000D01*
X-11820000Y-1750000D02*
X-12394999Y-1750000D01*
X-12394999Y1250000D02*
X-11820000Y1250000D01*
X-12750000Y894999D02*
X-12394999Y1250000D01*
X-12394999Y-1750000D02*
X-12750000Y-1394999D01*
X-10830000Y-2080000D02*
X-10830000Y-2310000D01*
X-11160000Y-1750000D02*
X-10830000Y-2080000D01*
X-10830000Y-2310000D02*
X-10570000Y-2570000D01*
%TO.N,/T_JTMS*%
X1581657Y-5241657D02*
X1580000Y-5240000D01*
X9050000Y5000000D02*
X9050000Y5380000D01*
X-5410000Y1330000D02*
X-4300000Y2440000D01*
X1200000Y2440000D02*
X-3632500Y2440000D01*
X9050000Y5380000D02*
X9310000Y5640000D01*
X-5440000Y1330000D02*
X-5410000Y1330000D01*
X-4300000Y2440000D02*
X-3632500Y2440000D01*
X6642657Y-5241657D02*
X1581657Y-5241657D01*
%TO.N,/RENUM*%
X-1720000Y-4790000D02*
X-1720000Y-3472500D01*
X-1240000Y-5270000D02*
X-1720000Y-4790000D01*
%TO.N,/T_JTCK*%
X-3632500Y2940000D02*
X1900000Y2940000D01*
X8070000Y4370000D02*
X8070000Y5250000D01*
X8070000Y5250000D02*
X7480000Y5840000D01*
X2280000Y3320000D02*
X2280000Y4852500D01*
X8390000Y4050000D02*
X8070000Y4370000D01*
X2280000Y5610000D02*
X2280000Y4852500D01*
X2510000Y5840000D02*
X2280000Y5610000D01*
X7480000Y5840000D02*
X2510000Y5840000D01*
X1900000Y2940000D02*
X2280000Y3320000D01*
X9070000Y4050000D02*
X8390000Y4050000D01*
%TO.N,/T_NRST*%
X780000Y3550000D02*
X780000Y4852500D01*
X800000Y3530000D02*
X780000Y3550000D01*
X9040000Y-5470000D02*
X9040000Y-5010000D01*
X2630000Y-5850000D02*
X8660000Y-5850000D01*
X8660000Y-5850000D02*
X9040000Y-5470000D01*
%TO.N,/T_SWO*%
X-2560000Y130000D02*
X-2870000Y440000D01*
X2996100Y-5649000D02*
X6801000Y-5649000D01*
X6801000Y-5649000D02*
X7860000Y-4590000D01*
X1220000Y-5850000D02*
X1420000Y-5650000D01*
X9010000Y-3340000D02*
X8340000Y-3340000D01*
X2262900Y-5650000D02*
X2463900Y-5449000D01*
X2463900Y-5449000D02*
X2796100Y-5449000D01*
X2796100Y-5449000D02*
X2996100Y-5649000D01*
X-2870000Y440000D02*
X-3632500Y440000D01*
X1420000Y-5650000D02*
X2262900Y-5650000D01*
X-2680000Y-5850000D02*
X1220000Y-5850000D01*
%TO.N,Net-(U2-PB12)*%
X-5211000Y1819000D02*
X-4521000Y2509000D01*
X-5971000Y1819000D02*
X-5211000Y1819000D01*
X-6460000Y1330000D02*
X-5971000Y1819000D01*
X-4521000Y2509000D02*
X-4521000Y3110692D01*
X-4521000Y3110692D02*
X-4191692Y3440000D01*
X-4191692Y3440000D02*
X-3632500Y3440000D01*
%TO.N,Net-(U2-PC13)*%
X6170000Y-2300001D02*
X5429999Y-1560000D01*
X5429999Y-1560000D02*
X4692500Y-1560000D01*
X6670000Y-3340000D02*
X6170000Y-2840000D01*
X6170000Y-2840000D02*
X6170000Y-2300001D01*
%TO.N,Net-(U2-PC14)*%
X5330000Y-1060000D02*
X6670000Y-2400000D01*
X4692500Y-1060000D02*
X5330000Y-1060000D01*
%TO.N,Net-(U2-PB2)*%
X-220000Y5809691D02*
X-220000Y4852500D01*
X9050000Y3090000D02*
X8530000Y3090000D01*
X8331000Y6049000D02*
X19309Y6049000D01*
X8480000Y5900000D02*
X8331000Y6049000D01*
X8480000Y5830000D02*
X8480000Y5900000D01*
X19309Y6049000D02*
X-220000Y5809691D01*
%TO.N,Net-(U2-PA0)*%
X6630000Y3818308D02*
X6630000Y3980000D01*
X5251692Y2440000D02*
X6630000Y3818308D01*
X6630000Y4940000D02*
X6630000Y3980000D01*
X4692500Y2440000D02*
X5251692Y2440000D01*
%TO.N,Net-(J2-Pin_4)*%
X12723998Y3693998D02*
X12740000Y3710000D01*
X10090000Y4050000D02*
X10446002Y3693998D01*
X10446002Y3693998D02*
X12723998Y3693998D01*
%TO.N,Net-(J2-Pin_10)*%
X10130000Y-5080000D02*
X10770000Y-5080000D01*
X10060000Y-5010000D02*
X10130000Y-5080000D01*
%TO.N,Net-(J2-Pin_2)*%
X10975002Y4094998D02*
X10070000Y5000000D01*
X12190000Y4094998D02*
X10975002Y4094998D01*
%TD*%
%TA.AperFunction,Conductor*%
%TO.N,+3V3*%
G36*
X-10788498Y6079815D02*
G01*
X-10742743Y6027011D01*
X-10732799Y5957853D01*
X-10748805Y5912379D01*
X-10782032Y5856197D01*
X-10782032Y5856196D01*
X-10824504Y5710000D01*
X-9215496Y5710000D01*
X-9257969Y5856196D01*
X-9257969Y5856197D01*
X-9291195Y5912379D01*
X-9292851Y5918904D01*
X-9297257Y5923989D01*
X-9301333Y5952336D01*
X-9308378Y5980103D01*
X-9306244Y5986487D01*
X-9307201Y5993147D01*
X-9295303Y6019201D01*
X-9286218Y6046366D01*
X-9280972Y6050582D01*
X-9278176Y6056703D01*
X-9254082Y6072188D01*
X-9231752Y6090129D01*
X-9223673Y6091731D01*
X-9219398Y6094477D01*
X-9184463Y6099500D01*
X-9029500Y6099500D01*
X-8962461Y6079815D01*
X-8916706Y6027011D01*
X-8905500Y5975500D01*
X-8905500Y5964492D01*
X-8901946Y5931445D01*
X-8890740Y5879934D01*
X-8856314Y5811158D01*
X-8830357Y5781203D01*
X-8813625Y5761893D01*
X-8810549Y5758344D01*
X-8805583Y5752881D01*
X-8798746Y5747237D01*
X-8799612Y5746189D01*
X-8792797Y5743077D01*
X-8779281Y5722046D01*
X-8762465Y5703549D01*
X-8759717Y5691603D01*
X-8755023Y5684299D01*
X-8750000Y5649364D01*
X-8750000Y5427867D01*
X-8769685Y5360828D01*
X-8792797Y5334154D01*
X-8832144Y5300061D01*
X-8837624Y5295078D01*
X-8879514Y5226355D01*
X-8879517Y5226349D01*
X-8899201Y5159313D01*
X-8899203Y5159303D01*
X-8905502Y5115493D01*
X-8905526Y5115145D01*
X-8905567Y5115036D01*
X-8906130Y5111118D01*
X-8906983Y5111241D01*
X-8907121Y5110871D01*
X-8906471Y5106353D01*
X-8919221Y5078436D01*
X-8929947Y5049682D01*
X-8933601Y5046948D01*
X-8935496Y5042797D01*
X-8961314Y5026206D01*
X-8985884Y5007815D01*
X-8991509Y5006801D01*
X-8994274Y5005023D01*
X-9029209Y5000000D01*
X-9111353Y5000000D01*
X-9178392Y5019685D01*
X-9224147Y5072489D01*
X-9234091Y5141647D01*
X-9230430Y5158594D01*
X-9215496Y5210000D01*
X-10824504Y5210000D01*
X-10809570Y5158594D01*
X-10809770Y5088725D01*
X-10847713Y5030055D01*
X-10911351Y5001212D01*
X-10928647Y5000000D01*
X-13612950Y5000000D01*
X-13679989Y5019685D01*
X-13706663Y5042797D01*
X-13740757Y5082144D01*
X-13745740Y5087624D01*
X-13814463Y5129514D01*
X-13814469Y5129517D01*
X-13881505Y5149201D01*
X-13881515Y5149203D01*
X-13925314Y5155500D01*
X-13925317Y5155500D01*
X-15194683Y5155500D01*
X-15194687Y5155500D01*
X-15229089Y5151646D01*
X-15229092Y5151646D01*
X-15282610Y5139502D01*
X-15301908Y5129516D01*
X-15352115Y5103537D01*
X-15352117Y5103536D01*
X-15352118Y5103535D01*
X-15404087Y5056853D01*
X-15409481Y5051770D01*
X-15413458Y5046773D01*
X-15470611Y5006582D01*
X-15510473Y5000000D01*
X-17642950Y5000000D01*
X-17709989Y5019685D01*
X-17736663Y5042797D01*
X-17770757Y5082144D01*
X-17775740Y5087624D01*
X-17844463Y5129514D01*
X-17844469Y5129517D01*
X-17911505Y5149201D01*
X-17911515Y5149203D01*
X-17955314Y5155500D01*
X-17955317Y5155500D01*
X-18475500Y5155500D01*
X-18484186Y5158051D01*
X-18493147Y5156762D01*
X-18517188Y5167741D01*
X-18542539Y5175185D01*
X-18548467Y5182026D01*
X-18556703Y5185787D01*
X-18570993Y5208022D01*
X-18588294Y5227989D01*
X-18590582Y5238504D01*
X-18594477Y5244565D01*
X-18599500Y5279500D01*
X-18599500Y5493039D01*
X-18598720Y5506922D01*
X-18595933Y5531656D01*
X-18586034Y5619519D01*
X-18579858Y5646582D01*
X-18544744Y5746932D01*
X-18532701Y5771938D01*
X-18476137Y5861960D01*
X-18458832Y5883659D01*
X-18383659Y5958832D01*
X-18361960Y5976137D01*
X-18271938Y6032701D01*
X-18246932Y6044744D01*
X-18146582Y6079858D01*
X-18119519Y6086034D01*
X-18022231Y6096996D01*
X-18006922Y6098720D01*
X-17993039Y6099500D01*
X-17942417Y6099500D01*
X-10855537Y6099500D01*
X-10788498Y6079815D01*
G37*
%TD.AperFunction*%
%TD*%
%TA.AperFunction,Conductor*%
%TO.N,GND*%
G36*
X-17888278Y4980315D02*
G01*
X-17842523Y4927511D01*
X-17832579Y4858353D01*
X-17852216Y4807108D01*
X-17861185Y4793687D01*
X-17861193Y4793672D01*
X-17936570Y4611693D01*
X-17936570Y4611691D01*
X-17944862Y4570000D01*
X-17141988Y4570000D01*
X-17159205Y4560060D01*
X-17215060Y4504205D01*
X-17254556Y4435796D01*
X-17275000Y4359496D01*
X-17275000Y4280504D01*
X-17254556Y4204204D01*
X-17215060Y4135795D01*
X-17159205Y4079940D01*
X-17141988Y4070000D01*
X-17944862Y4070000D01*
X-17936570Y4028310D01*
X-17936570Y4028308D01*
X-17861193Y3846329D01*
X-17861186Y3846316D01*
X-17751752Y3682538D01*
X-17751749Y3682534D01*
X-17612467Y3543252D01*
X-17612463Y3543249D01*
X-17448685Y3433815D01*
X-17448672Y3433808D01*
X-17266694Y3358431D01*
X-17266682Y3358428D01*
X-17073496Y3320001D01*
X-17073492Y3320000D01*
X-16825000Y3320000D01*
X-16825000Y4020000D01*
X-16325000Y4020000D01*
X-16325000Y3320000D01*
X-16076508Y3320000D01*
X-16076505Y3320001D01*
X-15883319Y3358428D01*
X-15883307Y3358431D01*
X-15701329Y3433808D01*
X-15701316Y3433815D01*
X-15537538Y3543249D01*
X-15537534Y3543252D01*
X-15398252Y3682534D01*
X-15398249Y3682538D01*
X-15288815Y3846316D01*
X-15288808Y3846329D01*
X-15213431Y4028308D01*
X-15213431Y4028310D01*
X-15205138Y4070000D01*
X-16008012Y4070000D01*
X-15990795Y4079940D01*
X-15934940Y4135795D01*
X-15895444Y4204204D01*
X-15875000Y4280504D01*
X-15875000Y4359496D01*
X-15895444Y4435796D01*
X-15934940Y4504205D01*
X-15990795Y4560060D01*
X-16008012Y4570000D01*
X-15205138Y4570000D01*
X-15213431Y4611691D01*
X-15213431Y4611693D01*
X-15288808Y4793672D01*
X-15288816Y4793687D01*
X-15297784Y4807108D01*
X-15318663Y4873785D01*
X-15300179Y4941165D01*
X-15248201Y4987856D01*
X-15194683Y5000000D01*
X-13925317Y5000000D01*
X-13858278Y4980315D01*
X-13812523Y4927511D01*
X-13802579Y4858353D01*
X-13822216Y4807108D01*
X-13831185Y4793687D01*
X-13831193Y4793672D01*
X-13906570Y4611693D01*
X-13906570Y4611691D01*
X-13914862Y4570000D01*
X-13111988Y4570000D01*
X-13129205Y4560060D01*
X-13185060Y4504205D01*
X-13224556Y4435796D01*
X-13245000Y4359496D01*
X-13245000Y4280504D01*
X-13224556Y4204204D01*
X-13185060Y4135795D01*
X-13129205Y4079940D01*
X-13111988Y4070000D01*
X-13914862Y4070000D01*
X-13906570Y4028310D01*
X-13906570Y4028308D01*
X-13831193Y3846329D01*
X-13831186Y3846316D01*
X-13721752Y3682538D01*
X-13721749Y3682534D01*
X-13582467Y3543252D01*
X-13582463Y3543249D01*
X-13418685Y3433815D01*
X-13418672Y3433808D01*
X-13260803Y3368417D01*
X-13206399Y3324576D01*
X-13184334Y3258282D01*
X-13201613Y3190583D01*
X-13220572Y3166177D01*
X-13235482Y3151267D01*
X-13235487Y3151260D01*
X-13291502Y3054240D01*
X-13291503Y3054237D01*
X-13320500Y2946018D01*
X-13320500Y2833982D01*
X-13291503Y2725763D01*
X-13235485Y2628737D01*
X-13156263Y2549515D01*
X-13059237Y2493497D01*
X-13055518Y2492501D01*
X-13052735Y2490804D01*
X-13051730Y2490388D01*
X-13051795Y2490232D01*
X-12995860Y2456141D01*
X-12965327Y2393296D01*
X-12973618Y2323920D01*
X-12999927Y2285045D01*
X-13065156Y2219815D01*
X-13244511Y2040460D01*
X-13300459Y1984513D01*
X-13300465Y1984505D01*
X-13340018Y1915996D01*
X-13340021Y1915991D01*
X-13353158Y1866961D01*
X-13360500Y1839562D01*
X-13360500Y-1839562D01*
X-13340021Y-1915989D01*
X-13310901Y-1966426D01*
X-13310900Y-1966427D01*
X-13300458Y-1984514D01*
X-12999928Y-2285044D01*
X-12966443Y-2346367D01*
X-12971427Y-2416059D01*
X-13013299Y-2471992D01*
X-13055513Y-2492499D01*
X-13059234Y-2493496D01*
X-13059240Y-2493498D01*
X-13156260Y-2549513D01*
X-13156266Y-2549517D01*
X-13235483Y-2628734D01*
X-13235487Y-2628740D01*
X-13291502Y-2725760D01*
X-13291503Y-2725763D01*
X-13320500Y-2833982D01*
X-13320500Y-2946018D01*
X-13291503Y-3054237D01*
X-13235485Y-3151263D01*
X-13235483Y-3151265D01*
X-13220574Y-3166174D01*
X-13187089Y-3227497D01*
X-13192073Y-3297189D01*
X-13233945Y-3353122D01*
X-13260802Y-3368416D01*
X-13418675Y-3433809D01*
X-13418685Y-3433814D01*
X-13582463Y-3543248D01*
X-13582467Y-3543251D01*
X-13721749Y-3682533D01*
X-13721752Y-3682537D01*
X-13831186Y-3846315D01*
X-13831193Y-3846328D01*
X-13906570Y-4028307D01*
X-13906570Y-4028309D01*
X-13914862Y-4070000D01*
X-13111988Y-4070000D01*
X-13129205Y-4079940D01*
X-13185060Y-4135795D01*
X-13224556Y-4204204D01*
X-13245000Y-4280504D01*
X-13245000Y-4359496D01*
X-13224556Y-4435796D01*
X-13185060Y-4504205D01*
X-13129205Y-4560060D01*
X-13111988Y-4570000D01*
X-13914862Y-4570000D01*
X-13906570Y-4611690D01*
X-13906570Y-4611692D01*
X-13831193Y-4793671D01*
X-13831186Y-4793684D01*
X-13721752Y-4957462D01*
X-13721749Y-4957466D01*
X-13582467Y-5096748D01*
X-13582463Y-5096751D01*
X-13418685Y-5206185D01*
X-13418672Y-5206192D01*
X-13236694Y-5281569D01*
X-13236682Y-5281572D01*
X-13043496Y-5319999D01*
X-13043492Y-5320000D01*
X-12645000Y-5320000D01*
X-12645000Y-4620000D01*
X-12145000Y-4620000D01*
X-12145000Y-5320000D01*
X-11746508Y-5320000D01*
X-11746505Y-5319999D01*
X-11553319Y-5281572D01*
X-11553307Y-5281569D01*
X-11371329Y-5206192D01*
X-11371316Y-5206185D01*
X-11207538Y-5096751D01*
X-11207534Y-5096748D01*
X-11068252Y-4957466D01*
X-11068249Y-4957462D01*
X-10958815Y-4793684D01*
X-10958808Y-4793671D01*
X-10883431Y-4611692D01*
X-10883431Y-4611690D01*
X-10875138Y-4570000D01*
X-11678012Y-4570000D01*
X-11660795Y-4560060D01*
X-11604940Y-4504205D01*
X-11565444Y-4435796D01*
X-11545000Y-4359496D01*
X-11545000Y-4280504D01*
X-11565444Y-4204204D01*
X-11604940Y-4135795D01*
X-11660795Y-4079940D01*
X-11678012Y-4070000D01*
X-11570000Y-4070000D01*
X-10875138Y-4070000D01*
X-10883431Y-4028309D01*
X-10883431Y-4028307D01*
X-10930992Y-3913483D01*
X-10938461Y-3844014D01*
X-10907186Y-3781535D01*
X-10904111Y-3778348D01*
X-10877317Y-3751553D01*
X-10877314Y-3751550D01*
X-10793719Y-3610198D01*
X-10747900Y-3452486D01*
X-10747705Y-3450001D01*
X-10747705Y-3450000D01*
X-11570000Y-3450000D01*
X-11570000Y-4070000D01*
X-11678012Y-4070000D01*
X-11729204Y-4040444D01*
X-11805504Y-4020000D01*
X-12070000Y-4020000D01*
X-12070000Y-3450000D01*
X-12554523Y-3450000D01*
X-12621562Y-3430315D01*
X-12667317Y-3377511D01*
X-12677261Y-3308353D01*
X-12648236Y-3244797D01*
X-12639320Y-3236396D01*
X-12639484Y-3236232D01*
X-12598745Y-3195493D01*
X-12554515Y-3151263D01*
X-12498497Y-3054237D01*
X-12495192Y-3041904D01*
X-12458826Y-2982244D01*
X-12395978Y-2951716D01*
X-12375418Y-2950000D01*
X-10743510Y-2950000D01*
X-10692930Y-2919745D01*
X-10623097Y-2921990D01*
X-10574155Y-2952102D01*
X-10531641Y-2994616D01*
X-10531638Y-2994617D01*
X-10531637Y-2994618D01*
X-10434001Y-3037729D01*
X-10434000Y-3037729D01*
X-10433998Y-3037730D01*
X-10410123Y-3040500D01*
X-10054878Y-3040499D01*
X-10048760Y-3039789D01*
X-10031007Y-3037731D01*
X-10031006Y-3037730D01*
X-10031002Y-3037730D01*
X-10014038Y-3030239D01*
X-9944764Y-3021167D01*
X-9881578Y-3050988D01*
X-9857218Y-3080555D01*
X-9853237Y-3087288D01*
X-9853232Y-3087294D01*
X-9739795Y-3200731D01*
X-9739786Y-3200738D01*
X-9601695Y-3282404D01*
X-9462500Y-3322844D01*
X-9462500Y-2634000D01*
X-9442815Y-2566961D01*
X-9390011Y-2521206D01*
X-9338500Y-2510000D01*
X-9086500Y-2510000D01*
X-9019461Y-2529685D01*
X-8973706Y-2582489D01*
X-8962500Y-2634000D01*
X-8962500Y-3322843D01*
X-8823306Y-3282404D01*
X-8685215Y-3200738D01*
X-8685206Y-3200731D01*
X-8571769Y-3087294D01*
X-8571762Y-3087285D01*
X-8490094Y-2949191D01*
X-8490093Y-2949188D01*
X-8445334Y-2795129D01*
X-8445333Y-2795123D01*
X-8442501Y-2759135D01*
X-8442500Y-2759120D01*
X-8442500Y-2736395D01*
X-8422815Y-2669356D01*
X-8370011Y-2623601D01*
X-8300853Y-2613657D01*
X-8256504Y-2629006D01*
X-8214587Y-2653207D01*
X-8112727Y-2680500D01*
X-8112725Y-2680500D01*
X-8007275Y-2680500D01*
X-8007273Y-2680500D01*
X-7905413Y-2653207D01*
X-7814087Y-2600480D01*
X-7739520Y-2525913D01*
X-7686793Y-2434587D01*
X-7659500Y-2332727D01*
X-7659500Y-2227273D01*
X-7659500Y-2224433D01*
X-7659735Y-2223803D01*
X-7659500Y-2222722D01*
X-7659500Y-2219146D01*
X-7658722Y-2219146D01*
X-7653063Y-2193138D01*
X-7648228Y-2162121D01*
X-7645457Y-2158179D01*
X-7644880Y-2155531D01*
X-7623728Y-2127278D01*
X-7613263Y-2116814D01*
X-7551938Y-2083332D01*
X-7525586Y-2080499D01*
X-7145144Y-2080499D01*
X-7145136Y-2080499D01*
X-7145121Y-2080497D01*
X-7145118Y-2080497D01*
X-7120013Y-2077586D01*
X-7120012Y-2077585D01*
X-7120009Y-2077585D01*
X-7017235Y-2032206D01*
X-6937794Y-1952765D01*
X-6892415Y-1849991D01*
X-6889500Y-1824865D01*
X-6889501Y-1435136D01*
X-6891116Y-1421206D01*
X-6892414Y-1410012D01*
X-6892415Y-1410010D01*
X-6892415Y-1410009D01*
X-6937794Y-1307235D01*
X-7017235Y-1227794D01*
X-7058667Y-1209500D01*
X-7107509Y-1187934D01*
X-7115025Y-1181585D01*
X-7124461Y-1178815D01*
X-7141270Y-1159416D01*
X-7160885Y-1142848D01*
X-7163776Y-1133443D01*
X-7170216Y-1126011D01*
X-7173870Y-1100602D01*
X-7181412Y-1076062D01*
X-7178760Y-1066589D01*
X-7180160Y-1056853D01*
X-7169496Y-1033501D01*
X-7162574Y-1008780D01*
X-7155222Y-1002244D01*
X-7151135Y-993297D01*
X-7129539Y-979417D01*
X-7110350Y-962363D01*
X-7099065Y-959833D01*
X-7092357Y-955523D01*
X-7057422Y-950500D01*
X-6876989Y-950500D01*
X-6809950Y-970185D01*
X-6764195Y-1022989D01*
X-6763608Y-1024295D01*
X-6742206Y-1072765D01*
X-6662765Y-1152206D01*
X-6559991Y-1197585D01*
X-6534865Y-1200500D01*
X-5270136Y-1200499D01*
X-5270121Y-1200497D01*
X-5270118Y-1200497D01*
X-5245013Y-1197586D01*
X-5245012Y-1197585D01*
X-5245009Y-1197585D01*
X-5142235Y-1152206D01*
X-5062794Y-1072765D01*
X-5017415Y-969991D01*
X-5014500Y-944865D01*
X-5014501Y-708410D01*
X-4994817Y-641372D01*
X-4942013Y-595617D01*
X-4872854Y-585673D01*
X-4809299Y-614698D01*
X-4802820Y-620730D01*
X-4693575Y-729975D01*
X-4619883Y-760499D01*
X-4608599Y-765173D01*
X-4610199Y-769033D01*
X-4568680Y-790743D01*
X-4534097Y-851454D01*
X-4537826Y-921224D01*
X-4578684Y-977902D01*
X-4579282Y-978364D01*
X-4705093Y-1074903D01*
X-4797266Y-1195024D01*
X-4800980Y-1201457D01*
X-4820679Y-1227127D01*
X-5113574Y-1520025D01*
X-5169976Y-1576427D01*
X-5200500Y-1650117D01*
X-5200500Y-2005500D01*
X-5203051Y-2014185D01*
X-5201762Y-2023147D01*
X-5212741Y-2047187D01*
X-5220185Y-2072539D01*
X-5227026Y-2078466D01*
X-5230787Y-2086703D01*
X-5253022Y-2100992D01*
X-5272989Y-2118294D01*
X-5283504Y-2120581D01*
X-5289565Y-2124477D01*
X-5324500Y-2129500D01*
X-5375980Y-2129500D01*
X-5443019Y-2109815D01*
X-5488774Y-2057011D01*
X-5498919Y-2021688D01*
X-5499500Y-2017280D01*
X-5499500Y-2017273D01*
X-5526793Y-1915413D01*
X-5579520Y-1824087D01*
X-5654087Y-1749520D01*
X-5745413Y-1696793D01*
X-5847273Y-1669500D01*
X-5952727Y-1669500D01*
X-6054587Y-1696793D01*
X-6054590Y-1696794D01*
X-6145915Y-1749521D01*
X-6220479Y-1824085D01*
X-6273206Y-1915410D01*
X-6273207Y-1915413D01*
X-6300500Y-2017273D01*
X-6301081Y-2021688D01*
X-6329349Y-2085584D01*
X-6387675Y-2124054D01*
X-6424019Y-2129500D01*
X-6534858Y-2129500D01*
X-6534881Y-2129502D01*
X-6559989Y-2132414D01*
X-6559992Y-2132415D01*
X-6662765Y-2177793D01*
X-6742206Y-2257234D01*
X-6787585Y-2360006D01*
X-6787585Y-2360008D01*
X-6790500Y-2385131D01*
X-6790500Y-2774856D01*
X-6790498Y-2774882D01*
X-6787587Y-2799987D01*
X-6787585Y-2799991D01*
X-6742207Y-2902764D01*
X-6720528Y-2924443D01*
X-6687043Y-2985766D01*
X-6692027Y-3055458D01*
X-6697316Y-3066685D01*
X-6699322Y-3071528D01*
X-6726615Y-3173388D01*
X-6726615Y-3278842D01*
X-6699322Y-3380702D01*
X-6651518Y-3463502D01*
X-6635045Y-3531400D01*
X-6657897Y-3597427D01*
X-6712818Y-3640617D01*
X-6758905Y-3649500D01*
X-7359884Y-3649500D01*
X-7433575Y-3680024D01*
X-8363574Y-4610023D01*
X-8363574Y-4610024D01*
X-8373550Y-4620000D01*
X-8402341Y-4648790D01*
X-8442566Y-4675667D01*
X-8558127Y-4723535D01*
X-8558134Y-4723538D01*
X-8664669Y-4794723D01*
X-8669898Y-4799952D01*
X-8731223Y-4833434D01*
X-8800915Y-4828445D01*
X-8856846Y-4786571D01*
X-8872250Y-4752021D01*
X-8873558Y-4752564D01*
X-8878233Y-4741281D01*
X-8878233Y-4741278D01*
X-8911496Y-4691496D01*
X-8911497Y-4691495D01*
X-8961276Y-4658234D01*
X-8961283Y-4658231D01*
X-9005178Y-4649500D01*
X-9005180Y-4649500D01*
X-10034820Y-4649500D01*
X-10034822Y-4649500D01*
X-10078718Y-4658231D01*
X-10078725Y-4658234D01*
X-10128504Y-4691495D01*
X-10128505Y-4691496D01*
X-10161766Y-4741275D01*
X-10161769Y-4741282D01*
X-10170500Y-4785177D01*
X-10170500Y-4785180D01*
X-10170500Y-5814820D01*
X-10170500Y-5814822D01*
X-10170501Y-5814822D01*
X-10161769Y-5858717D01*
X-10161768Y-5858720D01*
X-10161768Y-5858721D01*
X-10161767Y-5858722D01*
X-10129769Y-5906611D01*
X-10108892Y-5973287D01*
X-10127377Y-6040667D01*
X-10179356Y-6087357D01*
X-10232872Y-6099500D01*
X-17993039Y-6099500D01*
X-18006923Y-6098720D01*
X-18007784Y-6098623D01*
X-18025152Y-6096666D01*
X-18119516Y-6086033D01*
X-18146586Y-6079855D01*
X-18246926Y-6044745D01*
X-18271944Y-6032697D01*
X-18361954Y-5976140D01*
X-18383663Y-5958827D01*
X-18458828Y-5883662D01*
X-18476141Y-5861953D01*
X-18478409Y-5858344D01*
X-18532699Y-5771941D01*
X-18544746Y-5746925D01*
X-18546948Y-5740633D01*
X-18579857Y-5646583D01*
X-18586034Y-5619514D01*
X-18586748Y-5613181D01*
X-18597078Y-5521498D01*
X-18598720Y-5506921D01*
X-18599500Y-5493038D01*
X-18599500Y-4070000D01*
X-17944862Y-4070000D01*
X-17141988Y-4070000D01*
X-17159205Y-4079940D01*
X-17215060Y-4135795D01*
X-17254556Y-4204204D01*
X-17275000Y-4280504D01*
X-17275000Y-4359496D01*
X-17254556Y-4435796D01*
X-17215060Y-4504205D01*
X-17159205Y-4560060D01*
X-17141988Y-4570000D01*
X-17944862Y-4570000D01*
X-17936570Y-4611690D01*
X-17936570Y-4611692D01*
X-17861193Y-4793671D01*
X-17861186Y-4793684D01*
X-17751752Y-4957462D01*
X-17751749Y-4957466D01*
X-17612467Y-5096748D01*
X-17612463Y-5096751D01*
X-17448685Y-5206185D01*
X-17448672Y-5206192D01*
X-17266694Y-5281569D01*
X-17266682Y-5281572D01*
X-17073496Y-5319999D01*
X-17073492Y-5320000D01*
X-16825000Y-5320000D01*
X-16825000Y-4620000D01*
X-16325000Y-4620000D01*
X-16325000Y-5320000D01*
X-16076508Y-5320000D01*
X-16076505Y-5319999D01*
X-15883319Y-5281572D01*
X-15883307Y-5281569D01*
X-15701329Y-5206192D01*
X-15701316Y-5206185D01*
X-15537538Y-5096751D01*
X-15537534Y-5096748D01*
X-15398252Y-4957466D01*
X-15398249Y-4957462D01*
X-15288815Y-4793684D01*
X-15288808Y-4793671D01*
X-15213431Y-4611692D01*
X-15213431Y-4611690D01*
X-15205138Y-4570000D01*
X-16008012Y-4570000D01*
X-15990795Y-4560060D01*
X-15934940Y-4504205D01*
X-15895444Y-4435796D01*
X-15875000Y-4359496D01*
X-15875000Y-4280504D01*
X-15895444Y-4204204D01*
X-15934940Y-4135795D01*
X-15990795Y-4079940D01*
X-16008012Y-4070000D01*
X-15205138Y-4070000D01*
X-15213431Y-4028309D01*
X-15213431Y-4028307D01*
X-15288808Y-3846328D01*
X-15288815Y-3846315D01*
X-15398249Y-3682537D01*
X-15398252Y-3682533D01*
X-15537534Y-3543251D01*
X-15537538Y-3543248D01*
X-15701316Y-3433814D01*
X-15701329Y-3433807D01*
X-15883307Y-3358430D01*
X-15883319Y-3358427D01*
X-16076505Y-3320000D01*
X-16325000Y-3320000D01*
X-16325000Y-4020000D01*
X-16825000Y-4020000D01*
X-16825000Y-3320000D01*
X-17073496Y-3320000D01*
X-17266682Y-3358427D01*
X-17266694Y-3358430D01*
X-17448672Y-3433807D01*
X-17448685Y-3433814D01*
X-17612463Y-3543248D01*
X-17612467Y-3543251D01*
X-17751749Y-3682533D01*
X-17751752Y-3682537D01*
X-17861186Y-3846315D01*
X-17861193Y-3846328D01*
X-17936570Y-4028307D01*
X-17936570Y-4028309D01*
X-17944862Y-4070000D01*
X-18599500Y-4070000D01*
X-18599500Y4876000D01*
X-18579815Y4943039D01*
X-18527011Y4988794D01*
X-18475500Y5000000D01*
X-17955317Y5000000D01*
X-17888278Y4980315D01*
G37*
%TD.AperFunction*%
%TA.AperFunction,Conductor*%
G36*
X2618244Y3975820D02*
G01*
X2622147Y3976381D01*
X2628691Y3975260D01*
X2654429Y3970141D01*
X2682789Y3964500D01*
X2769285Y3964501D01*
X2836323Y3944817D01*
X2882079Y3892014D01*
X2892023Y3822855D01*
X2889061Y3808410D01*
X2879500Y3772727D01*
X2879500Y3667273D01*
X2903019Y3579500D01*
X2906793Y3565414D01*
X2906794Y3565411D01*
X2909630Y3560499D01*
X2959520Y3474087D01*
X3034087Y3399520D01*
X3125413Y3346793D01*
X3227273Y3319500D01*
X3227275Y3319500D01*
X3332725Y3319500D01*
X3332727Y3319500D01*
X3343404Y3322361D01*
X3413251Y3320702D01*
X3471115Y3281542D01*
X3498622Y3217315D01*
X3499500Y3202588D01*
X3499500Y2130117D01*
X3530024Y2056426D01*
X3561006Y2025444D01*
X3594491Y1964121D01*
X3589507Y1894429D01*
X3571702Y1862278D01*
X3527737Y1804981D01*
X3527736Y1804980D01*
X3469801Y1665109D01*
X3469800Y1665104D01*
X3459911Y1590001D01*
X3459912Y1590000D01*
X4568500Y1590000D01*
X4577185Y1587450D01*
X4586147Y1588738D01*
X4610187Y1577760D01*
X4635539Y1570315D01*
X4641466Y1563475D01*
X4649703Y1559713D01*
X4663992Y1537479D01*
X4681294Y1517511D01*
X4683581Y1506997D01*
X4687477Y1500935D01*
X4692500Y1466000D01*
X4692500Y1414000D01*
X4672815Y1346961D01*
X4620011Y1301206D01*
X4568500Y1290000D01*
X3459912Y1290000D01*
X3469800Y1214897D01*
X3469801Y1214892D01*
X3527736Y1075022D01*
X3619905Y954906D01*
X3740021Y862738D01*
X3744725Y860789D01*
X3799131Y816951D01*
X3807233Y803549D01*
X3815434Y787818D01*
X3817583Y777014D01*
X3833434Y753291D01*
X3836545Y747324D01*
X3842061Y719388D01*
X3850570Y692215D01*
X3848742Y685555D01*
X3850081Y678778D01*
X3839618Y652296D01*
X3832086Y624835D01*
X3829693Y621111D01*
X3817583Y602988D01*
X3804500Y537210D01*
X3804500Y342793D01*
X3817583Y277014D01*
X3817584Y277012D01*
X3829692Y258892D01*
X3850570Y192215D01*
X3832086Y124835D01*
X3829693Y121111D01*
X3817583Y102988D01*
X3804500Y37210D01*
X3804500Y-157207D01*
X3817583Y-222986D01*
X3817584Y-222987D01*
X3829693Y-241110D01*
X3850569Y-307788D01*
X3832083Y-375168D01*
X3829693Y-378888D01*
X3817583Y-397011D01*
X3804500Y-462789D01*
X3804500Y-657206D01*
X3817583Y-722985D01*
X3817584Y-722986D01*
X3829693Y-741109D01*
X3850570Y-807787D01*
X3832085Y-875167D01*
X3829693Y-878889D01*
X3817583Y-897012D01*
X3804500Y-962790D01*
X3804500Y-1157207D01*
X3817583Y-1222986D01*
X3817584Y-1222988D01*
X3821063Y-1228194D01*
X3828967Y-1240024D01*
X3829692Y-1241108D01*
X3850570Y-1307785D01*
X3832086Y-1375165D01*
X3829693Y-1378889D01*
X3817583Y-1397012D01*
X3810000Y-1435136D01*
X3804513Y-1462727D01*
X3804500Y-1462790D01*
X3804500Y-1657207D01*
X3812374Y-1696794D01*
X3817583Y-1722986D01*
X3828617Y-1739500D01*
X3829692Y-1741108D01*
X3850570Y-1807785D01*
X3832086Y-1875165D01*
X3829693Y-1878889D01*
X3817583Y-1897012D01*
X3804500Y-1962790D01*
X3804500Y-2157207D01*
X3817583Y-2222986D01*
X3817584Y-2222988D01*
X3820447Y-2227273D01*
X3867423Y-2297577D01*
X3898740Y-2318502D01*
X3942012Y-2347416D01*
X3942014Y-2347417D01*
X4007789Y-2360500D01*
X4368000Y-2360499D01*
X4376686Y-2363049D01*
X4385647Y-2361761D01*
X4409683Y-2372738D01*
X4435039Y-2380183D01*
X4440967Y-2387025D01*
X4449203Y-2390786D01*
X4463489Y-2413017D01*
X4480794Y-2432987D01*
X4483081Y-2443502D01*
X4486977Y-2449564D01*
X4492000Y-2484499D01*
X4492000Y-2663088D01*
X4472315Y-2730127D01*
X4455681Y-2750769D01*
X4453269Y-2753181D01*
X4432828Y-2764342D01*
X4419511Y-2775882D01*
X4408901Y-2777407D01*
X4391946Y-2786666D01*
X4365588Y-2789500D01*
X4070116Y-2789500D01*
X3996425Y-2820024D01*
X3996424Y-2820025D01*
X3792180Y-3024270D01*
X3730857Y-3057755D01*
X3661165Y-3052771D01*
X3605232Y-3010899D01*
X3580815Y-2945435D01*
X3580499Y-2936589D01*
X3580499Y-2787791D01*
X3578434Y-2777407D01*
X3567417Y-2722014D01*
X3517577Y-2647423D01*
X3442986Y-2597583D01*
X3442985Y-2597582D01*
X3442984Y-2597582D01*
X3431700Y-2592908D01*
X3432845Y-2590141D01*
X3387661Y-2566499D01*
X3359212Y-2524728D01*
X3357261Y-2520019D01*
X3265094Y-2399905D01*
X3144978Y-2307736D01*
X3005108Y-2249801D01*
X3005103Y-2249800D01*
X2930000Y-2239911D01*
X2930000Y-4541991D01*
X2913388Y-4603989D01*
X2906795Y-4615408D01*
X2906793Y-4615413D01*
X2879500Y-4717273D01*
X2879500Y-4822727D01*
X2891307Y-4866793D01*
X2896203Y-4885064D01*
X2894540Y-4954914D01*
X2855377Y-5012776D01*
X2791148Y-5040280D01*
X2776428Y-5041157D01*
X1997748Y-5041157D01*
X1930709Y-5021472D01*
X1906687Y-4999373D01*
X1906227Y-4999834D01*
X1825914Y-4919521D01*
X1825913Y-4919520D01*
X1734587Y-4866793D01*
X1632727Y-4839500D01*
X1601834Y-4839500D01*
X1534795Y-4819815D01*
X1489040Y-4767011D01*
X1477841Y-4714146D01*
X1478041Y-4695818D01*
X1480500Y-4689882D01*
X1480500Y-4610117D01*
X1480500Y-4470644D01*
X1480507Y-4470003D01*
X1490537Y-4437174D01*
X1500185Y-4404318D01*
X1500716Y-4403857D01*
X1500923Y-4403182D01*
X1527130Y-4380969D01*
X1552989Y-4358563D01*
X1553685Y-4358462D01*
X1554223Y-4358007D01*
X1588227Y-4353496D01*
X1622147Y-4348619D01*
X1623389Y-4348831D01*
X1623486Y-4348819D01*
X1623584Y-4348865D01*
X1628691Y-4349740D01*
X1645589Y-4353100D01*
X1682788Y-4360500D01*
X1877209Y-4360499D01*
X1942985Y-4347417D01*
X1961107Y-4335307D01*
X1973879Y-4331308D01*
X1984439Y-4323082D01*
X2006575Y-4321070D01*
X2027784Y-4314429D01*
X2042222Y-4317830D01*
X2054021Y-4316758D01*
X2075678Y-4325711D01*
X2087321Y-4328454D01*
X2093294Y-4331567D01*
X2117014Y-4347417D01*
X2127817Y-4349565D01*
X2143547Y-4357766D01*
X2156446Y-4370178D01*
X2172312Y-4378474D01*
X2186099Y-4398711D01*
X2193894Y-4406212D01*
X2195333Y-4412265D01*
X2200786Y-4420269D01*
X2202736Y-4424978D01*
X2294905Y-4545094D01*
X2415021Y-4637263D01*
X2554896Y-4695200D01*
X2554901Y-4695201D01*
X2629998Y-4705087D01*
X2630000Y-4705086D01*
X2630000Y-2239911D01*
X2629999Y-2239911D01*
X2554896Y-2249800D01*
X2554891Y-2249801D01*
X2415021Y-2307736D01*
X2294905Y-2399905D01*
X2202737Y-2520021D01*
X2200782Y-2524740D01*
X2156936Y-2579140D01*
X2143549Y-2587231D01*
X2127811Y-2595435D01*
X2117014Y-2597583D01*
X2093301Y-2613427D01*
X2087323Y-2616544D01*
X2059388Y-2622060D01*
X2032211Y-2630570D01*
X2025551Y-2628743D01*
X2018777Y-2630081D01*
X1992294Y-2619619D01*
X1964831Y-2612085D01*
X1961108Y-2609692D01*
X1942986Y-2597583D01*
X1905570Y-2590141D01*
X1877210Y-2584500D01*
X1877208Y-2584500D01*
X1682791Y-2584500D01*
X1617012Y-2597583D01*
X1617009Y-2597585D01*
X1598886Y-2609694D01*
X1532208Y-2630569D01*
X1464828Y-2612082D01*
X1461109Y-2609691D01*
X1442989Y-2597584D01*
X1442986Y-2597583D01*
X1377211Y-2584500D01*
X1377209Y-2584500D01*
X1182792Y-2584500D01*
X1117013Y-2597583D01*
X1117012Y-2597584D01*
X1098890Y-2609693D01*
X1032212Y-2630570D01*
X964832Y-2612085D01*
X961109Y-2609692D01*
X942987Y-2597583D01*
X905571Y-2590141D01*
X877211Y-2584500D01*
X877209Y-2584500D01*
X682792Y-2584500D01*
X617013Y-2597583D01*
X617012Y-2597584D01*
X598890Y-2609693D01*
X532212Y-2630570D01*
X464832Y-2612085D01*
X461109Y-2609692D01*
X442987Y-2597583D01*
X405571Y-2590141D01*
X377211Y-2584500D01*
X377209Y-2584500D01*
X182792Y-2584500D01*
X117013Y-2597583D01*
X117012Y-2597584D01*
X98890Y-2609693D01*
X32212Y-2630570D01*
X-35168Y-2612085D01*
X-38891Y-2609692D01*
X-57013Y-2597583D01*
X-94429Y-2590141D01*
X-122789Y-2584500D01*
X-122791Y-2584500D01*
X-317208Y-2584500D01*
X-382987Y-2597583D01*
X-382990Y-2597585D01*
X-401113Y-2609694D01*
X-467791Y-2630569D01*
X-535171Y-2612082D01*
X-538890Y-2609691D01*
X-557010Y-2597584D01*
X-557013Y-2597583D01*
X-622788Y-2584500D01*
X-622790Y-2584500D01*
X-817207Y-2584500D01*
X-882986Y-2597583D01*
X-882990Y-2597585D01*
X-901112Y-2609694D01*
X-967790Y-2630570D01*
X-1035170Y-2612084D01*
X-1038891Y-2609692D01*
X-1057013Y-2597583D01*
X-1094429Y-2590141D01*
X-1122789Y-2584500D01*
X-1122791Y-2584500D01*
X-1317208Y-2584500D01*
X-1382987Y-2597583D01*
X-1382988Y-2597584D01*
X-1401110Y-2609693D01*
X-1467788Y-2630570D01*
X-1535168Y-2612085D01*
X-1538891Y-2609692D01*
X-1557013Y-2597583D01*
X-1594429Y-2590141D01*
X-1622789Y-2584500D01*
X-1622791Y-2584500D01*
X-1817208Y-2584500D01*
X-1882987Y-2597583D01*
X-1882988Y-2597584D01*
X-1901110Y-2609693D01*
X-1967788Y-2630570D01*
X-2035168Y-2612085D01*
X-2038891Y-2609692D01*
X-2057013Y-2597583D01*
X-2094429Y-2590141D01*
X-2122789Y-2584500D01*
X-2122791Y-2584500D01*
X-2317208Y-2584500D01*
X-2382987Y-2597583D01*
X-2382989Y-2597584D01*
X-2457577Y-2647423D01*
X-2507417Y-2722012D01*
X-2510401Y-2737016D01*
X-2520276Y-2786666D01*
X-2520500Y-2787790D01*
X-2520500Y-3121543D01*
X-2540185Y-3188582D01*
X-2592989Y-3234337D01*
X-2662147Y-3244281D01*
X-2679095Y-3240619D01*
X-2799999Y-3205493D01*
X-2800000Y-3205494D01*
X-2800000Y-3886000D01*
X-2819685Y-3953039D01*
X-2872489Y-3998794D01*
X-2924000Y-4010000D01*
X-3176000Y-4010000D01*
X-3184686Y-4007449D01*
X-3193647Y-4008738D01*
X-3217688Y-3997759D01*
X-3243039Y-3990315D01*
X-3248967Y-3983474D01*
X-3257203Y-3979713D01*
X-3271493Y-3957478D01*
X-3288794Y-3937511D01*
X-3291082Y-3926996D01*
X-3294977Y-3920935D01*
X-3300000Y-3886000D01*
X-3300000Y-3732649D01*
X-3283388Y-3670650D01*
X-3256793Y-3624587D01*
X-3229500Y-3522727D01*
X-3229500Y-3417273D01*
X-3256793Y-3315413D01*
X-3309520Y-3224087D01*
X-3384087Y-3149520D01*
X-3475413Y-3096793D01*
X-3577273Y-3069500D01*
X-3682727Y-3069500D01*
X-3685500Y-3069500D01*
X-3752539Y-3049815D01*
X-3798294Y-2997011D01*
X-3809500Y-2945500D01*
X-3809500Y-2571912D01*
X-3800856Y-2542471D01*
X-3794332Y-2512485D01*
X-3790578Y-2507469D01*
X-3789815Y-2504873D01*
X-3773181Y-2484231D01*
X-3685768Y-2396818D01*
X-3624445Y-2363333D01*
X-3598087Y-2360499D01*
X-2947792Y-2360499D01*
X-2947790Y-2360499D01*
X-2882014Y-2347417D01*
X-2807423Y-2297577D01*
X-2757583Y-2222986D01*
X-2757583Y-2222984D01*
X-2752910Y-2211704D01*
X-2750143Y-2212850D01*
X-2726513Y-2167674D01*
X-2684729Y-2139212D01*
X-2680019Y-2137260D01*
X-2559906Y-2045094D01*
X-2467737Y-1924978D01*
X-2409802Y-1785108D01*
X-2409801Y-1785103D01*
X-2399912Y-1710000D01*
X-3508500Y-1710000D01*
X-3517186Y-1707449D01*
X-3526147Y-1708738D01*
X-3550188Y-1697759D01*
X-3575539Y-1690315D01*
X-3581467Y-1683474D01*
X-3589703Y-1679713D01*
X-3603993Y-1657478D01*
X-3621294Y-1637511D01*
X-3623582Y-1626996D01*
X-3627477Y-1620935D01*
X-3632500Y-1586000D01*
X-3632500Y-1534000D01*
X-3612815Y-1466961D01*
X-3560011Y-1421206D01*
X-3508500Y-1410000D01*
X-2399912Y-1410000D01*
X-2399912Y-1409999D01*
X-2409801Y-1334896D01*
X-2409802Y-1334891D01*
X-2467737Y-1195021D01*
X-2559906Y-1074905D01*
X-2680024Y-982735D01*
X-2684730Y-980786D01*
X-2739134Y-936946D01*
X-2747232Y-923549D01*
X-2755435Y-907814D01*
X-2757583Y-897014D01*
X-2773432Y-873294D01*
X-2776545Y-867323D01*
X-2782063Y-839386D01*
X-2790571Y-812212D01*
X-2788744Y-805552D01*
X-2790082Y-798777D01*
X-2779620Y-772292D01*
X-2772086Y-744832D01*
X-2769707Y-741129D01*
X-2757583Y-722985D01*
X-2744500Y-657210D01*
X-2744501Y-462789D01*
X-2753563Y-417226D01*
X-2747334Y-347636D01*
X-2704470Y-292460D01*
X-2638579Y-269217D01*
X-2615751Y-270101D01*
X-2612732Y-270498D01*
X-2612727Y-270500D01*
X-2612722Y-270500D01*
X-2507275Y-270500D01*
X-2507273Y-270500D01*
X-2405413Y-243207D01*
X-2314087Y-190480D01*
X-2239520Y-115913D01*
X-2186793Y-24587D01*
X-2159500Y77273D01*
X-2159500Y182727D01*
X-2186793Y284587D01*
X-2239520Y375913D01*
X-2314087Y450480D01*
X-2380941Y489078D01*
X-2405411Y503206D01*
X-2405412Y503207D01*
X-2405413Y503207D01*
X-2507273Y530500D01*
X-2612727Y530500D01*
X-2615565Y530500D01*
X-2616192Y530266D01*
X-2617268Y530500D01*
X-2620854Y530500D01*
X-2620854Y531281D01*
X-2646882Y536943D01*
X-2677910Y541787D01*
X-2681832Y544546D01*
X-2684465Y545118D01*
X-2712719Y566269D01*
X-2752068Y605618D01*
X-2785553Y666941D01*
X-2780569Y736633D01*
X-2767489Y762191D01*
X-2757583Y777014D01*
X-2744500Y842789D01*
X-2744501Y1037210D01*
X-2757583Y1102986D01*
X-2757585Y1102988D01*
X-2757585Y1102990D01*
X-2769692Y1121108D01*
X-2790571Y1187785D01*
X-2772087Y1255165D01*
X-2769707Y1258870D01*
X-2757583Y1277014D01*
X-2744500Y1342789D01*
X-2744501Y1537210D01*
X-2757583Y1602986D01*
X-2769693Y1621109D01*
X-2790570Y1687785D01*
X-2772086Y1755165D01*
X-2769692Y1758890D01*
X-2762130Y1770208D01*
X-2757583Y1777013D01*
X-2744500Y1842788D01*
X-2744501Y2037209D01*
X-2755262Y2091314D01*
X-2749033Y2160902D01*
X-2706169Y2216079D01*
X-2640279Y2239322D01*
X-2633644Y2239500D01*
X783524Y2239500D01*
X850563Y2219815D01*
X873058Y2199120D01*
X873773Y2199834D01*
X879520Y2194087D01*
X954087Y2119520D01*
X1045413Y2066793D01*
X1147273Y2039500D01*
X1147275Y2039500D01*
X1252725Y2039500D01*
X1252727Y2039500D01*
X1354587Y2066793D01*
X1445913Y2119520D01*
X1520480Y2194087D01*
X1573207Y2285413D01*
X1600500Y2387273D01*
X1600500Y2492727D01*
X1576202Y2583410D01*
X1577865Y2653256D01*
X1617027Y2711119D01*
X1681256Y2738623D01*
X1695977Y2739500D01*
X1939880Y2739500D01*
X1939882Y2739500D01*
X2013574Y2770024D01*
X2449976Y3206426D01*
X2480500Y3280118D01*
X2480500Y3359882D01*
X2480500Y3853644D01*
X2486435Y3873858D01*
X2487563Y3894895D01*
X2496082Y3906710D01*
X2500185Y3920682D01*
X2516104Y3934477D01*
X2528429Y3951568D01*
X2541984Y3956902D01*
X2552989Y3966437D01*
X2573841Y3969436D01*
X2593447Y3977149D01*
X2618244Y3975820D01*
G37*
%TD.AperFunction*%
%TA.AperFunction,Conductor*%
G36*
X5745116Y-2164114D02*
G01*
X5769527Y-2183077D01*
X5933181Y-2346731D01*
X5966666Y-2408054D01*
X5969500Y-2434412D01*
X5969500Y-2879883D01*
X6000024Y-2953574D01*
X6213181Y-3166731D01*
X6246666Y-3228054D01*
X6249500Y-3254412D01*
X6249500Y-3567615D01*
X6249502Y-3567638D01*
X6252269Y-3591495D01*
X6252269Y-3591498D01*
X6295380Y-3689135D01*
X6295383Y-3689139D01*
X6295384Y-3689141D01*
X6370859Y-3764616D01*
X6370862Y-3764617D01*
X6370863Y-3764618D01*
X6468499Y-3807729D01*
X6468500Y-3807729D01*
X6468502Y-3807730D01*
X6492377Y-3810500D01*
X6847622Y-3810499D01*
X6863539Y-3808653D01*
X6871490Y-3807731D01*
X6871490Y-3807730D01*
X6871498Y-3807730D01*
X6871504Y-3807726D01*
X6877626Y-3806062D01*
X6900026Y-3806508D01*
X6922029Y-3802279D01*
X6934283Y-3807191D01*
X6947482Y-3807455D01*
X6966084Y-3819940D01*
X6986881Y-3828278D01*
X6998808Y-3841904D01*
X7005496Y-3846393D01*
X7011225Y-3853833D01*
X7079891Y-3950358D01*
X7088047Y-3973962D01*
X7100015Y-3995879D01*
X7099261Y-4006413D01*
X7102711Y-4016396D01*
X7096812Y-4040660D01*
X7095031Y-4065571D01*
X7088156Y-4076267D01*
X7086207Y-4084288D01*
X7077943Y-4092159D01*
X7066531Y-4109918D01*
X6998939Y-4177511D01*
X6814267Y-4362182D01*
X6752947Y-4395666D01*
X6726588Y-4398500D01*
X6553411Y-4398500D01*
X6486372Y-4378815D01*
X6465730Y-4362181D01*
X6382534Y-4278985D01*
X6263574Y-4160024D01*
X6205080Y-4135795D01*
X6189883Y-4129500D01*
X6189882Y-4129500D01*
X5719882Y-4129500D01*
X5640118Y-4129500D01*
X5640116Y-4129500D01*
X5566425Y-4160024D01*
X5566424Y-4160025D01*
X5512769Y-4213681D01*
X5485841Y-4228384D01*
X5460023Y-4244977D01*
X5453822Y-4245868D01*
X5451446Y-4247166D01*
X5425088Y-4250000D01*
X5194000Y-4250000D01*
X5126961Y-4230315D01*
X5081206Y-4177511D01*
X5070000Y-4126000D01*
X5070000Y-4000000D01*
X4944000Y-4000000D01*
X4876961Y-3980315D01*
X4831206Y-3927511D01*
X4820000Y-3876000D01*
X4820000Y-3195494D01*
X5320000Y-3195494D01*
X5320000Y-3750000D01*
X5848790Y-3750000D01*
X5847145Y-3729089D01*
X5802031Y-3573804D01*
X5719721Y-3434625D01*
X5719714Y-3434616D01*
X5605383Y-3320285D01*
X5605374Y-3320278D01*
X5466193Y-3237967D01*
X5466190Y-3237965D01*
X5320001Y-3195493D01*
X5320000Y-3195494D01*
X4820000Y-3195494D01*
X4796083Y-3177537D01*
X4754292Y-3121544D01*
X4749407Y-3051845D01*
X4782854Y-2990695D01*
X4862476Y-2911074D01*
X4893000Y-2837382D01*
X4893000Y-2757618D01*
X4893000Y-2484499D01*
X4912685Y-2417460D01*
X4965489Y-2371705D01*
X5017000Y-2360499D01*
X5377208Y-2360499D01*
X5377210Y-2360499D01*
X5442986Y-2347417D01*
X5517577Y-2297577D01*
X5564553Y-2227273D01*
X5574203Y-2212831D01*
X5575193Y-2213492D01*
X5611123Y-2168904D01*
X5677416Y-2146837D01*
X5745116Y-2164114D01*
G37*
%TD.AperFunction*%
%TA.AperFunction,Conductor*%
G36*
X14542539Y-3345185D02*
G01*
X14588294Y-3397989D01*
X14599500Y-3449500D01*
X14599500Y-3821000D01*
X14579815Y-3888039D01*
X14527011Y-3933794D01*
X14475500Y-3945000D01*
X13320580Y-3945000D01*
X13253541Y-3925315D01*
X13207786Y-3872511D01*
X13197842Y-3803353D01*
X13200801Y-3788921D01*
X13210500Y-3752727D01*
X13210500Y-3647273D01*
X13183207Y-3545413D01*
X13163626Y-3511498D01*
X13147154Y-3443601D01*
X13170006Y-3377574D01*
X13224927Y-3334383D01*
X13271014Y-3325500D01*
X14475500Y-3325500D01*
X14542539Y-3345185D01*
G37*
%TD.AperFunction*%
%TA.AperFunction,Conductor*%
G36*
X8983039Y-2169685D02*
G01*
X9028794Y-2222489D01*
X9040000Y-2274000D01*
X9040000Y-2526000D01*
X9020315Y-2593039D01*
X8967511Y-2638794D01*
X8916000Y-2650000D01*
X7814000Y-2650000D01*
X7746961Y-2630315D01*
X7701206Y-2577511D01*
X7690000Y-2526000D01*
X7690000Y-2274000D01*
X7709685Y-2206961D01*
X7762489Y-2161206D01*
X7814000Y-2150000D01*
X8916000Y-2150000D01*
X8983039Y-2169685D01*
G37*
%TD.AperFunction*%
%TA.AperFunction,Conductor*%
G36*
X13093039Y2520315D02*
G01*
X13138794Y2467511D01*
X13150000Y2416000D01*
X13150000Y1405000D01*
X14475500Y1405000D01*
X14484185Y1402450D01*
X14493147Y1403738D01*
X14517187Y1392760D01*
X14542539Y1385315D01*
X14548466Y1378475D01*
X14556703Y1374713D01*
X14570992Y1352479D01*
X14588294Y1332511D01*
X14590581Y1321997D01*
X14594477Y1315935D01*
X14599500Y1281000D01*
X14599500Y1259000D01*
X14579815Y1191961D01*
X14527011Y1146206D01*
X14475500Y1135000D01*
X13150000Y1135000D01*
X13150000Y-1135000D01*
X14475500Y-1135000D01*
X14542539Y-1154685D01*
X14588294Y-1207489D01*
X14599500Y-1259000D01*
X14599500Y-1630500D01*
X14579815Y-1697539D01*
X14527011Y-1743294D01*
X14475500Y-1754500D01*
X12778335Y-1754500D01*
X12711296Y-1734815D01*
X12665541Y-1682011D01*
X12655597Y-1612853D01*
X12670947Y-1568501D01*
X12673207Y-1564587D01*
X12700500Y-1462727D01*
X12700500Y-1357273D01*
X12673207Y-1255413D01*
X12672210Y-1253686D01*
X12666612Y-1243989D01*
X12650000Y-1181991D01*
X12650000Y-250000D01*
X10699999Y-250000D01*
X10698510Y-251489D01*
X10637186Y-284974D01*
X10567495Y-279988D01*
X10511562Y-238116D01*
X10505291Y-228903D01*
X10482317Y-191656D01*
X10358345Y-67684D01*
X10283221Y-21347D01*
X10236496Y30601D01*
X10225275Y99564D01*
X10237832Y140484D01*
X10275646Y214696D01*
X10275646Y214698D01*
X10275647Y214699D01*
X10290500Y308476D01*
X10290500Y682845D01*
X10700000Y682845D01*
X10700000Y250000D01*
X12650000Y250000D01*
X12650000Y1135000D01*
X11152155Y1135000D01*
X11092627Y1128599D01*
X11092620Y1128597D01*
X10957913Y1078355D01*
X10957906Y1078351D01*
X10842812Y992191D01*
X10842809Y992188D01*
X10756649Y877094D01*
X10756645Y877087D01*
X10706403Y742380D01*
X10706401Y742373D01*
X10700000Y682845D01*
X10290500Y682845D01*
X10290500Y686149D01*
X10290499Y1071518D01*
X10289393Y1078502D01*
X10275646Y1165304D01*
X10218050Y1278342D01*
X10218048Y1278344D01*
X10214015Y1286260D01*
X10210893Y1299264D01*
X10205523Y1307620D01*
X10200500Y1342555D01*
X10200500Y1518358D01*
X10220185Y1585397D01*
X10272989Y1631152D01*
X10274273Y1631730D01*
X10307016Y1646187D01*
X10383813Y1722984D01*
X10427682Y1822338D01*
X10430500Y1846627D01*
X10430499Y2229898D01*
X10433698Y2240795D01*
X10432501Y2252091D01*
X10443364Y2273716D01*
X10450183Y2296936D01*
X10459579Y2305990D01*
X10463867Y2314524D01*
X10491380Y2336630D01*
X10512881Y2349345D01*
X10580606Y2366526D01*
X10646868Y2344365D01*
X10690630Y2289899D01*
X10700000Y2242612D01*
X10700000Y1857156D01*
X10706401Y1797628D01*
X10706403Y1797621D01*
X10756645Y1662914D01*
X10756649Y1662907D01*
X10842809Y1547813D01*
X10842812Y1547810D01*
X10957906Y1461650D01*
X10957913Y1461646D01*
X11092620Y1411404D01*
X11092627Y1411402D01*
X11152155Y1405001D01*
X11152172Y1405000D01*
X12650000Y1405000D01*
X12650000Y2416000D01*
X12669685Y2483039D01*
X12722489Y2528794D01*
X12774000Y2540000D01*
X13026000Y2540000D01*
X13093039Y2520315D01*
G37*
%TD.AperFunction*%
%TA.AperFunction,Conductor*%
G36*
X10713039Y-779685D02*
G01*
X10758794Y-832489D01*
X10770000Y-884000D01*
X10770000Y-894924D01*
X10770001Y-894929D01*
X10842809Y-992187D01*
X10842812Y-992190D01*
X10957906Y-1078350D01*
X10957913Y-1078354D01*
X11099892Y-1131309D01*
X11099261Y-1133000D01*
X11151468Y-1162717D01*
X11183864Y-1224622D01*
X11177649Y-1294215D01*
X11149932Y-1336516D01*
X10828858Y-1657590D01*
X10767535Y-1691075D01*
X10697843Y-1686091D01*
X10641910Y-1644219D01*
X10617493Y-1578755D01*
X10623472Y-1530902D01*
X10629505Y-1512696D01*
X10629506Y-1512690D01*
X10639999Y-1409986D01*
X10640000Y-1409973D01*
X10640000Y-1260000D01*
X9564000Y-1260000D01*
X9496961Y-1240315D01*
X9451206Y-1187511D01*
X9440000Y-1136000D01*
X9440000Y-884000D01*
X9459685Y-816961D01*
X9512489Y-771206D01*
X9564000Y-760000D01*
X10646000Y-760000D01*
X10713039Y-779685D01*
G37*
%TD.AperFunction*%
%TA.AperFunction,Conductor*%
G36*
X5965107Y999046D02*
G01*
X6009455Y970545D01*
X6040000Y940000D01*
X7116000Y940000D01*
X7183039Y920315D01*
X7228794Y867511D01*
X7240000Y816000D01*
X7240000Y564000D01*
X7220315Y496961D01*
X7167511Y451206D01*
X7116000Y440000D01*
X6450884Y440000D01*
X6383845Y459685D01*
X6363203Y476319D01*
X6229546Y609976D01*
X6155855Y640500D01*
X6155854Y640500D01*
X5803412Y640500D01*
X5782166Y646739D01*
X5760079Y648318D01*
X5749295Y656391D01*
X5736373Y660185D01*
X5721873Y676919D01*
X5704146Y690189D01*
X5699438Y702810D01*
X5690618Y712989D01*
X5687466Y734906D01*
X5679728Y755653D01*
X5682590Y768815D01*
X5680674Y782147D01*
X5689872Y802289D01*
X5694579Y823926D01*
X5707850Y841655D01*
X5709699Y845703D01*
X5715719Y852170D01*
X5834097Y970549D01*
X5895415Y1004030D01*
X5965107Y999046D01*
G37*
%TD.AperFunction*%
%TA.AperFunction,Conductor*%
G36*
X8525677Y2310315D02*
G01*
X8526068Y2310000D01*
X8916000Y2310000D01*
X8983039Y2290315D01*
X9028794Y2237511D01*
X9040000Y2186000D01*
X9040000Y1934000D01*
X9020315Y1866961D01*
X8967511Y1821206D01*
X8916000Y1810000D01*
X8201362Y1810000D01*
X8134323Y1829685D01*
X8133932Y1830000D01*
X7744000Y1830000D01*
X7676961Y1849685D01*
X7631206Y1902489D01*
X7620000Y1954000D01*
X7620000Y2206000D01*
X7639685Y2273039D01*
X7692489Y2318794D01*
X7744000Y2330000D01*
X8458638Y2330000D01*
X8525677Y2310315D01*
G37*
%TD.AperFunction*%
%TA.AperFunction,Conductor*%
G36*
X-10076961Y4730315D02*
G01*
X-10031206Y4677511D01*
X-10020000Y4626000D01*
X-10020000Y4500000D01*
X-9894000Y4500000D01*
X-9826961Y4480315D01*
X-9785757Y4436493D01*
X-9725757Y4329131D01*
X-9721664Y4311167D01*
X-9712834Y4294996D01*
X-9710000Y4268638D01*
X-9710000Y3564000D01*
X-9729685Y3496961D01*
X-9782489Y3451206D01*
X-9834000Y3440000D01*
X-9960000Y3440000D01*
X-9960000Y3314000D01*
X-9979685Y3246961D01*
X-10032489Y3201206D01*
X-10084000Y3190000D01*
X-10615000Y3190000D01*
X-10627181Y3177819D01*
X-10688504Y3144334D01*
X-10714862Y3141500D01*
X-11038562Y3141500D01*
X-11067488Y3133749D01*
X-11114991Y3121021D01*
X-11114992Y3121020D01*
X-11178095Y3084588D01*
X-11178095Y3084587D01*
X-11183511Y3081460D01*
X-11278653Y2986318D01*
X-11339977Y2952834D01*
X-11366334Y2950000D01*
X-11570000Y2950000D01*
X-11580185Y2939816D01*
X-11589685Y2907461D01*
X-11642489Y2861706D01*
X-11694000Y2850500D01*
X-11946000Y2850500D01*
X-12013039Y2870185D01*
X-12058794Y2922989D01*
X-12063189Y2943189D01*
X-12070000Y2950000D01*
X-12375418Y2950000D01*
X-12442457Y2969685D01*
X-12488212Y3022489D01*
X-12495192Y3041904D01*
X-12496299Y3046033D01*
X-12498497Y3054237D01*
X-12554515Y3151263D01*
X-12633737Y3230485D01*
X-12639484Y3236232D01*
X-12637640Y3238077D01*
X-12671211Y3284049D01*
X-12675368Y3353794D01*
X-12641157Y3414716D01*
X-12579441Y3447471D01*
X-12554523Y3450000D01*
X-10870000Y3450000D01*
X-10870000Y3566000D01*
X-10850315Y3633039D01*
X-10797511Y3678794D01*
X-10746000Y3690000D01*
X-10270000Y3690000D01*
X-10270000Y4250000D01*
X-10715000Y4250000D01*
X-10715000Y4194000D01*
X-10734685Y4126961D01*
X-10787489Y4081206D01*
X-10839000Y4070000D01*
X-11678012Y4070000D01*
X-11660795Y4079940D01*
X-11604940Y4135795D01*
X-11565444Y4204204D01*
X-11545000Y4280504D01*
X-11545000Y4359496D01*
X-11565444Y4435796D01*
X-11604940Y4504205D01*
X-11660795Y4560060D01*
X-11678012Y4570000D01*
X-10960000Y4570000D01*
X-10960000Y4626000D01*
X-10940315Y4693039D01*
X-10887511Y4738794D01*
X-10836000Y4750000D01*
X-10144000Y4750000D01*
X-10076961Y4730315D01*
G37*
%TD.AperFunction*%
%TA.AperFunction,Conductor*%
G36*
X-4779509Y6097604D02*
G01*
X-4772888Y6098808D01*
X-4746408Y6087884D01*
X-4718928Y6079815D01*
X-4714522Y6074731D01*
X-4708299Y6072163D01*
X-4691928Y6048655D01*
X-4673173Y6027011D01*
X-4672216Y6020350D01*
X-4668369Y6014827D01*
X-4667306Y5986205D01*
X-4663229Y5957853D01*
X-4665964Y5950084D01*
X-4665775Y5945006D01*
X-4679234Y5912382D01*
X-4679235Y5912379D01*
X-4742032Y5806196D01*
X-4742034Y5806191D01*
X-4787145Y5650919D01*
X-4787146Y5650913D01*
X-4788791Y5630001D01*
X-4788790Y5630000D01*
X-4134000Y5630000D01*
X-4066961Y5610315D01*
X-4021206Y5557511D01*
X-4010000Y5506000D01*
X-4010000Y5380000D01*
X-3884000Y5380000D01*
X-3816961Y5360315D01*
X-3771206Y5307511D01*
X-3760000Y5256000D01*
X-3760000Y4575497D01*
X-3613806Y4617969D01*
X-3576374Y4640106D01*
X-3508650Y4657290D01*
X-3442387Y4635131D01*
X-3405866Y4595377D01*
X-3370480Y4534087D01*
X-3295913Y4459520D01*
X-3204587Y4406793D01*
X-3102727Y4379500D01*
X-3102725Y4379500D01*
X-2997275Y4379500D01*
X-2997273Y4379500D01*
X-2895413Y4406793D01*
X-2804087Y4459520D01*
X-2732178Y4531430D01*
X-2670859Y4564912D01*
X-2601167Y4559928D01*
X-2545233Y4518057D01*
X-2520816Y4452593D01*
X-2520500Y4443746D01*
X-2520500Y4167793D01*
X-2507417Y4102014D01*
X-2507416Y4102012D01*
X-2499962Y4090857D01*
X-2457577Y4027423D01*
X-2404691Y3992086D01*
X-2382986Y3977583D01*
X-2371704Y3972910D01*
X-2372852Y3970141D01*
X-2327688Y3946526D01*
X-2299214Y3904731D01*
X-2297264Y3900022D01*
X-2205095Y3779906D01*
X-2084979Y3687737D01*
X-1945104Y3629800D01*
X-1945099Y3629799D01*
X-1870002Y3619913D01*
X-1870000Y3619914D01*
X-1870000Y4728500D01*
X-1867450Y4737186D01*
X-1868738Y4746147D01*
X-1857760Y4770188D01*
X-1850315Y4795539D01*
X-1843475Y4801467D01*
X-1839713Y4809703D01*
X-1817479Y4823993D01*
X-1797511Y4841294D01*
X-1786997Y4843582D01*
X-1780935Y4847477D01*
X-1746000Y4852500D01*
X-1694000Y4852500D01*
X-1626961Y4832815D01*
X-1581206Y4780011D01*
X-1570000Y4728500D01*
X-1570000Y3619914D01*
X-1569999Y3619913D01*
X-1494902Y3629799D01*
X-1494897Y3629800D01*
X-1355022Y3687737D01*
X-1234906Y3779906D01*
X-1142738Y3900021D01*
X-1140789Y3904725D01*
X-1096951Y3959131D01*
X-1083550Y3967232D01*
X-1067817Y3975435D01*
X-1057014Y3977583D01*
X-1033292Y3993435D01*
X-1027324Y3996545D01*
X-999390Y4002062D01*
X-972215Y4010571D01*
X-965555Y4008744D01*
X-958778Y4010082D01*
X-932294Y3999620D01*
X-904835Y3992087D01*
X-901108Y3989692D01*
X-882988Y3977584D01*
X-882986Y3977584D01*
X-882985Y3977583D01*
X-817210Y3964500D01*
X-622789Y3964501D01*
X-557013Y3977583D01*
X-538891Y3989693D01*
X-472214Y4010570D01*
X-404834Y3992086D01*
X-401109Y3989692D01*
X-382988Y3977584D01*
X-382986Y3977583D01*
X-317211Y3964500D01*
X-122790Y3964501D01*
X-57014Y3977583D01*
X-38892Y3989693D01*
X27782Y4010571D01*
X95163Y3992088D01*
X98891Y3989692D01*
X117011Y3977584D01*
X117013Y3977584D01*
X117014Y3977583D01*
X182789Y3964500D01*
X373626Y3964501D01*
X440666Y3944817D01*
X486421Y3892013D01*
X496365Y3822855D01*
X481014Y3778501D01*
X426794Y3684590D01*
X426793Y3684587D01*
X399500Y3582727D01*
X399500Y3477273D01*
X423589Y3387373D01*
X426793Y3375414D01*
X426794Y3375411D01*
X436599Y3358428D01*
X452723Y3330500D01*
X455033Y3326500D01*
X471506Y3258600D01*
X448654Y3192573D01*
X393732Y3149382D01*
X347646Y3140500D01*
X-2633643Y3140500D01*
X-2700682Y3160185D01*
X-2746437Y3212989D01*
X-2756381Y3282147D01*
X-2755260Y3288691D01*
X-2747740Y3326500D01*
X-2744500Y3342789D01*
X-2744501Y3537210D01*
X-2757583Y3602986D01*
X-2807423Y3677577D01*
X-2865388Y3716308D01*
X-2882013Y3727417D01*
X-2914839Y3733946D01*
X-2947789Y3740500D01*
X-2947791Y3740500D01*
X-4317209Y3740500D01*
X-4382987Y3727417D01*
X-4382989Y3727416D01*
X-4457577Y3677577D01*
X-4507417Y3602988D01*
X-4514891Y3565411D01*
X-4516879Y3555413D01*
X-4520500Y3537210D01*
X-4520500Y3446106D01*
X-4540185Y3379067D01*
X-4556818Y3358425D01*
X-4634574Y3280668D01*
X-4690977Y3224266D01*
X-4722772Y3147504D01*
X-4766614Y3093100D01*
X-4832908Y3071036D01*
X-4900607Y3088316D01*
X-4944719Y3132956D01*
X-4969520Y3175913D01*
X-5044087Y3250480D01*
X-5128244Y3299068D01*
X-5135411Y3303206D01*
X-5135412Y3303207D01*
X-5135413Y3303207D01*
X-5237273Y3330500D01*
X-5342727Y3330500D01*
X-5342729Y3330500D01*
X-5440790Y3304225D01*
X-5472882Y3300000D01*
X-7522295Y3300000D01*
X-7522296Y3299999D01*
X-7522101Y3297514D01*
X-7476280Y3139796D01*
X-7473663Y3133749D01*
X-7465102Y3064406D01*
X-7495390Y3001442D01*
X-7554911Y2964849D01*
X-7587463Y2960500D01*
X-7885588Y2960500D01*
X-7952627Y2980185D01*
X-7973269Y2996819D01*
X-8533182Y3556732D01*
X-8566318Y3616496D01*
X-8569501Y3630271D01*
X-8569501Y3653372D01*
X-8572318Y3677662D01*
X-8616187Y3777016D01*
X-8639173Y3800002D01*
X-7522296Y3800002D01*
X-7522295Y3800000D01*
X-6612500Y3800000D01*
X-6112500Y3800000D01*
X-5202705Y3800000D01*
X-5202705Y3800002D01*
X-5202900Y3802487D01*
X-5248719Y3960199D01*
X-5332315Y4101553D01*
X-5332322Y4101562D01*
X-5448439Y4217679D01*
X-5448448Y4217686D01*
X-5589804Y4301283D01*
X-5589807Y4301284D01*
X-5747505Y4347100D01*
X-5747511Y4347101D01*
X-5784351Y4350000D01*
X-6112500Y4350000D01*
X-6112500Y3800000D01*
X-6612500Y3800000D01*
X-6612500Y4350000D01*
X-6940650Y4350000D01*
X-6977490Y4347101D01*
X-6977496Y4347100D01*
X-7135194Y4301284D01*
X-7135197Y4301283D01*
X-7276553Y4217686D01*
X-7276562Y4217679D01*
X-7392679Y4101562D01*
X-7392686Y4101553D01*
X-7476282Y3960199D01*
X-7522101Y3802487D01*
X-7522296Y3800002D01*
X-8639173Y3800002D01*
X-8663182Y3824012D01*
X-8677885Y3850939D01*
X-8694477Y3876757D01*
X-8695369Y3882960D01*
X-8696666Y3885335D01*
X-8699500Y3911692D01*
X-8699500Y3925501D01*
X-8679815Y3992540D01*
X-8627011Y4038295D01*
X-8575500Y4049501D01*
X-8080144Y4049501D01*
X-8080136Y4049501D01*
X-8080121Y4049503D01*
X-8080118Y4049503D01*
X-8055013Y4052414D01*
X-8055012Y4052415D01*
X-8055009Y4052415D01*
X-7952235Y4097794D01*
X-7872794Y4177235D01*
X-7827415Y4280009D01*
X-7824500Y4305135D01*
X-7824501Y4694864D01*
X-7825129Y4700279D01*
X-7827414Y4719988D01*
X-7827415Y4719990D01*
X-7827415Y4719991D01*
X-7872794Y4822765D01*
X-7952235Y4902206D01*
X-7979881Y4914413D01*
X-8055008Y4947585D01*
X-8080132Y4950500D01*
X-8626000Y4950500D01*
X-8634686Y4953051D01*
X-8643647Y4951762D01*
X-8667688Y4962741D01*
X-8693039Y4970185D01*
X-8698967Y4977026D01*
X-8707203Y4980787D01*
X-8721493Y5003022D01*
X-8738794Y5022989D01*
X-8741082Y5033504D01*
X-8744977Y5039565D01*
X-8750000Y5074500D01*
X-8750000Y5115500D01*
X-8730315Y5182539D01*
X-8677511Y5228294D01*
X-8626000Y5239500D01*
X-7257574Y5239500D01*
X-7190535Y5219815D01*
X-7144780Y5167011D01*
X-7144141Y5165588D01*
X-7127206Y5127235D01*
X-7047765Y5047794D01*
X-6944991Y5002415D01*
X-6919865Y4999500D01*
X-5805136Y4999501D01*
X-5805121Y4999503D01*
X-5805118Y4999503D01*
X-5780013Y5002414D01*
X-5780012Y5002415D01*
X-5780009Y5002415D01*
X-5677235Y5047794D01*
X-5597794Y5127235D01*
X-5596573Y5130000D01*
X-4788790Y5130000D01*
X-4787146Y5109090D01*
X-4742032Y4953805D01*
X-4659722Y4814626D01*
X-4659715Y4814617D01*
X-4545384Y4700286D01*
X-4545375Y4700279D01*
X-4406196Y4617969D01*
X-4260000Y4575496D01*
X-4260000Y5130000D01*
X-4788790Y5130000D01*
X-5596573Y5130000D01*
X-5564249Y5203207D01*
X-5554876Y5224434D01*
X-5554876Y5224435D01*
X-5552417Y5230004D01*
X-5552417Y5230005D01*
X-5552415Y5230009D01*
X-5549500Y5255135D01*
X-5549501Y5644864D01*
X-5550098Y5650013D01*
X-5552414Y5669988D01*
X-5552415Y5669990D01*
X-5552415Y5669991D01*
X-5597794Y5772765D01*
X-5677235Y5852206D01*
X-5699567Y5862067D01*
X-5752942Y5907152D01*
X-5773469Y5973939D01*
X-5754630Y6041221D01*
X-5702407Y6087637D01*
X-5649479Y6099500D01*
X-4785967Y6099500D01*
X-4779509Y6097604D01*
G37*
%TD.AperFunction*%
%TA.AperFunction,Conductor*%
G36*
X6375025Y5636729D02*
G01*
X6384780Y5638006D01*
X6407997Y5627048D01*
X6432627Y5619815D01*
X6439068Y5612382D01*
X6447965Y5608182D01*
X6461572Y5586411D01*
X6478382Y5567011D01*
X6479781Y5557276D01*
X6484996Y5548933D01*
X6484672Y5523262D01*
X6488326Y5497853D01*
X6484239Y5488906D01*
X6484116Y5479069D01*
X6469964Y5457648D01*
X6459301Y5434297D01*
X6450000Y5427426D01*
X6445604Y5420771D01*
X6415674Y5402066D01*
X6330864Y5364619D01*
X6330856Y5364614D01*
X6255386Y5289144D01*
X6255381Y5289137D01*
X6212270Y5191501D01*
X6209500Y5167625D01*
X6209500Y4712385D01*
X6209502Y4712362D01*
X6212269Y4688505D01*
X6212269Y4688502D01*
X6255380Y4590865D01*
X6255386Y4590857D01*
X6298562Y4547681D01*
X6332047Y4486358D01*
X6327063Y4416666D01*
X6298562Y4372319D01*
X6255386Y4329144D01*
X6255381Y4329137D01*
X6212270Y4231501D01*
X6209500Y4207625D01*
X6209500Y3752385D01*
X6209502Y3752366D01*
X6209974Y3748293D01*
X6198137Y3679433D01*
X6174479Y3646339D01*
X5792180Y3264040D01*
X5730857Y3230555D01*
X5661165Y3235539D01*
X5605232Y3277411D01*
X5580815Y3342875D01*
X5580499Y3351695D01*
X5580499Y3537210D01*
X5567417Y3602986D01*
X5567416Y3602988D01*
X5565034Y3614964D01*
X5568275Y3615609D01*
X5562937Y3665220D01*
X5594206Y3727702D01*
X5597234Y3730842D01*
X5620480Y3754087D01*
X5673207Y3845413D01*
X5700500Y3947273D01*
X5700500Y4052727D01*
X5673207Y4154587D01*
X5620480Y4245913D01*
X5545913Y4320480D01*
X5454587Y4373207D01*
X5454585Y4373208D01*
X5451340Y4374077D01*
X5448911Y4375558D01*
X5447080Y4376316D01*
X5447198Y4376602D01*
X5391680Y4410444D01*
X5361153Y4473292D01*
X5369450Y4542667D01*
X5413937Y4596544D01*
X5448846Y4612929D01*
X5466196Y4617970D01*
X5605374Y4700279D01*
X5605383Y4700286D01*
X5719714Y4814617D01*
X5719721Y4814626D01*
X5802031Y4953805D01*
X5802033Y4953810D01*
X5847144Y5109082D01*
X5847145Y5109088D01*
X5848790Y5130000D01*
X5320000Y5130000D01*
X5320000Y4515136D01*
X5300315Y4448097D01*
X5247511Y4402342D01*
X5228094Y4395361D01*
X5145411Y4373207D01*
X5145410Y4373206D01*
X5054085Y4320479D01*
X4979521Y4245915D01*
X4926794Y4154590D01*
X4926793Y4154587D01*
X4899500Y4052727D01*
X4899500Y3944438D01*
X4899734Y3943810D01*
X4899500Y3942735D01*
X4899500Y3939146D01*
X4898719Y3939146D01*
X4893058Y3913122D01*
X4888216Y3882099D01*
X4885455Y3878174D01*
X4884882Y3875537D01*
X4863731Y3847283D01*
X4793267Y3776819D01*
X4731944Y3743334D01*
X4705586Y3740500D01*
X4024500Y3740500D01*
X3957461Y3760185D01*
X3911706Y3812989D01*
X3900500Y3864500D01*
X3900500Y4795501D01*
X3920185Y4862540D01*
X3972989Y4908295D01*
X4024500Y4919501D01*
X4055500Y4919501D01*
X4122539Y4899816D01*
X4168294Y4847012D01*
X4179500Y4795501D01*
X4179500Y4777273D01*
X4206793Y4675413D01*
X4259520Y4584087D01*
X4334087Y4509520D01*
X4425413Y4456793D01*
X4527273Y4429500D01*
X4527275Y4429500D01*
X4632725Y4429500D01*
X4632727Y4429500D01*
X4734587Y4456793D01*
X4825913Y4509520D01*
X4900480Y4584087D01*
X4953207Y4675413D01*
X4980500Y4777273D01*
X4980500Y4882727D01*
X4953207Y4984587D01*
X4900480Y5075913D01*
X4900206Y5076187D01*
X4856318Y5120076D01*
X4841615Y5147003D01*
X4825023Y5172821D01*
X4824131Y5179024D01*
X4822834Y5181399D01*
X4820000Y5207756D01*
X4820000Y5256000D01*
X4839685Y5323039D01*
X4892489Y5368794D01*
X4944000Y5380000D01*
X5070000Y5380000D01*
X5070000Y5506000D01*
X5089685Y5573039D01*
X5142489Y5618794D01*
X5194000Y5630000D01*
X5871456Y5630000D01*
X5880715Y5635538D01*
X5911808Y5639500D01*
X6365588Y5639500D01*
X6375025Y5636729D01*
G37*
%TD.AperFunction*%
%TD*%
M02*
