%TF.GenerationSoftware,KiCad,Pcbnew,9.0.6-9.0.6~ubuntu24.04.1*%
%TF.CreationDate,2025-12-14T03:47:06+08:00*%
%TF.ProjectId,demo,64656d6f-2e6b-4696-9361-645f70636258,V1.0.1*%
%TF.SameCoordinates,PX632ea00PY5f5e100*%
%TF.FileFunction,Copper,L4,Bot*%
%TF.FilePolarity,Positive*%
%FSLAX46Y46*%
G04 Gerber Fmt 4.6, Leading zero omitted, Abs format (unit mm)*
G04 Created by KiCad (PCBNEW 9.0.6-9.0.6~ubuntu24.04.1) date 2025-12-14 03:47:06*
%MOMM*%
%LPD*%
G01*
G04 APERTURE LIST*
%TA.AperFunction,SMDPad,CuDef*%
%ADD10R,3.400000X1.270000*%
%TD*%
%TA.AperFunction,ComponentPad*%
%ADD11R,1.000000X1.000000*%
%TD*%
%TA.AperFunction,ComponentPad*%
%ADD12C,1.000000*%
%TD*%
%TA.AperFunction,HeatsinkPad*%
%ADD13O,2.100000X1.000000*%
%TD*%
%TA.AperFunction,HeatsinkPad*%
%ADD14O,1.800000X1.000000*%
%TD*%
%TA.AperFunction,ViaPad*%
%ADD15C,0.500000*%
%TD*%
%TA.AperFunction,Conductor*%
%ADD16C,0.100000*%
%TD*%
G04 APERTURE END LIST*
D10*
%TO.P,J2,2,Pin_2*%
%TO.N,Net-(J2-Pin_2)*%
X12900000Y5080000D03*
%TO.P,J2,4,Pin_4*%
%TO.N,Net-(J2-Pin_4)*%
X12900000Y2540000D03*
%TO.P,J2,6,Pin_6*%
%TO.N,Net-(J2-Pin_6)*%
X12900000Y0D03*
%TO.P,J2,8,Pin_8*%
%TO.N,/T_Tx*%
X12900000Y-2540000D03*
%TO.P,J2,10,Pin_10*%
%TO.N,Net-(J2-Pin_10)*%
X12900000Y-5080000D03*
%TD*%
D11*
%TO.P,J3,1,Pin_1*%
%TO.N,+3V3*%
X-9520000Y-5300000D03*
D12*
%TO.P,J3,2,Pin_2*%
%TO.N,/STM_JTMS*%
X-8250000Y-5300000D03*
%TO.P,J3,3,Pin_3*%
%TO.N,/STM_JTCK*%
X-6980000Y-5300000D03*
%TO.P,J3,4,Pin_4*%
%TO.N,GND*%
X-5710000Y-5300000D03*
%TD*%
D13*
%TO.P,J1,S1,SHIELD*%
%TO.N,GND*%
X-12395000Y4320000D03*
D14*
X-16575000Y4320000D03*
D13*
X-12395000Y-4320000D03*
D14*
X-16575000Y-4320000D03*
%TD*%
D15*
%TO.N,GND*%
X-17250000Y500000D03*
X2000000Y0D03*
X-16500000Y-2500000D03*
X-5200000Y4300000D03*
X-2000000Y-1000000D03*
X-15000000Y-1500000D03*
X-10800000Y2270000D03*
X-1710000Y3730000D03*
X-6400000Y4300000D03*
X-5800000Y4300000D03*
X-15000000Y1500000D03*
X-17250000Y-2500000D03*
X-15000000Y-2500000D03*
X2820000Y1440000D03*
X-370000Y-4660000D03*
X-1000000Y2000000D03*
X0Y-2000000D03*
X-17250000Y-1500000D03*
X5490000Y4670000D03*
X0Y3500000D03*
X-3030366Y-3448960D03*
X2000000Y1000000D03*
X-2070000Y-1560000D03*
X14200000Y1400000D03*
X-1000000Y-1000000D03*
X-16500000Y1500000D03*
X-5200000Y4900000D03*
X0Y-1000000D03*
X-5200000Y3600000D03*
X-15750000Y-500000D03*
X-1000000Y1000000D03*
X-1000000Y-2000000D03*
X14200000Y-1200000D03*
X-15750000Y-1500000D03*
X-1000000Y3500000D03*
X-16500000Y2500000D03*
X-1000000Y0D03*
X-17250000Y-500000D03*
X-15000000Y2500000D03*
X2780000Y-2270000D03*
X-2000000Y2000000D03*
X-15000000Y-500000D03*
X-16500000Y-1500000D03*
X-17250000Y2500000D03*
X-15750000Y2500000D03*
X-15000000Y500000D03*
X-16500000Y500000D03*
X0Y2000000D03*
X-15750000Y1500000D03*
X5070000Y-3250000D03*
X0Y0D03*
X2000000Y-1000000D03*
X-2000000Y1000000D03*
X-15750000Y500000D03*
X2000000Y2000000D03*
X14200000Y-3850000D03*
X-17250000Y1500000D03*
X0Y1000000D03*
X-16500000Y-500000D03*
X-15750000Y-2500000D03*
X2000000Y-2000000D03*
%TO.N,+3V3*%
X8126395Y3533966D03*
X-11000000Y5750000D03*
X-3630000Y-3470000D03*
X4360000Y-3390000D03*
X4580000Y4830000D03*
X-17750000Y5750000D03*
X-16250000Y5750000D03*
X-13250000Y5750000D03*
X-8060000Y-2280000D03*
X-15500000Y5750000D03*
X-14750000Y5750000D03*
X-17000000Y5750000D03*
X-3050000Y4780000D03*
X-11750000Y5750000D03*
X-12500000Y5750000D03*
X-10810000Y1310000D03*
X14200000Y3800000D03*
X-14000000Y5750000D03*
%TO.N,Net-(Q1-B)*%
X-5900000Y-2070000D03*
X-6256115Y-4540000D03*
X-6326115Y-3226115D03*
X-5290000Y2930000D03*
%TO.N,Net-(J2-Pin_6)*%
X12300000Y-1410000D03*
%TO.N,/T_Rx*%
X3280000Y3720000D03*
X3280000Y-4770000D03*
%TO.N,/T_Tx*%
X5910000Y-4800000D03*
X5300000Y4000000D03*
X12810000Y-3700000D03*
%TO.N,/T_JTMS*%
X9310000Y5640000D03*
X6642657Y-5241657D03*
X1580000Y-5240000D03*
X1200000Y2440000D03*
%TO.N,/T_NRST*%
X2630000Y-5850000D03*
X800000Y3530000D03*
%TO.N,/T_SWO*%
X8340000Y-3340000D03*
X7860000Y-4590000D03*
X-2680000Y-5850000D03*
X-2560000Y130000D03*
%TO.N,Net-(U2-PB2)*%
X8530000Y3090000D03*
X8480000Y5830000D03*
%TO.N,Net-(J2-Pin_4)*%
X12740000Y3710000D03*
%TO.N,Net-(J2-Pin_10)*%
X10770000Y-5080000D03*
%TO.N,Net-(J2-Pin_2)*%
X12190000Y4094998D03*
%TD*%
D16*
%TO.N,Net-(Q1-B)*%
X-6326115Y-4470000D02*
X-6256115Y-4540000D01*
X-5900000Y-1810000D02*
X-5290000Y-1200000D01*
X-5290000Y-1200000D02*
X-5290000Y2930000D01*
X-5900000Y-2070000D02*
X-5900000Y-1810000D01*
X-6326115Y-3226115D02*
X-6326115Y-4470000D01*
%TO.N,Net-(J2-Pin_6)*%
X12730000Y-1410000D02*
X13165500Y-974500D01*
X13165500Y-974500D02*
X13165500Y0D01*
X12300000Y-1410000D02*
X12730000Y-1410000D01*
%TO.N,/T_Rx*%
X3280000Y3720000D02*
X3280000Y-4770000D01*
%TO.N,/T_Tx*%
X12810000Y-3700000D02*
X12810000Y-3691000D01*
X5910000Y-4800000D02*
X5910000Y3390000D01*
X13165500Y-3335500D02*
X13165500Y-2540000D01*
X5910000Y3390000D02*
X5300000Y4000000D01*
X12810000Y-3691000D02*
X13165500Y-3335500D01*
%TO.N,/T_JTMS*%
X1200000Y-4860000D02*
X1200000Y2440000D01*
X1580000Y-5240000D02*
X1200000Y-4860000D01*
X9310000Y-3760000D02*
X7828343Y-5241657D01*
X9310000Y5640000D02*
X9310000Y-3760000D01*
X7828343Y-5241657D02*
X6642657Y-5241657D01*
%TO.N,/T_NRST*%
X800000Y-5250000D02*
X800000Y3530000D01*
X1400000Y-5850000D02*
X800000Y-5250000D01*
X2630000Y-5850000D02*
X1400000Y-5850000D01*
%TO.N,/T_SWO*%
X-2560000Y-5730000D02*
X-2560000Y130000D01*
X8340000Y-3340000D02*
X8340000Y-4110000D01*
X8340000Y-4110000D02*
X7860000Y-4590000D01*
X-2680000Y-5850000D02*
X-2560000Y-5730000D01*
%TO.N,Net-(U2-PB2)*%
X8527395Y3700066D02*
X8070000Y4157461D01*
X8070000Y5420000D02*
X8480000Y5830000D01*
X8530000Y3580000D02*
X8527395Y3582605D01*
X8527395Y3582605D02*
X8527395Y3700066D01*
X8070000Y4157461D02*
X8070000Y5420000D01*
X8530000Y3090000D02*
X8530000Y3580000D01*
%TO.N,Net-(J2-Pin_4)*%
X12740000Y3710000D02*
X13165500Y3284500D01*
X13165500Y3284500D02*
X13165500Y2540000D01*
%TO.N,Net-(J2-Pin_10)*%
X10770000Y-5080000D02*
X13165500Y-5080000D01*
%TO.N,Net-(J2-Pin_2)*%
X12300000Y4214500D02*
X13165500Y5080000D01*
X12190000Y4094998D02*
X12300000Y4204998D01*
X12300000Y4204998D02*
X12300000Y4214500D01*
%TD*%
%TA.AperFunction,Conductor*%
%TO.N,GND*%
G36*
X8043023Y6079815D02*
G01*
X8088778Y6027011D01*
X8098722Y5957853D01*
X8095759Y5943407D01*
X8079500Y5882727D01*
X8079500Y5774440D01*
X8079734Y5773812D01*
X8079500Y5772737D01*
X8079500Y5769146D01*
X8078719Y5769146D01*
X8073059Y5743128D01*
X8068218Y5712103D01*
X8065456Y5708177D01*
X8064883Y5705539D01*
X8043732Y5677285D01*
X7956426Y5589977D01*
X7956426Y5589976D01*
X7900024Y5533574D01*
X7869500Y5459884D01*
X7869500Y4117578D01*
X7900024Y4043887D01*
X7906809Y4033733D01*
X7905476Y4032843D01*
X7932234Y3983839D01*
X7927250Y3914147D01*
X7886555Y3859105D01*
X7880477Y3854442D01*
X7805916Y3779881D01*
X7753189Y3688556D01*
X7753188Y3688553D01*
X7725895Y3586693D01*
X7725895Y3481239D01*
X7753188Y3379379D01*
X7805915Y3288053D01*
X7880482Y3213486D01*
X7971808Y3160759D01*
X8038384Y3142921D01*
X8098044Y3106556D01*
X8128573Y3043710D01*
X8129229Y3039334D01*
X8129500Y3037273D01*
X8156793Y2935413D01*
X8209520Y2844087D01*
X8284087Y2769520D01*
X8375413Y2716793D01*
X8477273Y2689500D01*
X8477275Y2689500D01*
X8582725Y2689500D01*
X8582727Y2689500D01*
X8684587Y2716793D01*
X8775913Y2769520D01*
X8850480Y2844087D01*
X8878114Y2891952D01*
X8928680Y2940166D01*
X8997287Y2953389D01*
X9062152Y2927421D01*
X9102680Y2870507D01*
X9109500Y2829950D01*
X9109500Y-3625588D01*
X9089815Y-3692627D01*
X9073181Y-3713269D01*
X8752181Y-4034269D01*
X8732744Y-4044881D01*
X8716011Y-4059382D01*
X8702679Y-4061298D01*
X8690858Y-4067754D01*
X8668771Y-4066174D01*
X8646853Y-4069326D01*
X8634601Y-4063730D01*
X8621166Y-4062770D01*
X8603439Y-4049499D01*
X8583297Y-4040301D01*
X8576014Y-4028969D01*
X8565233Y-4020898D01*
X8557495Y-4000152D01*
X8545523Y-3981523D01*
X8542371Y-3959604D01*
X8540816Y-3955434D01*
X8540500Y-3946588D01*
X8540500Y-3756476D01*
X8560185Y-3689437D01*
X8580880Y-3666941D01*
X8580166Y-3666227D01*
X8610480Y-3635913D01*
X8660480Y-3585913D01*
X8713207Y-3494587D01*
X8740500Y-3392727D01*
X8740500Y-3287273D01*
X8713207Y-3185413D01*
X8660480Y-3094087D01*
X8585913Y-3019520D01*
X8494587Y-2966793D01*
X8392727Y-2939500D01*
X8287273Y-2939500D01*
X8185413Y-2966793D01*
X8185410Y-2966794D01*
X8094085Y-3019521D01*
X8019521Y-3094085D01*
X7966794Y-3185410D01*
X7966793Y-3185413D01*
X7939500Y-3287273D01*
X7939500Y-3392727D01*
X7966793Y-3494587D01*
X8017336Y-3582131D01*
X8019521Y-3585914D01*
X8096090Y-3662483D01*
X8096703Y-3662763D01*
X8097301Y-3663694D01*
X8099834Y-3666227D01*
X8099283Y-3666777D01*
X8113677Y-3689176D01*
X8132187Y-3714523D01*
X8133013Y-3719263D01*
X8134477Y-3721541D01*
X8139500Y-3756476D01*
X8139500Y-3975587D01*
X8119815Y-4042626D01*
X8103181Y-4063269D01*
X8012717Y-4153732D01*
X7951393Y-4187216D01*
X7920854Y-4188490D01*
X7920854Y-4189500D01*
X7807273Y-4189500D01*
X7705413Y-4216793D01*
X7705410Y-4216794D01*
X7614085Y-4269521D01*
X7539521Y-4344085D01*
X7486794Y-4435410D01*
X7486793Y-4435413D01*
X7459500Y-4537273D01*
X7459500Y-4642727D01*
X7485908Y-4741282D01*
X7486793Y-4744586D01*
X7486794Y-4744589D01*
X7493626Y-4756422D01*
X7539520Y-4835913D01*
X7539523Y-4835916D01*
X7543939Y-4841671D01*
X7569133Y-4906840D01*
X7555095Y-4975285D01*
X7506281Y-5025274D01*
X7445563Y-5041157D01*
X7059133Y-5041157D01*
X6992094Y-5021472D01*
X6969598Y-5000776D01*
X6968884Y-5001491D01*
X6888571Y-4921178D01*
X6888570Y-4921177D01*
X6814565Y-4878450D01*
X6797246Y-4868451D01*
X6797245Y-4868450D01*
X6797244Y-4868450D01*
X6695384Y-4841157D01*
X6589930Y-4841157D01*
X6494251Y-4866794D01*
X6488063Y-4868452D01*
X6481945Y-4870986D01*
X6412475Y-4878450D01*
X6349998Y-4847171D01*
X6314350Y-4787080D01*
X6310500Y-4756422D01*
X6310500Y-4747275D01*
X6310500Y-4747273D01*
X6283207Y-4645413D01*
X6230480Y-4554087D01*
X6155913Y-4479520D01*
X6155912Y-4479519D01*
X6150166Y-4473773D01*
X6151847Y-4472091D01*
X6117803Y-4425448D01*
X6110500Y-4383522D01*
X6110500Y3429881D01*
X6110499Y3429884D01*
X6096139Y3464552D01*
X6079976Y3503574D01*
X6023574Y3559976D01*
X5736268Y3847282D01*
X5702783Y3908605D01*
X5701511Y3939146D01*
X5700500Y3939146D01*
X5700500Y4052725D01*
X5700500Y4052727D01*
X5673207Y4154587D01*
X5620480Y4245913D01*
X5545913Y4320480D01*
X5454587Y4373207D01*
X5352727Y4400500D01*
X5247273Y4400500D01*
X5145413Y4373207D01*
X5145410Y4373206D01*
X5054085Y4320479D01*
X4979521Y4245915D01*
X4926794Y4154590D01*
X4926793Y4154587D01*
X4899500Y4052727D01*
X4899500Y3947273D01*
X4926793Y3845413D01*
X4979520Y3754087D01*
X5054087Y3679520D01*
X5145413Y3626793D01*
X5247273Y3599500D01*
X5247275Y3599500D01*
X5360854Y3599500D01*
X5360854Y3597117D01*
X5417879Y3588228D01*
X5452718Y3563732D01*
X5673181Y3343269D01*
X5706666Y3281946D01*
X5709500Y3255588D01*
X5709500Y-4383522D01*
X5689815Y-4450561D01*
X5669121Y-4473060D01*
X5669834Y-4473773D01*
X5589520Y-4554087D01*
X5536794Y-4645410D01*
X5536793Y-4645413D01*
X5509500Y-4747273D01*
X5509500Y-4852727D01*
X5536793Y-4954587D01*
X5589520Y-5045913D01*
X5664087Y-5120480D01*
X5755413Y-5173207D01*
X5857273Y-5200500D01*
X5857275Y-5200500D01*
X5962725Y-5200500D01*
X5962727Y-5200500D01*
X6064587Y-5173207D01*
X6064591Y-5173204D01*
X6070705Y-5170673D01*
X6140174Y-5163204D01*
X6202653Y-5194479D01*
X6238305Y-5254569D01*
X6242157Y-5285234D01*
X6242157Y-5294384D01*
X6267535Y-5389095D01*
X6269450Y-5396243D01*
X6269451Y-5396246D01*
X6271894Y-5400478D01*
X6322177Y-5487570D01*
X6396744Y-5562137D01*
X6488070Y-5614864D01*
X6589930Y-5642157D01*
X6589932Y-5642157D01*
X6695382Y-5642157D01*
X6695384Y-5642157D01*
X6797244Y-5614864D01*
X6888570Y-5562137D01*
X6963137Y-5487570D01*
X6963137Y-5487569D01*
X6968884Y-5481823D01*
X6970568Y-5483507D01*
X7017180Y-5449470D01*
X7059133Y-5442157D01*
X7868223Y-5442157D01*
X7868225Y-5442157D01*
X7941917Y-5411633D01*
X9406132Y-3947415D01*
X9406135Y-3947414D01*
X9423573Y-3929976D01*
X9423574Y-3929976D01*
X9479976Y-3873574D01*
X9510500Y-3799882D01*
X9510500Y5223524D01*
X9530185Y5290563D01*
X9550880Y5313059D01*
X9550166Y5313773D01*
X9589020Y5352627D01*
X9630480Y5394087D01*
X9683207Y5485413D01*
X9710500Y5587273D01*
X9710500Y5692727D01*
X9683207Y5794587D01*
X9630480Y5885913D01*
X9628574Y5887819D01*
X9627479Y5889824D01*
X9625531Y5892363D01*
X9625926Y5892667D01*
X9595089Y5949142D01*
X9600073Y6018834D01*
X9641945Y6074767D01*
X9707409Y6099184D01*
X9716255Y6099500D01*
X11103896Y6099500D01*
X11170935Y6079815D01*
X11216690Y6027011D01*
X11226634Y5957853D01*
X11197609Y5894297D01*
X11151353Y5860941D01*
X11141278Y5856768D01*
X11091496Y5823505D01*
X11091495Y5823504D01*
X11058234Y5773725D01*
X11058231Y5773718D01*
X11049500Y5729823D01*
X11049500Y5729820D01*
X11049500Y4430180D01*
X11049500Y4430178D01*
X11049499Y4430178D01*
X11058231Y4386283D01*
X11058234Y4386276D01*
X11066967Y4373206D01*
X11091496Y4336496D01*
X11141278Y4303233D01*
X11141281Y4303233D01*
X11141282Y4303232D01*
X11185177Y4294500D01*
X11185180Y4294500D01*
X11667429Y4294500D01*
X11734468Y4274815D01*
X11780223Y4222011D01*
X11790368Y4154310D01*
X11789501Y4147731D01*
X11789500Y4147725D01*
X11789500Y4042271D01*
X11816793Y3940411D01*
X11869520Y3849085D01*
X11944087Y3774518D01*
X12035413Y3721791D01*
X12137273Y3694498D01*
X12137275Y3694498D01*
X12234377Y3694498D01*
X12253449Y3688898D01*
X12273318Y3688225D01*
X12286288Y3679255D01*
X12301416Y3674813D01*
X12314432Y3659792D01*
X12330784Y3648483D01*
X12340122Y3630143D01*
X12347171Y3622009D01*
X12348850Y3618163D01*
X12352017Y3610555D01*
X12366793Y3555413D01*
X12396152Y3504561D01*
X12399232Y3497165D01*
X12402194Y3470082D01*
X12408619Y3443600D01*
X12405938Y3435855D01*
X12406829Y3427710D01*
X12394679Y3403325D01*
X12385766Y3377573D01*
X12379324Y3372508D01*
X12375670Y3365173D01*
X12352265Y3351228D01*
X12330845Y3334382D01*
X12320718Y3332431D01*
X12315648Y3329409D01*
X12306626Y3329715D01*
X12284759Y3325500D01*
X11185178Y3325500D01*
X11141282Y3316769D01*
X11141275Y3316766D01*
X11091496Y3283505D01*
X11091495Y3283504D01*
X11058234Y3233725D01*
X11058231Y3233718D01*
X11049500Y3189823D01*
X11049500Y3189820D01*
X11049500Y1890180D01*
X11049500Y1890178D01*
X11049499Y1890178D01*
X11058231Y1846283D01*
X11058232Y1846279D01*
X11058233Y1846278D01*
X11091496Y1796496D01*
X11141278Y1763233D01*
X11141281Y1763233D01*
X11141282Y1763232D01*
X11185177Y1754500D01*
X11185180Y1754500D01*
X14475500Y1754500D01*
X14542539Y1734815D01*
X14588294Y1682011D01*
X14599500Y1630500D01*
X14599500Y909500D01*
X14579815Y842461D01*
X14527011Y796706D01*
X14475500Y785500D01*
X11185178Y785500D01*
X11141282Y776769D01*
X11141275Y776766D01*
X11091496Y743505D01*
X11091495Y743504D01*
X11058234Y693725D01*
X11058231Y693718D01*
X11049500Y649823D01*
X11049500Y649820D01*
X11049500Y-649820D01*
X11049500Y-649822D01*
X11049499Y-649822D01*
X11058231Y-693717D01*
X11058232Y-693721D01*
X11058233Y-693722D01*
X11091496Y-743504D01*
X11141278Y-776767D01*
X11141281Y-776767D01*
X11141282Y-776768D01*
X11185177Y-785500D01*
X11185180Y-785500D01*
X12141379Y-785500D01*
X12208418Y-805185D01*
X12254173Y-857989D01*
X12264117Y-927147D01*
X12235092Y-990703D01*
X12176314Y-1028477D01*
X12173495Y-1029268D01*
X12145413Y-1036793D01*
X12145410Y-1036794D01*
X12054085Y-1089521D01*
X11979521Y-1164085D01*
X11926794Y-1255410D01*
X11926793Y-1255413D01*
X11899500Y-1357273D01*
X11899500Y-1462727D01*
X11920961Y-1542819D01*
X11926793Y-1564586D01*
X11926793Y-1564587D01*
X11929053Y-1568501D01*
X11945524Y-1636401D01*
X11922672Y-1702428D01*
X11867750Y-1745618D01*
X11821665Y-1754500D01*
X11185178Y-1754500D01*
X11141282Y-1763231D01*
X11141275Y-1763234D01*
X11091496Y-1796495D01*
X11091495Y-1796496D01*
X11058234Y-1846275D01*
X11058231Y-1846282D01*
X11049500Y-1890177D01*
X11049500Y-1890180D01*
X11049500Y-3189820D01*
X11049500Y-3189822D01*
X11049499Y-3189822D01*
X11058231Y-3233717D01*
X11058234Y-3233724D01*
X11088379Y-3278839D01*
X11091496Y-3283504D01*
X11141278Y-3316767D01*
X11141281Y-3316767D01*
X11141282Y-3316768D01*
X11185177Y-3325500D01*
X11185180Y-3325500D01*
X12348986Y-3325500D01*
X12416025Y-3345185D01*
X12461780Y-3397989D01*
X12471724Y-3467147D01*
X12456374Y-3511496D01*
X12436793Y-3545413D01*
X12409500Y-3647273D01*
X12409500Y-3752727D01*
X12436793Y-3854587D01*
X12489520Y-3945913D01*
X12564087Y-4020480D01*
X12634786Y-4061298D01*
X12637930Y-4063113D01*
X12686146Y-4113680D01*
X12699368Y-4182287D01*
X12673400Y-4247152D01*
X12616486Y-4287680D01*
X12575930Y-4294500D01*
X11185178Y-4294500D01*
X11141282Y-4303231D01*
X11141275Y-4303234D01*
X11091496Y-4336495D01*
X11091495Y-4336496D01*
X11058234Y-4386275D01*
X11058231Y-4386282D01*
X11049500Y-4430177D01*
X11049500Y-4578663D01*
X11029815Y-4645702D01*
X10977011Y-4691457D01*
X10907853Y-4701401D01*
X10893408Y-4698438D01*
X10822728Y-4679500D01*
X10822727Y-4679500D01*
X10717273Y-4679500D01*
X10615413Y-4706793D01*
X10615410Y-4706794D01*
X10524085Y-4759521D01*
X10449521Y-4834085D01*
X10396794Y-4925410D01*
X10396793Y-4925413D01*
X10369500Y-5027273D01*
X10369500Y-5132727D01*
X10396793Y-5234587D01*
X10449520Y-5325913D01*
X10524087Y-5400480D01*
X10615413Y-5453207D01*
X10717273Y-5480500D01*
X10717275Y-5480500D01*
X10822725Y-5480500D01*
X10822727Y-5480500D01*
X10893408Y-5461561D01*
X10963256Y-5463224D01*
X11021119Y-5502386D01*
X11048623Y-5566615D01*
X11049500Y-5581336D01*
X11049500Y-5729820D01*
X11049500Y-5729822D01*
X11049499Y-5729822D01*
X11058231Y-5773717D01*
X11058234Y-5773724D01*
X11091495Y-5823503D01*
X11091496Y-5823504D01*
X11141278Y-5856767D01*
X11151353Y-5860941D01*
X11205755Y-5904784D01*
X11227817Y-5971079D01*
X11210536Y-6038777D01*
X11159397Y-6086386D01*
X11103896Y-6099500D01*
X3139375Y-6099500D01*
X3072336Y-6079815D01*
X3026581Y-6027011D01*
X3016637Y-5957853D01*
X3019600Y-5943408D01*
X3024398Y-5925501D01*
X3030500Y-5902727D01*
X3030500Y-5797273D01*
X3003207Y-5695413D01*
X2950480Y-5604087D01*
X2875913Y-5529520D01*
X2784587Y-5476793D01*
X2682727Y-5449500D01*
X2577273Y-5449500D01*
X2475413Y-5476793D01*
X2475410Y-5476794D01*
X2384085Y-5529521D01*
X2307516Y-5606090D01*
X2307237Y-5606703D01*
X2306305Y-5607301D01*
X2303773Y-5609834D01*
X2303222Y-5609283D01*
X2280823Y-5623677D01*
X2255477Y-5642187D01*
X2250736Y-5643013D01*
X2248459Y-5644477D01*
X2213524Y-5649500D01*
X2020807Y-5649500D01*
X1953768Y-5629815D01*
X1908013Y-5577011D01*
X1898069Y-5507853D01*
X1913420Y-5463500D01*
X1913579Y-5463224D01*
X1953207Y-5394587D01*
X1980500Y-5292727D01*
X1980500Y-5187273D01*
X1953207Y-5085413D01*
X1900480Y-4994087D01*
X1825913Y-4919520D01*
X1741850Y-4870986D01*
X1734589Y-4866794D01*
X1734588Y-4866793D01*
X1734587Y-4866793D01*
X1632727Y-4839500D01*
X1527273Y-4839500D01*
X1524500Y-4839500D01*
X1457461Y-4819815D01*
X1411706Y-4767011D01*
X1400500Y-4715500D01*
X1400500Y2023524D01*
X1420185Y2090563D01*
X1440880Y2113059D01*
X1440166Y2113773D01*
X1445913Y2119520D01*
X1520480Y2194087D01*
X1573207Y2285413D01*
X1600500Y2387273D01*
X1600500Y2492727D01*
X1573207Y2594587D01*
X1520480Y2685913D01*
X1445913Y2760480D01*
X1354587Y2813207D01*
X1252727Y2840500D01*
X1147273Y2840500D01*
X1147270Y2840500D01*
X1140684Y2839633D01*
X1123784Y2842269D01*
X1106853Y2839834D01*
X1089977Y2847541D01*
X1071649Y2850399D01*
X1058856Y2861754D01*
X1043297Y2868859D01*
X1033267Y2884466D01*
X1019393Y2896780D01*
X1014578Y2913547D01*
X1005523Y2927637D01*
X1000500Y2962572D01*
X1000500Y3113524D01*
X1020185Y3180563D01*
X1040880Y3203059D01*
X1040166Y3203773D01*
X1073650Y3237257D01*
X1120480Y3284087D01*
X1173207Y3375413D01*
X1200500Y3477273D01*
X1200500Y3582727D01*
X1173207Y3684587D01*
X1122319Y3772727D01*
X2879500Y3772727D01*
X2879500Y3667273D01*
X2902155Y3582725D01*
X2906793Y3565414D01*
X2906794Y3565411D01*
X2909932Y3559976D01*
X2957679Y3477275D01*
X2959521Y3474086D01*
X3039834Y3393773D01*
X3038149Y3392089D01*
X3072187Y3345477D01*
X3079500Y3303524D01*
X3079500Y-4353522D01*
X3059815Y-4420561D01*
X3039121Y-4443060D01*
X3039834Y-4443773D01*
X2959520Y-4524087D01*
X2906794Y-4615410D01*
X2906793Y-4615413D01*
X2879500Y-4717273D01*
X2879500Y-4822727D01*
X2906793Y-4924587D01*
X2959520Y-5015913D01*
X3034087Y-5090480D01*
X3125413Y-5143207D01*
X3227273Y-5170500D01*
X3227275Y-5170500D01*
X3332725Y-5170500D01*
X3332727Y-5170500D01*
X3434587Y-5143207D01*
X3525913Y-5090480D01*
X3600480Y-5015913D01*
X3653207Y-4924587D01*
X3680500Y-4822727D01*
X3680500Y-4717273D01*
X3653207Y-4615413D01*
X3600480Y-4524087D01*
X3525913Y-4449520D01*
X3525912Y-4449519D01*
X3520166Y-4443773D01*
X3521847Y-4442091D01*
X3487803Y-4395448D01*
X3480500Y-4353522D01*
X3480500Y-3337273D01*
X3959500Y-3337273D01*
X3959500Y-3442727D01*
X3980936Y-3522726D01*
X3986793Y-3544586D01*
X3986794Y-3544589D01*
X3992243Y-3554026D01*
X4039520Y-3635913D01*
X4114087Y-3710480D01*
X4205413Y-3763207D01*
X4307273Y-3790500D01*
X4307275Y-3790500D01*
X4412725Y-3790500D01*
X4412727Y-3790500D01*
X4514587Y-3763207D01*
X4605913Y-3710480D01*
X4680480Y-3635913D01*
X4733207Y-3544587D01*
X4760500Y-3442727D01*
X4760500Y-3337273D01*
X4733207Y-3235413D01*
X4680480Y-3144087D01*
X4605913Y-3069520D01*
X4519312Y-3019521D01*
X4514589Y-3016794D01*
X4514588Y-3016793D01*
X4514587Y-3016793D01*
X4412727Y-2989500D01*
X4307273Y-2989500D01*
X4205413Y-3016793D01*
X4205410Y-3016794D01*
X4114085Y-3069521D01*
X4039521Y-3144085D01*
X3986794Y-3235410D01*
X3986793Y-3235413D01*
X3959500Y-3337273D01*
X3480500Y-3337273D01*
X3480500Y3303524D01*
X3500185Y3370563D01*
X3520880Y3393059D01*
X3520166Y3393773D01*
X3560208Y3433815D01*
X3600480Y3474087D01*
X3653207Y3565413D01*
X3680500Y3667273D01*
X3680500Y3772727D01*
X3653207Y3874587D01*
X3600480Y3965913D01*
X3525913Y4040480D01*
X3449545Y4084571D01*
X3434589Y4093206D01*
X3434588Y4093207D01*
X3434587Y4093207D01*
X3332727Y4120500D01*
X3227273Y4120500D01*
X3125413Y4093207D01*
X3125410Y4093206D01*
X3034085Y4040479D01*
X2959521Y3965915D01*
X2906794Y3874590D01*
X2906793Y3874587D01*
X2879500Y3772727D01*
X1122319Y3772727D01*
X1120480Y3775913D01*
X1045913Y3850480D01*
X954587Y3903207D01*
X852727Y3930500D01*
X747273Y3930500D01*
X645413Y3903207D01*
X645410Y3903206D01*
X554085Y3850479D01*
X479521Y3775915D01*
X426794Y3684590D01*
X426793Y3684587D01*
X399500Y3582727D01*
X399500Y3477273D01*
X426215Y3377573D01*
X426793Y3375414D01*
X426794Y3375411D01*
X436599Y3358428D01*
X478125Y3286503D01*
X479521Y3284086D01*
X559834Y3203773D01*
X558149Y3202089D01*
X592187Y3155477D01*
X599500Y3113524D01*
X599500Y-5289883D01*
X630024Y-5363574D01*
X1154269Y-5887819D01*
X1187754Y-5949142D01*
X1182770Y-6018834D01*
X1140898Y-6074767D01*
X1075434Y-6099184D01*
X1066588Y-6099500D01*
X-2170625Y-6099500D01*
X-2237664Y-6079815D01*
X-2283419Y-6027011D01*
X-2293363Y-5957853D01*
X-2290400Y-5943408D01*
X-2285602Y-5925501D01*
X-2279500Y-5902727D01*
X-2279500Y-5797273D01*
X-2306793Y-5695413D01*
X-2342888Y-5632894D01*
X-2359500Y-5570895D01*
X-2359500Y-286476D01*
X-2339815Y-219437D01*
X-2319120Y-196941D01*
X-2319834Y-196227D01*
X-2314087Y-190480D01*
X-2239520Y-115913D01*
X-2186793Y-24587D01*
X-2159500Y77273D01*
X-2159500Y182727D01*
X-2186793Y284587D01*
X-2239520Y375913D01*
X-2314087Y450480D01*
X-2405413Y503207D01*
X-2507273Y530500D01*
X-2612727Y530500D01*
X-2714587Y503207D01*
X-2714590Y503206D01*
X-2805915Y450479D01*
X-2880479Y375915D01*
X-2933206Y284590D01*
X-2933207Y284587D01*
X-2960500Y182727D01*
X-2960500Y77274D01*
X-2933207Y-24586D01*
X-2933206Y-24589D01*
X-2880479Y-115914D01*
X-2800166Y-196227D01*
X-2801851Y-197911D01*
X-2767813Y-244523D01*
X-2760500Y-286476D01*
X-2760500Y-5363250D01*
X-2780185Y-5430289D01*
X-2828087Y-5471796D01*
X-2827548Y-5472729D01*
X-2832389Y-5475523D01*
X-2832989Y-5476044D01*
X-2834213Y-5476576D01*
X-2925916Y-5529522D01*
X-3000479Y-5604085D01*
X-3053206Y-5695410D01*
X-3053207Y-5695413D01*
X-3080500Y-5797273D01*
X-3080500Y-5902728D01*
X-3069600Y-5943408D01*
X-3071263Y-6013258D01*
X-3110426Y-6071120D01*
X-3174655Y-6098623D01*
X-3189375Y-6099500D01*
X-4809531Y-6099500D01*
X-4876570Y-6079815D01*
X-4922325Y-6027011D01*
X-4932269Y-5957853D01*
X-4912633Y-5906609D01*
X-4823815Y-5773683D01*
X-4823808Y-5773671D01*
X-4748431Y-5591693D01*
X-4748428Y-5591681D01*
X-4710001Y-5398495D01*
X-4710000Y-5398492D01*
X-4710000Y-5201508D01*
X-4710001Y-5201504D01*
X-4748428Y-5008318D01*
X-4748431Y-5008306D01*
X-4823808Y-4826328D01*
X-4847428Y-4790979D01*
X-5385000Y-5328551D01*
X-5385000Y-5257213D01*
X-5407149Y-5174555D01*
X-5449936Y-5100446D01*
X-5510446Y-5039936D01*
X-5584555Y-4997149D01*
X-5667213Y-4975000D01*
X-5738554Y-4975000D01*
X-5200981Y-4437426D01*
X-5236325Y-4413809D01*
X-5236327Y-4413808D01*
X-5418307Y-4338430D01*
X-5418319Y-4338427D01*
X-5611505Y-4300000D01*
X-5808491Y-4300000D01*
X-5844607Y-4307183D01*
X-5844935Y-4307153D01*
X-5845225Y-4307304D01*
X-5879593Y-4304051D01*
X-5914198Y-4300954D01*
X-5914570Y-4300741D01*
X-5914784Y-4300721D01*
X-5915976Y-4299935D01*
X-5945365Y-4283100D01*
X-5951213Y-4278509D01*
X-6010202Y-4219520D01*
X-6071252Y-4184273D01*
X-6078185Y-4178830D01*
X-6093562Y-4157275D01*
X-6111831Y-4138114D01*
X-6114202Y-4128341D01*
X-6118761Y-4121950D01*
X-6119513Y-4106450D01*
X-6125615Y-4081295D01*
X-6125615Y-3642591D01*
X-6105930Y-3575552D01*
X-6085235Y-3553056D01*
X-6085949Y-3552342D01*
X-6056332Y-3522725D01*
X-6005635Y-3472028D01*
X-5974022Y-3417273D01*
X-4030500Y-3417273D01*
X-4030500Y-3522727D01*
X-4003207Y-3624587D01*
X-3950480Y-3715913D01*
X-3875913Y-3790480D01*
X-3784587Y-3843207D01*
X-3682727Y-3870500D01*
X-3682725Y-3870500D01*
X-3577275Y-3870500D01*
X-3577273Y-3870500D01*
X-3475413Y-3843207D01*
X-3384087Y-3790480D01*
X-3309520Y-3715913D01*
X-3256793Y-3624587D01*
X-3229500Y-3522727D01*
X-3229500Y-3417273D01*
X-3256793Y-3315413D01*
X-3309520Y-3224087D01*
X-3384087Y-3149520D01*
X-3475413Y-3096793D01*
X-3577273Y-3069500D01*
X-3682727Y-3069500D01*
X-3784587Y-3096793D01*
X-3784590Y-3096794D01*
X-3875915Y-3149521D01*
X-3950479Y-3224085D01*
X-4003206Y-3315410D01*
X-4003207Y-3315413D01*
X-4030500Y-3417273D01*
X-5974022Y-3417273D01*
X-5952908Y-3380702D01*
X-5925615Y-3278842D01*
X-5925615Y-3173388D01*
X-5952908Y-3071528D01*
X-6005635Y-2980202D01*
X-6080202Y-2905635D01*
X-6171528Y-2852908D01*
X-6273388Y-2825615D01*
X-6378842Y-2825615D01*
X-6480702Y-2852908D01*
X-6480705Y-2852909D01*
X-6572030Y-2905636D01*
X-6646594Y-2980200D01*
X-6699321Y-3071525D01*
X-6699322Y-3071528D01*
X-6726615Y-3173388D01*
X-6726615Y-3278842D01*
X-6699322Y-3380702D01*
X-6659602Y-3449500D01*
X-6646594Y-3472029D01*
X-6566281Y-3552342D01*
X-6567966Y-3554026D01*
X-6533928Y-3600638D01*
X-6526615Y-3642591D01*
X-6526615Y-4192745D01*
X-6546300Y-4259784D01*
X-6562934Y-4280426D01*
X-6576594Y-4294085D01*
X-6629321Y-4385410D01*
X-6629322Y-4385413D01*
X-6656615Y-4487273D01*
X-6656615Y-4549987D01*
X-6676300Y-4617026D01*
X-6729104Y-4662781D01*
X-6798262Y-4672725D01*
X-6804807Y-4671604D01*
X-6915929Y-4649500D01*
X-6915931Y-4649500D01*
X-7044069Y-4649500D01*
X-7044071Y-4649500D01*
X-7169739Y-4674497D01*
X-7169745Y-4674499D01*
X-7288125Y-4723533D01*
X-7288134Y-4723538D01*
X-7394669Y-4794723D01*
X-7394673Y-4794726D01*
X-7485274Y-4885327D01*
X-7485277Y-4885331D01*
X-7511898Y-4925173D01*
X-7565510Y-4969978D01*
X-7634835Y-4978685D01*
X-7697863Y-4948530D01*
X-7718102Y-4925173D01*
X-7744724Y-4885331D01*
X-7744727Y-4885327D01*
X-7835328Y-4794726D01*
X-7835332Y-4794723D01*
X-7941867Y-4723538D01*
X-7941876Y-4723533D01*
X-8060256Y-4674499D01*
X-8060262Y-4674497D01*
X-8185929Y-4649500D01*
X-8185931Y-4649500D01*
X-8314069Y-4649500D01*
X-8314071Y-4649500D01*
X-8439739Y-4674497D01*
X-8439745Y-4674499D01*
X-8558125Y-4723533D01*
X-8558134Y-4723538D01*
X-8664669Y-4794723D01*
X-8669898Y-4799952D01*
X-8731223Y-4833434D01*
X-8800915Y-4828445D01*
X-8856846Y-4786571D01*
X-8872250Y-4752021D01*
X-8873558Y-4752564D01*
X-8878233Y-4741281D01*
X-8878233Y-4741278D01*
X-8911496Y-4691496D01*
X-8939589Y-4672725D01*
X-8961276Y-4658234D01*
X-8961283Y-4658231D01*
X-9005178Y-4649500D01*
X-9005180Y-4649500D01*
X-10034820Y-4649500D01*
X-10034822Y-4649500D01*
X-10078718Y-4658231D01*
X-10078725Y-4658234D01*
X-10128504Y-4691495D01*
X-10128505Y-4691496D01*
X-10161766Y-4741275D01*
X-10161769Y-4741282D01*
X-10170500Y-4785177D01*
X-10170500Y-4785180D01*
X-10170500Y-5814820D01*
X-10170500Y-5814822D01*
X-10170501Y-5814822D01*
X-10161769Y-5858717D01*
X-10161768Y-5858720D01*
X-10161768Y-5858721D01*
X-10161767Y-5858722D01*
X-10129769Y-5906611D01*
X-10108892Y-5973287D01*
X-10127377Y-6040667D01*
X-10179356Y-6087357D01*
X-10232872Y-6099500D01*
X-17993039Y-6099500D01*
X-18006923Y-6098720D01*
X-18007784Y-6098623D01*
X-18017448Y-6097534D01*
X-18119516Y-6086033D01*
X-18146586Y-6079855D01*
X-18246926Y-6044745D01*
X-18271944Y-6032697D01*
X-18361954Y-5976140D01*
X-18383663Y-5958827D01*
X-18458828Y-5883662D01*
X-18476141Y-5861953D01*
X-18479400Y-5856767D01*
X-18532699Y-5771941D01*
X-18544746Y-5746925D01*
X-18550731Y-5729822D01*
X-18579857Y-5646583D01*
X-18586034Y-5619514D01*
X-18586745Y-5613207D01*
X-18598720Y-5506921D01*
X-18599500Y-5493038D01*
X-18599500Y-4070000D01*
X-17944862Y-4070000D01*
X-17141988Y-4070000D01*
X-17159205Y-4079940D01*
X-17215060Y-4135795D01*
X-17254556Y-4204204D01*
X-17275000Y-4280504D01*
X-17275000Y-4359496D01*
X-17254556Y-4435796D01*
X-17215060Y-4504205D01*
X-17159205Y-4560060D01*
X-17141988Y-4570000D01*
X-17944862Y-4570000D01*
X-17936570Y-4611690D01*
X-17936570Y-4611692D01*
X-17861193Y-4793671D01*
X-17861186Y-4793684D01*
X-17751752Y-4957462D01*
X-17751749Y-4957466D01*
X-17612467Y-5096748D01*
X-17612463Y-5096751D01*
X-17448685Y-5206185D01*
X-17448672Y-5206192D01*
X-17266694Y-5281569D01*
X-17266682Y-5281572D01*
X-17073496Y-5319999D01*
X-17073492Y-5320000D01*
X-16825000Y-5320000D01*
X-16825000Y-4620000D01*
X-16325000Y-4620000D01*
X-16325000Y-5320000D01*
X-16076508Y-5320000D01*
X-16076505Y-5319999D01*
X-15883319Y-5281572D01*
X-15883307Y-5281569D01*
X-15701329Y-5206192D01*
X-15701316Y-5206185D01*
X-15537538Y-5096751D01*
X-15537534Y-5096748D01*
X-15398252Y-4957466D01*
X-15398249Y-4957462D01*
X-15288815Y-4793684D01*
X-15288808Y-4793671D01*
X-15213431Y-4611692D01*
X-15213431Y-4611690D01*
X-15205138Y-4570000D01*
X-16008012Y-4570000D01*
X-15990795Y-4560060D01*
X-15934940Y-4504205D01*
X-15895444Y-4435796D01*
X-15875000Y-4359496D01*
X-15875000Y-4280504D01*
X-15895444Y-4204204D01*
X-15934940Y-4135795D01*
X-15990795Y-4079940D01*
X-16008012Y-4070000D01*
X-15205138Y-4070000D01*
X-13914862Y-4070000D01*
X-13111988Y-4070000D01*
X-13129205Y-4079940D01*
X-13185060Y-4135795D01*
X-13224556Y-4204204D01*
X-13245000Y-4280504D01*
X-13245000Y-4359496D01*
X-13224556Y-4435796D01*
X-13185060Y-4504205D01*
X-13129205Y-4560060D01*
X-13111988Y-4570000D01*
X-13914862Y-4570000D01*
X-13906570Y-4611690D01*
X-13906570Y-4611692D01*
X-13831193Y-4793671D01*
X-13831186Y-4793684D01*
X-13721752Y-4957462D01*
X-13721749Y-4957466D01*
X-13582467Y-5096748D01*
X-13582463Y-5096751D01*
X-13418685Y-5206185D01*
X-13418672Y-5206192D01*
X-13236694Y-5281569D01*
X-13236682Y-5281572D01*
X-13043496Y-5319999D01*
X-13043492Y-5320000D01*
X-12645000Y-5320000D01*
X-12645000Y-4620000D01*
X-12145000Y-4620000D01*
X-12145000Y-5320000D01*
X-11746508Y-5320000D01*
X-11746505Y-5319999D01*
X-11553319Y-5281572D01*
X-11553307Y-5281569D01*
X-11371329Y-5206192D01*
X-11371316Y-5206185D01*
X-11207538Y-5096751D01*
X-11207534Y-5096748D01*
X-11068252Y-4957466D01*
X-11068249Y-4957462D01*
X-10958815Y-4793684D01*
X-10958808Y-4793671D01*
X-10883431Y-4611692D01*
X-10883431Y-4611690D01*
X-10875138Y-4570000D01*
X-11678012Y-4570000D01*
X-11660795Y-4560060D01*
X-11604940Y-4504205D01*
X-11565444Y-4435796D01*
X-11545000Y-4359496D01*
X-11545000Y-4280504D01*
X-11565444Y-4204204D01*
X-11604940Y-4135795D01*
X-11660795Y-4079940D01*
X-11678012Y-4070000D01*
X-10875138Y-4070000D01*
X-10883431Y-4028309D01*
X-10883431Y-4028307D01*
X-10958808Y-3846328D01*
X-10958815Y-3846315D01*
X-11068249Y-3682537D01*
X-11068252Y-3682533D01*
X-11207534Y-3543251D01*
X-11207538Y-3543248D01*
X-11371316Y-3433814D01*
X-11371329Y-3433807D01*
X-11553307Y-3358430D01*
X-11553319Y-3358427D01*
X-11746505Y-3320000D01*
X-12145000Y-3320000D01*
X-12145000Y-4020000D01*
X-12645000Y-4020000D01*
X-12645000Y-3293110D01*
X-12636356Y-3263669D01*
X-12629832Y-3233683D01*
X-12626078Y-3228667D01*
X-12625315Y-3226071D01*
X-12608681Y-3205429D01*
X-12584209Y-3180957D01*
X-12569426Y-3166174D01*
X-12554515Y-3151263D01*
X-12498497Y-3054237D01*
X-12469500Y-2946018D01*
X-12469500Y-2833982D01*
X-12498497Y-2725763D01*
X-12554515Y-2628737D01*
X-12633737Y-2549515D01*
X-12730763Y-2493497D01*
X-12838982Y-2464500D01*
X-12951018Y-2464500D01*
X-13059237Y-2493497D01*
X-13059240Y-2493498D01*
X-13156260Y-2549513D01*
X-13156266Y-2549517D01*
X-13235483Y-2628734D01*
X-13235487Y-2628740D01*
X-13291502Y-2725760D01*
X-13291503Y-2725763D01*
X-13320500Y-2833982D01*
X-13320500Y-2946018D01*
X-13291503Y-3054237D01*
X-13235485Y-3151263D01*
X-13235483Y-3151265D01*
X-13220574Y-3166174D01*
X-13187089Y-3227497D01*
X-13192073Y-3297189D01*
X-13233945Y-3353122D01*
X-13260802Y-3368416D01*
X-13418675Y-3433809D01*
X-13418685Y-3433814D01*
X-13582463Y-3543248D01*
X-13582467Y-3543251D01*
X-13721749Y-3682533D01*
X-13721752Y-3682537D01*
X-13831186Y-3846315D01*
X-13831193Y-3846328D01*
X-13906570Y-4028307D01*
X-13906570Y-4028309D01*
X-13914862Y-4070000D01*
X-15205138Y-4070000D01*
X-15213431Y-4028309D01*
X-15213431Y-4028307D01*
X-15288808Y-3846328D01*
X-15288815Y-3846315D01*
X-15398249Y-3682537D01*
X-15398252Y-3682533D01*
X-15537534Y-3543251D01*
X-15537538Y-3543248D01*
X-15701316Y-3433814D01*
X-15701329Y-3433807D01*
X-15883307Y-3358430D01*
X-15883319Y-3358427D01*
X-16076505Y-3320000D01*
X-16325000Y-3320000D01*
X-16325000Y-4020000D01*
X-16825000Y-4020000D01*
X-16825000Y-3320000D01*
X-17073496Y-3320000D01*
X-17266682Y-3358427D01*
X-17266694Y-3358430D01*
X-17448672Y-3433807D01*
X-17448685Y-3433814D01*
X-17612463Y-3543248D01*
X-17612467Y-3543251D01*
X-17751749Y-3682533D01*
X-17751752Y-3682537D01*
X-17861186Y-3846315D01*
X-17861193Y-3846328D01*
X-17936570Y-4028307D01*
X-17936570Y-4028309D01*
X-17944862Y-4070000D01*
X-18599500Y-4070000D01*
X-18599500Y-2227273D01*
X-8460500Y-2227273D01*
X-8460500Y-2332726D01*
X-8433207Y-2434586D01*
X-8433206Y-2434589D01*
X-8428231Y-2443206D01*
X-8380480Y-2525913D01*
X-8305913Y-2600480D01*
X-8214587Y-2653207D01*
X-8112727Y-2680500D01*
X-8112725Y-2680500D01*
X-8007275Y-2680500D01*
X-8007273Y-2680500D01*
X-7905413Y-2653207D01*
X-7814087Y-2600480D01*
X-7739520Y-2525913D01*
X-7686793Y-2434587D01*
X-7659500Y-2332727D01*
X-7659500Y-2227273D01*
X-7686793Y-2125413D01*
X-7739520Y-2034087D01*
X-7756334Y-2017273D01*
X-6300500Y-2017273D01*
X-6300500Y-2122727D01*
X-6273207Y-2224587D01*
X-6220480Y-2315913D01*
X-6145913Y-2390480D01*
X-6054587Y-2443207D01*
X-5952727Y-2470500D01*
X-5952725Y-2470500D01*
X-5847275Y-2470500D01*
X-5847273Y-2470500D01*
X-5745413Y-2443207D01*
X-5654087Y-2390480D01*
X-5579520Y-2315913D01*
X-5526793Y-2224587D01*
X-5499500Y-2122727D01*
X-5499500Y-2017273D01*
X-5526793Y-1915413D01*
X-5550621Y-1874142D01*
X-5567093Y-1806245D01*
X-5544241Y-1740218D01*
X-5530914Y-1724463D01*
X-5371037Y-1564586D01*
X-5120024Y-1313574D01*
X-5089500Y-1239882D01*
X-5089500Y-1160118D01*
X-5089500Y2513524D01*
X-5069815Y2580563D01*
X-5049120Y2603059D01*
X-5049834Y2603773D01*
X-5024866Y2628741D01*
X-4969520Y2684087D01*
X-4916793Y2775413D01*
X-4889500Y2877273D01*
X-4889500Y2982727D01*
X-4916793Y3084587D01*
X-4969520Y3175913D01*
X-5044087Y3250480D01*
X-5135413Y3303207D01*
X-5237273Y3330500D01*
X-5342727Y3330500D01*
X-5444587Y3303207D01*
X-5444590Y3303206D01*
X-5535915Y3250479D01*
X-5610479Y3175915D01*
X-5663206Y3084590D01*
X-5663207Y3084587D01*
X-5690500Y2982727D01*
X-5690500Y2877273D01*
X-5673333Y2813207D01*
X-5663207Y2775414D01*
X-5663206Y2775411D01*
X-5654585Y2760479D01*
X-5613606Y2689501D01*
X-5610479Y2684086D01*
X-5530166Y2603773D01*
X-5531851Y2602089D01*
X-5497813Y2555477D01*
X-5490500Y2513524D01*
X-5490500Y-1065588D01*
X-5510185Y-1132627D01*
X-5526819Y-1153269D01*
X-6078611Y-1705061D01*
X-6080623Y-1703049D01*
X-6105075Y-1725940D01*
X-6145912Y-1749518D01*
X-6220480Y-1824087D01*
X-6273206Y-1915410D01*
X-6273207Y-1915413D01*
X-6300500Y-2017273D01*
X-7756334Y-2017273D01*
X-7814087Y-1959520D01*
X-7905413Y-1906793D01*
X-8007273Y-1879500D01*
X-8112727Y-1879500D01*
X-8214587Y-1906793D01*
X-8214590Y-1906794D01*
X-8305915Y-1959521D01*
X-8380479Y-2034085D01*
X-8433206Y-2125410D01*
X-8433207Y-2125413D01*
X-8460500Y-2227273D01*
X-18599500Y-2227273D01*
X-18599500Y1362727D01*
X-11210500Y1362727D01*
X-11210500Y1257273D01*
X-11183207Y1155413D01*
X-11130480Y1064087D01*
X-11055913Y989520D01*
X-10964587Y936793D01*
X-10862727Y909500D01*
X-10862725Y909500D01*
X-10757275Y909500D01*
X-10757273Y909500D01*
X-10655413Y936793D01*
X-10564087Y989520D01*
X-10489520Y1064087D01*
X-10436793Y1155413D01*
X-10409500Y1257273D01*
X-10409500Y1362727D01*
X-10436793Y1464587D01*
X-10489520Y1555913D01*
X-10564087Y1630480D01*
X-10655413Y1683207D01*
X-10757273Y1710500D01*
X-10862727Y1710500D01*
X-10964587Y1683207D01*
X-10964590Y1683206D01*
X-11055915Y1630479D01*
X-11130479Y1555915D01*
X-11183206Y1464590D01*
X-11183207Y1464587D01*
X-11210500Y1362727D01*
X-18599500Y1362727D01*
X-18599500Y5493039D01*
X-18598720Y5506922D01*
X-18593434Y5553834D01*
X-18586034Y5619519D01*
X-18579858Y5646582D01*
X-18544744Y5746932D01*
X-18532701Y5771938D01*
X-18476137Y5861960D01*
X-18458832Y5883659D01*
X-18383659Y5958832D01*
X-18361960Y5976137D01*
X-18319336Y6002919D01*
X-18252103Y6021918D01*
X-18185267Y6001550D01*
X-18140053Y5948283D01*
X-18130815Y5879026D01*
X-18133592Y5865832D01*
X-18150500Y5802729D01*
X-18150500Y5802727D01*
X-18150500Y5697273D01*
X-18123207Y5595413D01*
X-18070480Y5504087D01*
X-17995913Y5429520D01*
X-17904587Y5376793D01*
X-17802727Y5349500D01*
X-17802725Y5349500D01*
X-17697276Y5349500D01*
X-17697273Y5349500D01*
X-17649637Y5362264D01*
X-17579791Y5360601D01*
X-17521929Y5321439D01*
X-17494424Y5257211D01*
X-17506010Y5188309D01*
X-17548655Y5139388D01*
X-17612461Y5096754D01*
X-17612467Y5096749D01*
X-17751749Y4957467D01*
X-17751752Y4957463D01*
X-17861186Y4793685D01*
X-17861193Y4793672D01*
X-17936570Y4611693D01*
X-17936570Y4611691D01*
X-17944862Y4570000D01*
X-17141988Y4570000D01*
X-17159205Y4560060D01*
X-17215060Y4504205D01*
X-17254556Y4435796D01*
X-17275000Y4359496D01*
X-17275000Y4280504D01*
X-17254556Y4204204D01*
X-17215060Y4135795D01*
X-17159205Y4079940D01*
X-17141988Y4070000D01*
X-17944862Y4070000D01*
X-17936570Y4028310D01*
X-17936570Y4028308D01*
X-17861193Y3846329D01*
X-17861186Y3846316D01*
X-17751752Y3682538D01*
X-17751749Y3682534D01*
X-17612467Y3543252D01*
X-17612463Y3543249D01*
X-17448685Y3433815D01*
X-17448672Y3433808D01*
X-17266694Y3358431D01*
X-17266682Y3358428D01*
X-17073496Y3320001D01*
X-17073492Y3320000D01*
X-16825000Y3320000D01*
X-16825000Y4020000D01*
X-16325000Y4020000D01*
X-16325000Y3320000D01*
X-16076508Y3320000D01*
X-16076505Y3320001D01*
X-15883319Y3358428D01*
X-15883307Y3358431D01*
X-15701329Y3433808D01*
X-15701316Y3433815D01*
X-15537538Y3543249D01*
X-15537534Y3543252D01*
X-15398252Y3682534D01*
X-15398249Y3682538D01*
X-15288815Y3846316D01*
X-15288808Y3846329D01*
X-15213431Y4028308D01*
X-15213431Y4028310D01*
X-15205138Y4070000D01*
X-16008012Y4070000D01*
X-15990795Y4079940D01*
X-15934940Y4135795D01*
X-15895444Y4204204D01*
X-15875000Y4280504D01*
X-15875000Y4359496D01*
X-15895444Y4435796D01*
X-15934940Y4504205D01*
X-15990795Y4560060D01*
X-16008012Y4570000D01*
X-15205138Y4570000D01*
X-15213431Y4611691D01*
X-15213431Y4611693D01*
X-15288808Y4793672D01*
X-15288815Y4793685D01*
X-15398249Y4957463D01*
X-15398252Y4957467D01*
X-15537534Y5096749D01*
X-15537538Y5096752D01*
X-15575920Y5122398D01*
X-15620725Y5176010D01*
X-15629432Y5245335D01*
X-15599278Y5308362D01*
X-15539835Y5345082D01*
X-15507029Y5349500D01*
X-15447275Y5349500D01*
X-15447273Y5349500D01*
X-15345413Y5376793D01*
X-15254087Y5429520D01*
X-15212681Y5470926D01*
X-15151358Y5504411D01*
X-15081666Y5499427D01*
X-15037319Y5470926D01*
X-14995913Y5429520D01*
X-14904587Y5376793D01*
X-14802727Y5349500D01*
X-14802725Y5349500D01*
X-14697275Y5349500D01*
X-14697273Y5349500D01*
X-14595413Y5376793D01*
X-14504087Y5429520D01*
X-14462681Y5470926D01*
X-14401358Y5504411D01*
X-14331666Y5499427D01*
X-14287319Y5470926D01*
X-14245913Y5429520D01*
X-14154587Y5376793D01*
X-14052727Y5349500D01*
X-14052725Y5349500D01*
X-13947275Y5349500D01*
X-13947273Y5349500D01*
X-13845413Y5376793D01*
X-13754087Y5429520D01*
X-13712681Y5470926D01*
X-13711853Y5471379D01*
X-13711387Y5472202D01*
X-13681225Y5488103D01*
X-13651358Y5504411D01*
X-13650417Y5504344D01*
X-13649579Y5504785D01*
X-13615632Y5501857D01*
X-13581666Y5499427D01*
X-13580598Y5498834D01*
X-13579968Y5498779D01*
X-13576937Y5496800D01*
X-13549243Y5481412D01*
X-13542944Y5476551D01*
X-13495913Y5429520D01*
X-13440677Y5397630D01*
X-13434109Y5392561D01*
X-13418266Y5370738D01*
X-13399651Y5351215D01*
X-13398046Y5342885D01*
X-13393062Y5336020D01*
X-13391533Y5309095D01*
X-13386427Y5282608D01*
X-13389581Y5274732D01*
X-13389099Y5266263D01*
X-13402371Y5242782D01*
X-13412395Y5217743D01*
X-13421053Y5209731D01*
X-13423479Y5205437D01*
X-13428620Y5202728D01*
X-13440975Y5191292D01*
X-13582463Y5096752D01*
X-13582467Y5096749D01*
X-13721749Y4957467D01*
X-13721752Y4957463D01*
X-13831186Y4793685D01*
X-13831193Y4793672D01*
X-13906570Y4611693D01*
X-13906570Y4611691D01*
X-13914862Y4570000D01*
X-13111988Y4570000D01*
X-13129205Y4560060D01*
X-13185060Y4504205D01*
X-13224556Y4435796D01*
X-13245000Y4359496D01*
X-13245000Y4280504D01*
X-13224556Y4204204D01*
X-13185060Y4135795D01*
X-13129205Y4079940D01*
X-13111988Y4070000D01*
X-13914862Y4070000D01*
X-13906570Y4028310D01*
X-13906570Y4028308D01*
X-13831193Y3846329D01*
X-13831186Y3846316D01*
X-13721752Y3682538D01*
X-13721749Y3682534D01*
X-13582467Y3543252D01*
X-13582463Y3543249D01*
X-13418685Y3433815D01*
X-13418672Y3433808D01*
X-13260803Y3368417D01*
X-13206399Y3324576D01*
X-13184334Y3258282D01*
X-13201613Y3190583D01*
X-13220572Y3166177D01*
X-13235482Y3151267D01*
X-13235487Y3151260D01*
X-13291502Y3054240D01*
X-13291503Y3054237D01*
X-13320500Y2946018D01*
X-13320500Y2833982D01*
X-13291503Y2725763D01*
X-13235485Y2628737D01*
X-13156263Y2549515D01*
X-13059237Y2493497D01*
X-12951018Y2464500D01*
X-12951016Y2464500D01*
X-12838984Y2464500D01*
X-12838982Y2464500D01*
X-12730763Y2493497D01*
X-12633737Y2549515D01*
X-12554515Y2628737D01*
X-12498497Y2725763D01*
X-12469500Y2833982D01*
X-12469500Y2946018D01*
X-12498497Y3054237D01*
X-12554515Y3151263D01*
X-12608681Y3205429D01*
X-12642166Y3266752D01*
X-12645000Y3293110D01*
X-12645000Y4020000D01*
X-12145000Y4020000D01*
X-12145000Y3320000D01*
X-11746508Y3320000D01*
X-11746505Y3320001D01*
X-11553319Y3358428D01*
X-11553307Y3358431D01*
X-11371329Y3433808D01*
X-11371316Y3433815D01*
X-11207538Y3543249D01*
X-11207534Y3543252D01*
X-11068252Y3682534D01*
X-11068249Y3682538D01*
X-10958815Y3846316D01*
X-10958808Y3846329D01*
X-10883431Y4028308D01*
X-10883431Y4028310D01*
X-10875138Y4070000D01*
X-11678012Y4070000D01*
X-11660795Y4079940D01*
X-11604940Y4135795D01*
X-11565444Y4204204D01*
X-11545000Y4280504D01*
X-11545000Y4359496D01*
X-11565444Y4435796D01*
X-11604940Y4504205D01*
X-11660795Y4560060D01*
X-11678012Y4570000D01*
X-10875138Y4570000D01*
X-10883431Y4611691D01*
X-10883431Y4611693D01*
X-10958680Y4793362D01*
X-10958696Y4793400D01*
X-10958812Y4793678D01*
X-10958815Y4793685D01*
X-10984902Y4832727D01*
X-3450500Y4832727D01*
X-3450500Y4727273D01*
X-3423207Y4625413D01*
X-3370480Y4534087D01*
X-3295913Y4459520D01*
X-3204587Y4406793D01*
X-3102727Y4379500D01*
X-3102725Y4379500D01*
X-2997275Y4379500D01*
X-2997273Y4379500D01*
X-2895413Y4406793D01*
X-2804087Y4459520D01*
X-2729520Y4534087D01*
X-2676793Y4625413D01*
X-2649500Y4727273D01*
X-2649500Y4832727D01*
X-2662897Y4882727D01*
X4179500Y4882727D01*
X4179500Y4777273D01*
X4206793Y4675413D01*
X4259520Y4584087D01*
X4334087Y4509520D01*
X4425413Y4456793D01*
X4527273Y4429500D01*
X4527275Y4429500D01*
X4632725Y4429500D01*
X4632727Y4429500D01*
X4734587Y4456793D01*
X4825913Y4509520D01*
X4900480Y4584087D01*
X4953207Y4675413D01*
X4980500Y4777273D01*
X4980500Y4882727D01*
X4953207Y4984587D01*
X4900480Y5075913D01*
X4825913Y5150480D01*
X4734587Y5203207D01*
X4632727Y5230500D01*
X4527273Y5230500D01*
X4425413Y5203207D01*
X4425410Y5203206D01*
X4334085Y5150479D01*
X4259521Y5075915D01*
X4206794Y4984590D01*
X4206793Y4984587D01*
X4179500Y4882727D01*
X-2662897Y4882727D01*
X-2676793Y4934587D01*
X-2729520Y5025913D01*
X-2804087Y5100480D01*
X-2890688Y5150479D01*
X-2895411Y5153206D01*
X-2895412Y5153207D01*
X-2895413Y5153207D01*
X-2997273Y5180500D01*
X-3102727Y5180500D01*
X-3204587Y5153207D01*
X-3204590Y5153206D01*
X-3295915Y5100479D01*
X-3370479Y5025915D01*
X-3423206Y4934590D01*
X-3423207Y4934587D01*
X-3450500Y4832727D01*
X-10984902Y4832727D01*
X-11068249Y4957463D01*
X-11068252Y4957467D01*
X-11207534Y5096749D01*
X-11207538Y5096752D01*
X-11371316Y5206186D01*
X-11371326Y5206191D01*
X-11451668Y5239470D01*
X-11477215Y5260057D01*
X-11503483Y5279722D01*
X-11504285Y5281872D01*
X-11506071Y5283311D01*
X-11516434Y5314445D01*
X-11527899Y5345187D01*
X-11527412Y5347429D01*
X-11528136Y5349606D01*
X-11520019Y5381411D01*
X-11513046Y5413460D01*
X-11511214Y5415908D01*
X-11510857Y5417305D01*
X-11491902Y5441706D01*
X-11462678Y5470930D01*
X-11401356Y5504412D01*
X-11331664Y5499426D01*
X-11287319Y5470926D01*
X-11245913Y5429520D01*
X-11154587Y5376793D01*
X-11052727Y5349500D01*
X-11052725Y5349500D01*
X-10947275Y5349500D01*
X-10947273Y5349500D01*
X-10845413Y5376793D01*
X-10754087Y5429520D01*
X-10679520Y5504087D01*
X-10626793Y5595413D01*
X-10599500Y5697273D01*
X-10599500Y5802727D01*
X-10626793Y5904587D01*
X-10631940Y5913501D01*
X-10648412Y5981400D01*
X-10625560Y6047427D01*
X-10570639Y6090617D01*
X-10524552Y6099500D01*
X7975984Y6099500D01*
X8043023Y6079815D01*
G37*
%TD.AperFunction*%
%TA.AperFunction,Conductor*%
G36*
X14542539Y-3345185D02*
G01*
X14588294Y-3397989D01*
X14599500Y-3449500D01*
X14599500Y-4170500D01*
X14579815Y-4237539D01*
X14527011Y-4283294D01*
X14475500Y-4294500D01*
X13044070Y-4294500D01*
X12977031Y-4274815D01*
X12931276Y-4222011D01*
X12921332Y-4152853D01*
X12950357Y-4089297D01*
X12982070Y-4063113D01*
X12985214Y-4061298D01*
X13055913Y-4020480D01*
X13130480Y-3945913D01*
X13183207Y-3854587D01*
X13210500Y-3752727D01*
X13210500Y-3647273D01*
X13210499Y-3647270D01*
X13209963Y-3643198D01*
X13210500Y-3639753D01*
X13210500Y-3639146D01*
X13210595Y-3639146D01*
X13214703Y-3612792D01*
X13217308Y-3582131D01*
X13220168Y-3577744D01*
X13220727Y-3574162D01*
X13234635Y-3551382D01*
X13239537Y-3545011D01*
X13335476Y-3449074D01*
X13361236Y-3386881D01*
X13371249Y-3373872D01*
X13386758Y-3362581D01*
X13398796Y-3347644D01*
X13414422Y-3342443D01*
X13427736Y-3332751D01*
X13446887Y-3331637D01*
X13465091Y-3325579D01*
X13469516Y-3325500D01*
X14475500Y-3325500D01*
X14542539Y-3345185D01*
G37*
%TD.AperFunction*%
%TA.AperFunction,Conductor*%
G36*
X14542539Y-805185D02*
G01*
X14588294Y-857989D01*
X14599500Y-909500D01*
X14599500Y-1630500D01*
X14579815Y-1697539D01*
X14527011Y-1743294D01*
X14475500Y-1754500D01*
X12968412Y-1754500D01*
X12901373Y-1734815D01*
X12855618Y-1682011D01*
X12845674Y-1612853D01*
X12874699Y-1549297D01*
X12880731Y-1542819D01*
X13066277Y-1357273D01*
X13335476Y-1088074D01*
X13366000Y-1014382D01*
X13366000Y-934618D01*
X13366000Y-909500D01*
X13385685Y-842461D01*
X13438489Y-796706D01*
X13490000Y-785500D01*
X14475500Y-785500D01*
X14542539Y-805185D01*
G37*
%TD.AperFunction*%
%TD*%
M02*
